<?xml version="1.0" encoding="utf-8"?>
<!-- Generator: Adobe Illustrator 15.0.0, SVG Export Plug-In . SVG Version: 6.00 Build 0)  -->
<!DOCTYPE svg PUBLIC "-//W3C//DTD SVG 1.1//EN" "http://www.w3.org/Graphics/SVG/1.1/DTD/svg11.dtd">
<svg version="1.1" id="Layer_1" xmlns="http://www.w3.org/2000/svg" xmlns:xlink="http://www.w3.org/1999/xlink" x="0px" y="0px"
	 width="1100px" height="120px" viewBox="-115 0 1100 120" enable-background="new -115 0 1100 120" xml:space="preserve">
<linearGradient id="SVGID_1_" gradientUnits="userSpaceOnUse" x1="1001.9688" y1="288.8447" x2="1001.9688" y2="311.4811" gradientTransform="matrix(1 0 0 1 -565.3203 -240.9199)">
	<stop  offset="0" style="stop-color:#404040"/>
	<stop  offset="0.2545" style="stop-color:#828282"/>
	<stop  offset="0.503" style="stop-color:#FFFFFF"/>
	<stop  offset="0.7576" style="stop-color:#828282"/>
	<stop  offset="0.9394" style="stop-color:#121212"/>
	<stop  offset="1" style="stop-color:#404040"/>
</linearGradient>
<rect x="-55.925" y="48.078" fill="url(#SVGID_1_)" width="985.146" height="22.23"/>
<g>
	<g>
		<g>
			
				<linearGradient id="SVGID_2_" gradientUnits="userSpaceOnUse" x1="630.4141" y1="265.1934" x2="630.4141" y2="336.5168" gradientTransform="matrix(1 0 0 1 -565.3203 -240.9199)">
				<stop  offset="0" style="stop-color:#005485"/>
				<stop  offset="0.25" style="stop-color:#74B5D2"/>
				<stop  offset="0.503" style="stop-color:#FFFFFF"/>
				<stop  offset="0.75" style="stop-color:#1482B3"/>
				<stop  offset="1" style="stop-color:#005485"/>
			</linearGradient>
			<polygon fill="url(#SVGID_2_)" points="102.892,24.771 65.092,38.603 27.295,24.771 27.295,93.616 65.094,79.355 102.892,93.616 
							"/>
			
				<linearGradient id="SVGID_3_" gradientUnits="userSpaceOnUse" x1="587.832" y1="267.0547" x2="587.832" y2="333.4626" gradientTransform="matrix(1 0 0 1 -565.3203 -240.9199)">
				<stop  offset="0" style="stop-color:#003B69"/>
				<stop  offset="0.15" style="stop-color:#005485"/>
				<stop  offset="0.4" style="stop-color:#74B5D2"/>
				<stop  offset="0.5" style="stop-color:#FFFFFF"/>
				<stop  offset="0.6" style="stop-color:#74B5D2"/>
				<stop  offset="0.85" style="stop-color:#005485"/>
				<stop  offset="1" style="stop-color:#003B69"/>
			</linearGradient>
			<rect x="17.726" y="24.771" fill="url(#SVGID_3_)" width="9.571" height="68.846"/>
			
				<linearGradient id="SVGID_4_" gradientUnits="userSpaceOnUse" x1="672.999" y1="267.0547" x2="672.999" y2="333.4626" gradientTransform="matrix(1 0 0 1 -565.3203 -240.9199)">
				<stop  offset="0" style="stop-color:#003B69"/>
				<stop  offset="0.15" style="stop-color:#005485"/>
				<stop  offset="0.4" style="stop-color:#74B5D2"/>
				<stop  offset="0.5" style="stop-color:#FFFFFF"/>
				<stop  offset="0.6" style="stop-color:#74B5D2"/>
				<stop  offset="0.85" style="stop-color:#005485"/>
				<stop  offset="1" style="stop-color:#003B69"/>
			</linearGradient>
			<rect x="102.892" y="24.771" fill="url(#SVGID_4_)" width="9.573" height="68.846"/>
		</g>
		<path opacity="0.5" fill="#231F20" enable-background="new    " d="M111.733,25.751v66.89h-8.739l-37.7-14.226l-0.198-0.074
			l-0.199,0.074L27.195,92.641h-8.737v-66.89h8.741l37.702,13.797l0.191,0.069l0.193-0.069l37.705-13.797H111.733 M112.465,24.771
			h-9.573l-37.8,13.83l-37.797-13.83h-9.57v68.846h9.57l37.799-14.26l37.798,14.26h9.573V24.771L112.465,24.771z"/>
	</g>
	<g>
		<path d="M63.989,66.148H61.58v-6.172h-6.22v6.172h-2.418V52.236h2.418v5.792h6.22v-5.792h2.409V66.148z"/>
		<path d="M69.265,60.989v5.159h-2.416V52.236h5.322c1.555,0,2.789,0.406,3.705,1.216c0.914,0.809,1.371,1.879,1.371,3.215
			c0,1.364-0.447,2.426-1.343,3.185s-2.146,1.138-3.761,1.138L69.265,60.989L69.265,60.989z M69.265,59.041h2.905
			c0.859,0,1.516-0.202,1.968-0.606c0.452-0.404,0.679-0.988,0.679-1.754c0-0.752-0.229-1.352-0.688-1.801
			c-0.459-0.448-1.09-0.68-1.893-0.692h-2.972L69.265,59.041L69.265,59.041z"/>
	</g>
</g>
<g>
	<g>
		<g>
			
				<linearGradient id="SVGID_5_" gradientUnits="userSpaceOnUse" x1="818.46" y1="248.8682" x2="818.46" y2="349.7659" gradientTransform="matrix(1 0 0 1 -565.3203 -240.9199)">
				<stop  offset="0" style="stop-color:#005485"/>
				<stop  offset="0.25" style="stop-color:#74B5D2"/>
				<stop  offset="0.503" style="stop-color:#FFFFFF"/>
				<stop  offset="0.75" style="stop-color:#1482B3"/>
				<stop  offset="1" style="stop-color:#005485"/>
			</linearGradient>
			<polygon fill="url(#SVGID_5_)" points="295.879,10.304 253.137,29.948 210.4,10.304 210.4,108.084 253.139,87.832 
				295.879,108.084 			"/>
			
				<linearGradient id="SVGID_6_" gradientUnits="userSpaceOnUse" x1="770.3096" y1="253.1602" x2="770.3096" y2="347.4774" gradientTransform="matrix(1 0 0 1 -565.3203 -240.9199)">
				<stop  offset="0" style="stop-color:#003B69"/>
				<stop  offset="0.15" style="stop-color:#005485"/>
				<stop  offset="0.4" style="stop-color:#74B5D2"/>
				<stop  offset="0.5" style="stop-color:#FFFFFF"/>
				<stop  offset="0.6" style="stop-color:#74B5D2"/>
				<stop  offset="0.85" style="stop-color:#005485"/>
				<stop  offset="1" style="stop-color:#003B69"/>
			</linearGradient>
			<rect x="199.578" y="10.304" fill="url(#SVGID_6_)" width="10.822" height="97.78"/>
			
				<linearGradient id="SVGID_7_" gradientUnits="userSpaceOnUse" x1="866.6094" y1="253.1592" x2="866.6094" y2="347.4775" gradientTransform="matrix(1 0 0 1 -565.3203 -240.9199)">
				<stop  offset="0" style="stop-color:#003B69"/>
				<stop  offset="0.15" style="stop-color:#005485"/>
				<stop  offset="0.4" style="stop-color:#74B5D2"/>
				<stop  offset="0.5" style="stop-color:#FFFFFF"/>
				<stop  offset="0.6" style="stop-color:#74B5D2"/>
				<stop  offset="0.85" style="stop-color:#005485"/>
				<stop  offset="1" style="stop-color:#003B69"/>
			</linearGradient>
			<rect x="295.879" y="10.303" fill="url(#SVGID_7_)" width="10.821" height="97.781"/>
		</g>
		<path opacity="0.5" fill="#231F20" enable-background="new    " d="M305.782,11.225v95.941h-9.697l-42.552-20.164l-0.396-0.188
			l-0.394,0.188l-42.55,20.163h-9.696v-95.94h9.701l42.553,19.557l0.386,0.178l0.384-0.178l42.558-19.557H305.782 M306.702,10.303
			h-10.823v0.001l-42.742,19.643L210.4,10.304h-10.822v97.78H210.4l42.739-20.252l42.74,20.252h10.823V10.303L306.702,10.303z"/>
	</g>
	<g>
		<path d="M235.074,64.219h6.316v1.932h-8.734V52.236h2.418V64.219z"/>
		<path d="M245.662,60.989v5.159h-2.418V52.236h5.323c1.555,0,2.789,0.406,3.704,1.216c0.915,0.809,1.372,1.879,1.372,3.215
			c0,1.364-0.448,2.426-1.343,3.185c-0.896,0.759-2.147,1.138-3.761,1.138L245.662,60.989L245.662,60.989z M245.662,59.041h2.903
			c0.86,0,1.519-0.202,1.969-0.606c0.452-0.404,0.679-0.988,0.679-1.754c0-0.752-0.229-1.352-0.688-1.801
			c-0.458-0.448-1.089-0.68-1.892-0.692h-2.971V59.041z"/>
		<path d="M260.034,61.171h-5.018v-1.873h5.018V61.171z"/>
		<path d="M269.964,62.911h-5.39l-1.128,3.237h-2.515l5.258-13.913h2.169l5.267,13.913h-2.522L269.964,62.911z M265.252,60.96h4.033
			l-2.016-5.771L265.252,60.96z"/>
	</g>
</g>
<g>
	<g>
		<g>
			
				<linearGradient id="SVGID_8_" gradientUnits="userSpaceOnUse" x1="1006.5039" y1="248.8682" x2="1006.5039" y2="349.7659" gradientTransform="matrix(1 0 0 1 -565.3203 -240.9199)">
				<stop  offset="0" style="stop-color:#005485"/>
				<stop  offset="0.25" style="stop-color:#74B5D2"/>
				<stop  offset="0.503" style="stop-color:#FFFFFF"/>
				<stop  offset="0.75" style="stop-color:#1482B3"/>
				<stop  offset="1" style="stop-color:#005485"/>
			</linearGradient>
			<polygon fill="url(#SVGID_8_)" points="483.923,10.304 441.18,29.948 398.444,10.304 398.444,108.084 441.183,87.832 
				483.923,108.084 			"/>
			
				<linearGradient id="SVGID_9_" gradientUnits="userSpaceOnUse" x1="958.3555" y1="253.1602" x2="958.3555" y2="347.4774" gradientTransform="matrix(1 0 0 1 -565.3203 -240.9199)">
				<stop  offset="0" style="stop-color:#003B69"/>
				<stop  offset="0.15" style="stop-color:#005485"/>
				<stop  offset="0.4" style="stop-color:#74B5D2"/>
				<stop  offset="0.5" style="stop-color:#FFFFFF"/>
				<stop  offset="0.6" style="stop-color:#74B5D2"/>
				<stop  offset="0.85" style="stop-color:#005485"/>
				<stop  offset="1" style="stop-color:#003B69"/>
			</linearGradient>
			<rect x="387.623" y="10.304" fill="url(#SVGID_9_)" width="10.823" height="97.78"/>
			
				<linearGradient id="SVGID_10_" gradientUnits="userSpaceOnUse" x1="1054.6543" y1="253.1592" x2="1054.6543" y2="347.4775" gradientTransform="matrix(1 0 0 1 -565.3203 -240.9199)">
				<stop  offset="0" style="stop-color:#003B69"/>
				<stop  offset="0.15" style="stop-color:#005485"/>
				<stop  offset="0.4" style="stop-color:#74B5D2"/>
				<stop  offset="0.5" style="stop-color:#FFFFFF"/>
				<stop  offset="0.6" style="stop-color:#74B5D2"/>
				<stop  offset="0.85" style="stop-color:#005485"/>
				<stop  offset="1" style="stop-color:#003B69"/>
			</linearGradient>
			<rect x="483.923" y="10.303" fill="url(#SVGID_10_)" width="10.822" height="97.781"/>
		</g>
		<path opacity="0.5" fill="#231F20" enable-background="new    " d="M493.828,11.225v95.941h-9.697l-42.555-20.164l-0.395-0.188
			l-0.394,0.188l-42.551,20.164h-9.696V11.225h9.703l42.552,19.557l0.385,0.178l0.386-0.178l42.556-19.557H493.828 M494.745,10.303
			h-10.824v0.001L441.18,29.947l-42.735-19.643h-10.822v97.78h10.821l42.738-20.252l42.74,20.252h10.824L494.745,10.303
			L494.745,10.303z"/>
	</g>
	<g>
		<path d="M423.878,64.217h6.316v1.932h-8.734V52.234h2.417L423.878,64.217L423.878,64.217z"/>
		<path d="M434.466,60.986v5.16h-2.416V52.234h5.322c1.555,0,2.789,0.406,3.705,1.216c0.914,0.809,1.371,1.879,1.371,3.215
			c0,1.364-0.447,2.426-1.344,3.185c-0.896,0.759-2.146,1.138-3.761,1.138h-2.877V60.986z M434.466,59.039h2.904
			c0.859,0,1.518-0.202,1.969-0.606c0.451-0.404,0.678-0.988,0.678-1.754c0-0.752-0.229-1.352-0.688-1.801
			c-0.459-0.448-1.09-0.68-1.893-0.692h-2.971L434.466,59.039L434.466,59.039z"/>
		<path d="M448.839,61.169h-5.018v-1.873h5.018V61.169z"/>
		<path d="M450.979,66.146V52.234h4.769c1.573,0,2.771,0.315,3.593,0.946c0.821,0.631,1.232,1.57,1.232,2.819
			c0,0.638-0.172,1.21-0.517,1.722c-0.345,0.51-0.848,0.904-1.51,1.186c0.751,0.203,1.333,0.586,1.744,1.151
			c0.41,0.563,0.616,1.24,0.616,2.03c0,1.307-0.421,2.309-1.259,3.01c-0.839,0.702-2.037,1.053-3.599,1.053h-5.071L450.979,66.146
			L450.979,66.146z M453.396,58.093h2.369c0.753,0,1.341-0.17,1.765-0.51c0.423-0.342,0.635-0.824,0.635-1.449
			c0-0.688-0.194-1.186-0.586-1.49s-1.002-0.458-1.83-0.458h-2.351v3.907H453.396z M453.396,59.868v4.349h2.686
			c0.758,0,1.351-0.188,1.777-0.563c0.427-0.379,0.641-0.899,0.641-1.568c0-1.445-0.739-2.186-2.216-2.217L453.396,59.868
			L453.396,59.868z"/>
	</g>
</g>
<g>
	<g>
		<g>
			
				<linearGradient id="SVGID_11_" gradientUnits="userSpaceOnUse" x1="1194.5479" y1="248.8682" x2="1194.5479" y2="349.7659" gradientTransform="matrix(1 0 0 1 -565.3203 -240.9199)">
				<stop  offset="0" style="stop-color:#005485"/>
				<stop  offset="0.25" style="stop-color:#74B5D2"/>
				<stop  offset="0.503" style="stop-color:#FFFFFF"/>
				<stop  offset="0.75" style="stop-color:#1482B3"/>
				<stop  offset="1" style="stop-color:#005485"/>
			</linearGradient>
			<polygon fill="url(#SVGID_11_)" points="671.967,10.304 629.225,29.948 586.488,10.304 586.488,108.084 629.228,87.832 
				671.967,108.084 			"/>
			
				<linearGradient id="SVGID_12_" gradientUnits="userSpaceOnUse" x1="1146.3984" y1="253.1602" x2="1146.3984" y2="347.4774" gradientTransform="matrix(1 0 0 1 -565.3203 -240.9199)">
				<stop  offset="0" style="stop-color:#003B69"/>
				<stop  offset="0.15" style="stop-color:#005485"/>
				<stop  offset="0.4" style="stop-color:#74B5D2"/>
				<stop  offset="0.5" style="stop-color:#FFFFFF"/>
				<stop  offset="0.6" style="stop-color:#74B5D2"/>
				<stop  offset="0.85" style="stop-color:#005485"/>
				<stop  offset="1" style="stop-color:#003B69"/>
			</linearGradient>
			<rect x="575.667" y="10.304" fill="url(#SVGID_12_)" width="10.822" height="97.78"/>
			
				<linearGradient id="SVGID_13_" gradientUnits="userSpaceOnUse" x1="1242.6992" y1="253.1592" x2="1242.6992" y2="347.4775" gradientTransform="matrix(1 0 0 1 -565.3203 -240.9199)">
				<stop  offset="0" style="stop-color:#003B69"/>
				<stop  offset="0.15" style="stop-color:#005485"/>
				<stop  offset="0.4" style="stop-color:#74B5D2"/>
				<stop  offset="0.5" style="stop-color:#FFFFFF"/>
				<stop  offset="0.6" style="stop-color:#74B5D2"/>
				<stop  offset="0.85" style="stop-color:#005485"/>
				<stop  offset="1" style="stop-color:#003B69"/>
			</linearGradient>
			<rect x="671.967" y="10.303" fill="url(#SVGID_13_)" width="10.823" height="97.781"/>
		</g>
		<path opacity="0.5" fill="#231F20" enable-background="new    " d="M681.871,11.225v95.941h-9.698l-42.552-20.164l-0.395-0.188
			l-0.394,0.188l-42.555,20.164h-9.694V11.225h9.7l42.556,19.557l0.385,0.178l0.386-0.178l42.558-19.557H681.871 M682.79,10.303
			h-10.825v0.001l-42.74,19.643l-42.736-19.643h-10.822v97.78h10.822l42.739-20.252l42.739,20.252h10.825V10.303H682.79z"/>
	</g>
	<g>
		<path d="M611.575,64.217h6.316v1.932h-8.732V52.234h2.416V64.217z"/>
		<path d="M622.164,60.986v5.16h-2.416V52.234h5.322c1.555,0,2.788,0.406,3.703,1.216c0.915,0.809,1.372,1.879,1.372,3.215
			c0,1.364-0.447,2.426-1.342,3.185c-0.896,0.759-2.149,1.138-3.761,1.138h-2.879V60.986z M622.164,59.039h2.904
			c0.86,0,1.518-0.202,1.97-0.606c0.451-0.404,0.679-0.988,0.679-1.754c0-0.752-0.229-1.352-0.688-1.801
			c-0.459-0.448-1.089-0.68-1.892-0.692h-2.973V59.039z"/>
		<path d="M636.537,61.169h-5.019v-1.873h5.019V61.169z"/>
		<path d="M649.294,61.619c-0.141,1.482-0.688,2.642-1.645,3.474s-2.225,1.248-3.813,1.248c-1.108,0-2.084-0.263-2.93-0.789
			c-0.845-0.524-1.495-1.271-1.954-2.239c-0.457-0.97-0.697-2.092-0.716-3.374V58.64c0-1.313,0.232-2.47,0.697-3.469
			c0.466-1,1.133-1.771,2.002-2.313c0.872-0.542,1.875-0.813,3.018-0.813c1.533,0,2.771,0.416,3.706,1.248
			c0.937,0.831,1.48,2.008,1.636,3.529h-2.409c-0.115-0.999-0.406-1.721-0.875-2.163c-0.468-0.442-1.154-0.665-2.059-0.665
			c-1.054,0-1.859,0.385-2.423,1.154c-0.563,0.77-0.852,1.896-0.863,3.381v1.234c0,1.504,0.268,2.652,0.806,3.442
			c0.539,0.792,1.327,1.188,2.365,1.188c0.949,0,1.665-0.216,2.143-0.643c0.479-0.427,0.78-1.137,0.907-2.132L649.294,61.619
			L649.294,61.619z"/>
	</g>
	<path fill="none" stroke="#EE2D45" stroke-width="2" stroke-miterlimit="10" d="M629.229,59.193"/>
</g>
<g>
	<g>
		<g>
			
				<linearGradient id="SVGID_14_" gradientUnits="userSpaceOnUse" x1="1382.5947" y1="270.6035" x2="1382.5947" y2="330.1895" gradientTransform="matrix(1 0 0 1 -565.3203 -240.9199)">
				<stop  offset="0" style="stop-color:#005485"/>
				<stop  offset="0.25" style="stop-color:#74B5D2"/>
				<stop  offset="0.503" style="stop-color:#FFFFFF"/>
				<stop  offset="0.75" style="stop-color:#1482B3"/>
				<stop  offset="1" style="stop-color:#005485"/>
			</linearGradient>
			<rect x="778.473" y="29.401" fill="url(#SVGID_14_)" width="77.604" height="59.585"/>
		</g>
		<path opacity="0.5" fill="#231F20" enable-background="new    " d="M855.097,30.254v57.88h-75.647v-57.88H855.097 M856.074,29.401
			h-77.603v59.585h77.603V29.401L856.074,29.401z"/>
		
			<linearGradient id="SVGID_15_" gradientUnits="userSpaceOnUse" x1="1382.5947" y1="261.3662" x2="1382.5947" y2="337.6892" gradientTransform="matrix(1 0 0 1 -565.3203 -240.9199)">
			<stop  offset="0" style="stop-color:#005485"/>
			<stop  offset="0.25" style="stop-color:#74B5D2"/>
			<stop  offset="0.503" style="stop-color:#FFFFFF"/>
			<stop  offset="0.75" style="stop-color:#1482B3"/>
			<stop  offset="1" style="stop-color:#005485"/>
		</linearGradient>
		<rect x="786.353" y="21.952" fill="url(#SVGID_15_)" width="61.844" height="74.481"/>
		<path opacity="0.5" fill="#231F20" enable-background="new    " d="M847.218,22.806V95.58h-59.89V22.806H847.218 M848.196,21.952
			h-61.844v74.481h61.844V21.952L848.196,21.952z"/>
	</g>
	<g>
		<path d="M810.426,64.344c-0.503,0.655-1.201,1.152-2.093,1.49c-0.893,0.338-1.905,0.508-3.037,0.508
			c-1.168,0-2.2-0.265-3.097-0.793c-0.897-0.527-1.592-1.285-2.076-2.271c-0.487-0.984-0.741-2.133-0.763-3.443v-1.09
			c0-2.102,0.505-3.744,1.513-4.926c1.005-1.184,2.411-1.773,4.214-1.773c1.547,0,2.776,0.383,3.688,1.151
			c0.911,0.768,1.459,1.87,1.645,3.311h-2.369c-0.269-1.675-1.239-2.513-2.915-2.513c-1.083,0-1.906,0.39-2.471,1.17
			c-0.563,0.778-0.854,1.924-0.874,3.431v1.067c0,1.502,0.316,2.668,0.95,3.5c0.635,0.83,1.516,1.247,2.643,1.247
			c1.236,0,2.115-0.281,2.638-0.843v-2.724h-2.866v-1.835h5.272L810.426,64.344L810.426,64.344z"/>
		<path d="M821.215,59.937H815.5v4.281h6.68v1.931h-9.098V52.235h9.029v1.949H815.5v3.841h5.715V59.937z"/>
		<path d="M835.186,66.148h-2.418l-6.202-9.872v9.872h-2.417V52.235h2.417l6.22,9.91v-9.91h2.4V66.148L835.186,66.148z"/>
	</g>
</g>
</svg>
