<?xml version="1.0" encoding="utf-8"?>
<!-- Generator: Adobe Illustrator 15.0.0, SVG Export Plug-In . SVG Version: 6.00 Build 0)  -->
<!DOCTYPE svg PUBLIC "-//W3C//DTD SVG 1.1//EN" "http://www.w3.org/Graphics/SVG/1.1/DTD/svg11.dtd">
<svg version="1.1" id="Layer_1" xmlns="http://www.w3.org/2000/svg" xmlns:xlink="http://www.w3.org/1999/xlink" x="0px" y="0px"
	 width="1000px" height="300px" viewBox="0 0 1000 300" enable-background="new 0 0 1000 300" xml:space="preserve">
<linearGradient id="SVGID_1_" gradientUnits="userSpaceOnUse" x1="1595.626" y1="1102.6455" x2="1595.626" y2="1123.198" gradientTransform="matrix(1 0 0 1 -1130.6406 -961.8398)">
	<stop  offset="0" style="stop-color:#404040"/>
	<stop  offset="0.2545" style="stop-color:#828282"/>
	<stop  offset="0.503" style="stop-color:#FFFFFF"/>
	<stop  offset="0.7576" style="stop-color:#828282"/>
	<stop  offset="0.9394" style="stop-color:#121212"/>
	<stop  offset="1" style="stop-color:#404040"/>
</linearGradient>
<rect x="17.75" y="140.943" fill="url(#SVGID_1_)" width="894.471" height="20.185"/>
<g>
	
		<linearGradient id="SVGID_2_" gradientUnits="userSpaceOnUse" x1="1235.5713" y1="1081.1689" x2="1235.5713" y2="1145.9279" gradientTransform="matrix(1 0 0 1 -1130.6406 -961.8398)">
		<stop  offset="0" style="stop-color:#005485"/>
		<stop  offset="0.25" style="stop-color:#74B5D2"/>
		<stop  offset="0.503" style="stop-color:#FFFFFF"/>
		<stop  offset="0.75" style="stop-color:#1482B3"/>
		<stop  offset="1" style="stop-color:#005485"/>
	</linearGradient>
	<polygon fill="url(#SVGID_2_)" points="139.25,119.781 104.929,132.341 70.611,119.781 70.611,182.29 104.931,169.342 
		139.25,182.29 	"/>
	
		<linearGradient id="SVGID_3_" gradientUnits="userSpaceOnUse" x1="1274.1182" y1="1082.8594" x2="1274.1182" y2="1143.1553" gradientTransform="matrix(1 0 0 1 -1130.6406 -961.8398)">
		<stop  offset="0" style="stop-color:#003B69"/>
		<stop  offset="0.15" style="stop-color:#005485"/>
		<stop  offset="0.4" style="stop-color:#74B5D2"/>
		<stop  offset="0.5" style="stop-color:#FFFFFF"/>
		<stop  offset="0.6" style="stop-color:#74B5D2"/>
		<stop  offset="0.85" style="stop-color:#005485"/>
		<stop  offset="1" style="stop-color:#003B69"/>
	</linearGradient>
	<rect x="139.012" y="119.781" fill="url(#SVGID_3_)" width="8.93" height="62.51"/>
	
		<linearGradient id="SVGID_4_" gradientUnits="userSpaceOnUse" x1="1196.9688" y1="1082.8594" x2="1196.9688" y2="1143.1553" gradientTransform="matrix(1 0 0 1 -1130.6406 -961.8398)">
		<stop  offset="0" style="stop-color:#003B69"/>
		<stop  offset="0.15" style="stop-color:#005485"/>
		<stop  offset="0.4" style="stop-color:#74B5D2"/>
		<stop  offset="0.5" style="stop-color:#FFFFFF"/>
		<stop  offset="0.6" style="stop-color:#74B5D2"/>
		<stop  offset="0.85" style="stop-color:#005485"/>
		<stop  offset="1" style="stop-color:#003B69"/>
	</linearGradient>
	<rect x="61.923" y="119.781" fill="url(#SVGID_4_)" width="8.81" height="62.51"/>
	<path opacity="0.5" fill="#231F20" enable-background="new    " d="M147.277,120.671v60.733h-7.935l-34.23-12.918l-0.18-0.066
		l-0.181,0.066l-34.232,12.918h-7.933v-60.733h7.937l34.231,12.527l0.173,0.063l0.176-0.063l34.234-12.527H147.277 M147.942,119.781
		h-8.691l-34.321,12.558l-34.318-12.558h-8.689v62.51h8.689l34.32-12.947l34.319,12.947h8.691V119.781L147.942,119.781z"/>
	<g>
		<path d="M103.928,157.35h-2.187v-5.604h-5.648v5.604h-2.195v-12.631h2.195v5.258h5.648v-5.258h2.187V157.35z"/>
		<path d="M108.718,152.666v4.684h-2.193v-12.631h4.832c1.412,0,2.532,0.368,3.364,1.104c0.83,0.733,1.245,1.706,1.245,2.919
			c0,1.238-0.406,2.201-1.22,2.892s-1.949,1.034-3.415,1.034L108.718,152.666L108.718,152.666z M108.718,150.896h2.638
			c0.78,0,1.376-0.185,1.787-0.551c0.41-0.365,0.616-0.896,0.616-1.592c0-0.684-0.208-1.229-0.625-1.636s-0.989-0.617-1.719-0.63
			h-2.698L108.718,150.896L108.718,150.896z"/>
	</g>
</g>
<g>
	
		<linearGradient id="SVGID_5_" gradientUnits="userSpaceOnUse" x1="1371.8066" y1="1066.3486" x2="1371.8066" y2="1157.9589" gradientTransform="matrix(1 0 0 1 -1130.6406 -961.8398)">
		<stop  offset="0" style="stop-color:#005485"/>
		<stop  offset="0.25" style="stop-color:#74B5D2"/>
		<stop  offset="0.503" style="stop-color:#FFFFFF"/>
		<stop  offset="0.75" style="stop-color:#1482B3"/>
		<stop  offset="1" style="stop-color:#005485"/>
	</linearGradient>
	<polygon fill="url(#SVGID_5_)" points="279.972,106.646 241.164,124.482 202.36,106.646 202.36,195.427 241.166,177.039 
		279.972,195.427 	"/>
	
		<linearGradient id="SVGID_6_" gradientUnits="userSpaceOnUse" x1="1328.1484" y1="1070.2451" x2="1328.1484" y2="1155.8805" gradientTransform="matrix(1 0 0 1 -1130.6406 -961.8398)">
		<stop  offset="0" style="stop-color:#003B69"/>
		<stop  offset="0.15" style="stop-color:#005485"/>
		<stop  offset="0.4" style="stop-color:#74B5D2"/>
		<stop  offset="0.5" style="stop-color:#FFFFFF"/>
		<stop  offset="0.6" style="stop-color:#74B5D2"/>
		<stop  offset="0.85" style="stop-color:#005485"/>
		<stop  offset="1" style="stop-color:#003B69"/>
	</linearGradient>
	<rect x="192.535" y="106.646" fill="url(#SVGID_6_)" width="9.945" height="88.779"/>
	
		<linearGradient id="SVGID_7_" gradientUnits="userSpaceOnUse" x1="1415.4063" y1="1070.2441" x2="1415.4063" y2="1155.8807" gradientTransform="matrix(1 0 0 1 -1130.6406 -961.8398)">
		<stop  offset="0" style="stop-color:#003B69"/>
		<stop  offset="0.15" style="stop-color:#005485"/>
		<stop  offset="0.4" style="stop-color:#74B5D2"/>
		<stop  offset="0.5" style="stop-color:#FFFFFF"/>
		<stop  offset="0.6" style="stop-color:#74B5D2"/>
		<stop  offset="0.85" style="stop-color:#005485"/>
		<stop  offset="1" style="stop-color:#003B69"/>
	</linearGradient>
	<rect x="279.733" y="106.646" fill="url(#SVGID_7_)" width="10.063" height="88.78"/>
	<path d="M224.764,155.6h5.734v1.754h-7.93v-12.633h2.195L224.764,155.6L224.764,155.6z"/>
	<path d="M234.377,152.667v4.685h-2.195v-12.631h4.833c1.412,0,2.532,0.367,3.363,1.104c0.831,0.734,1.246,1.705,1.246,2.919
		c0,1.239-0.407,2.202-1.22,2.892s-1.949,1.034-3.415,1.034L234.377,152.667L234.377,152.667z M234.377,150.896h2.636
		c0.781,0,1.379-0.184,1.788-0.549c0.41-0.367,0.616-0.896,0.616-1.593c0-0.683-0.208-1.229-0.625-1.636
		c-0.416-0.407-0.988-0.617-1.718-0.629h-2.697V150.896z"/>
	<path d="M247.426,152.832h-4.556v-1.701h4.556V152.832z"/>
	<path d="M256.442,154.412h-4.895l-1.024,2.938h-2.283l4.773-12.633h1.97l4.781,12.633h-2.29L256.442,154.412z M252.164,152.641
		h3.662l-1.831-5.24L252.164,152.641z"/>
	<path opacity="0.5" fill="#231F20" enable-background="new    " d="M288.963,107.482v87.11h-8.805l-38.635-18.309l-0.359-0.171
		l-0.358,0.171l-38.634,18.308h-8.803v-87.109h8.808l38.636,17.758l0.351,0.16l0.349-0.16l38.641-17.758H288.963 M289.799,106.646
		h-9.827v0.002l-38.808,17.834l-38.804-17.834h-9.826v88.778h9.826l38.806-18.388l38.806,18.388h9.827V106.646L289.799,106.646z"/>
</g>
<g>
	<rect x="824.416" y="127.915" fill="#FFFFFF" stroke="#000000" stroke-miterlimit="10" width="161.084" height="46.241"/>
	<g>
		<path d="M862.694,151.873c-0.101,1.046-0.485,1.861-1.159,2.447c-0.673,0.587-1.568,0.88-2.688,0.88
			c-0.78,0-1.47-0.187-2.063-0.556c-0.595-0.371-1.055-0.896-1.377-1.58c-0.323-0.683-0.492-1.476-0.506-2.377v-0.916
			c0-0.926,0.163-1.739,0.491-2.444c0.327-0.705,0.799-1.248,1.411-1.63c0.612-0.383,1.32-0.572,2.125-0.572
			c1.081,0,1.952,0.293,2.612,0.879s1.044,1.415,1.152,2.488h-1.697c-0.081-0.705-0.286-1.213-0.616-1.525s-0.814-0.468-1.451-0.468
			c-0.741,0-1.311,0.271-1.708,0.813c-0.396,0.541-0.601,1.334-0.608,2.383v0.869c0,1.061,0.188,1.869,0.568,2.427
			c0.379,0.558,0.936,0.836,1.667,0.836c0.669,0,1.172-0.15,1.509-0.451c0.336-0.301,0.551-0.802,0.641-1.502L862.694,151.873
			L862.694,151.873z"/>
		<path d="M872.042,150.418c0,0.961-0.166,1.805-0.498,2.529c-0.332,0.726-0.808,1.281-1.425,1.67s-1.327,0.583-2.131,0.583
			c-0.795,0-1.503-0.194-2.125-0.583s-1.104-0.941-1.441-1.66c-0.339-0.719-0.511-1.546-0.516-2.484v-0.553
			c0-0.956,0.17-1.8,0.509-2.531s0.817-1.293,1.435-1.682s1.325-0.582,2.125-0.582s1.508,0.191,2.125,0.576
			c0.617,0.384,1.095,0.936,1.432,1.656c0.337,0.72,0.508,1.56,0.512,2.516L872.042,150.418L872.042,150.418z M870.339,149.906
			c0-1.086-0.206-1.92-0.616-2.498c-0.411-0.579-0.994-0.869-1.748-0.869c-0.735,0-1.313,0.289-1.728,0.865
			s-0.628,1.394-0.637,2.447v0.565c0,1.078,0.21,1.911,0.63,2.499s1.002,0.882,1.748,0.882c0.754,0,1.334-0.286,1.739-0.86
			c0.406-0.576,0.61-1.416,0.61-2.521L870.339,149.906L870.339,149.906z"/>
		<path d="M875.442,153.705h4.452v1.359h-6.155v-9.806h1.703V153.705z"/>
		<path d="M882.904,153.705h4.452v1.359h-6.155v-9.806h1.703V153.705z"/>
		<path d="M894.396,150.688h-4.028v3.019h4.708v1.36h-6.411v-9.807h6.364v1.374h-4.661v2.707h4.028V150.688z"/>
		<path d="M903.945,151.873c-0.101,1.046-0.485,1.861-1.159,2.447c-0.673,0.587-1.568,0.88-2.688,0.88
			c-0.78,0-1.47-0.187-2.063-0.556c-0.594-0.371-1.055-0.896-1.377-1.58c-0.323-0.683-0.492-1.476-0.506-2.377v-0.916
			c0-0.926,0.164-1.739,0.491-2.444s0.799-1.248,1.411-1.63c0.612-0.383,1.32-0.572,2.125-0.572c1.081,0,1.952,0.293,2.612,0.879
			s1.044,1.415,1.152,2.488h-1.697c-0.081-0.705-0.286-1.213-0.616-1.525s-0.814-0.468-1.451-0.468
			c-0.741,0-1.311,0.271-1.708,0.813c-0.396,0.541-0.601,1.334-0.608,2.383v0.869c0,1.061,0.188,1.869,0.568,2.427
			c0.379,0.558,0.936,0.836,1.667,0.836c0.669,0,1.172-0.15,1.509-0.451c0.336-0.301,0.551-0.802,0.641-1.502L903.945,151.873
			L903.945,151.873z"/>
		<path d="M912.356,146.634h-3.059v8.433h-1.689v-8.433h-3.031v-1.374h7.779V146.634z"/>
		<path d="M921.279,150.418c0,0.961-0.166,1.805-0.498,2.529c-0.332,0.726-0.809,1.281-1.425,1.67
			c-0.617,0.389-1.327,0.583-2.132,0.583c-0.795,0-1.503-0.194-2.125-0.583c-0.621-0.389-1.103-0.941-1.44-1.66
			c-0.339-0.719-0.511-1.546-0.517-2.484v-0.553c0-0.956,0.171-1.8,0.51-2.531s0.816-1.293,1.435-1.682
			c0.617-0.389,1.325-0.582,2.125-0.582c0.799,0,1.507,0.191,2.125,0.576c0.617,0.384,1.094,0.936,1.431,1.656
			c0.338,0.72,0.509,1.56,0.513,2.516L921.279,150.418L921.279,150.418z M919.576,149.906c0-1.086-0.206-1.92-0.616-2.498
			c-0.411-0.579-0.994-0.869-1.748-0.869c-0.736,0-1.313,0.289-1.728,0.865s-0.629,1.394-0.638,2.447v0.565
			c0,1.078,0.21,1.911,0.63,2.499s1.002,0.882,1.748,0.882c0.754,0,1.334-0.286,1.74-0.86c0.406-0.576,0.61-1.416,0.61-2.521
			L919.576,149.906L919.576,149.906z"/>
		<path d="M926.58,151.294h-1.899v3.771h-1.702v-9.806h3.447c1.131,0,2.004,0.255,2.619,0.763s0.923,1.242,0.923,2.203
			c0,0.656-0.158,1.205-0.475,1.647s-0.758,0.782-1.323,1.021l2.202,4.084v0.088h-1.825L926.58,151.294z M924.681,149.92h1.752
			c0.574,0,1.023-0.145,1.348-0.436c0.323-0.289,0.483-0.686,0.483-1.188c0-0.525-0.148-0.932-0.446-1.219
			c-0.3-0.287-0.744-0.436-1.337-0.444h-1.8V149.92z"/>
		<path d="M940.508,152.782h-3.798l-0.795,2.282h-1.771l3.703-9.806h1.529l3.711,9.806h-1.778L940.508,152.782z M937.188,151.408
			h2.844l-1.422-4.067L937.188,151.408z"/>
		<path d="M945.996,155.064h-1.697v-9.806h1.697V155.064z"/>
		<path d="M951.694,151.294h-1.899v3.771h-1.703v-9.806h3.448c1.131,0,2.004,0.255,2.619,0.763s0.923,1.242,0.923,2.203
			c0,0.656-0.158,1.205-0.475,1.647s-0.759,0.782-1.323,1.021l2.202,4.084v0.088h-1.825L951.694,151.294z M949.795,149.92h1.752
			c0.574,0,1.023-0.145,1.347-0.436c0.323-0.289,0.484-0.686,0.484-1.188c0-0.525-0.149-0.932-0.447-1.219
			c-0.299-0.287-0.744-0.436-1.337-0.444h-1.799V149.92z"/>
	</g>
</g>
<linearGradient id="SVGID_8_" gradientUnits="userSpaceOnUse" x1="828.0693" y1="-380.8413" x2="828.0693" y2="-130.0448" gradientTransform="matrix(1 0 0 -1 -282.6602 -104.96)">
	<stop  offset="0" style="stop-color:#FFDBBD"/>
	<stop  offset="1" style="stop-color:#FFCCA3"/>
</linearGradient>
<polygon fill="url(#SVGID_8_)" points="362.183,274.184 322.263,234.264 322.263,67.809 362.183,27.89 728.636,27.89 
	768.556,67.809 768.556,234.264 728.636,274.184 "/>
<g>
	
		<linearGradient id="SVGID_9_" gradientUnits="userSpaceOnUse" x1="1562.5508" y1="999.9834" x2="1562.5508" y2="1040.9493" gradientTransform="matrix(1 0 0 1 -1130.6406 -961.8398)">
		<stop  offset="0" style="stop-color:#828282"/>
		<stop  offset="0.503" style="stop-color:#FFFFFF"/>
		<stop  offset="1" style="stop-color:#828282"/>
	</linearGradient>
	<rect x="380.337" y="38.421" fill="url(#SVGID_9_)" width="103.146" height="40.23"/>
	<g>
		<path d="M411.797,59.265c-0.086,0.91-0.422,1.62-1.008,2.13c-0.586,0.51-1.365,0.765-2.338,0.765c-0.68,0-1.278-0.161-1.796-0.483
			c-0.519-0.322-0.917-0.78-1.198-1.374c-0.281-0.594-0.428-1.283-0.439-2.068v-0.797c0-0.805,0.144-1.514,0.429-2.127
			s0.693-1.086,1.228-1.418s1.149-0.498,1.85-0.498c0.94,0,1.698,0.255,2.272,0.765c0.574,0.51,0.908,1.231,1.002,2.165h-1.477
			c-0.07-0.613-0.249-1.056-0.536-1.327s-0.708-0.407-1.263-0.407c-0.646,0-1.141,0.235-1.485,0.706
			c-0.346,0.472-0.522,1.163-0.53,2.074v0.756c0,0.923,0.165,1.627,0.495,2.111c0.33,0.485,0.813,0.728,1.45,0.728
			c0.582,0,1.02-0.131,1.313-0.393c0.293-0.262,0.479-0.697,0.558-1.307L411.797,59.265L411.797,59.265z"/>
		<path d="M419.93,57.999c0,0.836-0.145,1.569-0.434,2.2c-0.289,0.631-0.702,1.115-1.239,1.453
			c-0.537,0.338-1.155,0.507-1.854,0.507c-0.691,0-1.309-0.169-1.85-0.507c-0.541-0.338-0.959-0.819-1.254-1.444
			s-0.443-1.346-0.448-2.162v-0.48c0-0.832,0.147-1.566,0.442-2.203c0.295-0.637,0.711-1.124,1.248-1.462s1.153-0.507,1.849-0.507
			c0.696,0,1.313,0.167,1.85,0.501s0.952,0.814,1.245,1.441s0.44,1.356,0.444,2.188V57.999L419.93,57.999z M418.447,57.554
			c0-0.945-0.18-1.67-0.536-2.174c-0.357-0.504-0.864-0.756-1.521-0.756c-0.641,0-1.142,0.251-1.503,0.753
			c-0.36,0.502-0.546,1.212-0.554,2.13v0.492c0,0.938,0.183,1.662,0.548,2.174c0.365,0.512,0.872,0.768,1.521,0.768
			c0.655,0,1.161-0.25,1.515-0.75c0.354-0.5,0.53-1.23,0.53-2.191V57.554L418.447,57.554z"/>
		<path d="M428.215,57.999c0,0.836-0.145,1.569-0.434,2.2c-0.289,0.631-0.702,1.115-1.239,1.453
			c-0.537,0.338-1.155,0.507-1.854,0.507c-0.69,0-1.308-0.169-1.849-0.507c-0.541-0.338-0.959-0.819-1.254-1.444
			s-0.444-1.346-0.448-2.162v-0.48c0-0.832,0.147-1.566,0.442-2.203c0.295-0.637,0.711-1.124,1.248-1.462s1.153-0.507,1.849-0.507
			c0.696,0,1.313,0.167,1.85,0.501c0.536,0.334,0.951,0.814,1.244,1.441s0.441,1.356,0.445,2.188V57.999L428.215,57.999z
			 M426.732,57.554c0-0.945-0.18-1.67-0.536-2.174c-0.357-0.504-0.864-0.756-1.521-0.756c-0.641,0-1.142,0.251-1.503,0.753
			s-0.546,1.212-0.554,2.13v0.492c0,0.938,0.183,1.662,0.548,2.174c0.365,0.512,0.872,0.768,1.521,0.768
			c0.655,0,1.16-0.25,1.515-0.75c0.354-0.5,0.53-1.23,0.53-2.191V57.554L426.732,57.554z"/>
		<path d="M431.174,60.858h3.873v1.184h-5.354v-8.531h1.481V60.858L431.174,60.858z"/>
		<path d="M441.17,58.233h-3.504v2.625h4.096v1.184h-5.578v-8.531h5.537v1.195h-4.055v2.355h3.504V58.233z"/>
		<path d="M446.104,58.761h-1.651v3.281h-1.482v-8.531h3c0.984,0,1.744,0.221,2.279,0.663c0.535,0.441,0.803,1.08,0.803,1.917
			c0,0.571-0.138,1.049-0.413,1.435c-0.274,0.385-0.658,0.681-1.15,0.888l1.916,3.553v0.076h-1.588L446.104,58.761z M444.451,57.565
			h1.522c0.5,0,0.892-0.126,1.173-0.378c0.28-0.252,0.422-0.597,0.422-1.034c0-0.457-0.131-0.811-0.391-1.061
			s-0.646-0.379-1.163-0.387h-1.563V57.565z"/>
		<path d="M457.072,62.042h-1.418v-6.854l-2.093,0.713v-1.195l3.328-1.225h0.183V62.042z"/>
	</g>
</g>
<g>
	
		<linearGradient id="SVGID_10_" gradientUnits="userSpaceOnUse" x1="1789.5508" y1="999.9834" x2="1789.5508" y2="1040.9493" gradientTransform="matrix(1 0 0 1 -1130.6406 -961.8398)">
		<stop  offset="0" style="stop-color:#828282"/>
		<stop  offset="0.503" style="stop-color:#FFFFFF"/>
		<stop  offset="1" style="stop-color:#828282"/>
	</linearGradient>
	<rect x="607.337" y="38.421" fill="url(#SVGID_10_)" width="103.146" height="40.23"/>
	<g>
		<path d="M638.797,59.265c-0.086,0.91-0.422,1.62-1.008,2.13c-0.586,0.51-1.365,0.765-2.338,0.765c-0.68,0-1.278-0.161-1.796-0.483
			c-0.519-0.322-0.917-0.78-1.198-1.374c-0.281-0.594-0.428-1.283-0.439-2.068v-0.797c0-0.805,0.144-1.514,0.429-2.127
			c0.284-0.613,0.693-1.086,1.228-1.418s1.149-0.498,1.85-0.498c0.94,0,1.698,0.255,2.272,0.765c0.574,0.51,0.908,1.231,1.002,2.165
			h-1.477c-0.07-0.613-0.249-1.056-0.536-1.327s-0.708-0.407-1.264-0.407c-0.645,0-1.14,0.235-1.484,0.706
			c-0.346,0.472-0.522,1.163-0.53,2.074v0.756c0,0.923,0.165,1.627,0.495,2.111c0.33,0.485,0.813,0.728,1.45,0.728
			c0.582,0,1.02-0.131,1.313-0.393c0.293-0.262,0.479-0.697,0.558-1.307L638.797,59.265L638.797,59.265z"/>
		<path d="M646.93,57.999c0,0.836-0.145,1.569-0.434,2.2c-0.289,0.631-0.702,1.115-1.239,1.453
			c-0.537,0.338-1.155,0.507-1.854,0.507c-0.691,0-1.309-0.169-1.85-0.507c-0.541-0.338-0.959-0.819-1.254-1.444
			s-0.444-1.346-0.448-2.162v-0.48c0-0.832,0.147-1.566,0.442-2.203c0.295-0.637,0.711-1.124,1.248-1.462s1.153-0.507,1.849-0.507
			c0.696,0,1.313,0.167,1.85,0.501s0.952,0.814,1.245,1.441s0.44,1.356,0.444,2.188V57.999L646.93,57.999z M645.447,57.554
			c0-0.945-0.18-1.67-0.536-2.174c-0.357-0.504-0.864-0.756-1.521-0.756c-0.641,0-1.142,0.251-1.503,0.753
			c-0.36,0.502-0.546,1.212-0.554,2.13v0.492c0,0.938,0.183,1.662,0.548,2.174c0.365,0.512,0.872,0.768,1.521,0.768
			c0.655,0,1.16-0.25,1.515-0.75s0.53-1.23,0.53-2.191V57.554z"/>
		<path d="M655.215,57.999c0,0.836-0.145,1.569-0.434,2.2c-0.289,0.631-0.702,1.115-1.239,1.453
			c-0.537,0.338-1.155,0.507-1.854,0.507c-0.69,0-1.308-0.169-1.849-0.507c-0.541-0.338-0.959-0.819-1.254-1.444
			s-0.444-1.346-0.448-2.162v-0.48c0-0.832,0.147-1.566,0.442-2.203c0.295-0.637,0.711-1.124,1.248-1.462s1.153-0.507,1.849-0.507
			c0.696,0,1.313,0.167,1.85,0.501c0.536,0.334,0.951,0.814,1.244,1.441s0.441,1.356,0.445,2.188V57.999L655.215,57.999z
			 M653.732,57.554c0-0.945-0.18-1.67-0.536-2.174c-0.357-0.504-0.864-0.756-1.521-0.756c-0.641,0-1.142,0.251-1.503,0.753
			s-0.546,1.212-0.554,2.13v0.492c0,0.938,0.183,1.662,0.548,2.174c0.365,0.512,0.872,0.768,1.521,0.768
			c0.656,0,1.161-0.25,1.516-0.75c0.354-0.5,0.53-1.23,0.53-2.191V57.554z"/>
		<path d="M658.174,60.858h3.873v1.184h-5.354v-8.531h1.481V60.858z"/>
		<path d="M668.17,58.233h-3.504v2.625h4.096v1.184h-5.578v-8.531h5.537v1.195h-4.055v2.355h3.504V58.233z"/>
		<path d="M673.104,58.761h-1.651v3.281h-1.482v-8.531h3c0.984,0,1.744,0.221,2.279,0.663c0.535,0.441,0.803,1.08,0.803,1.917
			c0,0.571-0.138,1.049-0.413,1.435c-0.274,0.385-0.658,0.681-1.15,0.888l1.916,3.553v0.076h-1.588L673.104,58.761z M671.451,57.565
			h1.522c0.5,0,0.892-0.126,1.173-0.378c0.28-0.252,0.422-0.597,0.422-1.034c0-0.457-0.131-0.811-0.391-1.061
			s-0.646-0.379-1.163-0.387h-1.563V57.565L671.451,57.565z"/>
		<path d="M685.953,62.042h-5.736v-0.979l2.842-3.1c0.41-0.457,0.702-0.839,0.876-1.146c0.175-0.307,0.262-0.614,0.262-0.923
			c0-0.406-0.114-0.734-0.344-0.984c-0.229-0.25-0.536-0.375-0.923-0.375c-0.461,0-0.817,0.141-1.072,0.422
			c-0.254,0.281-0.381,0.666-0.381,1.154h-1.424c0-0.52,0.118-0.987,0.354-1.403c0.235-0.416,0.573-0.739,1.014-0.97
			s0.946-0.346,1.521-0.346c0.828,0,1.481,0.208,1.961,0.624c0.479,0.416,0.718,0.991,0.718,1.726c0,0.426-0.12,0.872-0.36,1.339
			s-0.634,0.997-1.181,1.591l-2.086,2.232h3.961L685.953,62.042L685.953,62.042z"/>
	</g>
</g>
<g>
	
		<linearGradient id="SVGID_11_" gradientUnits="userSpaceOnUse" x1="1562.5508" y1="1184.9834" x2="1562.5508" y2="1225.9493" gradientTransform="matrix(1 0 0 1 -1130.6406 -961.8398)">
		<stop  offset="0" style="stop-color:#828282"/>
		<stop  offset="0.503" style="stop-color:#FFFFFF"/>
		<stop  offset="1" style="stop-color:#828282"/>
	</linearGradient>
	<rect x="380.337" y="223.421" fill="url(#SVGID_11_)" width="103.146" height="40.229"/>
	<g>
		<path d="M411.797,244.266c-0.086,0.909-0.422,1.619-1.008,2.129c-0.586,0.511-1.365,0.766-2.338,0.766
			c-0.68,0-1.278-0.161-1.796-0.482c-0.519-0.322-0.917-0.781-1.198-1.375s-0.428-1.283-0.439-2.068v-0.797
			c0-0.805,0.144-1.514,0.429-2.127c0.285-0.612,0.693-1.086,1.228-1.418s1.149-0.498,1.85-0.498c0.94,0,1.698,0.256,2.272,0.766
			s0.908,1.23,1.002,2.165h-1.477c-0.07-0.613-0.249-1.056-0.536-1.327s-0.708-0.407-1.263-0.407c-0.646,0-1.141,0.235-1.485,0.706
			c-0.346,0.473-0.522,1.163-0.53,2.074v0.756c0,0.924,0.165,1.627,0.495,2.111s0.813,0.728,1.45,0.728
			c0.582,0,1.02-0.131,1.313-0.393c0.293-0.263,0.479-0.697,0.558-1.308H411.797L411.797,244.266z"/>
		<path d="M419.93,242.999c0,0.836-0.145,1.569-0.434,2.2s-0.702,1.115-1.239,1.453s-1.155,0.507-1.854,0.507
			c-0.691,0-1.309-0.169-1.85-0.507s-0.959-0.819-1.254-1.444s-0.443-1.347-0.448-2.162v-0.479c0-0.832,0.147-1.566,0.442-2.203
			s0.711-1.124,1.248-1.463c0.537-0.338,1.153-0.506,1.849-0.506c0.696,0,1.313,0.166,1.85,0.5s0.952,0.814,1.245,1.441
			s0.44,1.355,0.444,2.188V242.999L419.93,242.999z M418.447,242.555c0-0.945-0.18-1.671-0.536-2.175
			c-0.357-0.504-0.864-0.756-1.521-0.756c-0.641,0-1.142,0.251-1.503,0.753c-0.36,0.502-0.546,1.212-0.554,2.13v0.492
			c0,0.938,0.183,1.662,0.548,2.174c0.365,0.513,0.872,0.769,1.521,0.769c0.655,0,1.161-0.25,1.515-0.75
			c0.354-0.5,0.53-1.23,0.53-2.191V242.555L418.447,242.555z"/>
		<path d="M428.215,242.999c0,0.836-0.145,1.569-0.434,2.2s-0.702,1.115-1.239,1.453s-1.155,0.507-1.854,0.507
			c-0.69,0-1.308-0.169-1.849-0.507s-0.959-0.819-1.254-1.444s-0.444-1.347-0.448-2.162v-0.479c0-0.832,0.147-1.566,0.442-2.203
			s0.711-1.124,1.248-1.463c0.537-0.338,1.153-0.506,1.849-0.506c0.696,0,1.313,0.166,1.85,0.5c0.536,0.334,0.951,0.814,1.244,1.441
			s0.441,1.355,0.445,2.188V242.999L428.215,242.999z M426.732,242.555c0-0.945-0.18-1.671-0.536-2.175
			c-0.357-0.504-0.864-0.756-1.521-0.756c-0.641,0-1.142,0.251-1.503,0.753s-0.546,1.212-0.554,2.13v0.492
			c0,0.938,0.183,1.662,0.548,2.174c0.365,0.513,0.872,0.769,1.521,0.769c0.655,0,1.16-0.25,1.515-0.75
			c0.354-0.5,0.53-1.23,0.53-2.191V242.555L426.732,242.555z"/>
		<path d="M431.174,245.857h3.873v1.185h-5.354v-8.531h1.481V245.857L431.174,245.857z"/>
		<path d="M441.17,243.232h-3.504v2.625h4.096v1.185h-5.578v-8.531h5.537v1.195h-4.055v2.354h3.504V243.232z"/>
		<path d="M446.104,243.761h-1.651v3.281h-1.482v-8.531h3c0.984,0,1.744,0.222,2.279,0.663s0.803,1.08,0.803,1.917
			c0,0.571-0.138,1.05-0.413,1.435c-0.274,0.386-0.658,0.682-1.15,0.889l1.916,3.553v0.076h-1.588L446.104,243.761z
			 M444.451,242.564h1.522c0.5,0,0.892-0.125,1.173-0.377c0.28-0.252,0.422-0.598,0.422-1.035c0-0.457-0.131-0.811-0.391-1.061
			s-0.646-0.379-1.163-0.387h-1.563V242.564z"/>
		<path d="M454.863,242.126h0.867c0.438-0.004,0.783-0.117,1.039-0.34c0.257-0.224,0.385-0.545,0.385-0.968
			c0-0.405-0.106-0.721-0.319-0.945s-0.538-0.337-0.976-0.337c-0.384,0-0.697,0.11-0.943,0.331s-0.369,0.509-0.369,0.863h-1.424
			c0-0.438,0.116-0.836,0.349-1.194c0.233-0.359,0.558-0.64,0.974-0.841s0.882-0.303,1.396-0.303c0.853,0,1.521,0.215,2.007,0.643
			c0.486,0.428,0.729,1.021,0.729,1.783c0,0.384-0.122,0.744-0.366,1.082s-0.56,0.593-0.946,0.765
			c0.47,0.16,0.825,0.412,1.069,0.756c0.244,0.345,0.366,0.754,0.366,1.229c0,0.767-0.264,1.375-0.788,1.828
			c-0.525,0.453-1.216,0.681-2.071,0.681c-0.82,0-1.492-0.22-2.016-0.656c-0.524-0.437-0.785-1.021-0.785-1.746h1.424
			c0,0.375,0.126,0.681,0.378,0.914s0.591,0.353,1.018,0.353c0.44,0,0.789-0.117,1.043-0.353s0.381-0.573,0.381-1.021
			c0-0.448-0.133-0.795-0.398-1.036c-0.265-0.242-0.66-0.363-1.184-0.363h-0.838L454.863,242.126L454.863,242.126z"/>
	</g>
</g>
<g>
	
		<linearGradient id="SVGID_12_" gradientUnits="userSpaceOnUse" x1="1789.5508" y1="1184.9834" x2="1789.5508" y2="1225.9493" gradientTransform="matrix(1 0 0 1 -1130.6406 -961.8398)">
		<stop  offset="0" style="stop-color:#828282"/>
		<stop  offset="0.503" style="stop-color:#FFFFFF"/>
		<stop  offset="1" style="stop-color:#828282"/>
	</linearGradient>
	<rect x="607.337" y="223.421" fill="url(#SVGID_12_)" width="103.146" height="40.229"/>
	<g>
		<path d="M638.797,244.266c-0.086,0.909-0.422,1.619-1.008,2.129c-0.586,0.511-1.365,0.766-2.338,0.766
			c-0.68,0-1.278-0.161-1.796-0.482c-0.519-0.322-0.917-0.781-1.198-1.375s-0.428-1.283-0.439-2.068v-0.797
			c0-0.805,0.144-1.514,0.429-2.127c0.284-0.612,0.693-1.086,1.228-1.418s1.149-0.498,1.85-0.498c0.94,0,1.698,0.256,2.272,0.766
			s0.908,1.23,1.002,2.165h-1.477c-0.07-0.613-0.249-1.056-0.536-1.327s-0.708-0.407-1.264-0.407c-0.645,0-1.14,0.235-1.484,0.706
			c-0.346,0.473-0.522,1.163-0.53,2.074v0.756c0,0.924,0.165,1.627,0.495,2.111s0.813,0.728,1.45,0.728
			c0.582,0,1.02-0.131,1.313-0.393c0.293-0.263,0.479-0.697,0.558-1.308H638.797L638.797,244.266z"/>
		<path d="M646.93,242.999c0,0.836-0.145,1.569-0.434,2.2s-0.702,1.115-1.239,1.453s-1.155,0.507-1.854,0.507
			c-0.691,0-1.309-0.169-1.85-0.507s-0.959-0.819-1.254-1.444s-0.444-1.347-0.448-2.162v-0.479c0-0.832,0.147-1.566,0.442-2.203
			s0.711-1.124,1.248-1.463c0.537-0.338,1.153-0.506,1.849-0.506c0.696,0,1.313,0.166,1.85,0.5s0.952,0.814,1.245,1.441
			s0.44,1.355,0.444,2.188V242.999L646.93,242.999z M645.447,242.555c0-0.945-0.18-1.671-0.536-2.175
			c-0.357-0.504-0.864-0.756-1.521-0.756c-0.641,0-1.142,0.251-1.503,0.753c-0.36,0.502-0.546,1.212-0.554,2.13v0.492
			c0,0.938,0.183,1.662,0.548,2.174c0.365,0.513,0.872,0.769,1.521,0.769c0.655,0,1.16-0.25,1.515-0.75s0.53-1.23,0.53-2.191
			V242.555z"/>
		<path d="M655.215,242.999c0,0.836-0.145,1.569-0.434,2.2s-0.702,1.115-1.239,1.453s-1.155,0.507-1.854,0.507
			c-0.69,0-1.308-0.169-1.849-0.507s-0.959-0.819-1.254-1.444s-0.444-1.347-0.448-2.162v-0.479c0-0.832,0.147-1.566,0.442-2.203
			s0.711-1.124,1.248-1.463c0.537-0.338,1.153-0.506,1.849-0.506c0.696,0,1.313,0.166,1.85,0.5c0.536,0.334,0.951,0.814,1.244,1.441
			s0.441,1.355,0.445,2.188V242.999L655.215,242.999z M653.732,242.555c0-0.945-0.18-1.671-0.536-2.175
			c-0.357-0.504-0.864-0.756-1.521-0.756c-0.641,0-1.142,0.251-1.503,0.753s-0.546,1.212-0.554,2.13v0.492
			c0,0.938,0.183,1.662,0.548,2.174c0.365,0.513,0.872,0.769,1.521,0.769c0.656,0,1.161-0.25,1.516-0.75
			c0.354-0.5,0.53-1.23,0.53-2.191V242.555z"/>
		<path d="M658.174,245.857h3.873v1.185h-5.354v-8.531h1.481V245.857z"/>
		<path d="M668.17,243.232h-3.504v2.625h4.096v1.185h-5.578v-8.531h5.537v1.195h-4.055v2.354h3.504V243.232z"/>
		<path d="M673.104,243.761h-1.651v3.281h-1.482v-8.531h3c0.984,0,1.744,0.222,2.279,0.663s0.803,1.08,0.803,1.917
			c0,0.571-0.138,1.05-0.413,1.435c-0.274,0.386-0.658,0.682-1.15,0.889l1.916,3.553v0.076h-1.588L673.104,243.761z
			 M671.451,242.564h1.522c0.5,0,0.892-0.125,1.173-0.377c0.28-0.252,0.422-0.598,0.422-1.035c0-0.457-0.131-0.811-0.391-1.061
			s-0.646-0.379-1.163-0.387h-1.563V242.564L671.451,242.564z"/>
		<path d="M685.033,244.001h1.061v1.144h-1.061v1.897h-1.424v-1.897h-3.687l-0.041-0.867l3.681-5.766h1.471V244.001z
			 M681.377,244.001h2.232v-3.563l-0.105,0.188L681.377,244.001z"/>
	</g>
</g>
<g>
	<g>
		<path d="M513.52,53.447c-0.358,0.47-0.858,0.825-1.496,1.066c-0.639,0.241-1.362,0.362-2.175,0.362
			c-0.834,0-1.571-0.189-2.215-0.567c-0.643-0.378-1.138-0.919-1.487-1.624c-0.348-0.703-0.528-1.525-0.543-2.464v-0.779
			c0-1.504,0.359-2.679,1.08-3.524c0.722-0.845,1.726-1.268,3.016-1.268c1.106,0,1.986,0.274,2.639,0.824
			c0.651,0.549,1.044,1.338,1.176,2.368h-1.694c-0.191-1.198-0.887-1.798-2.085-1.798c-0.775,0-1.363,0.279-1.769,0.837
			c-0.401,0.558-0.611,1.376-0.625,2.455V50.1c0,1.074,0.228,1.909,0.68,2.503c0.454,0.595,1.084,0.892,1.892,0.892
			c0.885,0,1.514-0.2,1.887-0.602v-1.948h-2.051v-1.313h3.772L513.52,53.447L513.52,53.447z"/>
		<path d="M521.237,50.296h-4.088v3.063h4.777v1.381h-6.508v-9.953h6.46v1.395h-4.729v2.748h4.088V50.296L521.237,50.296z"/>
		<path d="M531.231,54.739h-1.729l-4.437-7.063v7.063h-1.729v-9.953h1.729l4.449,7.089v-7.089h1.717V54.739z"/>
		<path d="M539.093,50.296h-4.088v3.063h4.778v1.381h-6.508v-9.953h6.46v1.395h-4.73v2.748h4.088V50.296L539.093,50.296z"/>
		<path d="M544.849,50.911h-1.928v3.828h-1.729v-9.953h3.5c1.147,0,2.034,0.258,2.658,0.773s0.938,1.261,0.938,2.237
			c0,0.666-0.16,1.224-0.482,1.673c-0.319,0.449-0.769,0.794-1.343,1.036l2.235,4.145v0.089h-1.854L544.849,50.911z M542.921,49.517
			h1.777c0.583,0,1.039-0.146,1.367-0.441c0.327-0.293,0.491-0.695,0.491-1.206c0-0.533-0.15-0.945-0.453-1.237
			c-0.305-0.292-0.757-0.442-1.357-0.451h-1.825V49.517z"/>
		<path d="M555.499,52.422h-3.854l-0.808,2.317h-1.798l3.76-9.953h1.553l3.767,9.953h-1.805L555.499,52.422z M552.129,51.027h2.885
			l-1.441-4.129L552.129,51.027z"/>
		<path d="M565.616,46.181h-3.104v8.559h-1.716v-8.559h-3.076v-1.395h7.896V46.181z"/>
		<path d="M574.674,50.022c0,0.976-0.168,1.831-0.506,2.566c-0.338,0.736-0.819,1.302-1.445,1.695
			c-0.627,0.395-1.348,0.592-2.164,0.592c-0.807,0-1.524-0.197-2.155-0.592c-0.632-0.394-1.119-0.955-1.463-1.685
			c-0.346-0.729-0.521-1.57-0.523-2.522v-0.561c0-0.971,0.172-1.827,0.516-2.57c0.346-0.743,0.83-1.312,1.457-1.705
			c0.626-0.395,1.347-0.592,2.156-0.592s1.53,0.195,2.156,0.584c0.627,0.391,1.11,0.951,1.453,1.682
			c0.342,0.732,0.516,1.583,0.52,2.554L574.674,50.022L574.674,50.022z M572.944,49.503c0-1.103-0.208-1.948-0.626-2.536
			c-0.416-0.588-1.009-0.882-1.773-0.882c-0.748,0-1.332,0.293-1.754,0.879c-0.421,0.585-0.637,1.413-0.646,2.484v0.574
			c0,1.094,0.214,1.939,0.641,2.536c0.426,0.597,1.018,0.896,1.772,0.896c0.767,0,1.354-0.292,1.769-0.875
			c0.412-0.583,0.618-1.436,0.618-2.557V49.503z"/>
		<path d="M580.054,50.911h-1.928v3.828h-1.729v-9.953h3.5c1.147,0,2.034,0.258,2.658,0.773s0.938,1.261,0.938,2.237
			c0,0.666-0.16,1.224-0.482,1.673c-0.319,0.449-0.769,0.794-1.343,1.036l2.235,4.145v0.089h-1.854L580.054,50.911z M578.126,49.517
			h1.777c0.583,0,1.039-0.146,1.366-0.441c0.328-0.293,0.492-0.695,0.492-1.206c0-0.533-0.15-0.945-0.454-1.237
			s-0.756-0.442-1.356-0.451h-1.825V49.517z"/>
	</g>
	<g>
		<path d="M507.982,68.499c-0.101,1.062-0.492,1.891-1.177,2.484c-0.684,0.596-1.593,0.893-2.728,0.893
			c-0.793,0-1.491-0.188-2.095-0.564c-0.604-0.375-1.07-0.91-1.398-1.603s-0.499-1.497-0.513-2.413v-0.93
			c0-0.938,0.167-1.766,0.499-2.481c0.332-0.715,0.81-1.267,1.432-1.654s1.341-0.581,2.157-0.581c1.099,0,1.981,0.297,2.651,0.893
			c0.671,0.594,1.061,1.437,1.169,2.525h-1.723c-0.082-0.716-0.291-1.231-0.625-1.549c-0.336-0.316-0.826-0.475-1.474-0.475
			c-0.752,0-1.33,0.274-1.733,0.824c-0.402,0.55-0.608,1.356-0.619,2.419v0.883c0,1.076,0.192,1.897,0.578,2.463
			c0.386,0.566,0.949,0.849,1.692,0.849c0.679,0,1.188-0.152,1.531-0.458c0.342-0.306,0.558-0.813,0.648-1.524L507.982,68.499
			L507.982,68.499z"/>
		<path d="M517.471,67.022c0,0.976-0.168,1.831-0.506,2.566c-0.338,0.736-0.818,1.302-1.445,1.695
			c-0.627,0.395-1.348,0.592-2.163,0.592c-0.808,0-1.525-0.197-2.156-0.592c-0.632-0.394-1.119-0.955-1.463-1.685
			c-0.346-0.729-0.521-1.57-0.523-2.522v-0.561c0-0.971,0.172-1.827,0.517-2.57c0.345-0.743,0.829-1.312,1.456-1.705
			c0.626-0.395,1.347-0.592,2.156-0.592c0.811,0,1.53,0.195,2.156,0.584c0.627,0.391,1.111,0.951,1.453,1.682
			c0.342,0.732,0.516,1.583,0.52,2.554L517.471,67.022L517.471,67.022z M515.741,66.503c0-1.103-0.208-1.948-0.626-2.536
			c-0.416-0.588-1.008-0.882-1.773-0.882c-0.748,0-1.332,0.293-1.754,0.879c-0.421,0.585-0.637,1.413-0.646,2.484v0.574
			c0,1.094,0.213,1.939,0.64,2.536c0.426,0.597,1.018,0.896,1.773,0.896c0.766,0,1.354-0.292,1.768-0.875
			c0.412-0.583,0.618-1.436,0.618-2.557V66.503z"/>
		<path d="M527.137,67.022c0,0.976-0.168,1.831-0.506,2.566c-0.338,0.736-0.818,1.302-1.445,1.695
			c-0.627,0.395-1.348,0.592-2.163,0.592c-0.808,0-1.525-0.197-2.156-0.592c-0.632-0.394-1.119-0.955-1.463-1.685
			c-0.346-0.729-0.521-1.57-0.523-2.522v-0.561c0-0.971,0.172-1.827,0.517-2.57c0.345-0.743,0.829-1.312,1.456-1.705
			c0.626-0.395,1.347-0.592,2.156-0.592c0.811,0,1.53,0.195,2.156,0.584c0.627,0.391,1.111,0.951,1.453,1.682
			c0.342,0.732,0.516,1.583,0.52,2.554L527.137,67.022L527.137,67.022z M525.407,66.503c0-1.103-0.208-1.948-0.626-2.536
			c-0.416-0.588-1.008-0.882-1.773-0.882c-0.748,0-1.332,0.293-1.754,0.879c-0.421,0.585-0.637,1.413-0.646,2.484v0.574
			c0,1.094,0.213,1.939,0.64,2.536c0.426,0.597,1.018,0.896,1.773,0.896c0.766,0,1.354-0.292,1.768-0.875
			c0.412-0.583,0.618-1.436,0.618-2.557V66.503z"/>
		<path d="M530.589,70.358h4.52v1.381h-6.248v-9.953h1.729V70.358z"/>
		<path d="M538.259,71.739h-1.723v-9.953h1.723V71.739z"/>
		<path d="M548.28,71.739h-1.729l-4.437-7.063v7.063h-1.729v-9.953h1.729l4.45,7.089v-7.089h1.716V71.739z"/>
		<path d="M557.953,70.447c-0.359,0.47-0.859,0.825-1.497,1.066c-0.638,0.241-1.362,0.362-2.174,0.362
			c-0.834,0-1.572-0.189-2.215-0.567c-0.644-0.378-1.139-0.919-1.487-1.624c-0.348-0.703-0.529-1.525-0.543-2.464v-0.779
			c0-1.504,0.358-2.679,1.08-3.524c0.721-0.845,1.725-1.268,3.015-1.268c1.107,0,1.987,0.274,2.639,0.824
			c0.651,0.549,1.044,1.338,1.177,2.368h-1.695c-0.191-1.198-0.886-1.798-2.085-1.798c-0.775,0-1.363,0.279-1.769,0.837
			c-0.401,0.558-0.61,1.376-0.625,2.455V67.1c0,1.074,0.228,1.909,0.681,2.503c0.454,0.595,1.084,0.892,1.891,0.892
			c0.885,0,1.515-0.2,1.888-0.602v-1.948h-2.052v-1.313h3.773L557.953,70.447L557.953,70.447z"/>
		<path d="M570.969,70.447c-0.358,0.47-0.858,0.825-1.497,1.066c-0.638,0.241-1.361,0.362-2.174,0.362
			c-0.834,0-1.572-0.189-2.215-0.567c-0.644-0.378-1.138-0.919-1.487-1.624c-0.348-0.703-0.528-1.525-0.543-2.464v-0.779
			c0-1.504,0.359-2.679,1.08-3.524s1.725-1.268,3.016-1.268c1.106,0,1.986,0.274,2.639,0.824c0.65,0.549,1.044,1.338,1.176,2.368
			h-1.695c-0.19-1.198-0.886-1.798-2.085-1.798c-0.774,0-1.362,0.279-1.768,0.837c-0.402,0.558-0.611,1.376-0.625,2.455V67.1
			c0,1.074,0.227,1.909,0.68,2.503c0.454,0.595,1.084,0.892,1.892,0.892c0.885,0,1.514-0.2,1.887-0.602v-1.948h-2.051v-1.313h3.772
			L570.969,70.447L570.969,70.447z"/>
		<path d="M578.44,69.422h-3.855l-0.807,2.317h-1.798l3.76-9.953h1.552l3.767,9.953h-1.805L578.44,69.422z M575.07,68.027h2.885
			l-1.442-4.129L575.07,68.027z"/>
		<path d="M587.389,69.176c0-0.438-0.153-0.774-0.461-1.012c-0.309-0.237-0.862-0.477-1.665-0.718
			c-0.802-0.241-1.439-0.511-1.914-0.807c-0.906-0.569-1.359-1.313-1.359-2.229c0-0.802,0.327-1.463,0.979-1.982
			c0.654-0.52,1.504-0.779,2.547-0.779c0.692,0,1.312,0.128,1.854,0.383c0.542,0.255,0.969,0.619,1.278,1.09
			c0.31,0.473,0.465,0.995,0.465,1.569h-1.724c0-0.52-0.163-0.927-0.487-1.22c-0.326-0.295-0.792-0.441-1.398-0.441
			c-0.564,0-1.004,0.121-1.315,0.362c-0.313,0.241-0.469,0.579-0.469,1.012c0,0.364,0.169,0.669,0.506,0.913
			c0.338,0.243,0.895,0.48,1.668,0.711c0.774,0.229,1.396,0.492,1.866,0.785c0.471,0.295,0.813,0.632,1.032,1.012
			c0.219,0.381,0.328,0.826,0.328,1.337c0,0.829-0.317,1.489-0.954,1.979c-0.635,0.489-1.498,0.734-2.587,0.734
			c-0.72,0-1.382-0.133-1.985-0.4c-0.604-0.266-1.073-0.634-1.407-1.104c-0.336-0.47-0.504-1.017-0.504-1.641h1.729
			c0,0.565,0.188,1.003,0.561,1.313c0.373,0.31,0.909,0.465,1.606,0.465c0.602,0,1.054-0.122,1.356-0.365
			C587.237,69.899,587.389,69.577,587.389,69.176z"/>
	</g>
</g>
</svg>
