<?xml version="1.0" encoding="utf-8"?>
<!-- Generator: Adobe Illustrator 15.0.0, SVG Export Plug-In . SVG Version: 6.00 Build 0)  -->
<!DOCTYPE svg PUBLIC "-//W3C//DTD SVG 1.1//EN" "http://www.w3.org/Graphics/SVG/1.1/DTD/svg11.dtd">
<svg version="1.1" id="Layer_1" xmlns="http://www.w3.org/2000/svg" xmlns:xlink="http://www.w3.org/1999/xlink" x="0px" y="0px"
	 width="1200px" height="600px" viewBox="-90 0 1200 600" enable-background="new -90 0 1200 600" xml:space="preserve">
<linearGradient id="SVGID_1_" gradientUnits="userSpaceOnUse" x1="611.3926" y1="139.3882" x2="611.3926" y2="153.2677">
	<stop  offset="0" style="stop-color:#005485"/>
	<stop  offset="0.25" style="stop-color:#74B5D2"/>
	<stop  offset="0.503" style="stop-color:#FFFFFF"/>
	<stop  offset="0.75" style="stop-color:#1482B3"/>
	<stop  offset="1" style="stop-color:#005485"/>
</linearGradient>
<rect x="386.318" y="139.482" fill="url(#SVGID_1_)" width="450.148" height="13.631"/>
<g>
	<g>
		<linearGradient id="SVGID_2_" gradientUnits="userSpaceOnUse" x1="439.7227" y1="124.8867" x2="439.7227" y2="168.6185">
			<stop  offset="0" style="stop-color:#005485"/>
			<stop  offset="0.25" style="stop-color:#74B5D2"/>
			<stop  offset="0.503" style="stop-color:#FFFFFF"/>
			<stop  offset="0.75" style="stop-color:#1482B3"/>
			<stop  offset="1" style="stop-color:#005485"/>
		</linearGradient>
		<polygon fill="url(#SVGID_2_)" points="470.727,125.191 439.721,133.672 408.718,125.191 408.718,167.404 439.723,158.66 
			470.727,167.404 		"/>
		<linearGradient id="SVGID_3_" gradientUnits="userSpaceOnUse" x1="404.793" y1="126.0273" x2="404.793" y2="166.7451">
			<stop  offset="0" style="stop-color:#003B69"/>
			<stop  offset="0.15" style="stop-color:#005485"/>
			<stop  offset="0.4" style="stop-color:#74B5D2"/>
			<stop  offset="0.5" style="stop-color:#FFFFFF"/>
			<stop  offset="0.6" style="stop-color:#74B5D2"/>
			<stop  offset="0.85" style="stop-color:#005485"/>
			<stop  offset="1" style="stop-color:#003B69"/>
		</linearGradient>
		<rect x="400.868" y="125.191" fill="url(#SVGID_3_)" width="7.851" height="42.213"/>
		<linearGradient id="SVGID_4_" gradientUnits="userSpaceOnUse" x1="474.6528" y1="126.0273" x2="474.6528" y2="166.7451">
			<stop  offset="0" style="stop-color:#003B69"/>
			<stop  offset="0.15" style="stop-color:#005485"/>
			<stop  offset="0.4" style="stop-color:#74B5D2"/>
			<stop  offset="0.5" style="stop-color:#FFFFFF"/>
			<stop  offset="0.6" style="stop-color:#74B5D2"/>
			<stop  offset="0.85" style="stop-color:#005485"/>
			<stop  offset="1" style="stop-color:#003B69"/>
		</linearGradient>
		<rect x="470.727" y="125.191" fill="url(#SVGID_4_)" width="7.852" height="42.213"/>
	</g>
	<path opacity="0.5" fill="#231F20" d="M477.979,125.792v41.013h-7.168l-30.924-8.722l-0.163-0.046l-0.163,0.046l-30.925,8.722
		h-7.167v-41.013h7.17l30.925,8.459l0.158,0.043l0.158-0.043l30.928-8.459H477.979 M478.579,125.191h-7.852l-31.006,8.48
		l-31.003-8.48h-7.851v42.213h7.851l31.005-8.744l31.004,8.744h7.852V125.191L478.579,125.191z"/>
</g>
<g>
	<g>
		<linearGradient id="SVGID_5_" gradientUnits="userSpaceOnUse" x1="536.0195" y1="112.8633" x2="536.0195" y2="178.6928">
			<stop  offset="0" style="stop-color:#005485"/>
			<stop  offset="0.25" style="stop-color:#74B5D2"/>
			<stop  offset="0.503" style="stop-color:#FFFFFF"/>
			<stop  offset="0.75" style="stop-color:#1482B3"/>
			<stop  offset="1" style="stop-color:#005485"/>
		</linearGradient>
		<polygon fill="url(#SVGID_5_)" points="563.904,114.4 536.018,127.217 508.135,114.4 508.135,178.196 536.02,164.982 
			563.904,178.196 		"/>
		<linearGradient id="SVGID_6_" gradientUnits="userSpaceOnUse" x1="504.6045" y1="115.6636" x2="504.6045" y2="177.1998">
			<stop  offset="0" style="stop-color:#003B69"/>
			<stop  offset="0.15" style="stop-color:#005485"/>
			<stop  offset="0.4" style="stop-color:#74B5D2"/>
			<stop  offset="0.5" style="stop-color:#FFFFFF"/>
			<stop  offset="0.6" style="stop-color:#74B5D2"/>
			<stop  offset="0.85" style="stop-color:#005485"/>
			<stop  offset="1" style="stop-color:#003B69"/>
		</linearGradient>
		<rect x="501.074" y="114.4" fill="url(#SVGID_6_)" width="7.061" height="63.796"/>
		<linearGradient id="SVGID_7_" gradientUnits="userSpaceOnUse" x1="567.4346" y1="115.6626" x2="567.4346" y2="177.1998">
			<stop  offset="0" style="stop-color:#003B69"/>
			<stop  offset="0.15" style="stop-color:#005485"/>
			<stop  offset="0.4" style="stop-color:#74B5D2"/>
			<stop  offset="0.5" style="stop-color:#FFFFFF"/>
			<stop  offset="0.6" style="stop-color:#74B5D2"/>
			<stop  offset="0.85" style="stop-color:#005485"/>
			<stop  offset="1" style="stop-color:#003B69"/>
		</linearGradient>
		<rect x="563.904" y="114.399" fill="url(#SVGID_7_)" width="7.061" height="63.797"/>
	</g>
	<path opacity="0.5" fill="#231F20" d="M570.366,115v62.597h-6.327l-27.763-13.156l-0.257-0.122l-0.257,0.122L508,177.596h-6.326
		V115h6.329l27.764,12.761l0.251,0.115l0.251-0.115L564.035,115H570.366 M570.966,114.399h-7.062v0.001l-27.886,12.816
		L508.135,114.4h-7.061v63.796h7.061l27.885-13.214l27.885,13.214h7.062V114.399L570.966,114.399z"/>
</g>
<g>
	<g>
		<linearGradient id="SVGID_8_" gradientUnits="userSpaceOnUse" x1="627.5488" y1="112.8633" x2="627.5488" y2="178.6928">
			<stop  offset="0" style="stop-color:#005485"/>
			<stop  offset="0.25" style="stop-color:#74B5D2"/>
			<stop  offset="0.503" style="stop-color:#FFFFFF"/>
			<stop  offset="0.75" style="stop-color:#1482B3"/>
			<stop  offset="1" style="stop-color:#005485"/>
		</linearGradient>
		<polygon fill="url(#SVGID_8_)" points="655.434,114.4 627.547,127.217 599.664,114.4 599.664,178.196 627.549,164.982 
			655.434,178.196 		"/>
		<linearGradient id="SVGID_9_" gradientUnits="userSpaceOnUse" x1="596.1338" y1="115.6636" x2="596.1338" y2="177.1998">
			<stop  offset="0" style="stop-color:#003B69"/>
			<stop  offset="0.15" style="stop-color:#005485"/>
			<stop  offset="0.4" style="stop-color:#74B5D2"/>
			<stop  offset="0.5" style="stop-color:#FFFFFF"/>
			<stop  offset="0.6" style="stop-color:#74B5D2"/>
			<stop  offset="0.85" style="stop-color:#005485"/>
			<stop  offset="1" style="stop-color:#003B69"/>
		</linearGradient>
		<rect x="592.604" y="114.4" fill="url(#SVGID_9_)" width="7.061" height="63.796"/>
		<linearGradient id="SVGID_10_" gradientUnits="userSpaceOnUse" x1="658.9639" y1="115.6626" x2="658.9639" y2="177.1998">
			<stop  offset="0" style="stop-color:#003B69"/>
			<stop  offset="0.15" style="stop-color:#005485"/>
			<stop  offset="0.4" style="stop-color:#74B5D2"/>
			<stop  offset="0.5" style="stop-color:#FFFFFF"/>
			<stop  offset="0.6" style="stop-color:#74B5D2"/>
			<stop  offset="0.85" style="stop-color:#005485"/>
			<stop  offset="1" style="stop-color:#003B69"/>
		</linearGradient>
		<rect x="655.434" y="114.399" fill="url(#SVGID_10_)" width="7.061" height="63.797"/>
	</g>
	<path opacity="0.5" fill="#231F20" d="M661.896,115v62.597h-6.327l-27.763-13.156l-0.257-0.122l-0.257,0.122l-27.763,13.156h-6.326
		V115h6.33l27.764,12.761l0.251,0.115l0.251-0.115L655.564,115H661.896 M662.495,114.399h-7.062v0.001l-27.886,12.816L599.664,114.4
		h-7.061v63.796h7.061l27.885-13.214l27.885,13.214h7.062V114.399L662.495,114.399z"/>
</g>
<g>
	<g>
		<linearGradient id="SVGID_11_" gradientUnits="userSpaceOnUse" x1="719.0781" y1="112.8633" x2="719.0781" y2="178.6928">
			<stop  offset="0" style="stop-color:#005485"/>
			<stop  offset="0.25" style="stop-color:#74B5D2"/>
			<stop  offset="0.503" style="stop-color:#FFFFFF"/>
			<stop  offset="0.75" style="stop-color:#1482B3"/>
			<stop  offset="1" style="stop-color:#005485"/>
		</linearGradient>
		<polygon fill="url(#SVGID_11_)" points="746.963,114.4 719.076,127.217 691.193,114.4 691.193,178.196 719.078,164.982 
			746.963,178.196 		"/>
		<linearGradient id="SVGID_12_" gradientUnits="userSpaceOnUse" x1="687.6631" y1="115.6636" x2="687.6631" y2="177.1998">
			<stop  offset="0" style="stop-color:#003B69"/>
			<stop  offset="0.15" style="stop-color:#005485"/>
			<stop  offset="0.4" style="stop-color:#74B5D2"/>
			<stop  offset="0.5" style="stop-color:#FFFFFF"/>
			<stop  offset="0.6" style="stop-color:#74B5D2"/>
			<stop  offset="0.85" style="stop-color:#005485"/>
			<stop  offset="1" style="stop-color:#003B69"/>
		</linearGradient>
		<rect x="684.133" y="114.4" fill="url(#SVGID_12_)" width="7.061" height="63.796"/>
		<linearGradient id="SVGID_13_" gradientUnits="userSpaceOnUse" x1="750.4932" y1="115.6626" x2="750.4932" y2="177.1998">
			<stop  offset="0" style="stop-color:#003B69"/>
			<stop  offset="0.15" style="stop-color:#005485"/>
			<stop  offset="0.4" style="stop-color:#74B5D2"/>
			<stop  offset="0.5" style="stop-color:#FFFFFF"/>
			<stop  offset="0.6" style="stop-color:#74B5D2"/>
			<stop  offset="0.85" style="stop-color:#005485"/>
			<stop  offset="1" style="stop-color:#003B69"/>
		</linearGradient>
		<rect x="746.963" y="114.399" fill="url(#SVGID_13_)" width="7.061" height="63.797"/>
	</g>
	<path opacity="0.5" fill="#231F20" d="M753.425,115v62.597h-6.327l-27.763-13.156l-0.257-0.122l-0.257,0.122l-27.763,13.156h-6.326
		V115h6.33l27.764,12.761l0.251,0.115l0.251-0.115L747.094,115H753.425 M754.024,114.399h-7.062v0.001l-27.886,12.816L691.193,114.4
		h-7.061v63.796h7.061l27.885-13.214l27.885,13.214h7.062V114.399L754.024,114.399z"/>
</g>
<g>
	<path d="M438.949,150.935h-1.477v-3.785h-3.814v3.785h-1.482v-8.531h1.482v3.551h3.814v-3.551h1.477V150.935z"/>
	<path d="M442.184,147.771v3.164h-1.482v-8.531h3.264c0.953,0,1.71,0.249,2.271,0.745s0.841,1.153,0.841,1.971
		c0,0.837-0.274,1.488-0.823,1.953c-0.549,0.466-1.317,0.698-2.306,0.698H442.184z M442.184,146.576h1.781
		c0.527,0,0.93-0.124,1.207-0.372s0.416-0.606,0.416-1.075c0-0.461-0.141-0.829-0.422-1.104s-0.668-0.417-1.16-0.425h-1.822V146.576
		z"/>
</g>
<g>
	<path d="M525.658,149.751h3.873v1.184h-5.355v-8.531h1.482V149.751z"/>
	<path d="M532.15,147.771v3.164h-1.482v-8.531h3.264c0.953,0,1.71,0.249,2.271,0.745s0.841,1.153,0.841,1.971
		c0,0.837-0.274,1.488-0.823,1.953c-0.549,0.466-1.317,0.698-2.306,0.698H532.15z M532.15,146.576h1.781
		c0.527,0,0.93-0.124,1.207-0.372s0.416-0.606,0.416-1.075c0-0.461-0.141-0.829-0.422-1.104s-0.668-0.417-1.16-0.425h-1.822V146.576
		z"/>
	<path d="M540.963,147.882h-3.076v-1.148h3.076V147.882z"/>
	<path d="M547.051,148.949h-3.305l-0.691,1.986h-1.541l3.223-8.531h1.33l3.229,8.531h-1.547L547.051,148.949z M544.162,147.753
		h2.473l-1.236-3.539L544.162,147.753z"/>
</g>
<g>
	<path d="M616.658,149.751h3.873v1.184h-5.355v-8.531h1.482V149.751z"/>
	<path d="M623.15,147.771v3.164h-1.482v-8.531h3.264c0.953,0,1.71,0.249,2.271,0.745s0.841,1.153,0.841,1.971
		c0,0.837-0.274,1.488-0.823,1.953c-0.549,0.466-1.317,0.698-2.306,0.698H623.15z M623.15,146.576h1.781
		c0.527,0,0.93-0.124,1.207-0.372s0.416-0.606,0.416-1.075c0-0.461-0.141-0.829-0.422-1.104s-0.668-0.417-1.16-0.425h-1.822V146.576
		z"/>
	<path d="M631.963,147.882h-3.076v-1.148h3.076V147.882z"/>
	<path d="M633.275,150.935v-8.531h2.924c0.965,0,1.699,0.193,2.203,0.58s0.756,0.963,0.756,1.729c0,0.391-0.105,0.742-0.316,1.055
		s-0.52,0.555-0.926,0.727c0.461,0.125,0.817,0.36,1.069,0.706s0.378,0.761,0.378,1.245c0,0.801-0.257,1.416-0.771,1.846
		s-1.249,0.645-2.206,0.645H633.275z M634.758,145.996h1.453c0.461,0,0.821-0.104,1.081-0.313s0.39-0.505,0.39-0.888
		c0-0.422-0.12-0.727-0.36-0.914s-0.614-0.281-1.122-0.281h-1.441V145.996z M634.758,147.085v2.666h1.646
		c0.465,0,0.828-0.115,1.09-0.346s0.393-0.551,0.393-0.961c0-0.887-0.453-1.34-1.359-1.359H634.758z"/>
</g>
<g>
	<path d="M708.686,149.751h3.873v1.184h-5.355v-8.531h1.482V149.751z"/>
	<path d="M715.178,147.771v3.164h-1.482v-8.531h3.264c0.953,0,1.71,0.249,2.271,0.745s0.841,1.153,0.841,1.971
		c0,0.837-0.274,1.488-0.823,1.953c-0.549,0.466-1.317,0.698-2.306,0.698H715.178z M715.178,146.576h1.781
		c0.527,0,0.93-0.124,1.207-0.372s0.416-0.606,0.416-1.075c0-0.461-0.141-0.829-0.422-1.104s-0.668-0.417-1.16-0.425h-1.822V146.576
		z"/>
	<path d="M723.99,147.882h-3.076v-1.148h3.076V147.882z"/>
	<path d="M731.813,148.158c-0.086,0.91-0.422,1.62-1.008,2.13s-1.365,0.765-2.338,0.765c-0.68,0-1.278-0.161-1.796-0.483
		s-0.917-0.78-1.198-1.374s-0.428-1.283-0.439-2.068v-0.797c0-0.805,0.143-1.514,0.428-2.127s0.694-1.086,1.228-1.418
		s1.149-0.498,1.849-0.498c0.941,0,1.699,0.255,2.273,0.765s0.908,1.231,1.002,2.165h-1.477c-0.07-0.613-0.249-1.056-0.536-1.327
		s-0.708-0.407-1.263-0.407c-0.645,0-1.14,0.235-1.485,0.707s-0.522,1.163-0.53,2.073v0.757c0,0.922,0.165,1.626,0.495,2.111
		s0.813,0.727,1.45,0.727c0.582,0,1.02-0.131,1.313-0.393s0.479-0.697,0.557-1.307H731.813z"/>
</g>
<g>
	<g>
		<linearGradient id="SVGID_14_" gradientUnits="userSpaceOnUse" x1="797.502" y1="125.5322" x2="797.502" y2="167.4634">
			<stop  offset="0" style="stop-color:#005485"/>
			<stop  offset="0.25" style="stop-color:#74B5D2"/>
			<stop  offset="0.503" style="stop-color:#FFFFFF"/>
			<stop  offset="0.75" style="stop-color:#1482B3"/>
			<stop  offset="1" style="stop-color:#005485"/>
		</linearGradient>
		<rect x="773.711" y="125.333" fill="url(#SVGID_14_)" width="47.582" height="41.931"/>
	</g>
	<path opacity="0.5" fill="#231F20" d="M820.693,125.933v40.731h-46.383v-40.731H820.693 M821.293,125.333h-47.582v41.931h47.582
		V125.333L821.293,125.333z"/>
	<linearGradient id="SVGID_15_" gradientUnits="userSpaceOnUse" x1="797.502" y1="119.0308" x2="797.502" y2="172.7405">
		<stop  offset="0" style="stop-color:#005485"/>
		<stop  offset="0.25" style="stop-color:#74B5D2"/>
		<stop  offset="0.503" style="stop-color:#FFFFFF"/>
		<stop  offset="0.75" style="stop-color:#1482B3"/>
		<stop  offset="1" style="stop-color:#005485"/>
	</linearGradient>
	<rect x="778.542" y="120.091" fill="url(#SVGID_15_)" width="37.92" height="52.414"/>
	<path opacity="0.5" fill="#231F20" d="M815.862,120.691v51.213h-36.721v-51.213H815.862 M816.462,120.091h-37.92v52.414h37.92
		V120.091L816.462,120.091z"/>
</g>
<rect x="400.882" y="165.553" fill="#643636" width="2" height="34.08"/>
<path fill="none" stroke="#EE2D45" stroke-width="2" stroke-miterlimit="10" d="M716.262,175.271"/>
<polygon fill="#643636" points="720.098,235.174 454.128,235.174 454.128,233.174 718.098,233.174 718.098,174.5 720.098,174.5 "/>
<rect x="377.186" y="233.174" fill="#643636" width="59.683" height="2"/>
<rect x="295.985" y="233.174" fill="#643636" width="63.461" height="2"/>
<polygon fill="#643636" points="259.523,235.174 206.367,235.174 206.367,198.656 476.444,198.656 476.444,165.576 478.444,165.576 
	478.444,200.656 208.367,200.656 208.367,233.174 259.523,233.174 "/>
<path fill="none" stroke="#EE2D45" stroke-width="2" stroke-miterlimit="10" d="M208.061,73.135"/>
<path fill="none" stroke="#EE2D45" stroke-width="2" stroke-miterlimit="10" d="M208.061,73.135"/>
<polygon fill="#643636" points="441.369,122.658 439.369,122.658 439.369,70.135 350.87,70.135 350.87,68.135 441.369,68.135 "/>
<rect x="277.733" y="68.135" fill="#643636" width="53.075" height="2"/>
<rect x="208.061" y="68.135" fill="#643636" width="49.716" height="2"/>
<polygon fill="#643636" points="440.369,129.891 440.369,129.891 430.951,122.205 449.787,122.205 "/>
<polygon fill="#643636" points="535.475,168.827 535.475,168.827 544.893,176.513 526.057,176.513 "/>
<rect x="534.475" y="175.938" fill="#643636" width="2" height="58.561"/>
<polygon fill="#643636" points="627.703,168.827 627.703,168.827 637.121,176.513 618.285,176.513 "/>
<rect x="626.703" y="175.938" fill="#643636" width="2" height="58.561"/>
<polygon fill="#643636" points="719.072,168.827 719.072,168.827 728.49,176.513 709.654,176.513 "/>
<g>
	<path d="M296.323,242.123h-37.127v-15.912h37.127V242.123z M260.196,241.123h35.127v-13.912h-35.127V241.123z"/>
	<g>
		<rect x="262.758" y="226.798" width="1" height="14.851"/>
		<rect x="291.76" y="226.686" width="1" height="14.614"/>
	</g>
	<g>
		<path d="M269.444,230.283l2.082,5.531l2.077-5.531h1.621v7.217h-1.249v-2.379l0.124-3.183l-2.131,5.562h-0.897l-2.126-5.557
			l0.124,3.178v2.379h-1.249v-7.217H269.444z"/>
		<path d="M280.478,235.642c0-0.317-0.111-0.562-0.334-0.733s-0.625-0.346-1.207-0.521c-0.582-0.176-1.044-0.37-1.388-0.585
			c-0.658-0.413-0.986-0.952-0.986-1.616c0-0.581,0.237-1.061,0.711-1.438c0.474-0.377,1.089-0.564,1.846-0.564
			c0.502,0,0.95,0.092,1.343,0.277c0.393,0.185,0.702,0.448,0.927,0.79c0.225,0.343,0.337,0.722,0.337,1.138h-1.249
			c0-0.377-0.118-0.672-0.354-0.885s-0.574-0.319-1.013-0.319c-0.41,0-0.728,0.088-0.955,0.263c-0.226,0.175-0.339,0.42-0.339,0.733
			c0,0.265,0.122,0.485,0.367,0.662s0.648,0.349,1.209,0.515c0.562,0.167,1.013,0.357,1.353,0.57s0.59,0.458,0.749,0.733
			c0.159,0.276,0.238,0.6,0.238,0.97c0,0.601-0.23,1.079-0.691,1.435s-1.086,0.533-1.876,0.533c-0.522,0-1.002-0.097-1.44-0.29
			c-0.438-0.193-0.778-0.461-1.021-0.801c-0.243-0.341-0.364-0.737-0.364-1.189h1.254c0,0.409,0.136,0.727,0.407,0.951
			s0.659,0.337,1.165,0.337c0.436,0,0.764-0.088,0.984-0.265S280.478,235.932,280.478,235.642z"/>
		<path d="M285.483,234.725h-1.397v2.775h-1.254v-7.217h2.538c0.833,0,1.475,0.187,1.928,0.561s0.679,0.915,0.679,1.622
			c0,0.483-0.117,0.888-0.35,1.213c-0.233,0.326-0.558,0.576-0.974,0.752l1.621,3.005v0.064h-1.343L285.483,234.725z
			 M284.086,233.713h1.289c0.423,0,0.753-0.106,0.991-0.319s0.357-0.505,0.357-0.875c0-0.387-0.11-0.686-0.33-0.896
			c-0.22-0.212-0.548-0.321-0.984-0.327h-1.323V233.713z"/>
	</g>
</g>
<g>
	<polygon fill="#95DB0F" points="461.719,241.18 461.719,227.127 447.275,233.432 447.275,226.137 452.467,226.137 452.467,216.084 
		438.787,216.084 438.787,226.137 443.979,226.137 443.979,233.432 429.535,227.127 429.535,241.18 445.623,234.154 
		445.631,234.154 	"/>
	<path opacity="0.8" fill="#231F20" d="M451.867,216.684v8.853h-4.591h-0.6v0.6v7.295v0.524l-0.804-0.351l-0.124-0.05h-0.125h-0.125
		l-0.115,0.05l-0.804,0.351v-0.524v-7.295v-0.6h-0.6h-4.591v-8.853H451.867 M461.119,228.043v12.219l-13.994-6.111l0.391-0.17
		L461.119,228.043 M430.135,228.043l13.603,5.938l0.391,0.17l-13.994,6.111V228.043 M452.467,216.084h-13.68v10.053h5.191v7.295
		l-14.443-6.305v14.053l16.087-7.025h0.009l16.087,7.025v-14.053l-14.443,6.305v-7.295h5.191V216.084L452.467,216.084z"/>
</g>
<g>
	<polygon fill="#95DB0F" points="383.75,241.18 383.75,227.127 369.307,233.432 369.307,226.137 374.498,226.137 374.498,216.084 
		360.818,216.084 360.818,226.137 366.01,226.137 366.01,233.432 351.566,227.127 351.566,241.18 367.654,234.154 367.663,234.154 	
		"/>
	<path opacity="0.8" fill="#231F20" d="M373.898,216.684v8.853h-4.591h-0.6v0.6v7.295v0.524l-0.804-0.351l-0.124-0.05h-0.125h-0.125
		l-0.115,0.05l-0.804,0.351v-0.524v-7.295v-0.6h-0.6h-4.591v-8.853H373.898 M383.15,228.043v12.219l-13.994-6.111l0.391-0.17
		L383.15,228.043 M352.167,228.043l13.603,5.938l0.391,0.17l-13.994,6.111V228.043 M374.498,216.084h-13.68v10.053h5.191v7.295
		l-14.443-6.305v14.053l16.087-7.025h0.009l16.087,7.025v-14.053l-14.443,6.305v-7.295h5.191V216.084L374.498,216.084z"/>
</g>
<g>
	<polygon fill="#95DB0F" points="356.486,76.092 356.486,62.039 342.042,68.344 342.042,61.049 347.234,61.049 347.234,50.996 
		333.554,50.996 333.554,61.049 338.746,61.049 338.746,68.344 324.302,62.039 324.302,76.092 340.39,69.066 340.398,69.066 	"/>
	<path opacity="0.8" fill="#231F20" d="M346.634,51.596v8.853h-4.591h-0.6v0.6v7.295v0.524l-0.804-0.351l-0.124-0.05h-0.125h-0.125
		l-0.115,0.05l-0.804,0.351v-0.524v-7.295v-0.6h-0.6h-4.591v-8.853H346.634 M355.886,62.956v12.219l-13.994-6.111l0.391-0.17
		L355.886,62.956 M324.902,62.956l13.603,5.938l0.391,0.17l-13.994,6.111V62.956 M347.234,50.996h-13.68v10.053h5.191v7.295
		l-14.443-6.305v14.053l16.087-7.025h0.009l16.087,7.025V62.039l-14.443,6.305v-7.295h5.191V50.996L347.234,50.996z"/>
</g>
<g>
	<polygon fill="#95DB0F" points="284.141,76.092 284.141,62.039 269.698,68.344 269.698,61.049 274.889,61.049 274.889,50.996 
		261.209,50.996 261.209,61.049 266.401,61.049 266.401,68.344 251.958,62.039 251.958,76.092 268.045,69.066 268.054,69.066 	"/>
	<path opacity="0.8" fill="#231F20" d="M274.289,51.596v8.853h-4.591h-0.6v0.6v7.295v0.524l-0.804-0.351l-0.124-0.05h-0.125h-0.125
		l-0.115,0.05l-0.804,0.351v-0.524v-7.295v-0.6h-0.6h-4.591v-8.853H274.289 M283.541,62.956v12.219l-13.994-6.111l0.391-0.17
		L283.541,62.956 M252.558,62.956l13.603,5.938l0.391,0.17l-13.994,6.111V62.956 M274.889,50.996h-13.68v10.053h5.191v7.295
		l-14.443-6.305v14.053l16.087-7.025h0.009l16.087,7.025V62.039l-14.443,6.305v-7.295h5.191V50.996L274.889,50.996z"/>
</g>
<g>
	<g>
		<path d="M281.439,50.696l2.461,6.539l2.455-6.539h1.916v8.531h-1.477v-2.813l0.146-3.762l-2.52,6.574h-1.061l-2.514-6.568
			l0.146,3.756v2.813h-1.477v-8.531H281.439z"/>
		<path d="M294.482,57.03c0-0.375-0.132-0.664-0.396-0.867s-0.739-0.408-1.427-0.615s-1.234-0.438-1.641-0.691
			c-0.777-0.488-1.166-1.125-1.166-1.91c0-0.688,0.28-1.254,0.841-1.699s1.288-0.668,2.183-0.668c0.594,0,1.123,0.109,1.588,0.328
			s0.83,0.53,1.096,0.935s0.398,0.853,0.398,1.345h-1.477c0-0.445-0.14-0.794-0.419-1.046s-0.679-0.378-1.198-0.378
			c-0.484,0-0.86,0.104-1.128,0.311s-0.401,0.496-0.401,0.867c0,0.313,0.145,0.573,0.434,0.782s0.766,0.412,1.43,0.609
			s1.197,0.422,1.6,0.674s0.697,0.541,0.885,0.867s0.281,0.708,0.281,1.146c0,0.711-0.272,1.276-0.817,1.696s-1.284,0.63-2.218,0.63
			c-0.617,0-1.185-0.114-1.702-0.343s-0.92-0.544-1.207-0.946s-0.431-0.871-0.431-1.406h1.482c0,0.484,0.16,0.859,0.48,1.125
			s0.779,0.398,1.377,0.398c0.516,0,0.903-0.104,1.163-0.313S294.482,57.374,294.482,57.03z"/>
		<path d="M300.271,57.37l2.168-6.674h1.629l-3.07,8.531h-1.436l-3.059-8.531h1.623L300.271,57.37z"/>
	</g>
</g>
<g>
	<path d="M358.027,56.45c-0.086,0.91-0.422,1.62-1.008,2.13s-1.365,0.765-2.338,0.765c-0.68,0-1.278-0.161-1.796-0.483
		s-0.917-0.78-1.198-1.374s-0.428-1.283-0.439-2.068v-0.797c0-0.805,0.143-1.514,0.428-2.127s0.694-1.086,1.228-1.418
		s1.149-0.498,1.849-0.498c0.941,0,1.699,0.255,2.273,0.765s0.908,1.231,1.002,2.165h-1.477c-0.07-0.613-0.249-1.056-0.536-1.327
		s-0.708-0.407-1.263-0.407c-0.645,0-1.14,0.235-1.485,0.707s-0.522,1.163-0.53,2.073v0.757c0,0.922,0.165,1.626,0.495,2.111
		s0.813,0.727,1.45,0.727c0.582,0,1.02-0.131,1.313-0.393s0.479-0.697,0.557-1.307H358.027z"/>
	<path d="M362.357,57.37l2.168-6.674h1.629l-3.07,8.531h-1.436l-3.059-8.531h1.623L362.357,57.37z"/>
</g>
<g>
	<path d="M380.375,224.938h-1.477v-8.531h1.477V224.938z"/>
	<path d="M385.203,223.08l2.168-6.674H389l-3.07,8.531h-1.436l-3.059-8.531h1.623L385.203,223.08z"/>
</g>
<g>
	<path d="M459.111,224.938h-1.477v-8.531h1.477V224.938z"/>
	<path d="M465.393,222.74c0-0.375-0.132-0.664-0.396-0.867s-0.739-0.408-1.427-0.615s-1.234-0.438-1.641-0.691
		c-0.777-0.488-1.166-1.125-1.166-1.91c0-0.688,0.28-1.254,0.841-1.699s1.288-0.668,2.183-0.668c0.594,0,1.123,0.109,1.588,0.328
		s0.83,0.53,1.096,0.935s0.398,0.853,0.398,1.345h-1.477c0-0.445-0.14-0.794-0.419-1.046s-0.679-0.378-1.198-0.378
		c-0.484,0-0.86,0.104-1.128,0.311s-0.401,0.496-0.401,0.867c0,0.313,0.145,0.573,0.434,0.782s0.766,0.412,1.43,0.609
		s1.197,0.422,1.6,0.674s0.697,0.541,0.885,0.867s0.281,0.708,0.281,1.146c0,0.711-0.272,1.276-0.817,1.696s-1.284,0.63-2.218,0.63
		c-0.617,0-1.185-0.114-1.702-0.343s-0.92-0.544-1.207-0.946s-0.431-0.871-0.431-1.406h1.482c0,0.484,0.16,0.859,0.48,1.125
		s0.779,0.398,1.377,0.398c0.516,0,0.903-0.104,1.163-0.313S465.393,223.084,465.393,222.74z"/>
	<path d="M471.182,223.08l2.168-6.674h1.629l-3.07,8.531h-1.436l-3.059-8.531h1.623L471.182,223.08z"/>
</g>
<g>
	<path d="M793.715,149.828c-0.309,0.402-0.736,0.707-1.283,0.914s-1.168,0.311-1.863,0.311c-0.715,0-1.348-0.162-1.898-0.486
		s-0.976-0.788-1.274-1.392s-0.454-1.308-0.466-2.112v-0.668c0-1.289,0.309-2.296,0.926-3.021s1.479-1.087,2.584-1.087
		c0.949,0,1.703,0.235,2.262,0.706s0.895,1.147,1.008,2.03h-1.453c-0.164-1.027-0.76-1.541-1.787-1.541
		c-0.664,0-1.169,0.239-1.515,0.717s-0.524,1.18-0.536,2.104v0.655c0,0.921,0.194,1.636,0.583,2.146
		c0.389,0.509,0.929,0.764,1.62,0.764c0.758,0,1.297-0.172,1.617-0.516v-1.67h-1.758v-1.125h3.234V149.828z"/>
	<path d="M800.33,147.126h-3.504v2.625h4.096v1.184h-5.578v-8.531h5.537v1.195h-4.055v2.355h3.504V147.126z"/>
	<path d="M808.896,150.935h-1.482l-3.803-6.053v6.053h-1.482v-8.531h1.482l3.814,6.076v-6.076h1.471V150.935z"/>
</g>
</svg>
