<?xml version="1.0" encoding="utf-8"?>
<!-- Generator: Adobe Illustrator 15.0.0, SVG Export Plug-In . SVG Version: 6.00 Build 0)  -->
<!DOCTYPE svg PUBLIC "-//W3C//DTD SVG 1.1//EN" "http://www.w3.org/Graphics/SVG/1.1/DTD/svg11.dtd">
<svg version="1.1" id="Layer_1" xmlns="http://www.w3.org/2000/svg" xmlns:xlink="http://www.w3.org/1999/xlink" x="0px" y="0px"
	 width="1200px" height="600px" viewBox="-90 0 1200 600" enable-background="new -90 0 1200 600" xml:space="preserve">
<line fill="none" stroke="#000000" stroke-width="5" stroke-linejoin="round" stroke-miterlimit="10" x1="200.501" y1="73.851" x2="258.647" y2="73.851"/>
<line fill="none" stroke="#000000" stroke-width="2" stroke-miterlimit="10" x1="203.799" y1="81.524" x2="255.35" y2="81.524"/>
<line fill="none" stroke="#000000" stroke-width="2" stroke-miterlimit="10" x1="207.009" y1="87.349" x2="252.14" y2="87.349"/>
<line fill="none" stroke="#000000" stroke-width="2" stroke-miterlimit="10" x1="209.919" y1="93.174" x2="249.229" y2="93.174"/>
<line fill="none" stroke="#000000" stroke-width="2" stroke-miterlimit="10" x1="213.253" y1="99" x2="245.896" y2="99"/>
<line fill="none" stroke="#000000" stroke-width="2" stroke-miterlimit="10" x1="215.541" y1="104.825" x2="243.608" y2="104.825"/>
<line fill="none" stroke="#000000" stroke-width="2" stroke-miterlimit="10" x1="218.381" y1="110.65" x2="240.768" y2="110.65"/>
<line fill="none" stroke="#000000" stroke-width="2" stroke-miterlimit="10" x1="221.859" y1="116.476" x2="237.29" y2="116.476"/>
<line fill="none" stroke="#000000" stroke-width="2" stroke-miterlimit="10" x1="224.826" y1="122.301" x2="234.322" y2="122.301"/>
<line fill="none" stroke="#000000" stroke-width="2" stroke-miterlimit="10" x1="227.794" y1="128.126" x2="231.355" y2="128.126"/>
<line fill="#C0C0C0" x1="381.417" y1="239.118" x2="410.611" y2="252.96"/>
<line fill="none" stroke="#FF8500" stroke-width="2" stroke-miterlimit="10" x1="693.168" y1="388.619" x2="693.168" y2="424.433"/>
<polyline fill="none" stroke="#FF8500" stroke-width="2" stroke-miterlimit="10" points="668.366,418.229 668.366,424.129 
	718.359,424.129 718.359,418.229 "/>
<g>
	<g>
		<polyline fill="none" stroke="#FF8500" stroke-width="1.6" stroke-miterlimit="10" points="538.089,132.509 373.037,132.509 
			373.037,221.396 		"/>
		<g>
			<polygon fill="#FF8500" points="367.112,216.902 373.037,219.419 378.961,216.902 373.037,230.947 			"/>
		</g>
	</g>
</g>
<g>
	<g>
		
			<line fill="none" stroke="#FF8500" stroke-width="1.6" stroke-miterlimit="10" x1="686.502" y1="132.509" x2="645.697" y2="132.509"/>
		<g>
			<polygon fill="#FF8500" points="650.19,126.584 647.674,132.509 650.19,138.434 636.146,132.509 			"/>
		</g>
	</g>
</g>
<g>
	<g>
		
			<line fill="none" stroke="#FF8500" stroke-width="1.6" stroke-miterlimit="10" x1="958.684" y1="133.193" x2="787.669" y2="133.193"/>
		<g>
			<polygon fill="#FF8500" points="792.162,127.268 789.646,133.193 792.162,139.118 778.117,133.193 			"/>
		</g>
	</g>
</g>
<g>
	<g>
		<polyline fill="none" stroke="#FF8500" stroke-width="1.6" stroke-miterlimit="10" points="929.119,133.235 929.119,378.23 
			901.076,378.23 		"/>
		<g>
			<polygon fill="#FF8500" points="905.569,372.306 903.053,378.23 905.569,384.155 891.524,378.23 			"/>
		</g>
	</g>
</g>
<g>
	<g>
		
			<line fill="none" stroke="#FF8500" stroke-width="1.6" stroke-miterlimit="10" x1="926.119" y1="256.445" x2="869.944" y2="256.445"/>
		<g>
			<polygon fill="#FF8500" points="874.438,250.521 871.921,256.445 874.438,262.37 860.393,256.445 			"/>
		</g>
	</g>
</g>
<g>
	<g>
		
			<line fill="none" stroke="#FF8500" stroke-width="1.6" stroke-miterlimit="10" x1="787.514" y1="378.23" x2="756.809" y2="378.23"/>
		<g>
			<polygon fill="#FF8500" points="761.302,372.306 758.785,378.23 761.302,384.155 747.257,378.23 			"/>
		</g>
	</g>
</g>
<g>
	<g>
		
			<line fill="none" stroke="#FF8500" stroke-width="1.6" stroke-miterlimit="10" x1="658.864" y1="378.23" x2="615.545" y2="378.23"/>
		<g>
			<polygon fill="#FF8500" points="620.038,372.306 617.521,378.23 620.038,384.155 605.993,378.23 			"/>
		</g>
	</g>
</g>
<g>
	<g>
		<polyline fill="none" stroke="#FF8500" stroke-width="1.6" stroke-miterlimit="10" points="505.621,378.23 373.579,378.23 
			373.579,287.558 		"/>
		<g>
			<polygon fill="#FF8500" points="379.504,292.052 373.579,289.535 367.654,292.052 373.579,278.006 			"/>
		</g>
	</g>
</g>
<g>
	<g>
		<polyline fill="none" stroke="#000000" stroke-width="1.6" stroke-miterlimit="10" points="629.186,278.006 601.696,255.477 
			440.829,255.477 		"/>
		<g>
			<polygon points="445.322,249.552 442.805,255.477 445.322,261.401 431.277,255.477 			"/>
		</g>
	</g>
</g>
<g>
	<circle fill="#C0C0C0" cx="649.499" cy="255.54" r="31.386"/>
	<g opacity="0.5">
		<path fill="#231F20" d="M649.5,224.755c16.975,0,30.785,13.81,30.785,30.785c0,16.976-13.811,30.787-30.785,30.787
			c-16.976,0-30.787-13.811-30.787-30.787C618.713,238.565,632.524,224.755,649.5,224.755 M649.5,224.155
			c-17.334,0-31.387,14.051-31.387,31.385c0,17.335,14.053,31.387,31.387,31.387c17.332,0,31.385-14.052,31.385-31.387
			C680.885,238.206,666.832,224.155,649.5,224.155L649.5,224.155z"/>
	</g>
</g>
<g>
	<g>
		
			<line fill="none" stroke="#000000" stroke-width="1.6" stroke-miterlimit="10" x1="229.574" y1="129.321" x2="229.574" y2="228.628"/>
		<g>
			<polygon points="223.649,224.134 229.574,226.651 235.499,224.134 229.574,238.18 			"/>
		</g>
	</g>
</g>
<g>
	<g>
		
			<line fill="none" stroke="#000000" stroke-width="1.6" stroke-miterlimit="10" x1="229.636" y1="270.119" x2="229.636" y2="301.36"/>
		<g>
			<polygon points="223.711,296.867 229.636,299.384 235.561,296.867 229.636,310.912 			"/>
		</g>
	</g>
</g>
<g>
	<g>
		
			<line fill="none" stroke="#000000" stroke-width="1.6" stroke-miterlimit="10" x1="229.636" y1="303.744" x2="229.636" y2="389.705"/>
		<g>
			<polygon points="223.711,385.212 229.636,387.729 235.561,385.212 229.636,399.257 			"/>
		</g>
	</g>
</g>
<g>
	<g>
		
			<line fill="none" stroke="#000000" stroke-width="1.6" stroke-miterlimit="10" x1="229.636" y1="429.807" x2="229.636" y2="471.247"/>
		<g>
			<polygon points="223.711,466.754 229.636,469.271 235.561,466.754 229.636,480.799 			"/>
		</g>
	</g>
</g>
<line fill="none" stroke="#000000" stroke-width="2" stroke-miterlimit="10" x1="189.468" y1="505.222" x2="229.636" y2="505.222"/>
<g>
	<g>
		<polyline fill="none" stroke="#000000" stroke-width="1.6" stroke-miterlimit="10" points="229.636,474.825 229.636,546.283 
			715.516,546.283 		"/>
		<g>
			<polygon points="711.022,552.208 713.539,546.283 711.022,540.358 725.067,546.283 			"/>
		</g>
	</g>
</g>
<g>
	<g>
		<polyline fill="none" stroke="#000000" stroke-width="1.6" stroke-miterlimit="10" points="229.636,285.687 15.288,285.687 
			15.288,505.222 83.565,505.222 		"/>
		<g>
			<polygon points="79.072,511.146 81.589,505.222 79.072,499.297 93.117,505.222 			"/>
		</g>
	</g>
</g>
<line fill="none" stroke="#000000" stroke-width="2" stroke-miterlimit="10" x1="229.636" y1="344.348" x2="185.17" y2="344.348"/>
<g>
	<g>
		
			<line fill="none" stroke="#000000" stroke-width="1.6" stroke-miterlimit="10" x1="58.765" y1="344.348" x2="85.444" y2="344.348"/>
		<g>
			<polygon points="80.95,350.272 83.467,344.348 80.95,338.423 94.996,344.348 			"/>
		</g>
	</g>
</g>
<g>
	<g>
		<path fill="none" stroke="#000000" stroke-width="2" stroke-miterlimit="10" d="M63.06,344.404"/>
		<polygon fill="none" stroke="#000000" stroke-width="2" stroke-miterlimit="10" points="36.372,326.043 36.372,362.653 
			63.06,344.352 		"/>
	</g>
	<line fill="none" stroke="#000000" stroke-width="2" stroke-miterlimit="10" x1="38.32" y1="361.111" x2="38.32" y2="327.617"/>
	<line fill="none" stroke="#000000" stroke-width="2" stroke-miterlimit="10" x1="43.378" y1="357.681" x2="43.378" y2="330.631"/>
	<line fill="none" stroke="#000000" stroke-width="2" stroke-miterlimit="10" x1="48.761" y1="354.157" x2="48.761" y2="334.542"/>
	<line fill="none" stroke="#000000" stroke-width="2" stroke-miterlimit="10" x1="54.598" y1="350.154" x2="54.598" y2="338.188"/>
	<line fill="none" stroke="#000000" stroke-width="2" stroke-miterlimit="10" x1="59.956" y1="342.223" x2="59.956" y2="346.101"/>
</g>
<line fill="none" stroke="#000000" stroke-width="2" stroke-miterlimit="10" x1="275.045" y1="256.879" x2="322.689" y2="256.879"/>
<g>
	<rect x="314.085" y="239.817" fill="#FFFFFF" width="115.856" height="31.981"/>
</g>
<g>
	<g>
		<path fill="#231F20" d="M428.941,240.817v29.981H315.085v-29.981H428.941 M429.941,239.817H314.085v31.981h115.856V239.817
			L429.941,239.817z"/>
	</g>
</g>
<polyline fill="none" stroke="#000000" stroke-miterlimit="10" points="333.415,255.477 352.623,255.477 355.366,249.146 
	362.351,262.616 369.086,249.146 375.322,262.616 381.417,249.146 388.043,262.616 391.287,255.477 410.611,255.477 "/>
<g>
	<g>
		<rect x="499.943" y="362.24" fill="#00C000" width="100.752" height="31.981"/>
	</g>
	<g opacity="0.6">
		<g>
			<path fill="#231F20" d="M599.695,363.24v29.981h-98.752V363.24H599.695 M600.695,362.24H499.943v31.981h100.752V362.24
				L600.695,362.24z"/>
		</g>
	</g>
</g>
<g>
	<g>
		<rect x="642.792" y="362.24" fill="#00C000" width="100.752" height="31.98"/>
	</g>
	<g opacity="0.6">
		<g>
			<path fill="#231F20" d="M742.544,363.24v29.98h-98.752v-29.98H742.544 M743.544,362.24H642.792v31.98h100.752V362.24
				L743.544,362.24z"/>
		</g>
	</g>
</g>
<g>
	<rect x="785.166" y="362.24" fill="#FF0000" width="100.75" height="31.98"/>
</g>
<g opacity="0.6">
	<g>
		<path fill="#231F20" d="M884.916,363.24v29.98h-98.75v-29.98H884.916 M885.916,362.24h-100.75v31.98h100.75V362.24L885.916,362.24
			z"/>
	</g>
</g>
<g>
	<g>
		<rect x="529.047" y="117.202" fill="#00C000" width="100.752" height="31.981"/>
	</g>
	<g opacity="0.6">
		<g>
			<path fill="#231F20" d="M628.799,118.202v29.981h-98.752v-29.981H628.799 M629.799,117.202H529.047v31.981h100.752V117.202
				L629.799,117.202z"/>
		</g>
	</g>
</g>
<g>
	<rect x="674.75" y="116.519" fill="#FF0000" width="100.75" height="31.98"/>
</g>
<g opacity="0.6">
	<g>
		<path fill="#231F20" d="M774.5,117.519v29.98h-98.75v-29.98H774.5 M775.5,116.519H674.75v31.98H775.5V116.519L775.5,116.519z"/>
	</g>
</g>
<g>
	<g>
		<rect x="516.702" y="531.5" fill="#00C000" width="100.752" height="31.981"/>
	</g>
	<g opacity="0.6">
		<g>
			<path fill="#231F20" d="M616.454,532.5v29.981h-98.752V532.5H616.454 M617.454,531.5H516.702v31.981h100.752V531.5L617.454,531.5
				z"/>
		</g>
	</g>
</g>
<g>
	<g>
		<path d="M632.441,260.318h-1.482l-3.803-6.053v6.053h-1.482v-8.531h1.482l3.814,6.076v-6.076h1.471V260.318z"/>
		<path d="M641.002,256.275c0,0.836-0.145,1.569-0.434,2.2s-0.702,1.115-1.239,1.453s-1.155,0.507-1.854,0.507
			c-0.691,0-1.308-0.169-1.849-0.507s-0.959-0.819-1.254-1.444s-0.444-1.346-0.448-2.162v-0.48c0-0.832,0.147-1.566,0.442-2.203
			s0.711-1.124,1.248-1.462s1.153-0.507,1.849-0.507s1.312,0.167,1.849,0.501s0.952,0.814,1.245,1.441s0.441,1.356,0.445,2.188
			V256.275z M639.52,255.83c0-0.945-0.179-1.67-0.536-2.174s-0.864-0.756-1.521-0.756c-0.641,0-1.142,0.251-1.503,0.753
			s-0.546,1.212-0.554,2.13v0.492c0,0.938,0.183,1.662,0.548,2.174s0.872,0.768,1.521,0.768c0.656,0,1.161-0.25,1.515-0.75
			s0.53-1.23,0.53-2.191V255.83z"/>
		<path d="M645.613,257.037h-1.652v3.281h-1.482v-8.531h3c0.984,0,1.744,0.221,2.279,0.663s0.803,1.081,0.803,1.918
			c0,0.571-0.138,1.048-0.413,1.434s-0.659,0.681-1.151,0.888l1.916,3.553v0.076h-1.588L645.613,257.037z M643.961,255.841h1.523
			c0.5,0,0.891-0.126,1.172-0.378s0.422-0.597,0.422-1.034c0-0.457-0.13-0.811-0.39-1.061s-0.647-0.379-1.163-0.387h-1.564V255.841z
			"/>
		<path d="M651.889,251.787l2.461,6.539l2.455-6.539h1.916v8.531h-1.477v-2.813l0.146-3.762l-2.52,6.574h-1.061l-2.514-6.568
			l0.146,3.756v2.813h-1.477v-8.531H651.889z"/>
		<path d="M665.354,258.332h-3.305l-0.691,1.986h-1.541l3.223-8.531h1.33l3.229,8.531h-1.547L665.354,258.332z M662.465,257.136
			h2.473l-1.236-3.539L662.465,257.136z"/>
		<path d="M670.047,259.134h3.873v1.184h-5.355v-8.531h1.482V259.134z"/>
	</g>
</g>
<g>
	<g>
		<path d="M637.031,197.493l2.461,6.539l2.455-6.539h1.916v8.531h-1.477v-2.813l0.146-3.762l-2.52,6.574h-1.061l-2.514-6.568
			l0.146,3.756v2.813h-1.477v-8.531H637.031z"/>
		<path d="M650.602,202.216h-3.504v2.625h4.096v1.184h-5.578v-8.531h5.537v1.195h-4.055v2.355h3.504V202.216z"/>
		<path d="M658.91,203.247c-0.086,0.91-0.422,1.62-1.008,2.13s-1.365,0.765-2.338,0.765c-0.68,0-1.277-0.161-1.795-0.483
			s-0.918-0.78-1.199-1.374s-0.428-1.283-0.439-2.068v-0.797c0-0.805,0.143-1.514,0.428-2.127s0.695-1.086,1.229-1.418
			s1.148-0.498,1.848-0.498c0.941,0,1.699,0.255,2.273,0.765s0.908,1.231,1.002,2.165h-1.477c-0.07-0.613-0.248-1.056-0.535-1.327
			s-0.709-0.407-1.264-0.407c-0.645,0-1.139,0.235-1.484,0.707s-0.523,1.163-0.531,2.073v0.757c0,0.922,0.166,1.626,0.496,2.111
			s0.813,0.727,1.449,0.727c0.582,0,1.02-0.131,1.313-0.393s0.479-0.697,0.557-1.307H658.91z"/>
		<path d="M667.008,206.024h-1.477v-3.785h-3.814v3.785h-1.482v-8.531h1.482v3.551h3.814v-3.551h1.477V206.024z"/>
		<path d="M634.375,213.981c0,0.836-0.145,1.569-0.434,2.2s-0.703,1.115-1.24,1.453s-1.154,0.507-1.854,0.507
			c-0.691,0-1.309-0.169-1.85-0.507s-0.959-0.819-1.254-1.444s-0.443-1.346-0.447-2.162v-0.48c0-0.832,0.146-1.566,0.441-2.203
			s0.711-1.124,1.248-1.462s1.154-0.507,1.85-0.507s1.311,0.167,1.848,0.501s0.953,0.814,1.246,1.441s0.441,1.356,0.445,2.188
			V213.981z M632.893,213.536c0-0.945-0.18-1.67-0.537-2.174s-0.863-0.756-1.52-0.756c-0.641,0-1.143,0.251-1.504,0.753
			s-0.545,1.212-0.553,2.13v0.492c0,0.938,0.182,1.662,0.547,2.174s0.873,0.768,1.521,0.768c0.656,0,1.16-0.25,1.514-0.75
			s0.531-1.23,0.531-2.191V213.536z"/>
		<path d="M636.115,218.757h-1.119l3.357-9.264h1.119L636.115,218.757z"/>
		<path d="M645.057,215.827c0-0.375-0.133-0.664-0.396-0.867s-0.738-0.408-1.426-0.615s-1.234-0.438-1.641-0.691
			c-0.777-0.488-1.166-1.125-1.166-1.91c0-0.688,0.279-1.254,0.84-1.699s1.289-0.668,2.184-0.668c0.594,0,1.123,0.109,1.588,0.328
			s0.83,0.53,1.096,0.935s0.398,0.853,0.398,1.345h-1.477c0-0.445-0.141-0.794-0.42-1.046s-0.678-0.378-1.197-0.378
			c-0.484,0-0.861,0.104-1.129,0.311s-0.4,0.496-0.4,0.867c0,0.313,0.145,0.573,0.434,0.782s0.766,0.412,1.43,0.609
			s1.197,0.422,1.6,0.674s0.697,0.541,0.885,0.867s0.281,0.708,0.281,1.146c0,0.711-0.273,1.276-0.818,1.696s-1.283,0.63-2.217,0.63
			c-0.617,0-1.186-0.114-1.703-0.343s-0.92-0.544-1.207-0.946s-0.43-0.871-0.43-1.406h1.482c0,0.484,0.16,0.859,0.48,1.125
			s0.779,0.398,1.377,0.398c0.516,0,0.902-0.104,1.162-0.313S645.057,216.171,645.057,215.827z"/>
		<path d="M656.641,210.688h-2.66v7.336h-1.471v-7.336h-2.637v-1.195h6.768V210.688z"/>
		<path d="M660.895,214.743h-1.652v3.281h-1.482v-8.531h3c0.984,0,1.744,0.221,2.279,0.663s0.803,1.081,0.803,1.918
			c0,0.571-0.139,1.048-0.414,1.434s-0.658,0.681-1.15,0.888l1.916,3.553v0.076h-1.588L660.895,214.743z M659.242,213.548h1.523
			c0.5,0,0.891-0.126,1.172-0.378s0.422-0.597,0.422-1.034c0-0.457-0.131-0.811-0.391-1.061s-0.646-0.379-1.162-0.387h-1.564
			V213.548z"/>
		<path d="M666.813,218.024h-1.477v-8.531h1.477V218.024z"/>
		<path d="M670.117,214.86v3.164h-1.482v-8.531h3.264c0.953,0,1.709,0.249,2.27,0.745s0.842,1.153,0.842,1.971
			c0,0.837-0.275,1.488-0.824,1.954c-0.549,0.465-1.316,0.698-2.305,0.698H670.117z M670.117,213.665h1.781
			c0.527,0,0.93-0.124,1.207-0.372s0.416-0.606,0.416-1.075c0-0.461-0.141-0.829-0.422-1.104s-0.668-0.417-1.16-0.425h-1.822
			V213.665z"/>
	</g>
</g>
<g>
	<g>
		<path d="M522.051,336.549l2.461,6.539l2.455-6.539h1.916v8.531h-1.477v-2.813l0.146-3.762l-2.52,6.574h-1.061l-2.514-6.568
			l0.146,3.756v2.813h-1.477v-8.531H522.051z"/>
		<path d="M535.621,341.271h-3.504v2.625h4.096v1.184h-5.578v-8.531h5.537v1.195h-4.055v2.355h3.504V341.271z"/>
		<path d="M543.93,342.303c-0.086,0.91-0.422,1.619-1.008,2.129s-1.365,0.766-2.338,0.766c-0.68,0-1.279-0.162-1.797-0.484
			s-0.916-0.779-1.197-1.373s-0.428-1.283-0.439-2.068v-0.797c0-0.805,0.143-1.514,0.428-2.127s0.693-1.086,1.227-1.418
			s1.15-0.498,1.85-0.498c0.941,0,1.699,0.254,2.273,0.764s0.908,1.232,1.002,2.166h-1.477c-0.07-0.613-0.25-1.057-0.537-1.328
			s-0.707-0.406-1.262-0.406c-0.645,0-1.141,0.234-1.486,0.706s-0.521,1.163-0.529,2.073v0.757c0,0.923,0.164,1.626,0.494,2.111
			s0.814,0.728,1.451,0.728c0.582,0,1.02-0.131,1.313-0.393s0.479-0.697,0.557-1.307H543.93z"/>
		<path d="M552.027,345.08h-1.477v-3.785h-3.814v3.785h-1.482v-8.531h1.482v3.551h3.814v-3.551h1.477V345.08z"/>
		<path d="M562.58,337.744h-2.66v7.336h-1.471v-7.336h-2.637v-1.195h6.768V337.744z"/>
		<path d="M566.834,341.799h-1.652v3.281h-1.482v-8.531h3c0.984,0,1.744,0.221,2.279,0.662s0.803,1.081,0.803,1.918
			c0,0.57-0.139,1.049-0.414,1.434s-0.658,0.682-1.15,0.889l1.916,3.553v0.076h-1.588L566.834,341.799z M565.182,340.604h1.523
			c0.5,0,0.891-0.127,1.172-0.379s0.422-0.596,0.422-1.033c0-0.457-0.131-0.811-0.391-1.061s-0.646-0.379-1.162-0.387h-1.564
			V340.604z"/>
		<path d="M572.752,345.08h-1.477v-8.531h1.477V345.08z"/>
		<path d="M576.057,341.916v3.164h-1.482v-8.531h3.264c0.953,0,1.709,0.248,2.27,0.744c0.561,0.497,0.842,1.154,0.842,1.971
			c0,0.838-0.275,1.488-0.824,1.954s-1.316,0.698-2.305,0.698H576.057z M576.057,340.721h1.781c0.527,0,0.93-0.125,1.207-0.373
			s0.416-0.605,0.416-1.074c0-0.461-0.141-0.83-0.422-1.105s-0.668-0.416-1.16-0.424h-1.822V340.721z"/>
		<path d="M531.557,353.916v3.164h-1.482v-8.531h3.264c0.953,0,1.711,0.248,2.271,0.744c0.561,0.497,0.84,1.154,0.84,1.971
			c0,0.838-0.273,1.488-0.822,1.954s-1.318,0.698-2.307,0.698H531.557z M531.557,352.721h1.781c0.527,0,0.93-0.125,1.207-0.373
			s0.416-0.605,0.416-1.074c0-0.461-0.141-0.83-0.422-1.105s-0.668-0.416-1.16-0.424h-1.822V352.721z"/>
		<path d="M539.309,357.08h-1.477v-8.531h1.477V357.08z"/>
		<path d="M545.59,354.883c0-0.375-0.131-0.664-0.395-0.867s-0.74-0.408-1.428-0.615s-1.234-0.438-1.641-0.691
			c-0.777-0.488-1.166-1.125-1.166-1.91c0-0.688,0.281-1.254,0.842-1.699s1.287-0.668,2.182-0.668c0.594,0,1.123,0.109,1.588,0.328
			s0.83,0.529,1.096,0.934s0.398,0.854,0.398,1.346h-1.477c0-0.445-0.139-0.795-0.418-1.047s-0.68-0.377-1.199-0.377
			c-0.484,0-0.859,0.104-1.127,0.311s-0.402,0.496-0.402,0.867c0,0.313,0.145,0.572,0.434,0.781s0.766,0.412,1.43,0.609
			s1.197,0.422,1.6,0.674s0.697,0.541,0.885,0.867s0.281,0.709,0.281,1.146c0,0.711-0.271,1.275-0.816,1.695
			s-1.285,0.631-2.219,0.631c-0.617,0-1.184-0.115-1.701-0.344s-0.92-0.543-1.207-0.945s-0.432-0.871-0.432-1.406h1.482
			c0,0.484,0.16,0.859,0.48,1.125s0.779,0.398,1.377,0.398c0.516,0,0.904-0.105,1.164-0.314S545.59,355.227,545.59,354.883z"/>
		<path d="M554.537,349.744h-2.66v7.336h-1.471v-7.336h-2.637v-1.195h6.768V349.744z"/>
		<path d="M562.301,353.037c0,0.836-0.145,1.568-0.434,2.199s-0.701,1.115-1.238,1.453s-1.156,0.508-1.855,0.508
			c-0.691,0-1.307-0.17-1.848-0.508s-0.959-0.818-1.254-1.443s-0.445-1.346-0.449-2.162v-0.48c0-0.832,0.148-1.566,0.443-2.203
			s0.711-1.125,1.248-1.463s1.152-0.506,1.848-0.506s1.313,0.166,1.85,0.5s0.951,0.814,1.244,1.441s0.441,1.357,0.445,2.189V353.037
			z M560.818,352.592c0-0.945-0.178-1.67-0.535-2.174s-0.865-0.756-1.521-0.756c-0.641,0-1.141,0.25-1.502,0.752
			s-0.547,1.213-0.555,2.131v0.492c0,0.938,0.184,1.662,0.549,2.174s0.871,0.768,1.52,0.768c0.656,0,1.162-0.25,1.516-0.75
			s0.529-1.23,0.529-2.191V352.592z"/>
		<path d="M570.545,357.08h-1.482l-3.803-6.053v6.053h-1.482v-8.531h1.482l3.814,6.076v-6.076h1.471V357.08z"/>
	</g>
</g>
<g>
	<g>
		<path d="M671.312,336.549l2.461,6.539l2.455-6.539h1.916v8.531h-1.477v-2.813l0.146-3.762l-2.52,6.574h-1.061l-2.514-6.568
			l0.146,3.756v2.813h-1.477v-8.531H671.312z"/>
		<path d="M684.776,343.094h-3.305l-0.691,1.986h-1.541l3.223-8.531h1.33l3.229,8.531h-1.547L684.776,343.094z M681.888,341.898
			h2.473l-1.236-3.539L681.888,341.898z"/>
		<path d="M694.755,345.08h-1.482l-3.803-6.053v6.053h-1.482v-8.531h1.482l3.814,6.076v-6.076h1.471V345.08z"/>
		<path d="M702.747,336.549v5.701c0,0.906-0.29,1.625-0.87,2.154s-1.353,0.793-2.317,0.793c-0.977,0-1.752-0.26-2.326-0.781
			s-0.861-1.246-0.861-2.172v-5.695h1.477v5.707c0,0.57,0.145,1.006,0.434,1.307s0.715,0.451,1.277,0.451
			c1.141,0,1.711-0.602,1.711-1.805v-5.66H702.747z"/>
		<path d="M708.976,343.094h-3.305l-0.691,1.986h-1.541l3.223-8.531h1.33l3.229,8.531h-1.547L708.976,343.094z M706.087,341.898
			h2.473l-1.236-3.539L706.087,341.898z"/>
		<path d="M713.669,343.896h3.873v1.184h-5.355v-8.531h1.482V343.896z"/>
		<path d="M687.284,349.744h-2.66v7.336h-1.471v-7.336h-2.637v-1.195h6.768V349.744z"/>
		<path d="M691.538,353.799h-1.652v3.281h-1.482v-8.531h3c0.984,0,1.744,0.221,2.279,0.663s0.803,1.081,0.803,1.918
			c0,0.571-0.138,1.048-0.413,1.434s-0.659,0.681-1.151,0.888l1.916,3.553v0.076h-1.588L691.538,353.799z M689.886,352.604h1.523
			c0.5,0,0.891-0.125,1.172-0.377s0.422-0.598,0.422-1.035c0-0.457-0.13-0.811-0.39-1.061s-0.647-0.379-1.163-0.387h-1.564V352.604z
			"/>
		<path d="M697.456,357.08h-1.477v-8.531h1.477V357.08z"/>
		<path d="M700.761,353.916v3.164h-1.482v-8.531h3.264c0.953,0,1.71,0.249,2.271,0.746c0.561,0.496,0.841,1.152,0.841,1.971
			c0,0.836-0.274,1.487-0.823,1.953c-0.549,0.465-1.317,0.697-2.306,0.697H700.761z M700.761,352.721h1.781
			c0.527,0,0.93-0.123,1.207-0.371s0.416-0.607,0.416-1.076c0-0.461-0.141-0.828-0.422-1.104s-0.668-0.418-1.16-0.426h-1.822
			V352.721z"/>
	</g>
</g>
<g>
	<g>
		<path d="M807.272,336.549l2.461,6.539l2.455-6.539h1.916v8.531h-1.477v-2.813l0.146-3.762l-2.52,6.574h-1.061l-2.514-6.568
			l0.146,3.756v2.813h-1.477v-8.531H807.272z"/>
		<path d="M820.843,341.271h-3.504v2.625h4.096v1.184h-5.578v-8.531h5.537v1.195h-4.055v2.355h3.504V341.271z"/>
		<path d="M829.151,342.303c-0.086,0.91-0.422,1.619-1.008,2.129s-1.365,0.766-2.338,0.766c-0.68,0-1.278-0.162-1.796-0.484
			s-0.917-0.779-1.198-1.373s-0.428-1.283-0.439-2.068v-0.797c0-0.805,0.143-1.514,0.428-2.127s0.694-1.086,1.228-1.418
			s1.149-0.498,1.849-0.498c0.941,0,1.699,0.254,2.273,0.764s0.908,1.232,1.002,2.166h-1.477c-0.07-0.613-0.249-1.057-0.536-1.328
			s-0.708-0.406-1.263-0.406c-0.645,0-1.14,0.234-1.485,0.706s-0.522,1.163-0.53,2.073v0.757c0,0.923,0.165,1.626,0.495,2.111
			s0.813,0.728,1.45,0.728c0.582,0,1.02-0.131,1.313-0.393s0.479-0.697,0.557-1.307H829.151z"/>
		<path d="M837.249,345.08h-1.477v-3.785h-3.814v3.785h-1.482v-8.531h1.482v3.551h3.814v-3.551h1.477V345.08z"/>
		<path d="M847.802,337.744h-2.66v7.336h-1.471v-7.336h-2.637v-1.195h6.768V337.744z"/>
		<path d="M852.056,341.799h-1.652v3.281h-1.482v-8.531h3c0.984,0,1.744,0.221,2.279,0.662s0.803,1.081,0.803,1.918
			c0,0.57-0.138,1.049-0.413,1.434s-0.659,0.682-1.151,0.889l1.916,3.553v0.076h-1.588L852.056,341.799z M850.403,340.604h1.523
			c0.5,0,0.891-0.127,1.172-0.379s0.422-0.596,0.422-1.033c0-0.457-0.13-0.811-0.39-1.061s-0.647-0.379-1.163-0.387h-1.564V340.604z
			"/>
		<path d="M857.974,345.08h-1.477v-8.531h1.477V345.08z"/>
		<path d="M861.278,341.916v3.164h-1.482v-8.531h3.264c0.953,0,1.71,0.248,2.271,0.744c0.561,0.497,0.841,1.154,0.841,1.971
			c0,0.838-0.274,1.488-0.823,1.954s-1.317,0.698-2.306,0.698H861.278z M861.278,340.721h1.781c0.527,0,0.93-0.125,1.207-0.373
			s0.416-0.605,0.416-1.074c0-0.461-0.141-0.83-0.422-1.105s-0.668-0.416-1.16-0.424h-1.822V340.721z"/>
		<path d="M812.449,354.883c0-0.375-0.132-0.664-0.396-0.867s-0.739-0.408-1.427-0.615s-1.234-0.438-1.641-0.691
			c-0.777-0.488-1.166-1.125-1.166-1.91c0-0.688,0.28-1.254,0.841-1.699s1.288-0.668,2.183-0.668c0.594,0,1.123,0.109,1.588,0.328
			s0.83,0.529,1.096,0.934s0.398,0.854,0.398,1.346h-1.477c0-0.445-0.14-0.795-0.419-1.047s-0.679-0.377-1.198-0.377
			c-0.484,0-0.86,0.104-1.128,0.311s-0.401,0.496-0.401,0.867c0,0.313,0.145,0.572,0.434,0.781s0.766,0.412,1.43,0.609
			s1.197,0.422,1.6,0.674s0.697,0.541,0.885,0.867s0.281,0.709,0.281,1.146c0,0.711-0.272,1.275-0.817,1.695
			s-1.284,0.631-2.218,0.631c-0.617,0-1.185-0.115-1.702-0.344s-0.92-0.543-1.207-0.945s-0.431-0.871-0.431-1.406h1.482
			c0,0.484,0.16,0.859,0.48,1.125s0.779,0.398,1.377,0.398c0.516,0,0.903-0.105,1.163-0.314S812.449,355.227,812.449,354.883z"/>
		<path d="M822.041,353.037c0,0.836-0.145,1.568-0.434,2.199s-0.702,1.115-1.239,1.453s-1.155,0.508-1.854,0.508
			c-0.691,0-1.308-0.17-1.849-0.508s-0.959-0.818-1.254-1.443s-0.444-1.346-0.448-2.162v-0.48c0-0.832,0.147-1.566,0.442-2.203
			s0.711-1.125,1.248-1.463s1.153-0.506,1.849-0.506s1.312,0.166,1.849,0.5s0.952,0.814,1.245,1.441s0.441,1.357,0.445,2.189
			V353.037z M820.559,352.592c0-0.945-0.179-1.67-0.536-2.174s-0.864-0.756-1.521-0.756c-0.641,0-1.142,0.25-1.503,0.752
			s-0.546,1.213-0.554,2.131v0.492c0,0.938,0.183,1.662,0.548,2.174s0.872,0.768,1.521,0.768c0.656,0,1.161-0.25,1.515-0.75
			s0.53-1.23,0.53-2.191V352.592z"/>
		<path d="M825,355.896h3.873v1.184h-5.355v-8.531H825V355.896z"/>
		<path d="M834.996,353.271h-3.504v2.625h4.096v1.184h-5.578v-8.531h5.537v1.195h-4.055v2.355h3.504V353.271z"/>
		<path d="M843.563,357.08h-1.482l-3.803-6.053v6.053h-1.482v-8.531h1.482l3.814,6.076v-6.076h1.471V357.08z"/>
		<path d="M852.123,353.037c0,0.836-0.145,1.568-0.434,2.199s-0.702,1.115-1.239,1.453s-1.155,0.508-1.854,0.508
			c-0.691,0-1.308-0.17-1.849-0.508s-0.959-0.818-1.254-1.443s-0.444-1.346-0.448-2.162v-0.48c0-0.832,0.147-1.566,0.442-2.203
			s0.711-1.125,1.248-1.463s1.153-0.506,1.849-0.506s1.312,0.166,1.849,0.5s0.952,0.814,1.245,1.441s0.441,1.357,0.445,2.189
			V353.037z M850.641,352.592c0-0.945-0.179-1.67-0.536-2.174s-0.864-0.756-1.521-0.756c-0.641,0-1.142,0.25-1.503,0.752
			s-0.546,1.213-0.554,2.131v0.492c0,0.938,0.183,1.662,0.548,2.174s0.872,0.768,1.521,0.768c0.656,0,1.161-0.25,1.515-0.75
			s0.53-1.23,0.53-2.191V352.592z"/>
		<path d="M855.164,357.08h-1.477v-8.531h1.477V357.08z"/>
		<path d="M856.986,357.08v-8.531h2.52c0.754,0,1.423,0.168,2.007,0.504s1.036,0.813,1.356,1.43s0.48,1.324,0.48,2.121v0.428
			c0,0.809-0.161,1.52-0.483,2.133s-0.781,1.086-1.377,1.418s-1.278,0.498-2.048,0.498H856.986z M858.469,349.744v6.152h0.967
			c0.777,0,1.374-0.244,1.79-0.73s0.628-1.184,0.636-2.094v-0.475c0-0.926-0.201-1.633-0.604-2.121s-0.986-0.732-1.752-0.732
			H858.469z"/>
	</g>
</g>
<g>
	<g>
		<path d="M791.804,217.098c0,0.836-0.145,1.569-0.434,2.2s-0.702,1.115-1.239,1.453s-1.155,0.507-1.854,0.507
			c-0.691,0-1.308-0.169-1.849-0.507s-0.959-0.819-1.254-1.444s-0.444-1.346-0.448-2.162v-0.48c0-0.832,0.147-1.566,0.442-2.203
			s0.711-1.124,1.248-1.462s1.153-0.507,1.849-0.507s1.312,0.167,1.849,0.501s0.952,0.814,1.245,1.441s0.441,1.356,0.445,2.188
			V217.098z M790.321,216.652c0-0.945-0.179-1.67-0.536-2.174s-0.864-0.756-1.521-0.756c-0.641,0-1.142,0.251-1.503,0.753
			s-0.546,1.212-0.554,2.13v0.492c0,0.938,0.183,1.662,0.548,2.174s0.872,0.768,1.521,0.768c0.656,0,1.161-0.25,1.515-0.75
			s0.53-1.23,0.53-2.191V216.652z"/>
		<path d="M794.845,221.141h-1.477v-8.531h1.477V221.141z"/>
		<path d="M798.149,219.957h3.873v1.184h-5.355v-8.531h1.482V219.957z"/>
		<path d="M811.96,213.805h-2.66v7.336h-1.471v-7.336h-2.637v-1.195h6.768V213.805z"/>
		<path d="M816.214,217.859h-1.652v3.281h-1.482v-8.531h3c0.984,0,1.744,0.221,2.279,0.663s0.803,1.081,0.803,1.918
			c0,0.571-0.138,1.048-0.413,1.434s-0.659,0.681-1.151,0.888l1.916,3.553v0.076h-1.588L816.214,217.859z M814.562,216.664h1.523
			c0.5,0,0.891-0.126,1.172-0.378s0.422-0.597,0.422-1.034c0-0.457-0.13-0.811-0.39-1.061s-0.647-0.379-1.163-0.387h-1.564V216.664z
			"/>
		<path d="M822.132,221.141h-1.477v-8.531h1.477V221.141z"/>
		<path d="M825.437,217.977v3.164h-1.482v-8.531h3.264c0.953,0,1.71,0.249,2.271,0.745s0.841,1.153,0.841,1.971
			c0,0.837-0.274,1.488-0.823,1.954c-0.549,0.465-1.317,0.698-2.306,0.698H825.437z M825.437,216.781h1.781
			c0.527,0,0.93-0.124,1.207-0.372s0.416-0.606,0.416-1.075c0-0.461-0.141-0.829-0.422-1.104s-0.668-0.417-1.16-0.425h-1.822
			V216.781z"/>
		<path d="M784.351,230.943c0-0.375-0.132-0.664-0.396-0.867s-0.739-0.408-1.427-0.615s-1.234-0.438-1.641-0.691
			c-0.777-0.488-1.166-1.125-1.166-1.91c0-0.688,0.28-1.254,0.841-1.699s1.288-0.668,2.183-0.668c0.594,0,1.123,0.109,1.588,0.328
			s0.83,0.53,1.096,0.935s0.398,0.853,0.398,1.345h-1.477c0-0.445-0.14-0.794-0.419-1.046s-0.679-0.378-1.198-0.378
			c-0.484,0-0.86,0.104-1.128,0.311s-0.401,0.496-0.401,0.867c0,0.313,0.145,0.573,0.434,0.782s0.766,0.412,1.43,0.609
			s1.197,0.422,1.6,0.674s0.697,0.541,0.885,0.867s0.281,0.708,0.281,1.146c0,0.711-0.272,1.276-0.817,1.696s-1.284,0.63-2.218,0.63
			c-0.617,0-1.185-0.114-1.702-0.343s-0.92-0.544-1.207-0.946s-0.431-0.871-0.431-1.406h1.482c0,0.484,0.16,0.859,0.48,1.125
			s0.779,0.398,1.377,0.398c0.516,0,0.903-0.104,1.163-0.313S784.351,231.287,784.351,230.943z"/>
		<path d="M793.942,229.098c0,0.836-0.145,1.569-0.434,2.2s-0.702,1.115-1.239,1.453s-1.155,0.507-1.854,0.507
			c-0.691,0-1.308-0.169-1.849-0.507s-0.959-0.819-1.254-1.444s-0.444-1.346-0.448-2.162v-0.48c0-0.832,0.147-1.566,0.442-2.203
			s0.711-1.124,1.248-1.462s1.153-0.507,1.849-0.507s1.312,0.167,1.849,0.501s0.952,0.814,1.245,1.441s0.441,1.356,0.445,2.188
			V229.098z M792.46,228.652c0-0.945-0.179-1.67-0.536-2.174s-0.864-0.756-1.521-0.756c-0.641,0-1.142,0.251-1.503,0.753
			s-0.546,1.212-0.554,2.13v0.492c0,0.938,0.183,1.662,0.548,2.174s0.872,0.768,1.521,0.768c0.656,0,1.161-0.25,1.515-0.75
			s0.53-1.23,0.53-2.191V228.652z"/>
		<path d="M796.901,231.957h3.873v1.184h-5.355v-8.531h1.482V231.957z"/>
		<path d="M806.897,229.332h-3.504v2.625h4.096v1.184h-5.578v-8.531h5.537v1.195h-4.055v2.355h3.504V229.332z"/>
		<path d="M815.464,233.141h-1.482l-3.803-6.053v6.053h-1.482v-8.531h1.482l3.814,6.076v-6.076h1.471V233.141z"/>
		<path d="M824.024,229.098c0,0.836-0.145,1.569-0.434,2.2s-0.702,1.115-1.239,1.453s-1.155,0.507-1.854,0.507
			c-0.691,0-1.308-0.169-1.849-0.507s-0.959-0.819-1.254-1.444s-0.444-1.346-0.448-2.162v-0.48c0-0.832,0.147-1.566,0.442-2.203
			s0.711-1.124,1.248-1.462s1.153-0.507,1.849-0.507s1.312,0.167,1.849,0.501s0.952,0.814,1.245,1.441s0.441,1.356,0.445,2.188
			V229.098z M822.542,228.652c0-0.945-0.179-1.67-0.536-2.174s-0.864-0.756-1.521-0.756c-0.641,0-1.142,0.251-1.503,0.753
			s-0.546,1.212-0.554,2.13v0.492c0,0.938,0.183,1.662,0.548,2.174s0.872,0.768,1.521,0.768c0.656,0,1.161-0.25,1.515-0.75
			s0.53-1.23,0.53-2.191V228.652z"/>
		<path d="M827.065,233.141h-1.477v-8.531h1.477V233.141z"/>
		<path d="M828.888,233.141v-8.531h2.52c0.754,0,1.423,0.168,2.007,0.504s1.036,0.813,1.356,1.43s0.48,1.324,0.48,2.121v0.428
			c0,0.809-0.161,1.52-0.483,2.133s-0.781,1.086-1.377,1.418s-1.278,0.498-2.048,0.498H828.888z M830.37,225.805v6.152h0.967
			c0.777,0,1.374-0.243,1.79-0.729s0.628-1.185,0.636-2.095v-0.475c0-0.926-0.201-1.633-0.604-2.121s-0.986-0.732-1.752-0.732
			H830.37z"/>
	</g>
</g>
<g>
	<g>
		<path d="M706.043,94.323c0,0.836-0.145,1.569-0.434,2.2s-0.702,1.115-1.239,1.453s-1.155,0.507-1.854,0.507
			c-0.691,0-1.308-0.169-1.849-0.507s-0.959-0.819-1.254-1.444s-0.444-1.346-0.448-2.162v-0.48c0-0.832,0.147-1.566,0.442-2.203
			s0.711-1.124,1.248-1.462s1.153-0.507,1.849-0.507s1.312,0.167,1.849,0.501s0.952,0.814,1.245,1.441s0.441,1.356,0.445,2.188
			V94.323z M704.561,93.877c0-0.945-0.179-1.67-0.536-2.174s-0.864-0.756-1.521-0.756c-0.641,0-1.142,0.251-1.503,0.753
			s-0.546,1.212-0.554,2.13v0.492c0,0.938,0.183,1.662,0.548,2.174s0.872,0.768,1.521,0.768c0.656,0,1.161-0.25,1.515-0.75
			s0.53-1.23,0.53-2.191V93.877z"/>
		<path d="M709.084,98.366h-1.477v-8.531h1.477V98.366z"/>
		<path d="M712.389,97.182h3.873v1.184h-5.355v-8.531h1.482V97.182z"/>
		<path d="M720.533,95.084h-1.652v3.281h-1.482v-8.531h3c0.984,0,1.744,0.221,2.279,0.663s0.803,1.081,0.803,1.918
			c0,0.571-0.138,1.048-0.413,1.434s-0.659,0.681-1.151,0.888l1.916,3.553v0.076h-1.588L720.533,95.084z M718.881,93.889h1.523
			c0.5,0,0.891-0.126,1.172-0.378s0.422-0.597,0.422-1.034c0-0.457-0.13-0.811-0.39-1.061s-0.647-0.379-1.163-0.387h-1.564V93.889z"
			/>
		<path d="M729.873,94.557h-3.504v2.625h4.096v1.184h-5.578v-8.531h5.537v1.195h-4.055v2.355h3.504V94.557z"/>
		<path d="M736.131,96.168c0-0.375-0.132-0.664-0.396-0.867s-0.739-0.408-1.427-0.615s-1.234-0.438-1.641-0.691
			c-0.777-0.488-1.166-1.125-1.166-1.91c0-0.688,0.28-1.254,0.841-1.699s1.288-0.668,2.183-0.668c0.594,0,1.123,0.109,1.588,0.328
			s0.83,0.53,1.096,0.935s0.398,0.853,0.398,1.345h-1.477c0-0.445-0.14-0.794-0.419-1.046s-0.679-0.378-1.198-0.378
			c-0.484,0-0.86,0.104-1.128,0.311s-0.401,0.496-0.401,0.867c0,0.313,0.145,0.573,0.434,0.782s0.766,0.412,1.43,0.609
			s1.197,0.422,1.6,0.674s0.697,0.541,0.885,0.867s0.281,0.708,0.281,1.146c0,0.711-0.272,1.276-0.817,1.696s-1.284,0.63-2.218,0.63
			c-0.617,0-1.185-0.114-1.702-0.343s-0.92-0.544-1.207-0.946s-0.431-0.871-0.431-1.406h1.482c0,0.484,0.16,0.859,0.48,1.125
			s0.779,0.398,1.377,0.398c0.516,0,0.903-0.104,1.163-0.313S736.131,96.512,736.131,96.168z"/>
		<path d="M743.9,94.557h-3.504v2.625h4.096v1.184h-5.578v-8.531h5.537v1.195h-4.055v2.355h3.504V94.557z"/>
		<path d="M751.98,91.03h-2.66v7.336h-1.471V91.03h-2.637v-1.195h6.768V91.03z"/>
		<path d="M702.032,108.168c0-0.375-0.132-0.664-0.396-0.867s-0.739-0.408-1.427-0.615s-1.234-0.438-1.641-0.691
			c-0.777-0.488-1.166-1.125-1.166-1.91c0-0.688,0.28-1.254,0.841-1.699s1.288-0.668,2.183-0.668c0.594,0,1.123,0.109,1.588,0.328
			s0.83,0.53,1.096,0.935s0.398,0.853,0.398,1.345h-1.477c0-0.445-0.14-0.794-0.419-1.046s-0.679-0.378-1.198-0.378
			c-0.484,0-0.86,0.104-1.128,0.311s-0.401,0.496-0.401,0.867c0,0.313,0.145,0.573,0.434,0.782s0.766,0.412,1.43,0.609
			s1.197,0.422,1.6,0.674s0.697,0.541,0.885,0.867s0.281,0.708,0.281,1.146c0,0.711-0.272,1.276-0.817,1.696s-1.284,0.63-2.218,0.63
			c-0.617,0-1.185-0.114-1.702-0.343s-0.92-0.544-1.207-0.946s-0.431-0.871-0.431-1.406h1.482c0,0.484,0.16,0.859,0.48,1.125
			s0.779,0.398,1.377,0.398c0.516,0,0.903-0.104,1.163-0.313S702.032,108.512,702.032,108.168z"/>
		<path d="M711.624,106.323c0,0.836-0.145,1.569-0.434,2.2s-0.702,1.115-1.239,1.453s-1.155,0.507-1.854,0.507
			c-0.691,0-1.308-0.169-1.849-0.507s-0.959-0.819-1.254-1.444s-0.444-1.346-0.448-2.162v-0.48c0-0.832,0.147-1.566,0.442-2.203
			s0.711-1.124,1.248-1.462s1.153-0.507,1.849-0.507s1.312,0.167,1.849,0.501s0.952,0.814,1.245,1.441s0.441,1.356,0.445,2.188
			V106.323z M710.142,105.877c0-0.945-0.179-1.67-0.536-2.174s-0.864-0.756-1.521-0.756c-0.641,0-1.142,0.251-1.503,0.753
			s-0.546,1.212-0.554,2.13v0.492c0,0.938,0.183,1.662,0.548,2.174s0.872,0.768,1.521,0.768c0.656,0,1.161-0.25,1.515-0.75
			s0.53-1.23,0.53-2.191V105.877z"/>
		<path d="M714.583,109.182h3.873v1.184h-5.355v-8.531h1.482V109.182z"/>
		<path d="M724.579,106.557h-3.504v2.625h4.096v1.184h-5.578v-8.531h5.537v1.195h-4.055v2.355h3.504V106.557z"/>
		<path d="M733.146,110.366h-1.482l-3.803-6.053v6.053h-1.482v-8.531h1.482l3.814,6.076v-6.076h1.471V110.366z"/>
		<path d="M741.706,106.323c0,0.836-0.145,1.569-0.434,2.2s-0.702,1.115-1.239,1.453s-1.155,0.507-1.854,0.507
			c-0.691,0-1.308-0.169-1.849-0.507s-0.959-0.819-1.254-1.444s-0.444-1.346-0.448-2.162v-0.48c0-0.832,0.147-1.566,0.442-2.203
			s0.711-1.124,1.248-1.462s1.153-0.507,1.849-0.507s1.312,0.167,1.849,0.501s0.952,0.814,1.245,1.441s0.441,1.356,0.445,2.188
			V106.323z M740.224,105.877c0-0.945-0.179-1.67-0.536-2.174s-0.864-0.756-1.521-0.756c-0.641,0-1.142,0.251-1.503,0.753
			s-0.546,1.212-0.554,2.13v0.492c0,0.938,0.183,1.662,0.548,2.174s0.872,0.768,1.521,0.768c0.656,0,1.161-0.25,1.515-0.75
			s0.53-1.23,0.53-2.191V105.877z"/>
		<path d="M744.747,110.366h-1.477v-8.531h1.477V110.366z"/>
		<path d="M746.569,110.366v-8.531h2.52c0.754,0,1.423,0.168,2.007,0.504s1.036,0.813,1.356,1.43s0.48,1.324,0.48,2.121v0.428
			c0,0.809-0.161,1.52-0.483,2.133s-0.781,1.086-1.377,1.418s-1.278,0.498-2.048,0.498H746.569z M748.052,103.03v6.152h0.967
			c0.777,0,1.374-0.243,1.79-0.729s0.628-1.185,0.636-2.095v-0.475c0-0.926-0.201-1.633-0.604-2.121s-0.986-0.732-1.752-0.732
			H748.052z"/>
	</g>
</g>
<g>
	<g>
		<path d="M565.75,95.084h-1.652v3.281h-1.482v-8.531h3c0.984,0,1.744,0.221,2.279,0.663s0.803,1.081,0.803,1.918
			c0,0.571-0.139,1.048-0.414,1.434s-0.658,0.681-1.15,0.888l1.916,3.553v0.076h-1.588L565.75,95.084z M564.098,93.889h1.523
			c0.5,0,0.891-0.126,1.172-0.378s0.422-0.597,0.422-1.034c0-0.457-0.131-0.811-0.391-1.061s-0.646-0.379-1.162-0.387h-1.564V93.889
			z"/>
		<path d="M575.09,94.557h-3.504v2.625h4.096v1.184h-5.578v-8.531h5.537v1.195h-4.055v2.355h3.504V94.557z"/>
		<path d="M581.348,96.168c0-0.375-0.133-0.664-0.396-0.867s-0.738-0.408-1.426-0.615s-1.234-0.438-1.641-0.691
			c-0.777-0.488-1.166-1.125-1.166-1.91c0-0.688,0.279-1.254,0.84-1.699s1.289-0.668,2.184-0.668c0.594,0,1.123,0.109,1.588,0.328
			s0.83,0.53,1.096,0.935s0.398,0.853,0.398,1.345h-1.477c0-0.445-0.141-0.794-0.42-1.046s-0.678-0.378-1.197-0.378
			c-0.484,0-0.861,0.104-1.129,0.311s-0.4,0.496-0.4,0.867c0,0.313,0.145,0.573,0.434,0.782s0.766,0.412,1.43,0.609
			s1.197,0.422,1.6,0.674s0.697,0.541,0.885,0.867s0.281,0.708,0.281,1.146c0,0.711-0.273,1.276-0.818,1.696s-1.283,0.63-2.217,0.63
			c-0.617,0-1.186-0.114-1.703-0.343s-0.92-0.544-1.207-0.946s-0.43-0.871-0.43-1.406h1.482c0,0.484,0.16,0.859,0.48,1.125
			s0.779,0.398,1.377,0.398c0.516,0,0.902-0.104,1.162-0.313S581.348,96.512,581.348,96.168z"/>
		<path d="M589.117,94.557h-3.504v2.625h4.096v1.184h-5.578v-8.531h5.537v1.195h-4.055v2.355h3.504V94.557z"/>
		<path d="M597.197,91.03h-2.66v7.336h-1.471V91.03h-2.637v-1.195h6.768V91.03z"/>
		<path d="M560.66,107.202v3.164h-1.482v-8.531h3.264c0.953,0,1.711,0.249,2.271,0.745s0.84,1.153,0.84,1.971
			c0,0.837-0.273,1.488-0.822,1.954c-0.549,0.465-1.318,0.698-2.307,0.698H560.66z M560.66,106.006h1.781
			c0.527,0,0.93-0.124,1.207-0.372s0.416-0.606,0.416-1.075c0-0.461-0.141-0.829-0.422-1.104s-0.668-0.417-1.16-0.425h-1.822
			V106.006z"/>
		<path d="M568.412,110.366h-1.477v-8.531h1.477V110.366z"/>
		<path d="M574.693,108.168c0-0.375-0.131-0.664-0.395-0.867s-0.74-0.408-1.428-0.615s-1.234-0.438-1.641-0.691
			c-0.777-0.488-1.166-1.125-1.166-1.91c0-0.688,0.281-1.254,0.842-1.699s1.287-0.668,2.182-0.668c0.594,0,1.123,0.109,1.588,0.328
			s0.83,0.53,1.096,0.935s0.398,0.853,0.398,1.345h-1.477c0-0.445-0.139-0.794-0.418-1.046s-0.68-0.378-1.199-0.378
			c-0.484,0-0.859,0.104-1.127,0.311s-0.402,0.496-0.402,0.867c0,0.313,0.145,0.573,0.434,0.782s0.766,0.412,1.43,0.609
			s1.197,0.422,1.6,0.674s0.697,0.541,0.885,0.867s0.281,0.708,0.281,1.146c0,0.711-0.271,1.276-0.816,1.696s-1.285,0.63-2.219,0.63
			c-0.617,0-1.184-0.114-1.701-0.343s-0.92-0.544-1.207-0.946s-0.432-0.871-0.432-1.406h1.482c0,0.484,0.16,0.859,0.48,1.125
			s0.779,0.398,1.377,0.398c0.516,0,0.904-0.104,1.164-0.313S574.693,108.512,574.693,108.168z"/>
		<path d="M583.641,103.03h-2.66v7.336h-1.471v-7.336h-2.637v-1.195h6.768V103.03z"/>
		<path d="M591.404,106.323c0,0.836-0.145,1.569-0.434,2.2s-0.701,1.115-1.238,1.453s-1.156,0.507-1.855,0.507
			c-0.691,0-1.307-0.169-1.848-0.507s-0.959-0.819-1.254-1.444s-0.445-1.346-0.449-2.162v-0.48c0-0.832,0.148-1.566,0.443-2.203
			s0.711-1.124,1.248-1.462s1.152-0.507,1.848-0.507s1.313,0.167,1.85,0.501s0.951,0.814,1.244,1.441s0.441,1.356,0.445,2.188
			V106.323z M589.922,105.877c0-0.945-0.178-1.67-0.535-2.174s-0.865-0.756-1.521-0.756c-0.641,0-1.141,0.251-1.502,0.753
			s-0.547,1.212-0.555,2.13v0.492c0,0.938,0.184,1.662,0.549,2.174s0.871,0.768,1.52,0.768c0.656,0,1.162-0.25,1.516-0.75
			s0.529-1.23,0.529-2.191V105.877z"/>
		<path d="M599.648,110.366h-1.482l-3.803-6.053v6.053h-1.482v-8.531h1.482l3.814,6.076v-6.076h1.471V110.366z"/>
	</g>
</g>
<g>
	<g>
		<path d="M249.043,279.645l2.461,6.539l2.455-6.539h1.916v8.531h-1.477v-2.813l0.146-3.762l-2.52,6.574h-1.061l-2.514-6.568
			l0.146,3.756v2.813h-1.477v-8.531H249.043z"/>
		<path d="M262.614,284.368h-3.504v2.625h4.096v1.184h-5.578v-8.531h5.537v1.195h-4.055v2.355h3.504V284.368z"/>
		<path d="M270.922,285.399c-0.086,0.91-0.422,1.62-1.008,2.13s-1.365,0.765-2.338,0.765c-0.68,0-1.278-0.161-1.796-0.483
			s-0.917-0.78-1.198-1.374s-0.428-1.283-0.439-2.068v-0.797c0-0.805,0.143-1.514,0.428-2.127s0.694-1.086,1.228-1.418
			s1.149-0.498,1.849-0.498c0.941,0,1.699,0.255,2.273,0.765s0.908,1.231,1.002,2.165h-1.477c-0.07-0.613-0.249-1.056-0.536-1.327
			s-0.708-0.407-1.263-0.407c-0.645,0-1.14,0.235-1.485,0.707s-0.522,1.163-0.53,2.073v0.757c0,0.922,0.165,1.626,0.495,2.111
			s0.813,0.727,1.45,0.727c0.582,0,1.02-0.131,1.313-0.393s0.479-0.697,0.557-1.307H270.922z"/>
		<path d="M279.02,288.176h-1.477v-3.785h-3.814v3.785h-1.482v-8.531h1.482v3.551h3.814v-3.551h1.477V288.176z"/>
		<path d="M285.653,286.19h-3.305l-0.691,1.986h-1.541l3.223-8.531h1.33l3.229,8.531h-1.547L285.653,286.19z M282.764,284.995h2.473
			L284,281.456L282.764,284.995z"/>
		<path d="M295.631,288.176h-1.482l-3.803-6.053v6.053h-1.482v-8.531h1.482l3.814,6.076v-6.076h1.471V288.176z"/>
		<path d="M298.948,288.176h-1.477v-8.531h1.477V288.176z"/>
		<path d="M307.28,285.399c-0.086,0.91-0.422,1.62-1.008,2.13s-1.365,0.765-2.338,0.765c-0.68,0-1.278-0.161-1.796-0.483
			s-0.917-0.78-1.198-1.374s-0.428-1.283-0.439-2.068v-0.797c0-0.805,0.143-1.514,0.428-2.127s0.694-1.086,1.228-1.418
			s1.149-0.498,1.849-0.498c0.941,0,1.699,0.255,2.273,0.765s0.908,1.231,1.002,2.165h-1.477c-0.07-0.613-0.249-1.056-0.536-1.327
			s-0.708-0.407-1.263-0.407c-0.645,0-1.14,0.235-1.485,0.707s-0.522,1.163-0.53,2.073v0.757c0,0.922,0.165,1.626,0.495,2.111
			s0.813,0.727,1.45,0.727c0.582,0,1.02-0.131,1.313-0.393s0.479-0.697,0.557-1.307H307.28z"/>
		<path d="M313.379,286.19h-3.305l-0.691,1.986h-1.541l3.223-8.531h1.33l3.229,8.531h-1.547L313.379,286.19z M310.491,284.995h2.473
			l-1.236-3.539L310.491,284.995z"/>
		<path d="M318.073,286.993h3.873v1.184h-5.355v-8.531h1.482V286.993z"/>
		<path d="M278.352,292.84h-2.66v7.336h-1.471v-7.336h-2.637v-1.195h6.768V292.84z"/>
		<path d="M282.606,296.895h-1.652v3.281h-1.482v-8.531h3c0.984,0,1.744,0.221,2.279,0.663s0.803,1.081,0.803,1.918
			c0,0.571-0.138,1.048-0.413,1.434s-0.659,0.681-1.151,0.888l1.916,3.553v0.076h-1.588L282.606,296.895z M280.954,295.7h1.523
			c0.5,0,0.891-0.126,1.172-0.378s0.422-0.597,0.422-1.034c0-0.457-0.13-0.811-0.39-1.061s-0.647-0.379-1.163-0.387h-1.564V295.7z"
			/>
		<path d="M288.524,300.176h-1.477v-8.531h1.477V300.176z"/>
		<path d="M291.829,297.012v3.164h-1.482v-8.531h3.264c0.953,0,1.71,0.249,2.271,0.745s0.841,1.153,0.841,1.971
			c0,0.837-0.274,1.488-0.823,1.954c-0.549,0.465-1.317,0.698-2.306,0.698H291.829z M291.829,295.817h1.781
			c0.527,0,0.93-0.124,1.207-0.372s0.416-0.606,0.416-1.075c0-0.461-0.141-0.829-0.422-1.104s-0.668-0.417-1.16-0.425h-1.822
			V295.817z"/>
	</g>
</g>
<g>
	<g>
		<path d="M244.022,447.276h-3.504v2.625h4.096v1.184h-5.578v-8.531h5.537v1.195h-4.055v2.355h3.504V447.276z"/>
		<path d="M247.304,449.901h3.873v1.184h-5.355v-8.531h1.482V449.901z"/>
		<path d="M257.3,447.276h-3.504v2.625h4.096v1.184h-5.578v-8.531h5.537v1.195h-4.055v2.355h3.504V447.276z"/>
		<path d="M265.608,448.308c-0.086,0.91-0.422,1.62-1.008,2.13s-1.365,0.765-2.338,0.765c-0.68,0-1.278-0.161-1.796-0.483
			s-0.917-0.78-1.198-1.374s-0.428-1.283-0.439-2.068v-0.797c0-0.805,0.143-1.514,0.428-2.127s0.694-1.086,1.228-1.418
			s1.149-0.498,1.849-0.498c0.941,0,1.699,0.255,2.273,0.765s0.908,1.231,1.002,2.165h-1.477c-0.07-0.613-0.249-1.056-0.536-1.327
			s-0.708-0.407-1.263-0.407c-0.645,0-1.14,0.235-1.485,0.706c-0.346,0.472-0.522,1.163-0.53,2.074v0.756
			c0,0.923,0.165,1.627,0.495,2.111c0.33,0.485,0.813,0.728,1.45,0.728c0.582,0,1.02-0.131,1.313-0.393s0.479-0.697,0.557-1.307
			H265.608z"/>
		<path d="M272.927,443.749h-2.66v7.336h-1.471v-7.336h-2.637v-1.195h6.768V443.749z"/>
		<path d="M277.181,447.804h-1.652v3.281h-1.482v-8.531h3c0.984,0,1.744,0.221,2.279,0.663c0.535,0.441,0.803,1.08,0.803,1.918
			c0,0.57-0.138,1.048-0.413,1.434c-0.275,0.385-0.659,0.681-1.151,0.888l1.916,3.553v0.076h-1.588L277.181,447.804z
			 M275.528,446.608h1.523c0.5,0,0.891-0.126,1.172-0.378s0.422-0.597,0.422-1.034c0-0.457-0.13-0.811-0.39-1.061
			s-0.647-0.379-1.163-0.387h-1.564V446.608z"/>
		<path d="M283.099,451.085h-1.477v-8.531h1.477V451.085z"/>
		<path d="M291.431,448.308c-0.086,0.91-0.422,1.62-1.008,2.13s-1.365,0.765-2.338,0.765c-0.68,0-1.278-0.161-1.796-0.483
			s-0.917-0.78-1.198-1.374s-0.428-1.283-0.439-2.068v-0.797c0-0.805,0.143-1.514,0.428-2.127s0.694-1.086,1.228-1.418
			s1.149-0.498,1.849-0.498c0.941,0,1.699,0.255,2.273,0.765s0.908,1.231,1.002,2.165h-1.477c-0.07-0.613-0.249-1.056-0.536-1.327
			s-0.708-0.407-1.263-0.407c-0.645,0-1.14,0.235-1.485,0.706c-0.346,0.472-0.522,1.163-0.53,2.074v0.756
			c0,0.923,0.165,1.627,0.495,2.111c0.33,0.485,0.813,0.728,1.45,0.728c0.582,0,1.02-0.131,1.313-0.393s0.479-0.697,0.557-1.307
			H291.431z"/>
		<path d="M297.53,449.099h-3.305l-0.691,1.986h-1.541l3.223-8.531h1.33l3.229,8.531h-1.547L297.53,449.099z M294.642,447.903h2.473
			l-1.236-3.539L294.642,447.903z"/>
		<path d="M302.224,449.901h3.873v1.184h-5.355v-8.531h1.482V449.901z"/>
		<path d="M266.385,455.749h-2.66v7.336h-1.471v-7.336h-2.637v-1.195h6.768V455.749z"/>
		<path d="M270.639,459.804h-1.652v3.281h-1.482v-8.531h3c0.984,0,1.744,0.221,2.279,0.663c0.535,0.441,0.803,1.08,0.803,1.918
			c0,0.57-0.138,1.048-0.413,1.434c-0.275,0.385-0.659,0.681-1.151,0.888l1.916,3.553v0.076h-1.588L270.639,459.804z
			 M268.986,458.608h1.523c0.5,0,0.891-0.126,1.172-0.378s0.422-0.597,0.422-1.034c0-0.457-0.13-0.811-0.39-1.061
			s-0.647-0.379-1.163-0.387h-1.564V458.608z"/>
		<path d="M276.557,463.085h-1.477v-8.531h1.477V463.085z"/>
		<path d="M279.861,459.921v3.164h-1.482v-8.531h3.264c0.953,0,1.71,0.249,2.271,0.745s0.841,1.153,0.841,1.971
			c0,0.837-0.274,1.488-0.823,1.953c-0.549,0.466-1.317,0.698-2.306,0.698H279.861z M279.861,458.726h1.781
			c0.527,0,0.93-0.124,1.207-0.372s0.416-0.606,0.416-1.075c0-0.461-0.141-0.829-0.422-1.104s-0.668-0.417-1.16-0.425h-1.822
			V458.726z"/>
	</g>
</g>
<g>
	<g>
		<path d="M104.947,371.214l2.461,6.539l2.455-6.539h1.916v8.531h-1.477v-2.813l0.146-3.762l-2.52,6.574h-1.061l-2.514-6.568
			l0.146,3.756v2.813h-1.477v-8.531H104.947z"/>
		<path d="M118.517,375.937h-3.504v2.625h4.096v1.184h-5.578v-8.531h5.537v1.195h-4.055v2.355h3.504V375.937z"/>
		<path d="M126.826,376.968c-0.086,0.91-0.422,1.62-1.008,2.13s-1.365,0.765-2.338,0.765c-0.68,0-1.278-0.161-1.796-0.483
			s-0.917-0.78-1.198-1.374s-0.428-1.283-0.439-2.068v-0.797c0-0.805,0.143-1.514,0.428-2.127s0.694-1.086,1.228-1.418
			s1.149-0.498,1.849-0.498c0.941,0,1.699,0.255,2.273,0.765s0.908,1.231,1.002,2.165h-1.477c-0.07-0.613-0.249-1.056-0.536-1.327
			s-0.708-0.407-1.263-0.407c-0.645,0-1.14,0.235-1.485,0.706c-0.346,0.472-0.522,1.163-0.53,2.074v0.756
			c0,0.923,0.165,1.627,0.495,2.111c0.33,0.485,0.813,0.728,1.45,0.728c0.582,0,1.02-0.131,1.313-0.393s0.479-0.697,0.557-1.307
			H126.826z"/>
		<path d="M134.923,379.745h-1.477v-3.785h-3.814v3.785h-1.482v-8.531h1.482v3.551h3.814v-3.551h1.477V379.745z"/>
		<path d="M141.146,378.562h3.873v1.184h-5.355v-8.531h1.482V378.562z"/>
		<path d="M152.589,375.702c0,0.836-0.145,1.569-0.434,2.2s-0.702,1.115-1.239,1.453s-1.155,0.507-1.854,0.507
			c-0.691,0-1.308-0.169-1.849-0.507s-0.959-0.819-1.254-1.444s-0.444-1.346-0.448-2.162v-0.48c0-0.832,0.147-1.566,0.442-2.203
			s0.711-1.124,1.248-1.462s1.153-0.507,1.849-0.507s1.312,0.167,1.849,0.501s0.952,0.814,1.245,1.441s0.441,1.356,0.445,2.188
			V375.702z M151.107,375.257c0-0.945-0.179-1.67-0.536-2.174s-0.864-0.756-1.521-0.756c-0.641,0-1.142,0.251-1.503,0.753
			s-0.546,1.212-0.554,2.13v0.492c0,0.938,0.183,1.662,0.548,2.174s0.872,0.768,1.521,0.768c0.656,0,1.161-0.25,1.515-0.75
			s0.53-1.23,0.53-2.191V375.257z"/>
		<path d="M160.576,376.968c-0.086,0.91-0.422,1.62-1.008,2.13s-1.365,0.765-2.338,0.765c-0.68,0-1.278-0.161-1.796-0.483
			s-0.917-0.78-1.198-1.374s-0.428-1.283-0.439-2.068v-0.797c0-0.805,0.143-1.514,0.428-2.127s0.694-1.086,1.228-1.418
			s1.149-0.498,1.849-0.498c0.941,0,1.699,0.255,2.273,0.765s0.908,1.231,1.002,2.165h-1.477c-0.07-0.613-0.249-1.056-0.536-1.327
			s-0.708-0.407-1.263-0.407c-0.645,0-1.14,0.235-1.485,0.706c-0.346,0.472-0.522,1.163-0.53,2.074v0.756
			c0,0.923,0.165,1.627,0.495,2.111c0.33,0.485,0.813,0.728,1.45,0.728c0.582,0,1.02-0.131,1.313-0.393s0.479-0.697,0.557-1.307
			H160.576z"/>
		<path d="M164.349,376.06l-0.967,1.025v2.66H161.9v-8.531h1.482v4.002l0.82-1.014l2.496-2.988h1.793l-3.17,3.779l3.352,4.752
			h-1.758L164.349,376.06z"/>
		<path d="M176.091,375.702c0,0.836-0.145,1.569-0.434,2.2s-0.702,1.115-1.239,1.453s-1.155,0.507-1.854,0.507
			c-0.691,0-1.308-0.169-1.849-0.507s-0.959-0.819-1.254-1.444s-0.444-1.346-0.448-2.162v-0.48c0-0.832,0.147-1.566,0.442-2.203
			s0.711-1.124,1.248-1.462s1.153-0.507,1.849-0.507s1.312,0.167,1.849,0.501s0.952,0.814,1.245,1.441s0.441,1.356,0.445,2.188
			V375.702z M174.609,375.257c0-0.945-0.179-1.67-0.536-2.174s-0.864-0.756-1.521-0.756c-0.641,0-1.142,0.251-1.503,0.753
			s-0.546,1.212-0.554,2.13v0.492c0,0.938,0.183,1.662,0.548,2.174s0.872,0.768,1.521,0.768c0.656,0,1.161-0.25,1.515-0.75
			s0.53-1.23,0.53-2.191V375.257z"/>
		<path d="M183.808,371.214v5.701c0,0.906-0.29,1.624-0.87,2.153s-1.353,0.794-2.317,0.794c-0.977,0-1.752-0.261-2.326-0.782
			s-0.861-1.245-0.861-2.171v-5.695h1.477v5.707c0,0.57,0.145,1.006,0.434,1.307s0.715,0.451,1.277,0.451
			c1.141,0,1.711-0.602,1.711-1.805v-5.66H183.808z"/>
		<path d="M191.554,372.409h-2.66v7.336h-1.471v-7.336h-2.637v-1.195h6.768V372.409z"/>
	</g>
</g>
<g>
	<g>
		<path d="M110.888,533.036h-3.504v2.625h4.096v1.184h-5.578v-8.531h5.537v1.195h-4.055v2.355h3.504V533.036z"/>
		<path d="M114.169,535.661h3.873v1.184h-5.355v-8.531h1.482V535.661z"/>
		<path d="M124.166,533.036h-3.504v2.625h4.096v1.184h-5.578v-8.531h5.537v1.195h-4.055v2.355h3.504V533.036z"/>
		<path d="M132.474,534.067c-0.086,0.91-0.422,1.62-1.008,2.13s-1.365,0.765-2.338,0.765c-0.68,0-1.278-0.161-1.796-0.483
			s-0.917-0.78-1.198-1.374s-0.428-1.283-0.439-2.068v-0.797c0-0.805,0.143-1.514,0.428-2.127s0.694-1.086,1.228-1.418
			s1.149-0.498,1.849-0.498c0.941,0,1.699,0.255,2.273,0.765s0.908,1.231,1.002,2.165h-1.477c-0.07-0.613-0.249-1.056-0.536-1.327
			s-0.708-0.407-1.263-0.407c-0.645,0-1.14,0.235-1.485,0.706c-0.346,0.472-0.522,1.163-0.53,2.074v0.756
			c0,0.923,0.165,1.627,0.495,2.111c0.33,0.485,0.813,0.728,1.45,0.728c0.582,0,1.02-0.131,1.313-0.393s0.479-0.697,0.557-1.307
			H132.474z"/>
		<path d="M138.269,535.661h3.873v1.184h-5.355v-8.531h1.482V535.661z"/>
		<path d="M149.712,532.802c0,0.836-0.145,1.569-0.434,2.2s-0.702,1.115-1.239,1.453s-1.155,0.507-1.854,0.507
			c-0.691,0-1.308-0.169-1.849-0.507s-0.959-0.819-1.254-1.444s-0.444-1.346-0.448-2.162v-0.48c0-0.832,0.147-1.566,0.442-2.203
			s0.711-1.124,1.248-1.462s1.153-0.507,1.849-0.507s1.312,0.167,1.849,0.501s0.952,0.814,1.245,1.441s0.441,1.356,0.445,2.188
			V532.802z M148.23,532.356c0-0.945-0.179-1.67-0.536-2.174s-0.864-0.756-1.521-0.756c-0.641,0-1.142,0.251-1.503,0.753
			s-0.546,1.212-0.554,2.13v0.492c0,0.938,0.183,1.662,0.548,2.174s0.872,0.768,1.521,0.768c0.656,0,1.161-0.25,1.515-0.75
			s0.53-1.23,0.53-2.191V532.356z"/>
		<path d="M157.699,534.067c-0.086,0.91-0.422,1.62-1.008,2.13s-1.365,0.765-2.338,0.765c-0.68,0-1.278-0.161-1.796-0.483
			s-0.917-0.78-1.198-1.374s-0.428-1.283-0.439-2.068v-0.797c0-0.805,0.143-1.514,0.428-2.127s0.694-1.086,1.228-1.418
			s1.149-0.498,1.849-0.498c0.941,0,1.699,0.255,2.273,0.765s0.908,1.231,1.002,2.165h-1.477c-0.07-0.613-0.249-1.056-0.536-1.327
			s-0.708-0.407-1.263-0.407c-0.645,0-1.14,0.235-1.485,0.706c-0.346,0.472-0.522,1.163-0.53,2.074v0.756
			c0,0.923,0.165,1.627,0.495,2.111c0.33,0.485,0.813,0.728,1.45,0.728c0.582,0,1.02-0.131,1.313-0.393s0.479-0.697,0.557-1.307
			H157.699z"/>
		<path d="M161.472,533.159l-0.967,1.025v2.66h-1.482v-8.531h1.482v4.002l0.82-1.014l2.496-2.988h1.793l-3.17,3.779l3.352,4.752
			h-1.758L161.472,533.159z"/>
		<path d="M173.214,532.802c0,0.836-0.145,1.569-0.434,2.2s-0.702,1.115-1.239,1.453s-1.155,0.507-1.854,0.507
			c-0.691,0-1.308-0.169-1.849-0.507s-0.959-0.819-1.254-1.444s-0.444-1.346-0.448-2.162v-0.48c0-0.832,0.147-1.566,0.442-2.203
			s0.711-1.124,1.248-1.462s1.153-0.507,1.849-0.507s1.312,0.167,1.849,0.501s0.952,0.814,1.245,1.441s0.441,1.356,0.445,2.188
			V532.802z M171.732,532.356c0-0.945-0.179-1.67-0.536-2.174s-0.864-0.756-1.521-0.756c-0.641,0-1.142,0.251-1.503,0.753
			s-0.546,1.212-0.554,2.13v0.492c0,0.938,0.183,1.662,0.548,2.174s0.872,0.768,1.521,0.768c0.656,0,1.161-0.25,1.515-0.75
			s0.53-1.23,0.53-2.191V532.356z"/>
		<path d="M180.931,528.313v5.701c0,0.906-0.29,1.624-0.87,2.153s-1.353,0.794-2.317,0.794c-0.977,0-1.752-0.261-2.326-0.782
			s-0.861-1.245-0.861-2.171v-5.695h1.477v5.707c0,0.57,0.145,1.006,0.434,1.307s0.715,0.451,1.277,0.451
			c1.141,0,1.711-0.602,1.711-1.805v-5.66H180.931z"/>
		<path d="M188.677,529.509h-2.66v7.336h-1.471v-7.336h-2.637v-1.195h6.768V529.509z"/>
	</g>
</g>
<g>
	<g>
		<path d="M205.003,52.894h-1.477v-3.785h-3.814v3.785h-1.482v-8.531h1.482v3.551h3.814v-3.551h1.477V52.894z"/>
		<path d="M209.374,48.406l1.963-4.043h1.641l-2.859,5.391v3.141h-1.488v-3.141l-2.865-5.391h1.646L209.374,48.406z"/>
		<path d="M213.903,52.894v-8.531h2.52c0.754,0,1.423,0.168,2.007,0.504s1.036,0.813,1.356,1.43s0.48,1.324,0.48,2.121v0.428
			c0,0.809-0.161,1.52-0.483,2.133s-0.781,1.086-1.377,1.418s-1.278,0.498-2.048,0.498H213.903z M215.386,45.558v6.152h0.967
			c0.777,0,1.374-0.243,1.79-0.729s0.628-1.185,0.636-2.095v-0.475c0-0.926-0.201-1.633-0.604-2.121s-0.986-0.732-1.752-0.732
			H215.386z"/>
		<path d="M224.878,49.613h-1.652v3.281h-1.482v-8.531h3c0.984,0,1.744,0.221,2.279,0.663s0.803,1.081,0.803,1.918
			c0,0.571-0.138,1.048-0.413,1.434s-0.659,0.681-1.151,0.888l1.916,3.553v0.076h-1.588L224.878,49.613z M223.226,48.417h1.523
			c0.5,0,0.891-0.126,1.172-0.378s0.422-0.597,0.422-1.034c0-0.457-0.13-0.811-0.39-1.061s-0.647-0.379-1.163-0.387h-1.564V48.417z"
			/>
		<path d="M234.007,50.908h-3.305l-0.691,1.986h-1.541l3.223-8.531h1.33l3.229,8.531h-1.547L234.007,50.908z M231.118,49.712h2.473
			l-1.236-3.539L231.118,49.712z"/>
		<path d="M243.358,44.363v5.701c0,0.906-0.29,1.624-0.87,2.153s-1.353,0.794-2.317,0.794c-0.977,0-1.752-0.261-2.326-0.782
			s-0.861-1.245-0.861-2.171v-5.695h1.477v5.707c0,0.57,0.145,1.006,0.434,1.307s0.715,0.451,1.277,0.451
			c1.141,0,1.711-0.602,1.711-1.805v-5.66H243.358z"/>
		<path d="M246.423,51.71h3.873v1.184h-5.355v-8.531h1.482V51.71z"/>
		<path d="M252.997,52.894h-1.477v-8.531h1.477V52.894z"/>
		<path d="M261.329,50.117c-0.086,0.91-0.422,1.62-1.008,2.13s-1.365,0.765-2.338,0.765c-0.68,0-1.278-0.161-1.796-0.483
			s-0.917-0.78-1.198-1.374s-0.428-1.283-0.439-2.068v-0.797c0-0.805,0.143-1.514,0.428-2.127s0.694-1.086,1.228-1.418
			s1.149-0.498,1.849-0.498c0.941,0,1.699,0.255,2.273,0.765s0.908,1.231,1.002,2.165h-1.477c-0.07-0.613-0.249-1.056-0.536-1.327
			s-0.708-0.407-1.263-0.407c-0.645,0-1.14,0.235-1.485,0.707s-0.522,1.163-0.53,2.073v0.757c0,0.922,0.165,1.626,0.495,2.111
			s0.813,0.727,1.45,0.727c0.582,0,1.02-0.131,1.313-0.393s0.479-0.697,0.557-1.307H261.329z"/>
		<path d="M219.361,61.279h-3.434v3.615h-1.482v-8.531h5.42v1.195h-3.938v2.537h3.434V61.279z"/>
		<path d="M222.52,63.71h3.873v1.184h-5.355v-8.531h1.482V63.71z"/>
		<path d="M233.629,56.363v5.701c0,0.906-0.29,1.624-0.87,2.153s-1.353,0.794-2.317,0.794c-0.977,0-1.752-0.261-2.326-0.782
			s-0.861-1.245-0.861-2.171v-5.695h1.477v5.707c0,0.57,0.145,1.006,0.434,1.307s0.715,0.451,1.277,0.451
			c1.141,0,1.711-0.602,1.711-1.805v-5.66H233.629z"/>
		<path d="M236.775,64.894h-1.477v-8.531h1.477V64.894z"/>
		<path d="M238.598,64.894v-8.531h2.52c0.754,0,1.423,0.168,2.007,0.504s1.036,0.813,1.356,1.43s0.48,1.324,0.48,2.121v0.428
			c0,0.809-0.161,1.52-0.483,2.133s-0.781,1.086-1.377,1.418s-1.278,0.498-2.048,0.498H238.598z M240.08,57.558v6.152h0.967
			c0.777,0,1.374-0.243,1.79-0.729s0.628-1.185,0.636-2.095v-0.475c0-0.926-0.201-1.633-0.604-2.121s-0.986-0.732-1.752-0.732
			H240.08z"/>
	</g>
</g>
<g>
	<path fill="none" stroke="#000000" stroke-width="2" stroke-miterlimit="10" d="M229.432,132.509"/>
	<path fill="none" stroke="#000000" stroke-width="2" stroke-miterlimit="10" d="M260.165,132.509"/>
	<polygon fill="none" stroke="#000000" stroke-width="2" stroke-miterlimit="10" points="260.067,71.387 198.983,71.387 
		229.52,132.509 	"/>
</g>
<g>
	<g>
		<path d="M927.674,112.303h3.873v1.184h-5.355v-8.531h1.482V112.303z"/>
		<path d="M938.783,104.956v5.701c0,0.906-0.291,1.624-0.871,2.153s-1.352,0.794-2.316,0.794c-0.977,0-1.752-0.261-2.326-0.782
			s-0.861-1.245-0.861-2.171v-5.695h1.477v5.707c0,0.57,0.145,1.006,0.434,1.307s0.715,0.451,1.277,0.451
			c1.141,0,1.711-0.602,1.711-1.805v-5.66H938.783z"/>
		<path d="M940.365,113.487v-8.531h2.924c0.965,0,1.699,0.193,2.203,0.58s0.756,0.963,0.756,1.729c0,0.391-0.105,0.742-0.316,1.055
			s-0.52,0.555-0.926,0.727c0.461,0.125,0.816,0.36,1.068,0.706s0.379,0.761,0.379,1.245c0,0.801-0.258,1.416-0.771,1.846
			s-1.248,0.645-2.205,0.645H940.365z M941.848,108.547h1.453c0.461,0,0.82-0.104,1.08-0.313s0.391-0.505,0.391-0.888
			c0-0.422-0.121-0.727-0.361-0.914s-0.613-0.281-1.121-0.281h-1.441V108.547z M941.848,109.637v2.666h1.646
			c0.465,0,0.828-0.115,1.09-0.346s0.393-0.551,0.393-0.961c0-0.887-0.453-1.34-1.359-1.359H941.848z"/>
		<path d="M952.922,109.678h-3.504v2.625h4.096v1.184h-5.578v-8.531h5.537v1.195h-4.055v2.355h3.504V109.678z"/>
		<path d="M964.518,109.444c0,0.836-0.145,1.569-0.434,2.2s-0.703,1.115-1.24,1.453s-1.154,0.507-1.854,0.507
			c-0.691,0-1.309-0.169-1.85-0.507s-0.959-0.819-1.254-1.444s-0.443-1.346-0.447-2.162v-0.48c0-0.832,0.146-1.566,0.441-2.203
			s0.711-1.124,1.248-1.462s1.154-0.507,1.85-0.507s1.311,0.167,1.848,0.501s0.953,0.814,1.246,1.441s0.441,1.356,0.445,2.188
			V109.444z M963.035,108.999c0-0.945-0.18-1.67-0.537-2.174s-0.863-0.756-1.52-0.756c-0.641,0-1.143,0.251-1.504,0.753
			s-0.545,1.212-0.553,2.13v0.492c0,0.938,0.182,1.662,0.547,2.174s0.873,0.768,1.521,0.768c0.656,0,1.16-0.25,1.514-0.75
			s0.531-1.23,0.531-2.191V108.999z"/>
		<path d="M967.559,113.487h-1.477v-8.531h1.477V113.487z"/>
		<path d="M970.863,112.303h3.873v1.184h-5.355v-8.531h1.482V112.303z"/>
	</g>
</g>
<g>
	<g>
		<path fill="none" stroke="#FF8B00" stroke-width="2" stroke-miterlimit="10" d="M956.906,133.049"/>
		<path fill="none" stroke="#FF8B00" stroke-width="2" stroke-miterlimit="10" d="M956.906,163.784"/>
		<polygon fill="none" stroke="#FF8B00" stroke-width="2" stroke-miterlimit="10" points="1018.028,163.685 1018.028,102.602 
			956.906,133.137 		"/>
	</g>
	
		<line fill="none" stroke="#FF8B00" stroke-width="5" stroke-linejoin="round" stroke-miterlimit="10" x1="1015.564" y1="104.162" x2="1015.564" y2="162.308"/>
	
		<line fill="none" stroke="#FF8B00" stroke-width="2" stroke-miterlimit="10" x1="1007.892" y1="107.069" x2="1007.892" y2="158.62"/>
	
		<line fill="none" stroke="#FF8B00" stroke-width="2" stroke-miterlimit="10" x1="1002.066" y1="110.577" x2="1002.066" y2="155.708"/>
	
		<line fill="none" stroke="#FF8B00" stroke-width="2" stroke-miterlimit="10" x1="996.241" y1="113.487" x2="996.241" y2="152.796"/>
	
		<line fill="none" stroke="#FF8B00" stroke-width="2" stroke-miterlimit="10" x1="990.416" y1="116.871" x2="990.416" y2="149.514"/>
	<line fill="none" stroke="#FF8B00" stroke-width="2" stroke-miterlimit="10" x1="984.59" y1="118.907" x2="984.59" y2="146.973"/>
	
		<line fill="none" stroke="#FF8B00" stroke-width="2" stroke-miterlimit="10" x1="978.766" y1="122.217" x2="978.766" y2="144.604"/>
	
		<line fill="none" stroke="#FF8B00" stroke-width="2" stroke-miterlimit="10" x1="972.939" y1="125.477" x2="972.939" y2="140.908"/>
	<line fill="none" stroke="#FF8B00" stroke-width="2" stroke-miterlimit="10" x1="967.115" y1="128.444" x2="967.115" y2="137.94"/>
	
		<line fill="none" stroke="#FF8B00" stroke-width="2" stroke-miterlimit="10" x1="961.289" y1="131.412" x2="961.289" y2="134.973"/>
</g>
<g>
	<g>
		<path d="M810.231,256.726c0,1.227-0.229,2.151-0.688,2.774s-1.157,0.935-2.095,0.935c-0.922,0-1.616-0.304-2.083-0.911
			s-0.706-1.507-0.718-2.698v-1.477c0-1.227,0.229-2.146,0.688-2.76s1.159-0.92,2.101-0.92c0.934,0,1.63,0.299,2.089,0.896
			s0.694,1.492,0.706,2.684V256.726z M808.808,255.132c0-0.801-0.109-1.388-0.328-1.761s-0.566-0.56-1.043-0.56
			c-0.465,0-0.807,0.177-1.025,0.53s-0.334,0.905-0.346,1.655v1.934c0,0.797,0.111,1.391,0.334,1.781s0.572,0.586,1.049,0.586
			c0.457,0,0.795-0.181,1.014-0.542s0.334-0.927,0.346-1.696V255.132z"/>
	</g>
</g>
<g>
	<g>
		
			<line fill="none" stroke="#FF8500" stroke-width="1.6" stroke-miterlimit="10" x1="757.988" y1="255.477" x2="697.17" y2="255.477"/>
		<g>
			<polygon fill="#FF8500" points="701.663,249.552 699.146,255.477 701.663,261.401 687.618,255.477 			"/>
		</g>
	</g>
</g>
<g>
	<rect x="757.067" y="240.455" fill="#FF0000" width="100.75" height="31.98"/>
</g>
<g opacity="0.6">
	<g>
		<path fill="#231F20" d="M856.817,241.455v29.98h-98.75v-29.98H856.817 M857.817,240.455h-100.75v31.98h100.75V240.455
			L857.817,240.455z"/>
	</g>
</g>
<g>
	<g>
		<path d="M544.774,519.392h-3.504v2.625h4.096v1.184h-5.578v-8.531h5.537v1.195h-4.055v2.355h3.504V519.392z"/>
		<path d="M552.854,515.864h-2.66v7.336h-1.471v-7.336h-2.637v-1.195h6.768V515.864z"/>
		<path d="M558.339,521.003c0-0.375-0.132-0.664-0.396-0.867s-0.739-0.408-1.427-0.615s-1.234-0.438-1.641-0.691
			c-0.777-0.488-1.166-1.125-1.166-1.91c0-0.688,0.28-1.254,0.841-1.699s1.288-0.668,2.183-0.668c0.594,0,1.123,0.109,1.588,0.328
			s0.83,0.53,1.096,0.935s0.398,0.853,0.398,1.345h-1.477c0-0.445-0.14-0.794-0.419-1.046s-0.679-0.378-1.198-0.378
			c-0.484,0-0.86,0.104-1.128,0.311s-0.401,0.496-0.401,0.867c0,0.313,0.145,0.573,0.434,0.782s0.766,0.412,1.43,0.609
			s1.197,0.422,1.6,0.674s0.697,0.541,0.885,0.867s0.281,0.708,0.281,1.146c0,0.711-0.272,1.276-0.817,1.696s-1.284,0.63-2.218,0.63
			c-0.617,0-1.185-0.114-1.702-0.343s-0.92-0.544-1.207-0.946s-0.431-0.871-0.431-1.406h1.482c0,0.484,0.16,0.859,0.48,1.125
			s0.779,0.398,1.377,0.398c0.516,0,0.903-0.104,1.163-0.313S558.339,521.347,558.339,521.003z"/>
		<path d="M569.026,519.585h-3.434v3.615h-1.482v-8.531h5.42v1.195h-3.938v2.537h3.434V519.585z"/>
		<path d="M572.185,522.017h3.873v1.184h-5.355v-8.531h1.482V522.017z"/>
		<path d="M583.294,514.669v5.701c0,0.906-0.29,1.624-0.87,2.153s-1.353,0.794-2.317,0.794c-0.977,0-1.752-0.261-2.326-0.782
			s-0.861-1.245-0.861-2.171v-5.695h1.477v5.707c0,0.57,0.145,1.006,0.434,1.307s0.715,0.451,1.277,0.451
			c1.141,0,1.711-0.602,1.711-1.805v-5.66H583.294z"/>
		<path d="M586.44,523.2h-1.477v-8.531h1.477V523.2z"/>
		<path d="M588.263,523.2v-8.531h2.52c0.754,0,1.423,0.168,2.007,0.504s1.036,0.813,1.356,1.43s0.48,1.324,0.48,2.121v0.428
			c0,0.809-0.161,1.52-0.483,2.133s-0.781,1.086-1.377,1.418s-1.278,0.498-2.048,0.498H588.263z M589.745,515.864v6.152h0.967
			c0.777,0,1.374-0.243,1.79-0.729s0.628-1.185,0.636-2.095v-0.475c0-0.926-0.201-1.633-0.604-2.121s-0.986-0.732-1.752-0.732
			H589.745z"/>
	</g>
</g>
<g>
	<g>
		<rect x="179.261" y="401.415" fill="#00C000" width="100.75" height="31.98"/>
	</g>
	<g opacity="0.6">
		<g>
			<path fill="#231F20" d="M279.011,402.415v29.98h-98.75v-29.98H279.011 M280.011,401.415h-100.75v31.98h100.75V401.415
				L280.011,401.415z"/>
		</g>
	</g>
</g>
<g>
	<rect x="96.481" y="491.22" fill="#FF0000" width="100.75" height="31.98"/>
</g>
<g opacity="0.6">
	<g>
		<path fill="#231F20" d="M196.231,492.22v29.98h-98.75v-29.98H196.231 M197.231,491.22H96.481v31.98h100.75V491.22L197.231,491.22z
			"/>
	</g>
</g>
<g>
	<rect x="96.481" y="328.357" fill="#FF0000" width="100.75" height="31.98"/>
</g>
<g opacity="0.6">
	<g>
		<path fill="#231F20" d="M196.231,329.357v29.98h-98.75v-29.98H196.231 M197.231,328.357H96.481v31.98h100.75V328.357
			L197.231,328.357z"/>
	</g>
</g>
<g>
	<g>
		<rect x="179.199" y="239.817" fill="#00C000" width="100.75" height="31.981"/>
	</g>
	<g opacity="0.6">
		<g>
			<path fill="#231F20" d="M278.95,240.817v29.981h-98.75v-29.981H278.95 M279.95,239.817h-100.75v31.981h100.75V239.817
				L279.95,239.817z"/>
		</g>
	</g>
</g>
</svg>
