<?xml version="1.0" encoding="utf-8"?>
<!-- Generator: Adobe Illustrator 15.0.0, SVG Export Plug-In . SVG Version: 6.00 Build 0)  -->
<!DOCTYPE svg PUBLIC "-//W3C//DTD SVG 1.1//EN" "http://www.w3.org/Graphics/SVG/1.1/DTD/svg11.dtd">
<svg version="1.1" id="Layer_1" xmlns="http://www.w3.org/2000/svg" xmlns:xlink="http://www.w3.org/1999/xlink" x="0px" y="0px"
	 width="1200px" height="600px" viewBox="-90 0 1200 600" enable-background="new -90 0 1200 600" xml:space="preserve">
<radialGradient id="SVGID_1_" cx="521.8418" cy="347.5" r="480.8395" gradientUnits="userSpaceOnUse">
	<stop  offset="0" style="stop-color:#FFFFFF"/>
	<stop  offset="1" style="stop-color:#FFC287"/>
</radialGradient>
<rect x="244.787" y="267.153" fill="url(#SVGID_1_)" width="554.11" height="271.79"/>
<path fill="#231F20" d="M799.396,539.443h-555.11v-272.79h555.11V539.443z M245.287,538.443h553.11v-270.79h-553.11V538.443z"/>
<rect x="798.896" y="299" fill="#FFEEDA" width="15.112" height="32.831"/>
<path fill="#231F20" d="M175.452,286.898c8.509,0,15.432,6.923,15.432,15.432c0,8.509-6.922,15.432-15.432,15.432
	s-15.432-6.923-15.432-15.432C160.02,293.821,166.942,286.898,175.452,286.898 M175.452,285.898
	c-9.075,0-16.432,7.357-16.432,16.432c0,9.074,7.357,16.432,16.432,16.432c9.075,0,16.432-7.357,16.432-16.432
	C191.883,293.255,184.526,285.898,175.452,285.898L175.452,285.898z"/>
<path fill="#231F20" d="M395.262,185.103c8.509,0,15.432,6.923,15.432,15.432s-6.922,15.432-15.432,15.432
	s-15.432-6.923-15.432-15.432S386.753,185.103,395.262,185.103 M395.262,184.103c-9.075,0-16.432,7.357-16.432,16.432
	c0,9.075,7.357,16.432,16.432,16.432c9.075,0,16.432-7.356,16.432-16.432C411.694,191.46,404.337,184.103,395.262,184.103
	L395.262,184.103z"/>
<path fill="#231F20" d="M744.347,185.103c8.509,0,15.432,6.923,15.432,15.432s-6.923,15.432-15.432,15.432
	s-15.432-6.922-15.432-15.432S735.838,185.103,744.347,185.103 M744.347,184.103c-9.074,0-16.432,7.357-16.432,16.432
	c0,9.075,7.357,16.432,16.432,16.432c9.075,0,16.432-7.357,16.432-16.432C760.778,191.459,753.422,184.103,744.347,184.103
	L744.347,184.103z"/>
<g>
	<path fill="#FFF5C1" d="M292.236,295.332v-58.857h-100.83c-1.381,0-2.5,1.119-2.5,2.5s1.119,2.5,2.5,2.5h95.83v53.857H292.236z"/>
	<path fill="#706551" d="M292.536,295.632h-5.6v-53.857h-95.53c-1.544,0-2.8-1.256-2.8-2.8s1.256-2.8,2.8-2.8h101.129V295.632z
		 M287.536,295.032h4.4v-58.258h-100.53c-1.213,0-2.2,0.987-2.2,2.2s0.987,2.2,2.2,2.2h96.129V295.032z"/>
</g>
<g>
	<path fill="#FFF5C1" d="M292.236,384.288v-35.834H190.401c-1.381,0-2.5,1.119-2.5,2.5s1.119,2.5,2.5,2.5h96.834v30.834H292.236z"/>
	<path fill="#706551" d="M292.536,384.588h-5.6v-30.834h-96.535c-1.544,0-2.8-1.256-2.8-2.8s1.256-2.8,2.8-2.8h102.134V384.588z
		 M287.536,383.988h4.4v-35.234H190.401c-1.213,0-2.2,0.987-2.2,2.2s0.987,2.2,2.2,2.2h97.134V383.988z"/>
</g>
<g>
	
		<radialGradient id="SVGID_2_" cx="808.4111" cy="175.7734" r="21.0343" gradientTransform="matrix(0 1 1 0 113.5791 -569.2705)" gradientUnits="userSpaceOnUse">
		<stop  offset="0" style="stop-color:#FFFFFF"/>
		<stop  offset="1" style="stop-color:#858585"/>
	</radialGradient>
	<path fill="url(#SVGID_2_)" d="M294.084,251.414l0.001-12.303c0-2.838-2.311-5.148-5.148-5.148h-12.303c-0.275,0-0.5,0.225-0.5,0.5
		v8.566c0,0.275,0.225,0.5,0.5,0.5h7.885v7.885c0,0.275,0.224,0.5,0.5,0.5h8.565C293.86,251.914,294.084,251.691,294.084,251.414z"
		/>
	<path opacity="0.4" enable-background="new    " d="M293.084,250.914h-7.565v-7.385v-1h-1h-7.385v-7.566h11.803
		c2.287,0,4.148,1.861,4.148,4.148L293.084,250.914 M294.084,251.414l0.001-12.303c0-2.838-2.311-5.148-5.148-5.148h-12.303
		c-0.275,0-0.5,0.225-0.5,0.5v8.566c0,0.275,0.225,0.5,0.5,0.5h7.885v7.885c0,0.275,0.224,0.5,0.5,0.5h8.565
		C293.86,251.914,294.084,251.691,294.084,251.414L294.084,251.414z"/>
</g>
<g>
	
		<radialGradient id="SVGID_3_" cx="920.0947" cy="176.7734" r="21.0343" gradientTransform="matrix(0 1 1 0 113.5791 -569.2705)" gradientUnits="userSpaceOnUse">
		<stop  offset="0" style="stop-color:#FFFFFF"/>
		<stop  offset="1" style="stop-color:#858585"/>
	</radialGradient>
	<path fill="url(#SVGID_3_)" d="M295.084,363.098l0.001-12.303c0-2.838-2.311-5.148-5.148-5.148h-12.303c-0.275,0-0.5,0.225-0.5,0.5
		v8.566c0,0.275,0.225,0.5,0.5,0.5h7.885v7.885c0,0.275,0.224,0.5,0.5,0.5h8.565C294.86,363.598,295.084,363.375,295.084,363.098z"
		/>
	<path opacity="0.4" enable-background="new    " d="M294.084,362.598h-7.565v-7.385v-1h-1h-7.385v-7.566h11.803
		c2.287,0,4.148,1.861,4.148,4.148L294.084,362.598 M295.084,363.098l0.001-12.303c0-2.838-2.311-5.148-5.148-5.148h-12.303
		c-0.275,0-0.5,0.225-0.5,0.5v8.566c0,0.275,0.225,0.5,0.5,0.5h7.885v7.885c0,0.275,0.224,0.5,0.5,0.5h8.565
		C294.86,363.598,295.084,363.375,295.084,363.098L295.084,363.098z"/>
</g>
<g>
	<polygon fill="#0A0A0A" points="311.164,296.675 269.244,296.675 269.244,287.427 271.244,287.427 271.244,294.675 
		309.164,294.675 309.164,287.427 311.164,287.427 	"/>
	<rect x="267.949" y="289.289" fill="#0A0A0A" width="2" height="4.52"/>
	<rect x="310.157" y="289.289" fill="#0A0A0A" width="2" height="4.52"/>
</g>
<g>
	<polygon fill="#0A0A0A" points="310.363,385.527 268.443,385.527 268.443,376.279 270.443,376.279 270.443,383.527 
		308.363,383.527 308.363,376.279 310.363,376.279 	"/>
	<rect x="267.148" y="378.141" fill="#0A0A0A" width="2" height="4.52"/>
	<rect x="309.356" y="378.141" fill="#0A0A0A" width="2" height="4.52"/>
</g>
<g>
	<path fill="#FFF5C1" d="M672.934,191.441c-1.381,0-2.5-1.119-2.5-2.5v-77.289H443.373v77.289c0,1.381-1.119,2.5-2.5,2.5
		s-2.5-1.119-2.5-2.5v-82.289h237.061v82.289C675.434,190.322,674.314,191.441,672.934,191.441z"/>
	<path fill="#706551" d="M672.934,191.741c-1.544,0-2.8-1.256-2.8-2.8v-76.989H443.673v76.989c0,1.544-1.256,2.8-2.8,2.8
		s-2.8-1.256-2.8-2.8v-82.588h237.66v82.588C675.733,190.485,674.478,191.741,672.934,191.741z M443.073,111.353h227.66v77.588
		c0,1.213,0.987,2.2,2.2,2.2s2.2-0.987,2.2-2.2v-81.989H438.673v81.989c0,1.213,0.987,2.2,2.2,2.2s2.2-0.987,2.2-2.2V111.353z"/>
</g>
<g>
	<path fill="#FFF5C1" d="M559.379,111.653c-1.381,0-2.5-1.119-2.5-2.5V62.917c0-1.381,1.119-2.5,2.5-2.5s2.5,1.119,2.5,2.5v46.236
		C561.879,110.534,560.76,111.653,559.379,111.653z"/>
	<path fill="#706551" d="M559.379,111.953c-1.544,0-2.8-1.256-2.8-2.8V62.917c0-1.544,1.256-2.8,2.8-2.8s2.8,1.256,2.8,2.8v46.236
		C562.179,110.697,560.923,111.953,559.379,111.953z M559.379,60.717c-1.213,0-2.2,0.987-2.2,2.2v46.236c0,1.213,0.987,2.2,2.2,2.2
		s2.2-0.987,2.2-2.2V62.917C561.579,61.704,560.592,60.717,559.379,60.717z"/>
</g>
<g>
	
		<radialGradient id="SVGID_4_" cx="441.5205" cy="490.2891" r="21.0329" gradientTransform="matrix(1 0 0 -1 -0.02 599.0947)" gradientUnits="userSpaceOnUse">
		<stop  offset="0" style="stop-color:#FFFFFF"/>
		<stop  offset="1" style="stop-color:#858585"/>
	</radialGradient>
	<path fill="url(#SVGID_4_)" d="M453.773,104.074h-12.302c-2.838,0-5.148,2.31-5.148,5.148v12.302c0,0.276,0.225,0.5,0.5,0.5h8.566
		c0.275,0,0.5-0.224,0.5-0.5v-7.884h7.884c0.276,0,0.5-0.224,0.5-0.5v-8.566C454.273,104.298,454.05,104.074,453.773,104.074z"/>
	<path opacity="0.4" enable-background="new    " d="M453.273,105.074v7.566h-7.384h-1v1v7.384h-7.566v-11.802
		c0-2.287,1.861-4.148,4.148-4.148H453.273 M453.773,104.074h-12.302c-2.838,0-5.148,2.31-5.148,5.148v12.302
		c0,0.276,0.225,0.5,0.5,0.5h8.566c0.275,0,0.5-0.224,0.5-0.5v-7.884h7.884c0.276,0,0.5-0.224,0.5-0.5v-8.566
		C454.273,104.298,454.05,104.074,453.773,104.074L453.773,104.074z"/>
</g>
<g>
	<g>
		
			<radialGradient id="SVGID_5_" cx="148.375" cy="628.5732" r="15.9376" gradientTransform="matrix(-1 0 0 1 707.9277 -519.2861)" gradientUnits="userSpaceOnUse">
			<stop  offset="0" style="stop-color:#FFFFFF"/>
			<stop  offset="1" style="stop-color:#858585"/>
		</radialGradient>
		<path fill="url(#SVGID_5_)" d="M550.903,114.276h16.95c0.276,0,0.5-0.224,0.5-0.5v-8.566c0-0.276-0.224-0.5-0.5-0.5h-3.691v-7.975
			c0-0.276-0.225-0.5-0.5-0.5h-8.565c-0.277,0-0.5,0.224-0.5,0.5v7.975h-3.692c-0.275,0-0.5,0.224-0.5,0.5v8.566
			C550.403,114.052,550.628,114.276,550.903,114.276z"/>
	</g>
	<g opacity="0.4">
		<path d="M551.403,113.276v-7.566h3.192h1v-1v-7.475h7.565v7.475v1h1h3.191v7.566H551.403 M550.903,114.276h16.95
			c0.276,0,0.5-0.224,0.5-0.5v-8.566c0-0.276-0.224-0.5-0.5-0.5h-3.691v-7.975c0-0.276-0.225-0.5-0.5-0.5h-8.565
			c-0.277,0-0.5,0.224-0.5,0.5v7.975h-3.692c-0.275,0-0.5,0.224-0.5,0.5v8.566C550.403,114.052,550.628,114.276,550.903,114.276
			L550.903,114.276z"/>
	</g>
</g>
<g>
	
		<radialGradient id="SVGID_6_" cx="678.5215" cy="559.6055" r="21.0343" gradientTransform="matrix(0 1 1 0 113.5791 -569.2705)" gradientUnits="userSpaceOnUse">
		<stop  offset="0" style="stop-color:#FFFFFF"/>
		<stop  offset="1" style="stop-color:#858585"/>
	</radialGradient>
	<path fill="url(#SVGID_6_)" d="M677.916,121.525l0.001-12.303c0-2.838-2.311-5.148-5.148-5.148h-12.303c-0.275,0-0.5,0.225-0.5,0.5
		v8.566c0,0.275,0.225,0.5,0.5,0.5h7.885v7.885c0,0.275,0.224,0.5,0.5,0.5h8.565C677.692,122.025,677.916,121.802,677.916,121.525z"
		/>
	<path opacity="0.4" enable-background="new    " d="M676.916,121.025h-7.565v-7.385v-1h-1h-7.385v-7.566h11.803
		c2.287,0,4.148,1.861,4.148,4.148L676.916,121.025 M677.916,121.525l0.001-12.303c0-2.838-2.311-5.148-5.148-5.148h-12.303
		c-0.275,0-0.5,0.225-0.5,0.5v8.566c0,0.275,0.225,0.5,0.5,0.5h7.885v7.885c0,0.275,0.224,0.5,0.5,0.5h8.565
		C677.692,122.025,677.916,121.802,677.916,121.525L677.916,121.525z"/>
</g>
<g>
	<path fill="#FFF5C1" d="M452.946,466.471V218.274c0-1.381-1.119-2.5-2.5-2.5s-2.5,1.119-2.5,2.5v248.197H452.946z"/>
	<path fill="#706551" d="M453.246,466.771h-5.6V218.274c0-1.544,1.256-2.8,2.8-2.8s2.8,1.256,2.8,2.8V466.771z M448.246,466.171h4.4
		V218.274c0-1.213-0.987-2.2-2.2-2.2s-2.2,0.987-2.2,2.2V466.171z"/>
</g>
<g>
	<path fill="#FFF5C1" d="M684.933,466.471V218.446c0-1.381-1.119-2.5-2.5-2.5s-2.5,1.119-2.5,2.5v248.024H684.933z"/>
	<path fill="#706551" d="M685.232,466.771h-5.6V218.446c0-1.544,1.256-2.8,2.8-2.8s2.8,1.256,2.8,2.8V466.771z M680.232,466.171h4.4
		V218.446c0-1.213-0.987-2.2-2.2-2.2s-2.2,0.987-2.2,2.2V466.171z"/>
</g>
<g>
	<polygon points="471.377,467.631 429.457,467.631 429.457,458.383 431.457,458.383 431.457,465.631 469.377,465.631 
		469.377,458.383 471.377,458.383 	"/>
	<rect x="428.163" y="460.244" width="2" height="4.52"/>
	<rect x="470.37" y="460.244" width="2" height="4.52"/>
</g>
<g>
	<polygon points="703.587,467.631 661.667,467.631 661.667,458.383 663.667,458.383 663.667,465.631 701.587,465.631 
		701.587,458.383 703.587,458.383 	"/>
	<rect x="660.372" y="460.244" width="2" height="4.52"/>
	<rect x="702.58" y="460.244" width="2" height="4.52"/>
</g>
<path fill="#ED1E2E" d="M175.451,358.824c-0.552,0-1-0.447-1-1V311.86c0-0.553,0.448-1,1-1s1,0.447,1,1v45.964
	C176.451,358.377,176.003,358.824,175.451,358.824z"/>
<path fill="#ED1E2E" d="M175.451,246.988c-0.552,0-1-0.448-1-1v-50.124c0-0.552,0.448-1,1-1s1,0.448,1,1v50.124
	C176.451,246.541,176.003,246.988,175.451,246.988z"/>
<circle fill="#0901A4" cx="175.451" cy="190.53" r="16.432"/>
<path fill="#231F20" d="M175.452,175.098c8.509,0,15.432,6.923,15.432,15.432s-6.922,15.432-15.432,15.432
	s-15.432-6.922-15.432-15.432S166.942,175.098,175.452,175.098 M175.452,174.098c-9.075,0-16.432,7.357-16.432,16.432
	c0,9.075,7.357,16.432,16.432,16.432c9.075,0,16.432-7.357,16.432-16.432C191.883,181.455,184.526,174.098,175.452,174.098
	L175.452,174.098z"/>
<g>
	<path fill="#27DF65" d="M172.577,185.911l2.871,7.629l2.864-7.629h2.235v9.953h-1.723v-3.281l0.171-4.389l-2.939,7.67h-1.237
		l-2.933-7.663l0.171,4.382v3.281h-1.723v-9.953H172.577z"/>
</g>
<circle fill="#0901A4" cx="175.451" cy="302.33" r="16.432"/>
<g>
	<path fill="#27DF65" d="M172.577,297.711l2.871,7.628l2.864-7.628h2.235v9.953h-1.723v-3.281l0.171-4.388l-2.939,7.669h-1.237
		l-2.933-7.663l0.171,4.381v3.281h-1.723v-9.953H172.577z"/>
</g>
<g>
	<polygon fill="#777777" points="167.526,264.657 171.993,252.681 183.536,252.597 191.406,264.657 	"/>
	<path fill="#231F20" d="M182.997,253.601l6.563,10.056h-20.593l3.723-9.981L182.997,253.601 M183.536,252.597l-11.543,0.083
		l-4.467,11.976h23.88L183.536,252.597L183.536,252.597z"/>
	<path fill="#757575" d="M196.75,233.438h-17.836v0.008c-0.053,0-0.105-0.008-0.159-0.008c-6.933,0-12.553,5.616-12.553,12.55
		c0,6.932,5.62,12.551,12.553,12.551s12.552-5.619,12.552-12.551c0-1.402-0.24-1.746-0.664-3.005l3.985,1.194l2.122-2.031V233.438z"
		/>
	<path d="M195.75,234.438v7.331l-1.314,1.495l-3.459-1.224l-1.938-0.686l0.656,1.948c0.082,0.244,0.158,0.455,0.226,0.645
		c0.273,0.761,0.386,1.077,0.386,2.041c0,6.37-5.182,11.551-11.552,11.551c-6.371,0-11.553-5.182-11.553-11.551
		c0-6.368,5.181-11.548,11.561-11.548c0.001,0,0.002,0,0.003,0c0.046,0.003,0.092,0.006,0.139,0.006l1.009,0.001v-0.009H195.75
		 M196.75,233.438h-17.836v0.008c-0.053,0-0.105-0.008-0.159-0.008c-6.933,0-12.553,5.616-12.553,12.55
		c0,6.932,5.62,12.551,12.553,12.551s12.552-5.619,12.552-12.551c0-1.402-0.24-1.746-0.664-3.005l4.097,1.45l2.01-2.287V233.438
		L196.75,233.438z"/>
	<polygon fill="#ADADAD" points="165.516,264.657 169.983,254.902 183.477,253.899 187.396,264.657 	"/>
	<path fill="#231F20" d="M182.796,254.952l3.172,8.705h-18.894l3.573-7.801L182.796,254.952 M183.477,253.899l-13.493,1.003
		l-4.467,9.755h21.88L183.477,253.899L183.477,253.899z"/>
	<path fill="#ADADAD" d="M194.74,235.887h-17.836v0.008c-0.053,0-0.105-0.008-0.159-0.008c-6.933,0-12.553,5.616-12.553,12.55
		c0,6.932,5.62,12.551,12.553,12.551s12.552-5.619,12.552-12.551c0-1.402-0.24-2.746-0.664-4.005h6.107V235.887z"/>
	<path d="M193.74,236.887v6.544h-5.107h-1.392l0.444,1.319c0.406,1.205,0.612,2.445,0.612,3.686c0,6.37-5.182,11.551-11.552,11.551
		c-6.371,0-11.553-5.182-11.553-11.551c0-6.368,5.181-11.548,11.561-11.548c0.001,0,0.002,0,0.003,0
		c0.046,0.003,0.092,0.006,0.139,0.006l1.009,0.001v-0.009H193.74 M194.74,235.887h-17.836v0.008c-0.053,0-0.105-0.008-0.159-0.008
		c-6.933,0-12.553,5.616-12.553,12.55c0,6.932,5.62,12.551,12.553,12.551s12.552-5.619,12.552-12.551
		c0-1.402-0.24-2.746-0.664-4.005h6.107V235.887L194.74,235.887z"/>
	<path fill="none" stroke="#000000" stroke-miterlimit="10" d="M194.74,244.432"/>
	<rect x="194.853" y="241.416" transform="matrix(0.7574 0.653 -0.653 0.7574 206.0231 -68.6193)" width="1.001" height="3.045"/>
</g>
<g>
	<polygon fill="#777777" points="166.521,376.492 170.988,364.518 182.531,364.434 190.401,376.492 	"/>
	<path fill="#231F20" d="M181.992,365.438l6.563,10.055h-20.593l3.723-9.979L181.992,365.438 M182.531,364.434l-11.543,0.084
		l-4.467,11.975h23.88L182.531,364.434L182.531,364.434z"/>
	<path fill="#757575" d="M195.745,345.273h-17.836v0.008c-0.053,0-0.105-0.008-0.159-0.008c-6.933,0-12.553,5.617-12.553,12.551
		c0,6.932,5.62,12.551,12.553,12.551s12.552-5.619,12.552-12.551c0-1.402-0.24-1.746-0.664-3.006l3.985,1.194l2.122-2.031V345.273z"
		/>
	<path d="M194.745,346.273v7.331l-1.314,1.495l-3.459-1.224l-1.937-0.686l0.656,1.947c0.082,0.244,0.158,0.455,0.226,0.646
		c0.273,0.762,0.386,1.076,0.386,2.041c0,6.369-5.182,11.551-11.552,11.551c-6.371,0-11.553-5.182-11.553-11.551
		s5.181-11.55,11.557-11.55c0,0,0.002,0,0.002,0c0.051,0.004,0.102,0.007,0.153,0.007l1-0.008H194.745 M195.745,345.273h-17.836
		v0.008c-0.053,0-0.105-0.008-0.159-0.008c-6.933,0-12.553,5.617-12.553,12.551c0,6.932,5.62,12.551,12.553,12.551
		s12.552-5.619,12.552-12.551c0-1.402-0.24-1.746-0.664-3.006l4.097,1.449l2.01-2.286V345.273L195.745,345.273z"/>
	<polygon fill="#ADADAD" points="164.511,376.492 168.979,366.738 182.472,365.735 186.392,376.492 	"/>
	<path fill="#231F20" d="M181.791,366.789l3.172,8.703h-18.894l3.572-7.801L181.791,366.789 M182.472,365.735l-13.493,1.003
		l-4.467,9.754h21.88L182.472,365.735L182.472,365.735z"/>
	<path fill="#ADADAD" d="M193.735,347.724h-17.836v0.008c-0.053-0.001-0.105-0.008-0.159-0.008c-6.933,0-12.553,5.616-12.553,12.55
		c0,6.932,5.62,12.551,12.553,12.551s12.552-5.619,12.552-12.551c0-1.402-0.24-2.746-0.664-4.006h6.107V347.724z"/>
	<path d="M192.735,348.724v6.544h-5.107h-1.392l0.444,1.319c0.406,1.205,0.612,2.445,0.612,3.687
		c0,6.369-5.182,11.551-11.552,11.551c-6.371,0-11.553-5.182-11.553-11.551c0-6.368,5.181-11.549,11.566-11.548c0,0,0.002,0,0.003,0
		c0.041,0.003,0.083,0.005,0.124,0.006l1.019,0.011v-0.019H192.735 M193.735,347.724h-17.836v0.008
		c-0.053-0.001-0.105-0.008-0.159-0.008c-6.933,0-12.553,5.616-12.553,12.55c0,6.932,5.62,12.551,12.553,12.551
		s12.552-5.619,12.552-12.551c0-1.402-0.24-2.746-0.664-4.006h6.107V347.724L193.735,347.724z"/>
	<rect x="193.703" y="345.409" transform="matrix(0.7579 0.6524 -0.6524 0.7579 273.5042 -42.6435)" width="1" height="3.491"/>
	<path fill="none" stroke="#000000" stroke-miterlimit="10" d="M193.735,356.268"/>
	<rect x="193.849" y="353.253" transform="matrix(0.7575 0.6529 -0.6529 0.7575 278.7633 -40.8395)" width="0.999" height="3.045"/>
</g>
<rect x="692.604" y="201.162" fill="#ED1E2E" width="48.159" height="2"/>
<circle fill="#0901A4" cx="744.347" cy="200.535" r="16.432"/>
<g>
	<path fill="#27DF65" d="M741.473,195.916l2.871,7.629l2.863-7.629h2.236v9.953h-1.723v-3.281l0.17-4.389l-2.939,7.67h-1.236
		l-2.934-7.663l0.172,4.382v3.281h-1.723v-9.953H741.473z"/>
</g>
<g>
	<g>
		<linearGradient id="SVGID_7_" gradientUnits="userSpaceOnUse" x1="666.1553" y1="194.8506" x2="680.6694" y2="194.8506">
			<stop  offset="0" style="stop-color:#AFBDD6"/>
			<stop  offset="0.5" style="stop-color:#FFFFFF"/>
			<stop  offset="1" style="stop-color:#AFBDD6"/>
		</linearGradient>
		<rect x="667.936" y="184.019" fill="url(#SVGID_7_)" width="9.996" height="21.664"/>
		<g>
			
				<linearGradient id="SVGID_8_" gradientUnits="userSpaceOnUse" x1="-732.1367" y1="1316.6172" x2="-707.5995" y2="1339.3729" gradientTransform="matrix(0 -1 1 0 -645.8633 -515.6094)">
				<stop  offset="0" style="stop-color:#AFBDD6"/>
				<stop  offset="0.5" style="stop-color:#FFFFFF"/>
				<stop  offset="1" style="stop-color:#AFBDD6"/>
			</linearGradient>
			<path fill="url(#SVGID_8_)" d="M667.693,204.015c0-8.101,6.563-14.667,14.666-14.667c8.1,0,14.664,6.566,14.664,14.667
				s-6.564,14.666-14.664,14.666C674.257,218.681,667.693,212.116,667.693,204.015z"/>
		</g>
		<linearGradient id="SVGID_9_" gradientUnits="userSpaceOnUse" x1="667.3545" y1="182.1348" x2="678.6085" y2="182.1348">
			<stop  offset="0" style="stop-color:#AFBDD6"/>
			<stop  offset="0.5" style="stop-color:#FFFFFF"/>
			<stop  offset="1" style="stop-color:#AFBDD6"/>
		</linearGradient>
		<rect x="666.767" y="180.251" fill="url(#SVGID_9_)" width="12.334" height="3.767"/>
	</g>
	<g>
		<polygon points="668.361,202.334 667.361,202.334 667.361,183.284 678.358,183.284 678.358,191.084 677.358,191.084 
			677.358,184.284 668.361,184.284 		"/>
		<g>
			<path d="M682.433,218.946c-8.363,0-15.167-6.803-15.167-15.166c0-0.567,0.032-1.139,0.095-1.701l0.994,0.111
				c-0.059,0.525-0.089,1.06-0.089,1.589c0,7.811,6.355,14.166,14.167,14.166c7.811,0,14.165-6.354,14.165-14.166
				c0-7.812-6.354-14.167-14.165-14.167c-1.599,0-3.165,0.263-4.658,0.783l-0.328-0.944c1.599-0.556,3.276-0.838,4.986-0.838
				c8.362,0,15.165,6.804,15.165,15.167C697.598,212.143,690.795,218.946,682.433,218.946z"/>
		</g>
		<path d="M678.026,181.486v1.767h-10.333v-1.767H678.026 M679.026,180.486h-12.333v3.767h12.333V180.486L679.026,180.486z"/>
	</g>
	<linearGradient id="SVGID_10_" gradientUnits="userSpaceOnUse" x1="676.2773" y1="209.7627" x2="687.7447" y2="209.7627">
		<stop  offset="0" style="stop-color:#AFBDD6"/>
		<stop  offset="0.5" style="stop-color:#FFFFFF"/>
		<stop  offset="1" style="stop-color:#AFBDD6"/>
	</linearGradient>
	<path fill="url(#SVGID_10_)" d="M677.311,221.519v-19.22c0-2.37,2.064-4.292,4.611-4.292l0,0c2.545,0,4.609,1.922,4.609,4.292
		v19.22H677.311z"/>
	<linearGradient id="SVGID_11_" gradientUnits="userSpaceOnUse" x1="678.1318" y1="222.2803" x2="686.541" y2="222.2803">
		<stop  offset="0" style="stop-color:#AFBDD6"/>
		<stop  offset="0.5" style="stop-color:#FFFFFF"/>
		<stop  offset="1" style="stop-color:#AFBDD6"/>
	</linearGradient>
	<rect x="676.297" y="220.488" fill="url(#SVGID_11_)" width="11.25" height="3.584"/>
	<path d="M681.895,199.007c1.991,0,3.611,1.477,3.611,3.292v18.22h-7.221v-18.22C678.285,200.483,679.904,199.007,681.895,199.007
		 M681.895,198.007c-2.545,0-4.609,1.922-4.609,4.292v19.22h9.221v-19.22C686.506,199.929,684.441,198.007,681.895,198.007
		L681.895,198.007z"/>
	<path d="M686.52,221.488v1.584h-9.25v-1.584H686.52 M687.52,220.488h-11.25v3.584h11.25V220.488L687.52,220.488z"/>
</g>
<g>
	<polygon fill="#740305" points="543.927,78.082 559.19,64.779 574.456,78.082 559.19,50.505 	"/>
	<path d="M574.456,78.582c-0.117,0-0.234-0.041-0.328-0.123L559.19,65.442l-14.936,13.017c-0.183,0.16-0.454,0.164-0.643,0.012
		c-0.188-0.152-0.24-0.418-0.123-0.631l15.264-27.577c0.176-0.318,0.699-0.318,0.875,0l15.207,27.471
		c0.087,0.09,0.141,0.213,0.141,0.348c0,0.276-0.224,0.5-0.5,0.5C574.47,78.582,574.462,78.581,574.456,78.582z M559.19,64.279
		c0.117,0,0.234,0.041,0.328,0.123l13.124,11.437L559.19,51.538l-13.45,24.301l13.122-11.437
		C558.956,64.32,559.073,64.279,559.19,64.279z"/>
</g>
<g>
	<path fill="#231F20" d="M528.56,32.696h-3.104v8.559h-1.716v-8.559h-3.076v-1.395h7.896V32.696z"/>
	<path fill="#231F20" d="M537.617,36.538c0,0.975-0.168,1.831-0.506,2.567s-0.819,1.301-1.445,1.695
		c-0.627,0.394-1.348,0.591-2.164,0.591c-0.807,0-1.525-0.197-2.156-0.591c-0.632-0.394-1.119-0.956-1.463-1.685
		c-0.345-0.729-0.52-1.57-0.523-2.522v-0.561c0-0.971,0.172-1.828,0.516-2.57c0.345-0.743,0.83-1.312,1.457-1.706
		c0.626-0.394,1.346-0.591,2.156-0.591s1.53,0.195,2.156,0.584c0.627,0.39,1.111,0.95,1.453,1.682s0.516,1.583,0.52,2.553V36.538z
		 M535.888,36.018c0-1.103-0.208-1.948-0.626-2.536c-0.416-0.588-1.008-0.882-1.773-0.882c-0.748,0-1.332,0.293-1.754,0.878
		c-0.421,0.585-0.637,1.414-0.646,2.485v0.574c0,1.094,0.213,1.939,0.64,2.536c0.426,0.597,1.018,0.896,1.773,0.896
		c0.766,0,1.354-0.292,1.768-0.875c0.412-0.583,0.618-1.436,0.618-2.557V36.018z"/>
	<path fill="#231F20" d="M549.607,32.696h-3.104v8.559h-1.716v-8.559h-3.076v-1.395h7.896V32.696z"/>
	<path fill="#231F20" d="M558.193,31.301v6.651c0,1.057-0.338,1.895-1.016,2.512c-0.676,0.618-1.578,0.926-2.703,0.926
		c-1.139,0-2.044-0.304-2.714-0.913s-1.005-1.453-1.005-2.533v-6.645h1.723v6.658c0,0.666,0.168,1.173,0.506,1.524
		s0.834,0.526,1.49,0.526c1.33,0,1.996-0.702,1.996-2.105v-6.604H558.193z"/>
	<path fill="#231F20" d="M563.696,37.426h-1.928v3.828h-1.729v-9.953h3.5c1.148,0,2.035,0.258,2.659,0.773
		c0.624,0.516,0.937,1.261,0.937,2.237c0,0.666-0.16,1.224-0.482,1.673c-0.32,0.449-0.769,0.795-1.343,1.037l2.235,4.145v0.089
		h-1.853L563.696,37.426z M561.769,36.032h1.777c0.583,0,1.039-0.147,1.367-0.441s0.492-0.696,0.492-1.207
		c0-0.533-0.151-0.946-0.454-1.237c-0.304-0.292-0.756-0.442-1.357-0.451h-1.825V36.032z"/>
	<path fill="#231F20" d="M568.775,41.254v-9.953h3.411c1.126,0,1.982,0.226,2.57,0.677s0.882,1.124,0.882,2.017
		c0,0.456-0.123,0.866-0.369,1.23s-0.605,0.647-1.08,0.848c0.537,0.146,0.953,0.42,1.248,0.824c0.293,0.403,0.44,0.888,0.44,1.453
		c0,0.934-0.3,1.652-0.899,2.153c-0.599,0.501-1.457,0.752-2.573,0.752H568.775z M570.505,35.492h1.695
		c0.538,0,0.958-0.122,1.261-0.366c0.304-0.244,0.455-0.589,0.455-1.036c0-0.492-0.141-0.848-0.42-1.066
		c-0.281-0.219-0.717-0.328-1.31-0.328h-1.682V35.492z M570.505,36.763v3.11h1.921c0.543,0,0.967-0.134,1.271-0.403
		s0.458-0.643,0.458-1.121c0-1.035-0.528-1.563-1.586-1.586H570.505z"/>
	<path fill="#231F20" d="M579.433,41.254h-1.723v-9.953h1.723V41.254z"/>
	<path fill="#231F20" d="M589.454,41.254h-1.729l-4.437-7.062v7.062h-1.729v-9.953h1.729l4.45,7.089v-7.089h1.716V41.254z"/>
	<path fill="#231F20" d="M597.315,36.811h-4.088v3.063h4.778v1.381h-6.508v-9.953h6.46v1.395h-4.73v2.748h4.088V36.811z"/>
</g>
<g>
	<path fill="#231F20" d="M480.597,167.608h-1.723v-4.416h-4.45v4.416h-1.729v-9.953h1.729v4.143h4.45v-4.143h1.723V167.608z"/>
	<path fill="#231F20" d="M485.696,162.372l2.29-4.717h1.914l-3.336,6.289v3.664h-1.736v-3.664l-3.343-6.289h1.921L485.696,162.372z"
		/>
	<path fill="#231F20" d="M490.98,167.608v-9.953h2.939c0.879,0,1.66,0.196,2.341,0.588s1.209,0.948,1.583,1.668
		s0.561,1.545,0.561,2.475v0.499c0,0.943-0.188,1.773-0.564,2.488s-0.912,1.267-1.606,1.654s-1.491,0.581-2.389,0.581H490.98z
		 M492.71,159.05v7.178h1.128c0.907,0,1.603-0.284,2.088-0.851s0.732-1.382,0.742-2.444v-0.554c0-1.08-0.235-1.905-0.704-2.475
		s-1.151-0.854-2.044-0.854H492.71z"/>
	<path fill="#231F20" d="M503.784,163.78h-1.928v3.828h-1.729v-9.953h3.5c1.148,0,2.035,0.258,2.659,0.773
		c0.625,0.516,0.937,1.261,0.937,2.237c0,0.666-0.161,1.224-0.482,1.673s-0.769,0.795-1.343,1.037l2.235,4.145v0.089h-1.853
		L503.784,163.78z M501.856,162.386h1.777c0.583,0,1.039-0.147,1.367-0.441s0.492-0.696,0.492-1.207
		c0-0.533-0.151-0.946-0.455-1.237s-0.755-0.442-1.357-0.451h-1.825V162.386z"/>
	<path fill="#231F20" d="M514.435,165.291h-3.855l-0.807,2.317h-1.798l3.76-9.953h1.552l3.767,9.953h-1.805L514.435,165.291z
		 M511.064,163.896h2.885l-1.442-4.129L511.064,163.896z"/>
	<path fill="#231F20" d="M525.345,157.655v6.651c0,1.057-0.339,1.895-1.015,2.512c-0.678,0.618-1.578,0.926-2.704,0.926
		c-1.14,0-2.044-0.304-2.714-0.913s-1.005-1.453-1.005-2.533v-6.645h1.723v6.658c0,0.666,0.169,1.173,0.506,1.524
		s0.834,0.526,1.49,0.526c1.331,0,1.996-0.702,1.996-2.105v-6.604H525.345z"/>
	<path fill="#231F20" d="M528.92,166.228h4.519v1.381h-6.248v-9.953h1.729V166.228z"/>
	<path fill="#231F20" d="M536.59,167.608h-1.723v-9.953h1.723V167.608z"/>
	<path fill="#231F20" d="M546.311,164.368c-0.1,1.062-0.492,1.89-1.176,2.485s-1.593,0.892-2.728,0.892
		c-0.793,0-1.491-0.188-2.095-0.564c-0.604-0.376-1.07-0.91-1.398-1.603s-0.499-1.497-0.513-2.413v-0.93
		c0-0.939,0.167-1.766,0.499-2.481s0.811-1.267,1.432-1.654c0.623-0.387,1.342-0.581,2.157-0.581c1.099,0,1.982,0.297,2.652,0.892
		s1.06,1.437,1.169,2.526h-1.723c-0.082-0.715-0.291-1.231-0.625-1.548c-0.336-0.317-0.826-0.475-1.474-0.475
		c-0.752,0-1.329,0.275-1.733,0.825c-0.402,0.549-0.609,1.356-0.618,2.418v0.883c0,1.076,0.192,1.897,0.577,2.463
		c0.386,0.566,0.949,0.849,1.692,0.849c0.679,0,1.189-0.153,1.531-0.458s0.558-0.813,0.649-1.524H546.311z"/>
	<path fill="#231F20" d="M557.077,163.391h-4.006v4.218h-1.729v-9.953h6.323v1.395h-4.594v2.96h4.006V163.391z"/>
	<path fill="#231F20" d="M560.762,166.228h4.519v1.381h-6.248v-9.953h1.729V166.228z"/>
	<path fill="#231F20" d="M573.723,157.655v6.651c0,1.057-0.338,1.895-1.016,2.512c-0.676,0.618-1.578,0.926-2.703,0.926
		c-1.139,0-2.044-0.304-2.714-0.913s-1.005-1.453-1.005-2.533v-6.645h1.723v6.658c0,0.666,0.168,1.173,0.506,1.524
		s0.834,0.526,1.49,0.526c1.33,0,1.996-0.702,1.996-2.105v-6.604H573.723z"/>
	<path fill="#231F20" d="M577.394,167.608h-1.723v-9.953h1.723V167.608z"/>
	<path fill="#231F20" d="M579.52,167.608v-9.953h2.939c0.879,0,1.66,0.196,2.342,0.588c0.681,0.392,1.209,0.948,1.582,1.668
		s0.561,1.545,0.561,2.475v0.499c0,0.943-0.188,1.773-0.564,2.488c-0.375,0.715-0.911,1.267-1.605,1.654
		c-0.695,0.387-1.492,0.581-2.39,0.581H579.52z M581.249,159.05v7.178h1.128c0.906,0,1.604-0.284,2.088-0.851
		c0.486-0.567,0.732-1.382,0.742-2.444v-0.554c0-1.08-0.234-1.905-0.704-2.475s-1.151-0.854-2.044-0.854H581.249z"/>
	<path fill="#231F20" d="M593.882,163.917v3.691h-1.729v-9.953h3.808c1.112,0,1.995,0.29,2.649,0.869
		c0.653,0.58,0.98,1.346,0.98,2.299c0,0.977-0.32,1.736-0.961,2.279c-0.64,0.543-1.537,0.814-2.689,0.814H593.882z M593.882,162.522
		h2.078c0.615,0,1.085-0.145,1.408-0.434s0.485-0.708,0.485-1.254c0-0.538-0.164-0.967-0.492-1.289s-0.779-0.486-1.354-0.496h-2.126
		V162.522z"/>
	<path fill="#231F20" d="M608.381,157.655v6.651c0,1.057-0.338,1.895-1.016,2.512c-0.676,0.618-1.578,0.926-2.703,0.926
		c-1.139,0-2.044-0.304-2.714-0.913s-1.005-1.453-1.005-2.533v-6.645h1.723v6.658c0,0.666,0.168,1.173,0.506,1.524
		s0.834,0.526,1.49,0.526c1.33,0,1.996-0.702,1.996-2.105v-6.604H608.381z"/>
	<path fill="#231F20" d="M612.469,157.655l2.871,7.629l2.864-7.629h2.235v9.953h-1.723v-3.281l0.171-4.389l-2.939,7.67h-1.237
		l-2.933-7.663l0.171,4.382v3.281h-1.723v-9.953H612.469z"/>
	<path fill="#231F20" d="M624.213,163.917v3.691h-1.729v-9.953h3.808c1.111,0,1.995,0.29,2.648,0.869
		c0.654,0.58,0.981,1.346,0.981,2.299c0,0.977-0.32,1.736-0.96,2.279c-0.641,0.543-1.537,0.814-2.69,0.814H624.213z
		 M624.213,162.522h2.078c0.615,0,1.084-0.145,1.408-0.434s0.485-0.708,0.485-1.254c0-0.538-0.164-0.967-0.492-1.289
		s-0.779-0.486-1.354-0.496h-2.126V162.522z"/>
	<path fill="#231F20" d="M636.634,165.045c0-0.438-0.153-0.775-0.462-1.012c-0.307-0.237-0.861-0.476-1.664-0.718
		s-1.439-0.51-1.914-0.807c-0.906-0.57-1.36-1.313-1.36-2.229c0-0.802,0.327-1.463,0.981-1.982c0.653-0.52,1.502-0.779,2.546-0.779
		c0.692,0,1.31,0.127,1.853,0.383s0.969,0.619,1.278,1.09s0.465,0.995,0.465,1.569h-1.723c0-0.52-0.163-0.926-0.489-1.22
		c-0.325-0.294-0.791-0.441-1.397-0.441c-0.565,0-1.004,0.121-1.315,0.362c-0.313,0.242-0.469,0.579-0.469,1.012
		c0,0.365,0.168,0.669,0.506,0.913s0.893,0.481,1.668,0.711s1.396,0.492,1.866,0.786s0.813,0.631,1.032,1.012
		s0.328,0.826,0.328,1.336c0,0.83-0.318,1.489-0.953,1.979c-0.637,0.49-1.498,0.735-2.588,0.735c-0.721,0-1.382-0.133-1.986-0.4
		c-0.604-0.267-1.072-0.635-1.408-1.104c-0.334-0.469-0.502-1.016-0.502-1.641h1.729c0,0.565,0.187,1.002,0.561,1.313
		s0.909,0.465,1.606,0.465c0.602,0,1.054-0.122,1.357-0.366C636.482,165.769,636.634,165.446,636.634,165.045z"/>
</g>
<g>
	<path fill="#231F20" d="M835.771,290.945h-1.723v-4.416H829.6v4.416h-1.73v-9.953h1.73v4.143h4.449v-4.143h1.723V290.945z"/>
	<path fill="#231F20" d="M840.871,285.709l2.291-4.717h1.914l-3.336,6.289v3.664h-1.736v-3.664l-3.344-6.289h1.922L840.871,285.709z
		"/>
	<path fill="#231F20" d="M846.156,290.945v-9.953h2.939c0.879,0,1.66,0.196,2.341,0.588s1.209,0.948,1.583,1.668
		c0.373,0.72,0.561,1.545,0.561,2.475v0.499c0,0.943-0.188,1.773-0.564,2.488s-0.912,1.267-1.606,1.654s-1.491,0.581-2.39,0.581
		H846.156z M847.885,282.387v7.178h1.129c0.906,0,1.603-0.284,2.088-0.851s0.732-1.382,0.742-2.444v-0.554
		c0-1.08-0.235-1.905-0.705-2.475c-0.469-0.57-1.15-0.854-2.043-0.854H847.885z"/>
	<path fill="#231F20" d="M858.959,287.117h-1.928v3.828h-1.729v-9.953h3.5c1.148,0,2.034,0.258,2.658,0.773
		c0.625,0.516,0.938,1.261,0.938,2.237c0,0.666-0.161,1.224-0.482,1.673s-0.77,0.795-1.344,1.037l2.236,4.145v0.089h-1.854
		L858.959,287.117z M857.031,285.723h1.777c0.584,0,1.039-0.147,1.367-0.441s0.492-0.696,0.492-1.207
		c0-0.533-0.15-0.946-0.454-1.237s-0.755-0.442-1.356-0.451h-1.826V285.723z"/>
	<path fill="#231F20" d="M869.609,288.628h-3.855l-0.807,2.317h-1.797l3.76-9.953h1.551l3.768,9.953h-1.805L869.609,288.628z
		 M866.24,287.233h2.885l-1.443-4.129L866.24,287.233z"/>
	<path fill="#231F20" d="M880.52,280.992v6.651c0,1.057-0.338,1.895-1.015,2.512s-1.578,0.926-2.704,0.926
		c-1.139,0-2.043-0.304-2.713-0.913s-1.006-1.453-1.006-2.533v-6.645h1.723v6.658c0,0.666,0.169,1.173,0.506,1.524
		c0.338,0.351,0.834,0.526,1.49,0.526c1.331,0,1.996-0.702,1.996-2.105v-6.604H880.52z"/>
	<path fill="#231F20" d="M884.096,289.564h4.518v1.381h-6.248v-9.953h1.73V289.564z"/>
	<path fill="#231F20" d="M891.766,290.945h-1.723v-9.953h1.723V290.945z"/>
	<path fill="#231F20" d="M901.486,287.705c-0.101,1.062-0.492,1.89-1.176,2.485s-1.594,0.892-2.729,0.892
		c-0.793,0-1.49-0.188-2.095-0.564s-1.069-0.91-1.397-1.603s-0.5-1.497-0.514-2.413v-0.93c0-0.939,0.167-1.766,0.5-2.481
		c0.332-0.715,0.81-1.267,1.432-1.654s1.341-0.581,2.156-0.581c1.099,0,1.982,0.297,2.652,0.892s1.061,1.437,1.17,2.526h-1.723
		c-0.082-0.715-0.291-1.231-0.626-1.548s-0.826-0.475-1.474-0.475c-0.752,0-1.329,0.275-1.732,0.825
		c-0.403,0.549-0.609,1.356-0.619,2.418v0.883c0,1.076,0.193,1.897,0.578,2.463c0.385,0.566,0.949,0.849,1.691,0.849
		c0.68,0,1.189-0.153,1.531-0.458s0.559-0.813,0.65-1.524H901.486z"/>
	<path fill="#231F20" d="M912.252,286.728h-4.006v4.218h-1.729v-9.953h6.322v1.395h-4.594v2.96h4.006V286.728z"/>
	<path fill="#231F20" d="M915.938,289.564h4.518v1.381h-6.248v-9.953h1.73V289.564z"/>
	<path fill="#231F20" d="M928.898,280.992v6.651c0,1.057-0.339,1.895-1.016,2.512s-1.578,0.926-2.703,0.926
		c-1.14,0-2.045-0.304-2.715-0.913s-1.004-1.453-1.004-2.533v-6.645h1.723v6.658c0,0.666,0.168,1.173,0.506,1.524
		c0.337,0.351,0.834,0.526,1.49,0.526c1.33,0,1.996-0.702,1.996-2.105v-6.604H928.898z"/>
	<path fill="#231F20" d="M932.568,290.945h-1.723v-9.953h1.723V290.945z"/>
	<path fill="#231F20" d="M934.695,290.945v-9.953h2.939c0.879,0,1.66,0.196,2.341,0.588s1.209,0.948,1.583,1.668
		c0.373,0.72,0.561,1.545,0.561,2.475v0.499c0,0.943-0.188,1.773-0.564,2.488s-0.912,1.267-1.606,1.654s-1.491,0.581-2.39,0.581
		H934.695z M936.424,282.387v7.178h1.129c0.906,0,1.603-0.284,2.088-0.851s0.732-1.382,0.742-2.444v-0.554
		c0-1.08-0.235-1.905-0.705-2.475c-0.469-0.57-1.15-0.854-2.043-0.854H936.424z"/>
	<path fill="#231F20" d="M949.057,289.564h4.52v1.381h-6.248v-9.953h1.729V289.564z"/>
	<path fill="#231F20" d="M960.719,286.502h-4.088v3.063h4.779v1.381h-6.508v-9.953h6.459v1.395h-4.73v2.748h4.088V286.502z"/>
	<path fill="#231F20" d="M966.324,288.778l2.529-7.786h1.9l-3.582,9.953h-1.674l-3.568-9.953h1.893L966.324,288.778z"/>
	<path fill="#231F20" d="M977.693,286.502h-4.088v3.063h4.777v1.381h-6.508v-9.953h6.461v1.395h-4.73v2.748h4.088V286.502z"/>
	<path fill="#231F20" d="M981.521,289.564h4.518v1.381h-6.248v-9.953h1.73V289.564z"/>
</g>
<g>
	<path fill="#231F20" d="M27.398,260.167h-3.305l-0.691,1.986h-1.541l3.223-8.531h1.33l3.229,8.531h-1.547L27.398,260.167z
		 M24.51,258.972h2.473l-1.236-3.539L24.51,258.972z"/>
	<path fill="#231F20" d="M32.174,262.153h-1.477v-8.531h1.477V262.153z"/>
	<path fill="#231F20" d="M37.131,258.872h-1.652v3.281h-1.482v-8.531h3c0.984,0,1.744,0.221,2.279,0.663s0.803,1.081,0.803,1.918
		c0,0.571-0.138,1.048-0.413,1.434s-0.659,0.681-1.151,0.888l1.916,3.553v0.076h-1.588L37.131,258.872z M35.479,257.677h1.523
		c0.5,0,0.891-0.126,1.172-0.378s0.422-0.597,0.422-1.034c0-0.457-0.13-0.811-0.39-1.061s-0.647-0.379-1.163-0.387h-1.564V257.677z"
		/>
	<path fill="#231F20" d="M50.982,259.376c-0.086,0.91-0.422,1.62-1.008,2.13s-1.365,0.765-2.338,0.765
		c-0.68,0-1.278-0.161-1.796-0.483s-0.917-0.78-1.198-1.374s-0.428-1.283-0.439-2.068v-0.797c0-0.805,0.143-1.514,0.428-2.127
		s0.694-1.086,1.228-1.418s1.149-0.498,1.849-0.498c0.941,0,1.699,0.255,2.273,0.765s0.908,1.231,1.002,2.165h-1.477
		c-0.07-0.613-0.249-1.056-0.536-1.327s-0.708-0.407-1.263-0.407c-0.645,0-1.14,0.235-1.485,0.707s-0.522,1.163-0.53,2.073v0.757
		c0,0.922,0.165,1.626,0.495,2.111s0.813,0.727,1.45,0.727c0.582,0,1.02-0.131,1.313-0.393s0.479-0.697,0.557-1.307H50.982z"/>
	<path fill="#231F20" d="M59.115,258.11c0,0.836-0.145,1.569-0.434,2.2s-0.702,1.115-1.239,1.453s-1.155,0.507-1.854,0.507
		c-0.691,0-1.308-0.169-1.849-0.507s-0.959-0.819-1.254-1.444s-0.444-1.346-0.448-2.162v-0.48c0-0.832,0.147-1.566,0.442-2.203
		s0.711-1.124,1.248-1.462s1.153-0.507,1.849-0.507s1.312,0.167,1.849,0.501s0.952,0.814,1.245,1.441s0.441,1.356,0.445,2.188
		V258.11z M57.633,257.665c0-0.945-0.179-1.67-0.536-2.174s-0.864-0.756-1.521-0.756c-0.641,0-1.142,0.251-1.503,0.753
		s-0.546,1.212-0.554,2.13v0.492c0,0.938,0.183,1.662,0.548,2.174s0.872,0.768,1.521,0.768c0.656,0,1.161-0.25,1.515-0.75
		s0.53-1.23,0.53-2.191V257.665z"/>
	<path fill="#231F20" d="M67.4,258.11c0,0.836-0.145,1.569-0.434,2.2s-0.702,1.115-1.239,1.453s-1.155,0.507-1.854,0.507
		c-0.691,0-1.308-0.169-1.849-0.507s-0.959-0.819-1.254-1.444s-0.444-1.346-0.448-2.162v-0.48c0-0.832,0.147-1.566,0.442-2.203
		s0.711-1.124,1.248-1.462s1.153-0.507,1.849-0.507s1.312,0.167,1.849,0.501s0.952,0.814,1.245,1.441s0.441,1.356,0.445,2.188
		V258.11z M65.918,257.665c0-0.945-0.179-1.67-0.536-2.174s-0.864-0.756-1.521-0.756c-0.641,0-1.142,0.251-1.503,0.753
		s-0.546,1.212-0.554,2.13v0.492c0,0.938,0.183,1.662,0.548,2.174s0.872,0.768,1.521,0.768c0.656,0,1.161-0.25,1.515-0.75
		s0.53-1.23,0.53-2.191V257.665z"/>
	<path fill="#231F20" d="M70.359,260.97h3.873v1.184h-5.355v-8.531h1.482V260.97z"/>
	<path fill="#231F20" d="M80.355,258.345h-3.504v2.625h4.096v1.184h-5.578v-8.531h5.537v1.195h-4.055v2.355h3.504V258.345z"/>
	<path fill="#231F20" d="M85.289,258.872h-1.652v3.281h-1.482v-8.531h3c0.984,0,1.744,0.221,2.279,0.663s0.803,1.081,0.803,1.918
		c0,0.571-0.138,1.048-0.413,1.434s-0.659,0.681-1.151,0.888l1.916,3.553v0.076H87L85.289,258.872z M83.637,257.677h1.523
		c0.5,0,0.891-0.126,1.172-0.378s0.422-0.597,0.422-1.034c0-0.457-0.13-0.811-0.39-1.061s-0.647-0.379-1.163-0.387h-1.564V257.677z"
		/>
	<path fill="#231F20" d="M94.102,259.956c0-0.375-0.132-0.664-0.396-0.867s-0.739-0.408-1.427-0.615s-1.234-0.438-1.641-0.691
		c-0.777-0.488-1.166-1.125-1.166-1.91c0-0.688,0.28-1.254,0.841-1.699s1.288-0.668,2.183-0.668c0.594,0,1.123,0.109,1.588,0.328
		s0.83,0.53,1.096,0.935s0.398,0.853,0.398,1.345h-1.477c0-0.445-0.14-0.794-0.419-1.046s-0.679-0.378-1.198-0.378
		c-0.484,0-0.86,0.104-1.128,0.311s-0.401,0.496-0.401,0.867c0,0.313,0.145,0.573,0.434,0.782s0.766,0.412,1.43,0.609
		s1.197,0.422,1.6,0.674s0.697,0.541,0.885,0.867s0.281,0.708,0.281,1.146c0,0.711-0.272,1.276-0.817,1.696s-1.284,0.63-2.218,0.63
		c-0.617,0-1.185-0.114-1.702-0.343s-0.92-0.544-1.207-0.946s-0.431-0.871-0.431-1.406h1.482c0,0.484,0.16,0.859,0.48,1.125
		s0.779,0.398,1.377,0.398c0.516,0,0.903-0.104,1.163-0.313S94.102,260.3,94.102,259.956z"/>
	<path fill="#231F20" d="M104.648,260.167h-3.305l-0.691,1.986h-1.541l3.223-8.531h1.33l3.229,8.531h-1.547L104.648,260.167z
		 M101.76,258.972h2.473l-1.236-3.539L101.76,258.972z"/>
	<path fill="#231F20" d="M114.627,262.153h-1.482l-3.803-6.053v6.053h-1.482v-8.531h1.482l3.814,6.076v-6.076h1.471V262.153z"/>
	<path fill="#231F20" d="M116.379,262.153v-8.531h2.52c0.754,0,1.423,0.168,2.007,0.504s1.036,0.813,1.356,1.43
		s0.48,1.324,0.48,2.121v0.428c0,0.809-0.161,1.52-0.483,2.133s-0.781,1.086-1.377,1.418s-1.278,0.498-2.048,0.498H116.379z
		 M117.861,254.817v6.152h0.967c0.777,0,1.374-0.243,1.79-0.729s0.628-1.185,0.636-2.095v-0.475c0-0.926-0.201-1.633-0.604-2.121
		s-0.986-0.732-1.752-0.732H117.861z"/>
</g>
<g>
	<path fill="#231F20" d="M19.843,275.376c-0.086,0.91-0.422,1.62-1.008,2.13s-1.365,0.765-2.338,0.765
		c-0.68,0-1.278-0.161-1.796-0.483s-0.917-0.78-1.198-1.374s-0.428-1.283-0.439-2.068v-0.797c0-0.805,0.143-1.514,0.428-2.127
		s0.694-1.086,1.228-1.418s1.149-0.498,1.849-0.498c0.941,0,1.699,0.255,2.273,0.765s0.908,1.231,1.002,2.165h-1.477
		c-0.07-0.613-0.249-1.056-0.536-1.327s-0.708-0.407-1.263-0.407c-0.645,0-1.14,0.235-1.485,0.707s-0.522,1.163-0.53,2.073v0.757
		c0,0.922,0.165,1.626,0.495,2.111s0.813,0.727,1.45,0.727c0.582,0,1.02-0.131,1.313-0.393s0.479-0.697,0.557-1.307H19.843z"/>
	<path fill="#231F20" d="M22.731,278.153h-1.477v-8.531h1.477V278.153z"/>
	<path fill="#231F20" d="M27.688,274.872h-1.652v3.281h-1.482v-8.531h3c0.984,0,1.744,0.221,2.279,0.663s0.803,1.081,0.803,1.918
		c0,0.571-0.138,1.048-0.413,1.434s-0.659,0.681-1.151,0.888l1.916,3.553v0.076h-1.588L27.688,274.872z M26.036,273.677h1.523
		c0.5,0,0.891-0.126,1.172-0.378s0.422-0.597,0.422-1.034c0-0.457-0.13-0.811-0.39-1.061s-0.647-0.379-1.163-0.387h-1.564V273.677z"
		/>
	<path fill="#231F20" d="M38.552,275.376c-0.086,0.91-0.422,1.62-1.008,2.13s-1.365,0.765-2.338,0.765
		c-0.68,0-1.278-0.161-1.796-0.483s-0.917-0.78-1.198-1.374s-0.428-1.283-0.439-2.068v-0.797c0-0.805,0.143-1.514,0.428-2.127
		s0.694-1.086,1.228-1.418s1.149-0.498,1.849-0.498c0.941,0,1.699,0.255,2.273,0.765s0.908,1.231,1.002,2.165h-1.477
		c-0.07-0.613-0.249-1.056-0.536-1.327s-0.708-0.407-1.263-0.407c-0.645,0-1.14,0.235-1.485,0.707s-0.522,1.163-0.53,2.073v0.757
		c0,0.922,0.165,1.626,0.495,2.111s0.813,0.727,1.45,0.727c0.582,0,1.02-0.131,1.313-0.393s0.479-0.697,0.557-1.307H38.552z"/>
	<path fill="#231F20" d="M46.116,269.622v5.701c0,0.906-0.29,1.624-0.87,2.153s-1.353,0.794-2.317,0.794
		c-0.977,0-1.752-0.261-2.326-0.782s-0.861-1.245-0.861-2.171v-5.695h1.477v5.707c0,0.57,0.145,1.006,0.434,1.307
		s0.715,0.451,1.277,0.451c1.141,0,1.711-0.602,1.711-1.805v-5.66H46.116z"/>
	<path fill="#231F20" d="M49.181,276.97h3.873v1.184h-5.355v-8.531h1.482V276.97z"/>
	<path fill="#231F20" d="M59.077,276.167h-3.305l-0.691,1.986H53.54l3.223-8.531h1.33l3.229,8.531h-1.547L59.077,276.167z
		 M56.188,274.972h2.473l-1.236-3.539L56.188,274.972z"/>
	<path fill="#231F20" d="M67.749,270.817h-2.66v7.336h-1.471v-7.336h-2.637v-1.195h6.768V270.817z"/>
	<path fill="#231F20" d="M70.433,278.153h-1.477v-8.531h1.477V278.153z"/>
	<path fill="#231F20" d="M79.022,278.153H77.54l-3.803-6.053v6.053h-1.482v-8.531h1.482l3.814,6.076v-6.076h1.471V278.153z"/>
	<path fill="#231F20" d="M87.313,277.046c-0.309,0.402-0.736,0.707-1.283,0.914s-1.168,0.311-1.863,0.311
		c-0.715,0-1.348-0.162-1.898-0.486s-0.976-0.788-1.274-1.392s-0.454-1.308-0.466-2.112v-0.668c0-1.289,0.309-2.296,0.926-3.021
		s1.479-1.087,2.584-1.087c0.949,0,1.703,0.235,2.262,0.706s0.895,1.147,1.008,2.03h-1.453c-0.164-1.027-0.76-1.541-1.787-1.541
		c-0.664,0-1.169,0.239-1.515,0.717s-0.524,1.18-0.536,2.104v0.655c0,0.921,0.194,1.636,0.583,2.146
		c0.389,0.51,0.929,0.764,1.62,0.764c0.758,0,1.297-0.172,1.617-0.516v-1.67h-1.758v-1.125h3.234V277.046z"/>
	<path fill="#231F20" d="M93.413,274.989v3.164h-1.482v-8.531h3.264c0.953,0,1.71,0.249,2.271,0.745s0.841,1.153,0.841,1.971
		c0,0.837-0.274,1.488-0.823,1.954c-0.549,0.465-1.317,0.698-2.306,0.698H93.413z M93.413,273.794h1.781
		c0.527,0,0.93-0.124,1.207-0.372s0.416-0.606,0.416-1.075c0-0.461-0.141-0.829-0.422-1.104s-0.668-0.417-1.16-0.425h-1.822V273.794
		z"/>
	<path fill="#231F20" d="M105.841,269.622v5.701c0,0.906-0.29,1.624-0.87,2.153s-1.353,0.794-2.317,0.794
		c-0.977,0-1.752-0.261-2.326-0.782s-0.861-1.245-0.861-2.171v-5.695h1.477v5.707c0,0.57,0.145,1.006,0.434,1.307
		s0.715,0.451,1.277,0.451c1.141,0,1.711-0.602,1.711-1.805v-5.66H105.841z"/>
	<path fill="#231F20" d="M109.345,269.622l2.461,6.539l2.455-6.539h1.916v8.531H114.7v-2.813l0.146-3.762l-2.52,6.574h-1.061
		l-2.514-6.568l0.146,3.756v2.813h-1.477v-8.531H109.345z"/>
	<path fill="#231F20" d="M119.411,274.989v3.164h-1.482v-8.531h3.264c0.953,0,1.71,0.249,2.271,0.745s0.841,1.153,0.841,1.971
		c0,0.837-0.274,1.488-0.823,1.954c-0.549,0.465-1.317,0.698-2.306,0.698H119.411z M119.411,273.794h1.781
		c0.527,0,0.93-0.124,1.207-0.372s0.416-0.606,0.416-1.075c0-0.461-0.141-0.829-0.422-1.104s-0.668-0.417-1.16-0.425h-1.822V273.794
		z"/>
	<path fill="#231F20" d="M130.058,275.956c0-0.375-0.132-0.664-0.396-0.867s-0.739-0.408-1.427-0.615s-1.234-0.438-1.641-0.691
		c-0.777-0.488-1.166-1.125-1.166-1.91c0-0.688,0.28-1.254,0.841-1.699s1.288-0.668,2.183-0.668c0.594,0,1.123,0.109,1.588,0.328
		s0.83,0.53,1.096,0.935s0.398,0.853,0.398,1.345h-1.477c0-0.445-0.14-0.794-0.419-1.046s-0.679-0.378-1.198-0.378
		c-0.484,0-0.86,0.104-1.128,0.311s-0.401,0.496-0.401,0.867c0,0.313,0.145,0.573,0.434,0.782s0.766,0.412,1.43,0.609
		s1.197,0.422,1.6,0.674s0.697,0.541,0.885,0.867s0.281,0.708,0.281,1.146c0,0.711-0.272,1.276-0.817,1.696s-1.284,0.63-2.218,0.63
		c-0.617,0-1.185-0.114-1.702-0.343s-0.92-0.544-1.207-0.946s-0.431-0.871-0.431-1.406h1.482c0,0.484,0.16,0.859,0.48,1.125
		s0.779,0.398,1.377,0.398c0.516,0,0.903-0.104,1.163-0.313S130.058,276.3,130.058,275.956z"/>
</g>
<rect x="395.262" y="199.534" fill="#ED1E2E" width="48.159" height="2"/>
<circle fill="#0901A4" cx="395.262" cy="200.534" r="16.432"/>
<g>
	<path fill="#27DF65" d="M392.387,195.916l2.871,7.629l2.864-7.629h2.235v9.953h-1.723v-3.281l0.171-4.389l-2.939,7.67h-1.237
		l-2.933-7.663l0.171,4.382v3.281h-1.723v-9.953H392.387z"/>
</g>
<path fill="#231F20" d="M814.509,332.331h-16.112V298.5h16.112V332.331z M799.396,331.331h14.112V299.5h-14.112V331.331z"/>
<g>
	<g>
		<linearGradient id="SVGID_12_" gradientUnits="userSpaceOnUse" x1="434.0166" y1="192.8647" x2="448.5321" y2="192.8647">
			<stop  offset="0" style="stop-color:#AFBDD6"/>
			<stop  offset="0.5" style="stop-color:#FFFFFF"/>
			<stop  offset="1" style="stop-color:#AFBDD6"/>
		</linearGradient>
		<rect x="435.797" y="182.033" fill="url(#SVGID_12_)" width="9.997" height="21.664"/>
		<linearGradient id="SVGID_13_" gradientUnits="userSpaceOnUse" x1="435.2173" y1="180.1494" x2="446.4712" y2="180.1494">
			<stop  offset="0" style="stop-color:#AFBDD6"/>
			<stop  offset="0.5" style="stop-color:#FFFFFF"/>
			<stop  offset="1" style="stop-color:#AFBDD6"/>
		</linearGradient>
		<rect x="434.629" y="178.266" fill="url(#SVGID_13_)" width="12.334" height="3.767"/>
	</g>
	<path opacity="0.6" d="M446.363,178.866v2.567h-0.569h-0.6v0.6v21.064h-8.797v-21.064v-0.6h-0.6h-0.568v-2.567H446.363
		 M446.963,178.266h-12.334v3.767h1.168v21.664h9.997v-21.664h1.169V178.266L446.963,178.266z"/>
	<g>
		
			<linearGradient id="SVGID_14_" gradientUnits="userSpaceOnUse" x1="-730.1509" y1="1084.4609" x2="-705.6136" y2="1107.2167" gradientTransform="matrix(0 -1 1 0 -645.8633 -515.6094)">
			<stop  offset="0" style="stop-color:#AFBDD6"/>
			<stop  offset="0.5" style="stop-color:#FFFFFF"/>
			<stop  offset="1" style="stop-color:#AFBDD6"/>
		</linearGradient>
		<path fill="url(#SVGID_14_)" d="M435.538,202.029c0-8.101,6.563-14.667,14.666-14.667c8.1,0,14.663,6.566,14.663,14.667
			s-6.563,14.666-14.663,14.666C442.101,216.695,435.538,210.13,435.538,202.029z"/>
	</g>
	<g opacity="0.5">
		<path d="M450.204,187.962c7.754,0,14.063,6.311,14.063,14.067c0,7.756-6.309,14.065-14.063,14.065
			c-7.756,0-14.066-6.31-14.066-14.065C436.138,194.273,442.448,187.962,450.204,187.962 M450.204,187.362
			c-8.103,0-14.666,6.566-14.666,14.667s6.563,14.666,14.666,14.666c8.1,0,14.663-6.564,14.663-14.666
			S458.303,187.362,450.204,187.362L450.204,187.362z"/>
	</g>
	<rect x="436.394" y="181.463" opacity="0.5" width="8.824" height="0.6"/>
	<g>
		<g>
			<linearGradient id="SVGID_15_" gradientUnits="userSpaceOnUse" x1="444.5576" y1="208.7305" x2="456.0249" y2="208.7305">
				<stop  offset="0" style="stop-color:#AFBDD6"/>
				<stop  offset="0.5" style="stop-color:#FFFFFF"/>
				<stop  offset="1" style="stop-color:#AFBDD6"/>
			</linearGradient>
			<path fill="url(#SVGID_15_)" d="M445.591,220.486v-19.22c0-2.37,2.064-4.292,4.611-4.292l0,0c2.545,0,4.609,1.922,4.609,4.292
				v19.22H445.591z"/>
			<path opacity="0.6" d="M455.111,220.786h-9.82v-19.52c0-2.532,2.203-4.592,4.911-4.592c2.707,0,4.909,2.06,4.909,4.592V220.786z
				 M445.89,220.187h8.621v-18.92c0-2.201-1.934-3.992-4.31-3.992c-2.377,0-4.312,1.791-4.312,3.992V220.187z"/>
		</g>
		<linearGradient id="SVGID_16_" gradientUnits="userSpaceOnUse" x1="446.4131" y1="221.2471" x2="454.8223" y2="221.2471">
			<stop  offset="0" style="stop-color:#AFBDD6"/>
			<stop  offset="0.5" style="stop-color:#FFFFFF"/>
			<stop  offset="1" style="stop-color:#AFBDD6"/>
		</linearGradient>
		<rect x="444.578" y="219.455" fill="url(#SVGID_16_)" width="11.25" height="3.584"/>
		<path opacity="0.6" d="M456.126,223.339h-11.85v-4.184h11.85V223.339z M444.876,222.74h10.65v-2.985h-10.65V222.74z"/>
	</g>
</g>
<g>
	<path fill="#231F20" d="M64.918,454.376c-0.086,0.91-0.422,1.62-1.008,2.13s-1.365,0.765-2.338,0.765
		c-0.68,0-1.278-0.161-1.796-0.483s-0.917-0.78-1.198-1.374s-0.428-1.283-0.439-2.068v-0.797c0-0.805,0.143-1.514,0.428-2.127
		s0.694-1.086,1.228-1.418s1.149-0.498,1.849-0.498c0.941,0,1.699,0.255,2.273,0.765s0.908,1.231,1.002,2.165h-1.477
		c-0.07-0.613-0.249-1.056-0.536-1.327s-0.708-0.407-1.263-0.407c-0.645,0-1.14,0.235-1.485,0.706
		c-0.346,0.472-0.522,1.163-0.53,2.074v0.756c0,0.923,0.165,1.627,0.495,2.111c0.33,0.485,0.813,0.728,1.45,0.728
		c0.582,0,1.02-0.131,1.313-0.393s0.479-0.697,0.557-1.307H64.918z"/>
	<path fill="#231F20" d="M73.051,453.11c0,0.836-0.145,1.569-0.434,2.2s-0.702,1.115-1.239,1.453s-1.155,0.507-1.854,0.507
		c-0.691,0-1.308-0.169-1.849-0.507s-0.959-0.819-1.254-1.444s-0.444-1.346-0.448-2.162v-0.48c0-0.832,0.147-1.566,0.442-2.203
		s0.711-1.124,1.248-1.462s1.153-0.507,1.849-0.507s1.312,0.167,1.849,0.501s0.952,0.814,1.245,1.441s0.441,1.356,0.445,2.188
		V453.11z M71.569,452.665c0-0.945-0.179-1.67-0.536-2.174s-0.864-0.756-1.521-0.756c-0.641,0-1.142,0.251-1.503,0.753
		s-0.546,1.212-0.554,2.13v0.492c0,0.938,0.183,1.662,0.548,2.174s0.872,0.768,1.521,0.768c0.656,0,1.161-0.25,1.515-0.75
		s0.53-1.23,0.53-2.191V452.665z"/>
	<path fill="#231F20" d="M81.336,453.11c0,0.836-0.145,1.569-0.434,2.2s-0.702,1.115-1.239,1.453s-1.155,0.507-1.854,0.507
		c-0.691,0-1.308-0.169-1.849-0.507s-0.959-0.819-1.254-1.444s-0.444-1.346-0.448-2.162v-0.48c0-0.832,0.147-1.566,0.442-2.203
		s0.711-1.124,1.248-1.462s1.153-0.507,1.849-0.507s1.312,0.167,1.849,0.501s0.952,0.814,1.245,1.441s0.441,1.356,0.445,2.188
		V453.11z M79.854,452.665c0-0.945-0.179-1.67-0.536-2.174s-0.864-0.756-1.521-0.756c-0.641,0-1.142,0.251-1.503,0.753
		s-0.546,1.212-0.554,2.13v0.492c0,0.938,0.183,1.662,0.548,2.174s0.872,0.768,1.521,0.768c0.656,0,1.161-0.25,1.515-0.75
		s0.53-1.23,0.53-2.191V452.665z"/>
	<path fill="#231F20" d="M84.295,455.97h3.873v1.184h-5.355v-8.531h1.482V455.97z"/>
	<path fill="#231F20" d="M94.292,453.345h-3.504v2.625h4.096v1.184h-5.578v-8.531h5.537v1.195h-4.055v2.355h3.504V453.345z"/>
	<path fill="#231F20" d="M99.225,453.872h-1.652v3.281H96.09v-8.531h3c0.984,0,1.744,0.221,2.279,0.663
		c0.535,0.441,0.803,1.08,0.803,1.918c0,0.57-0.138,1.048-0.413,1.434c-0.275,0.385-0.659,0.681-1.151,0.888l1.916,3.553v0.076
		h-1.588L99.225,453.872z M97.573,452.677h1.523c0.5,0,0.891-0.126,1.172-0.378s0.422-0.597,0.422-1.034
		c0-0.457-0.13-0.811-0.39-1.061s-0.647-0.379-1.163-0.387h-1.564V452.677z"/>
	<path fill="#231F20" d="M109.45,449.817h-2.66v7.336h-1.471v-7.336h-2.637v-1.195h6.768V449.817z"/>
	<path fill="#231F20" d="M115.555,453.345h-3.504v2.625h4.096v1.184h-5.578v-8.531h5.537v1.195h-4.055v2.355h3.504V453.345z"/>
	<path fill="#231F20" d="M119.276,448.622l2.461,6.539l2.455-6.539h1.916v8.531h-1.477v-2.813l0.146-3.762l-2.52,6.574h-1.061
		l-2.514-6.568l0.146,3.756v2.813h-1.477v-8.531H119.276z"/>
	<path fill="#231F20" d="M129.342,453.989v3.164h-1.482v-8.531h3.264c0.953,0,1.71,0.249,2.271,0.745s0.841,1.153,0.841,1.971
		c0,0.837-0.274,1.488-0.823,1.953c-0.549,0.466-1.317,0.698-2.306,0.698H129.342z M129.342,452.794h1.781
		c0.527,0,0.93-0.124,1.207-0.372s0.416-0.606,0.416-1.075c0-0.461-0.141-0.829-0.422-1.104s-0.668-0.417-1.16-0.425h-1.822V452.794
		z"/>
</g>
<g>
	<path fill="#231F20" d="M98.153,492.153h-1.477v-3.785h-3.814v3.785h-1.482v-8.531h1.482v3.551h3.814v-3.551h1.477V492.153z"/>
	<path fill="#231F20" d="M104.891,488.345h-3.504v2.625h4.096v1.184h-5.578v-8.531h5.537v1.195h-4.055v2.355h3.504V488.345z"/>
	<path fill="#231F20" d="M111.465,490.167h-3.305l-0.691,1.986h-1.541l3.223-8.531h1.33l3.229,8.531h-1.547L111.465,490.167z
		 M108.577,488.972h2.473l-1.236-3.539L108.577,488.972z"/>
	<path fill="#231F20" d="M120.137,484.817h-2.66v7.336h-1.471v-7.336h-2.637v-1.195h6.768V484.817z"/>
	<path fill="#231F20" d="M126.243,488.345h-3.504v2.625h4.096v1.184h-5.578v-8.531h5.537v1.195h-4.055v2.355h3.504V488.345z"/>
	<path fill="#231F20" d="M131.176,488.872h-1.652v3.281h-1.482v-8.531h3c0.984,0,1.744,0.221,2.279,0.663
		c0.535,0.441,0.803,1.08,0.803,1.918c0,0.57-0.138,1.048-0.413,1.434c-0.275,0.385-0.659,0.681-1.151,0.888l1.916,3.553v0.076
		h-1.588L131.176,488.872z M129.524,487.677h1.523c0.5,0,0.891-0.126,1.172-0.378s0.422-0.597,0.422-1.034
		c0-0.457-0.13-0.811-0.39-1.061s-0.647-0.379-1.163-0.387h-1.564V487.677z"/>
</g>
</svg>
