<?xml version="1.0" encoding="utf-8"?>
<!-- Generator: Adobe Illustrator 15.0.0, SVG Export Plug-In . SVG Version: 6.00 Build 0)  -->
<!DOCTYPE svg PUBLIC "-//W3C//DTD SVG 1.1//EN" "http://www.w3.org/Graphics/SVG/1.1/DTD/svg11.dtd">
<svg version="1.1" id="Layer_1" xmlns="http://www.w3.org/2000/svg" xmlns:xlink="http://www.w3.org/1999/xlink" x="0px" y="0px"
	 width="1200px" height="600px" viewBox="0 0 1200 600" enable-background="new 0 0 1200 600" xml:space="preserve">
<line fill="none" stroke="#000000" stroke-width="0.75" stroke-miterlimit="10" x1="170.319" y1="174.492" x2="223.095" y2="174.492"/>
<line fill="none" stroke="#000000" stroke-width="0.75" stroke-miterlimit="10" x1="169.38" y1="217.924" x2="222.681" y2="217.924"/>
<g>
	<g>
		<circle fill="#3FA084" cx="157.123" cy="174.185" r="14.648"/>
		<g opacity="0.5">
			<path fill="#231F20" d="M157.124,160.136c7.746,0,14.047,6.302,14.047,14.048s-6.302,14.048-14.047,14.048
				c-7.747,0-14.048-6.302-14.048-14.048S149.377,160.136,157.124,160.136 M157.124,159.536c-8.09,0-14.648,6.559-14.648,14.648
				c0,8.089,6.559,14.648,14.648,14.648s14.647-6.559,14.647-14.648C171.771,166.095,165.212,159.536,157.124,159.536
				L157.124,159.536z"/>
		</g>
	</g>
	<g>
		<g>
			<path fill="#FFFFFF" d="M154.565,175.837v4.746h-2.224v-12.797h4.896c1.43,0,2.565,0.373,3.406,1.118
				c0.841,0.745,1.261,1.73,1.261,2.956c0,1.255-0.412,2.232-1.235,2.93c-0.823,0.698-1.976,1.047-3.458,1.047H154.565
				L154.565,175.837z M154.565,174.044h2.672c0.791,0,1.395-0.186,1.811-0.558c0.416-0.372,0.624-0.91,0.624-1.613
				c0-0.691-0.211-1.244-0.633-1.657s-1.002-0.625-1.74-0.637h-2.733L154.565,174.044L154.565,174.044z"/>
		</g>
	</g>
</g>
<g>
	<g>
		<circle fill="#3FA084" cx="157.123" cy="217.616" r="14.648"/>
		<g opacity="0.5">
			<path fill="#231F20" d="M157.123,203.568c7.746,0,14.048,6.302,14.048,14.048c0,7.746-6.302,14.048-14.048,14.048
				s-14.048-6.302-14.048-14.048C143.075,209.87,149.377,203.568,157.123,203.568 M157.123,202.968
				c-8.089,0-14.648,6.559-14.648,14.648c0,8.089,6.559,14.648,14.648,14.648s14.648-6.559,14.648-14.648
				C171.771,209.526,165.212,202.968,157.123,202.968L157.123,202.968z"/>
		</g>
	</g>
	<g>
		<g>
			<path fill="#FFFFFF" d="M162.396,213.011h-3.99v11.004H156.2v-11.004h-3.955v-1.793h10.151V213.011z"/>
		</g>
	</g>
</g>
<g>
	<g>
		<rect x="372.5" y="119.896" fill="#E8E8E8" width="6" height="137.978"/>
		<path fill="#A8A8A8" d="M378,120.396v136.978h-5V120.396H378 M379,119.396h-7v138.978h7V119.396L379,119.396z"/>
	</g>
	<g>
		<rect x="220.731" y="90.726" fill="#E8E8E8" width="6" height="167.313"/>
		<path fill="#A8A8A8" d="M226.231,91.226v166.313h-5V91.226H226.231 M227.231,90.226h-7v168.313h7V90.226L227.231,90.226z"/>
	</g>
</g>
<polyline fill="#FCEFE3" stroke="#000000" stroke-width="0.6" stroke-miterlimit="10" points="988.944,261.22 1003.005,261.22 
	1003.005,290.94 988.944,290.94 "/>
<g>
	<rect x="172.127" y="246.094" fill="#FCEFE3" width="817.167" height="304.4"/>
	<path d="M988.9,246.472v303.8H172.333v-303.8H988.9 M989.5,245.872H171.733v305H989.5V245.872L989.5,245.872z"/>
</g>
<line fill="none" stroke="#020202" stroke-width="0.75" stroke-miterlimit="10" x1="665.13" y1="215.284" x2="665.13" y2="450.275"/>
<line fill="none" stroke="#020202" stroke-width="0.75" stroke-miterlimit="10" x1="749.422" y1="208.73" x2="749.422" y2="444.5"/>
<line fill="none" stroke="#020202" stroke-width="0.75" stroke-miterlimit="10" x1="901.388" y1="208.73" x2="901.388" y2="438.5"/>
<line fill="none" stroke="#000000" stroke-width="0.75" stroke-miterlimit="10" x1="392.675" y1="194.515" x2="422.43" y2="194.515"/>
<g enable-background="new    ">
	<path d="M371.745,91.622h-3.58l-0.749,2.152h-1.669l3.491-9.242h1.441l3.498,9.242H372.5L371.745,91.622z M368.616,90.327h2.679
		l-1.339-3.834L368.616,90.327z"/>
	<path d="M376.918,93.774h-1.6v-9.242h1.6V93.774z"/>
	<path d="M382.289,90.22h-1.79v3.555h-1.606v-9.242h3.25c1.066,0,1.89,0.239,2.469,0.718s0.87,1.171,0.87,2.077
		c0,0.619-0.149,1.137-0.448,1.554c-0.298,0.417-0.714,0.738-1.247,0.963l2.076,3.849v0.082h-1.72L382.289,90.22z M380.499,88.925
		h1.65c0.542,0,0.965-0.137,1.27-0.409c0.305-0.273,0.457-0.646,0.457-1.12c0-0.496-0.141-0.879-0.422-1.149
		c-0.282-0.271-0.702-0.41-1.26-0.419h-1.695V88.925z"/>
</g>
<g enable-background="new    ">
	<path d="M208.397,40.661h-2.882v7.947h-1.593v-7.947h-2.856v-1.295h7.332V40.661z"/>
	<path d="M215.011,44.482h-3.796v2.844h4.437v1.282h-6.043v-9.242h5.999v1.295h-4.393v2.552h3.796V44.482z"/>
	<path d="M220.356,45.054h-1.79v3.555h-1.606v-9.242h3.25c1.066,0,1.89,0.239,2.469,0.718s0.87,1.171,0.87,2.077
		c0,0.619-0.149,1.137-0.448,1.554c-0.298,0.417-0.714,0.738-1.247,0.963l2.076,3.849v0.082h-1.72L220.356,45.054z M218.566,43.759
		h1.65c0.542,0,0.965-0.137,1.27-0.409c0.305-0.273,0.457-0.646,0.457-1.12c0-0.496-0.141-0.879-0.422-1.149
		c-0.282-0.271-0.702-0.41-1.26-0.419h-1.695V43.759z"/>
	<path d="M225.072,48.608v-9.242h3.167c1.045,0,1.841,0.209,2.387,0.629c0.546,0.418,0.819,1.043,0.819,1.872
		c0,0.423-0.114,0.804-0.343,1.143s-0.563,0.601-1.003,0.787c0.5,0.136,0.885,0.391,1.159,0.765c0.272,0.375,0.409,0.824,0.409,1.35
		c0,0.867-0.278,1.533-0.835,1.999c-0.556,0.466-1.353,0.698-2.39,0.698H225.072z M226.678,43.257h1.574
		c0.5,0,0.89-0.112,1.171-0.339c0.282-0.227,0.422-0.547,0.422-0.962c0-0.457-0.13-0.787-0.39-0.99
		c-0.261-0.203-0.666-0.305-1.216-0.305h-1.562V43.257z M226.678,44.438v2.888h1.784c0.503,0,0.897-0.125,1.181-0.374
		c0.284-0.25,0.425-0.598,0.425-1.041c0-0.961-0.491-1.452-1.473-1.473H226.678z"/>
	<path d="M234.968,48.608h-1.6v-9.242h1.6V48.608z"/>
	<path d="M244.274,48.608h-1.606l-4.12-6.557v6.557h-1.606v-9.242h1.606l4.132,6.582v-6.582h1.593V48.608z"/>
	<path d="M251.574,44.482h-3.796v2.844h4.437v1.282h-6.043v-9.242h5.999v1.295h-4.393v2.552h3.796V44.482z"/>
</g>
<g enable-background="new    ">
	<path d="M200.589,62.608v-9.242h3.167c1.045,0,1.841,0.209,2.387,0.629c0.546,0.418,0.819,1.043,0.819,1.872
		c0,0.423-0.114,0.804-0.343,1.143s-0.563,0.601-1.003,0.787c0.5,0.136,0.886,0.391,1.158,0.765c0.273,0.375,0.41,0.824,0.41,1.35
		c0,0.867-0.278,1.533-0.834,1.999c-0.557,0.466-1.354,0.698-2.39,0.698H200.589z M202.195,57.257h1.574
		c0.5,0,0.89-0.112,1.171-0.339c0.281-0.227,0.422-0.547,0.422-0.962c0-0.457-0.13-0.787-0.391-0.99
		c-0.26-0.203-0.665-0.305-1.215-0.305h-1.562V57.257z M202.195,58.438v2.888h1.784c0.503,0,0.897-0.125,1.181-0.374
		c0.284-0.25,0.425-0.598,0.425-1.041c0-0.961-0.491-1.452-1.473-1.473H202.195z"/>
	<path d="M214.192,58.482h-3.796v2.844h4.437v1.282h-6.043v-9.242h5.999v1.295h-4.393v2.552h3.796V58.482z"/>
	<path d="M221.314,60.456h-3.58l-0.749,2.152h-1.669l3.491-9.242h1.441l3.498,9.242h-1.676L221.314,60.456z M218.185,59.161h2.679
		l-1.339-3.834L218.185,59.161z"/>
	<path d="M228.189,59.054h-1.79v3.555h-1.606v-9.242h3.25c1.066,0,1.89,0.239,2.469,0.718s0.87,1.171,0.87,2.077
		c0,0.619-0.149,1.137-0.448,1.554c-0.298,0.417-0.714,0.738-1.247,0.963l2.076,3.849v0.082h-1.72L228.189,59.054z M226.399,57.759
		h1.65c0.542,0,0.965-0.137,1.27-0.409c0.305-0.273,0.457-0.646,0.457-1.12c0-0.496-0.141-0.879-0.422-1.149
		c-0.282-0.271-0.702-0.41-1.26-0.419h-1.695V57.759z"/>
	<path d="M234.6,62.608H233v-9.242h1.6V62.608z"/>
	<path d="M243.906,62.608H242.3l-4.12-6.557v6.557h-1.606v-9.242h1.606l4.132,6.582v-6.582h1.593V62.608z"/>
	<path d="M252.888,61.409c-0.334,0.436-0.798,0.766-1.39,0.99c-0.592,0.224-1.265,0.336-2.019,0.336
		c-0.774,0-1.46-0.176-2.057-0.527c-0.597-0.351-1.057-0.854-1.381-1.507c-0.323-0.654-0.492-1.417-0.504-2.288v-0.725
		c0-1.396,0.334-2.486,1.003-3.271s1.602-1.178,2.799-1.178c1.028,0,1.845,0.255,2.45,0.765s0.969,1.243,1.092,2.2h-1.574
		c-0.178-1.113-0.823-1.67-1.936-1.67c-0.719,0-1.266,0.259-1.641,0.777c-0.374,0.518-0.568,1.277-0.581,2.279v0.71
		c0,0.998,0.21,1.773,0.631,2.325c0.421,0.552,1.006,0.827,1.755,0.827c0.821,0,1.405-0.187,1.752-0.559v-1.81h-1.904v-1.219h3.504
		V61.409z"/>
</g>
<g enable-background="new    ">
	<path d="M392.733,149.488l2.349-7.23h1.765l-3.326,9.242h-1.555l-3.313-9.242h1.758L392.733,149.488z"/>
	<path d="M402.584,149.348h-3.58l-0.749,2.152h-1.669l3.491-9.242h1.441l3.498,9.242h-1.676L402.584,149.348z M399.455,148.053
		h2.679l-1.339-3.834L399.455,148.053z"/>
	<path d="M407.669,148.072v3.428h-1.606v-9.242h3.536c1.033,0,1.853,0.27,2.46,0.807c0.607,0.538,0.911,1.25,0.911,2.136
		c0,0.906-0.297,1.611-0.892,2.116c-0.594,0.504-1.427,0.756-2.498,0.756H407.669z M407.669,146.777h1.93
		c0.571,0,1.007-0.135,1.308-0.403s0.451-0.657,0.451-1.165c0-0.499-0.152-0.897-0.457-1.196c-0.305-0.298-0.724-0.451-1.257-0.46
		h-1.974V146.777z"/>
	<path d="M421.748,147.12c0,0.905-0.157,1.7-0.47,2.384s-0.761,1.208-1.343,1.574c-0.582,0.366-1.251,0.549-2.009,0.549
		c-0.749,0-1.417-0.183-2.003-0.549c-0.586-0.366-1.039-0.888-1.358-1.564c-0.319-0.678-0.481-1.458-0.485-2.343v-0.521
		c0-0.901,0.16-1.697,0.479-2.387c0.319-0.689,0.77-1.218,1.352-1.584c0.582-0.366,1.25-0.549,2.003-0.549s1.421,0.181,2.003,0.543
		c0.582,0.361,1.031,0.882,1.349,1.562c0.317,0.679,0.478,1.47,0.482,2.37V147.12z M420.142,146.638c0-1.024-0.194-1.81-0.581-2.354
		c-0.388-0.547-0.937-0.819-1.647-0.819c-0.694,0-1.237,0.271-1.628,0.815c-0.392,0.544-0.592,1.313-0.6,2.308v0.533
		c0,1.016,0.198,1.801,0.593,2.354c0.396,0.555,0.945,0.832,1.647,0.832c0.711,0,1.258-0.271,1.641-0.813
		c0.383-0.542,0.575-1.333,0.575-2.374V146.638z"/>
	<path d="M426.744,147.945h-1.79v3.555h-1.606v-9.242h3.25c1.066,0,1.89,0.239,2.469,0.718s0.87,1.171,0.87,2.077
		c0,0.619-0.149,1.137-0.447,1.554c-0.299,0.417-0.714,0.738-1.248,0.963l2.076,3.849v0.082h-1.72L426.744,147.945z M424.954,146.65
		h1.65c0.542,0,0.965-0.137,1.27-0.409c0.305-0.273,0.457-0.646,0.457-1.12c0-0.496-0.141-0.879-0.422-1.149
		c-0.281-0.271-0.701-0.41-1.26-0.419h-1.695V146.65z"/>
</g>
<g enable-background="new    ">
	<path d="M396.726,163.215l1.422-6.957h1.593l-2.133,9.242h-1.536l-1.758-6.748l-1.796,6.748h-1.542l-2.133-9.242h1.593l1.435,6.944
		l1.765-6.944h1.346L396.726,163.215z"/>
	<path d="M404.095,159.597l1.942-3.339h1.854l-2.793,4.583l2.856,4.659h-1.873l-1.987-3.39l-1.993,3.39h-1.866l2.863-4.659
		l-2.799-4.583h1.854L404.095,159.597z"/>
	<path d="M415.819,157.553h-2.882v7.947h-1.593v-7.947h-2.856v-1.295h7.332V157.553z"/>
	<path d="M420.428,161.945h-1.79v3.555h-1.606v-9.242h3.25c1.066,0,1.89,0.239,2.469,0.718s0.87,1.171,0.87,2.077
		c0,0.619-0.149,1.137-0.448,1.554c-0.298,0.417-0.714,0.738-1.247,0.963l2.076,3.849v0.082h-1.72L420.428,161.945z M418.638,160.65
		h1.65c0.542,0,0.965-0.137,1.27-0.409c0.305-0.273,0.457-0.646,0.457-1.12c0-0.496-0.141-0.879-0.422-1.149
		c-0.282-0.271-0.702-0.41-1.26-0.419h-1.695V160.65z"/>
</g>
<g enable-background="new    ">
	<path d="M555.361,54.416l2.666,7.084l2.66-7.084h2.076v9.242h-1.6v-3.047l0.159-4.075l-2.729,7.122h-1.149l-2.723-7.115
		l0.159,4.068v3.047h-1.6v-9.242H555.361z"/>
	<path d="M569.948,61.506h-3.58l-0.749,2.152h-1.669l3.491-9.242h1.441l3.498,9.242h-1.676L569.948,61.506z M566.818,60.211h2.679
		l-1.339-3.834L566.818,60.211z"/>
	<path d="M575.121,63.658h-1.6v-9.242h1.6V63.658z"/>
	<path d="M584.427,63.658h-1.606l-4.12-6.557v6.557h-1.606v-9.242h1.606l4.132,6.582v-6.582h1.593V63.658z"/>
	<path d="M594.393,61.277c0-0.406-0.143-0.719-0.428-0.939c-0.286-0.22-0.801-0.441-1.546-0.666s-1.337-0.474-1.777-0.749
		c-0.842-0.529-1.263-1.219-1.263-2.069c0-0.745,0.304-1.358,0.911-1.841c0.607-0.482,1.396-0.724,2.365-0.724
		c0.643,0,1.217,0.118,1.72,0.355s0.899,0.574,1.187,1.013c0.288,0.438,0.432,0.923,0.432,1.456h-1.6
		c0-0.482-0.151-0.859-0.454-1.133c-0.303-0.272-0.735-0.409-1.298-0.409c-0.525,0-0.932,0.112-1.222,0.337
		c-0.29,0.224-0.435,0.537-0.435,0.939c0,0.338,0.157,0.62,0.47,0.847s0.83,0.446,1.549,0.66s1.297,0.457,1.733,0.73
		c0.436,0.272,0.755,0.586,0.958,0.939s0.305,0.767,0.305,1.241c0,0.77-0.295,1.382-0.886,1.837
		c-0.59,0.455-1.391,0.683-2.402,0.683c-0.668,0-1.283-0.124-1.844-0.371c-0.561-0.248-0.997-0.59-1.308-1.025
		c-0.312-0.436-0.467-0.943-0.467-1.523h1.606c0,0.524,0.173,0.931,0.521,1.219s0.844,0.432,1.492,0.432
		c0.559,0,0.979-0.113,1.26-0.34C594.252,61.949,594.393,61.65,594.393,61.277z"/>
	<path d="M604.746,63.658h-1.6v-4.101h-4.133v4.101h-1.606v-9.242h1.606v3.847h4.133v-3.847h1.6V63.658z"/>
	<path d="M611.932,61.506h-3.58l-0.75,2.152h-1.669l3.491-9.242h1.441l3.497,9.242h-1.676L611.932,61.506z M608.802,60.211h2.679
		l-1.34-3.834L608.802,60.211z"/>
	<path d="M620.735,59.742h-3.72v3.916h-1.605v-9.242h5.871v1.295h-4.266v2.748h3.72V59.742z"/>
	<path d="M629.355,55.711h-2.882v7.947h-1.593v-7.947h-2.857v-1.295h7.332V55.711z"/>
</g>
<g enable-background="new    ">
	<path d="M569.427,73.278c0,0.905-0.157,1.7-0.47,2.384s-0.761,1.208-1.343,1.574c-0.582,0.366-1.251,0.549-2.009,0.549
		c-0.749,0-1.417-0.183-2.003-0.549c-0.586-0.366-1.039-0.888-1.358-1.564c-0.319-0.678-0.481-1.458-0.485-2.343v-0.521
		c0-0.901,0.16-1.697,0.479-2.387c0.319-0.689,0.77-1.218,1.352-1.584c0.582-0.366,1.25-0.549,2.003-0.549s1.421,0.181,2.003,0.543
		c0.582,0.361,1.031,0.882,1.349,1.562c0.317,0.679,0.478,1.47,0.482,2.37V73.278z M567.821,72.796c0-1.024-0.194-1.81-0.581-2.354
		c-0.388-0.547-0.937-0.819-1.647-0.819c-0.694,0-1.237,0.271-1.628,0.815c-0.392,0.544-0.592,1.313-0.6,2.308v0.533
		c0,1.016,0.198,1.801,0.593,2.354c0.396,0.555,0.945,0.832,1.647,0.832c0.711,0,1.258-0.271,1.641-0.813
		c0.383-0.542,0.575-1.333,0.575-2.374V72.796z"/>
	<path d="M572.721,77.658h-1.6v-9.242h1.6V77.658z"/>
	<path d="M576.301,76.376h4.196v1.282h-5.802v-9.242h1.606V76.376z"/>
	<path d="M586.572,74.23v3.428h-1.606v-9.242h3.536c1.033,0,1.853,0.27,2.459,0.807c0.607,0.538,0.911,1.25,0.911,2.136
		c0,0.906-0.297,1.611-0.892,2.116c-0.595,0.504-1.427,0.756-2.498,0.756H586.572z M586.572,72.936h1.93
		c0.571,0,1.007-0.135,1.308-0.403s0.451-0.657,0.451-1.165c0-0.499-0.152-0.897-0.457-1.196c-0.305-0.298-0.724-0.451-1.257-0.46
		h-1.974V72.936z"/>
	<path d="M600.035,68.416v6.176c0,0.982-0.314,1.76-0.942,2.333c-0.629,0.573-1.465,0.86-2.511,0.86
		c-1.058,0-1.898-0.282-2.52-0.848c-0.622-0.564-0.933-1.349-0.933-2.352v-6.17h1.6v6.183c0,0.618,0.157,1.09,0.47,1.415
		c0.313,0.326,0.774,0.489,1.384,0.489c1.236,0,1.854-0.651,1.854-1.955v-6.132H600.035z"/>
	<path d="M603.831,68.416l2.666,7.084l2.659-7.084h2.076v9.242h-1.6v-3.047l0.158-4.075l-2.729,7.122h-1.149l-2.724-7.115
		l0.159,4.068v3.047h-1.6v-9.242H603.831z"/>
	<path d="M614.736,74.23v3.428h-1.605v-9.242h3.535c1.033,0,1.853,0.27,2.46,0.807c0.606,0.538,0.911,1.25,0.911,2.136
		c0,0.906-0.298,1.611-0.893,2.116c-0.594,0.504-1.427,0.756-2.498,0.756H614.736z M614.736,72.936h1.93
		c0.571,0,1.008-0.135,1.308-0.403s0.45-0.657,0.45-1.165c0-0.499-0.152-0.897-0.457-1.196c-0.305-0.298-0.723-0.451-1.256-0.46
		h-1.975V72.936z"/>
</g>
<g enable-background="new    ">
	<path d="M440.787,343.5v-9.242h3.167c1.045,0,1.841,0.209,2.387,0.629c0.546,0.418,0.819,1.043,0.819,1.872
		c0,0.423-0.114,0.804-0.343,1.143s-0.563,0.601-1.003,0.787c0.5,0.136,0.886,0.391,1.158,0.765c0.273,0.375,0.41,0.824,0.41,1.35
		c0,0.867-0.278,1.533-0.834,1.999c-0.557,0.466-1.354,0.698-2.39,0.698H440.787z M442.393,338.148h1.574
		c0.5,0,0.89-0.112,1.171-0.339c0.281-0.227,0.422-0.547,0.422-0.962c0-0.457-0.13-0.787-0.391-0.99
		c-0.26-0.203-0.665-0.305-1.215-0.305h-1.562V338.148z M442.393,339.33v2.888h1.784c0.503,0,0.897-0.125,1.181-0.374
		c0.284-0.25,0.425-0.598,0.425-1.041c0-0.961-0.491-1.452-1.473-1.473H442.393z"/>
	<path d="M456.364,339.12c0,0.905-0.157,1.7-0.47,2.384s-0.761,1.208-1.343,1.574c-0.582,0.366-1.251,0.549-2.009,0.549
		c-0.749,0-1.417-0.183-2.003-0.549c-0.586-0.366-1.039-0.888-1.358-1.564c-0.319-0.678-0.481-1.458-0.485-2.343v-0.521
		c0-0.901,0.16-1.697,0.479-2.387c0.319-0.689,0.77-1.218,1.352-1.584c0.582-0.366,1.25-0.549,2.003-0.549s1.421,0.181,2.003,0.543
		c0.582,0.361,1.031,0.882,1.349,1.562c0.317,0.679,0.478,1.47,0.482,2.37V339.12z M454.758,338.638c0-1.024-0.194-1.81-0.581-2.354
		c-0.388-0.547-0.937-0.819-1.647-0.819c-0.694,0-1.237,0.271-1.628,0.815c-0.392,0.544-0.592,1.313-0.6,2.308v0.533
		c0,1.016,0.198,1.801,0.593,2.354c0.396,0.555,0.945,0.832,1.647,0.832c0.711,0,1.258-0.271,1.641-0.813
		c0.383-0.542,0.575-1.333,0.575-2.374V338.638z"/>
	<path d="M465.34,339.12c0,0.905-0.157,1.7-0.47,2.384s-0.761,1.208-1.343,1.574c-0.582,0.366-1.251,0.549-2.009,0.549
		c-0.749,0-1.417-0.183-2.003-0.549c-0.586-0.366-1.039-0.888-1.358-1.564c-0.319-0.678-0.481-1.458-0.485-2.343v-0.521
		c0-0.901,0.16-1.697,0.479-2.387c0.319-0.689,0.77-1.218,1.352-1.584c0.582-0.366,1.25-0.549,2.003-0.549s1.421,0.181,2.003,0.543
		c0.582,0.361,1.031,0.882,1.349,1.562c0.317,0.679,0.478,1.47,0.482,2.37V339.12z M463.734,338.638c0-1.024-0.194-1.81-0.581-2.354
		c-0.388-0.547-0.937-0.819-1.647-0.819c-0.694,0-1.237,0.271-1.628,0.815c-0.392,0.544-0.592,1.313-0.6,2.308v0.533
		c0,1.016,0.198,1.801,0.593,2.354c0.396,0.555,0.945,0.832,1.647,0.832c0.711,0,1.258-0.271,1.641-0.813
		c0.383-0.542,0.575-1.333,0.575-2.374V338.638z"/>
	<path d="M471.77,341.119c0-0.406-0.143-0.719-0.428-0.939c-0.286-0.22-0.801-0.441-1.546-0.666s-1.337-0.474-1.777-0.749
		c-0.842-0.529-1.263-1.219-1.263-2.069c0-0.745,0.304-1.358,0.911-1.841c0.607-0.482,1.396-0.724,2.365-0.724
		c0.643,0,1.217,0.118,1.72,0.355s0.899,0.574,1.187,1.013c0.288,0.438,0.432,0.923,0.432,1.456h-1.6
		c0-0.482-0.151-0.859-0.454-1.133c-0.303-0.272-0.735-0.409-1.298-0.409c-0.525,0-0.932,0.112-1.222,0.337
		c-0.29,0.224-0.435,0.537-0.435,0.939c0,0.338,0.157,0.62,0.47,0.847s0.83,0.446,1.549,0.66s1.297,0.457,1.733,0.73
		c0.436,0.272,0.755,0.586,0.958,0.939s0.305,0.767,0.305,1.241c0,0.77-0.295,1.382-0.886,1.837
		c-0.59,0.455-1.391,0.683-2.402,0.683c-0.668,0-1.283-0.124-1.844-0.371c-0.561-0.248-0.997-0.59-1.308-1.025
		c-0.312-0.436-0.467-0.943-0.467-1.523h1.606c0,0.524,0.173,0.931,0.521,1.219s0.844,0.432,1.492,0.432
		c0.559,0,0.979-0.113,1.26-0.34C471.629,341.791,471.77,341.492,471.77,341.119z"/>
	<path d="M481.463,335.553h-2.882v7.947h-1.593v-7.947h-2.856v-1.295h7.332V335.553z"/>
	<path d="M488.077,339.374h-3.796v2.844h4.437v1.282h-6.043v-9.242h5.999v1.295h-4.393v2.552h3.796V339.374z"/>
	<path d="M493.422,339.945h-1.79v3.555h-1.606v-9.242h3.25c1.066,0,1.89,0.239,2.469,0.718s0.87,1.171,0.87,2.077
		c0,0.619-0.149,1.137-0.448,1.554c-0.298,0.417-0.714,0.738-1.247,0.963l2.076,3.849v0.082h-1.72L493.422,339.945z M491.632,338.65
		h1.65c0.542,0,0.965-0.137,1.27-0.409c0.305-0.273,0.457-0.646,0.457-1.12c0-0.496-0.141-0.879-0.422-1.149
		c-0.282-0.271-0.702-0.41-1.26-0.419h-1.695V338.65z"/>
</g>
<g enable-background="new    ">
	<path d="M452.832,354.072v3.428h-1.606v-9.242h3.536c1.033,0,1.853,0.27,2.459,0.807c0.607,0.538,0.911,1.25,0.911,2.136
		c0,0.906-0.297,1.611-0.892,2.116c-0.595,0.504-1.427,0.756-2.498,0.756H452.832z M452.832,352.777h1.93
		c0.571,0,1.007-0.135,1.308-0.403s0.451-0.657,0.451-1.165c0-0.499-0.152-0.897-0.457-1.196c-0.305-0.298-0.724-0.451-1.257-0.46
		h-1.974V352.777z"/>
	<path d="M466.295,348.258v6.176c0,0.982-0.314,1.76-0.942,2.333c-0.629,0.573-1.465,0.86-2.511,0.86
		c-1.058,0-1.898-0.282-2.52-0.848c-0.622-0.564-0.933-1.349-0.933-2.352v-6.17h1.6v6.183c0,0.618,0.157,1.09,0.47,1.415
		c0.313,0.326,0.774,0.489,1.384,0.489c1.236,0,1.854-0.651,1.854-1.955v-6.132H466.295z"/>
	<path d="M470.091,348.258l2.666,7.084l2.66-7.084h2.076v9.242h-1.6v-3.047l0.159-4.075l-2.729,7.122h-1.149l-2.723-7.115
		l0.159,4.068v3.047h-1.6v-9.242H470.091z"/>
	<path d="M480.997,354.072v3.428h-1.606v-9.242h3.536c1.033,0,1.853,0.27,2.46,0.807c0.607,0.538,0.911,1.25,0.911,2.136
		c0,0.906-0.297,1.611-0.892,2.116c-0.594,0.504-1.427,0.756-2.498,0.756H480.997z M480.997,352.777h1.93
		c0.571,0,1.007-0.135,1.308-0.403s0.451-0.657,0.451-1.165c0-0.499-0.152-0.897-0.457-1.196c-0.305-0.298-0.724-0.451-1.257-0.46
		h-1.974V352.777z"/>
</g>
<g enable-background="new    ">
	<path d="M645.484,142.258l2.666,7.084l2.66-7.084h2.075v9.242h-1.6v-3.047l0.159-4.075l-2.73,7.122h-1.148l-2.723-7.115
		l0.158,4.068v3.047h-1.6v-9.242H645.484z"/>
	<path d="M662.16,147.12c0,0.905-0.157,1.7-0.471,2.384c-0.313,0.684-0.76,1.208-1.342,1.574s-1.252,0.549-2.01,0.549
		c-0.748,0-1.416-0.183-2.002-0.549s-1.039-0.888-1.358-1.564c-0.319-0.678-0.481-1.458-0.485-2.343v-0.521
		c0-0.901,0.159-1.697,0.479-2.387c0.32-0.689,0.771-1.218,1.353-1.584c0.581-0.366,1.249-0.549,2.003-0.549
		c0.753,0,1.42,0.181,2.002,0.543c0.582,0.361,1.031,0.882,1.35,1.562c0.316,0.679,0.478,1.47,0.482,2.37V147.12z M660.554,146.638
		c0-1.024-0.193-1.81-0.581-2.354c-0.387-0.547-0.936-0.819-1.646-0.819c-0.694,0-1.237,0.271-1.629,0.815
		c-0.391,0.544-0.592,1.313-0.6,2.308v0.533c0,1.016,0.197,1.801,0.594,2.354c0.396,0.555,0.944,0.832,1.646,0.832
		c0.711,0,1.258-0.271,1.642-0.813c0.383-0.542,0.574-1.333,0.574-2.374V146.638z"/>
	<path d="M669.897,143.553h-2.882v7.947h-1.594v-7.947h-2.855v-1.295h7.331V143.553z"/>
	<path d="M678.309,147.12c0,0.905-0.157,1.7-0.471,2.384c-0.313,0.684-0.76,1.208-1.342,1.574s-1.252,0.549-2.01,0.549
		c-0.748,0-1.416-0.183-2.002-0.549s-1.039-0.888-1.358-1.564c-0.319-0.678-0.481-1.458-0.485-2.343v-0.521
		c0-0.901,0.159-1.697,0.479-2.387c0.32-0.689,0.771-1.218,1.353-1.584c0.581-0.366,1.249-0.549,2.003-0.549
		c0.753,0,1.42,0.181,2.002,0.543c0.582,0.361,1.031,0.882,1.35,1.562c0.316,0.679,0.478,1.47,0.482,2.37V147.12z M676.702,146.638
		c0-1.024-0.193-1.81-0.581-2.354c-0.387-0.547-0.936-0.819-1.646-0.819c-0.694,0-1.237,0.271-1.629,0.815
		c-0.391,0.544-0.592,1.313-0.6,2.308v0.533c0,1.016,0.197,1.801,0.594,2.354c0.396,0.555,0.944,0.832,1.646,0.832
		c0.711,0,1.258-0.271,1.642-0.813c0.383-0.542,0.574-1.333,0.574-2.374V146.638z"/>
	<path d="M683.304,147.945h-1.79v3.555h-1.605v-9.242h3.25c1.066,0,1.889,0.239,2.469,0.718s0.869,1.171,0.869,2.077
		c0,0.619-0.148,1.137-0.447,1.554c-0.298,0.417-0.714,0.738-1.247,0.963l2.075,3.849v0.082h-1.72L683.304,147.945z M681.514,146.65
		h1.65c0.541,0,0.965-0.137,1.27-0.409c0.305-0.273,0.457-0.646,0.457-1.12c0-0.496-0.141-0.879-0.422-1.149s-0.701-0.41-1.26-0.419
		h-1.695V146.65z"/>
</g>
<g enable-background="new    ">
	<path d="M654.551,163.119c0-0.406-0.143-0.719-0.428-0.939c-0.287-0.22-0.802-0.441-1.547-0.666
		c-0.744-0.225-1.337-0.474-1.777-0.749c-0.842-0.529-1.263-1.219-1.263-2.069c0-0.745,0.304-1.358,0.911-1.841
		s1.395-0.724,2.364-0.724c0.644,0,1.217,0.118,1.72,0.355c0.504,0.237,0.9,0.574,1.188,1.013c0.287,0.438,0.432,0.923,0.432,1.456
		h-1.6c0-0.482-0.151-0.859-0.453-1.133c-0.303-0.272-0.736-0.409-1.299-0.409c-0.525,0-0.932,0.112-1.223,0.337
		c-0.289,0.224-0.434,0.537-0.434,0.939c0,0.338,0.156,0.62,0.469,0.847c0.313,0.227,0.83,0.446,1.549,0.66
		c0.72,0.214,1.297,0.457,1.733,0.73c0.437,0.272,0.755,0.586,0.958,0.939s0.305,0.767,0.305,1.241c0,0.77-0.295,1.382-0.885,1.837
		s-1.392,0.683-2.402,0.683c-0.669,0-1.283-0.124-1.844-0.371c-0.562-0.248-0.998-0.59-1.309-1.025s-0.467-0.943-0.467-1.523h1.606
		c0,0.524,0.173,0.931,0.521,1.219s0.844,0.432,1.492,0.432c0.559,0,0.979-0.113,1.26-0.34S654.551,163.492,654.551,163.119z"/>
	<path d="M664.326,156.258v6.176c0,0.982-0.314,1.76-0.943,2.333c-0.627,0.573-1.465,0.86-2.51,0.86
		c-1.059,0-1.898-0.282-2.52-0.848c-0.623-0.564-0.934-1.349-0.934-2.352v-6.17h1.6v6.183c0,0.618,0.156,1.09,0.47,1.415
		c0.313,0.326,0.774,0.489,1.384,0.489c1.236,0,1.854-0.651,1.854-1.955v-6.132H664.326z"/>
	<path d="M673.092,162.491c-0.093,0.986-0.457,1.755-1.092,2.308c-0.635,0.552-1.479,0.828-2.532,0.828
		c-0.736,0-1.385-0.175-1.946-0.523c-0.561-0.35-0.992-0.846-1.297-1.488c-0.305-0.644-0.464-1.391-0.477-2.241v-0.863
		c0-0.872,0.154-1.64,0.463-2.304c0.31-0.665,0.752-1.177,1.33-1.537c0.578-0.359,1.246-0.539,2.003-0.539
		c1.021,0,1.841,0.276,2.463,0.828c0.622,0.553,0.983,1.334,1.085,2.346h-1.6c-0.076-0.664-0.27-1.144-0.58-1.438
		s-0.768-0.441-1.368-0.441c-0.698,0-1.235,0.255-1.608,0.766c-0.375,0.511-0.566,1.259-0.575,2.246v0.819
		c0,1,0.179,1.762,0.536,2.287s0.881,0.788,1.571,0.788c0.63,0,1.104-0.142,1.422-0.426c0.317-0.283,0.519-0.755,0.603-1.415
		H673.092z"/>
	<path d="M681.021,157.553h-2.882v7.947h-1.594v-7.947h-2.855v-1.295h7.331V157.553z"/>
</g>
<g enable-background="new    ">
	<path d="M649.438,176.072v3.428h-1.606v-9.242h3.536c1.032,0,1.853,0.27,2.46,0.807c0.607,0.538,0.91,1.25,0.91,2.136
		c0,0.906-0.297,1.611-0.891,2.116c-0.596,0.504-1.428,0.756-2.498,0.756H649.438z M649.438,174.777h1.93
		c0.571,0,1.007-0.135,1.308-0.403s0.451-0.657,0.451-1.165c0-0.499-0.152-0.897-0.457-1.196c-0.305-0.298-0.725-0.451-1.258-0.46
		h-1.974V174.777z"/>
	<path d="M662.902,170.258v6.176c0,0.982-0.314,1.76-0.943,2.333s-1.465,0.86-2.51,0.86c-1.059,0-1.898-0.282-2.521-0.848
		c-0.622-0.564-0.933-1.349-0.933-2.352v-6.17h1.6v6.183c0,0.618,0.156,1.09,0.469,1.415c0.313,0.326,0.775,0.489,1.385,0.489
		c1.235,0,1.854-0.651,1.854-1.955v-6.132H662.902z"/>
	<path d="M666.697,170.258l2.666,7.084l2.66-7.084h2.076v9.242h-1.6v-3.047l0.158-4.075l-2.729,7.122h-1.149l-2.723-7.115
		l0.158,4.068v3.047h-1.6v-9.242H666.697z"/>
	<path d="M677.604,176.072v3.428h-1.606v-9.242h3.536c1.032,0,1.852,0.27,2.459,0.807c0.607,0.538,0.911,1.25,0.911,2.136
		c0,0.906-0.298,1.611-0.892,2.116c-0.595,0.504-1.428,0.756-2.498,0.756H677.604z M677.604,174.777h1.93
		c0.57,0,1.007-0.135,1.307-0.403c0.301-0.269,0.451-0.657,0.451-1.165c0-0.499-0.152-0.897-0.457-1.196
		c-0.305-0.298-0.724-0.451-1.257-0.46h-1.974V174.777z"/>
</g>
<g enable-background="new    ">
	<path d="M734.242,147.374h-3.797v2.844h4.438v1.282h-6.043v-9.242h5.998v1.295h-4.393v2.552h3.797V147.374z"/>
	<path d="M738.272,142.258l2.666,7.084l2.659-7.084h2.076v9.242h-1.6v-3.047l0.158-4.075l-2.729,7.122h-1.149l-2.724-7.115
		l0.159,4.068v3.047h-1.6v-9.242H738.272z"/>
	<path d="M752.974,147.374h-3.796v2.844h4.438v1.282h-6.043v-9.242h5.998v1.295h-4.393v2.552h3.796V147.374z"/>
	<path d="M758.318,147.945h-1.79v3.555h-1.606v-9.242h3.25c1.066,0,1.891,0.239,2.47,0.718s0.87,1.171,0.87,2.077
		c0,0.619-0.149,1.137-0.448,1.554c-0.298,0.417-0.714,0.738-1.247,0.963l2.076,3.849v0.082h-1.721L758.318,147.945z
		 M756.528,146.65h1.65c0.542,0,0.965-0.137,1.27-0.409c0.305-0.273,0.457-0.646,0.457-1.12c0-0.496-0.141-0.879-0.422-1.149
		c-0.282-0.271-0.702-0.41-1.261-0.419h-1.694V146.65z"/>
	<path d="M770.119,150.301c-0.335,0.436-0.799,0.766-1.391,0.99c-0.592,0.224-1.266,0.336-2.019,0.336
		c-0.774,0-1.46-0.176-2.057-0.527c-0.597-0.351-1.057-0.854-1.381-1.507c-0.323-0.654-0.491-1.417-0.505-2.288v-0.725
		c0-1.396,0.335-2.486,1.004-3.271c0.668-0.785,1.602-1.178,2.799-1.178c1.028,0,1.846,0.255,2.45,0.765s0.97,1.243,1.092,2.2
		h-1.574c-0.178-1.113-0.823-1.67-1.937-1.67c-0.719,0-1.266,0.259-1.641,0.777c-0.374,0.518-0.568,1.277-0.58,2.279v0.71
		c0,0.998,0.21,1.773,0.631,2.325c0.422,0.552,1.006,0.827,1.756,0.827c0.82,0,1.404-0.187,1.752-0.559v-1.81h-1.904v-1.219h3.504
		V150.301z"/>
</g>
<g enable-background="new    ">
	<path d="M723.33,165.5v-9.242h3.168c1.045,0,1.84,0.209,2.387,0.629c0.545,0.418,0.818,1.043,0.818,1.872
		c0,0.423-0.114,0.804-0.343,1.143s-0.563,0.601-1.003,0.787c0.5,0.136,0.886,0.391,1.158,0.765c0.273,0.375,0.41,0.824,0.41,1.35
		c0,0.867-0.279,1.533-0.835,1.999c-0.557,0.466-1.354,0.698-2.39,0.698H723.33z M724.936,160.148h1.574
		c0.5,0,0.891-0.112,1.172-0.339s0.422-0.547,0.422-0.962c0-0.457-0.13-0.787-0.391-0.99c-0.26-0.203-0.665-0.305-1.215-0.305
		h-1.563V160.148z M724.936,161.33v2.888h1.784c0.503,0,0.897-0.125,1.181-0.374c0.283-0.25,0.426-0.598,0.426-1.041
		c0-0.961-0.491-1.452-1.473-1.473H724.936z"/>
	<path d="M736.934,161.374h-3.797v2.844h4.438v1.282h-6.043v-9.242h5.998v1.295h-4.393v2.552h3.797V161.374z"/>
	<path d="M744.055,163.348h-3.58l-0.748,2.152h-1.67l3.491-9.242h1.44l3.498,9.242h-1.676L744.055,163.348z M740.926,162.053h2.679
		l-1.339-3.834L740.926,162.053z"/>
	<path d="M750.93,161.945h-1.79v3.555h-1.606v-9.242h3.25c1.066,0,1.891,0.239,2.47,0.718s0.87,1.171,0.87,2.077
		c0,0.619-0.149,1.137-0.448,1.554c-0.298,0.417-0.714,0.738-1.247,0.963l2.076,3.849v0.082h-1.721L750.93,161.945z M749.14,160.65
		h1.65c0.542,0,0.965-0.137,1.27-0.409c0.305-0.273,0.457-0.646,0.457-1.12c0-0.496-0.141-0.879-0.422-1.149
		c-0.282-0.271-0.702-0.41-1.261-0.419h-1.694V160.65z"/>
	<path d="M757.341,165.5h-1.6v-9.242h1.6V165.5z"/>
	<path d="M766.646,165.5h-1.605l-4.12-6.557v6.557h-1.606v-9.242h1.606l4.132,6.582v-6.582h1.594V165.5z"/>
	<path d="M775.629,164.301c-0.335,0.436-0.799,0.766-1.391,0.99c-0.592,0.224-1.266,0.336-2.019,0.336
		c-0.774,0-1.46-0.176-2.057-0.527c-0.597-0.351-1.057-0.854-1.381-1.507c-0.323-0.654-0.491-1.417-0.505-2.288v-0.725
		c0-1.396,0.335-2.486,1.004-3.271c0.668-0.785,1.602-1.178,2.799-1.178c1.028,0,1.846,0.255,2.45,0.765s0.97,1.243,1.092,2.2
		h-1.574c-0.178-1.113-0.823-1.67-1.937-1.67c-0.719,0-1.266,0.259-1.641,0.777c-0.374,0.518-0.568,1.277-0.58,2.279v0.71
		c0,0.998,0.21,1.773,0.631,2.325c0.422,0.552,1.006,0.827,1.756,0.827c0.82,0,1.404-0.187,1.752-0.559v-1.81h-1.904v-1.219h3.504
		V164.301z"/>
</g>
<g enable-background="new    ">
	<path d="M728.043,175.12c0,0.905-0.156,1.7-0.47,2.384s-0.761,1.208-1.343,1.574s-1.252,0.549-2.009,0.549
		c-0.749,0-1.417-0.183-2.003-0.549s-1.039-0.888-1.358-1.564c-0.319-0.678-0.481-1.458-0.485-2.343v-0.521
		c0-0.901,0.16-1.697,0.479-2.387s0.771-1.218,1.352-1.584c0.582-0.366,1.249-0.549,2.003-0.549s1.421,0.181,2.003,0.543
		c0.581,0.361,1.031,0.882,1.349,1.562c0.317,0.679,0.479,1.47,0.482,2.37V175.12z M726.438,174.638c0-1.024-0.194-1.81-0.581-2.354
		c-0.388-0.547-0.937-0.819-1.647-0.819c-0.693,0-1.236,0.271-1.628,0.815s-0.592,1.313-0.601,2.308v0.533
		c0,1.016,0.198,1.801,0.594,2.354c0.396,0.555,0.945,0.832,1.647,0.832c0.711,0,1.258-0.271,1.641-0.813
		c0.384-0.542,0.575-1.333,0.575-2.374V174.638z"/>
	<path d="M731.338,179.5h-1.6v-9.242h1.6V179.5z"/>
	<path d="M734.918,178.218h4.195v1.282h-5.802v-9.242h1.606V178.218z"/>
	<path d="M745.188,176.072v3.428h-1.605v-9.242h3.535c1.033,0,1.854,0.27,2.46,0.807c0.607,0.538,0.911,1.25,0.911,2.136
		c0,0.906-0.297,1.611-0.892,2.116c-0.595,0.504-1.427,0.756-2.498,0.756H745.188z M745.188,174.777h1.93
		c0.572,0,1.008-0.135,1.309-0.403c0.3-0.269,0.45-0.657,0.45-1.165c0-0.499-0.152-0.897-0.457-1.196
		c-0.305-0.298-0.724-0.451-1.257-0.46h-1.975V174.777z"/>
	<path d="M758.651,170.258v6.176c0,0.982-0.314,1.76-0.942,2.333c-0.629,0.573-1.465,0.86-2.511,0.86
		c-1.058,0-1.897-0.282-2.521-0.848c-0.621-0.564-0.933-1.349-0.933-2.352v-6.17h1.6v6.183c0,0.618,0.157,1.09,0.47,1.415
		c0.313,0.326,0.774,0.489,1.384,0.489c1.235,0,1.854-0.651,1.854-1.955v-6.132H758.651z"/>
	<path d="M762.447,170.258l2.666,7.084l2.66-7.084h2.075v9.242h-1.6v-3.047l0.159-4.075l-2.73,7.122h-1.148l-2.723-7.115
		l0.158,4.068v3.047h-1.6v-9.242H762.447z"/>
	<path d="M773.353,176.072v3.428h-1.606v-9.242h3.536c1.032,0,1.853,0.27,2.46,0.807c0.607,0.538,0.91,1.25,0.91,2.136
		c0,0.906-0.297,1.611-0.892,2.116c-0.595,0.504-1.427,0.756-2.497,0.756H773.353z M773.353,174.777h1.93
		c0.571,0,1.007-0.135,1.308-0.403s0.451-0.657,0.451-1.165c0-0.499-0.152-0.897-0.457-1.196c-0.305-0.298-0.725-0.451-1.258-0.46
		h-1.974V174.777z"/>
</g>
<g enable-background="new    ">
	<path d="M890.301,143.553h-2.882v7.947h-1.593v-7.947h-2.857v-1.295h7.332V143.553z"/>
	<path d="M898.273,142.258v6.176c0,0.982-0.314,1.76-0.942,2.333c-0.629,0.573-1.466,0.86-2.511,0.86
		c-1.059,0-1.898-0.282-2.52-0.848c-0.623-0.564-0.934-1.349-0.934-2.352v-6.17h1.6v6.183c0,0.618,0.156,1.09,0.47,1.415
		c0.313,0.326,0.774,0.489,1.384,0.489c1.236,0,1.854-0.651,1.854-1.955v-6.132H898.273z"/>
	<path d="M903.383,147.945h-1.789v3.555h-1.606v-9.242h3.25c1.066,0,1.89,0.239,2.47,0.718c0.579,0.479,0.869,1.171,0.869,2.077
		c0,0.619-0.149,1.137-0.447,1.554c-0.299,0.417-0.715,0.738-1.248,0.963l2.076,3.849v0.082h-1.721L903.383,147.945z
		 M901.594,146.65h1.65c0.541,0,0.965-0.137,1.27-0.409c0.305-0.273,0.457-0.646,0.457-1.12c0-0.496-0.141-0.879-0.423-1.149
		c-0.281-0.271-0.701-0.41-1.26-0.419h-1.694V146.65z"/>
	<path d="M915.432,151.5h-1.606l-4.12-6.557v6.557H908.1v-9.242h1.605l4.133,6.582v-6.582h1.594V151.5z"/>
</g>
<g enable-background="new    ">
	<path d="M891.079,164.301c-0.335,0.436-0.798,0.766-1.39,0.99c-0.593,0.224-1.266,0.336-2.02,0.336
		c-0.773,0-1.459-0.176-2.057-0.527c-0.596-0.351-1.057-0.854-1.38-1.507c-0.324-0.654-0.492-1.417-0.505-2.288v-0.725
		c0-1.396,0.334-2.486,1.003-3.271s1.602-1.178,2.8-1.178c1.027,0,1.845,0.255,2.449,0.765c0.605,0.51,0.97,1.243,1.092,2.2h-1.574
		c-0.178-1.113-0.822-1.67-1.936-1.67c-0.719,0-1.267,0.259-1.641,0.777c-0.375,0.518-0.568,1.277-0.581,2.279v0.71
		c0,0.998,0.21,1.773,0.632,2.325c0.421,0.552,1.006,0.827,1.755,0.827c0.821,0,1.405-0.187,1.752-0.559v-1.81h-1.904v-1.219h3.504
		V164.301z"/>
	<path d="M898.246,161.374h-3.797v2.844h4.438v1.282h-6.043v-9.242h5.998v1.295h-4.393v2.552h3.797V161.374z"/>
	<path d="M905.367,163.348h-3.58l-0.748,2.152h-1.67l3.491-9.242h1.44l3.498,9.242h-1.676L905.367,163.348z M902.238,162.053h2.679
		l-1.339-3.834L902.238,162.053z"/>
	<path d="M912.242,161.945h-1.79v3.555h-1.606v-9.242h3.25c1.066,0,1.891,0.239,2.47,0.718s0.87,1.171,0.87,2.077
		c0,0.619-0.149,1.137-0.448,1.554c-0.298,0.417-0.714,0.738-1.247,0.963l2.076,3.849v0.082h-1.721L912.242,161.945z
		 M910.452,160.65h1.65c0.542,0,0.965-0.137,1.27-0.409c0.305-0.273,0.457-0.646,0.457-1.12c0-0.496-0.141-0.879-0.422-1.149
		c-0.282-0.271-0.702-0.41-1.261-0.419h-1.694V160.65z"/>
</g>
<g enable-background="new    ">
	<path d="M878.158,175.12c0,0.905-0.156,1.7-0.47,2.384s-0.761,1.208-1.343,1.574s-1.252,0.549-2.009,0.549
		c-0.749,0-1.417-0.183-2.003-0.549s-1.039-0.888-1.358-1.564c-0.319-0.678-0.481-1.458-0.485-2.343v-0.521
		c0-0.901,0.16-1.697,0.479-2.387s0.771-1.218,1.352-1.584c0.582-0.366,1.249-0.549,2.003-0.549s1.421,0.181,2.003,0.543
		c0.581,0.361,1.031,0.882,1.349,1.562c0.317,0.679,0.479,1.47,0.482,2.37V175.12z M876.553,174.638c0-1.024-0.194-1.81-0.581-2.354
		c-0.388-0.547-0.937-0.819-1.647-0.819c-0.693,0-1.236,0.271-1.628,0.815s-0.592,1.313-0.601,2.308v0.533
		c0,1.016,0.198,1.801,0.594,2.354c0.396,0.555,0.945,0.832,1.647,0.832c0.711,0,1.258-0.271,1.641-0.813
		c0.384-0.542,0.575-1.333,0.575-2.374V174.638z"/>
	<path d="M881.453,179.5h-1.6v-9.242h1.6V179.5z"/>
	<path d="M885.033,178.218h4.195v1.282h-5.802v-9.242h1.606V178.218z"/>
	<path d="M895.303,176.072v3.428h-1.605v-9.242h3.535c1.033,0,1.854,0.27,2.46,0.807c0.607,0.538,0.911,1.25,0.911,2.136
		c0,0.906-0.297,1.611-0.892,2.116c-0.595,0.504-1.427,0.756-2.498,0.756H895.303z M895.303,174.777h1.93
		c0.572,0,1.008-0.135,1.309-0.403c0.3-0.269,0.45-0.657,0.45-1.165c0-0.499-0.152-0.897-0.457-1.196
		c-0.305-0.298-0.724-0.451-1.257-0.46h-1.975V174.777z"/>
	<path d="M908.767,170.258v6.176c0,0.982-0.314,1.76-0.942,2.333c-0.629,0.573-1.465,0.86-2.511,0.86
		c-1.058,0-1.897-0.282-2.521-0.848c-0.621-0.564-0.933-1.349-0.933-2.352v-6.17h1.6v6.183c0,0.618,0.157,1.09,0.47,1.415
		c0.313,0.326,0.774,0.489,1.384,0.489c1.235,0,1.854-0.651,1.854-1.955v-6.132H908.767z"/>
	<path d="M912.563,170.258l2.666,7.084l2.66-7.084h2.075v9.242h-1.6v-3.047l0.159-4.075l-2.73,7.122h-1.148l-2.723-7.115
		l0.158,4.068v3.047h-1.6v-9.242H912.563z"/>
	<path d="M923.468,176.072v3.428h-1.606v-9.242h3.536c1.032,0,1.853,0.27,2.46,0.807c0.607,0.538,0.91,1.25,0.91,2.136
		c0,0.906-0.297,1.611-0.892,2.116c-0.595,0.504-1.427,0.756-2.497,0.756H923.468z M923.468,174.777h1.93
		c0.571,0,1.007-0.135,1.308-0.403s0.451-0.657,0.451-1.165c0-0.499-0.152-0.897-0.457-1.196c-0.305-0.298-0.725-0.451-1.258-0.46
		h-1.974V174.777z"/>
</g>
<g enable-background="new    ">
	<path d="M773.154,65.553h-2.882V73.5h-1.593v-7.947h-2.857v-1.295h7.332V65.553z"/>
	<path d="M781.127,64.258v6.176c0,0.982-0.314,1.76-0.942,2.333c-0.629,0.573-1.466,0.86-2.511,0.86
		c-1.059,0-1.898-0.282-2.52-0.848c-0.623-0.564-0.934-1.349-0.934-2.352v-6.17h1.6v6.183c0,0.618,0.156,1.09,0.47,1.415
		c0.313,0.326,0.774,0.489,1.384,0.489c1.236,0,1.854-0.651,1.854-1.955v-6.132H781.127z"/>
	<path d="M786.236,69.945h-1.789V73.5h-1.606v-9.242h3.25c1.066,0,1.89,0.239,2.47,0.718c0.579,0.479,0.869,1.171,0.869,2.077
		c0,0.619-0.149,1.137-0.447,1.554c-0.299,0.417-0.715,0.738-1.248,0.963l2.076,3.849V73.5h-1.721L786.236,69.945z M784.447,68.65
		h1.65c0.541,0,0.965-0.137,1.27-0.409c0.305-0.273,0.457-0.646,0.457-1.12c0-0.496-0.141-0.879-0.423-1.149
		c-0.281-0.271-0.701-0.41-1.26-0.419h-1.694V68.65z"/>
	<path d="M790.953,73.5v-9.242h3.168c1.045,0,1.84,0.209,2.387,0.629c0.545,0.418,0.818,1.043,0.818,1.872
		c0,0.423-0.114,0.804-0.343,1.143s-0.563,0.601-1.003,0.787c0.5,0.136,0.886,0.391,1.158,0.765c0.273,0.375,0.41,0.824,0.41,1.35
		c0,0.867-0.279,1.533-0.835,1.999c-0.557,0.466-1.354,0.698-2.39,0.698H790.953z M792.559,68.148h1.574
		c0.5,0,0.891-0.112,1.172-0.339s0.422-0.547,0.422-0.962c0-0.457-0.13-0.787-0.391-0.99c-0.26-0.203-0.665-0.305-1.215-0.305
		h-1.563V68.148z M792.559,69.33v2.888h1.784c0.503,0,0.897-0.125,1.181-0.374c0.283-0.25,0.426-0.598,0.426-1.041
		c0-0.961-0.491-1.452-1.473-1.473H792.559z"/>
	<path d="M800.85,73.5h-1.6v-9.242h1.6V73.5z"/>
	<path d="M810.154,73.5h-1.605l-4.119-6.557V73.5h-1.606v-9.242h1.606l4.132,6.582v-6.582h1.593V73.5z"/>
	<path d="M817.455,69.374h-3.797v2.844h4.438V73.5h-6.043v-9.242h5.998v1.295h-4.393v2.552h3.797V69.374z"/>
	<path d="M827.471,71.119c0-0.406-0.143-0.719-0.428-0.939c-0.286-0.22-0.801-0.441-1.546-0.666s-1.337-0.474-1.777-0.749
		c-0.843-0.529-1.263-1.219-1.263-2.069c0-0.745,0.303-1.358,0.91-1.841s1.396-0.724,2.365-0.724c0.643,0,1.217,0.118,1.72,0.355
		s0.899,0.574,1.187,1.013c0.288,0.438,0.432,0.923,0.432,1.456h-1.6c0-0.482-0.15-0.859-0.453-1.133
		c-0.303-0.272-0.735-0.409-1.299-0.409c-0.524,0-0.932,0.112-1.222,0.337c-0.29,0.224-0.435,0.537-0.435,0.939
		c0,0.338,0.156,0.62,0.47,0.847s0.829,0.446,1.549,0.66s1.297,0.457,1.733,0.73c0.436,0.272,0.755,0.586,0.958,0.939
		s0.305,0.767,0.305,1.241c0,0.77-0.295,1.382-0.886,1.837c-0.59,0.455-1.391,0.683-2.402,0.683c-0.668,0-1.283-0.124-1.844-0.371
		c-0.561-0.248-0.997-0.59-1.308-1.025c-0.312-0.436-0.467-0.943-0.467-1.523h1.606c0,0.524,0.173,0.931,0.52,1.219
		c0.348,0.288,0.845,0.432,1.492,0.432c0.559,0,0.979-0.113,1.26-0.34S827.471,71.492,827.471,71.119z"/>
	<path d="M832.092,70.072V73.5h-1.605v-9.242h3.535c1.033,0,1.854,0.27,2.46,0.807c0.607,0.538,0.911,1.25,0.911,2.136
		c0,0.906-0.297,1.611-0.892,2.116c-0.595,0.504-1.427,0.756-2.498,0.756H832.092z M832.092,68.777h1.93
		c0.572,0,1.008-0.135,1.309-0.403c0.3-0.269,0.45-0.657,0.45-1.165c0-0.499-0.152-0.897-0.457-1.196
		c-0.305-0.298-0.724-0.451-1.257-0.46h-1.975V68.777z"/>
	<path d="M840.401,70.072V73.5h-1.606v-9.242h3.536c1.032,0,1.853,0.27,2.46,0.807c0.607,0.538,0.91,1.25,0.91,2.136
		c0,0.906-0.297,1.611-0.892,2.116c-0.595,0.504-1.427,0.756-2.497,0.756H840.401z M840.401,68.777h1.93
		c0.571,0,1.007-0.135,1.308-0.403s0.451-0.657,0.451-1.165c0-0.499-0.152-0.897-0.457-1.196c-0.305-0.298-0.725-0.451-1.258-0.46
		h-1.974V68.777z"/>
	<path d="M852.506,69.374h-3.795v2.844h4.437V73.5h-6.043v-9.242h5.999v1.295h-4.393v2.552h3.795V69.374z"/>
	<path d="M854.455,73.5v-9.242h2.729c0.817,0,1.542,0.182,2.174,0.546c0.633,0.364,1.122,0.88,1.47,1.549s0.521,1.435,0.521,2.298
		v0.463c0,0.877-0.175,1.646-0.523,2.311c-0.35,0.665-0.847,1.177-1.492,1.537c-0.646,0.359-1.385,0.539-2.218,0.539H854.455z
		 M856.061,65.553v6.665h1.048c0.843,0,1.488-0.264,1.939-0.79c0.45-0.527,0.681-1.283,0.688-2.27v-0.514
		c0-1.004-0.218-1.77-0.654-2.299c-0.436-0.528-1.068-0.793-1.897-0.793H856.061z"/>
</g>
<g enable-background="new    ">
	<path d="M1026.853,253.12c0,0.905-0.157,1.7-0.47,2.384s-0.761,1.208-1.343,1.574c-0.581,0.366-1.251,0.549-2.009,0.549
		c-0.749,0-1.416-0.183-2.003-0.549c-0.586-0.366-1.038-0.888-1.358-1.564c-0.319-0.678-0.48-1.458-0.485-2.343v-0.521
		c0-0.901,0.159-1.697,0.479-2.387c0.319-0.689,0.77-1.218,1.352-1.584s1.25-0.549,2.003-0.549s1.421,0.181,2.003,0.543
		c0.582,0.361,1.031,0.882,1.349,1.562c0.317,0.679,0.478,1.47,0.482,2.37V253.12z M1025.246,252.638c0-1.024-0.193-1.81-0.58-2.354
		c-0.388-0.547-0.937-0.819-1.647-0.819c-0.694,0-1.237,0.271-1.628,0.815c-0.392,0.544-0.592,1.313-0.6,2.308v0.533
		c0,1.016,0.197,1.801,0.593,2.354c0.396,0.555,0.944,0.832,1.647,0.832c0.711,0,1.258-0.271,1.641-0.813s0.574-1.333,0.574-2.374
		V252.638z"/>
	<path d="M1030.146,257.5h-1.6v-9.242h1.6V257.5z"/>
	<path d="M1033.727,256.218h4.196v1.282h-5.802v-9.242h1.605V256.218z"/>
	<path d="M1043.998,256.218h4.195v1.282h-5.802v-9.242h1.606V256.218z"/>
	<path d="M1054.826,253.374h-3.795v2.844h4.437v1.282h-6.043v-9.242h5.999v1.295h-4.393v2.552h3.795V253.374z"/>
	<path d="M1060.031,255.488l2.35-7.23h1.764l-3.326,9.242h-1.555l-3.313-9.242h1.759L1060.031,255.488z"/>
	<path d="M1070.588,253.374h-3.796v2.844h4.437v1.282h-6.043v-9.242h5.999v1.295h-4.393v2.552h3.796V253.374z"/>
	<path d="M1074.143,256.218h4.195v1.282h-5.801v-9.242h1.605V256.218z"/>
</g>
<g>
	<g>
		<circle fill="#3FA084" cx="665.123" cy="202.639" r="14.648"/>
		<g opacity="0.5">
			<path fill="#231F20" d="M665.123,188.591c7.746,0,14.049,6.302,14.049,14.048c0,7.746-6.303,14.048-14.049,14.048
				s-14.049-6.302-14.049-14.048C651.074,194.893,657.377,188.591,665.123,188.591 M665.123,187.991
				c-8.09,0-14.648,6.559-14.648,14.648c0,8.089,6.56,14.648,14.648,14.648s14.648-6.559,14.648-14.648
				C679.771,194.549,673.212,187.991,665.123,187.991L665.123,187.991z"/>
		</g>
	</g>
	<g>
		<g>
			<path fill="#FFFFFF" d="M661.44,196.241l3.69,9.809l3.685-9.809h2.872v12.797h-2.215v-4.219l0.222-5.643l-3.779,9.861h-1.592
				l-3.771-9.853l0.219,5.634v4.219h-2.215V196.24L661.44,196.241L661.44,196.241z"/>
		</g>
	</g>
</g>
<g>
	<g>
		<circle fill="#3FA084" cx="749.416" cy="202.639" r="14.648"/>
		<g opacity="0.5">
			<path fill="#231F20" d="M749.416,188.591c7.746,0,14.049,6.302,14.049,14.048c0,7.746-6.303,14.048-14.049,14.048
				s-14.049-6.302-14.049-14.048C735.367,194.893,741.67,188.591,749.416,188.591 M749.416,187.991
				c-8.09,0-14.648,6.559-14.648,14.648c0,8.089,6.56,14.648,14.648,14.648c8.088,0,14.648-6.559,14.648-14.648
				C764.064,194.549,757.504,187.991,749.416,187.991L749.416,187.991z"/>
		</g>
	</g>
	<g>
		<g>
			<path fill="#FFFFFF" d="M745.732,196.241l3.69,9.809l3.683-9.809h2.875v12.797h-2.216v-4.219l0.22-5.643l-3.779,9.861h-1.59
				l-3.771-9.853l0.221,5.634v4.219h-2.215V196.24L745.732,196.241L745.732,196.241z"/>
		</g>
	</g>
</g>
<g>
	<g>
		<circle fill="#3FA084" cx="901.381" cy="202.639" r="14.648"/>
		<g opacity="0.5">
			<path fill="#231F20" d="M901.381,188.591c7.746,0,14.049,6.302,14.049,14.048c0,7.746-6.303,14.048-14.049,14.048
				s-14.049-6.302-14.049-14.048C887.332,194.893,893.635,188.591,901.381,188.591 M901.381,187.991
				c-8.09,0-14.647,6.559-14.647,14.648c0,8.089,6.559,14.648,14.647,14.648s14.648-6.559,14.648-14.648
				C916.029,194.549,909.47,187.991,901.381,187.991L901.381,187.991z"/>
		</g>
	</g>
	<g>
		<g>
			<path fill="#FFFFFF" d="M897.698,196.241l3.69,9.809l3.685-9.809h2.873v12.797h-2.216v-4.219l0.222-5.643l-3.779,9.861h-1.592
				l-3.771-9.853l0.22,5.634v4.219h-2.216V196.24L897.698,196.241L897.698,196.241z"/>
		</g>
	</g>
</g>
<g>
	<g enable-background="new    ">
		<path fill="#001F82" d="M767.585,422.097h-1.758l-3.422-5.613v5.613h-1.758v-8.531h1.758l3.428,5.625v-5.625h1.752V422.097z"/>
		<path fill="#001F82" d="M776.128,418.024c0,0.84-0.148,1.576-0.445,2.209s-0.722,1.121-1.274,1.465s-1.187,0.516-1.901,0.516
			c-0.707,0-1.338-0.17-1.893-0.51s-0.984-0.825-1.289-1.456s-0.459-1.356-0.463-2.177v-0.422c0-0.84,0.151-1.579,0.454-2.218
			s0.73-1.129,1.283-1.471s1.185-0.513,1.896-0.513s1.343,0.171,1.896,0.513s0.98,0.832,1.283,1.471s0.454,1.376,0.454,2.212
			V418.024z M774.347,417.638c0-0.895-0.16-1.574-0.48-2.039s-0.777-0.697-1.371-0.697c-0.59,0-1.045,0.229-1.365,0.688
			s-0.482,1.132-0.486,2.019v0.416c0,0.871,0.16,1.547,0.48,2.027s0.781,0.721,1.383,0.721c0.59,0,1.043-0.231,1.359-0.694
			s0.477-1.138,0.48-2.024V417.638z"/>
		<path fill="#001F82" d="M780.563,418.974h-1.4v3.123h-1.758v-8.531h3.17c1.008,0,1.785,0.225,2.332,0.674s0.82,1.084,0.82,1.904
			c0,0.582-0.126,1.067-0.378,1.456s-0.634,0.698-1.146,0.929l1.846,3.486v0.082h-1.887L780.563,418.974z M779.163,417.55h1.418
			c0.441,0,0.783-0.112,1.025-0.337s0.363-0.534,0.363-0.929c0-0.402-0.114-0.719-0.343-0.949s-0.579-0.346-1.052-0.346h-1.412
			V417.55z"/>
		<path fill="#001F82" d="M787.36,413.565l2.191,6.188l2.18-6.188h2.309v8.531h-1.764v-2.332l0.176-4.025l-2.303,6.357h-1.207
			l-2.297-6.352l0.176,4.02v2.332h-1.758v-8.531H787.36z"/>
		<path fill="#001F82" d="M800.497,420.339h-3.082l-0.586,1.758h-1.869l3.176-8.531h1.629l3.193,8.531h-1.869L800.497,420.339z
			 M797.89,418.915h2.133l-1.072-3.193L797.89,418.915z"/>
		<path fill="#001F82" d="M805.513,420.685h3.732v1.412h-5.49v-8.531h1.758V420.685z"/>
	</g>
</g>
<g>
	<g enable-background="new    ">
		<path fill="#001F82" d="M921.002,422.097h-1.758l-3.422-5.613v5.613h-1.758v-8.531h1.758l3.428,5.625v-5.625h1.752V422.097z"/>
		<path fill="#001F82" d="M929.545,418.024c0,0.84-0.148,1.576-0.445,2.209s-0.722,1.121-1.274,1.465s-1.187,0.516-1.901,0.516
			c-0.707,0-1.338-0.17-1.893-0.51s-0.984-0.825-1.289-1.456s-0.459-1.356-0.463-2.177v-0.422c0-0.84,0.151-1.579,0.454-2.218
			s0.73-1.129,1.283-1.471s1.185-0.513,1.896-0.513s1.343,0.171,1.896,0.513s0.98,0.832,1.283,1.471s0.454,1.376,0.454,2.212
			V418.024z M927.764,417.638c0-0.895-0.16-1.574-0.48-2.039s-0.777-0.697-1.371-0.697c-0.59,0-1.045,0.229-1.365,0.688
			s-0.482,1.132-0.486,2.019v0.416c0,0.871,0.16,1.547,0.48,2.027s0.781,0.721,1.383,0.721c0.59,0,1.043-0.231,1.359-0.694
			s0.477-1.138,0.48-2.024V417.638z"/>
		<path fill="#001F82" d="M933.98,418.974h-1.4v3.123h-1.758v-8.531h3.17c1.008,0,1.785,0.225,2.332,0.674s0.82,1.084,0.82,1.904
			c0,0.582-0.126,1.067-0.378,1.456s-0.634,0.698-1.146,0.929l1.846,3.486v0.082h-1.887L933.98,418.974z M932.58,417.55h1.418
			c0.441,0,0.783-0.112,1.025-0.337s0.363-0.534,0.363-0.929c0-0.402-0.114-0.719-0.343-0.949s-0.579-0.346-1.052-0.346h-1.412
			V417.55z"/>
		<path fill="#001F82" d="M940.777,413.565l2.191,6.188l2.18-6.188h2.309v8.531h-1.764v-2.332l0.176-4.025l-2.303,6.357h-1.207
			l-2.297-6.352l0.176,4.02v2.332h-1.758v-8.531H940.777z"/>
		<path fill="#001F82" d="M953.914,420.339h-3.082l-0.586,1.758h-1.869l3.176-8.531h1.629l3.193,8.531h-1.869L953.914,420.339z
			 M951.307,418.915h2.133l-1.072-3.193L951.307,418.915z"/>
		<path fill="#001F82" d="M958.93,420.685h3.732v1.412h-5.49v-8.531h1.758V420.685z"/>
	</g>
</g>
<g>
	<g>
		<circle fill="#3FA084" cx="432.637" cy="194.207" r="14.648"/>
		<g opacity="0.5">
			<path fill="#231F20" d="M432.638,180.159c7.746,0,14.047,6.302,14.047,14.048s-6.302,14.048-14.047,14.048
				c-7.746,0-14.048-6.302-14.048-14.048S424.892,180.159,432.638,180.159 M432.638,179.559c-8.09,0-14.647,6.559-14.647,14.648
				s6.559,14.648,14.647,14.648s14.647-6.559,14.647-14.648C447.285,186.117,440.727,179.559,432.638,179.559L432.638,179.559z"/>
		</g>
	</g>
	<g>
		<g>
			<path fill="#FFFFFF" d="M428.955,187.809l3.691,9.809l3.683-9.809h2.874v12.797h-2.215v-4.219l0.22-5.643l-3.779,9.861h-1.591
				l-3.771-9.853l0.22,5.634v4.219h-2.215v-12.797L428.955,187.809L428.955,187.809z"/>
		</g>
	</g>
</g>
<g>
	<g>
		<path fill="#E8E8E8" d="M242.5,524.37c-4.962,0-9-4.037-9-9V391.938h6V515.37c0,1.654,1.346,3,3,3h574c1.654,0,3-1.346,3-3
			v-62.095h-57.161v-6h138.548v6H825.5v62.095c0,4.963-4.037,9-9,9H242.5z"/>
		<path fill="#A8A8A8" d="M239,392.972v122.933c0,1.93,1.57,3.5,3.5,3.5h574c1.93,0,3.5-1.57,3.5-3.5V454.31v-1h-1h-56.161v-5
			h137.548v5H826h-1v1v61.595c0,4.687-3.813,8.5-8.5,8.5h-574c-4.687,0-8.5-3.813-8.5-8.5V392.503h5 M240,391.972h-7v123.933
			c0,5.238,4.262,9.5,9.5,9.5h574c5.238,0,9.5-4.262,9.5-9.5V454.31h75.387v-7H761.839v7H819v61.595c0,1.379-1.121,2.5-2.5,2.5h-574
			c-1.378,0-2.5-1.121-2.5-2.5V391.972L240,391.972z"/>
	</g>
	<g>
		<path fill="#E8E8E8" d="M530.075,453.275v-6h56.288V110.6h-65.973c-1.653,0-3,1.346-3,3v262.337h-6V113.6c0-4.963,4.038-9,9-9
			h73.435v6h-1.461v336.676h57.618v6L530.075,453.275L530.075,453.275z"/>
		<path fill="#A8A8A8" d="M593.325,105.1v5h-0.461h-1v1v335.676v1h1h56.618v5H530.575v-5h55.288h1v-1V111.1v-1h-1h-65.473
			c-1.93,0-3.5,1.57-3.5,3.5v261.837h-5V113.6c0-4.687,3.813-8.5,8.5-8.5H593.325 M594.325,104.1h-73.935
			c-5.237,0-9.5,4.262-9.5,9.5v262.837h7V113.6c0-1.378,1.122-2.5,2.5-2.5h65.473v335.676h-56.288v7h120.906v-7h-57.618V111.1h1.461
			L594.325,104.1L594.325,104.1z"/>
	</g>
</g>
<g enable-background="new    ">
	<path d="M206.206,318.606c-0.093,0.986-0.457,1.755-1.092,2.308c-0.635,0.552-1.479,0.828-2.533,0.828
		c-0.736,0-1.385-0.175-1.945-0.523c-0.561-0.35-0.994-0.846-1.298-1.488c-0.305-0.644-0.463-1.391-0.476-2.241v-0.863
		c0-0.872,0.154-1.64,0.463-2.304c0.309-0.665,0.752-1.177,1.33-1.537c0.578-0.359,1.246-0.539,2.003-0.539
		c1.02,0,1.841,0.276,2.463,0.828c0.622,0.553,0.984,1.334,1.085,2.346h-1.6c-0.076-0.664-0.27-1.144-0.581-1.438
		c-0.312-0.294-0.767-0.441-1.368-0.441c-0.698,0-1.234,0.255-1.609,0.766c-0.374,0.511-0.566,1.259-0.574,2.246v0.819
		c0,1,0.179,1.762,0.536,2.287c0.358,0.525,0.881,0.788,1.571,0.788c0.63,0,1.104-0.142,1.422-0.426
		c0.317-0.283,0.519-0.755,0.603-1.415H206.206z"/>
	<path d="M215.016,317.235c0,0.905-0.157,1.7-0.47,2.384s-0.761,1.208-1.342,1.574c-0.582,0.366-1.252,0.549-2.009,0.549
		c-0.749,0-1.417-0.183-2.002-0.549c-0.586-0.366-1.039-0.888-1.358-1.564c-0.32-0.678-0.481-1.458-0.486-2.343v-0.521
		c0-0.901,0.16-1.697,0.479-2.387c0.32-0.689,0.771-1.218,1.353-1.584c0.582-0.366,1.249-0.549,2.002-0.549s1.421,0.181,2.002,0.543
		c0.582,0.361,1.032,0.882,1.349,1.562c0.317,0.679,0.478,1.47,0.482,2.37V317.235z M213.41,316.753c0-1.024-0.193-1.81-0.581-2.354
		c-0.387-0.547-0.936-0.819-1.647-0.819c-0.694,0-1.237,0.271-1.628,0.815c-0.391,0.544-0.591,1.313-0.6,2.308v0.533
		c0,1.016,0.198,1.801,0.594,2.354c0.396,0.555,0.944,0.832,1.647,0.832c0.711,0,1.258-0.271,1.641-0.813
		c0.383-0.542,0.574-1.333,0.574-2.374V316.753z"/>
	<path d="M223.992,317.235c0,0.905-0.157,1.7-0.47,2.384s-0.761,1.208-1.342,1.574c-0.582,0.366-1.252,0.549-2.009,0.549
		c-0.749,0-1.417-0.183-2.002-0.549c-0.586-0.366-1.039-0.888-1.358-1.564c-0.32-0.678-0.481-1.458-0.486-2.343v-0.521
		c0-0.901,0.16-1.697,0.479-2.387c0.32-0.689,0.771-1.218,1.353-1.584c0.582-0.366,1.249-0.549,2.002-0.549s1.421,0.181,2.002,0.543
		c0.582,0.361,1.032,0.882,1.349,1.562c0.317,0.679,0.478,1.47,0.482,2.37V317.235z M222.386,316.753
		c0-1.024-0.193-1.81-0.581-2.354c-0.387-0.547-0.936-0.819-1.647-0.819c-0.694,0-1.237,0.271-1.628,0.815
		c-0.391,0.544-0.591,1.313-0.6,2.308v0.533c0,1.016,0.198,1.801,0.594,2.354c0.396,0.555,0.944,0.832,1.647,0.832
		c0.711,0,1.258-0.271,1.641-0.813c0.383-0.542,0.574-1.333,0.574-2.374V316.753z"/>
	<path d="M227.197,320.333h4.196v1.282h-5.802v-9.242h1.606V320.333z"/>
	<path d="M238.026,317.489h-3.796v2.844h4.437v1.282h-6.043v-9.242h5.999v1.295h-4.393v2.552h3.796V317.489z"/>
	<path d="M243.371,318.061h-1.79v3.555h-1.606v-9.242h3.25c1.066,0,1.89,0.239,2.469,0.718s0.87,1.171,0.87,2.077
		c0,0.619-0.149,1.137-0.448,1.554c-0.298,0.417-0.714,0.738-1.247,0.963l2.076,3.849v0.082h-1.72L243.371,318.061z
		 M241.581,316.766h1.65c0.542,0,0.965-0.137,1.27-0.409c0.305-0.273,0.457-0.646,0.457-1.12c0-0.496-0.141-0.879-0.422-1.149
		c-0.282-0.271-0.702-0.41-1.26-0.419h-1.695V316.766z"/>
</g>
<polyline fill="none" stroke="#000000" stroke-width="0.6" stroke-miterlimit="10" points="172.345,392.271 278.109,392.271 
	278.109,246.483 "/>
<radialGradient id="SVGID_1_" cx="506.5552" cy="125.7651" r="20.769" gradientTransform="matrix(1 0 0 -1 8.3398 576.04)" gradientUnits="userSpaceOnUse">
	<stop  offset="0" style="stop-color:#FFFFFF"/>
	<stop  offset="1" style="stop-color:#DBDBDB"/>
</radialGradient>
<circle fill="url(#SVGID_1_)" stroke="#00725C" stroke-miterlimit="10" cx="514.895" cy="450.275" r="20.769"/>
<radialGradient id="SVGID_2_" cx="656.7891" cy="125.7651" r="20.7693" gradientTransform="matrix(1 0 0 -1 8.3398 576.04)" gradientUnits="userSpaceOnUse">
	<stop  offset="0" style="stop-color:#FFFFFF"/>
	<stop  offset="1" style="stop-color:#DBDBDB"/>
</radialGradient>
<circle fill="url(#SVGID_2_)" stroke="#00725C" stroke-miterlimit="10" cx="665.129" cy="450.275" r="20.769"/>
<radialGradient id="SVGID_3_" cx="741.082" cy="125.7651" r="20.7693" gradientTransform="matrix(1 0 0 -1 8.3398 576.04)" gradientUnits="userSpaceOnUse">
	<stop  offset="0" style="stop-color:#FFFFFF"/>
	<stop  offset="1" style="stop-color:#DBDBDB"/>
</radialGradient>
<circle fill="url(#SVGID_3_)" stroke="#00725C" stroke-miterlimit="10" cx="749.422" cy="450.275" r="20.769"/>
<radialGradient id="SVGID_4_" cx="893.0469" cy="125.7651" r="20.7693" gradientTransform="matrix(1 0 0 -1 8.3398 576.04)" gradientUnits="userSpaceOnUse">
	<stop  offset="0" style="stop-color:#FFFFFF"/>
	<stop  offset="1" style="stop-color:#DBDBDB"/>
</radialGradient>
<circle fill="url(#SVGID_4_)" stroke="#00725C" stroke-miterlimit="10" cx="901.387" cy="450.275" r="20.769"/>
<g enable-background="new    ">
	<path fill="#001F82" d="M746.475,451.225c0,0.84-0.148,1.576-0.445,2.209s-0.722,1.121-1.274,1.465s-1.187,0.516-1.901,0.516
		c-0.707,0-1.338-0.17-1.893-0.51s-0.984-0.825-1.289-1.456s-0.459-1.356-0.463-2.177v-0.422c0-0.84,0.151-1.579,0.454-2.218
		s0.73-1.129,1.283-1.471s1.185-0.513,1.896-0.513s1.343,0.171,1.896,0.513s0.98,0.832,1.283,1.471s0.454,1.376,0.454,2.212V451.225
		z M744.693,450.838c0-0.895-0.16-1.574-0.48-2.039s-0.777-0.697-1.371-0.697c-0.59,0-1.045,0.229-1.365,0.688
		s-0.482,1.132-0.486,2.019v0.416c0,0.871,0.16,1.547,0.48,2.027s0.781,0.721,1.383,0.721c0.59,0,1.043-0.231,1.359-0.694
		s0.477-1.138,0.48-2.024V450.838z"/>
	<path fill="#001F82" d="M752.885,451.811h-3.375v3.486h-1.758v-8.531h5.555v1.424h-3.797v2.203h3.375V451.811z"/>
	<path fill="#001F82" d="M759.459,451.811h-3.375v3.486h-1.758v-8.531h5.555v1.424h-3.797v2.203h3.375V451.811z"/>
</g>
<g enable-background="new    ">
	<path fill="#001F82" d="M662.182,451.225c0,0.84-0.148,1.576-0.445,2.209s-0.722,1.121-1.274,1.465s-1.187,0.516-1.901,0.516
		c-0.707,0-1.338-0.17-1.893-0.51s-0.984-0.825-1.289-1.456s-0.459-1.356-0.463-2.177v-0.422c0-0.84,0.151-1.579,0.454-2.218
		s0.73-1.129,1.283-1.471s1.185-0.513,1.896-0.513s1.343,0.171,1.896,0.513s0.98,0.832,1.283,1.471s0.454,1.376,0.454,2.212V451.225
		z M660.4,450.838c0-0.895-0.16-1.574-0.48-2.039s-0.777-0.697-1.371-0.697c-0.59,0-1.045,0.229-1.365,0.688
		s-0.482,1.132-0.486,2.019v0.416c0,0.871,0.16,1.547,0.48,2.027s0.781,0.721,1.383,0.721c0.59,0,1.043-0.231,1.359-0.694
		s0.477-1.138,0.48-2.024V450.838z"/>
	<path fill="#001F82" d="M668.592,451.811h-3.375v3.486h-1.758v-8.531h5.555v1.424h-3.797v2.203h3.375V451.811z"/>
	<path fill="#001F82" d="M675.166,451.811h-3.375v3.486h-1.758v-8.531h5.555v1.424h-3.797v2.203h3.375V451.811z"/>
</g>
<g enable-background="new    ">
	<path fill="#001F82" d="M898.44,451.225c0,0.84-0.148,1.576-0.445,2.209s-0.722,1.121-1.274,1.465s-1.187,0.516-1.901,0.516
		c-0.707,0-1.338-0.17-1.893-0.51s-0.984-0.825-1.289-1.456s-0.459-1.356-0.463-2.177v-0.422c0-0.84,0.151-1.579,0.454-2.218
		s0.73-1.129,1.283-1.471s1.185-0.513,1.896-0.513s1.343,0.171,1.896,0.513s0.98,0.832,1.283,1.471s0.454,1.376,0.454,2.212V451.225
		z M896.659,450.838c0-0.895-0.16-1.574-0.48-2.039s-0.777-0.697-1.371-0.697c-0.59,0-1.045,0.229-1.365,0.688
		s-0.482,1.132-0.486,2.019v0.416c0,0.871,0.16,1.547,0.48,2.027s0.781,0.721,1.383,0.721c0.59,0,1.043-0.231,1.359-0.694
		s0.477-1.138,0.48-2.024V450.838z"/>
	<path fill="#001F82" d="M904.851,451.811h-3.375v3.486h-1.758v-8.531h5.555v1.424h-3.797v2.203h3.375V451.811z"/>
	<path fill="#001F82" d="M911.425,451.811h-3.375v3.486h-1.758v-8.531h5.555v1.424h-3.797v2.203h3.375V451.811z"/>
</g>
<radialGradient id="SVGID_5_" cx="506.5552" cy="200.2651" r="20.769" gradientTransform="matrix(1 0 0 -1 8.3398 576.04)" gradientUnits="userSpaceOnUse">
	<stop  offset="0" style="stop-color:#FFFFFF"/>
	<stop  offset="1" style="stop-color:#DBDBDB"/>
</radialGradient>
<circle fill="url(#SVGID_5_)" stroke="#00725C" stroke-miterlimit="10" cx="514.895" cy="375.775" r="20.769"/>
<radialGradient id="SVGID_6_" cx="581.0229" cy="468.4541" r="20.7688" gradientTransform="matrix(1 0 0 -1 8.3398 576.04)" gradientUnits="userSpaceOnUse">
	<stop  offset="0" style="stop-color:#FFFFFF"/>
	<stop  offset="1" style="stop-color:#DBDBDB"/>
</radialGradient>
<circle fill="url(#SVGID_6_)" stroke="#00725C" stroke-miterlimit="10" cx="589.363" cy="107.586" r="20.769"/>
<radialGradient id="SVGID_7_" cx="368.1963" cy="381.5254" r="20.7686" gradientTransform="matrix(1 0 0 -1 8.3398 576.04)" gradientUnits="userSpaceOnUse">
	<stop  offset="0" style="stop-color:#FFFFFF"/>
	<stop  offset="1" style="stop-color:#DBDBDB"/>
</radialGradient>
<circle fill="url(#SVGID_7_)" stroke="#00725C" stroke-miterlimit="10" cx="376.536" cy="194.515" r="20.769"/>
<g enable-background="new    ">
	<path fill="#001F82" d="M373.589,194.088c0,0.84-0.148,1.576-0.445,2.209s-0.722,1.121-1.274,1.465s-1.187,0.516-1.901,0.516
		c-0.707,0-1.338-0.17-1.893-0.51s-0.984-0.825-1.289-1.456s-0.459-1.356-0.463-2.177v-0.422c0-0.84,0.151-1.579,0.454-2.218
		s0.73-1.129,1.283-1.471s1.185-0.513,1.896-0.513s1.343,0.171,1.896,0.513s0.98,0.832,1.283,1.471s0.454,1.376,0.454,2.212V194.088
		z M371.808,193.701c0-0.895-0.16-1.574-0.48-2.039s-0.777-0.697-1.371-0.697c-0.59,0-1.045,0.229-1.365,0.688
		s-0.482,1.132-0.486,2.019v0.416c0,0.871,0.16,1.547,0.48,2.027s0.781,0.721,1.383,0.721c0.59,0,1.043-0.231,1.359-0.694
		s0.477-1.138,0.48-2.024V193.701z"/>
	<path fill="#001F82" d="M379.999,194.674h-3.375v3.486h-1.758v-8.531h5.555v1.424h-3.797v2.203h3.375V194.674z"/>
	<path fill="#001F82" d="M386.573,194.674h-3.375v3.486h-1.758v-8.531h5.555v1.424h-3.797v2.203h3.375V194.674z"/>
</g>
<g>
	<path fill="#009ACA" stroke="#000000" stroke-linecap="round" stroke-linejoin="round" stroke-miterlimit="10" d="M376.099,102.739
		"/>
	<path fill="#009ACA" stroke="#000000" stroke-linecap="round" stroke-linejoin="round" stroke-miterlimit="10" d="M387.333,127.907
		l-11.202-25.167l-11.196,25.167C364.935,127.907,375.936,123.072,387.333,127.907z"/>
</g>
<g>
	<path fill="#009ACA" stroke="#000000" stroke-linecap="round" stroke-linejoin="round" stroke-miterlimit="10" d="M224.33,73.962"
		/>
	<path fill="#009ACA" stroke="#000000" stroke-linecap="round" stroke-linejoin="round" stroke-miterlimit="10" d="M235.564,99.13
		l-11.202-25.167L213.167,99.13C213.167,99.13,224.167,94.295,235.564,99.13z"/>
</g>
</svg>
