<?xml version="1.0" encoding="utf-8"?>
<!-- Generator: Adobe Illustrator 15.0.0, SVG Export Plug-In . SVG Version: 6.00 Build 0)  -->
<!DOCTYPE svg PUBLIC "-//W3C//DTD SVG 1.1//EN" "http://www.w3.org/Graphics/SVG/1.1/DTD/svg11.dtd">
<svg version="1.1" id="Layer_1" xmlns="http://www.w3.org/2000/svg" xmlns:xlink="http://www.w3.org/1999/xlink" x="0px" y="0px"
	 width="1020px" height="600px" viewBox="0 0 1020 600" enable-background="new 0 0 1020 600" xml:space="preserve">
<g>
	<ellipse fill="#F4F4F4" cx="273" cy="370.5" rx="236.5" ry="157"/>
	
		<ellipse fill="none" stroke="#F4B467" stroke-width="2" stroke-miterlimit="10" stroke-dasharray="2.0015,2.0015" cx="273" cy="370.5" rx="236.5" ry="157"/>
</g>
<g>
	<ellipse fill="#F4F4F4" cx="756" cy="370.5" rx="236.5" ry="157"/>
	
		<ellipse fill="none" stroke="#F4B467" stroke-width="2" stroke-miterlimit="10" stroke-dasharray="2.0015,2.0015" cx="756" cy="370.5" rx="236.5" ry="157"/>
</g>
<g>
	<polygon fill="#D2D3D3" points="968.824,552.309 968.824,339.194 911.262,339.194 911.262,98.441 906.262,98.441 906.262,344.194 
		963.824,344.194 963.824,552.309 911.262,552.309 911.262,366.666 853.228,366.666 853.228,153.157 848.228,153.157 
		848.228,371.666 906.262,371.666 906.262,552.309 831.912,552.309 831.912,299.156 749.471,299.156 749.471,98.441 744.471,98.441 
		744.471,304.156 826.912,304.156 826.912,552.309 820.549,552.309 820.549,401.492 750.03,401.492 750.03,326.165 697.134,326.165 
		697.134,142.026 692.134,142.026 692.134,331.165 745.03,331.165 745.03,406.492 815.549,406.492 815.549,552.309 750.425,552.309 
		750.425,423.278 674.384,423.278 674.384,194.617 669.384,194.617 669.384,428.278 745.425,428.278 745.425,552.309 
		661.354,552.309 661.354,340.846 599.764,340.846 599.764,98.441 594.764,98.441 594.764,345.846 656.354,345.846 656.354,552.309 
		599.764,552.309 599.764,367.613 541.964,367.613 541.964,144.157 536.964,144.157 536.964,372.613 594.764,372.613 
		594.764,552.309 429.208,552.309 429.208,365.721 372.83,365.721 372.83,147.47 367.83,147.47 367.83,370.721 424.208,370.721 
		424.208,552.309 347.011,552.309 347.011,291.342 282.343,291.342 282.343,101.758 277.343,101.758 277.343,296.342 
		342.011,296.342 342.011,552.309 336.354,552.309 336.354,394.15 282.343,394.15 282.343,314.081 231.418,314.081 231.418,145.579 
		226.418,145.579 226.418,319.081 277.343,319.081 277.343,399.15 331.354,399.15 331.354,552.309 280.925,552.309 280.925,412.862 
		211.756,412.862 211.756,196.032 206.756,196.032 206.756,417.862 275.925,417.862 275.925,552.309 198.728,552.309 
		198.728,337.058 118.898,337.058 118.898,103.413 113.898,103.413 113.898,342.058 193.728,342.058 193.728,552.309 
		121.026,552.309 121.026,358.132 65.125,358.132 65.125,148.174 60.125,148.174 60.125,363.132 116.026,363.132 116.026,552.309 
		17.066,552.309 17.066,557.309 1009.404,557.309 1009.404,552.309 	"/>
	<polygon fill="#999999" points="16.566,557.809 16.566,551.809 115.526,551.809 115.526,363.632 59.625,363.632 59.625,147.674 
		65.625,147.674 65.625,357.632 121.526,357.632 121.526,551.809 193.228,551.809 193.228,342.558 113.398,342.558 113.398,102.913 
		119.398,102.913 119.398,336.558 199.228,336.558 199.228,551.809 275.425,551.809 275.425,418.362 206.256,418.362 
		206.256,195.532 212.256,195.532 212.256,412.362 281.425,412.362 281.425,551.809 330.854,551.809 330.854,399.65 276.843,399.65 
		276.843,319.581 225.918,319.581 225.918,145.079 231.918,145.079 231.918,313.581 282.843,313.581 282.843,393.65 336.854,393.65 
		336.854,551.809 341.511,551.809 341.511,296.842 276.843,296.842 276.843,101.258 282.843,101.258 282.843,290.842 
		347.511,290.842 347.511,551.809 423.708,551.809 423.708,371.221 367.33,371.221 367.33,146.97 373.33,146.97 373.33,365.221 
		429.708,365.221 429.708,551.809 594.264,551.809 594.264,373.113 536.464,373.113 536.464,143.657 542.464,143.657 
		542.464,367.113 600.264,367.113 600.264,551.809 655.854,551.809 655.854,346.346 594.264,346.346 594.264,97.941 600.264,97.941 
		600.264,340.346 661.854,340.346 661.854,551.809 744.925,551.809 744.925,428.778 668.884,428.778 668.884,194.117 
		674.884,194.117 674.884,422.778 750.925,422.778 750.925,551.809 815.049,551.809 815.049,406.992 744.53,406.992 744.53,331.665 
		691.634,331.665 691.634,141.526 697.634,141.526 697.634,325.665 750.53,325.665 750.53,400.992 821.049,400.992 821.049,551.809 
		826.412,551.809 826.412,304.656 743.971,304.656 743.971,97.941 749.971,97.941 749.971,298.656 832.412,298.656 832.412,551.809 
		905.762,551.809 905.762,372.166 847.728,372.166 847.728,152.657 853.728,152.657 853.728,366.166 911.762,366.166 
		911.762,551.809 963.324,551.809 963.324,344.694 905.762,344.694 905.762,97.941 911.762,97.941 911.762,338.694 969.324,338.694 
		969.324,551.809 1009.404,551.809 1009.404,551.309 969.824,551.309 969.824,338.194 912.262,338.194 912.262,97.441 
		905.262,97.441 905.262,345.194 962.824,345.194 962.824,551.309 912.262,551.309 912.262,365.666 854.228,365.666 
		854.228,152.157 847.228,152.157 847.228,372.666 905.262,372.666 905.262,551.309 832.912,551.309 832.912,298.156 
		750.471,298.156 750.471,97.441 743.471,97.441 743.471,305.156 825.912,305.156 825.912,551.309 821.549,551.309 821.549,400.492 
		751.03,400.492 751.03,325.165 698.134,325.165 698.134,141.026 691.134,141.026 691.134,332.165 744.03,332.165 744.03,407.492 
		814.549,407.492 814.549,551.309 751.425,551.309 751.425,422.278 675.384,422.278 675.384,193.617 668.384,193.617 
		668.384,429.278 744.425,429.278 744.425,551.309 662.354,551.309 662.354,339.846 600.764,339.846 600.764,97.441 593.764,97.441 
		593.764,346.846 655.354,346.846 655.354,551.309 600.764,551.309 600.764,366.613 542.964,366.613 542.964,143.157 
		535.964,143.157 535.964,373.613 593.764,373.613 593.764,551.309 430.208,551.309 430.208,364.721 373.83,364.721 373.83,146.47 
		366.83,146.47 366.83,371.721 423.208,371.721 423.208,551.309 348.011,551.309 348.011,290.342 283.343,290.342 283.343,100.758 
		276.343,100.758 276.343,297.342 341.011,297.342 341.011,551.309 337.354,551.309 337.354,393.15 283.343,393.15 283.343,313.081 
		232.418,313.081 232.418,144.579 225.418,144.579 225.418,320.081 276.343,320.081 276.343,400.15 330.354,400.15 330.354,551.309 
		281.925,551.309 281.925,411.862 212.756,411.862 212.756,195.032 205.756,195.032 205.756,418.862 274.925,418.862 
		274.925,551.309 199.728,551.309 199.728,336.058 119.898,336.058 119.898,102.413 112.898,102.413 112.898,343.058 
		192.728,343.058 192.728,551.309 122.026,551.309 122.026,357.132 66.125,357.132 66.125,147.174 59.125,147.174 59.125,364.132 
		115.026,364.132 115.026,551.309 16.066,551.309 16.066,558.309 1009.404,558.309 1009.404,557.809 	"/>
	<polygon fill="#999999" points="969.324,338.694 911.762,338.694 911.762,97.941 905.762,97.941 905.762,344.694 963.324,344.694 
		963.324,551.809 911.762,551.809 911.762,366.166 853.728,366.166 853.728,152.657 847.728,152.657 847.728,372.166 
		905.762,372.166 905.762,551.809 832.412,551.809 832.412,298.656 749.971,298.656 749.971,97.941 743.971,97.941 743.971,304.656 
		826.412,304.656 826.412,551.809 821.049,551.809 821.049,400.992 750.53,400.992 750.53,325.665 697.634,325.665 697.634,141.526 
		691.634,141.526 691.634,331.665 744.53,331.665 744.53,406.992 815.049,406.992 815.049,551.809 750.925,551.809 750.925,422.778 
		674.884,422.778 674.884,194.117 668.884,194.117 668.884,428.778 744.925,428.778 744.925,551.809 661.854,551.809 
		661.854,340.346 600.264,340.346 600.264,97.941 594.264,97.941 594.264,346.346 655.854,346.346 655.854,551.809 600.264,551.809 
		600.264,367.113 542.464,367.113 542.464,143.657 536.464,143.657 536.464,373.113 594.264,373.113 594.264,551.809 
		429.708,551.809 429.708,365.221 373.33,365.221 373.33,146.97 367.33,146.97 367.33,371.221 423.708,371.221 423.708,551.809 
		347.511,551.809 347.511,290.842 282.843,290.842 282.843,101.258 276.843,101.258 276.843,296.842 341.511,296.842 
		341.511,551.809 336.854,551.809 336.854,393.65 282.843,393.65 282.843,313.581 231.918,313.581 231.918,145.079 225.918,145.079 
		225.918,319.581 276.843,319.581 276.843,399.65 330.854,399.65 330.854,551.809 281.425,551.809 281.425,412.362 212.256,412.362 
		212.256,195.532 206.256,195.532 206.256,418.362 275.425,418.362 275.425,551.809 199.228,551.809 199.228,336.558 
		119.398,336.558 119.398,102.913 113.398,102.913 113.398,342.558 193.228,342.558 193.228,551.809 121.526,551.809 
		121.526,357.632 65.625,357.632 65.625,147.674 59.625,147.674 59.625,363.632 115.526,363.632 115.526,551.809 16.566,551.809 
		16.566,557.809 1009.404,557.809 1009.404,557.309 17.066,557.309 17.066,552.309 116.026,552.309 116.026,363.132 60.125,363.132 
		60.125,148.174 65.125,148.174 65.125,358.132 121.026,358.132 121.026,552.309 193.728,552.309 193.728,342.058 113.898,342.058 
		113.898,103.413 118.898,103.413 118.898,337.058 198.728,337.058 198.728,552.309 275.925,552.309 275.925,417.862 
		206.756,417.862 206.756,196.032 211.756,196.032 211.756,412.862 280.925,412.862 280.925,552.309 331.354,552.309 
		331.354,399.15 277.343,399.15 277.343,319.081 226.418,319.081 226.418,145.579 231.418,145.579 231.418,314.081 282.343,314.081 
		282.343,394.15 336.354,394.15 336.354,552.309 342.011,552.309 342.011,296.342 277.343,296.342 277.343,101.758 282.343,101.758 
		282.343,291.342 347.011,291.342 347.011,552.309 424.208,552.309 424.208,370.721 367.83,370.721 367.83,147.47 372.83,147.47 
		372.83,365.721 429.208,365.721 429.208,552.309 594.764,552.309 594.764,372.613 536.964,372.613 536.964,144.157 
		541.964,144.157 541.964,367.613 599.764,367.613 599.764,552.309 656.354,552.309 656.354,345.846 594.764,345.846 
		594.764,98.441 599.764,98.441 599.764,340.846 661.354,340.846 661.354,552.309 745.425,552.309 745.425,428.278 669.384,428.278 
		669.384,194.617 674.384,194.617 674.384,423.278 750.425,423.278 750.425,552.309 815.549,552.309 815.549,406.492 
		745.03,406.492 745.03,331.165 692.134,331.165 692.134,142.026 697.134,142.026 697.134,326.165 750.03,326.165 750.03,401.492 
		820.549,401.492 820.549,552.309 826.912,552.309 826.912,304.156 744.471,304.156 744.471,98.441 749.471,98.441 749.471,299.156 
		831.912,299.156 831.912,552.309 906.262,552.309 906.262,371.666 848.228,371.666 848.228,153.157 853.228,153.157 
		853.228,366.666 911.262,366.666 911.262,552.309 963.824,552.309 963.824,344.194 906.262,344.194 906.262,98.441 911.262,98.441 
		911.262,339.194 968.824,339.194 968.824,552.309 1009.404,552.309 1009.404,551.809 969.324,551.809 	"/>
	<polygon fill="#D2D3D3" points="17,38 17,43 60.125,43 60.125,121.605 65.125,121.605 65.125,43 113.898,43 113.898,74.938 
		118.898,74.938 118.898,43 206.756,43 206.756,168.745 211.756,168.745 211.756,43 226.418,43 226.418,117.814 231.418,117.814 
		231.418,43 277.343,43 277.343,73.99 282.343,73.99 282.343,43 367.83,43 367.83,120.367 372.83,120.367 372.83,43 424.208,43 
		424.208,77.34 429.208,77.34 429.208,43 536.964,43 536.964,116.709 541.964,116.709 541.964,43 594.764,43 594.764,71.384 
		599.764,71.384 599.764,43 669.384,43 669.384,166.149 674.384,166.149 674.384,43 692.134,43 692.134,114.873 697.134,114.873 
		697.134,43 744.471,43 744.471,69.253 749.471,69.253 749.471,43 848.228,43 848.228,124.922 853.228,124.922 853.228,43 
		906.262,43 906.262,72.579 911.262,72.579 911.262,43 1009.404,43 1009.404,38 	"/>
	<polygon fill="#999999" points="911.762,43.5 911.762,73.079 905.762,73.079 905.762,43.5 853.728,43.5 853.728,125.422 
		847.728,125.422 847.728,43.5 749.971,43.5 749.971,69.753 743.971,69.753 743.971,43.5 697.634,43.5 697.634,115.373 
		691.634,115.373 691.634,43.5 674.884,43.5 674.884,166.649 668.884,166.649 668.884,43.5 600.264,43.5 600.264,71.884 
		594.264,71.884 594.264,43.5 542.464,43.5 542.464,117.209 536.464,117.209 536.464,43.5 429.708,43.5 429.708,77.84 
		423.708,77.84 423.708,43.5 373.33,43.5 373.33,120.867 367.33,120.867 367.33,43.5 282.843,43.5 282.843,74.49 276.843,74.49 
		276.843,43.5 231.918,43.5 231.918,118.314 225.918,118.314 225.918,43.5 212.256,43.5 212.256,169.245 206.256,169.245 
		206.256,43.5 119.398,43.5 119.398,75.438 113.398,75.438 113.398,43.5 65.625,43.5 65.625,122.105 59.625,122.105 59.625,43.5 
		16.5,43.5 16.5,37.5 1009.404,37.5 1009.404,37 16,37 16,44 59.125,44 59.125,122.605 66.125,122.605 66.125,44 112.898,44 
		112.898,75.938 119.898,75.938 119.898,44 205.756,44 205.756,169.745 212.756,169.745 212.756,44 225.418,44 225.418,118.814 
		232.418,118.814 232.418,44 276.343,44 276.343,74.99 283.343,74.99 283.343,44 366.83,44 366.83,121.367 373.83,121.367 
		373.83,44 423.208,44 423.208,78.34 430.208,78.34 430.208,44 535.964,44 535.964,117.709 542.964,117.709 542.964,44 593.764,44 
		593.764,72.384 600.764,72.384 600.764,44 668.384,44 668.384,167.149 675.384,167.149 675.384,44 691.134,44 691.134,115.873 
		698.134,115.873 698.134,44 743.471,44 743.471,70.253 750.471,70.253 750.471,44 847.228,44 847.228,125.922 854.228,125.922 
		854.228,44 905.262,44 905.262,73.579 912.262,73.579 912.262,44 1009.404,44 1009.404,43.5 	"/>
	<polygon fill="#999999" points="16.5,43.5 59.625,43.5 59.625,122.105 65.625,122.105 65.625,43.5 113.398,43.5 113.398,75.438 
		119.398,75.438 119.398,43.5 206.256,43.5 206.256,169.245 212.256,169.245 212.256,43.5 225.918,43.5 225.918,118.314 
		231.918,118.314 231.918,43.5 276.843,43.5 276.843,74.49 282.843,74.49 282.843,43.5 367.33,43.5 367.33,120.867 373.33,120.867 
		373.33,43.5 423.708,43.5 423.708,77.84 429.708,77.84 429.708,43.5 536.464,43.5 536.464,117.209 542.464,117.209 542.464,43.5 
		594.264,43.5 594.264,71.884 600.264,71.884 600.264,43.5 668.884,43.5 668.884,166.649 674.884,166.649 674.884,43.5 
		691.634,43.5 691.634,115.373 697.634,115.373 697.634,43.5 743.971,43.5 743.971,69.753 749.971,69.753 749.971,43.5 
		847.728,43.5 847.728,125.422 853.728,125.422 853.728,43.5 905.762,43.5 905.762,73.079 911.762,73.079 911.762,43.5 
		1009.404,43.5 1009.404,43 911.262,43 911.262,72.579 906.262,72.579 906.262,43 853.228,43 853.228,124.922 848.228,124.922 
		848.228,43 749.471,43 749.471,69.253 744.471,69.253 744.471,43 697.134,43 697.134,114.873 692.134,114.873 692.134,43 
		674.384,43 674.384,166.149 669.384,166.149 669.384,43 599.764,43 599.764,71.384 594.764,71.384 594.764,43 541.964,43 
		541.964,116.709 536.964,116.709 536.964,43 429.208,43 429.208,77.34 424.208,77.34 424.208,43 372.83,43 372.83,120.367 
		367.83,120.367 367.83,43 282.343,43 282.343,73.99 277.343,73.99 277.343,43 231.418,43 231.418,117.814 226.418,117.814 
		226.418,43 211.756,43 211.756,168.745 206.756,168.745 206.756,43 118.898,43 118.898,74.938 113.898,74.938 113.898,43 
		65.125,43 65.125,121.605 60.125,121.605 60.125,43 17,43 17,38 1009.404,38 1009.404,37.5 16.5,37.5 	"/>
</g>
<g>
	<polygon fill="#D2D3D3" points="423.708,104.803 423.708,348.713 491.219,348.713 491.219,551.803 497.219,551.803 
		497.219,342.713 429.708,342.713 429.708,104.803 	"/>
	<path fill="#999999" d="M497.719,552.303h-7v-203.09h-67.511v-244.91h7v237.91h67.511V552.303z M491.719,551.303h5v-208.09h-67.511
		v-237.91h-5v242.91h67.511V551.303z"/>
</g>
<g>
	<linearGradient id="SVGID_1_" gradientUnits="userSpaceOnUse" x1="119.1704" y1="263.8896" x2="119.1704" y2="329.6549">
		<stop  offset="0" style="stop-color:#006BCF"/>
		<stop  offset="0.5091" style="stop-color:#6EADCF"/>
		<stop  offset="1" style="stop-color:#006BCF"/>
	</linearGradient>
	<rect x="104.764" y="268.052" fill="url(#SVGID_1_)" width="28.814" height="57.489"/>
	<path opacity="0.6" fill="#231F20" d="M132.778,268.852v55.89h-27.214v-55.89H132.778 M133.578,268.052h-28.814v57.489h28.814
		V268.052L133.578,268.052z"/>
</g>
<g>
	<g>
		<path fill="#444849" d="M39.287,29.698h-1.354v-3.47h-3.497v3.47h-1.359v-7.82h1.359v3.255h3.497v-3.255h1.354V29.698z"/>
		<path fill="#444849" d="M45.942,29.698h-5.258v-0.897l2.605-2.841c0.376-0.419,0.644-0.769,0.803-1.05
			c0.159-0.281,0.239-0.563,0.239-0.846c0-0.373-0.105-0.673-0.314-0.902c-0.21-0.229-0.492-0.344-0.846-0.344
			c-0.422,0-0.75,0.129-0.983,0.387s-0.349,0.61-0.349,1.058h-1.305c0-0.476,0.108-0.905,0.325-1.287
			c0.216-0.381,0.526-0.677,0.929-0.889c0.403-0.211,0.868-0.317,1.394-0.317c0.759,0,1.358,0.191,1.796,0.572
			c0.439,0.382,0.658,0.909,0.658,1.582c0,0.39-0.11,0.799-0.33,1.228c-0.221,0.428-0.581,0.914-1.083,1.458l-1.912,2.046h3.631
			V29.698z"/>
		<path fill="#444849" d="M53.386,25.992c0,0.766-0.132,1.438-0.397,2.017c-0.265,0.578-0.644,1.022-1.136,1.332
			c-0.492,0.31-1.059,0.464-1.7,0.464c-0.634,0-1.199-0.155-1.695-0.464c-0.496-0.31-0.879-0.751-1.149-1.324
			c-0.27-0.573-0.407-1.233-0.411-1.982v-0.44c0-0.763,0.135-1.436,0.406-2.02c0.27-0.583,0.651-1.03,1.144-1.34
			c0.493-0.31,1.058-0.464,1.695-0.464s1.202,0.153,1.695,0.459c0.492,0.306,0.873,0.746,1.141,1.321
			c0.269,0.574,0.405,1.243,0.408,2.006V25.992z M52.027,25.583c0-0.867-0.164-1.531-0.491-1.993
			c-0.328-0.462-0.792-0.693-1.394-0.693c-0.587,0-1.046,0.23-1.377,0.69c-0.332,0.46-0.5,1.111-0.508,1.953v0.451
			c0,0.859,0.167,1.523,0.502,1.993c0.335,0.469,0.8,0.704,1.394,0.704c0.602,0,1.064-0.229,1.388-0.688
			c0.324-0.458,0.486-1.128,0.486-2.009V25.583z"/>
		<path fill="#444849" d="M61.566,27.684c0-0.344-0.121-0.609-0.362-0.795c-0.242-0.186-0.678-0.374-1.308-0.564
			s-1.131-0.401-1.504-0.634c-0.712-0.448-1.069-1.031-1.069-1.751c0-0.63,0.257-1.149,0.771-1.558
			c0.514-0.408,1.181-0.612,2.001-0.612c0.544,0,1.029,0.1,1.456,0.301s0.761,0.486,1.004,0.857c0.244,0.37,0.365,0.781,0.365,1.232
			h-1.354c0-0.408-0.128-0.728-0.384-0.959c-0.256-0.23-0.623-0.346-1.099-0.346c-0.444,0-0.789,0.095-1.034,0.285
			c-0.245,0.19-0.368,0.455-0.368,0.795c0,0.287,0.132,0.525,0.397,0.717c0.265,0.192,0.702,0.378,1.311,0.559
			c0.609,0.181,1.098,0.387,1.466,0.618c0.369,0.23,0.639,0.496,0.811,0.795c0.172,0.299,0.258,0.649,0.258,1.05
			c0,0.652-0.25,1.17-0.75,1.555c-0.499,0.385-1.177,0.578-2.033,0.578c-0.566,0-1.086-0.105-1.56-0.314
			c-0.475-0.21-0.844-0.499-1.106-0.868c-0.264-0.369-0.395-0.798-0.395-1.289h1.359c0,0.444,0.147,0.788,0.44,1.031
			s0.714,0.365,1.262,0.365c0.473,0,0.828-0.096,1.066-0.288C61.447,28.252,61.566,27.999,61.566,27.684z"/>
		<path fill="#444849" d="M69.838,21.877v5.226c0,0.831-0.266,1.489-0.798,1.974c-0.531,0.485-1.24,0.728-2.124,0.728
			c-0.895,0-1.606-0.239-2.132-0.717c-0.526-0.478-0.79-1.141-0.79-1.99v-5.221h1.354v5.231c0,0.523,0.132,0.922,0.397,1.198
			s0.655,0.414,1.171,0.414c1.045,0,1.568-0.551,1.568-1.654v-5.188H69.838z"/>
		<path fill="#444849" d="M72.647,26.797v2.9h-1.359v-7.82h2.992c0.874,0,1.567,0.228,2.082,0.683
			c0.514,0.455,0.771,1.057,0.771,1.807c0,0.767-0.251,1.364-0.755,1.791c-0.503,0.426-1.208,0.64-2.113,0.64H72.647z
			 M72.647,25.702h1.633c0.483,0,0.852-0.114,1.106-0.341c0.254-0.227,0.381-0.556,0.381-0.985c0-0.422-0.129-0.76-0.387-1.013
			c-0.258-0.252-0.612-0.382-1.063-0.389h-1.67V25.702z"/>
		<path fill="#444849" d="M79.678,26.797v2.9h-1.359v-7.82h2.992c0.874,0,1.567,0.228,2.081,0.683
			c0.514,0.455,0.771,1.057,0.771,1.807c0,0.767-0.251,1.364-0.754,1.791c-0.503,0.426-1.208,0.64-2.114,0.64H79.678z
			 M79.678,25.702h1.633c0.483,0,0.852-0.114,1.106-0.341c0.254-0.227,0.381-0.556,0.381-0.985c0-0.422-0.129-0.76-0.387-1.013
			c-0.258-0.252-0.612-0.382-1.063-0.389h-1.67V25.702z"/>
		<path fill="#444849" d="M86.708,28.613h3.55v1.085H85.35v-7.82h1.359V28.613z"/>
		<path fill="#444849" d="M92.354,25.583l1.799-3.706h1.504l-2.621,4.941v2.879h-1.364v-2.879l-2.626-4.941h1.509L92.354,25.583z"/>
		<path fill="#444849" d="M105.454,29.698H104.1v-3.47h-3.497v3.47h-1.359v-7.82h1.359v3.255h3.497v-3.255h1.354V29.698z"/>
		<path fill="#444849" d="M111.63,26.207h-3.212v2.406h3.754v1.085h-5.113v-7.82h5.076v1.096h-3.717v2.159h3.212V26.207z"/>
		<path fill="#444849" d="M117.657,27.877h-3.029l-0.634,1.821h-1.413l2.954-7.82h1.219l2.959,7.82h-1.418L117.657,27.877z
			 M115.009,26.781h2.267l-1.133-3.244L115.009,26.781z"/>
		<path fill="#444849" d="M120.6,29.698v-7.82h2.31c0.691,0,1.304,0.154,1.839,0.462c0.536,0.308,0.95,0.745,1.244,1.311
			s0.44,1.214,0.44,1.944v0.392c0,0.741-0.148,1.393-0.443,1.955c-0.296,0.562-0.716,0.996-1.263,1.3
			c-0.546,0.304-1.171,0.457-1.877,0.457H120.6z M121.959,22.973v5.64h0.886c0.712,0,1.259-0.223,1.641-0.668
			c0.381-0.446,0.575-1.086,0.583-1.92v-0.435c0-0.849-0.185-1.497-0.553-1.944s-0.904-0.671-1.606-0.671H121.959z"/>
		<path fill="#444849" d="M132.357,26.207h-3.212v2.406h3.754v1.085h-5.113v-7.82h5.076v1.096h-3.717v2.159h3.212V26.207z"/>
		<path fill="#444849" d="M136.88,26.69h-1.515v3.008h-1.359v-7.82h2.75c0.902,0,1.599,0.203,2.089,0.607s0.736,0.991,0.736,1.758
			c0,0.523-0.126,0.961-0.378,1.314c-0.253,0.353-0.604,0.625-1.056,0.814l1.756,3.256v0.07h-1.456L136.88,26.69z M135.365,25.594
			h1.396c0.458,0,0.816-0.116,1.074-0.346c0.258-0.231,0.387-0.547,0.387-0.948c0-0.419-0.119-0.743-0.357-0.972
			c-0.238-0.229-0.593-0.347-1.066-0.354h-1.434V25.594z"/>
	</g>
</g>
<g>
	<g>
		<path fill="#444849" d="M26.628,138.138h3.55v1.085H25.27v-7.82h1.359V138.138z"/>
		<path fill="#444849" d="M36.844,136.677c-0.079,0.834-0.387,1.485-0.924,1.953c-0.537,0.467-1.251,0.701-2.143,0.701
			c-0.623,0-1.172-0.148-1.646-0.443c-0.474-0.296-0.84-0.715-1.098-1.26s-0.392-1.176-0.403-1.896v-0.73
			c0-0.738,0.131-1.388,0.392-1.95s0.636-0.996,1.125-1.3c0.488-0.304,1.053-0.457,1.694-0.457c0.863,0,1.558,0.234,2.084,0.701
			c0.526,0.468,0.833,1.129,0.918,1.985h-1.354c-0.064-0.562-0.228-0.968-0.492-1.216c-0.263-0.249-0.649-0.374-1.157-0.374
			c-0.591,0-1.045,0.216-1.361,0.648c-0.317,0.432-0.479,1.065-0.486,1.9v0.693c0,0.846,0.151,1.491,0.454,1.936
			c0.302,0.444,0.746,0.667,1.329,0.667c0.534,0,0.935-0.12,1.203-0.36s0.438-0.639,0.51-1.198H36.844z"/>
		<path fill="#444849" d="M40.813,137.521l1.987-6.118h1.493l-2.814,7.82h-1.316l-2.804-7.82h1.488L40.813,137.521z"/>
		<path fill="#444849" d="M49.38,136.436h0.972v1.047H49.38v1.74h-1.305v-1.74h-3.378l-0.038-0.795l3.373-5.285h1.348V136.436z
			 M46.029,136.436h2.046v-3.266l-0.097,0.172L46.029,136.436z"/>
		<path fill="#444849" d="M55.632,136.436h0.972v1.047h-0.972v1.74h-1.305v-1.74h-3.378l-0.038-0.795l3.373-5.285h1.348V136.436z
			 M52.281,136.436h2.046v-3.266l-0.097,0.172L52.281,136.436z"/>
	</g>
</g>
<g>
	<g>
		<path fill="#444849" d="M132.296,91.944h3.55v1.085h-4.909v-7.82h1.359V91.944z"/>
		<path fill="#444849" d="M142.512,90.483c-0.079,0.834-0.387,1.485-0.924,1.953c-0.537,0.467-1.251,0.701-2.143,0.701
			c-0.623,0-1.172-0.148-1.646-0.443c-0.474-0.296-0.84-0.715-1.098-1.26s-0.392-1.176-0.403-1.896v-0.73
			c0-0.738,0.131-1.388,0.392-1.95s0.636-0.996,1.125-1.3c0.488-0.304,1.053-0.457,1.694-0.457c0.863,0,1.558,0.234,2.084,0.701
			c0.526,0.468,0.833,1.129,0.918,1.985h-1.354c-0.064-0.562-0.228-0.968-0.492-1.216c-0.263-0.249-0.649-0.374-1.157-0.374
			c-0.591,0-1.045,0.216-1.361,0.648c-0.317,0.432-0.479,1.065-0.486,1.9v0.693c0,0.846,0.151,1.491,0.454,1.936
			c0.302,0.444,0.746,0.667,1.329,0.667c0.534,0,0.935-0.12,1.203-0.36s0.438-0.639,0.51-1.198H142.512z"/>
		<path fill="#444849" d="M146.481,91.327l1.987-6.118h1.493l-2.814,7.82h-1.316l-2.804-7.82h1.488L146.481,91.327z"/>
		<path fill="#444849" d="M155.048,90.242h0.972v1.047h-0.972v1.74h-1.305v-1.74h-3.378l-0.038-0.795l3.373-5.285h1.348V90.242z
			 M151.697,90.242h2.046v-3.266l-0.097,0.172L151.697,90.242z"/>
		<path fill="#444849" d="M158.395,88.523h0.795c0.401-0.003,0.719-0.107,0.953-0.312c0.235-0.204,0.352-0.5,0.352-0.886
			c0-0.373-0.098-0.662-0.292-0.868c-0.195-0.206-0.494-0.309-0.895-0.309c-0.351,0-0.639,0.101-0.865,0.304
			c-0.226,0.202-0.338,0.466-0.338,0.792h-1.305c0-0.401,0.106-0.766,0.32-1.096c0.213-0.33,0.51-0.586,0.892-0.771
			c0.381-0.185,0.808-0.277,1.281-0.277c0.781,0,1.394,0.196,1.839,0.588c0.446,0.392,0.669,0.937,0.669,1.635
			c0,0.351-0.112,0.681-0.336,0.991c-0.224,0.31-0.513,0.543-0.867,0.701c0.43,0.147,0.756,0.378,0.98,0.693
			c0.224,0.315,0.335,0.691,0.335,1.128c0,0.702-0.241,1.26-0.722,1.676c-0.482,0.416-1.115,0.623-1.899,0.623
			c-0.752,0-1.368-0.201-1.848-0.602s-0.72-0.935-0.72-1.601h1.305c0,0.344,0.115,0.623,0.347,0.838
			c0.23,0.215,0.542,0.322,0.932,0.322c0.405,0,0.723-0.107,0.956-0.322s0.349-0.526,0.349-0.935c0-0.412-0.122-0.729-0.365-0.951
			s-0.605-0.333-1.085-0.333h-0.768V88.523z"/>
	</g>
</g>
<g>
	<g>
		<path fill="#444849" d="M174.433,186.488h3.55v1.085h-4.909v-7.82h1.359V186.488z"/>
		<path fill="#444849" d="M184.648,185.027c-0.079,0.834-0.387,1.485-0.924,1.953c-0.537,0.467-1.251,0.701-2.143,0.701
			c-0.623,0-1.172-0.148-1.646-0.443c-0.474-0.296-0.84-0.715-1.098-1.26s-0.392-1.176-0.403-1.896v-0.73
			c0-0.738,0.131-1.388,0.392-1.95s0.636-0.996,1.125-1.3c0.488-0.304,1.053-0.457,1.694-0.457c0.863,0,1.558,0.234,2.084,0.701
			c0.526,0.468,0.833,1.129,0.918,1.985h-1.354c-0.064-0.562-0.228-0.968-0.492-1.216c-0.263-0.249-0.649-0.374-1.157-0.374
			c-0.591,0-1.045,0.216-1.361,0.648c-0.317,0.432-0.479,1.065-0.486,1.9v0.693c0,0.846,0.151,1.491,0.454,1.936
			c0.302,0.444,0.746,0.667,1.329,0.667c0.534,0,0.935-0.12,1.203-0.36s0.438-0.639,0.51-1.198H184.648z"/>
		<path fill="#444849" d="M188.618,185.87l1.987-6.118h1.493l-2.814,7.82h-1.316l-2.804-7.82h1.488L188.618,185.87z"/>
		<path fill="#444849" d="M197.185,184.785h0.972v1.047h-0.972v1.74h-1.305v-1.74h-3.378l-0.038-0.795l3.373-5.285h1.348V184.785z
			 M193.833,184.785h2.046v-3.266l-0.097,0.172L193.833,184.785z"/>
		<path fill="#444849" d="M204.226,180.478l-3.126,7.095h-1.37l3.121-6.773h-4.044v-1.047h5.419V180.478z"/>
	</g>
</g>
<g>
	<g>
		<path fill="#444849" d="M243.469,134.517h3.55v1.085h-4.909v-7.82h1.359V134.517z"/>
		<path fill="#444849" d="M253.685,133.056c-0.079,0.834-0.387,1.485-0.924,1.952c-0.537,0.468-1.251,0.701-2.143,0.701
			c-0.623,0-1.172-0.147-1.646-0.443c-0.475-0.295-0.841-0.715-1.099-1.259s-0.392-1.176-0.403-1.896v-0.73
			c0-0.738,0.131-1.388,0.392-1.95s0.637-0.996,1.125-1.3c0.489-0.304,1.054-0.457,1.695-0.457c0.863,0,1.558,0.233,2.084,0.701
			c0.526,0.467,0.833,1.128,0.918,1.984h-1.354c-0.064-0.562-0.229-0.968-0.491-1.217c-0.264-0.249-0.649-0.373-1.158-0.373
			c-0.591,0-1.044,0.216-1.362,0.648c-0.316,0.432-0.479,1.065-0.486,1.9v0.693c0,0.846,0.151,1.491,0.454,1.936
			c0.303,0.444,0.746,0.667,1.33,0.667c0.534,0,0.935-0.12,1.203-0.36s0.438-0.639,0.51-1.198H253.685z"/>
		<path fill="#444849" d="M257.654,133.899l1.987-6.118h1.493l-2.814,7.82h-1.316l-2.804-7.82h1.488L257.654,133.899z"/>
		<path fill="#444849" d="M266.221,132.814h0.972v1.047h-0.972v1.74h-1.305v-1.74h-3.378l-0.038-0.795l3.373-5.285h1.348V132.814z
			 M262.869,132.814h2.046v-3.266l-0.097,0.172L262.869,132.814z"/>
		<path fill="#444849" d="M272.118,127.744v1.08h-0.161c-0.73,0.011-1.314,0.211-1.751,0.602s-0.696,0.943-0.779,1.66
			c0.419-0.44,0.954-0.661,1.606-0.661c0.691,0,1.236,0.244,1.636,0.73c0.399,0.487,0.599,1.115,0.599,1.885
			c0,0.795-0.233,1.438-0.701,1.931c-0.467,0.492-1.08,0.738-1.839,0.738c-0.781,0-1.414-0.288-1.899-0.865
			c-0.485-0.577-0.728-1.332-0.728-2.267v-0.446c0-1.372,0.334-2.446,1.002-3.223c0.667-0.777,1.628-1.166,2.881-1.166H272.118z
			 M270.716,131.477c-0.287,0-0.549,0.081-0.787,0.242c-0.238,0.161-0.413,0.376-0.524,0.645v0.397c0,0.58,0.122,1.041,0.365,1.383
			c0.244,0.342,0.559,0.513,0.945,0.513s0.693-0.145,0.918-0.435s0.338-0.671,0.338-1.144s-0.115-0.857-0.344-1.155
			S271.096,131.477,270.716,131.477z"/>
	</g>
</g>
<g>
	<g>
		<path fill="#444849" d="M295.144,90.085h3.55v1.085h-4.909v-7.82h1.359V90.085z"/>
		<path fill="#444849" d="M305.36,88.625c-0.079,0.834-0.387,1.485-0.924,1.953c-0.537,0.467-1.251,0.701-2.143,0.701
			c-0.623,0-1.172-0.148-1.646-0.443c-0.475-0.296-0.841-0.715-1.099-1.26s-0.392-1.176-0.403-1.896v-0.73
			c0-0.738,0.131-1.388,0.392-1.95s0.637-0.996,1.125-1.3c0.489-0.304,1.054-0.457,1.695-0.457c0.863,0,1.558,0.234,2.084,0.701
			c0.526,0.468,0.833,1.129,0.918,1.985h-1.354c-0.064-0.562-0.229-0.968-0.491-1.216c-0.264-0.249-0.649-0.374-1.158-0.374
			c-0.591,0-1.044,0.216-1.362,0.648c-0.316,0.432-0.479,1.065-0.486,1.9v0.693c0,0.846,0.151,1.491,0.454,1.936
			c0.303,0.444,0.746,0.667,1.33,0.667c0.534,0,0.935-0.12,1.203-0.36s0.438-0.639,0.51-1.198H305.36z"/>
		<path fill="#444849" d="M309.329,89.468l1.987-6.118h1.493l-2.814,7.82h-1.316l-2.804-7.82h1.488L309.329,89.468z"/>
		<path fill="#444849" d="M317.896,88.383h0.972v1.047h-0.972v1.74h-1.305v-1.74h-3.378l-0.038-0.795l3.373-5.285h1.348V88.383z
			 M314.544,88.383h2.046v-3.266l-0.097,0.172L314.544,88.383z"/>
		<path fill="#444849" d="M320.082,87.292l0.424-3.942h4.2v1.128h-3.115l-0.215,1.869c0.362-0.208,0.77-0.312,1.225-0.312
			c0.745,0,1.324,0.238,1.737,0.714c0.414,0.476,0.621,1.117,0.621,1.923c0,0.795-0.229,1.428-0.688,1.898
			c-0.458,0.471-1.087,0.707-1.885,0.707c-0.716,0-1.31-0.203-1.78-0.61c-0.471-0.406-0.726-0.942-0.766-1.608h1.262
			c0.05,0.379,0.186,0.67,0.408,0.873c0.222,0.202,0.512,0.303,0.87,0.303c0.401,0,0.713-0.143,0.937-0.43
			c0.224-0.287,0.336-0.677,0.336-1.171c0-0.476-0.124-0.853-0.371-1.13c-0.247-0.278-0.587-0.417-1.021-0.417
			c-0.236,0-0.437,0.031-0.602,0.094c-0.165,0.063-0.344,0.185-0.537,0.368L320.082,87.292z"/>
	</g>
</g>
<g>
	<g>
		<path fill="#444849" d="M336.751,136.924h3.55v1.085h-4.909v-7.82h1.359V136.924z"/>
		<path fill="#444849" d="M346.967,135.463c-0.079,0.834-0.387,1.485-0.924,1.953c-0.537,0.467-1.251,0.701-2.143,0.701
			c-0.623,0-1.172-0.148-1.646-0.443c-0.475-0.296-0.841-0.715-1.099-1.26s-0.392-1.176-0.403-1.896v-0.73
			c0-0.738,0.131-1.388,0.392-1.95s0.637-0.996,1.125-1.3c0.489-0.304,1.054-0.457,1.695-0.457c0.863,0,1.558,0.234,2.084,0.701
			c0.526,0.468,0.833,1.129,0.918,1.985h-1.354c-0.064-0.562-0.229-0.968-0.491-1.216c-0.264-0.249-0.649-0.374-1.158-0.374
			c-0.591,0-1.044,0.216-1.362,0.648c-0.316,0.432-0.479,1.065-0.486,1.9v0.693c0,0.846,0.151,1.491,0.454,1.936
			c0.303,0.444,0.746,0.667,1.33,0.667c0.534,0,0.935-0.12,1.203-0.36s0.438-0.639,0.51-1.198H346.967z"/>
		<path fill="#444849" d="M350.937,136.307l1.987-6.118h1.493l-2.814,7.82h-1.316l-2.804-7.82h1.488L350.937,136.307z"/>
		<path fill="#444849" d="M359.503,135.222h0.972v1.047h-0.972v1.74h-1.305v-1.74h-3.378l-0.038-0.795l3.373-5.285h1.348V135.222z
			 M356.152,135.222h2.046v-3.266l-0.097,0.172L356.152,135.222z"/>
		<path fill="#444849" d="M365.041,134.738c-0.437,0.462-0.947,0.693-1.531,0.693c-0.688,0-1.235-0.241-1.644-0.722
			c-0.408-0.482-0.612-1.115-0.612-1.899c0-0.516,0.104-0.983,0.312-1.402s0.503-0.745,0.886-0.978s0.827-0.349,1.332-0.349
			c0.788,0,1.413,0.293,1.875,0.881s0.693,1.373,0.693,2.358v0.365c0,1.411-0.319,2.487-0.956,3.228s-1.588,1.117-2.852,1.128
			h-0.156v-1.08h0.188c0.77-0.011,1.361-0.196,1.772-0.556C364.76,136.046,364.991,135.49,365.041,134.738z M363.784,134.411
			c0.261,0,0.507-0.075,0.736-0.226s0.406-0.358,0.532-0.623v-0.51c0-0.577-0.118-1.04-0.354-1.391s-0.542-0.526-0.918-0.526
			s-0.676,0.155-0.899,0.464c-0.224,0.31-0.336,0.701-0.336,1.174c0,0.491,0.113,0.886,0.338,1.187S363.408,134.411,363.784,134.411
			z"/>
	</g>
</g>
<g>
	<g>
		<path fill="#444849" d="M442.46,94.01h3.55v1.085h-4.909v-7.82h1.359V94.01z"/>
		<path fill="#444849" d="M452.676,92.549c-0.079,0.834-0.387,1.485-0.924,1.953c-0.537,0.467-1.251,0.701-2.143,0.701
			c-0.623,0-1.172-0.148-1.646-0.443c-0.475-0.296-0.841-0.715-1.099-1.26s-0.392-1.176-0.403-1.896v-0.73
			c0-0.738,0.131-1.388,0.392-1.95s0.637-0.996,1.125-1.3c0.489-0.304,1.054-0.457,1.695-0.457c0.863,0,1.558,0.234,2.084,0.701
			c0.526,0.468,0.833,1.129,0.918,1.985h-1.354c-0.064-0.562-0.229-0.968-0.491-1.216c-0.264-0.249-0.649-0.374-1.158-0.374
			c-0.591,0-1.044,0.216-1.362,0.648c-0.316,0.432-0.479,1.065-0.486,1.9v0.693c0,0.846,0.151,1.491,0.454,1.936
			c0.303,0.444,0.746,0.667,1.33,0.667c0.534,0,0.935-0.12,1.203-0.36s0.438-0.639,0.51-1.198H452.676z"/>
		<path fill="#444849" d="M456.645,93.393l1.987-6.118h1.493l-2.814,7.82h-1.316l-2.804-7.82h1.488L456.645,93.393z"/>
		<path fill="#444849" d="M465.212,92.308h0.972v1.047h-0.972v1.74h-1.305v-1.74h-3.378l-0.038-0.795l3.373-5.285h1.348V92.308z
			 M461.86,92.308h2.046v-3.266l-0.097,0.172L461.86,92.308z"/>
		<path fill="#444849" d="M471.974,89.337c0,0.383-0.099,0.724-0.295,1.023c-0.197,0.299-0.465,0.535-0.806,0.707
			c0.408,0.19,0.723,0.449,0.942,0.779c0.221,0.33,0.331,0.702,0.331,1.117c0,0.688-0.233,1.232-0.698,1.636
			c-0.465,0.402-1.085,0.604-1.858,0.604c-0.777,0-1.399-0.202-1.867-0.607c-0.467-0.405-0.701-0.949-0.701-1.633
			c0-0.419,0.111-0.795,0.333-1.128s0.534-0.589,0.935-0.768c-0.336-0.172-0.603-0.407-0.797-0.707
			c-0.195-0.299-0.293-0.64-0.293-1.023c0-0.666,0.215-1.194,0.645-1.584s1.01-0.585,1.74-0.585c0.734,0,1.316,0.195,1.746,0.585
			S471.974,88.671,471.974,89.337z M470.841,92.898c0-0.387-0.115-0.699-0.347-0.938c-0.23-0.238-0.536-0.357-0.916-0.357
			s-0.683,0.118-0.911,0.354c-0.227,0.236-0.341,0.55-0.341,0.94c0,0.383,0.112,0.689,0.336,0.918
			c0.224,0.229,0.532,0.344,0.926,0.344s0.701-0.111,0.921-0.333C470.73,93.605,470.841,93.296,470.841,92.898z M470.674,89.386
			c0-0.34-0.099-0.62-0.295-0.841c-0.197-0.22-0.462-0.33-0.795-0.33s-0.596,0.104-0.79,0.314c-0.193,0.209-0.29,0.495-0.29,0.856
			c0,0.358,0.098,0.643,0.292,0.854c0.195,0.211,0.459,0.317,0.792,0.317s0.597-0.105,0.792-0.317
			C470.577,90.028,470.674,89.744,470.674,89.386z"/>
	</g>
</g>
<g>
	<g>
		<path fill="#444849" d="M504.386,133.679h3.55v1.085h-4.909v-7.82h1.359V133.679z"/>
		<path fill="#444849" d="M514.602,132.218c-0.078,0.834-0.387,1.485-0.924,1.952c-0.537,0.468-1.251,0.701-2.143,0.701
			c-0.623,0-1.172-0.147-1.646-0.443c-0.475-0.295-0.841-0.715-1.099-1.259s-0.392-1.176-0.403-1.896v-0.73
			c0-0.738,0.131-1.388,0.392-1.95s0.637-0.996,1.125-1.3c0.489-0.304,1.054-0.457,1.695-0.457c0.863,0,1.558,0.233,2.084,0.701
			c0.526,0.467,0.832,1.128,0.918,1.984h-1.354c-0.064-0.562-0.229-0.968-0.49-1.217c-0.264-0.249-0.65-0.373-1.158-0.373
			c-0.591,0-1.045,0.216-1.362,0.648c-0.316,0.432-0.479,1.065-0.486,1.9v0.693c0,0.846,0.151,1.491,0.454,1.936
			s0.746,0.667,1.33,0.667c0.533,0,0.935-0.12,1.203-0.36s0.438-0.639,0.51-1.198H514.602z"/>
		<path fill="#444849" d="M518.571,133.062l1.987-6.118h1.493l-2.814,7.82h-1.315l-2.805-7.82h1.488L518.571,133.062z"/>
		<path fill="#444849" d="M523.072,130.886l0.424-3.942h4.201v1.128h-3.115l-0.215,1.869c0.361-0.208,0.77-0.312,1.225-0.312
			c0.744,0,1.324,0.238,1.736,0.714c0.414,0.476,0.621,1.117,0.621,1.923c0,0.795-0.229,1.428-0.688,1.899
			c-0.459,0.471-1.087,0.706-1.885,0.706c-0.717,0-1.311-0.203-1.781-0.609c-0.471-0.407-0.726-0.943-0.766-1.609h1.263
			c0.05,0.379,0.187,0.67,0.408,0.873c0.222,0.203,0.513,0.304,0.87,0.304c0.4,0,0.713-0.143,0.938-0.43
			c0.224-0.287,0.336-0.677,0.336-1.171c0-0.476-0.124-0.853-0.371-1.131c-0.247-0.277-0.588-0.416-1.021-0.416
			c-0.236,0-0.437,0.031-0.602,0.094c-0.165,0.063-0.344,0.186-0.537,0.368L523.072,130.886z"/>
		<path fill="#444849" d="M533.035,126.906v1.08h-0.16c-0.73,0.011-1.314,0.211-1.752,0.602c-0.437,0.39-0.695,0.943-0.778,1.66
			c0.419-0.44,0.954-0.661,1.606-0.661c0.69,0,1.236,0.244,1.635,0.73c0.399,0.487,0.6,1.115,0.6,1.885
			c0,0.795-0.234,1.438-0.701,1.931c-0.467,0.492-1.08,0.738-1.84,0.738c-0.781,0-1.414-0.288-1.898-0.865
			c-0.485-0.577-0.729-1.332-0.729-2.267v-0.446c0-1.372,0.334-2.446,1.002-3.223s1.629-1.166,2.882-1.166H533.035z
			 M531.634,130.639c-0.286,0-0.549,0.081-0.786,0.242c-0.238,0.161-0.414,0.376-0.524,0.645v0.397c0,0.58,0.122,1.041,0.365,1.383
			c0.243,0.342,0.559,0.513,0.945,0.513s0.692-0.145,0.919-0.435c0.225-0.29,0.338-0.671,0.338-1.144s-0.115-0.857-0.344-1.155
			S532.014,130.639,531.634,130.639z"/>
	</g>
</g>
<g>
	<g>
		<path fill="#444849" d="M612.24,87.399h3.551v1.085h-4.909v-7.82h1.358V87.399z"/>
		<path fill="#444849" d="M622.457,85.938c-0.079,0.834-0.387,1.485-0.924,1.952c-0.537,0.468-1.252,0.701-2.144,0.701
			c-0.623,0-1.172-0.147-1.646-0.443c-0.475-0.295-0.841-0.715-1.099-1.259s-0.392-1.176-0.402-1.896v-0.73
			c0-0.738,0.131-1.388,0.393-1.95c0.261-0.562,0.636-0.996,1.125-1.3c0.488-0.304,1.054-0.457,1.694-0.457
			c0.863,0,1.558,0.233,2.084,0.701c0.526,0.467,0.833,1.128,0.919,1.984h-1.354c-0.064-0.562-0.229-0.968-0.492-1.217
			c-0.263-0.249-0.648-0.373-1.157-0.373c-0.591,0-1.045,0.216-1.361,0.648c-0.317,0.432-0.479,1.065-0.486,1.9v0.693
			c0,0.846,0.151,1.491,0.454,1.936s0.745,0.667,1.329,0.667c0.533,0,0.935-0.12,1.203-0.36s0.438-0.639,0.511-1.198H622.457z"/>
		<path fill="#444849" d="M626.426,86.781l1.986-6.118h1.494l-2.814,7.82h-1.316l-2.804-7.82h1.487L626.426,86.781z"/>
		<path fill="#444849" d="M630.927,84.606l0.425-3.942h4.199v1.128h-3.115l-0.215,1.869c0.362-0.208,0.771-0.312,1.225-0.312
			c0.745,0,1.324,0.238,1.738,0.714c0.413,0.476,0.62,1.117,0.62,1.923c0,0.795-0.229,1.428-0.688,1.899
			c-0.458,0.471-1.087,0.706-1.886,0.706c-0.716,0-1.31-0.203-1.78-0.609c-0.471-0.407-0.726-0.943-0.765-1.609h1.262
			c0.05,0.379,0.187,0.67,0.408,0.873c0.222,0.203,0.512,0.304,0.87,0.304c0.401,0,0.714-0.143,0.938-0.43s0.335-0.677,0.335-1.171
			c0-0.476-0.123-0.853-0.37-1.131c-0.247-0.277-0.587-0.416-1.021-0.416c-0.236,0-0.437,0.031-0.602,0.094
			c-0.165,0.063-0.344,0.186-0.537,0.368L630.927,84.606z"/>
		<path fill="#444849" d="M637.179,84.606l0.425-3.942h4.199v1.128h-3.115l-0.215,1.869c0.362-0.208,0.771-0.312,1.225-0.312
			c0.745,0,1.324,0.238,1.738,0.714c0.413,0.476,0.62,1.117,0.62,1.923c0,0.795-0.229,1.428-0.688,1.899
			c-0.458,0.471-1.087,0.706-1.886,0.706c-0.716,0-1.31-0.203-1.78-0.609c-0.471-0.407-0.726-0.943-0.765-1.609h1.262
			c0.05,0.379,0.187,0.67,0.408,0.873c0.222,0.203,0.512,0.304,0.87,0.304c0.401,0,0.714-0.143,0.938-0.43s0.335-0.677,0.335-1.171
			c0-0.476-0.123-0.853-0.37-1.131c-0.247-0.277-0.587-0.416-1.021-0.416c-0.236,0-0.437,0.031-0.602,0.094
			c-0.165,0.063-0.344,0.186-0.537,0.368L637.179,84.606z"/>
	</g>
</g>
<g>
	<g>
		<path fill="#444849" d="M635.357,182.451h3.551v1.085h-4.909v-7.82h1.358V182.451z"/>
		<path fill="#444849" d="M645.574,180.99c-0.079,0.834-0.387,1.485-0.924,1.953c-0.537,0.467-1.252,0.701-2.144,0.701
			c-0.623,0-1.172-0.148-1.646-0.443c-0.475-0.296-0.841-0.715-1.099-1.26s-0.392-1.176-0.402-1.896v-0.73
			c0-0.738,0.131-1.388,0.393-1.95c0.261-0.562,0.636-0.996,1.125-1.3c0.488-0.304,1.054-0.457,1.694-0.457
			c0.863,0,1.558,0.234,2.084,0.701c0.526,0.468,0.833,1.129,0.919,1.985h-1.354c-0.064-0.562-0.229-0.968-0.492-1.216
			c-0.263-0.249-0.648-0.374-1.157-0.374c-0.591,0-1.045,0.216-1.361,0.648c-0.317,0.432-0.479,1.065-0.486,1.9v0.693
			c0,0.846,0.151,1.491,0.454,1.936s0.745,0.667,1.329,0.667c0.533,0,0.935-0.12,1.203-0.36s0.438-0.639,0.511-1.198H645.574z"/>
		<path fill="#444849" d="M649.543,181.833l1.986-6.118h1.494l-2.814,7.82h-1.316l-2.804-7.82h1.487L649.543,181.833z"/>
		<path fill="#444849" d="M658.109,180.749h0.973v1.047h-0.973v1.74h-1.305v-1.74h-3.379l-0.037-0.795l3.373-5.285h1.348V180.749z
			 M654.758,180.749h2.047v-3.266l-0.097,0.172L654.758,180.749z"/>
		<path fill="#444849" d="M664.361,180.749h0.973v1.047h-0.973v1.74h-1.305v-1.74h-3.379l-0.037-0.795l3.373-5.285h1.348V180.749z
			 M661.01,180.749h2.047v-3.266l-0.097,0.172L661.01,180.749z"/>
	</g>
</g>
<g>
	<g>
		<path fill="#444849" d="M708.828,130.998h3.549v1.085h-4.908v-7.82h1.359V130.998z"/>
		<path fill="#444849" d="M719.043,129.537c-0.078,0.834-0.387,1.485-0.924,1.953c-0.537,0.467-1.252,0.701-2.143,0.701
			c-0.623,0-1.172-0.148-1.646-0.443c-0.475-0.296-0.84-0.715-1.098-1.26s-0.393-1.176-0.404-1.896v-0.73
			c0-0.738,0.131-1.388,0.393-1.95s0.637-0.996,1.125-1.3s1.055-0.457,1.695-0.457c0.863,0,1.557,0.234,2.084,0.701
			c0.525,0.468,0.832,1.129,0.918,1.985h-1.354c-0.064-0.562-0.229-0.968-0.492-1.216c-0.262-0.249-0.648-0.374-1.156-0.374
			c-0.592,0-1.045,0.216-1.361,0.648c-0.318,0.432-0.48,1.065-0.486,1.9v0.693c0,0.846,0.15,1.491,0.453,1.936
			s0.746,0.667,1.33,0.667c0.533,0,0.934-0.12,1.203-0.36c0.268-0.24,0.438-0.639,0.51-1.198H719.043z"/>
		<path fill="#444849" d="M723.014,130.38l1.986-6.118h1.494l-2.814,7.82h-1.316l-2.805-7.82h1.488L723.014,130.38z"/>
		<path fill="#444849" d="M727.514,128.205l0.424-3.942h4.201v1.128h-3.115l-0.215,1.869c0.361-0.208,0.77-0.312,1.225-0.312
			c0.744,0,1.322,0.238,1.736,0.714s0.621,1.117,0.621,1.923c0,0.795-0.23,1.428-0.688,1.898c-0.459,0.471-1.088,0.707-1.885,0.707
			c-0.717,0-1.311-0.203-1.781-0.61c-0.471-0.406-0.727-0.942-0.766-1.608h1.262c0.051,0.379,0.188,0.67,0.408,0.873
			c0.223,0.202,0.512,0.303,0.871,0.303c0.4,0,0.713-0.143,0.938-0.43c0.223-0.287,0.336-0.677,0.336-1.171
			c0-0.476-0.125-0.853-0.371-1.13c-0.248-0.278-0.588-0.417-1.021-0.417c-0.236,0-0.436,0.031-0.602,0.094
			c-0.164,0.063-0.344,0.185-0.537,0.368L727.514,128.205z"/>
		<path fill="#444849" d="M734.926,127.577h0.795c0.4-0.003,0.719-0.107,0.953-0.312s0.352-0.5,0.352-0.886
			c0-0.373-0.098-0.662-0.293-0.868c-0.195-0.206-0.492-0.309-0.895-0.309c-0.35,0-0.639,0.101-0.863,0.304
			c-0.227,0.202-0.34,0.466-0.34,0.792h-1.305c0-0.401,0.107-0.766,0.32-1.096s0.51-0.586,0.891-0.771
			c0.381-0.185,0.809-0.277,1.281-0.277c0.781,0,1.395,0.196,1.84,0.588c0.445,0.392,0.668,0.937,0.668,1.635
			c0,0.351-0.111,0.681-0.336,0.991c-0.223,0.31-0.512,0.543-0.867,0.701c0.43,0.147,0.758,0.378,0.98,0.693
			c0.225,0.315,0.336,0.691,0.336,1.128c0,0.702-0.24,1.26-0.723,1.676c-0.48,0.416-1.113,0.623-1.898,0.623
			c-0.752,0-1.367-0.201-1.848-0.602s-0.719-0.935-0.719-1.601h1.305c0,0.344,0.115,0.623,0.346,0.838s0.541,0.322,0.932,0.322
			c0.404,0,0.725-0.107,0.957-0.322s0.35-0.526,0.35-0.935c0-0.412-0.123-0.729-0.365-0.951c-0.244-0.222-0.605-0.333-1.086-0.333
			h-0.768V127.577z"/>
	</g>
</g>
<g>
	<g>
		<path fill="#444849" d="M761.367,86.463h3.551v1.085h-4.91v-7.82h1.359V86.463z"/>
		<path fill="#444849" d="M771.584,85.002c-0.08,0.834-0.387,1.485-0.924,1.953c-0.537,0.467-1.252,0.701-2.145,0.701
			c-0.623,0-1.172-0.148-1.646-0.443c-0.475-0.296-0.84-0.715-1.098-1.26s-0.393-1.176-0.402-1.896v-0.73
			c0-0.738,0.131-1.388,0.393-1.95c0.26-0.562,0.635-0.996,1.125-1.3c0.488-0.304,1.053-0.457,1.693-0.457
			c0.863,0,1.559,0.234,2.084,0.701c0.527,0.468,0.834,1.129,0.92,1.985h-1.354c-0.064-0.562-0.229-0.968-0.492-1.216
			c-0.264-0.249-0.648-0.374-1.158-0.374c-0.59,0-1.045,0.216-1.361,0.648c-0.316,0.432-0.479,1.065-0.486,1.9v0.693
			c0,0.846,0.152,1.491,0.455,1.936s0.744,0.667,1.328,0.667c0.533,0,0.936-0.12,1.203-0.36c0.27-0.24,0.439-0.639,0.512-1.198
			H771.584z"/>
		<path fill="#444849" d="M775.553,85.846l1.986-6.118h1.494l-2.814,7.82h-1.316l-2.805-7.82h1.488L775.553,85.846z"/>
		<path fill="#444849" d="M780.053,83.67l0.426-3.942h4.199v1.128h-3.115l-0.215,1.869c0.361-0.208,0.77-0.312,1.225-0.312
			c0.744,0,1.324,0.238,1.738,0.714c0.412,0.476,0.619,1.117,0.619,1.923c0,0.795-0.229,1.428-0.688,1.898
			c-0.457,0.471-1.086,0.707-1.885,0.707c-0.717,0-1.311-0.203-1.781-0.61c-0.471-0.406-0.725-0.942-0.764-1.608h1.262
			c0.049,0.379,0.186,0.67,0.408,0.873c0.221,0.202,0.512,0.303,0.869,0.303c0.402,0,0.715-0.143,0.938-0.43
			c0.225-0.287,0.336-0.677,0.336-1.171c0-0.476-0.123-0.853-0.371-1.13c-0.246-0.278-0.586-0.417-1.02-0.417
			c-0.236,0-0.438,0.031-0.602,0.094c-0.166,0.063-0.344,0.185-0.537,0.368L780.053,83.67z"/>
		<path fill="#444849" d="M791.215,87.548h-5.258v-0.897l2.604-2.841c0.377-0.419,0.645-0.769,0.803-1.05
			c0.16-0.281,0.24-0.563,0.24-0.846c0-0.373-0.105-0.673-0.314-0.902s-0.492-0.344-0.846-0.344c-0.424,0-0.75,0.129-0.982,0.387
			c-0.234,0.258-0.35,0.61-0.35,1.058h-1.305c0-0.476,0.107-0.905,0.324-1.287c0.217-0.381,0.525-0.677,0.93-0.889
			c0.402-0.211,0.867-0.317,1.393-0.317c0.76,0,1.359,0.191,1.797,0.572c0.439,0.382,0.658,0.909,0.658,1.582
			c0,0.39-0.109,0.799-0.33,1.228c-0.221,0.428-0.582,0.914-1.082,1.458l-1.912,2.046h3.631V87.548z"/>
	</g>
</g>
<g>
	<g>
		<path fill="#444849" d="M814.973,141.994h3.55v1.085h-4.909v-7.82h1.359V141.994z"/>
		<path fill="#444849" d="M825.188,140.533c-0.078,0.834-0.387,1.485-0.924,1.952c-0.537,0.468-1.251,0.701-2.143,0.701
			c-0.623,0-1.172-0.147-1.646-0.443c-0.475-0.295-0.84-0.715-1.098-1.259s-0.393-1.176-0.403-1.896v-0.73
			c0-0.738,0.131-1.388,0.392-1.95c0.262-0.562,0.637-0.996,1.126-1.3c0.488-0.304,1.054-0.457,1.694-0.457
			c0.863,0,1.558,0.233,2.084,0.701c0.526,0.467,0.832,1.128,0.918,1.984h-1.354c-0.064-0.562-0.228-0.968-0.491-1.217
			c-0.263-0.249-0.648-0.373-1.157-0.373c-0.591,0-1.045,0.216-1.361,0.648c-0.317,0.432-0.479,1.065-0.486,1.9v0.693
			c0,0.846,0.151,1.491,0.454,1.936s0.745,0.667,1.329,0.667c0.533,0,0.935-0.12,1.203-0.36s0.438-0.639,0.51-1.198H825.188z"/>
		<path fill="#444849" d="M829.158,141.376l1.986-6.118h1.494l-2.814,7.82h-1.316l-2.804-7.82h1.487L829.158,141.376z"/>
		<path fill="#444849" d="M833.658,139.201l0.424-3.942h4.201v1.128h-3.115l-0.215,1.869c0.361-0.208,0.77-0.312,1.225-0.312
			c0.744,0,1.323,0.238,1.737,0.714c0.413,0.476,0.62,1.117,0.62,1.923c0,0.795-0.229,1.428-0.688,1.899
			c-0.458,0.471-1.087,0.706-1.885,0.706c-0.717,0-1.311-0.203-1.781-0.609c-0.471-0.407-0.726-0.943-0.766-1.609h1.263
			c0.05,0.379,0.187,0.67,0.408,0.873c0.222,0.203,0.512,0.304,0.87,0.304c0.401,0,0.714-0.143,0.938-0.43s0.336-0.677,0.336-1.171
			c0-0.476-0.124-0.853-0.371-1.131c-0.247-0.277-0.587-0.416-1.021-0.416c-0.236,0-0.437,0.031-0.602,0.094
			c-0.165,0.063-0.344,0.186-0.537,0.368L833.658,139.201z"/>
		<path fill="#444849" d="M843.096,143.079h-1.301v-6.283l-1.917,0.654v-1.096l3.051-1.123h0.167V143.079z"/>
	</g>
</g>
<g>
	<g>
		<path fill="#444849" d="M924.641,87.327h3.549v1.085h-4.908v-7.82h1.359V87.327z"/>
		<path fill="#444849" d="M934.855,85.866c-0.078,0.834-0.387,1.485-0.924,1.953c-0.537,0.467-1.252,0.701-2.143,0.701
			c-0.623,0-1.172-0.148-1.646-0.443c-0.475-0.296-0.84-0.715-1.098-1.26s-0.393-1.176-0.404-1.896v-0.73
			c0-0.738,0.131-1.388,0.393-1.95s0.637-0.996,1.125-1.3s1.055-0.457,1.695-0.457c0.863,0,1.557,0.234,2.084,0.701
			c0.525,0.468,0.832,1.129,0.918,1.985h-1.354c-0.064-0.562-0.229-0.968-0.492-1.216c-0.262-0.249-0.648-0.374-1.156-0.374
			c-0.592,0-1.045,0.216-1.361,0.648c-0.318,0.432-0.48,1.065-0.486,1.9v0.693c0,0.846,0.15,1.491,0.453,1.936
			s0.746,0.667,1.33,0.667c0.533,0,0.934-0.12,1.203-0.36c0.268-0.24,0.438-0.639,0.51-1.198H934.855z"/>
		<path fill="#444849" d="M938.826,86.709l1.986-6.118h1.494l-2.814,7.82h-1.316l-2.805-7.82h1.488L938.826,86.709z"/>
		<path fill="#444849" d="M943.326,84.534l0.424-3.942h4.201v1.128h-3.115l-0.215,1.869c0.361-0.208,0.77-0.312,1.225-0.312
			c0.744,0,1.322,0.238,1.736,0.714s0.621,1.117,0.621,1.923c0,0.795-0.23,1.428-0.688,1.898c-0.459,0.471-1.088,0.707-1.885,0.707
			c-0.717,0-1.311-0.203-1.781-0.61c-0.471-0.406-0.727-0.942-0.766-1.608h1.262c0.051,0.379,0.188,0.67,0.408,0.873
			c0.223,0.202,0.512,0.303,0.871,0.303c0.4,0,0.713-0.143,0.938-0.43c0.223-0.287,0.336-0.677,0.336-1.171
			c0-0.476-0.125-0.853-0.371-1.13c-0.248-0.278-0.588-0.417-1.021-0.417c-0.236,0-0.436,0.031-0.602,0.094
			c-0.164,0.063-0.344,0.185-0.537,0.368L943.326,84.534z"/>
		<path fill="#444849" d="M954.326,85.12c0,1.125-0.211,1.972-0.631,2.543c-0.422,0.571-1.061,0.857-1.92,0.857
			c-0.846,0-1.482-0.278-1.91-0.835c-0.428-0.557-0.646-1.381-0.658-2.473v-1.354c0-1.125,0.211-1.968,0.631-2.53
			c0.422-0.562,1.063-0.843,1.926-0.843c0.855,0,1.494,0.274,1.914,0.822c0.422,0.548,0.637,1.368,0.648,2.46V85.12z
			 M953.021,83.659c0-0.734-0.102-1.272-0.301-1.614c-0.201-0.342-0.52-0.513-0.957-0.513c-0.426,0-0.74,0.162-0.939,0.486
			c-0.201,0.324-0.307,0.83-0.316,1.517v1.772c0,0.73,0.102,1.275,0.305,1.633c0.205,0.358,0.525,0.537,0.963,0.537
			c0.418,0,0.729-0.166,0.928-0.497c0.201-0.332,0.307-0.85,0.318-1.555V83.659z"/>
	</g>
</g>
<g>
	<g>
		<path fill="#444849" d="M37.944,575.843h-1.354v-3.47h-3.497v3.47h-1.359v-7.82h1.359v3.255h3.497v-3.255h1.354V575.843z"/>
		<path fill="#444849" d="M44.599,575.843h-5.258v-0.897l2.605-2.841c0.376-0.419,0.644-0.769,0.803-1.05
			c0.159-0.281,0.239-0.563,0.239-0.846c0-0.373-0.105-0.674-0.314-0.902c-0.21-0.229-0.492-0.344-0.846-0.344
			c-0.422,0-0.75,0.129-0.983,0.387s-0.349,0.61-0.349,1.058H39.19c0-0.477,0.108-0.905,0.325-1.286
			c0.216-0.382,0.526-0.678,0.929-0.889c0.403-0.212,0.868-0.317,1.394-0.317c0.759,0,1.358,0.19,1.796,0.572
			c0.439,0.381,0.658,0.908,0.658,1.581c0,0.391-0.11,0.8-0.33,1.228c-0.221,0.428-0.581,0.914-1.083,1.458l-1.912,2.047h3.631
			V575.843z"/>
		<path fill="#444849" d="M52.043,572.137c0,0.767-0.132,1.438-0.397,2.017s-0.644,1.022-1.136,1.332
			c-0.492,0.31-1.059,0.465-1.7,0.465c-0.634,0-1.199-0.155-1.695-0.465c-0.496-0.31-0.879-0.751-1.149-1.323
			c-0.27-0.573-0.407-1.234-0.411-1.982v-0.44c0-0.763,0.135-1.436,0.406-2.02c0.27-0.584,0.651-1.03,1.144-1.34
			c0.493-0.31,1.058-0.465,1.695-0.465s1.202,0.153,1.695,0.459c0.492,0.307,0.873,0.747,1.141,1.321
			c0.269,0.575,0.405,1.244,0.408,2.006V572.137z M50.685,571.729c0-0.866-0.164-1.531-0.491-1.992
			c-0.328-0.463-0.792-0.693-1.394-0.693c-0.587,0-1.046,0.23-1.377,0.69c-0.332,0.46-0.5,1.11-0.508,1.952v0.451
			c0,0.859,0.167,1.523,0.502,1.992c0.335,0.47,0.8,0.704,1.394,0.704c0.602,0,1.064-0.229,1.388-0.688
			c0.324-0.458,0.486-1.128,0.486-2.009V571.729z"/>
		<path fill="#444849" d="M59.01,572.835h-1.515v3.008h-1.359v-7.82h2.75c0.902,0,1.599,0.202,2.089,0.607s0.736,0.991,0.736,1.758
			c0,0.523-0.126,0.961-0.378,1.314c-0.253,0.353-0.604,0.624-1.056,0.814l1.756,3.257v0.069h-1.456L59.01,572.835z M57.495,571.739
			h1.396c0.458,0,0.816-0.115,1.074-0.347c0.258-0.23,0.387-0.547,0.387-0.947c0-0.42-0.119-0.743-0.357-0.973
			c-0.238-0.229-0.593-0.348-1.066-0.354h-1.434V571.739z"/>
		<path fill="#444849" d="M67.571,572.352h-3.212v2.406h3.754v1.085H63v-7.82h5.076v1.096h-3.717v2.159h3.212V572.352z"/>
		<path fill="#444849" d="M74.978,569.118H72.54v6.725h-1.348v-6.725h-2.417v-1.096h6.204V569.118z"/>
		<path fill="#444849" d="M81.724,568.022v5.226c0,0.831-0.266,1.489-0.797,1.975c-0.532,0.485-1.24,0.728-2.125,0.728
			c-0.895,0-1.606-0.239-2.132-0.717c-0.526-0.479-0.79-1.142-0.79-1.99v-5.221h1.354v5.231c0,0.522,0.132,0.922,0.397,1.197
			c0.265,0.276,0.655,0.414,1.171,0.414c1.045,0,1.568-0.552,1.568-1.654v-5.188H81.724z"/>
		<path fill="#444849" d="M86.048,572.835h-1.515v3.008h-1.359v-7.82h2.75c0.902,0,1.599,0.202,2.089,0.607s0.736,0.991,0.736,1.758
			c0,0.523-0.126,0.961-0.378,1.314c-0.253,0.353-0.604,0.624-1.056,0.814l1.756,3.257v0.069h-1.456L86.048,572.835z
			 M84.533,571.739h1.396c0.458,0,0.816-0.115,1.074-0.347c0.258-0.23,0.387-0.547,0.387-0.947c0-0.42-0.119-0.743-0.357-0.973
			c-0.238-0.229-0.593-0.348-1.066-0.354h-1.434V571.739z"/>
		<path fill="#444849" d="M96.242,575.843h-1.359l-3.486-5.548v5.548h-1.359v-7.82h1.359l3.497,5.569v-5.569h1.348V575.843z"/>
		<path fill="#444849" d="M106.796,575.843h-1.354v-3.47h-3.497v3.47h-1.359v-7.82h1.359v3.255h3.497v-3.255h1.354V575.843z"/>
		<path fill="#444849" d="M112.973,572.352h-3.212v2.406h3.754v1.085h-5.113v-7.82h5.076v1.096h-3.717v2.159h3.212V572.352z"/>
		<path fill="#444849" d="M119,574.021h-3.029l-0.634,1.821h-1.413l2.954-7.82h1.219l2.959,7.82h-1.418L119,574.021z
			 M116.352,572.926h2.267l-1.133-3.244L116.352,572.926z"/>
		<path fill="#444849" d="M121.943,575.843v-7.82h2.31c0.691,0,1.304,0.154,1.839,0.462c0.536,0.308,0.95,0.745,1.244,1.311
			s0.44,1.214,0.44,1.944v0.392c0,0.742-0.148,1.394-0.443,1.955c-0.296,0.563-0.716,0.996-1.263,1.301
			c-0.546,0.304-1.171,0.456-1.877,0.456H121.943z M123.302,569.118v5.64h0.886c0.712,0,1.259-0.223,1.641-0.669
			c0.381-0.445,0.575-1.086,0.583-1.92v-0.435c0-0.85-0.185-1.497-0.553-1.945c-0.369-0.447-0.904-0.671-1.606-0.671H123.302z"/>
		<path fill="#444849" d="M133.7,572.352h-3.212v2.406h3.754v1.085h-5.113v-7.82h5.076v1.096h-3.717v2.159h3.212V572.352z"/>
		<path fill="#444849" d="M138.223,572.835h-1.515v3.008h-1.359v-7.82h2.75c0.902,0,1.599,0.202,2.089,0.607
			s0.736,0.991,0.736,1.758c0,0.523-0.126,0.961-0.378,1.314c-0.253,0.353-0.604,0.624-1.056,0.814l1.756,3.257v0.069h-1.456
			L138.223,572.835z M136.708,571.739h1.396c0.458,0,0.816-0.115,1.074-0.347c0.258-0.23,0.387-0.547,0.387-0.947
			c0-0.42-0.119-0.743-0.357-0.973c-0.238-0.229-0.593-0.348-1.066-0.354h-1.434V571.739z"/>
	</g>
</g>
<g>
	<rect x="980.994" y="541.763" width="22.565" height="1"/>
	<g>
		<polygon points="1000.751,545.966 1002.324,542.263 1000.751,538.56 1009.529,542.263 		"/>
	</g>
</g>
<g>
	<rect x="986.964" y="54.666" width="22.565" height="1"/>
	<g>
		<polygon points="989.772,51.462 988.199,55.166 989.772,58.869 980.994,55.166 		"/>
	</g>
</g>
<g>
	<polygon fill="#D2D3D3" points="20.414,50.623 9.244,50.623 9.244,29.86 20.414,29.86 20.414,33.86 13.244,33.86 13.244,46.623 
		20.414,46.623 	"/>
	<path fill="#999999" d="M20.914,51.123H8.744V29.36h12.169v5h-7.169v11.763h7.169V51.123z M9.744,50.123h10.169v-3h-7.169V33.36
		h7.169v-3H9.744V50.123z"/>
</g>
<g>
	<polygon fill="#D2D3D3" points="20.414,565.117 9.244,565.117 9.244,544.354 20.414,544.354 20.414,548.354 13.244,548.354 
		13.244,561.117 20.414,561.117 	"/>
	<path fill="#999999" d="M20.914,565.617H8.744v-21.763h12.169v5h-7.169v11.763h7.169V565.617z M9.744,564.617h10.169v-3h-7.169
		v-13.763h7.169v-3H9.744V564.617z"/>
</g>
<path fill="#5439AA" d="M67.125,139.9c3.216,0,5.824-2.377,5.824-5.311c0-2.934-2.608-5.312-5.824-5.312h0v5.061h-4.178l6.244-14.09
	h-6.323h-0.01h-6.323l6.306,14.23v0.22l-6.306,14.23h6.323h0.01h6.323l-6.244-14.09h4.178L67.125,139.9L67.125,139.9z"/>
<path fill="#5439AA" d="M120.657,94.774c3.216,0,5.824-2.377,5.824-5.311c0-2.934-2.608-5.312-5.824-5.312h0v5.061h-4.178
	l6.244-14.09h-6.323h-0.01h-6.323l6.306,14.23v0.22l-6.306,14.23h6.323h0.01h6.323l-6.244-14.09h4.178L120.657,94.774
	L120.657,94.774z"/>
<path fill="#5439AA" d="M214.008,187.24c3.216,0,5.824-2.377,5.824-5.311c0-2.934-2.608-5.312-5.824-5.312h0v5.061h-4.178
	l6.244-14.09h-6.323h-0.01h-6.323l6.306,14.23v0.22l-6.306,14.23h6.323h0.01h6.323l-6.244-14.09h4.178L214.008,187.24
	L214.008,187.24z"/>
<path fill="#5439AA" d="M232.589,137.247c3.216,0,5.824-2.377,5.824-5.311c0-2.934-2.608-5.312-5.824-5.312h0v5.061h-4.178
	l6.244-14.09h-6.323h-0.01h-6.323l6.306,14.23v0.22l-6.306,14.23h6.323h0.01h6.323l-6.244-14.09h4.178L232.589,137.247
	L232.589,137.247z"/>
<path fill="#5439AA" d="M284.353,93.004c3.216,0,5.824-2.377,5.824-5.311c0-2.934-2.608-5.312-5.824-5.312h0v5.061h-4.178
	l6.244-14.09h-6.323h-0.01h-6.323l6.306,14.23v0.22l-6.306,14.23h6.323h0.01h6.323l-6.244-14.09h4.178L284.353,93.004
	L284.353,93.004z"/>
<path fill="#5439AA" d="M375.248,138.913c3.216,0,5.824-2.377,5.824-5.311c0-2.934-2.608-5.312-5.824-5.312h0v5.061h-4.178
	l6.244-14.09h-6.323h-0.01h-6.323l6.306,14.23v0.22l-6.306,14.23h6.323h0.01h6.323l-6.244-14.09h4.178L375.248,138.913
	L375.248,138.913z"/>
<path fill="#5439AA" d="M430.993,96.883c3.216,0,5.824-2.377,5.824-5.311c0-2.934-2.608-5.312-5.824-5.312h0v5.061h-4.178
	l6.244-14.09h-6.323h-0.01h-6.323l6.306,14.23v0.22l-6.306,14.23h6.323h0.01h6.323l-6.244-14.09h4.178L430.993,96.883
	L430.993,96.883z"/>
<path fill="#5439AA" d="M544.252,135.816c3.217,0,5.824-2.377,5.824-5.311c0-2.934-2.607-5.312-5.824-5.312l0,0v5.061h-4.179
	l6.243-14.09h-6.322h-0.01h-6.324l6.307,14.23v0.22l-6.307,14.23h6.324h0.01h6.322l-6.243-14.09h4.179V135.816L544.252,135.816z"/>
<path fill="#5439AA" d="M601.766,90.247c3.217,0,5.824-2.377,5.824-5.311c0-2.934-2.607-5.312-5.824-5.312l0,0v5.061h-4.178
	l6.243-14.09h-6.323h-0.01h-6.323l6.306,14.23v0.22l-6.306,14.23h6.323h0.01h6.323l-6.243-14.09h4.178V90.247L601.766,90.247z"/>
<path fill="#5439AA" d="M676.092,185.367c3.217,0,5.824-2.377,5.824-5.311c0-2.934-2.607-5.312-5.824-5.312l0,0v5.061h-4.178
	l6.243-14.09h-6.323h-0.01h-6.323l6.306,14.23v0.22l-6.306,14.23h6.323h0.01h6.323l-6.243-14.09h4.178V185.367L676.092,185.367z"/>
<path fill="#5439AA" d="M699.098,133.604c3.217,0,5.824-2.377,5.824-5.311c0-2.934-2.607-5.312-5.824-5.312l0,0v5.061h-4.178
	l6.243-14.09h-6.323h-0.01h-6.323l6.306,14.23v0.22l-6.306,14.23h6.323h0.01h6.323l-6.243-14.09h4.178V133.604L699.098,133.604z"/>
<path fill="#5439AA" d="M750.861,88.919c3.217,0,5.824-2.377,5.824-5.311c0-2.934-2.607-5.312-5.824-5.312l0,0v5.061h-4.179
	l6.243-14.09h-6.322h-0.01h-6.324l6.307,14.23v0.22l-6.307,14.23h6.324h0.01h6.322l-6.243-14.09h4.179V88.919L750.861,88.919z"/>
<path fill="#5439AA" d="M854.83,144.221c3.216,0,5.824-2.377,5.824-5.311c0-2.934-2.608-5.312-5.824-5.312h-0.001v5.061h-4.179
	l6.244-14.09h-6.323h-0.01h-6.323l6.306,14.23v0.22l-6.306,14.23h6.323h0.01h6.323l-6.244-14.09h4.179L854.83,144.221
	L854.83,144.221z"/>
<path fill="#5439AA" d="M913.148,89.723c3.217,0,5.824-2.377,5.824-5.311c0-2.934-2.607-5.312-5.824-5.312l0,0v5.061h-4.179
	l6.243-14.09h-6.322h-0.01h-6.324l6.307,14.23v0.22l-6.307,14.23h6.324h0.01h6.322l-6.243-14.09h4.179V89.723L913.148,89.723z"/>
<g>
	<path fill="#FFFFFF" d="M109.369,292.831h3.419v0.888h-4.764v-0.721l3.309-4.781h-3.287v-0.896h4.636v0.703L109.369,292.831z"/>
	<path fill="#FFFFFF" d="M118.733,290.687c0,0.627-0.108,1.177-0.325,1.65c-0.217,0.473-0.527,0.836-0.929,1.09
		c-0.403,0.253-0.867,0.38-1.391,0.38c-0.519,0-0.981-0.127-1.386-0.38c-0.406-0.254-0.72-0.614-0.94-1.083
		c-0.222-0.469-0.333-1.01-0.336-1.622v-0.36c0-0.624,0.11-1.175,0.332-1.652s0.533-0.843,0.937-1.097
		c0.402-0.253,0.865-0.38,1.386-0.38s0.983,0.125,1.386,0.376c0.403,0.25,0.714,0.61,0.934,1.081c0.22,0.47,0.331,1.018,0.334,1.641
		V290.687z M117.622,290.353c0-0.709-0.134-1.253-0.402-1.63c-0.268-0.379-0.648-0.567-1.14-0.567c-0.48,0-0.856,0.188-1.127,0.564
		c-0.271,0.377-0.409,0.909-0.415,1.598v0.369c0,0.703,0.137,1.247,0.411,1.63c0.273,0.385,0.654,0.576,1.14,0.576
		c0.492,0,0.871-0.188,1.136-0.563c0.265-0.375,0.397-0.923,0.397-1.644V290.353z"/>
	<path fill="#FFFFFF" d="M124.917,293.719h-1.112l-2.852-4.539v4.539h-1.112v-6.398h1.112l2.861,4.557v-4.557h1.103V293.719z"/>
	<path fill="#FFFFFF" d="M129.97,290.862h-2.628v1.969h3.072v0.888h-4.184v-6.398h4.153v0.896h-3.041v1.767h2.628V290.862z"/>
	<path fill="#FFFFFF" d="M120.074,305.719h-1.182v-5.712l-1.743,0.595v-0.996l2.773-1.021h0.151V305.719z"/>
</g>
<g>
	<linearGradient id="SVGID_2_" gradientUnits="userSpaceOnUse" x1="279.8882" y1="224.7354" x2="279.8882" y2="290.5001">
		<stop  offset="0" style="stop-color:#006BCF"/>
		<stop  offset="0.5091" style="stop-color:#6EADCF"/>
		<stop  offset="1" style="stop-color:#006BCF"/>
	</linearGradient>
	<rect x="265.481" y="228.897" fill="url(#SVGID_2_)" width="28.814" height="57.489"/>
	<path opacity="0.6" fill="#231F20" d="M293.496,229.697v55.89h-27.214v-55.89H293.496 M294.295,228.897h-28.814v57.489h28.814
		V228.897L294.295,228.897z"/>
</g>
<g>
	<path fill="#FFFFFF" d="M270.086,253.677h3.419v0.888h-4.764v-0.721l3.309-4.781h-3.287v-0.896h4.636v0.703L270.086,253.677z"/>
	<path fill="#FFFFFF" d="M279.451,251.532c0,0.627-0.108,1.177-0.325,1.65c-0.217,0.473-0.527,0.836-0.929,1.09
		c-0.403,0.253-0.867,0.38-1.391,0.38c-0.519,0-0.981-0.127-1.386-0.38c-0.406-0.254-0.72-0.614-0.94-1.083
		c-0.222-0.469-0.333-1.01-0.336-1.622v-0.36c0-0.624,0.11-1.175,0.332-1.652s0.533-0.843,0.937-1.097
		c0.402-0.253,0.865-0.38,1.386-0.38s0.983,0.125,1.386,0.376c0.403,0.25,0.714,0.61,0.934,1.081c0.22,0.47,0.331,1.018,0.334,1.641
		V251.532z M278.339,251.198c0-0.709-0.134-1.253-0.402-1.63c-0.268-0.379-0.648-0.567-1.14-0.567c-0.48,0-0.856,0.188-1.127,0.564
		c-0.271,0.377-0.409,0.909-0.415,1.598v0.369c0,0.703,0.137,1.247,0.411,1.63c0.273,0.385,0.654,0.576,1.14,0.576
		c0.492,0,0.871-0.188,1.136-0.563c0.265-0.375,0.397-0.923,0.397-1.644V251.198z"/>
	<path fill="#FFFFFF" d="M285.634,254.564h-1.112l-2.852-4.539v4.539h-1.112v-6.398h1.112l2.861,4.557v-4.557h1.103V254.564z"/>
	<path fill="#FFFFFF" d="M290.688,251.708h-2.628v1.969h3.072v0.888h-4.184v-6.398h4.153v0.896h-3.041v1.767h2.628V251.708z"/>
	<path fill="#FFFFFF" d="M278.951,262.468h0.723c0.365-0.003,0.653-0.098,0.867-0.283s0.32-0.454,0.32-0.806
		c0-0.339-0.089-0.602-0.266-0.789c-0.177-0.187-0.448-0.28-0.813-0.28c-0.319,0-0.581,0.092-0.786,0.276
		c-0.205,0.184-0.308,0.424-0.308,0.72H277.5c0-0.364,0.097-0.696,0.291-0.996s0.464-0.533,0.811-0.7
		c0.347-0.168,0.735-0.252,1.165-0.252c0.709,0,1.267,0.178,1.672,0.535c0.405,0.355,0.608,0.852,0.608,1.486
		c0,0.319-0.102,0.619-0.305,0.9c-0.204,0.282-0.466,0.494-0.789,0.638c0.391,0.134,0.688,0.344,0.891,0.63s0.305,0.628,0.305,1.025
		c0,0.638-0.219,1.146-0.657,1.523s-1.013,0.566-1.726,0.566c-0.684,0-1.244-0.183-1.68-0.547s-0.654-0.85-0.654-1.455h1.187
		c0,0.313,0.105,0.566,0.315,0.762s0.492,0.293,0.847,0.293c0.368,0,0.658-0.098,0.869-0.293s0.317-0.479,0.317-0.85
		c0-0.374-0.111-0.662-0.332-0.864s-0.55-0.303-0.986-0.303h-0.698V262.468z"/>
</g>
<g>
	<linearGradient id="SVGID_3_" gradientUnits="userSpaceOnUse" x1="279.8882" y1="323.5332" x2="279.8882" y2="389.2979">
		<stop  offset="0" style="stop-color:#006BCF"/>
		<stop  offset="0.5091" style="stop-color:#6EADCF"/>
		<stop  offset="1" style="stop-color:#006BCF"/>
	</linearGradient>
	<rect x="265.481" y="327.695" fill="url(#SVGID_3_)" width="28.814" height="57.489"/>
	<path opacity="0.6" fill="#231F20" d="M293.496,328.495v55.89h-27.214v-55.89H293.496 M294.295,327.695h-28.814v57.489h28.814
		V327.695L294.295,327.695z"/>
</g>
<g>
	<path fill="#FFFFFF" d="M270.086,352.475h3.419v0.888h-4.764v-0.721l3.309-4.781h-3.287v-0.896h4.636v0.703L270.086,352.475z"/>
	<path fill="#FFFFFF" d="M279.451,350.33c0,0.627-0.108,1.177-0.325,1.65c-0.217,0.473-0.527,0.836-0.929,1.09
		c-0.403,0.253-0.867,0.38-1.391,0.38c-0.519,0-0.981-0.127-1.386-0.38c-0.406-0.254-0.72-0.614-0.94-1.083
		c-0.222-0.469-0.333-1.01-0.336-1.622v-0.36c0-0.624,0.11-1.175,0.332-1.652s0.533-0.843,0.937-1.097
		c0.402-0.253,0.865-0.38,1.386-0.38s0.983,0.125,1.386,0.376c0.403,0.25,0.714,0.61,0.934,1.081c0.22,0.47,0.331,1.018,0.334,1.641
		V350.33z M278.339,349.996c0-0.709-0.134-1.253-0.402-1.63c-0.268-0.379-0.648-0.567-1.14-0.567c-0.48,0-0.856,0.188-1.127,0.564
		c-0.271,0.377-0.409,0.909-0.415,1.598v0.369c0,0.703,0.137,1.247,0.411,1.63c0.273,0.385,0.654,0.576,1.14,0.576
		c0.492,0,0.871-0.188,1.136-0.563c0.265-0.375,0.397-0.923,0.397-1.644V349.996z"/>
	<path fill="#FFFFFF" d="M285.634,353.362h-1.112l-2.852-4.539v4.539h-1.112v-6.398h1.112l2.861,4.557v-4.557h1.103V353.362z"/>
	<path fill="#FFFFFF" d="M290.688,350.506h-2.628v1.969h3.072v0.888h-4.184v-6.398h4.153v0.896h-3.041v1.767h2.628V350.506z"/>
	<path fill="#FFFFFF" d="M281.592,362.828h0.884v0.952h-0.884v1.582h-1.187v-1.582h-3.071l-0.034-0.723l3.066-4.805h1.226V362.828z
		 M278.545,362.828h1.86v-2.969l-0.088,0.156L278.545,362.828z"/>
</g>
<g>
	<linearGradient id="SVGID_4_" gradientUnits="userSpaceOnUse" x1="279.8882" y1="422.3311" x2="279.8882" y2="488.0958">
		<stop  offset="0" style="stop-color:#006BCF"/>
		<stop  offset="0.5091" style="stop-color:#6EADCF"/>
		<stop  offset="1" style="stop-color:#006BCF"/>
	</linearGradient>
	<rect x="265.481" y="426.493" fill="url(#SVGID_4_)" width="28.814" height="57.489"/>
	<path opacity="0.6" fill="#231F20" d="M293.496,427.293v55.89h-27.214v-55.89H293.496 M294.295,426.493h-28.814v57.489h28.814
		V426.493L294.295,426.493z"/>
</g>
<g>
	<path fill="#FFFFFF" d="M270.086,451.272h3.419v0.888h-4.764v-0.721l3.309-4.781h-3.287v-0.896h4.636v0.703L270.086,451.272z"/>
	<path fill="#FFFFFF" d="M279.451,449.128c0,0.627-0.108,1.177-0.325,1.65c-0.217,0.473-0.527,0.836-0.929,1.09
		c-0.403,0.253-0.867,0.38-1.391,0.38c-0.519,0-0.981-0.127-1.386-0.38c-0.406-0.254-0.72-0.614-0.94-1.083
		c-0.222-0.469-0.333-1.01-0.336-1.622v-0.36c0-0.624,0.11-1.175,0.332-1.652s0.533-0.843,0.937-1.097
		c0.402-0.253,0.865-0.38,1.386-0.38s0.983,0.125,1.386,0.376c0.403,0.25,0.714,0.61,0.934,1.081c0.22,0.47,0.331,1.018,0.334,1.641
		V449.128z M278.339,448.794c0-0.709-0.134-1.253-0.402-1.63c-0.268-0.379-0.648-0.567-1.14-0.567c-0.48,0-0.856,0.188-1.127,0.564
		c-0.271,0.377-0.409,0.909-0.415,1.598v0.369c0,0.703,0.137,1.247,0.411,1.63c0.273,0.385,0.654,0.576,1.14,0.576
		c0.492,0,0.871-0.188,1.136-0.563c0.265-0.375,0.397-0.923,0.397-1.644V448.794z"/>
	<path fill="#FFFFFF" d="M285.634,452.16h-1.112l-2.852-4.539v4.539h-1.112v-6.398h1.112l2.861,4.557v-4.557h1.103V452.16z"/>
	<path fill="#FFFFFF" d="M290.688,449.304h-2.628v1.969h3.072v0.888h-4.184v-6.398h4.153v0.896h-3.041v1.767h2.628V449.304z"/>
	<path fill="#FFFFFF" d="M277.896,460.635l0.386-3.584h3.818v1.025h-2.832l-0.195,1.699c0.329-0.188,0.7-0.283,1.113-0.283
		c0.677,0,1.204,0.217,1.58,0.649s0.564,1.016,0.564,1.748c0,0.723-0.208,1.298-0.625,1.726c-0.417,0.429-0.988,0.643-1.714,0.643
		c-0.651,0-1.19-0.185-1.619-0.555c-0.428-0.369-0.66-0.856-0.696-1.462h1.147c0.045,0.345,0.169,0.609,0.371,0.794
		c0.202,0.184,0.465,0.275,0.791,0.275c0.365,0,0.648-0.13,0.852-0.391s0.305-0.615,0.305-1.064c0-0.433-0.112-0.775-0.337-1.027
		c-0.225-0.253-0.534-0.379-0.928-0.379c-0.215,0-0.397,0.028-0.547,0.086c-0.15,0.057-0.313,0.168-0.488,0.334L277.896,460.635z"/>
</g>
<g>
	<g>
		<linearGradient id="SVGID_5_" gradientUnits="userSpaceOnUse" x1="747.8887" y1="226.7354" x2="747.8887" y2="292.5001">
			<stop  offset="0" style="stop-color:#006BCF"/>
			<stop  offset="0.5091" style="stop-color:#6EADCF"/>
			<stop  offset="1" style="stop-color:#006BCF"/>
		</linearGradient>
		<rect x="733.481" y="230.897" fill="url(#SVGID_5_)" width="28.813" height="57.489"/>
		<path opacity="0.6" fill="#231F20" d="M761.495,231.697v55.89h-27.214v-55.89H761.495 M762.295,230.897h-28.813v57.489h28.813
			V230.897L762.295,230.897z"/>
	</g>
	<g>
		<path fill="#FFFFFF" d="M738.086,255.677h3.42v0.888h-4.764v-0.721l3.309-4.781h-3.287v-0.896h4.637v0.703L738.086,255.677z"/>
		<path fill="#FFFFFF" d="M747.451,253.532c0,0.627-0.108,1.177-0.325,1.65c-0.217,0.473-0.526,0.836-0.929,1.09
			c-0.404,0.253-0.867,0.38-1.392,0.38c-0.519,0-0.981-0.127-1.386-0.38c-0.406-0.254-0.721-0.614-0.941-1.083
			s-0.333-1.01-0.336-1.622v-0.36c0-0.624,0.11-1.175,0.332-1.652c0.221-0.478,0.533-0.843,0.936-1.097
			c0.402-0.253,0.865-0.38,1.387-0.38s0.983,0.125,1.387,0.376c0.402,0.25,0.714,0.61,0.934,1.081
			c0.22,0.47,0.331,1.018,0.334,1.641V253.532z M746.34,253.198c0-0.709-0.135-1.253-0.402-1.63
			c-0.268-0.379-0.648-0.567-1.141-0.567c-0.48,0-0.856,0.188-1.127,0.564c-0.271,0.377-0.41,0.909-0.416,1.598v0.369
			c0,0.703,0.137,1.247,0.412,1.63c0.273,0.385,0.653,0.576,1.14,0.576c0.492,0,0.87-0.188,1.136-0.563s0.398-0.923,0.398-1.644
			V253.198z"/>
		<path fill="#FFFFFF" d="M753.635,256.564h-1.112l-2.853-4.539v4.539h-1.111v-6.398h1.111l2.861,4.557v-4.557h1.104V256.564z"/>
		<path fill="#FFFFFF" d="M758.688,253.708h-2.627v1.969h3.071v0.888h-4.184v-6.398h4.153v0.896h-3.041v1.767h2.627V253.708z"/>
		<path fill="#FFFFFF" d="M745.949,268.564h-1.182v-5.712l-1.742,0.595v-0.996l2.773-1.021h0.15V268.564z"/>
		<path fill="#FFFFFF" d="M753.055,265.571c0,1.022-0.191,1.793-0.574,2.312c-0.383,0.52-0.965,0.779-1.746,0.779
			c-0.768,0-1.346-0.253-1.735-0.76c-0.39-0.506-0.589-1.255-0.599-2.248v-1.23c0-1.022,0.191-1.789,0.574-2.3
			s0.966-0.767,1.75-0.767c0.778,0,1.359,0.249,1.741,0.747s0.579,1.243,0.589,2.236V265.571z M751.867,264.243
			c0-0.667-0.091-1.156-0.273-1.468c-0.182-0.311-0.472-0.466-0.869-0.466c-0.387,0-0.672,0.147-0.854,0.442
			c-0.183,0.294-0.279,0.754-0.289,1.379v1.611c0,0.664,0.094,1.159,0.279,1.484s0.477,0.488,0.873,0.488
			c0.381,0,0.663-0.15,0.846-0.451c0.182-0.302,0.277-0.772,0.287-1.414V264.243z"/>
	</g>
</g>
<g>
	<g>
		<linearGradient id="SVGID_6_" gradientUnits="userSpaceOnUse" x1="747.8887" y1="332.8672" x2="747.8887" y2="398.6319">
			<stop  offset="0" style="stop-color:#006BCF"/>
			<stop  offset="0.5091" style="stop-color:#6EADCF"/>
			<stop  offset="1" style="stop-color:#006BCF"/>
		</linearGradient>
		<rect x="733.481" y="337.029" fill="url(#SVGID_6_)" width="28.813" height="57.489"/>
		<path opacity="0.6" fill="#231F20" d="M761.495,337.829v55.89h-27.214v-55.89H761.495 M762.295,337.029h-28.813v57.489h28.813
			V337.029L762.295,337.029z"/>
	</g>
	<g>
		<path fill="#FFFFFF" d="M738.086,361.809h3.42v0.888h-4.764v-0.721l3.309-4.781h-3.287v-0.896h4.637v0.703L738.086,361.809z"/>
		<path fill="#FFFFFF" d="M747.451,359.664c0,0.627-0.108,1.177-0.325,1.65c-0.217,0.473-0.526,0.836-0.929,1.09
			c-0.404,0.253-0.867,0.38-1.392,0.38c-0.519,0-0.981-0.127-1.386-0.38c-0.406-0.254-0.721-0.614-0.941-1.083
			s-0.333-1.01-0.336-1.622v-0.36c0-0.624,0.11-1.175,0.332-1.652c0.221-0.478,0.533-0.843,0.936-1.097
			c0.402-0.253,0.865-0.38,1.387-0.38s0.983,0.125,1.387,0.376c0.402,0.25,0.714,0.61,0.934,1.081
			c0.22,0.47,0.331,1.018,0.334,1.641V359.664z M746.34,359.33c0-0.709-0.135-1.253-0.402-1.63
			c-0.268-0.379-0.648-0.567-1.141-0.567c-0.48,0-0.856,0.188-1.127,0.564c-0.271,0.377-0.41,0.909-0.416,1.598v0.369
			c0,0.703,0.137,1.247,0.412,1.63c0.273,0.385,0.653,0.576,1.14,0.576c0.492,0,0.87-0.188,1.136-0.563s0.398-0.923,0.398-1.644
			V359.33z"/>
		<path fill="#FFFFFF" d="M753.635,362.696h-1.112l-2.853-4.539v4.539h-1.111v-6.398h1.111l2.861,4.557v-4.557h1.104V362.696z"/>
		<path fill="#FFFFFF" d="M758.688,359.84h-2.627v1.969h3.071v0.888h-4.184v-6.398h4.153v0.896h-3.041v1.767h2.627V359.84z"/>
		<path fill="#FFFFFF" d="M745.949,374.696h-1.182v-5.712l-1.742,0.595v-0.996l2.773-1.021h0.15V374.696z"/>
		<path fill="#FFFFFF" d="M751.633,374.696h-1.182v-5.712l-1.742,0.595v-0.996l2.773-1.021h0.15V374.696z"/>
	</g>
</g>
<g>
	<g>
		<linearGradient id="SVGID_7_" gradientUnits="userSpaceOnUse" x1="747.8887" y1="438.999" x2="747.8887" y2="504.7638">
			<stop  offset="0" style="stop-color:#006BCF"/>
			<stop  offset="0.5091" style="stop-color:#6EADCF"/>
			<stop  offset="1" style="stop-color:#006BCF"/>
		</linearGradient>
		<rect x="733.481" y="443.161" fill="url(#SVGID_7_)" width="28.813" height="57.489"/>
		<path opacity="0.6" fill="#231F20" d="M761.495,443.961v55.89h-27.214v-55.89H761.495 M762.295,443.161h-28.813v57.489h28.813
			V443.161L762.295,443.161z"/>
	</g>
	<g>
		<path fill="#FFFFFF" d="M738.086,467.94h3.42v0.888h-4.764v-0.721l3.309-4.781h-3.287v-0.896h4.637v0.703L738.086,467.94z"/>
		<path fill="#FFFFFF" d="M747.451,465.796c0,0.627-0.108,1.177-0.325,1.65c-0.217,0.473-0.526,0.836-0.929,1.09
			c-0.404,0.253-0.867,0.38-1.392,0.38c-0.519,0-0.981-0.127-1.386-0.38c-0.406-0.254-0.721-0.614-0.941-1.083
			s-0.333-1.01-0.336-1.622v-0.36c0-0.624,0.11-1.175,0.332-1.652c0.221-0.478,0.533-0.843,0.936-1.097
			c0.402-0.253,0.865-0.38,1.387-0.38s0.983,0.125,1.387,0.376c0.402,0.25,0.714,0.61,0.934,1.081
			c0.22,0.47,0.331,1.018,0.334,1.641V465.796z M746.34,465.462c0-0.709-0.135-1.253-0.402-1.63
			c-0.268-0.379-0.648-0.567-1.141-0.567c-0.48,0-0.856,0.188-1.127,0.564c-0.271,0.377-0.41,0.909-0.416,1.598v0.369
			c0,0.703,0.137,1.247,0.412,1.63c0.273,0.385,0.653,0.576,1.14,0.576c0.492,0,0.87-0.188,1.136-0.563s0.398-0.923,0.398-1.644
			V465.462z"/>
		<path fill="#FFFFFF" d="M753.635,468.828h-1.112l-2.853-4.539v4.539h-1.111v-6.398h1.111l2.861,4.557v-4.557h1.104V468.828z"/>
		<path fill="#FFFFFF" d="M758.688,465.972h-2.627v1.969h3.071v0.888h-4.184v-6.398h4.153v0.896h-3.041v1.767h2.627V465.972z"/>
		<path fill="#FFFFFF" d="M745.949,480.828h-1.182v-5.712l-1.742,0.595v-0.996l2.773-1.021h0.15V480.828z"/>
		<path fill="#FFFFFF" d="M753.201,480.828h-4.781v-0.815l2.369-2.583c0.342-0.381,0.584-0.699,0.729-0.955
			c0.146-0.255,0.218-0.512,0.218-0.769c0-0.339-0.096-0.612-0.286-0.82s-0.446-0.313-0.769-0.313c-0.385,0-0.683,0.117-0.895,0.352
			c-0.211,0.234-0.316,0.555-0.316,0.962h-1.188c0-0.433,0.1-0.822,0.296-1.17c0.196-0.346,0.479-0.615,0.845-0.808
			s0.789-0.288,1.268-0.288c0.689,0,1.234,0.174,1.633,0.52c0.398,0.348,0.598,0.826,0.598,1.438c0,0.354-0.1,0.727-0.3,1.116
			c-0.2,0.389-0.528,0.83-0.983,1.325l-1.738,1.86h3.301V480.828z"/>
	</g>
</g>
<g>
	<linearGradient id="SVGID_8_" gradientUnits="userSpaceOnUse" x1="119.1704" y1="376.3467" x2="119.1704" y2="442.1114">
		<stop  offset="0" style="stop-color:#006BCF"/>
		<stop  offset="0.5091" style="stop-color:#6EADCF"/>
		<stop  offset="1" style="stop-color:#006BCF"/>
	</linearGradient>
	<rect x="104.764" y="380.509" fill="url(#SVGID_8_)" width="28.814" height="57.489"/>
	<path opacity="0.6" fill="#231F20" d="M132.778,381.309v55.89h-27.214v-55.89H132.778 M133.578,380.509h-28.814v57.489h28.814
		V380.509L133.578,380.509z"/>
</g>
<g>
	<path fill="#FFFFFF" d="M109.369,405.288h3.419v0.888h-4.764v-0.721l3.309-4.781h-3.287v-0.896h4.636v0.703L109.369,405.288z"/>
	<path fill="#FFFFFF" d="M118.733,403.144c0,0.627-0.108,1.177-0.325,1.65c-0.217,0.473-0.527,0.836-0.929,1.09
		c-0.403,0.253-0.867,0.38-1.391,0.38c-0.519,0-0.981-0.127-1.386-0.38c-0.406-0.254-0.72-0.614-0.94-1.083
		c-0.222-0.469-0.333-1.01-0.336-1.622v-0.36c0-0.624,0.11-1.175,0.332-1.652s0.533-0.843,0.937-1.097
		c0.402-0.253,0.865-0.38,1.386-0.38s0.983,0.125,1.386,0.376c0.403,0.25,0.714,0.61,0.934,1.081c0.22,0.47,0.331,1.018,0.334,1.641
		V403.144z M117.622,402.81c0-0.709-0.134-1.253-0.402-1.63c-0.268-0.379-0.648-0.567-1.14-0.567c-0.48,0-0.856,0.188-1.127,0.564
		c-0.271,0.377-0.409,0.909-0.415,1.598v0.369c0,0.703,0.137,1.247,0.411,1.63c0.273,0.385,0.654,0.576,1.14,0.576
		c0.492,0,0.871-0.188,1.136-0.563c0.265-0.375,0.397-0.923,0.397-1.644V402.81z"/>
	<path fill="#FFFFFF" d="M124.917,406.176h-1.112l-2.852-4.539v4.539h-1.112v-6.398h1.112l2.861,4.557v-4.557h1.103V406.176z"/>
	<path fill="#FFFFFF" d="M129.97,403.319h-2.628v1.969h3.072v0.888h-4.184v-6.398h4.153v0.896h-3.041v1.767h2.628V403.319z"/>
	<path fill="#FFFFFF" d="M121.641,418.176h-4.78v-0.815l2.368-2.583c0.342-0.381,0.585-0.699,0.73-0.955
		c0.145-0.255,0.217-0.512,0.217-0.769c0-0.339-0.095-0.612-0.286-0.82s-0.447-0.313-0.769-0.313c-0.384,0-0.682,0.117-0.894,0.352
		s-0.317,0.555-0.317,0.962h-1.187c0-0.433,0.099-0.822,0.295-1.17c0.197-0.346,0.479-0.615,0.845-0.808s0.789-0.288,1.267-0.288
		c0.69,0,1.234,0.174,1.633,0.52c0.399,0.348,0.598,0.826,0.598,1.438c0,0.354-0.1,0.727-0.3,1.116
		c-0.2,0.389-0.528,0.83-0.984,1.325l-1.738,1.86h3.301V418.176z"/>
</g>
<g>
	<linearGradient id="SVGID_9_" gradientUnits="userSpaceOnUse" x1="426.4917" y1="263.8896" x2="426.4917" y2="329.6549">
		<stop  offset="0" style="stop-color:#006BCF"/>
		<stop  offset="0.5091" style="stop-color:#6EADCF"/>
		<stop  offset="1" style="stop-color:#006BCF"/>
	</linearGradient>
	<rect x="412.085" y="268.052" fill="url(#SVGID_9_)" width="28.814" height="57.489"/>
	<path opacity="0.6" fill="#231F20" d="M440.099,268.852v55.89h-27.214v-55.89H440.099 M440.899,268.052h-28.814v57.489h28.814
		V268.052L440.899,268.052z"/>
</g>
<g>
	<path fill="#FFFFFF" d="M416.69,292.831h3.419v0.888h-4.764v-0.721l3.309-4.781h-3.287v-0.896h4.636v0.703L416.69,292.831z"/>
	<path fill="#FFFFFF" d="M426.055,290.687c0,0.627-0.108,1.177-0.325,1.65c-0.217,0.473-0.527,0.836-0.929,1.09
		c-0.403,0.253-0.867,0.38-1.391,0.38c-0.519,0-0.981-0.127-1.386-0.38c-0.406-0.254-0.72-0.614-0.94-1.083
		c-0.222-0.469-0.333-1.01-0.336-1.622v-0.36c0-0.624,0.11-1.175,0.332-1.652s0.533-0.843,0.937-1.097
		c0.402-0.253,0.865-0.38,1.386-0.38s0.983,0.125,1.386,0.376c0.403,0.25,0.714,0.61,0.934,1.081c0.22,0.47,0.331,1.018,0.334,1.641
		V290.687z M424.943,290.353c0-0.709-0.134-1.253-0.402-1.63c-0.268-0.379-0.648-0.567-1.14-0.567c-0.48,0-0.856,0.188-1.127,0.564
		c-0.271,0.377-0.409,0.909-0.415,1.598v0.369c0,0.703,0.137,1.247,0.411,1.63c0.273,0.385,0.654,0.576,1.14,0.576
		c0.492,0,0.871-0.188,1.136-0.563c0.265-0.375,0.397-0.923,0.397-1.644V290.353z"/>
	<path fill="#FFFFFF" d="M432.238,293.719h-1.112l-2.852-4.539v4.539h-1.112v-6.398h1.112l2.861,4.557v-4.557h1.103V293.719z"/>
	<path fill="#FFFFFF" d="M437.292,290.862h-2.628v1.969h3.072v0.888h-4.184v-6.398h4.153v0.896h-3.041v1.767h2.628V290.862z"/>
	<path fill="#FFFFFF" d="M427.874,298.575v0.981h-0.146c-0.664,0.01-1.195,0.192-1.592,0.547s-0.633,0.857-0.708,1.509
		c0.381-0.4,0.868-0.601,1.46-0.601c0.628,0,1.124,0.222,1.487,0.664s0.544,1.014,0.544,1.714c0,0.723-0.212,1.308-0.637,1.755
		c-0.425,0.448-0.982,0.672-1.672,0.672c-0.709,0-1.285-0.262-1.726-0.786s-0.662-1.211-0.662-2.061v-0.405
		c0-1.247,0.304-2.224,0.911-2.93s1.48-1.06,2.62-1.06H427.874z M426.599,301.969c-0.26,0-0.499,0.073-0.715,0.22
		s-0.375,0.342-0.476,0.586v0.361c0,0.527,0.111,0.946,0.332,1.257c0.221,0.312,0.508,0.467,0.859,0.467s0.63-0.132,0.835-0.396
		s0.308-0.61,0.308-1.04s-0.104-0.779-0.313-1.05S426.944,301.969,426.599,301.969z"/>
</g>
<g>
	<linearGradient id="SVGID_10_" gradientUnits="userSpaceOnUse" x1="426.4917" y1="376.3467" x2="426.4917" y2="442.1114">
		<stop  offset="0" style="stop-color:#006BCF"/>
		<stop  offset="0.5091" style="stop-color:#6EADCF"/>
		<stop  offset="1" style="stop-color:#006BCF"/>
	</linearGradient>
	<rect x="412.085" y="380.509" fill="url(#SVGID_10_)" width="28.814" height="57.489"/>
	<path opacity="0.6" fill="#231F20" d="M440.099,381.309v55.89h-27.214v-55.89H440.099 M440.899,380.509h-28.814v57.489h28.814
		V380.509L440.899,380.509z"/>
</g>
<g>
	<path fill="#FFFFFF" d="M416.69,405.288h3.419v0.888h-4.764v-0.721l3.309-4.781h-3.287v-0.896h4.636v0.703L416.69,405.288z"/>
	<path fill="#FFFFFF" d="M426.055,403.144c0,0.627-0.108,1.177-0.325,1.65c-0.217,0.473-0.527,0.836-0.929,1.09
		c-0.403,0.253-0.867,0.38-1.391,0.38c-0.519,0-0.981-0.127-1.386-0.38c-0.406-0.254-0.72-0.614-0.94-1.083
		c-0.222-0.469-0.333-1.01-0.336-1.622v-0.36c0-0.624,0.11-1.175,0.332-1.652s0.533-0.843,0.937-1.097
		c0.402-0.253,0.865-0.38,1.386-0.38s0.983,0.125,1.386,0.376c0.403,0.25,0.714,0.61,0.934,1.081c0.22,0.47,0.331,1.018,0.334,1.641
		V403.144z M424.943,402.81c0-0.709-0.134-1.253-0.402-1.63c-0.268-0.379-0.648-0.567-1.14-0.567c-0.48,0-0.856,0.188-1.127,0.564
		c-0.271,0.377-0.409,0.909-0.415,1.598v0.369c0,0.703,0.137,1.247,0.411,1.63c0.273,0.385,0.654,0.576,1.14,0.576
		c0.492,0,0.871-0.188,1.136-0.563c0.265-0.375,0.397-0.923,0.397-1.644V402.81z"/>
	<path fill="#FFFFFF" d="M432.238,406.176h-1.112l-2.852-4.539v4.539h-1.112v-6.398h1.112l2.861,4.557v-4.557h1.103V406.176z"/>
	<path fill="#FFFFFF" d="M437.292,403.319h-2.628v1.969h3.072v0.888h-4.184v-6.398h4.153v0.896h-3.041v1.767h2.628V403.319z"/>
	<path fill="#FFFFFF" d="M428.914,411.726l-2.842,6.45h-1.245l2.837-6.157h-3.677v-0.952h4.927V411.726z"/>
</g>
<g>
	<linearGradient id="SVGID_11_" gradientUnits="userSpaceOnUse" x1="597.0088" y1="263.8896" x2="597.0088" y2="329.6549">
		<stop  offset="0" style="stop-color:#006BCF"/>
		<stop  offset="0.5091" style="stop-color:#6EADCF"/>
		<stop  offset="1" style="stop-color:#006BCF"/>
	</linearGradient>
	<rect x="582.602" y="268.052" fill="url(#SVGID_11_)" width="28.814" height="57.489"/>
	<path opacity="0.6" fill="#231F20" d="M610.616,268.852v55.89h-27.215v-55.89H610.616 M611.416,268.052h-28.814v57.489h28.814
		V268.052L611.416,268.052z"/>
</g>
<g>
	<path fill="#FFFFFF" d="M587.207,292.831h3.419v0.888h-4.764v-0.721l3.31-4.781h-3.287v-0.896h4.636v0.703L587.207,292.831z"/>
	<path fill="#FFFFFF" d="M596.572,290.687c0,0.627-0.109,1.177-0.326,1.65c-0.217,0.473-0.526,0.836-0.929,1.09
		c-0.403,0.253-0.866,0.38-1.392,0.38c-0.518,0-0.98-0.127-1.386-0.38c-0.406-0.254-0.72-0.614-0.94-1.083
		c-0.222-0.469-0.334-1.01-0.336-1.622v-0.36c0-0.624,0.109-1.175,0.331-1.652s0.533-0.843,0.937-1.097
		c0.402-0.253,0.865-0.38,1.387-0.38s0.982,0.125,1.386,0.376c0.403,0.25,0.714,0.61,0.935,1.081c0.219,0.47,0.33,1.018,0.334,1.641
		V290.687z M595.46,290.353c0-0.709-0.134-1.253-0.402-1.63c-0.268-0.379-0.647-0.567-1.14-0.567c-0.48,0-0.857,0.188-1.128,0.564
		c-0.271,0.377-0.409,0.909-0.415,1.598v0.369c0,0.703,0.137,1.247,0.411,1.63c0.273,0.385,0.653,0.576,1.14,0.576
		c0.492,0,0.871-0.188,1.137-0.563c0.265-0.375,0.397-0.923,0.397-1.644V290.353z"/>
	<path fill="#FFFFFF" d="M602.755,293.719h-1.112l-2.852-4.539v4.539h-1.111v-6.398h1.111l2.861,4.557v-4.557h1.103V293.719z"/>
	<path fill="#FFFFFF" d="M607.809,290.862h-2.628v1.969h3.071v0.888h-4.184v-6.398h4.153v0.896h-3.041v1.767h2.628V290.862z"/>
	<path fill="#FFFFFF" d="M595.07,305.719h-1.182v-5.712l-1.743,0.595v-0.996l2.773-1.021h0.151V305.719z"/>
	<path fill="#FFFFFF" d="M598.913,301.622h0.723c0.364-0.003,0.653-0.098,0.866-0.283c0.214-0.186,0.32-0.454,0.32-0.806
		c0-0.339-0.089-0.602-0.266-0.789c-0.178-0.187-0.449-0.28-0.813-0.28c-0.319,0-0.581,0.092-0.786,0.276
		c-0.205,0.184-0.308,0.424-0.308,0.72h-1.187c0-0.364,0.097-0.696,0.291-0.996c0.193-0.3,0.463-0.533,0.811-0.7
		c0.346-0.168,0.734-0.252,1.164-0.252c0.709,0,1.268,0.178,1.672,0.535c0.406,0.355,0.608,0.852,0.608,1.486
		c0,0.319-0.102,0.619-0.306,0.9c-0.203,0.282-0.466,0.494-0.788,0.638c0.391,0.134,0.688,0.344,0.892,0.63
		c0.203,0.286,0.305,0.628,0.305,1.025c0,0.638-0.219,1.146-0.656,1.523c-0.438,0.378-1.014,0.566-1.727,0.566
		c-0.684,0-1.244-0.183-1.68-0.547s-0.654-0.85-0.654-1.455h1.187c0,0.313,0.104,0.566,0.315,0.762
		c0.209,0.195,0.492,0.293,0.847,0.293c0.368,0,0.657-0.098,0.869-0.293s0.317-0.479,0.317-0.85c0-0.374-0.111-0.662-0.332-0.864
		s-0.551-0.303-0.986-0.303h-0.698V301.622z"/>
</g>
<g>
	<linearGradient id="SVGID_12_" gradientUnits="userSpaceOnUse" x1="597.0088" y1="376.3467" x2="597.0088" y2="442.1114">
		<stop  offset="0" style="stop-color:#006BCF"/>
		<stop  offset="0.5091" style="stop-color:#6EADCF"/>
		<stop  offset="1" style="stop-color:#006BCF"/>
	</linearGradient>
	<rect x="582.602" y="380.509" fill="url(#SVGID_12_)" width="28.814" height="57.489"/>
	<path opacity="0.6" fill="#231F20" d="M610.616,381.309v55.89h-27.215v-55.89H610.616 M611.416,380.509h-28.814v57.489h28.814
		V380.509L611.416,380.509z"/>
</g>
<g>
	<path fill="#FFFFFF" d="M587.207,405.288h3.419v0.888h-4.764v-0.721l3.31-4.781h-3.287v-0.896h4.636v0.703L587.207,405.288z"/>
	<path fill="#FFFFFF" d="M596.572,403.144c0,0.627-0.109,1.177-0.326,1.65c-0.217,0.473-0.526,0.836-0.929,1.09
		c-0.403,0.253-0.866,0.38-1.392,0.38c-0.518,0-0.98-0.127-1.386-0.38c-0.406-0.254-0.72-0.614-0.94-1.083
		c-0.222-0.469-0.334-1.01-0.336-1.622v-0.36c0-0.624,0.109-1.175,0.331-1.652s0.533-0.843,0.937-1.097
		c0.402-0.253,0.865-0.38,1.387-0.38s0.982,0.125,1.386,0.376c0.403,0.25,0.714,0.61,0.935,1.081c0.219,0.47,0.33,1.018,0.334,1.641
		V403.144z M595.46,402.81c0-0.709-0.134-1.253-0.402-1.63c-0.268-0.379-0.647-0.567-1.14-0.567c-0.48,0-0.857,0.188-1.128,0.564
		c-0.271,0.377-0.409,0.909-0.415,1.598v0.369c0,0.703,0.137,1.247,0.411,1.63c0.273,0.385,0.653,0.576,1.14,0.576
		c0.492,0,0.871-0.188,1.137-0.563c0.265-0.375,0.397-0.923,0.397-1.644V402.81z"/>
	<path fill="#FFFFFF" d="M602.755,406.176h-1.112l-2.852-4.539v4.539h-1.111v-6.398h1.111l2.861,4.557v-4.557h1.103V406.176z"/>
	<path fill="#FFFFFF" d="M607.809,403.319h-2.628v1.969h3.071v0.888h-4.184v-6.398h4.153v0.896h-3.041v1.767h2.628V403.319z"/>
	<path fill="#FFFFFF" d="M595.07,418.176h-1.182v-5.712l-1.743,0.595v-0.996l2.773-1.021h0.151V418.176z"/>
	<path fill="#FFFFFF" d="M601.555,415.642h0.884v0.952h-0.884v1.582h-1.187v-1.582h-3.071l-0.034-0.723l3.066-4.805h1.226V415.642z
		 M598.508,415.642h1.86v-2.969l-0.088,0.156L598.508,415.642z"/>
</g>
<g>
	<linearGradient id="SVGID_13_" gradientUnits="userSpaceOnUse" x1="907.9795" y1="263.8896" x2="907.9795" y2="329.6549">
		<stop  offset="0" style="stop-color:#006BCF"/>
		<stop  offset="0.5091" style="stop-color:#6EADCF"/>
		<stop  offset="1" style="stop-color:#006BCF"/>
	</linearGradient>
	<rect x="893.572" y="268.052" fill="url(#SVGID_13_)" width="28.814" height="57.489"/>
	<path opacity="0.6" fill="#231F20" d="M921.587,268.852v55.89h-27.215v-55.89H921.587 M922.387,268.052h-28.814v57.489h28.814
		V268.052L922.387,268.052z"/>
</g>
<g>
	<path fill="#FFFFFF" d="M898.178,292.831h3.419v0.888h-4.764v-0.721l3.31-4.781h-3.287v-0.896h4.636v0.703L898.178,292.831z"/>
	<path fill="#FFFFFF" d="M907.543,290.687c0,0.627-0.109,1.177-0.326,1.65c-0.217,0.473-0.526,0.836-0.929,1.09
		c-0.403,0.253-0.866,0.38-1.392,0.38c-0.518,0-0.98-0.127-1.386-0.38c-0.406-0.254-0.72-0.614-0.94-1.083
		c-0.222-0.469-0.334-1.01-0.336-1.622v-0.36c0-0.624,0.109-1.175,0.331-1.652s0.533-0.843,0.937-1.097
		c0.402-0.253,0.865-0.38,1.387-0.38s0.982,0.125,1.386,0.376c0.403,0.25,0.714,0.61,0.935,1.081c0.219,0.47,0.33,1.018,0.334,1.641
		V290.687z M906.431,290.353c0-0.709-0.134-1.253-0.402-1.63c-0.268-0.379-0.647-0.567-1.14-0.567c-0.48,0-0.857,0.188-1.128,0.564
		c-0.271,0.377-0.409,0.909-0.415,1.598v0.369c0,0.703,0.137,1.247,0.411,1.63c0.273,0.385,0.653,0.576,1.14,0.576
		c0.492,0,0.871-0.188,1.137-0.563c0.265-0.375,0.397-0.923,0.397-1.644V290.353z"/>
	<path fill="#FFFFFF" d="M913.726,293.719h-1.112l-2.852-4.539v4.539h-1.111v-6.398h1.111l2.861,4.557v-4.557h1.103V293.719z"/>
	<path fill="#FFFFFF" d="M918.779,290.862h-2.628v1.969h3.071v0.888h-4.184v-6.398h4.153v0.896h-3.041v1.767h2.628V290.862z"/>
	<path fill="#FFFFFF" d="M910.147,300.484c0,0.349-0.089,0.658-0.269,0.93c-0.18,0.272-0.424,0.486-0.732,0.643
		c0.371,0.173,0.656,0.408,0.857,0.708c0.199,0.3,0.3,0.638,0.3,1.016c0,0.625-0.212,1.12-0.635,1.487
		c-0.423,0.365-0.986,0.549-1.689,0.549c-0.706,0-1.272-0.184-1.696-0.552c-0.426-0.368-0.638-0.862-0.638-1.484
		c0-0.381,0.101-0.723,0.303-1.025s0.485-0.535,0.85-0.698c-0.306-0.156-0.548-0.37-0.726-0.643
		c-0.177-0.271-0.266-0.581-0.266-0.93c0-0.605,0.195-1.086,0.586-1.44s0.918-0.532,1.582-0.532c0.668,0,1.196,0.178,1.587,0.532
		S910.147,299.879,910.147,300.484z M909.117,303.722c0-0.352-0.105-0.636-0.314-0.853c-0.211-0.216-0.488-0.324-0.833-0.324
		s-0.621,0.107-0.827,0.322c-0.207,0.215-0.311,0.5-0.311,0.854c0,0.349,0.102,0.627,0.305,0.835
		c0.204,0.208,0.484,0.313,0.843,0.313s0.638-0.101,0.837-0.303C909.018,304.364,909.117,304.083,909.117,303.722z M908.966,300.528
		c0-0.31-0.089-0.563-0.269-0.765c-0.18-0.199-0.42-0.3-0.723-0.3s-0.542,0.095-0.718,0.286c-0.176,0.189-0.264,0.449-0.264,0.778
		c0,0.325,0.089,0.584,0.267,0.776c0.177,0.192,0.417,0.288,0.72,0.288s0.543-0.096,0.72-0.288
		C908.877,301.112,908.966,300.854,908.966,300.528z"/>
</g>
<g>
	<linearGradient id="SVGID_14_" gradientUnits="userSpaceOnUse" x1="907.9795" y1="376.3467" x2="907.9795" y2="442.1114">
		<stop  offset="0" style="stop-color:#006BCF"/>
		<stop  offset="0.5091" style="stop-color:#6EADCF"/>
		<stop  offset="1" style="stop-color:#006BCF"/>
	</linearGradient>
	<rect x="893.572" y="380.509" fill="url(#SVGID_14_)" width="28.814" height="57.489"/>
	<path opacity="0.6" fill="#231F20" d="M921.587,381.309v55.89h-27.215v-55.89H921.587 M922.387,380.509h-28.814v57.489h28.814
		V380.509L922.387,380.509z"/>
</g>
<g>
	<path fill="#FFFFFF" d="M898.178,405.288h3.419v0.888h-4.764v-0.721l3.31-4.781h-3.287v-0.896h4.636v0.703L898.178,405.288z"/>
	<path fill="#FFFFFF" d="M907.543,403.144c0,0.627-0.109,1.177-0.326,1.65c-0.217,0.473-0.526,0.836-0.929,1.09
		c-0.403,0.253-0.866,0.38-1.392,0.38c-0.518,0-0.98-0.127-1.386-0.38c-0.406-0.254-0.72-0.614-0.94-1.083
		c-0.222-0.469-0.334-1.01-0.336-1.622v-0.36c0-0.624,0.109-1.175,0.331-1.652s0.533-0.843,0.937-1.097
		c0.402-0.253,0.865-0.38,1.387-0.38s0.982,0.125,1.386,0.376c0.403,0.25,0.714,0.61,0.935,1.081c0.219,0.47,0.33,1.018,0.334,1.641
		V403.144z M906.431,402.81c0-0.709-0.134-1.253-0.402-1.63c-0.268-0.379-0.647-0.567-1.14-0.567c-0.48,0-0.857,0.188-1.128,0.564
		c-0.271,0.377-0.409,0.909-0.415,1.598v0.369c0,0.703,0.137,1.247,0.411,1.63c0.273,0.385,0.653,0.576,1.14,0.576
		c0.492,0,0.871-0.188,1.137-0.563c0.265-0.375,0.397-0.923,0.397-1.644V402.81z"/>
	<path fill="#FFFFFF" d="M913.726,406.176h-1.112l-2.852-4.539v4.539h-1.111v-6.398h1.111l2.861,4.557v-4.557h1.103V406.176z"/>
	<path fill="#FFFFFF" d="M918.779,403.319h-2.628v1.969h3.071v0.888h-4.184v-6.398h4.153v0.896h-3.041v1.767h2.628V403.319z"/>
	<path fill="#FFFFFF" d="M909.034,415.202c-0.397,0.42-0.86,0.63-1.392,0.63c-0.625,0-1.123-0.219-1.494-0.656
		c-0.371-0.438-0.557-1.014-0.557-1.727c0-0.469,0.094-0.894,0.283-1.274s0.457-0.677,0.806-0.889s0.752-0.317,1.211-0.317
		c0.716,0,1.284,0.267,1.704,0.801s0.63,1.248,0.63,2.144v0.332c0,1.282-0.29,2.261-0.869,2.935s-1.444,1.016-2.593,1.025h-0.142
		v-0.981h0.171c0.699-0.01,1.236-0.179,1.611-0.505C908.779,416.391,908.988,415.886,909.034,415.202z M907.892,414.904
		c0.237,0,0.46-0.068,0.669-0.205s0.369-0.325,0.483-0.566v-0.464c0-0.524-0.107-0.945-0.322-1.265s-0.493-0.479-0.835-0.479
		s-0.614,0.141-0.818,0.422c-0.203,0.282-0.305,0.638-0.305,1.067c0,0.446,0.103,0.806,0.308,1.079S907.55,414.904,907.892,414.904z
		"/>
</g>
</svg>
