<?xml version="1.0" encoding="utf-8"?>
<!-- Generator: Adobe Illustrator 15.0.0, SVG Export Plug-In . SVG Version: 6.00 Build 0)  -->
<!DOCTYPE svg PUBLIC "-//W3C//DTD SVG 1.1//EN" "http://www.w3.org/Graphics/SVG/1.1/DTD/svg11.dtd">
<svg version="1.1" id="Layer_1" xmlns="http://www.w3.org/2000/svg" xmlns:xlink="http://www.w3.org/1999/xlink" x="0px" y="0px"
	 width="44px" height="94px" viewBox="-4 -12 44 94" enable-background="new -4 -12 44 94" xml:space="preserve">
<rect x="-1.114" y="27.871" fill="#FFB029" width="40.114" height="53.129"/>
<linearGradient id="SVGID_1_" gradientUnits="userSpaceOnUse" x1="18.9434" y1="-15" x2="18.9434" y2="31.0977">
	<stop  offset="0" style="stop-color:#FF5E00"/>
	<stop  offset="0.5" style="stop-color:#FFFFFF"/>
	<stop  offset="1" style="stop-color:#FF5E00"/>
</linearGradient>
<rect x="-1.114" y="-9.334" fill="url(#SVGID_1_)" width="40.114" height="37.205"/>
<g opacity="0.2">
	<path fill="#7A848C" d="M0.845,30.969c0.727,0,1.315-0.59,1.315-1.316v-1.48c0-0.106-0.036-0.201-0.061-0.301h-2.51
		c-0.024,0.1-0.061,0.194-0.061,0.301v1.48C-0.471,30.379,0.118,30.969,0.845,30.969z"/>
	<path fill="#7A848C" d="M6.067,30.969c0.727,0,1.315-0.59,1.315-1.316v-1.48c0-0.106-0.036-0.201-0.061-0.301h-2.51
		c-0.024,0.1-0.061,0.194-0.061,0.301v1.48C4.752,30.379,5.341,30.969,6.067,30.969z"/>
	<path fill="#7A848C" d="M11.29,30.969c0.727,0,1.315-0.59,1.315-1.316v-1.48c0-0.106-0.036-0.201-0.061-0.301h-2.51
		c-0.024,0.1-0.061,0.194-0.061,0.301v1.48C9.975,30.379,10.563,30.969,11.29,30.969z"/>
	<path fill="#7A848C" d="M16.513,30.969c0.727,0,1.315-0.59,1.315-1.316v-1.48c0-0.106-0.036-0.201-0.061-0.301h-2.51
		c-0.024,0.1-0.061,0.194-0.061,0.301v1.48C15.197,30.379,15.786,30.969,16.513,30.969z"/>
	<path fill="#7A848C" d="M21.735,30.969c0.727,0,1.315-0.59,1.315-1.316v-1.48c0-0.106-0.037-0.201-0.061-0.301h-2.51
		c-0.023,0.1-0.061,0.194-0.061,0.301v1.48C20.42,30.379,21.009,30.969,21.735,30.969z"/>
	<path fill="#7A848C" d="M26.958,30.969c0.727,0,1.315-0.59,1.315-1.316v-1.48c0-0.106-0.037-0.201-0.061-0.301h-2.51
		c-0.023,0.1-0.061,0.194-0.061,0.301v1.48C25.643,30.379,26.231,30.969,26.958,30.969z"/>
	<path fill="#7A848C" d="M32.181,30.969c0.727,0,1.315-0.59,1.315-1.316v-1.48c0-0.106-0.037-0.201-0.061-0.301h-2.51
		c-0.023,0.1-0.061,0.194-0.061,0.301v1.48C30.865,30.379,31.454,30.969,32.181,30.969z"/>
	<path fill="#7A848C" d="M37.403,30.969c0.727,0,1.315-0.59,1.315-1.316v-1.48c0-0.106-0.037-0.201-0.061-0.301h-2.51
		c-0.023,0.1-0.061,0.194-0.061,0.301v1.48C36.088,30.379,36.677,30.969,37.403,30.969z"/>
	<path fill="#7A848C" d="M-1.114,36.453c0.161-0.219,0.274-0.474,0.274-0.766v-1.48c0-0.292-0.113-0.547-0.274-0.765V36.453z"/>
	<path fill="#7A848C" d="M3.067,32.893c-0.727,0-1.315,0.588-1.315,1.314v1.48c0,0.727,0.589,1.316,1.315,1.316
		s1.315-0.59,1.315-1.316v-1.48C4.383,33.48,3.794,32.893,3.067,32.893z"/>
	<path fill="#7A848C" d="M8.29,32.893c-0.727,0-1.315,0.588-1.315,1.314v1.48c0,0.727,0.589,1.316,1.315,1.316
		s1.315-0.59,1.315-1.316v-1.48C9.605,33.48,9.017,32.893,8.29,32.893z"/>
	<path fill="#7A848C" d="M13.513,32.893c-0.727,0-1.315,0.588-1.315,1.314v1.48c0,0.727,0.589,1.316,1.315,1.316
		s1.315-0.59,1.315-1.316v-1.48C14.828,33.48,14.239,32.893,13.513,32.893z"/>
	<path fill="#7A848C" d="M18.735,32.893c-0.727,0-1.315,0.588-1.315,1.314v1.48c0,0.727,0.589,1.316,1.315,1.316
		s1.315-0.59,1.315-1.316v-1.48C20.051,33.48,19.462,32.893,18.735,32.893z"/>
	<path fill="#7A848C" d="M23.958,32.893c-0.727,0-1.315,0.588-1.315,1.314v1.48c0,0.727,0.589,1.316,1.315,1.316
		s1.315-0.59,1.315-1.316v-1.48C25.273,33.48,24.685,32.893,23.958,32.893z"/>
	<path fill="#7A848C" d="M29.181,32.893c-0.727,0-1.315,0.588-1.315,1.314v1.48c0,0.727,0.589,1.316,1.315,1.316
		s1.315-0.59,1.315-1.316v-1.48C30.496,33.48,29.907,32.893,29.181,32.893z"/>
	<path fill="#7A848C" d="M34.403,32.893c-0.727,0-1.315,0.588-1.315,1.314v1.48c0,0.727,0.589,1.316,1.315,1.316
		s1.315-0.59,1.315-1.316v-1.48C35.719,33.48,35.13,32.893,34.403,32.893z"/>
	<path fill="#7A848C" d="M38.311,34.207v1.48c0,0.495,0.285,0.911,0.689,1.136v-3.751C38.596,33.297,38.311,33.712,38.311,34.207z"
		/>
	<path fill="#7A848C" d="M0.845,43.039c0.727,0,1.315-0.59,1.315-1.316v-1.48c0-0.727-0.589-1.314-1.315-1.314
		s-1.315,0.588-1.315,1.314v1.48C-0.471,42.449,0.118,43.039,0.845,43.039z"/>
	<path fill="#7A848C" d="M6.067,43.039c0.727,0,1.315-0.59,1.315-1.316v-1.48c0-0.727-0.589-1.314-1.315-1.314
		s-1.315,0.588-1.315,1.314v1.48C4.752,42.449,5.341,43.039,6.067,43.039z"/>
	<path fill="#7A848C" d="M11.29,43.039c0.727,0,1.315-0.59,1.315-1.316v-1.48c0-0.727-0.589-1.314-1.315-1.314
		s-1.315,0.588-1.315,1.314v1.48C9.975,42.449,10.563,43.039,11.29,43.039z"/>
	<path fill="#7A848C" d="M16.513,43.039c0.727,0,1.315-0.59,1.315-1.316v-1.48c0-0.727-0.589-1.314-1.315-1.314
		s-1.315,0.588-1.315,1.314v1.48C15.197,42.449,15.786,43.039,16.513,43.039z"/>
	<path fill="#7A848C" d="M21.735,43.039c0.727,0,1.315-0.59,1.315-1.316v-1.48c0-0.727-0.589-1.314-1.315-1.314
		s-1.315,0.588-1.315,1.314v1.48C20.42,42.449,21.009,43.039,21.735,43.039z"/>
	<path fill="#7A848C" d="M26.958,43.039c0.727,0,1.315-0.59,1.315-1.316v-1.48c0-0.727-0.589-1.314-1.315-1.314
		s-1.315,0.588-1.315,1.314v1.48C25.643,42.449,26.231,43.039,26.958,43.039z"/>
	<path fill="#7A848C" d="M32.181,43.039c0.727,0,1.315-0.59,1.315-1.316v-1.48c0-0.727-0.589-1.314-1.315-1.314
		s-1.315,0.588-1.315,1.314v1.48C30.865,42.449,31.454,43.039,32.181,43.039z"/>
	<path fill="#7A848C" d="M37.403,43.039c0.727,0,1.315-0.59,1.315-1.316v-1.48c0-0.727-0.589-1.314-1.315-1.314
		s-1.315,0.588-1.315,1.314v1.48C36.088,42.449,36.677,43.039,37.403,43.039z"/>
	<path fill="#7A848C" d="M-1.114,48.523c0.161-0.219,0.274-0.474,0.274-0.766v-1.48c0-0.292-0.113-0.547-0.274-0.765V48.523z"/>
	<path fill="#7A848C" d="M3.067,44.963c-0.727,0-1.315,0.588-1.315,1.314v1.48c0,0.727,0.589,1.316,1.315,1.316
		s1.315-0.59,1.315-1.316v-1.48C4.383,45.551,3.794,44.963,3.067,44.963z"/>
	<path fill="#7A848C" d="M8.29,44.963c-0.727,0-1.315,0.588-1.315,1.314v1.48c0,0.727,0.589,1.316,1.315,1.316
		s1.315-0.59,1.315-1.316v-1.48C9.605,45.551,9.017,44.963,8.29,44.963z"/>
	<path fill="#7A848C" d="M13.513,44.963c-0.727,0-1.315,0.588-1.315,1.314v1.48c0,0.727,0.589,1.316,1.315,1.316
		s1.315-0.59,1.315-1.316v-1.48C14.828,45.551,14.239,44.963,13.513,44.963z"/>
	<path fill="#7A848C" d="M18.735,44.963c-0.727,0-1.315,0.588-1.315,1.314v1.48c0,0.727,0.589,1.316,1.315,1.316
		s1.315-0.59,1.315-1.316v-1.48C20.051,45.551,19.462,44.963,18.735,44.963z"/>
	<path fill="#7A848C" d="M23.958,44.963c-0.727,0-1.315,0.588-1.315,1.314v1.48c0,0.727,0.589,1.316,1.315,1.316
		s1.315-0.59,1.315-1.316v-1.48C25.273,45.551,24.685,44.963,23.958,44.963z"/>
	<path fill="#7A848C" d="M29.181,44.963c-0.727,0-1.315,0.588-1.315,1.314v1.48c0,0.727,0.589,1.316,1.315,1.316
		s1.315-0.59,1.315-1.316v-1.48C30.496,45.551,29.907,44.963,29.181,44.963z"/>
	<path fill="#7A848C" d="M34.403,44.963c-0.727,0-1.315,0.588-1.315,1.314v1.48c0,0.727,0.589,1.316,1.315,1.316
		s1.315-0.59,1.315-1.316v-1.48C35.719,45.551,35.13,44.963,34.403,44.963z"/>
	<path fill="#7A848C" d="M38.311,46.277v1.48c0,0.495,0.285,0.911,0.689,1.136v-3.751C38.596,45.367,38.311,45.782,38.311,46.277z"
		/>
	<path fill="#7A848C" d="M0.845,55.109c0.727,0,1.315-0.59,1.315-1.316v-1.48c0-0.727-0.589-1.314-1.315-1.314
		s-1.315,0.588-1.315,1.314v1.48C-0.471,54.52,0.118,55.109,0.845,55.109z"/>
	<path fill="#7A848C" d="M6.067,55.109c0.727,0,1.315-0.59,1.315-1.316v-1.48c0-0.727-0.589-1.314-1.315-1.314
		s-1.315,0.588-1.315,1.314v1.48C4.752,54.52,5.341,55.109,6.067,55.109z"/>
	<path fill="#7A848C" d="M11.29,55.109c0.727,0,1.315-0.59,1.315-1.316v-1.48c0-0.727-0.589-1.314-1.315-1.314
		s-1.315,0.588-1.315,1.314v1.48C9.975,54.52,10.563,55.109,11.29,55.109z"/>
	<path fill="#7A848C" d="M16.513,55.109c0.727,0,1.315-0.59,1.315-1.316v-1.48c0-0.727-0.589-1.314-1.315-1.314
		s-1.315,0.588-1.315,1.314v1.48C15.197,54.52,15.786,55.109,16.513,55.109z"/>
	<path fill="#7A848C" d="M21.735,55.109c0.727,0,1.315-0.59,1.315-1.316v-1.48c0-0.727-0.589-1.314-1.315-1.314
		s-1.315,0.588-1.315,1.314v1.48C20.42,54.52,21.009,55.109,21.735,55.109z"/>
	<path fill="#7A848C" d="M26.958,55.109c0.727,0,1.315-0.59,1.315-1.316v-1.48c0-0.727-0.589-1.314-1.315-1.314
		s-1.315,0.588-1.315,1.314v1.48C25.643,54.52,26.231,55.109,26.958,55.109z"/>
	<path fill="#7A848C" d="M32.181,55.109c0.727,0,1.315-0.59,1.315-1.316v-1.48c0-0.727-0.589-1.314-1.315-1.314
		s-1.315,0.588-1.315,1.314v1.48C30.865,54.52,31.454,55.109,32.181,55.109z"/>
	<path fill="#7A848C" d="M37.403,55.109c0.727,0,1.315-0.59,1.315-1.316v-1.48c0-0.727-0.589-1.314-1.315-1.314
		s-1.315,0.588-1.315,1.314v1.48C36.088,54.52,36.677,55.109,37.403,55.109z"/>
	<path fill="#7A848C" d="M-1.114,60.594c0.161-0.219,0.274-0.474,0.274-0.766v-1.48c0-0.292-0.113-0.547-0.274-0.765V60.594z"/>
	<path fill="#7A848C" d="M3.067,57.033c-0.727,0-1.315,0.588-1.315,1.314v1.48c0,0.727,0.589,1.316,1.315,1.316
		s1.315-0.59,1.315-1.316v-1.48C4.383,57.621,3.794,57.033,3.067,57.033z"/>
	<path fill="#7A848C" d="M8.29,57.033c-0.727,0-1.315,0.588-1.315,1.314v1.48c0,0.727,0.589,1.316,1.315,1.316
		s1.315-0.59,1.315-1.316v-1.48C9.605,57.621,9.017,57.033,8.29,57.033z"/>
	<path fill="#7A848C" d="M13.513,57.033c-0.727,0-1.315,0.588-1.315,1.314v1.48c0,0.727,0.589,1.316,1.315,1.316
		s1.315-0.59,1.315-1.316v-1.48C14.828,57.621,14.239,57.033,13.513,57.033z"/>
	<path fill="#7A848C" d="M18.735,57.033c-0.727,0-1.315,0.588-1.315,1.314v1.48c0,0.727,0.589,1.316,1.315,1.316
		s1.315-0.59,1.315-1.316v-1.48C20.051,57.621,19.462,57.033,18.735,57.033z"/>
	<path fill="#7A848C" d="M23.958,57.033c-0.727,0-1.315,0.588-1.315,1.314v1.48c0,0.727,0.589,1.316,1.315,1.316
		s1.315-0.59,1.315-1.316v-1.48C25.273,57.621,24.685,57.033,23.958,57.033z"/>
	<path fill="#7A848C" d="M29.181,57.033c-0.727,0-1.315,0.588-1.315,1.314v1.48c0,0.727,0.589,1.316,1.315,1.316
		s1.315-0.59,1.315-1.316v-1.48C30.496,57.621,29.907,57.033,29.181,57.033z"/>
	<path fill="#7A848C" d="M34.403,57.033c-0.727,0-1.315,0.588-1.315,1.314v1.48c0,0.727,0.589,1.316,1.315,1.316
		s1.315-0.59,1.315-1.316v-1.48C35.719,57.621,35.13,57.033,34.403,57.033z"/>
	<path fill="#7A848C" d="M38.311,58.348v1.48c0,0.495,0.285,0.911,0.689,1.136v-3.751C38.596,57.438,38.311,57.853,38.311,58.348z"
		/>
	<path fill="#7A848C" d="M0.845,67.18c0.727,0,1.315-0.59,1.315-1.316v-1.48c0-0.727-0.589-1.314-1.315-1.314
		s-1.315,0.588-1.315,1.314v1.48C-0.471,66.59,0.118,67.18,0.845,67.18z"/>
	<path fill="#7A848C" d="M6.067,67.18c0.727,0,1.315-0.59,1.315-1.316v-1.48c0-0.727-0.589-1.314-1.315-1.314
		s-1.315,0.588-1.315,1.314v1.48C4.752,66.59,5.341,67.18,6.067,67.18z"/>
	<path fill="#7A848C" d="M11.29,67.18c0.727,0,1.315-0.59,1.315-1.316v-1.48c0-0.727-0.589-1.314-1.315-1.314
		s-1.315,0.588-1.315,1.314v1.48C9.975,66.59,10.563,67.18,11.29,67.18z"/>
	<path fill="#7A848C" d="M16.513,67.18c0.727,0,1.315-0.59,1.315-1.316v-1.48c0-0.727-0.589-1.314-1.315-1.314
		s-1.315,0.588-1.315,1.314v1.48C15.197,66.59,15.786,67.18,16.513,67.18z"/>
	<path fill="#7A848C" d="M21.735,67.18c0.727,0,1.315-0.59,1.315-1.316v-1.48c0-0.727-0.589-1.314-1.315-1.314
		s-1.315,0.588-1.315,1.314v1.48C20.42,66.59,21.009,67.18,21.735,67.18z"/>
	<path fill="#7A848C" d="M26.958,67.18c0.727,0,1.315-0.59,1.315-1.316v-1.48c0-0.727-0.589-1.314-1.315-1.314
		s-1.315,0.588-1.315,1.314v1.48C25.643,66.59,26.231,67.18,26.958,67.18z"/>
	<path fill="#7A848C" d="M32.181,67.18c0.727,0,1.315-0.59,1.315-1.316v-1.48c0-0.727-0.589-1.314-1.315-1.314
		s-1.315,0.588-1.315,1.314v1.48C30.865,66.59,31.454,67.18,32.181,67.18z"/>
	<path fill="#7A848C" d="M37.403,67.18c0.727,0,1.315-0.59,1.315-1.316v-1.48c0-0.727-0.589-1.314-1.315-1.314
		s-1.315,0.588-1.315,1.314v1.48C36.088,66.59,36.677,67.18,37.403,67.18z"/>
	<path fill="#7A848C" d="M-1.114,72.664c0.161-0.219,0.274-0.474,0.274-0.766v-1.48c0-0.292-0.113-0.547-0.274-0.765V72.664z"/>
	<path fill="#7A848C" d="M3.067,69.104c-0.727,0-1.315,0.588-1.315,1.314v1.48c0,0.727,0.589,1.316,1.315,1.316
		s1.315-0.59,1.315-1.316v-1.48C4.383,69.691,3.794,69.104,3.067,69.104z"/>
	<path fill="#7A848C" d="M8.29,69.104c-0.727,0-1.315,0.588-1.315,1.314v1.48c0,0.727,0.589,1.316,1.315,1.316
		s1.315-0.59,1.315-1.316v-1.48C9.605,69.691,9.017,69.104,8.29,69.104z"/>
	<path fill="#7A848C" d="M13.513,69.104c-0.727,0-1.315,0.588-1.315,1.314v1.48c0,0.727,0.589,1.316,1.315,1.316
		s1.315-0.59,1.315-1.316v-1.48C14.828,69.691,14.239,69.104,13.513,69.104z"/>
	<path fill="#7A848C" d="M18.735,69.104c-0.727,0-1.315,0.588-1.315,1.314v1.48c0,0.727,0.589,1.316,1.315,1.316
		s1.315-0.59,1.315-1.316v-1.48C20.051,69.691,19.462,69.104,18.735,69.104z"/>
	<path fill="#7A848C" d="M23.958,69.104c-0.727,0-1.315,0.588-1.315,1.314v1.48c0,0.727,0.589,1.316,1.315,1.316
		s1.315-0.59,1.315-1.316v-1.48C25.273,69.691,24.685,69.104,23.958,69.104z"/>
	<path fill="#7A848C" d="M29.181,69.104c-0.727,0-1.315,0.588-1.315,1.314v1.48c0,0.727,0.589,1.316,1.315,1.316
		s1.315-0.59,1.315-1.316v-1.48C30.496,69.691,29.907,69.104,29.181,69.104z"/>
	<path fill="#7A848C" d="M34.403,69.104c-0.727,0-1.315,0.588-1.315,1.314v1.48c0,0.727,0.589,1.316,1.315,1.316
		s1.315-0.59,1.315-1.316v-1.48C35.719,69.691,35.13,69.104,34.403,69.104z"/>
	<path fill="#7A848C" d="M38.311,70.418v1.48c0,0.495,0.285,0.911,0.689,1.136v-3.751C38.596,69.508,38.311,69.923,38.311,70.418z"
		/>
	<path fill="#7A848C" d="M0.845,75.139c-0.727,0-1.315,0.588-1.315,1.314v1.48c0,0.727,0.589,1.316,1.315,1.316
		s1.315-0.59,1.315-1.316v-1.48C2.16,75.727,1.571,75.139,0.845,75.139z"/>
	<path fill="#7A848C" d="M6.067,75.139c-0.727,0-1.315,0.588-1.315,1.314v1.48c0,0.727,0.589,1.316,1.315,1.316
		s1.315-0.59,1.315-1.316v-1.48C7.383,75.727,6.794,75.139,6.067,75.139z"/>
	<path fill="#7A848C" d="M11.29,75.139c-0.727,0-1.315,0.588-1.315,1.314v1.48c0,0.727,0.589,1.316,1.315,1.316
		s1.315-0.59,1.315-1.316v-1.48C12.605,75.727,12.017,75.139,11.29,75.139z"/>
	<path fill="#7A848C" d="M16.513,75.139c-0.727,0-1.315,0.588-1.315,1.314v1.48c0,0.727,0.589,1.316,1.315,1.316
		s1.315-0.59,1.315-1.316v-1.48C17.828,75.727,17.239,75.139,16.513,75.139z"/>
	<path fill="#7A848C" d="M21.735,75.139c-0.727,0-1.315,0.588-1.315,1.314v1.48c0,0.727,0.589,1.316,1.315,1.316
		s1.315-0.59,1.315-1.316v-1.48C23.051,75.727,22.462,75.139,21.735,75.139z"/>
	<path fill="#7A848C" d="M26.958,75.139c-0.727,0-1.315,0.588-1.315,1.314v1.48c0,0.727,0.589,1.316,1.315,1.316
		s1.315-0.59,1.315-1.316v-1.48C28.273,75.727,27.685,75.139,26.958,75.139z"/>
	<path fill="#7A848C" d="M32.181,75.139c-0.727,0-1.315,0.588-1.315,1.314v1.48c0,0.727,0.589,1.316,1.315,1.316
		s1.315-0.59,1.315-1.316v-1.48C33.496,75.727,32.907,75.139,32.181,75.139z"/>
	<path fill="#7A848C" d="M37.403,75.139c-0.727,0-1.315,0.588-1.315,1.314v1.48c0,0.727,0.589,1.316,1.315,1.316
		s1.315-0.59,1.315-1.316v-1.48C38.719,75.727,38.13,75.139,37.403,75.139z"/>
</g>
<g opacity="0.5">
	<path fill="#231F20" d="M38-8.334v36.205V80H-0.114V27.871V-8.334H38 M39-9.334H-1.114v37.205V81H39V27.871V-9.334L39-9.334z"/>
</g>
</svg>
