<?xml version="1.0" encoding="utf-8"?>
<!-- Generator: Adobe Illustrator 15.0.0, SVG Export Plug-In . SVG Version: 6.00 Build 0)  -->
<!DOCTYPE svg PUBLIC "-//W3C//DTD SVG 1.1//EN" "http://www.w3.org/Graphics/SVG/1.1/DTD/svg11.dtd">
<svg version="1.1" id="Layer_1" xmlns="http://www.w3.org/2000/svg" xmlns:xlink="http://www.w3.org/1999/xlink" x="0px" y="0px"
	 width="1200px" height="600px" viewBox="0 0 1200 600" enable-background="new 0 0 1200 600" xml:space="preserve">
<g>
	<g>
		<rect x="137.5" y="363.129" fill="#D2D3D3" width="443.333" height="6"/>
		<path fill="#A0A0A0" d="M580.233,363.729v4.801H138.1v-4.801H580.233 M580.833,363.129H137.5v6h443.333V363.129L580.833,363.129z"
			/>
	</g>
	<g>
		<polyline fill="#D2D3D3" points="169.474,93.116 169.474,107.695 175.474,107.695 175.474,93.116 		"/>
		<polygon fill="#A0A0A0" points="175.774,107.995 169.174,107.995 169.174,93.116 169.774,93.116 169.774,107.395 175.174,107.395 
			175.174,93.116 175.774,93.116 		"/>
	</g>
	<g>
		<polygon fill="#D2D3D3" points="192.688,256 198.688,256 198.688,55.25 192.688,55.25 192.688,142.901 175.474,142.901 
			175.474,129.312 169.474,129.312 169.474,148.901 192.688,148.901 		"/>
		<path fill="#A0A0A0" d="M198.087,55.85V255.4h-4.8V148.901v-0.6h-0.6h-22.613v-18.389h4.8v12.989v0.6h0.6h17.213h0.6v-0.6V55.85
			H198.087 M198.688,55.25h-6v87.651h-17.214v-13.589h-6v19.589h23.213V256h6L198.688,55.25L198.688,55.25z"/>
	</g>
	<g>
		<polyline fill="#D2D3D3" points="297.141,93.116 297.141,107.695 303.141,107.695 303.141,93.116 		"/>
		<polygon fill="#A0A0A0" points="303.44,107.995 296.841,107.995 296.841,93.116 297.44,93.116 297.44,107.395 302.841,107.395 
			302.841,93.116 303.44,93.116 		"/>
	</g>
	<g>
		<polygon fill="#D2D3D3" points="320.354,256 326.354,256 326.354,55.25 320.354,55.25 320.354,142.901 303.141,142.901 
			303.141,129.312 297.141,129.312 297.141,148.901 320.354,148.901 		"/>
		<path fill="#A0A0A0" d="M325.754,55.85V255.4h-4.8V148.901v-0.6h-0.6h-22.613v-18.389h4.8v12.989v0.6h0.6h17.213h0.6v-0.6V55.85
			H325.754 M326.354,55.25h-6v87.651h-17.213v-13.589h-6v19.589h23.213V256h6V55.25L326.354,55.25z"/>
	</g>
	<g>
		<polyline fill="#D2D3D3" points="424.808,93.116 424.808,107.695 430.808,107.695 430.808,93.116 		"/>
		<polygon fill="#A0A0A0" points="431.107,107.995 424.508,107.995 424.508,93.116 425.107,93.116 425.107,107.395 430.508,107.395 
			430.508,93.116 431.107,93.116 		"/>
	</g>
	<g>
		<polygon fill="#D2D3D3" points="448.021,256 454.021,256 454.021,55.25 448.021,55.25 448.021,142.901 430.808,142.901 
			430.808,129.312 424.808,129.312 424.808,148.901 448.021,148.901 		"/>
		<path fill="#A0A0A0" d="M453.421,55.85V255.4h-4.8V148.901v-0.6h-0.6h-22.613v-18.389h4.8v12.989v0.6h0.6h17.214h0.6v-0.6V55.85
			H453.421 M454.021,55.25h-6v87.651h-17.214v-13.589h-6v19.589h23.214V256h6V55.25L454.021,55.25z"/>
	</g>
	<g>
		<polyline fill="#D2D3D3" points="552.474,93.116 552.474,107.695 558.474,107.695 558.474,93.116 		"/>
		<polygon fill="#A0A0A0" points="558.774,107.995 552.174,107.995 552.174,93.116 552.774,93.116 552.774,107.395 558.174,107.395 
			558.174,93.116 558.774,93.116 		"/>
	</g>
	<g>
		<polygon fill="#D2D3D3" points="575.688,142.901 558.474,142.901 558.474,129.312 552.474,129.312 552.474,148.901 
			575.688,148.901 575.688,256 581.688,256 581.688,55.25 575.688,55.25 		"/>
		<path fill="#A0A0A0" d="M581.087,55.85V255.4h-4.8V148.901v-0.6h-0.6h-22.613v-18.389h4.8v12.989v0.6h0.6h17.214h0.6v-0.6V55.85
			H581.087 M581.688,55.25h-6v87.651h-17.213v-13.589h-6v19.589h23.213V256h6V55.25L581.688,55.25z"/>
	</g>
	<g>
		<polygon fill="#D2D3D3" points="629.499,46.833 643.833,46.833 643.833,310.475 713.798,310.475 713.798,366.969 786.798,366.969 
			786.798,360.969 719.798,360.969 719.798,330.034 786.798,330.034 786.798,324.034 719.798,324.034 719.798,291.1 786.798,291.1 
			786.798,285.1 719.798,285.1 719.798,254.166 786.798,254.166 786.798,248.166 713.798,248.166 713.798,304.475 649.833,304.475 
			649.833,46.833 913.834,46.833 913.834,304.475 893.153,304.475 893.153,248.166 812.153,248.166 812.153,254.166 
			887.153,254.166 887.153,285.1 812.153,285.1 812.153,291.1 887.153,291.1 887.153,324.034 812.153,324.034 812.153,330.034 
			887.153,330.034 887.153,360.969 812.153,360.969 812.153,366.969 893.153,366.969 893.153,310.475 913.834,310.475 
			913.834,534.5 919.834,534.5 919.834,40.833 629.499,40.833 		"/>
		<path fill="#A0A0A0" d="M919.234,41.434V533.9h-4.802V310.475v-0.6h-0.6h-20.681h-0.601v0.6v55.896h-79.801v-4.802h74.4h0.6v-0.6
			v-30.935v-0.601h-0.6h-74.4v-4.801h74.4h0.6v-0.6V291.1v-0.6h-0.6h-74.4v-4.8h74.4h0.6v-0.6v-30.934v-0.6h-0.6h-74.4v-4.8h79.801
			v55.708v0.601h0.601h20.681h0.6v-0.601V46.833v-0.6h-0.6h-264h-0.6v0.6v257.642v0.6h0.6h63.965h0.601v-0.6v-55.709h71.801v4.8
			h-66.4h-0.6v0.6V285.1v0.6h0.6h66.4v4.8h-66.4h-0.6v0.6v32.935v0.6h0.6h66.4v4.801h-66.4h-0.6v0.601v30.935v0.6h0.6h66.4v4.802
			h-71.801v-55.896v-0.6h-0.601h-69.365V46.833v-0.6h-0.6h-13.734v-4.8L919.234,41.434 M919.834,40.833H629.499v6h14.334v263.642
			h69.965v56.493h73v-6h-67v-30.935h67v-6h-67V291.1h67v-6h-67v-30.934h67v-6h-73v56.309h-63.965V46.833h264.001v257.642h-20.681
			v-56.31h-81v6h75V285.1h-75v6h75v32.935h-75v6h75v30.936h-75v6h81v-56.494h20.681V534.5h6V40.833L919.834,40.833z"/>
	</g>
	<g>
		<rect x="969.153" y="125.1" fill="#D2D3D3" width="76" height="6"/>
		<path fill="#A0A0A0" d="M1044.554,125.7v4.8h-74.801v-4.8H1044.554 M1045.153,125.1h-76v6h76V125.1L1045.153,125.1z"/>
	</g>
</g>
<path fill="#444444" d="M132.214,374.355l-8.227-8.228l8.227-8.229l8.227,8.229L132.214,374.355z M128.229,366.129l3.985,3.984
	l3.985-3.984l-3.985-3.986L128.229,366.129z"/>
<path fill="#5439AA" d="M172.571,116.204h-4.084v-5.062h-0.001c-3.216,0-5.824,2.377-5.824,5.311c0,2.935,2.608,5.313,5.824,5.313
	h0.001v-5.062h4.084l-5.941,13.608h12.104l-6.053-13.858l-0.016,0.036v-0.071l0.016,0.036l6.053-13.859h-12.105L172.571,116.204z"/>
<g>
	<g>
		
			<linearGradient id="SVGID_1_" gradientUnits="userSpaceOnUse" x1="456.3955" y1="-123.0635" x2="500.1591" y2="-123.0635" gradientTransform="matrix(1 0 0 -1 -282.6602 195.04)">
			<stop  offset="0" style="stop-color:#B5D9FF"/>
			<stop  offset="0.1758" style="stop-color:#DBEBFC"/>
			<stop  offset="0.3091" style="stop-color:#EDF0F2"/>
			<stop  offset="0.5" style="stop-color:#FFFFFF"/>
			<stop  offset="0.7273" style="stop-color:#E3F0F2"/>
			<stop  offset="0.9212" style="stop-color:#A8C2FD"/>
			<stop  offset="1" style="stop-color:#8FB5E6"/>
		</linearGradient>
		<path fill="url(#SVGID_1_)" d="M217.709,260.59c0-3.815-9.859-6.907-22.021-6.907s-22.022,3.092-22.022,6.907
			c0,0.011,0.005,0.021,0.005,0.031h-0.005v31.853c0,2.597,1.989,4.968,5.266,6.801v71.483c0,6.496,7.503,11.766,16.754,11.766
			c9.252,0,16.755-5.27,16.755-11.766v-71.48c3.279-1.833,5.268-4.206,5.268-6.803v-31.853h-0.004
			C217.705,260.611,217.709,260.601,217.709,260.59z"/>
		<path opacity="0.5" fill="#231F20" enable-background="new    " d="M195.688,254.283c12.553,0,21.323,3.287,21.42,6.257
			l-0.003,0.018v0.063l0.004,0.6v31.252c0,2.261-1.762,4.491-4.961,6.279l-0.307,0.172v0.352v71.48
			c0,6.157-7.247,11.166-16.155,11.166c-8.908,0-16.154-5.009-16.154-11.166v-71.483v-0.352l-0.307-0.171
			c-3.198-1.789-4.959-4.018-4.959-6.277v-31.252h0.005v-0.6l-0.003-0.086l-0.001-0.004
			C174.383,257.563,183.147,254.283,195.688,254.283 M195.688,253.683c-12.163,0-22.022,3.092-22.022,6.907
			c0,0.011,0.005,0.021,0.005,0.031h-0.005v31.853c0,2.597,1.989,4.968,5.266,6.801v71.483c0,6.496,7.503,11.766,16.754,11.766
			c9.252,0,16.755-5.27,16.755-11.766v-71.48c3.279-1.833,5.268-4.206,5.268-6.803v-31.853h-0.004c0-0.011,0.004-0.021,0.004-0.031
			C217.709,256.775,207.851,253.683,195.688,253.683L195.688,253.683z"/>
		<rect x="179.541" y="298.917" opacity="0.5" fill="#231F20" enable-background="new    " width="32.303" height="0.6"/>
		<rect x="174.265" y="292.093" opacity="0.5" fill="#231F20" enable-background="new    " width="42.844" height="0.6"/>
		<g>
			<g>
				<path d="M188.405,278.439c0-0.375-0.132-0.664-0.396-0.867c-0.264-0.203-0.739-0.408-1.427-0.615s-1.234-0.438-1.641-0.691
					c-0.777-0.488-1.166-1.125-1.166-1.91c0-0.688,0.28-1.254,0.841-1.699c0.561-0.445,1.288-0.668,2.183-0.668
					c0.594,0,1.123,0.109,1.588,0.328c0.465,0.219,0.83,0.53,1.096,0.935c0.266,0.405,0.398,0.853,0.398,1.345h-1.477
					c0-0.445-0.14-0.794-0.419-1.046c-0.279-0.252-0.679-0.378-1.198-0.378c-0.484,0-0.86,0.104-1.128,0.311
					c-0.268,0.207-0.401,0.496-0.401,0.867c0,0.313,0.145,0.573,0.434,0.782s0.766,0.412,1.43,0.609
					c0.664,0.197,1.197,0.422,1.6,0.674c0.403,0.252,0.697,0.541,0.885,0.867c0.188,0.326,0.281,0.708,0.281,1.146
					c0,0.711-0.272,1.276-0.817,1.696c-0.545,0.42-1.284,0.63-2.218,0.63c-0.617,0-1.185-0.114-1.702-0.343s-0.92-0.544-1.207-0.946
					c-0.287-0.402-0.431-0.871-0.431-1.406h1.482c0,0.484,0.16,0.859,0.48,1.125c0.32,0.266,0.779,0.398,1.377,0.398
					c0.516,0,0.903-0.104,1.163-0.313C188.275,279.061,188.405,278.783,188.405,278.439z"/>
				<path d="M197.727,279.529c-0.309,0.402-0.736,0.707-1.283,0.914c-0.547,0.207-1.168,0.311-1.863,0.311
					c-0.715,0-1.348-0.162-1.898-0.486c-0.55-0.324-0.976-0.788-1.274-1.392c-0.298-0.604-0.454-1.308-0.466-2.112v-0.668
					c0-1.289,0.309-2.296,0.926-3.021c0.617-0.725,1.479-1.087,2.584-1.087c0.949,0,1.703,0.235,2.262,0.706
					c0.559,0.471,0.895,1.147,1.008,2.03h-1.453c-0.164-1.027-0.76-1.541-1.787-1.541c-0.664,0-1.169,0.239-1.515,0.717
					c-0.346,0.478-0.524,1.18-0.536,2.104v0.655c0,0.921,0.194,1.636,0.583,2.146c0.389,0.509,0.929,0.764,1.62,0.764
					c0.758,0,1.297-0.172,1.617-0.516v-1.67h-1.758v-1.125h3.234L197.727,279.529L197.727,279.529z"/>
				<path d="M205.971,280.637h-1.418v-6.854l-2.092,0.713v-1.195l3.328-1.225h0.182V280.637z"/>
			</g>
		</g>
	</g>
	<rect x="174.266" y="261.249" opacity="0.5" fill="#231F20" enable-background="new    " width="42.844" height="0.6"/>
</g>
<path fill="#5439AA" d="M300.237,116.204h-4.084v-5.062h-0.001c-3.216,0-5.824,2.377-5.824,5.311c0,2.935,2.608,5.313,5.824,5.313
	h0.001v-5.062h4.084l-5.941,13.608H306.4l-6.053-13.858l-0.016,0.036v-0.071l0.016,0.036l6.053-13.859h-12.104L300.237,116.204z"/>
<g>
	<g>
		
			<linearGradient id="SVGID_2_" gradientUnits="userSpaceOnUse" x1="584.0615" y1="-123.0635" x2="627.8251" y2="-123.0635" gradientTransform="matrix(1 0 0 -1 -282.6602 195.04)">
			<stop  offset="0" style="stop-color:#B5D9FF"/>
			<stop  offset="0.1758" style="stop-color:#DBEBFC"/>
			<stop  offset="0.3091" style="stop-color:#EDF0F2"/>
			<stop  offset="0.5" style="stop-color:#FFFFFF"/>
			<stop  offset="0.7273" style="stop-color:#E3F0F2"/>
			<stop  offset="0.9212" style="stop-color:#A8C2FD"/>
			<stop  offset="1" style="stop-color:#8FB5E6"/>
		</linearGradient>
		<path fill="url(#SVGID_2_)" d="M345.376,260.59c0-3.815-9.859-6.907-22.021-6.907s-22.022,3.092-22.022,6.907
			c0,0.011,0.005,0.021,0.005,0.031h-0.005v31.853c0,2.597,1.989,4.968,5.266,6.801v71.483c0,6.496,7.503,11.766,16.754,11.766
			c9.252,0,16.755-5.27,16.755-11.766v-71.48c3.279-1.833,5.268-4.206,5.268-6.803v-31.853h-0.004
			C345.372,260.611,345.376,260.601,345.376,260.59z"/>
		<path opacity="0.5" fill="#231F20" enable-background="new    " d="M323.354,254.283c12.553,0,21.323,3.287,21.421,6.257
			l-0.004,0.018v0.063l0.004,0.6v31.252c0,2.261-1.762,4.491-4.961,6.279l-0.307,0.172v0.352v71.48
			c0,6.157-7.247,11.166-16.155,11.166c-8.908,0-16.154-5.009-16.154-11.166v-71.483v-0.352l-0.307-0.171
			c-3.198-1.789-4.959-4.018-4.959-6.277v-31.252h0.005v-0.6l-0.003-0.086l-0.001-0.004
			C302.05,257.563,310.814,254.283,323.354,254.283 M323.354,253.683c-12.163,0-22.022,3.092-22.022,6.907
			c0,0.011,0.005,0.021,0.005,0.031h-0.005v31.853c0,2.597,1.989,4.968,5.266,6.801v71.483c0,6.496,7.503,11.766,16.754,11.766
			c9.252,0,16.755-5.27,16.755-11.766v-71.48c3.279-1.833,5.268-4.206,5.268-6.803v-31.853h-0.004c0-0.011,0.004-0.021,0.004-0.031
			C345.376,256.775,335.517,253.683,323.354,253.683L323.354,253.683z"/>
		<rect x="307.208" y="298.917" opacity="0.5" fill="#231F20" enable-background="new    " width="32.303" height="0.6"/>
		<rect x="301.932" y="292.093" opacity="0.5" fill="#231F20" enable-background="new    " width="42.844" height="0.6"/>
		<g>
			<g>
				<path d="M316.071,278.439c0-0.375-0.132-0.664-0.396-0.867c-0.264-0.203-0.739-0.408-1.427-0.615s-1.234-0.438-1.641-0.691
					c-0.777-0.488-1.166-1.125-1.166-1.91c0-0.688,0.28-1.254,0.841-1.699c0.561-0.445,1.288-0.668,2.183-0.668
					c0.594,0,1.123,0.109,1.588,0.328c0.465,0.219,0.83,0.53,1.096,0.935c0.266,0.405,0.398,0.853,0.398,1.345h-1.477
					c0-0.445-0.14-0.794-0.419-1.046c-0.279-0.252-0.679-0.378-1.198-0.378c-0.484,0-0.86,0.104-1.128,0.311
					c-0.268,0.207-0.401,0.496-0.401,0.867c0,0.313,0.145,0.573,0.434,0.782s0.766,0.412,1.43,0.609
					c0.664,0.197,1.197,0.422,1.6,0.674c0.403,0.252,0.697,0.541,0.885,0.867c0.188,0.326,0.281,0.708,0.281,1.146
					c0,0.711-0.272,1.276-0.817,1.696s-1.284,0.63-2.218,0.63c-0.617,0-1.185-0.114-1.702-0.343s-0.92-0.544-1.207-0.946
					c-0.287-0.402-0.431-0.871-0.431-1.406h1.482c0,0.484,0.16,0.859,0.48,1.125c0.32,0.266,0.779,0.398,1.377,0.398
					c0.516,0,0.903-0.104,1.163-0.313C315.941,279.061,316.071,278.783,316.071,278.439z"/>
				<path d="M325.394,279.529c-0.309,0.402-0.736,0.707-1.283,0.914c-0.547,0.207-1.168,0.311-1.863,0.311
					c-0.715,0-1.348-0.162-1.898-0.486c-0.55-0.324-0.976-0.788-1.274-1.392c-0.298-0.604-0.454-1.308-0.466-2.112v-0.668
					c0-1.289,0.309-2.296,0.926-3.021c0.617-0.725,1.479-1.087,2.584-1.087c0.949,0,1.703,0.235,2.262,0.706
					c0.559,0.471,0.895,1.147,1.008,2.03h-1.453c-0.164-1.027-0.76-1.541-1.787-1.541c-0.664,0-1.169,0.239-1.515,0.717
					c-0.346,0.478-0.524,1.18-0.536,2.104v0.655c0,0.921,0.194,1.636,0.583,2.146c0.389,0.509,0.929,0.764,1.62,0.764
					c0.758,0,1.297-0.172,1.617-0.516v-1.67h-1.758v-1.125h3.234L325.394,279.529L325.394,279.529z"/>
				<path d="M335.519,280.637h-5.736v-0.979l2.842-3.1c0.41-0.457,0.702-0.839,0.876-1.146c0.174-0.307,0.261-0.614,0.261-0.923
					c0-0.406-0.114-0.734-0.343-0.984s-0.536-0.375-0.923-0.375c-0.461,0-0.818,0.141-1.072,0.422
					c-0.254,0.281-0.381,0.666-0.381,1.154h-1.424c0-0.52,0.118-0.987,0.354-1.403c0.236-0.416,0.574-0.739,1.014-0.97
					s0.946-0.346,1.521-0.346c0.828,0,1.481,0.208,1.96,0.624s0.718,0.991,0.718,1.726c0,0.426-0.12,0.872-0.36,1.339
					c-0.24,0.467-0.634,0.997-1.181,1.591l-2.086,2.232h3.961L335.519,280.637L335.519,280.637z"/>
			</g>
		</g>
	</g>
	<rect x="301.932" y="261.249" opacity="0.5" fill="#231F20" enable-background="new    " width="42.844" height="0.6"/>
</g>
<path fill="#5439AA" d="M427.904,116.204h-4.084v-5.062h-0.001c-3.217,0-5.824,2.377-5.824,5.311c0,2.935,2.607,5.313,5.824,5.313
	h0.001v-5.062h4.084l-5.941,13.608h12.104l-6.054-13.858l-0.016,0.036v-0.071l0.016,0.036l6.054-13.859h-12.104L427.904,116.204z"/>
<g>
	<g>
		
			<linearGradient id="SVGID_3_" gradientUnits="userSpaceOnUse" x1="711.7285" y1="-123.0635" x2="755.4921" y2="-123.0635" gradientTransform="matrix(1 0 0 -1 -282.6602 195.04)">
			<stop  offset="0" style="stop-color:#B5D9FF"/>
			<stop  offset="0.1758" style="stop-color:#DBEBFC"/>
			<stop  offset="0.3091" style="stop-color:#EDF0F2"/>
			<stop  offset="0.5" style="stop-color:#FFFFFF"/>
			<stop  offset="0.7273" style="stop-color:#E3F0F2"/>
			<stop  offset="0.9212" style="stop-color:#A8C2FD"/>
			<stop  offset="1" style="stop-color:#8FB5E6"/>
		</linearGradient>
		<path fill="url(#SVGID_3_)" d="M473.043,260.59c0-3.815-9.859-6.907-22.021-6.907c-12.162,0-22.022,3.092-22.022,6.907
			c0,0.011,0.005,0.021,0.005,0.031H429v31.853c0,2.597,1.989,4.968,5.266,6.801v71.483c0,6.496,7.503,11.766,16.754,11.766
			c9.253,0,16.756-5.27,16.756-11.766v-71.48c3.278-1.833,5.268-4.206,5.268-6.803v-31.853h-0.004
			C473.039,260.611,473.043,260.601,473.043,260.59z"/>
		<path opacity="0.5" fill="#231F20" enable-background="new    " d="M451.021,254.283c12.553,0,21.322,3.287,21.421,6.257
			l-0.005,0.018v0.063l0.005,0.6v31.252c0,2.261-1.763,4.491-4.961,6.279l-0.308,0.172v0.352v71.48
			c0,6.157-7.247,11.166-16.155,11.166c-8.907,0-16.153-5.009-16.153-11.166v-71.483v-0.352l-0.308-0.171
			c-3.197-1.789-4.959-4.018-4.959-6.277v-31.252h0.005v-0.6l-0.003-0.086l-0.001-0.004
			C429.717,257.563,438.481,254.283,451.021,254.283 M451.021,253.683c-12.163,0-22.022,3.092-22.022,6.907
			c0,0.011,0.005,0.021,0.005,0.031H429v31.853c0,2.597,1.989,4.968,5.266,6.801v71.483c0,6.496,7.503,11.766,16.754,11.766
			c9.253,0,16.756-5.27,16.756-11.766v-71.48c3.278-1.833,5.268-4.206,5.268-6.803v-31.853h-0.004c0-0.011,0.004-0.021,0.004-0.031
			C473.043,256.775,463.184,253.683,451.021,253.683L451.021,253.683z"/>
		<rect x="434.875" y="298.917" opacity="0.5" fill="#231F20" enable-background="new    " width="32.303" height="0.6"/>
		<rect x="429.599" y="292.093" opacity="0.5" fill="#231F20" enable-background="new    " width="42.845" height="0.6"/>
		<g>
			<g>
				<path d="M443.738,278.439c0-0.375-0.132-0.664-0.396-0.867c-0.264-0.203-0.739-0.408-1.427-0.615
					c-0.688-0.207-1.234-0.438-1.641-0.691c-0.777-0.488-1.166-1.125-1.166-1.91c0-0.688,0.279-1.254,0.841-1.699
					c0.561-0.445,1.288-0.668,2.183-0.668c0.594,0,1.123,0.109,1.588,0.328c0.466,0.219,0.83,0.53,1.097,0.935
					c0.266,0.405,0.397,0.853,0.397,1.345h-1.477c0-0.445-0.141-0.794-0.419-1.046c-0.279-0.252-0.68-0.378-1.198-0.378
					c-0.484,0-0.86,0.104-1.128,0.311c-0.269,0.207-0.401,0.496-0.401,0.867c0,0.313,0.146,0.573,0.435,0.782
					s0.766,0.412,1.43,0.609c0.664,0.197,1.197,0.422,1.6,0.674c0.403,0.252,0.697,0.541,0.886,0.867
					c0.188,0.326,0.28,0.708,0.28,1.146c0,0.711-0.271,1.276-0.816,1.696s-1.284,0.63-2.218,0.63c-0.617,0-1.186-0.114-1.702-0.343
					c-0.518-0.229-0.92-0.544-1.207-0.946c-0.287-0.402-0.432-0.871-0.432-1.406h1.482c0,0.484,0.16,0.859,0.48,1.125
					c0.319,0.266,0.778,0.398,1.377,0.398c0.516,0,0.902-0.104,1.162-0.313C443.608,279.061,443.738,278.783,443.738,278.439z"/>
				<path d="M453.061,279.529c-0.309,0.402-0.735,0.707-1.282,0.914s-1.168,0.311-1.863,0.311c-0.715,0-1.348-0.162-1.898-0.486
					c-0.55-0.324-0.976-0.788-1.273-1.392s-0.454-1.308-0.466-2.112v-0.668c0-1.289,0.309-2.296,0.926-3.021
					c0.617-0.725,1.479-1.087,2.584-1.087c0.949,0,1.703,0.235,2.262,0.706c0.56,0.471,0.896,1.147,1.008,2.03h-1.453
					c-0.163-1.027-0.76-1.541-1.786-1.541c-0.664,0-1.169,0.239-1.516,0.717c-0.346,0.478-0.523,1.18-0.536,2.104v0.655
					c0,0.921,0.194,1.636,0.583,2.146c0.39,0.509,0.93,0.764,1.62,0.764c0.758,0,1.297-0.172,1.617-0.516v-1.67h-1.758v-1.125h3.234
					v3.271H453.061z"/>
				<path d="M459.096,275.721h0.867c0.438-0.004,0.784-0.117,1.04-0.34c0.256-0.223,0.384-0.545,0.384-0.967
					c0-0.406-0.105-0.722-0.318-0.946c-0.213-0.224-0.538-0.337-0.977-0.337c-0.383,0-0.697,0.11-0.942,0.331
					c-0.246,0.221-0.369,0.509-0.369,0.864h-1.424c0-0.438,0.115-0.836,0.349-1.195c0.233-0.359,0.557-0.64,0.973-0.841
					s0.882-0.302,1.397-0.302c0.852,0,1.521,0.214,2.007,0.642c0.486,0.428,0.729,1.022,0.729,1.784
					c0,0.383-0.121,0.743-0.365,1.081s-0.561,0.593-0.946,0.765c0.469,0.16,0.825,0.412,1.069,0.756
					c0.243,0.344,0.365,0.754,0.365,1.23c0,0.766-0.263,1.375-0.787,1.828c-0.525,0.453-1.217,0.68-2.071,0.68
					c-0.82,0-1.492-0.219-2.017-0.656c-0.523-0.437-0.784-1.02-0.784-1.746h1.424c0,0.375,0.126,0.68,0.378,0.914
					s0.591,0.352,1.017,0.352c0.441,0,0.789-0.117,1.043-0.352s0.381-0.574,0.381-1.02c0-0.449-0.133-0.795-0.397-1.037
					c-0.266-0.242-0.66-0.363-1.185-0.363h-0.838L459.096,275.721L459.096,275.721z"/>
			</g>
		</g>
	</g>
	<rect x="429.599" y="261.249" opacity="0.5" fill="#231F20" enable-background="new    " width="42.845" height="0.6"/>
</g>
<path fill="#5439AA" d="M555.571,116.204h-4.084v-5.062h-0.001c-3.217,0-5.824,2.377-5.824,5.311c0,2.935,2.607,5.313,5.824,5.313
	h0.001v-5.062h4.084l-5.941,13.608h12.104l-6.054-13.858l-0.016,0.036v-0.071l0.016,0.036l6.054-13.859H549.63L555.571,116.204z"/>
<g>
	<g>
		
			<linearGradient id="SVGID_4_" gradientUnits="userSpaceOnUse" x1="839.3955" y1="-123.0635" x2="883.1586" y2="-123.0635" gradientTransform="matrix(1 0 0 -1 -282.6602 195.04)">
			<stop  offset="0" style="stop-color:#B5D9FF"/>
			<stop  offset="0.1758" style="stop-color:#DBEBFC"/>
			<stop  offset="0.3091" style="stop-color:#EDF0F2"/>
			<stop  offset="0.5" style="stop-color:#FFFFFF"/>
			<stop  offset="0.7273" style="stop-color:#E3F0F2"/>
			<stop  offset="0.9212" style="stop-color:#A8C2FD"/>
			<stop  offset="1" style="stop-color:#8FB5E6"/>
		</linearGradient>
		<path fill="url(#SVGID_4_)" d="M600.709,260.59c0-3.815-9.858-6.907-22.021-6.907c-12.163,0-22.022,3.092-22.022,6.907
			c0,0.011,0.005,0.021,0.005,0.031h-0.005v31.853c0,2.597,1.989,4.968,5.266,6.801v71.483c0,6.496,7.503,11.766,16.754,11.766
			c9.253,0,16.756-5.27,16.756-11.766v-71.48c3.278-1.833,5.268-4.206,5.268-6.803v-31.853h-0.004
			C600.705,260.611,600.709,260.601,600.709,260.59z"/>
		<path opacity="0.5" fill="#231F20" enable-background="new    " d="M578.688,254.283c12.563,0,21.336,3.291,21.421,6.263
			l-0.003,0.019v0.057l0.004,0.6v31.252c0,2.261-1.763,4.491-4.96,6.279l-0.308,0.172v0.352v71.48
			c0,6.157-7.247,11.166-16.154,11.166c-8.908,0-16.154-5.009-16.154-11.166v-71.483v-0.352l-0.308-0.171
			c-3.197-1.789-4.959-4.018-4.959-6.277v-31.252h0.006v-0.6l-0.004-0.087l-0.001-0.004
			C557.384,257.563,566.148,254.283,578.688,254.283 M578.688,253.683c-12.162,0-22.021,3.092-22.021,6.907
			c0,0.011,0.005,0.021,0.005,0.031h-0.005v31.853c0,2.597,1.989,4.968,5.266,6.801v71.483c0,6.496,7.503,11.766,16.754,11.766
			c9.252,0,16.756-5.27,16.756-11.766v-71.48c3.278-1.833,5.268-4.206,5.268-6.803v-31.853h-0.004c0-0.011,0.004-0.021,0.004-0.031
			C600.709,256.775,590.851,253.683,578.688,253.683L578.688,253.683z"/>
		<rect x="562.541" y="298.917" opacity="0.5" fill="#231F20" enable-background="new    " width="32.303" height="0.6"/>
		<rect x="557.265" y="292.093" opacity="0.5" fill="#231F20" enable-background="new    " width="42.845" height="0.6"/>
		<g>
			<g>
				<path d="M571.405,278.439c0-0.375-0.132-0.664-0.396-0.867c-0.264-0.203-0.739-0.408-1.427-0.615
					c-0.688-0.207-1.234-0.438-1.641-0.691c-0.777-0.488-1.166-1.125-1.166-1.91c0-0.688,0.279-1.254,0.841-1.699
					c0.561-0.445,1.288-0.668,2.183-0.668c0.594,0,1.123,0.109,1.588,0.328c0.466,0.219,0.83,0.53,1.097,0.935
					c0.266,0.405,0.397,0.853,0.397,1.345h-1.477c0-0.445-0.141-0.794-0.419-1.046c-0.279-0.252-0.68-0.378-1.198-0.378
					c-0.484,0-0.86,0.104-1.128,0.311c-0.269,0.207-0.401,0.496-0.401,0.867c0,0.313,0.146,0.573,0.435,0.782
					s0.766,0.412,1.43,0.609c0.664,0.197,1.197,0.422,1.6,0.674c0.403,0.252,0.697,0.541,0.886,0.867
					c0.188,0.326,0.28,0.708,0.28,1.146c0,0.711-0.271,1.276-0.816,1.696s-1.284,0.63-2.218,0.63c-0.617,0-1.186-0.114-1.702-0.343
					c-0.518-0.229-0.92-0.544-1.207-0.946c-0.287-0.402-0.432-0.871-0.432-1.406h1.482c0,0.484,0.16,0.859,0.48,1.125
					c0.319,0.266,0.778,0.398,1.377,0.398c0.516,0,0.902-0.104,1.163-0.313C571.275,279.061,571.405,278.783,571.405,278.439z"/>
				<path d="M580.727,279.529c-0.309,0.402-0.735,0.707-1.282,0.914s-1.168,0.311-1.863,0.311c-0.715,0-1.348-0.162-1.898-0.486
					c-0.55-0.324-0.976-0.788-1.273-1.392s-0.454-1.308-0.466-2.112v-0.668c0-1.289,0.309-2.296,0.926-3.021
					c0.617-0.725,1.479-1.087,2.584-1.087c0.949,0,1.703,0.235,2.262,0.706c0.56,0.471,0.896,1.147,1.008,2.03h-1.453
					c-0.163-1.027-0.76-1.541-1.786-1.541c-0.664,0-1.169,0.239-1.516,0.717c-0.346,0.478-0.523,1.18-0.536,2.104v0.655
					c0,0.921,0.194,1.636,0.583,2.146c0.39,0.509,0.93,0.764,1.62,0.764c0.758,0,1.297-0.172,1.617-0.516v-1.67h-1.758v-1.125h3.233
					L580.727,279.529L580.727,279.529z"/>
				<path d="M589.932,277.596h1.062v1.143h-1.062v1.898h-1.424v-1.898h-3.686l-0.041-0.867l3.68-5.766h1.471V277.596z
					 M586.276,277.596h2.231v-3.563l-0.104,0.188L586.276,277.596z"/>
			</g>
		</g>
	</g>
	<rect x="557.266" y="261.249" opacity="0.5" fill="#231F20" enable-background="new    " width="42.845" height="0.6"/>
</g>
<path fill="#444444" d="M916.742,546.647l-8.229-8.229l8.229-8.229l8.227,8.229L916.742,546.647z M912.757,538.42l3.985,3.985
	l3.983-3.985l-3.983-3.985L912.757,538.42z"/>
<path fill="#5439AA" d="M799.486,250.895v-4.084h5.062v-0.001c0-3.216-2.377-5.824-5.311-5.824c-2.936,0-5.313,2.608-5.313,5.824
	v0.001h5.063v4.084l-13.608-5.941v12.104l13.858-6.053l-0.035-0.016h0.07l-0.035,0.016l13.858,6.053v-12.104L799.486,250.895z"/>
<path fill="#5439AA" d="M799.486,287.829v-4.084h5.062v-0.001c0-3.216-2.377-5.824-5.311-5.824c-2.936,0-5.313,2.608-5.313,5.824
	v0.001h5.063v4.084l-13.608-5.941v12.104l13.858-6.053l-0.035-0.016h0.07l-0.035,0.016l13.858,6.053v-12.104L799.486,287.829z"/>
<path fill="#5439AA" d="M799.486,326.764v-4.084h5.062v-0.002c0-3.216-2.377-5.824-5.311-5.824c-2.936,0-5.313,2.608-5.313,5.824
	v0.002h5.063v4.084l-13.608-5.941v12.104l13.858-6.053l-0.035-0.016h0.07l-0.035,0.016l13.858,6.053v-12.104L799.486,326.764z"/>
<path fill="#5439AA" d="M799.486,363.695v-4.084h5.062l0,0c0-3.217-2.377-5.824-5.311-5.824c-2.936,0-5.313,2.607-5.313,5.824l0,0
	h5.063v4.084l-13.608-5.94v12.104l13.858-6.053l-0.035-0.017h0.07l-0.035,0.017l13.858,6.053v-12.104L799.486,363.695z"/>
<g>
	<rect x="908.336" y="414.816" fill="#262626" width="0.6" height="14.762"/>
	<g>
		<polygon fill="#262626" points="905.661,428.703 908.652,433.884 911.644,428.703 		"/>
	</g>
</g>
<g>
	
		<linearGradient id="SVGID_5_" gradientUnits="userSpaceOnUse" x1="1128.0176" y1="74.231" x2="1128.0176" y2="56.9068" gradientTransform="matrix(1 0 0 -1 -282.6602 195.04)">
		<stop  offset="0" style="stop-color:#262626"/>
		<stop  offset="0.5" style="stop-color:#ADADAD"/>
		<stop  offset="1" style="stop-color:#262626"/>
	</linearGradient>
	<rect x="842.938" y="121.034" fill="url(#SVGID_5_)" width="4.841" height="16.348"/>
	
		<linearGradient id="SVGID_6_" gradientUnits="userSpaceOnUse" x1="1273.8516" y1="74.231" x2="1273.8516" y2="56.9068" gradientTransform="matrix(1 0 0 -1 -282.6602 195.04)">
		<stop  offset="0" style="stop-color:#262626"/>
		<stop  offset="0.5" style="stop-color:#ADADAD"/>
		<stop  offset="1" style="stop-color:#262626"/>
	</linearGradient>
	<rect x="988.771" y="121.034" fill="url(#SVGID_6_)" width="4.84" height="16.348"/>
</g>
<linearGradient id="SVGID_7_" gradientUnits="userSpaceOnUse" x1="1270.7344" y1="65.833" x2="1129.7216" y2="65.833" gradientTransform="matrix(1 0 0 -1 -282.6602 195.04)">
	<stop  offset="0" style="stop-color:#FBEBDE"/>
	<stop  offset="1" style="stop-color:#FBDBB5"/>
</linearGradient>
<polygon fill="url(#SVGID_7_)" points="989.35,94.902 918.271,115.385 847.197,94.902 847.197,163.514 918.271,143.031 
	989.35,163.514 "/>
<g opacity="0.6">
	<g>
		<path fill="#231F20" d="M988.75,95.7v67.017l-70.313-20.262c-0.055-0.016-0.11-0.023-0.166-0.023
			c-0.057,0-0.112,0.008-0.166,0.023l-70.31,20.262V95.7l70.31,20.262c0.054,0.016,0.109,0.023,0.166,0.023
			c0.056,0,0.111-0.008,0.166-0.023L988.75,95.7 M989.35,94.902l-71.078,20.482l-71.073-20.482v68.611l71.073-20.482l71.078,20.482
			V94.902L989.35,94.902z"/>
	</g>
</g>
<g>
	<g>
		<path d="M912.417,126.01h-2.66v7.336h-1.471v-7.336h-2.637v-1.195h6.768V126.01z"/>
		<path d="M913.536,133.346v-8.531h2.924c0.965,0,1.699,0.193,2.203,0.58s0.756,0.963,0.756,1.729c0,0.391-0.104,0.742-0.315,1.055
			c-0.212,0.313-0.521,0.555-0.927,0.727c0.461,0.125,0.817,0.36,1.069,0.706c0.252,0.346,0.378,0.761,0.378,1.245
			c0,0.801-0.257,1.416-0.771,1.846c-0.514,0.43-1.249,0.645-2.206,0.645h-3.11V133.346z M915.019,128.406h1.453
			c0.461,0,0.821-0.104,1.081-0.313s0.391-0.505,0.391-0.888c0-0.422-0.12-0.727-0.36-0.914s-0.614-0.281-1.122-0.281h-1.441
			L915.019,128.406L915.019,128.406z M915.019,129.496v2.666h1.646c0.465,0,0.828-0.115,1.09-0.346s0.394-0.551,0.394-0.961
			c0-0.887-0.453-1.34-1.359-1.359H915.019L915.019,129.496z"/>
		<path d="M927.874,133.346h-1.482l-3.803-6.053v6.053h-1.481v-8.531h1.481l3.814,6.076v-6.076h1.471V133.346L927.874,133.346z"/>
	</g>
</g>
<linearGradient id="SVGID_8_" gradientUnits="userSpaceOnUse" x1="1143.5869" y1="-271.084" x2="1256.0566" y2="-271.084" gradientTransform="matrix(1 0 0 -1 -282.6602 195.04)">
	<stop  offset="0" style="stop-color:#917887"/>
	<stop  offset="0.1455" style="stop-color:#C4B3BD"/>
	<stop  offset="0.5" style="stop-color:#FFFFFF"/>
	<stop  offset="0.8485" style="stop-color:#C4B3BD"/>
	<stop  offset="1" style="stop-color:#917887"/>
</linearGradient>
<rect x="860.927" y="438.269" fill="url(#SVGID_8_)" width="112.47" height="55.711"/>
<path opacity="0.5" fill="#231F20" enable-background="new    " d="M972.797,438.868v54.511H861.526v-54.511H972.797
	 M973.396,438.269H860.926v55.711h112.471V438.269L973.396,438.269z"/>
<g>
	<g>
		<path d="M908.299,466.285c-0.086,0.91-0.422,1.62-1.008,2.13s-1.365,0.765-2.338,0.765c-0.68,0-1.278-0.161-1.796-0.482
			c-0.519-0.322-0.917-0.78-1.198-1.374s-0.428-1.283-0.439-2.068v-0.797c0-0.805,0.144-1.514,0.429-2.127
			c0.284-0.613,0.693-1.086,1.228-1.418s1.149-0.498,1.85-0.498c0.94,0,1.698,0.255,2.272,0.765
			c0.574,0.511,0.908,1.231,1.002,2.165h-1.477c-0.07-0.612-0.249-1.056-0.536-1.326c-0.287-0.271-0.708-0.407-1.263-0.407
			c-0.646,0-1.141,0.234-1.485,0.707c-0.346,0.471-0.522,1.162-0.53,2.072v0.757c0,0.923,0.165,1.627,0.495,2.11
			c0.33,0.485,0.813,0.729,1.45,0.729c0.582,0,1.02-0.131,1.313-0.394c0.293-0.262,0.479-0.696,0.558-1.307L908.299,466.285
			L908.299,466.285z"/>
		<path d="M916.432,465.02c0,0.837-0.145,1.569-0.434,2.2s-0.702,1.115-1.239,1.453s-1.155,0.507-1.854,0.507
			c-0.691,0-1.309-0.169-1.85-0.507s-0.959-0.818-1.254-1.443s-0.443-1.347-0.448-2.162v-0.48c0-0.832,0.147-1.566,0.442-2.203
			s0.711-1.124,1.248-1.462s1.153-0.507,1.849-0.507c0.696,0,1.313,0.167,1.85,0.501s0.952,0.814,1.245,1.441
			s0.44,1.355,0.444,2.188V465.02L916.432,465.02z M914.949,464.574c0-0.945-0.18-1.67-0.536-2.174
			c-0.357-0.505-0.864-0.757-1.521-0.757c-0.641,0-1.142,0.251-1.503,0.754c-0.36,0.502-0.546,1.212-0.554,2.13v0.491
			c0,0.938,0.183,1.662,0.548,2.175c0.365,0.512,0.872,0.768,1.521,0.768c0.655,0,1.16-0.25,1.515-0.75s0.53-1.229,0.53-2.191
			V464.574z"/>
		<path d="M924.676,469.063h-1.481l-3.804-6.054v6.054h-1.481v-8.531h1.481l3.814,6.076v-6.076h1.471V469.063L924.676,469.063z"/>
		<path d="M926.428,469.063v-8.531h2.521c0.754,0,1.423,0.168,2.007,0.504s1.036,0.813,1.355,1.43c0.32,0.617,0.48,1.324,0.48,2.121
			v0.428c0,0.81-0.161,1.521-0.483,2.134c-0.321,0.612-0.78,1.086-1.377,1.418c-0.596,0.332-1.277,0.497-2.048,0.497H926.428
			L926.428,469.063z M927.91,461.727v6.152h0.967c0.777,0,1.374-0.243,1.79-0.729c0.416-0.486,0.628-1.186,0.636-2.096v-0.475
			c0-0.926-0.201-1.633-0.604-2.121c-0.403-0.488-0.986-0.732-1.752-0.732H927.91z"/>
	</g>
</g>
<g>
	<g>
		
			<linearGradient id="SVGID_9_" gradientUnits="userSpaceOnUse" x1="672.0215" y1="164.9912" x2="672.0215" y2="137.1123" gradientTransform="matrix(1 0 0 -1 -282.6602 195.04)">
			<stop  offset="0" style="stop-color:#EDEDED"/>
			<stop  offset="0.2545" style="stop-color:#FFFFFF"/>
			<stop  offset="0.7212" style="stop-color:#FFFFFF"/>
			<stop  offset="1" style="stop-color:#CFCFCF"/>
		</linearGradient>
		<path fill="url(#SVGID_9_)" d="M160.654,30.573c-6.826,0.521-12.208,6.29-12.208,13.346c0,7.059,5.382,12.827,12.208,13.347v0.052
			h457.991v-0.104c6.55-0.79,11.632-6.436,11.632-13.294c0-6.857-5.082-12.502-11.632-13.292v-0.104H160.654V30.573z"/>
		
			<linearGradient id="SVGID_10_" gradientUnits="userSpaceOnUse" x1="672.0215" y1="164.9912" x2="672.0215" y2="137.1123" gradientTransform="matrix(1 0 0 -1 -282.6602 195.04)">
			<stop  offset="0" style="stop-color:#EDEDED"/>
			<stop  offset="0.2545" style="stop-color:#FFFFFF"/>
			<stop  offset="0.7212" style="stop-color:#FFFFFF"/>
			<stop  offset="1" style="stop-color:#CFCFCF"/>
		</linearGradient>
		<path fill="url(#SVGID_10_)" d="M160.654,30.573c-6.826,0.521-12.208,6.29-12.208,13.346c0,7.059,5.382,12.827,12.208,13.347
			v0.052h457.991v-0.104c6.55-0.79,11.632-6.436,11.632-13.294c0-6.857-5.082-12.502-11.632-13.292v-0.104H160.654V30.573z"/>
	</g>
	<g opacity="0.5">
		<path fill="#231F20" d="M618.045,31.123v0.036l0.527,0.064c6.33,0.764,11.104,6.223,11.104,12.697
			c0,6.476-4.772,11.935-11.104,12.699l-0.527,0.063v0.037H161.254V56.71l-0.555-0.042c-6.535-0.498-11.653-6.098-11.653-12.749
			c0-6.65,5.119-12.249,11.653-12.748l0.555-0.042v-0.007L618.045,31.123 M618.645,30.522H160.654v0.051
			c-6.826,0.521-12.208,6.29-12.208,13.346c0,7.059,5.382,12.827,12.208,13.347v0.052h457.991v-0.104
			c6.55-0.79,11.632-6.436,11.632-13.294c0-6.857-5.082-12.502-11.632-13.292V30.522L618.645,30.522z"/>
		<path fill="#231F20" d="M618.045,31.123v0.036l0.527,0.064c6.33,0.764,11.104,6.223,11.104,12.697
			c0,6.476-4.772,11.935-11.104,12.699l-0.527,0.063v0.037H161.254V56.71l-0.555-0.042c-6.535-0.498-11.653-6.098-11.653-12.749
			c0-6.65,5.119-12.249,11.653-12.748l0.555-0.042v-0.007L618.045,31.123 M618.645,30.522H160.654v0.051
			c-6.826,0.521-12.208,6.29-12.208,13.346c0,7.059,5.382,12.827,12.208,13.347v0.052h457.991v-0.104
			c6.55-0.79,11.632-6.436,11.632-13.294c0-6.857-5.082-12.502-11.632-13.292V30.522L618.645,30.522z"/>
	</g>
</g>
<g>
	<g>
		<path d="M339.046,38.896l2.461,6.539l2.455-6.539h1.916v8.531h-1.477v-2.813l0.146-3.762l-2.52,6.574h-1.061l-2.514-6.568
			l0.146,3.756v2.813h-1.477v-8.531H339.046z"/>
		<path d="M351.281,47.427c-0.063-0.121-0.117-0.318-0.164-0.592c-0.453,0.473-1.008,0.709-1.664,0.709
			c-0.637,0-1.156-0.182-1.559-0.545c-0.403-0.363-0.604-0.813-0.604-1.348c0-0.676,0.251-1.194,0.753-1.556
			c0.502-0.362,1.22-0.542,2.153-0.542h0.873v-0.416c0-0.328-0.092-0.591-0.275-0.788c-0.183-0.197-0.463-0.296-0.838-0.296
			c-0.324,0-0.59,0.081-0.797,0.243s-0.311,0.368-0.311,0.618h-1.424c0-0.348,0.115-0.673,0.346-0.976s0.544-0.54,0.94-0.712
			s0.839-0.258,1.327-0.258c0.742,0,1.334,0.187,1.775,0.56s0.668,0.897,0.68,1.573v2.859c0,0.57,0.08,1.025,0.24,1.365v0.1h-1.451
			V47.427z M349.716,46.402c0.281,0,0.546-0.068,0.794-0.205c0.248-0.137,0.435-0.32,0.56-0.551v-1.195h-0.768
			c-0.527,0-0.924,0.092-1.189,0.275c-0.265,0.183-0.398,0.443-0.398,0.779c0,0.273,0.091,0.491,0.272,0.653
			C349.168,46.32,349.412,46.402,349.716,46.402z"/>
		<path d="M353.988,39.441c0-0.219,0.069-0.4,0.208-0.545c0.139-0.145,0.337-0.217,0.595-0.217s0.457,0.072,0.598,0.217
			c0.141,0.145,0.211,0.326,0.211,0.545c0,0.215-0.07,0.394-0.211,0.536c-0.141,0.142-0.34,0.214-0.598,0.214
			s-0.456-0.071-0.595-0.214C354.057,39.834,353.988,39.656,353.988,39.441z M355.5,47.427h-1.424v-6.34h1.424V47.427z"/>
		<path d="M358.371,41.087l0.041,0.732c0.469-0.566,1.084-0.85,1.846-0.85c1.32,0,1.992,0.756,2.016,2.268v4.189h-1.424V43.32
			c0-0.402-0.087-0.7-0.261-0.894c-0.174-0.194-0.458-0.29-0.853-0.29c-0.574,0-1.002,0.26-1.283,0.779v4.512h-1.424v-6.34H358.371z
			"/>
		<path d="M371.308,45.23c0-0.375-0.132-0.664-0.396-0.867c-0.264-0.203-0.739-0.408-1.427-0.615s-1.234-0.438-1.641-0.691
			c-0.777-0.488-1.166-1.125-1.166-1.91c0-0.688,0.28-1.254,0.841-1.699c0.561-0.445,1.288-0.668,2.183-0.668
			c0.594,0,1.123,0.109,1.588,0.328c0.465,0.219,0.83,0.53,1.096,0.935c0.266,0.405,0.398,0.853,0.398,1.345h-1.477
			c0-0.445-0.14-0.794-0.419-1.046c-0.279-0.252-0.679-0.378-1.198-0.378c-0.484,0-0.86,0.104-1.128,0.311s-0.401,0.496-0.401,0.867
			c0,0.313,0.145,0.573,0.434,0.782s0.766,0.412,1.43,0.609c0.664,0.197,1.197,0.422,1.6,0.674c0.403,0.252,0.697,0.541,0.885,0.867
			c0.188,0.326,0.281,0.708,0.281,1.146c0,0.711-0.272,1.276-0.817,1.696s-1.284,0.63-2.218,0.63c-0.617,0-1.185-0.114-1.702-0.343
			s-0.92-0.544-1.207-0.946c-0.287-0.402-0.431-0.871-0.431-1.406h1.482c0,0.484,0.16,0.859,0.48,1.125
			c0.32,0.266,0.779,0.398,1.377,0.398c0.516,0,0.903-0.104,1.163-0.313C371.178,45.852,371.308,45.574,371.308,45.23z"/>
		<path d="M375.738,39.546v1.541h1.119v1.055h-1.119v3.539c0,0.242,0.048,0.417,0.144,0.524c0.096,0.107,0.267,0.161,0.513,0.161
			c0.164,0,0.33-0.02,0.498-0.059v1.102c-0.324,0.09-0.637,0.135-0.938,0.135c-1.094,0-1.641-0.604-1.641-1.811v-3.592h-1.043
			v-1.055h1.043v-1.541L375.738,39.546L375.738,39.546z"/>
		<path d="M380.736,47.544c-0.902,0-1.634-0.284-2.194-0.853s-0.841-1.325-0.841-2.271v-0.176c0-0.633,0.122-1.198,0.366-1.696
			c0.244-0.498,0.587-0.886,1.028-1.163c0.441-0.277,0.934-0.416,1.477-0.416c0.863,0,1.53,0.275,2.001,0.826
			c0.471,0.551,0.706,1.33,0.706,2.338v0.574h-4.143c0.043,0.523,0.218,0.938,0.524,1.242c0.306,0.304,0.692,0.457,1.157,0.457
			c0.652,0,1.184-0.264,1.594-0.791l0.768,0.732c-0.254,0.379-0.593,0.673-1.017,0.882
			C381.738,47.438,381.263,47.544,380.736,47.544z M380.566,42.113c-0.391,0-0.706,0.137-0.946,0.41
			c-0.24,0.273-0.394,0.654-0.46,1.143h2.713V43.56c-0.031-0.477-0.158-0.837-0.381-1.081
			C381.269,42.235,380.96,42.113,380.566,42.113z"/>
		<path d="M388.171,47.427c-0.063-0.121-0.117-0.318-0.164-0.592c-0.453,0.473-1.008,0.709-1.664,0.709
			c-0.637,0-1.156-0.182-1.559-0.545c-0.403-0.363-0.604-0.813-0.604-1.348c0-0.676,0.251-1.194,0.753-1.556
			c0.502-0.362,1.22-0.542,2.153-0.542h0.873v-0.416c0-0.328-0.092-0.591-0.275-0.788c-0.183-0.197-0.463-0.296-0.838-0.296
			c-0.324,0-0.59,0.081-0.797,0.243s-0.311,0.368-0.311,0.618h-1.424c0-0.348,0.115-0.673,0.346-0.976
			c0.231-0.303,0.544-0.54,0.94-0.712s0.839-0.258,1.327-0.258c0.742,0,1.334,0.187,1.775,0.56c0.44,0.373,0.668,0.897,0.68,1.573
			v2.859c0,0.57,0.08,1.025,0.24,1.365v0.1h-1.451V47.427z M386.607,46.402c0.281,0,0.546-0.068,0.794-0.205
			c0.248-0.137,0.435-0.32,0.56-0.551v-1.195h-0.768c-0.527,0-0.924,0.092-1.189,0.275c-0.265,0.183-0.398,0.443-0.398,0.779
			c0,0.273,0.091,0.491,0.272,0.653C386.059,46.32,386.302,46.402,386.607,46.402z"/>
		<path d="M392.214,41.087l0.041,0.662c0.445-0.52,1.055-0.779,1.828-0.779c0.848,0,1.428,0.324,1.74,0.973
			c0.461-0.648,1.108-0.973,1.944-0.973c0.699,0,1.221,0.193,1.563,0.58c0.342,0.387,0.517,0.957,0.523,1.711v4.166h-1.424v-4.125
			c0-0.402-0.088-0.697-0.264-0.885s-0.467-0.281-0.873-0.281c-0.324,0-0.589,0.087-0.794,0.261s-0.349,0.401-0.431,0.683
			l0.006,4.348h-1.424v-4.172c-0.021-0.746-0.4-1.119-1.144-1.119c-0.57,0-0.975,0.232-1.213,0.697v4.594h-1.424v-6.34
			L392.214,41.087L392.214,41.087z"/>
		<path d="M411.216,47.427h-1.477v-3.785h-3.814v3.785h-1.481v-8.531h1.481v3.551h3.814v-3.551h1.477V47.427z"/>
		<path d="M415.623,47.544c-0.902,0-1.634-0.284-2.194-0.853c-0.56-0.569-0.841-1.325-0.841-2.271v-0.176
			c0-0.633,0.122-1.198,0.366-1.696s0.587-0.886,1.028-1.163c0.44-0.277,0.934-0.416,1.477-0.416c0.863,0,1.53,0.275,2.001,0.826
			c0.471,0.551,0.706,1.33,0.706,2.338v0.574h-4.143c0.043,0.523,0.218,0.938,0.523,1.242c0.306,0.304,0.692,0.457,1.157,0.457
			c0.652,0,1.184-0.264,1.594-0.791l0.769,0.732c-0.255,0.379-0.594,0.673-1.018,0.882S416.15,47.544,415.623,47.544z
			 M415.453,42.113c-0.391,0-0.706,0.137-0.946,0.41s-0.394,0.654-0.46,1.143h2.713V43.56c-0.031-0.477-0.158-0.837-0.381-1.081
			S415.847,42.113,415.453,42.113z"/>
		<path d="M423.058,47.427c-0.063-0.121-0.116-0.318-0.164-0.592c-0.452,0.473-1.008,0.709-1.663,0.709
			c-0.638,0-1.156-0.182-1.56-0.545c-0.403-0.363-0.604-0.813-0.604-1.348c0-0.676,0.251-1.194,0.753-1.556
			c0.502-0.362,1.22-0.542,2.152-0.542h0.873v-0.416c0-0.328-0.092-0.591-0.274-0.788c-0.184-0.197-0.463-0.296-0.838-0.296
			c-0.324,0-0.591,0.081-0.798,0.243s-0.311,0.368-0.311,0.618h-1.424c0-0.348,0.115-0.673,0.346-0.976
			c0.231-0.303,0.544-0.54,0.94-0.712c0.396-0.172,0.839-0.258,1.327-0.258c0.741,0,1.334,0.187,1.774,0.56
			c0.441,0.373,0.668,0.897,0.68,1.573v2.859c0,0.57,0.08,1.025,0.24,1.365v0.1h-1.451V47.427z M421.494,46.402
			c0.281,0,0.546-0.068,0.794-0.205c0.248-0.137,0.435-0.32,0.56-0.551v-1.195h-0.768c-0.527,0-0.924,0.092-1.189,0.275
			c-0.265,0.183-0.397,0.443-0.397,0.779c0,0.273,0.091,0.491,0.271,0.653C420.946,46.32,421.189,46.402,421.494,46.402z"/>
		<path d="M425.496,44.21c0-0.977,0.227-1.761,0.68-2.353c0.453-0.592,1.062-0.888,1.822-0.888c0.672,0,1.215,0.234,1.629,0.703
			v-3.246h1.424v9h-1.289l-0.069-0.656c-0.427,0.516-0.994,0.773-1.705,0.773c-0.742,0-1.344-0.299-1.803-0.896
			S425.496,45.238,425.496,44.21z M426.919,44.333c0,0.645,0.124,1.147,0.372,1.509c0.248,0.362,0.601,0.542,1.058,0.542
			c0.582,0,1.009-0.26,1.277-0.779v-2.707c-0.262-0.508-0.684-0.762-1.266-0.762c-0.461,0-0.816,0.183-1.066,0.548
			C427.044,43.049,426.919,43.599,426.919,44.333z"/>
		<path d="M435.328,47.544c-0.902,0-1.634-0.284-2.194-0.853c-0.56-0.569-0.841-1.325-0.841-2.271v-0.176
			c0-0.633,0.122-1.198,0.366-1.696s0.587-0.886,1.028-1.163c0.44-0.277,0.934-0.416,1.477-0.416c0.863,0,1.53,0.275,2.001,0.826
			c0.471,0.551,0.706,1.33,0.706,2.338v0.574h-4.144c0.044,0.523,0.219,0.938,0.524,1.242c0.306,0.304,0.692,0.457,1.157,0.457
			c0.651,0,1.184-0.264,1.594-0.791l0.769,0.732c-0.255,0.379-0.594,0.673-1.018,0.882S435.855,47.544,435.328,47.544z
			 M435.158,42.113c-0.392,0-0.706,0.137-0.946,0.41s-0.394,0.654-0.46,1.143h2.713V43.56c-0.031-0.477-0.158-0.837-0.381-1.081
			S435.552,42.113,435.158,42.113z"/>
		<path d="M442.294,42.388c-0.188-0.031-0.381-0.047-0.58-0.047c-0.651,0-1.092,0.25-1.317,0.75v4.336h-1.425v-6.34h1.359
			l0.035,0.709c0.344-0.551,0.819-0.826,1.43-0.826c0.203,0,0.371,0.027,0.504,0.082L442.294,42.388z"/>
	</g>
</g>
<g>
	<g>
		
			<linearGradient id="SVGID_11_" gradientUnits="userSpaceOnUse" x1="1332.2949" y1="97.355" x2="1332.2949" y2="33.5825" gradientTransform="matrix(1 0 0 -1 -282.6602 195.04)">
			<stop  offset="0" style="stop-color:#E3CFD4"/>
			<stop  offset="0.5273" style="stop-color:#FFFCF2"/>
			<stop  offset="1" style="stop-color:#E3CFD4"/>
		</linearGradient>
		<rect x="1008.815" y="98.06" fill="url(#SVGID_11_)" width="81.638" height="59.918"/>
		
			<linearGradient id="SVGID_12_" gradientUnits="userSpaceOnUse" x1="1332.2949" y1="82.8955" x2="1332.2949" y2="51.7449" gradientTransform="matrix(1 0 0 -1 -282.6602 195.04)">
			<stop  offset="0" style="stop-color:#FBE8C7"/>
			<stop  offset="0.5" style="stop-color:#FFFFFF"/>
			<stop  offset="1" style="stop-color:#FBE8C7"/>
		</linearGradient>
		<rect x="1023.046" y="112.81" fill="url(#SVGID_12_)" width="53.177" height="30.416"/>
	</g>
	<g opacity="0.6">
		<path fill="#231F20" d="M1089.854,98.66v58.718h-80.438V98.66H1089.854 M1090.453,98.06h-81.638v59.918h81.638V98.06
			L1090.453,98.06z"/>
		<path fill="#231F20" d="M1075.623,113.41v29.216h-51.979V113.41H1075.623 M1076.223,112.81h-53.177v30.416h53.177V112.81
			L1076.223,112.81z"/>
	</g>
</g>
<g>
	<rect x="1008.846" y="123.917" opacity="0.3" fill="#231F20" enable-background="new    " width="14.233" height="8"/>
	<g opacity="0.4">
		<rect x="1008.846" y="131.518" fill="#231F20" width="14.233" height="0.399"/>
		<rect x="1008.846" y="123.917" fill="#231F20" width="14.233" height="0.399"/>
	</g>
</g>
<g>
	<rect x="1076.208" y="123.917" opacity="0.3" fill="#231F20" enable-background="new    " width="14.233" height="8"/>
	<g opacity="0.4">
		<rect x="1076.208" y="131.518" fill="#231F20" width="14.233" height="0.399"/>
		<rect x="1076.208" y="123.917" fill="#231F20" width="14.233" height="0.399"/>
	</g>
</g>
<g>
	<g>
		<path d="M1045.305,129.49c-0.309,0.402-0.735,0.707-1.283,0.914c-0.547,0.207-1.168,0.311-1.862,0.311
			c-0.715,0-1.349-0.162-1.898-0.486c-0.55-0.324-0.976-0.788-1.273-1.392s-0.454-1.308-0.466-2.112v-0.668
			c0-1.289,0.309-2.296,0.926-3.021s1.479-1.087,2.584-1.087c0.949,0,1.703,0.235,2.262,0.706c0.559,0.471,0.896,1.147,1.008,2.03
			h-1.453c-0.164-1.027-0.76-1.541-1.787-1.541c-0.663,0-1.169,0.239-1.515,0.717s-0.523,1.18-0.536,2.104v0.655
			c0,0.921,0.194,1.636,0.583,2.146c0.39,0.509,0.93,0.764,1.62,0.764c0.758,0,1.297-0.172,1.617-0.516v-1.67h-1.758v-1.125h3.233
			L1045.305,129.49L1045.305,129.49z"/>
		<path d="M1051.92,126.789h-3.504v2.625h4.096v1.184h-5.578v-8.531h5.537v1.195h-4.055v2.355h3.504V126.789z"/>
		<path d="M1060.486,130.598h-1.482l-3.803-6.053v6.053h-1.482v-8.531h1.482l3.813,6.076v-6.076h1.472V130.598L1060.486,130.598z"/>
	</g>
</g>
</svg>
