<?xml version="1.0" encoding="utf-8"?>
<!-- Generator: Adobe Illustrator 15.0.0, SVG Export Plug-In . SVG Version: 6.00 Build 0)  -->
<!DOCTYPE svg PUBLIC "-//W3C//DTD SVG 1.1//EN" "http://www.w3.org/Graphics/SVG/1.1/DTD/svg11.dtd">
<svg version="1.1" id="Layer_1" xmlns="http://www.w3.org/2000/svg" xmlns:xlink="http://www.w3.org/1999/xlink" x="0px" y="0px"
	 width="1200px" height="600px" viewBox="0 0 1200 600" enable-background="new 0 0 1200 600" xml:space="preserve">
<g>
	<polygon points="923.8,274.5 923.2,274.5 923.2,11.909 238.362,11.909 238.362,11.309 923.8,11.309 	"/>
	<polygon points="353.988,199.606 238.063,199.606 238.063,11.609 238.662,11.609 238.662,199.006 353.388,199.006 353.388,11.609 
		353.988,11.609 	"/>
</g>
<polygon points="652.486,441.519 651.887,441.519 651.887,321.514 294.792,321.514 294.792,199.651 295.391,199.651 
	295.391,320.913 652.486,320.913 "/>
<g>
	<polygon fill="#D2D3D3" points="724.672,270.934 719.672,270.934 719.672,205.991 493.802,205.991 493.802,270.934 
		488.802,270.934 488.802,200.991 724.672,200.991 	"/>
	<path fill="#999999" d="M725.172,271.434h-6v-64.943h-224.87v64.943h-6v-70.943h236.87V271.434z M720.172,270.434h4v-68.943
		h-234.87v68.943h4v-64.943h226.87V270.434z"/>
</g>
<g>
	<path fill="#D2D3D3" d="M1044.28,445.288H171.172v-174.67h873.108V445.288z M176.172,440.288h863.108v-164.67H176.172V440.288z"/>
	<path fill="#999999" d="M1044.78,445.788H170.672v-175.67h874.108V445.788z M171.672,444.788h872.108v-173.67H171.672V444.788z
		 M1039.78,440.788H175.672v-165.67h864.108V440.788z M176.672,439.788h862.108v-163.67H176.672V439.788z"/>
</g>
<g>
	<rect x="606.206" y="281.656" width="0.6" height="39.557"/>
	<g>
		<polygon points="609.48,282.531 606.489,277.35 603.498,282.531 		"/>
	</g>
</g>
<g>
	<g>
		
			<linearGradient id="SVGID_1_" gradientUnits="userSpaceOnUse" x1="870.4609" y1="82.8955" x2="870.4609" y2="91.6635" gradientTransform="matrix(1 0 0 -1 -260.6602 280.04)">
			<stop  offset="0" style="stop-color:#000000"/>
			<stop  offset="0.1025" style="stop-color:#121212"/>
			<stop  offset="0.3081" style="stop-color:#414141"/>
			<stop  offset="0.598" style="stop-color:#8C8C8C"/>
			<stop  offset="0.9582" style="stop-color:#F3F3F3"/>
			<stop  offset="1" style="stop-color:#FFFFFF"/>
		</linearGradient>
		<rect x="533.932" y="187.048" fill="url(#SVGID_1_)" width="151.737" height="10.362"/>
		
			<linearGradient id="SVGID_2_" gradientUnits="userSpaceOnUse" x1="870.4609" y1="72.5283" x2="870.4609" y2="81.3004" gradientTransform="matrix(1 0 0 -1 -260.6602 280.04)">
			<stop  offset="0" style="stop-color:#000000"/>
			<stop  offset="0.1025" style="stop-color:#121212"/>
			<stop  offset="0.3081" style="stop-color:#414141"/>
			<stop  offset="0.598" style="stop-color:#8C8C8C"/>
			<stop  offset="0.9582" style="stop-color:#F3F3F3"/>
			<stop  offset="1" style="stop-color:#FFFFFF"/>
		</linearGradient>
		<rect x="533.932" y="197.41" fill="url(#SVGID_2_)" width="151.737" height="10.367"/>
		
			<linearGradient id="SVGID_3_" gradientUnits="userSpaceOnUse" x1="870.4609" y1="62.166" x2="870.4609" y2="70.9356" gradientTransform="matrix(1 0 0 -1 -260.6602 280.04)">
			<stop  offset="0" style="stop-color:#000000"/>
			<stop  offset="0.1025" style="stop-color:#121212"/>
			<stop  offset="0.3081" style="stop-color:#414141"/>
			<stop  offset="0.598" style="stop-color:#8C8C8C"/>
			<stop  offset="0.9582" style="stop-color:#F3F3F3"/>
			<stop  offset="1" style="stop-color:#FFFFFF"/>
		</linearGradient>
		<rect x="533.932" y="207.775" fill="url(#SVGID_3_)" width="151.737" height="10.364"/>
	</g>
	<path opacity="0.5" fill="#231F20" enable-background="new    " d="M685.069,187.648v9.762v10.367v9.762H534.532v-9.764V197.41
		v-9.762H685.069 M685.669,187.048H533.932v10.362v10.365v0.002v10.362h151.737v-10.362v-0.002V197.41V187.048L685.669,187.048z"/>
</g>
<rect x="573.581" y="101.579" width="0.6" height="58.728"/>
<rect x="592.714" y="101.579" width="0.601" height="48.894"/>
<rect x="612.378" y="101.579" width="0.6" height="44.645"/>
<rect x="630.45" y="101.579" width="0.6" height="49.959"/>
<rect x="569.629" y="101.279" width="9.035" height="0.6"/>
<rect x="587.167" y="101.279" width="10.098" height="0.6"/>
<rect x="607.886" y="101.279" width="8.248" height="0.6"/>
<rect x="625.966" y="101.279" width="8.77" height="0.6"/>
<polygon points="649.48,163.21 648.881,163.21 648.881,131.946 736.702,131.946 736.702,132.545 649.48,132.545 "/>
<g>
	<rect x="693.683" y="195.339" width="14.765" height="0.6"/>
	<g>
		<polygon points="694.559,192.664 689.377,195.655 694.559,198.647 		"/>
	</g>
</g>
<g>
	<rect x="511.275" y="195.339" width="14.762" height="0.6"/>
	<g>
		<polygon points="525.161,198.613 530.342,195.622 525.161,192.63 		"/>
	</g>
</g>
<g>
	<polygon fill="#D2D3D3" points="679.532,309.023 674.532,309.023 674.532,237.269 541.899,237.269 541.899,309.023 
		536.899,309.023 536.899,232.269 679.532,232.269 	"/>
	<path fill="#999999" d="M680.032,309.523h-6v-71.755H542.399v71.755h-6v-77.755h143.633V309.523z M675.032,308.523h4v-75.755
		H537.399v75.755h4v-71.755h133.633V308.523z"/>
</g>
<g>
	<polygon fill="#D2D3D3" points="761.064,374.736 756.064,374.736 756.064,313.07 456.635,313.07 456.635,364.713 451.635,364.713 
		451.635,308.07 761.064,308.07 	"/>
	<path fill="#999999" d="M761.564,375.236h-6V313.57h-298.43v51.643h-6V307.57h310.43V375.236L761.564,375.236z M756.564,374.236h4
		V308.57h-308.43v55.643h4V312.57h300.43V374.236L756.564,374.236z"/>
</g>
<g>
	<rect x="435.072" y="398.939" fill="#D2D3D3" width="5" height="41.777"/>
	<path fill="#999999" d="M440.572,441.218h-6v-42.778h6V441.218z M435.572,440.218h4v-40.778h-4V440.218z"/>
</g>
<g>
	<rect x="778.074" y="401.163" fill="#D2D3D3" width="5" height="40.354"/>
	<path fill="#999999" d="M783.574,442.019h-6v-41.354h6V442.019z M778.574,441.019h4v-39.354h-4V441.019z"/>
</g>
<g>
	<polyline fill="#D2D3D3" points="118.343,490.361 163.683,490.361 163.683,495.361 118.343,495.361 	"/>
	<polygon fill="#999999" points="164.183,495.861 118.343,495.861 118.343,494.861 163.183,494.861 163.183,490.861 
		118.343,490.861 118.343,489.861 164.183,489.861 	"/>
</g>
<g>
	<polygon fill="#D2D3D3" points="248.593,495.361 191.431,495.361 191.431,490.361 252.593,490.361 	"/>
	<path fill="#999999" d="M248.833,495.861h-57.902v-6h62.702L248.833,495.861z M191.931,494.861h56.421l3.2-4h-59.621V494.861z"/>
</g>
<g>
	<polyline fill="#D2D3D3" points="80.437,561.176 122.059,561.176 122.059,566.176 80.437,566.176 	"/>
	<polygon fill="#999999" points="122.559,566.676 80.437,566.676 80.437,565.676 121.559,565.676 121.559,561.676 80.437,561.676 
		80.437,560.676 122.559,560.676 	"/>
</g>
<g>
	<polygon fill="#D2D3D3" points="1016.748,496.528 966.51,496.528 962.51,491.528 1016.748,491.528 	"/>
	<path fill="#999999" d="M1017.248,497.028H966.27l-4.8-6h55.778V497.028L1017.248,497.028z M966.75,496.028h49.498v-4H963.55
		L966.75,496.028z"/>
</g>
<g>
	<polyline fill="#D2D3D3" points="1084.258,496.504 1041.979,496.504 1041.979,491.504 1084.258,491.504 	"/>
	<polygon fill="#999999" points="1084.258,497.004 1041.479,497.004 1041.479,491.004 1084.258,491.004 1084.258,492.004 
		1042.479,492.004 1042.479,496.004 1084.258,496.004 	"/>
</g>
<g>
	<polyline fill="#D2D3D3" points="1129.338,565.564 1084.712,565.564 1084.712,560.564 1129.338,560.564 	"/>
	<polygon fill="#999999" points="1129.338,566.064 1084.212,566.064 1084.212,560.064 1129.338,560.064 1129.338,561.064 
		1085.212,561.064 1085.212,565.064 1129.338,565.064 	"/>
</g>
<g>
	<path fill="#EC1C24" d="M240.458,117.376v-0.86c-0.103,0.286-0.19,0.579-0.303,0.86H240.458z"/>
	<path fill="#231F20" d="M240.708,117.626h-0.922l0.137-0.343c0.067-0.168,0.125-0.341,0.183-0.514
		c0.038-0.113,0.076-0.226,0.116-0.338l0.485-1.345L240.708,117.626L240.708,117.626z"/>
</g>
<g>
	
		<linearGradient id="SVGID_4_" gradientUnits="userSpaceOnUse" x1="-174.7202" y1="602.1504" x2="-164.5511" y2="583.5084" gradientTransform="matrix(-1 0 0 1 611.7373 -199.7578)">
		<stop  offset="0" style="stop-color:#66A8E0"/>
		<stop  offset="0.497" style="stop-color:#003D57"/>
		<stop  offset="1" style="stop-color:#002140"/>
	</linearGradient>
	<polygon fill="url(#SVGID_4_)" points="787.441,402.863 787.441,399.971 786.084,399.971 786.084,377.604 774.713,377.604 
		774.713,399.971 773.568,399.971 773.568,402.863 	"/>
	<g>
		
			<linearGradient id="SVGID_5_" gradientUnits="userSpaceOnUse" x1="817.3682" y1="-13.5249" x2="845.2781" y2="-39.4084" gradientTransform="matrix(-4.371139e-008 1 1 4.371139e-008 796.5685 -452.1012)">
			<stop  offset="0" style="stop-color:#66A8E0"/>
			<stop  offset="0.497" style="stop-color:#003D57"/>
			<stop  offset="1" style="stop-color:#002140"/>
		</linearGradient>
		<path fill="url(#SVGID_5_)" d="M786.525,379.5c0,9.215-7.467,16.684-16.683,16.684c-9.213,0-16.681-7.469-16.681-16.684
			s7.468-16.682,16.681-16.682C779.06,362.818,786.525,370.285,786.525,379.5z"/>
		<g>
			<path fill="#F1F1F2" d="M780.604,379.5c0,5.939-4.819,10.76-10.761,10.76c-5.942,0-10.758-4.82-10.758-10.76
				c0-5.941,4.814-10.759,10.758-10.759C775.783,368.741,780.604,373.559,780.604,379.5z"/>
			<path fill="#231F20" d="M769.843,390.76c-6.208,0-11.258-5.051-11.258-11.26c0-6.208,5.05-11.259,11.258-11.259
				c6.209,0,11.261,5.051,11.261,11.259C781.104,385.709,776.052,390.76,769.843,390.76z M769.843,369.241
				c-5.655,0-10.258,4.603-10.258,10.259c0,5.657,4.603,10.26,10.258,10.26c5.658,0,10.261-4.603,10.261-10.26
				C780.104,373.844,775.501,369.241,769.843,369.241z"/>
		</g>
		<g>
			<g>
				
					<linearGradient id="SVGID_6_" gradientUnits="userSpaceOnUse" x1="825.6982" y1="-20.8179" x2="838.37" y2="-33.4897" gradientTransform="matrix(-4.371139e-008 1 1 4.371139e-008 796.5685 -452.1012)">
					<stop  offset="0" style="stop-color:#66A8E0"/>
					<stop  offset="0.497" style="stop-color:#003D57"/>
					<stop  offset="1" style="stop-color:#002140"/>
				</linearGradient>
				<polygon fill="url(#SVGID_6_)" points="773.718,372.146 770.771,376.164 773.182,378.574 777.199,375.628 				"/>
				
					<linearGradient id="SVGID_7_" gradientUnits="userSpaceOnUse" x1="825.6953" y1="-20.8169" x2="838.3672" y2="-33.4887" gradientTransform="matrix(-4.371139e-008 1 1 4.371139e-008 796.5685 -452.1012)">
					<stop  offset="0" style="stop-color:#66A8E0"/>
					<stop  offset="0.497" style="stop-color:#003D57"/>
					<stop  offset="1" style="stop-color:#002140"/>
				</linearGradient>
				<polygon fill="url(#SVGID_7_)" points="766.508,380.43 762.49,383.374 765.972,386.854 768.917,382.838 				"/>
				
					<linearGradient id="SVGID_8_" gradientUnits="userSpaceOnUse" x1="829.5703" y1="-16.9453" x2="842.2389" y2="-29.6138" gradientTransform="matrix(-4.371139e-008 1 1 4.371139e-008 796.5685 -452.1012)">
					<stop  offset="0" style="stop-color:#66A8E0"/>
					<stop  offset="0.497" style="stop-color:#003D57"/>
					<stop  offset="1" style="stop-color:#002140"/>
				</linearGradient>
				<polygon fill="url(#SVGID_8_)" points="773.718,386.854 777.199,383.374 773.182,380.43 770.771,382.838 				"/>
				
					<linearGradient id="SVGID_9_" gradientUnits="userSpaceOnUse" x1="821.8242" y1="-24.6899" x2="834.4945" y2="-37.3601" gradientTransform="matrix(-4.371139e-008 1 1 4.371139e-008 796.5685 -452.1012)">
					<stop  offset="0" style="stop-color:#66A8E0"/>
					<stop  offset="0.497" style="stop-color:#003D57"/>
					<stop  offset="1" style="stop-color:#002140"/>
				</linearGradient>
				<polygon fill="url(#SVGID_9_)" points="765.972,372.146 762.49,375.628 766.508,378.574 768.917,376.164 				"/>
			</g>
			<g>
				<path fill="#FFFFFF" d="M773.19,379.5c0,1.848-1.5,3.346-3.347,3.346c-1.844,0-3.345-1.498-3.345-3.346
					c0-1.85,1.501-3.344,3.345-3.344C771.69,376.156,773.19,377.65,773.19,379.5z"/>
				<path fill="#808184" d="M769.845,382.971c-1.913,0-3.47-1.557-3.47-3.471c0-1.913,1.557-3.469,3.47-3.469
					c1.914,0,3.472,1.556,3.472,3.469C773.315,381.414,771.759,382.971,769.845,382.971z M769.845,376.281
					c-1.774,0-3.22,1.443-3.22,3.219s1.444,3.221,3.22,3.221c1.776,0,3.222-1.443,3.222-3.221
					C773.065,377.727,771.621,376.281,769.845,376.281z"/>
			</g>
		</g>
	</g>
</g>
<g>
	
		<linearGradient id="SVGID_10_" gradientUnits="userSpaceOnUse" x1="-292.959" y1="602.1504" x2="-282.7898" y2="583.5082" gradientTransform="matrix(1 0 0 1 724.5469 -199.7578)">
		<stop  offset="0" style="stop-color:#66A8E0"/>
		<stop  offset="0.497" style="stop-color:#003D57"/>
		<stop  offset="1" style="stop-color:#002140"/>
	</linearGradient>
	<polygon fill="url(#SVGID_10_)" points="430.604,402.863 430.604,399.971 431.962,399.971 431.962,377.604 443.333,377.604 
		443.333,399.971 444.478,399.971 444.478,402.863 	"/>
	<g>
		
			<linearGradient id="SVGID_11_" gradientUnits="userSpaceOnUse" x1="817.3691" y1="104.7134" x2="845.279" y2="78.8299" gradientTransform="matrix(4.366649e-008 1 -1 4.366649e-008 539.7162 -452.1012)">
			<stop  offset="0" style="stop-color:#66A8E0"/>
			<stop  offset="0.497" style="stop-color:#003D57"/>
			<stop  offset="1" style="stop-color:#002140"/>
		</linearGradient>
		<path fill="url(#SVGID_11_)" d="M431.521,379.5c0,9.215,7.466,16.684,16.682,16.684c9.213,0,16.681-7.469,16.681-16.684
			s-7.468-16.682-16.681-16.682C438.986,362.818,431.521,370.285,431.521,379.5z"/>
		<g>
			<path fill="#F1F1F2" d="M437.442,379.5c0,5.939,4.819,10.76,10.761,10.76c5.942,0,10.758-4.82,10.758-10.76
				c0-5.941-4.814-10.759-10.758-10.759C442.263,368.741,437.442,373.559,437.442,379.5z"/>
			<path fill="#231F20" d="M448.203,390.76c-6.209,0-11.261-5.051-11.261-11.26c0-6.208,5.052-11.259,11.261-11.259
				c6.208,0,11.258,5.051,11.258,11.259C459.461,385.709,454.411,390.76,448.203,390.76z M448.203,369.241
				c-5.658,0-10.261,4.603-10.261,10.259c0,5.657,4.603,10.26,10.261,10.26c5.656,0,10.258-4.603,10.258-10.26
				C458.461,373.844,453.859,369.241,448.203,369.241z"/>
		</g>
		<g>
			<g>
				
					<linearGradient id="SVGID_12_" gradientUnits="userSpaceOnUse" x1="825.6973" y1="97.4204" x2="838.369" y2="84.7486" gradientTransform="matrix(4.366649e-008 1 -1 4.366649e-008 539.7162 -452.1012)">
					<stop  offset="0" style="stop-color:#66A8E0"/>
					<stop  offset="0.497" style="stop-color:#003D57"/>
					<stop  offset="1" style="stop-color:#002140"/>
				</linearGradient>
				<polygon fill="url(#SVGID_12_)" points="444.328,372.146 447.273,376.164 444.864,378.574 440.847,375.628 				"/>
				
					<linearGradient id="SVGID_13_" gradientUnits="userSpaceOnUse" x1="825.6953" y1="97.4219" x2="838.3671" y2="84.7502" gradientTransform="matrix(4.366649e-008 1 -1 4.366649e-008 539.7162 -452.1012)">
					<stop  offset="0" style="stop-color:#66A8E0"/>
					<stop  offset="0.497" style="stop-color:#003D57"/>
					<stop  offset="1" style="stop-color:#002140"/>
				</linearGradient>
				<polygon fill="url(#SVGID_13_)" points="451.538,380.43 455.556,383.374 452.074,386.854 449.129,382.838 				"/>
				
					<linearGradient id="SVGID_14_" gradientUnits="userSpaceOnUse" x1="829.5713" y1="101.2925" x2="842.2397" y2="88.624" gradientTransform="matrix(4.366649e-008 1 -1 4.366649e-008 539.7162 -452.1012)">
					<stop  offset="0" style="stop-color:#66A8E0"/>
					<stop  offset="0.497" style="stop-color:#003D57"/>
					<stop  offset="1" style="stop-color:#002140"/>
				</linearGradient>
				<polygon fill="url(#SVGID_14_)" points="444.328,386.854 440.847,383.374 444.864,380.43 447.273,382.838 				"/>
				
					<linearGradient id="SVGID_15_" gradientUnits="userSpaceOnUse" x1="821.8242" y1="93.5493" x2="834.4945" y2="80.8791" gradientTransform="matrix(4.366649e-008 1 -1 4.366649e-008 539.7162 -452.1012)">
					<stop  offset="0" style="stop-color:#66A8E0"/>
					<stop  offset="0.497" style="stop-color:#003D57"/>
					<stop  offset="1" style="stop-color:#002140"/>
				</linearGradient>
				<polygon fill="url(#SVGID_15_)" points="452.074,372.146 455.556,375.628 451.538,378.574 449.129,376.164 				"/>
			</g>
			<g>
				<path fill="#FFFFFF" d="M444.855,379.5c0,1.848,1.5,3.346,3.346,3.346c1.844,0,3.345-1.498,3.345-3.346
					c0-1.85-1.501-3.344-3.345-3.344C446.355,376.156,444.855,377.65,444.855,379.5z"/>
				<path fill="#808184" d="M448.201,382.971c-1.914,0-3.471-1.557-3.471-3.471c0-1.913,1.557-3.469,3.471-3.469
					c1.913,0,3.47,1.556,3.47,3.469C451.671,381.414,450.114,382.971,448.201,382.971z M448.201,376.281
					c-1.776,0-3.221,1.443-3.221,3.219s1.444,3.221,3.221,3.221c1.774,0,3.22-1.443,3.22-3.221
					C451.421,377.727,449.977,376.281,448.201,376.281z"/>
			</g>
		</g>
	</g>
</g>
<g>
	
		<linearGradient id="SVGID_16_" gradientUnits="userSpaceOnUse" x1="747.249" y1="265.752" x2="747.249" y2="222.231" gradientTransform="matrix(-4.371139e-008 -1 -1 4.371139e-008 482.4098 826.39)">
		<stop  offset="0" style="stop-color:#AFBDD6"/>
		<stop  offset="0.5" style="stop-color:#FFFFFF"/>
		<stop  offset="1" style="stop-color:#AFBDD6"/>
	</linearGradient>
	<path fill="url(#SVGID_16_)" d="M215.794,40.806C215.794,40.807,215.794,40.807,215.794,40.806v0.002v76.665
		c0.001,8.756,10.036,15.854,22.416,15.854s22.415-7.098,22.417-15.854V40.808c0,0,0-0.001,0-0.002
		c0-8.754-10.036-15.852-22.417-15.852S215.794,32.052,215.794,40.806z"/>
	<g opacity="0.6">
		<g>
			<path fill="#231F20" d="M260.211,117.772h-44.078c-0.166,0-0.3-0.134-0.3-0.3s0.134-0.3,0.3-0.3h44.078
				c0.166,0,0.3,0.134,0.3,0.3S260.376,117.772,260.211,117.772z"/>
			<path fill="#231F20" d="M260.289,41.107h-44.125c-0.166,0-0.3-0.134-0.3-0.3s0.134-0.3,0.3-0.3h44.125c0.166,0,0.3,0.134,0.3,0.3
				S260.455,41.107,260.289,41.107z"/>
		</g>
		<path fill="#231F20" d="M238.211,25.554c12.029,0,21.816,6.842,21.816,15.253v76.665c-0.002,8.411-9.789,15.253-21.816,15.253
			c-12.029,0-21.816-6.843-21.816-15.253V40.806C216.395,32.396,226.182,25.554,238.211,25.554 M238.211,24.954
			c-12.381,0-22.416,7.098-22.416,15.852v0.001v0.001v76.665c0,8.756,10.035,15.854,22.416,15.854
			c12.379,0,22.414-7.098,22.416-15.854V40.808v-0.002C260.627,32.052,250.592,24.954,238.211,24.954L238.211,24.954z"/>
	</g>
</g>
<g>
	
		<linearGradient id="SVGID_17_" gradientUnits="userSpaceOnUse" x1="747.249" y1="149.752" x2="747.249" y2="106.231" gradientTransform="matrix(-4.371139e-008 -1 -1 4.371139e-008 482.4098 826.39)">
		<stop  offset="0" style="stop-color:#AFBDD6"/>
		<stop  offset="0.5" style="stop-color:#FFFFFF"/>
		<stop  offset="1" style="stop-color:#AFBDD6"/>
	</linearGradient>
	<path fill="url(#SVGID_17_)" d="M331.794,40.806C331.794,40.807,331.794,40.807,331.794,40.806v0.002v76.665
		c0.001,8.756,10.036,15.854,22.416,15.854s22.415-7.098,22.417-15.854V40.808c0,0,0-0.001,0-0.002
		c0-8.754-10.036-15.852-22.417-15.852S331.794,32.052,331.794,40.806z"/>
	<g opacity="0.6">
		<g>
			<path fill="#231F20" d="M376.211,117.772h-44.078c-0.166,0-0.3-0.134-0.3-0.3s0.134-0.3,0.3-0.3h44.078
				c0.166,0,0.3,0.134,0.3,0.3S376.376,117.772,376.211,117.772z"/>
			<path fill="#231F20" d="M376.289,41.107h-44.125c-0.166,0-0.3-0.134-0.3-0.3s0.134-0.3,0.3-0.3h44.125c0.166,0,0.3,0.134,0.3,0.3
				S376.455,41.107,376.289,41.107z"/>
		</g>
		<path fill="#231F20" d="M354.211,25.554c12.029,0,21.816,6.842,21.816,15.253v76.665c-0.002,8.411-9.789,15.253-21.816,15.253
			c-12.029,0-21.816-6.843-21.816-15.253V40.806C332.395,32.396,342.182,25.554,354.211,25.554 M354.211,24.954
			c-12.381,0-22.416,7.098-22.416,15.852v0.001v0.001v76.665c0,8.756,10.035,15.854,22.416,15.854
			c12.379,0,22.414-7.098,22.416-15.854V40.808v-0.002C376.627,32.052,366.592,24.954,354.211,24.954L354.211,24.954z"/>
	</g>
</g>
<g>
	
		<linearGradient id="SVGID_18_" gradientUnits="userSpaceOnUse" x1="1122.8809" y1="-247.915" x2="1122.8809" y2="-282.8633" gradientTransform="matrix(-1 0 0 1 1904.7617 397.3174)">
		<stop  offset="0" style="stop-color:#AFBDD6"/>
		<stop  offset="0.5" style="stop-color:#FFFFFF"/>
		<stop  offset="1" style="stop-color:#AFBDD6"/>
	</linearGradient>
	<path fill="url(#SVGID_18_)" d="M747.889,150.097L747.889,150.097L747.889,150.097h67.982c7.032-0.001,12.73-8.059,12.73-18
		s-5.698-18-12.73-18.001H747.89h-0.001c-7.028,0-12.729,8.059-12.729,18.001C735.16,142.039,740.859,150.097,747.889,150.097z"/>
	<g opacity="0.6">
		<g>
			<path fill="#231F20" d="M815.871,150.125c-0.166,0-0.3-0.134-0.3-0.3v-35.396c0-0.166,0.134-0.3,0.3-0.3s0.3,0.134,0.3,0.3
				v35.396C816.171,149.99,816.037,150.125,815.871,150.125z"/>
			<path fill="#231F20" d="M747.89,150.1c-0.166,0-0.3-0.134-0.3-0.3v-35.434c0-0.166,0.134-0.3,0.3-0.3s0.301,0.134,0.301,0.3
				V149.8C748.189,149.965,748.056,150.1,747.89,150.1z"/>
		</g>
		<path fill="#231F20" d="M815.871,114.695L815.871,114.695c6.688,0.002,12.132,7.808,12.132,17.401c0,9.594-5.442,17.4-12.132,17.4
			h-67.982c-6.688,0-12.13-7.806-12.13-17.4c0-9.595,5.442-17.401,12.131-17.401H815.871 M815.871,114.095H747.89h-0.001
			c-7.028,0-12.729,8.059-12.729,18.001c0,9.942,5.7,18,12.729,18h0.001h67.981c7.032,0,12.73-8.058,12.73-18
			C828.604,122.155,822.903,114.097,815.871,114.095L815.871,114.095z"/>
	</g>
</g>
<g>
	
		<linearGradient id="SVGID_19_" gradientUnits="userSpaceOnUse" x1="870.4609" y1="139.437" x2="870.4609" y2="10.6736" gradientTransform="matrix(1 0 0 -1 -260.6602 280.04)">
		<stop  offset="0" style="stop-color:#D9991E"/>
		<stop  offset="0.1697" style="stop-color:#F6C41E"/>
		<stop  offset="0.5" style="stop-color:#F6EDDB"/>
		<stop  offset="0.8545" style="stop-color:#F6C41E"/>
		<stop  offset="1" style="stop-color:#D9991E"/>
	</linearGradient>
	<path fill="url(#SVGID_19_)" d="M669.856,202.594c0,33.168-26.892,60.057-60.056,60.057c-33.169,0-60.057-26.888-60.057-60.057
		c0-33.169,26.888-60.056,60.057-60.056C642.966,142.538,669.856,169.425,669.856,202.594z"/>
	<path opacity="0.5" fill="#231F20" enable-background="new    " d="M609.802,262.95c-33.28,0-60.356-27.076-60.356-60.356
		c0-33.28,27.076-60.356,60.356-60.356c33.279,0,60.354,27.076,60.354,60.356C670.156,235.875,643.081,262.95,609.802,262.95z
		 M609.802,142.837c-32.95,0-59.757,26.807-59.757,59.756c0,32.949,26.807,59.757,59.757,59.757
		c32.949,0,59.755-26.807,59.755-59.757C669.557,169.643,642.751,142.837,609.802,142.837z"/>
</g>
<path fill="#5439AA" d="M182.852,488.366c0-3.216-2.377-5.824-5.311-5.824c-2.935,0-5.313,2.608-5.313,5.824v0.001h5.062v4.178
	l-14.09-6.243v6.323v0.01v6.323l14.229-6.306h0.221l14.23,6.306v-6.323v-0.01v-6.323l-14.091,6.243v-4.178L182.852,488.366
	L182.852,488.366z"/>
<path fill="#5439AA" d="M139.683,559.424c0-3.216-2.377-5.824-5.311-5.824c-2.935,0-5.313,2.608-5.313,5.824v0.001h5.062v4.178
	l-14.09-6.242v6.322v0.011v6.322l14.229-6.306h0.221l14.23,6.306v-6.322v-0.011v-6.322l-14.091,6.242v-4.178L139.683,559.424
	L139.683,559.424z"/>
<path fill="#5439AA" d="M1024.061,488.366c0-3.216,2.377-5.824,5.312-5.824c2.934,0,5.313,2.608,5.313,5.824v0.001h-5.063v4.178
	l14.09-6.243v6.323v0.01v6.323l-14.229-6.306h-0.222l-14.229,6.306v-6.323v-0.01v-6.323l14.09,6.243v-4.178L1024.061,488.366
	L1024.061,488.366z"/>
<path fill="#5439AA" d="M1067.229,559.424c0-3.216,2.378-5.824,5.312-5.824c2.936,0,5.313,2.608,5.313,5.824v0.001h-5.061v4.178
	l14.09-6.242v6.322v0.011v6.322l-14.229-6.306h-0.222l-14.229,6.306v-6.322v-0.011v-6.322l14.092,6.242v-4.178L1067.229,559.424
	L1067.229,559.424z"/>
<g>
	<path fill="#5439AA" d="M238.551,163.273"/>
	<path fill="#5439AA" d="M231.498,163.273"/>
	<polygon fill="#5439AA" points="231.52,179.326 245.54,179.326 238.532,163.273 	"/>
	<polygon fill="#5439AA" points="245.54,147.222 231.52,147.222 238.532,163.273 	"/>
</g>
<g>
	<path fill="#5439AA" d="M353.487,163.273"/>
	<path fill="#5439AA" d="M346.434,163.273"/>
	<polygon fill="#5439AA" points="346.456,179.326 360.476,179.326 353.468,163.273 	"/>
	<polygon fill="#5439AA" points="360.476,147.222 346.456,147.222 353.468,163.273 	"/>
</g>
<g>
	
		<linearGradient id="SVGID_20_" gradientUnits="userSpaceOnUse" x1="631.3887" y1="-100.502" x2="1187.8829" y2="-100.502" gradientTransform="matrix(1 0 0 -1 -260.6602 280.04)">
		<stop  offset="0" style="stop-color:#D9991E"/>
		<stop  offset="0.1697" style="stop-color:#F6C41E"/>
		<stop  offset="0.5" style="stop-color:#F6EDDB"/>
		<stop  offset="0.8545" style="stop-color:#F6C41E"/>
		<stop  offset="1" style="stop-color:#D9991E"/>
	</linearGradient>
	<path fill="url(#SVGID_20_)" d="M685.679,351.241c-1.512-7.915-15.94-14.124-33.546-14.124c-17.604,0-32.036,6.209-33.547,14.124
		h-0.151v52.512v1.147l34.024,19.066l33.358-19.066h0.012v-0.006v-1.166v-52.487H685.679L685.679,351.241z"/>
	<path opacity="0.5" fill="#231F20" enable-background="new    " d="M652.133,338.117c16.834,0,31.139,5.847,32.563,13.313
		l0.133,0.693v51.605v0.584l-32.375,18.506l-33.021-18.504v-0.563v-51.624l0.135-0.7
		C620.993,343.964,635.297,338.117,652.133,338.117 M652.133,337.117c-17.604,0-32.036,6.209-33.547,14.124h-0.151v52.512v1.147
		l34.024,19.066l33.358-19.066h0.012v-0.006v-1.166v-52.487h-0.15C684.167,343.326,669.737,337.117,652.133,337.117L652.133,337.117
		z"/>
</g>
<g>
	<g>
		<path fill="#212121" d="M129.017,541.962h-2.438v6.725h-1.349v-6.725h-2.417v-1.096h6.204V541.962z"/>
		<path fill="#212121" d="M135.859,546.141c-0.079,0.834-0.387,1.485-0.924,1.952c-0.537,0.469-1.251,0.701-2.143,0.701
			c-0.623,0-1.172-0.146-1.646-0.443c-0.475-0.295-0.841-0.715-1.099-1.259c-0.258-0.545-0.392-1.177-0.403-1.896v-0.73
			c0-0.736,0.131-1.388,0.392-1.949c0.261-0.563,0.637-0.995,1.125-1.301c0.489-0.304,1.054-0.456,1.695-0.456
			c0.863,0,1.558,0.233,2.084,0.701c0.526,0.467,0.833,1.129,0.918,1.984h-1.354c-0.064-0.563-0.229-0.968-0.491-1.217
			c-0.264-0.249-0.649-0.373-1.158-0.373c-0.591,0-1.044,0.216-1.362,0.646c-0.316,0.433-0.479,1.065-0.486,1.9v0.693
			c0,0.847,0.151,1.49,0.454,1.936c0.303,0.444,0.746,0.667,1.33,0.667c0.534,0,0.935-0.12,1.203-0.36
			c0.269-0.239,0.438-0.639,0.51-1.197H135.859L135.859,546.141z"/>
		<path fill="#212121" d="M139.829,546.984l1.987-6.118h1.493l-2.814,7.82h-1.316l-2.804-7.82h1.488L139.829,546.984z"/>
		<path fill="#212121" d="M151.645,542.929c0,0.383-0.099,0.726-0.295,1.023c-0.196,0.298-0.465,0.534-0.806,0.706
			c0.408,0.188,0.723,0.449,0.942,0.778c0.221,0.329,0.331,0.701,0.331,1.117c0,0.688-0.233,1.232-0.698,1.636
			c-0.465,0.402-1.085,0.604-1.858,0.604c-0.777,0-1.399-0.202-1.867-0.606c-0.467-0.404-0.701-0.948-0.701-1.633
			c0-0.42,0.111-0.795,0.333-1.129c0.222-0.332,0.534-0.589,0.935-0.768c-0.336-0.172-0.603-0.407-0.797-0.706
			c-0.195-0.299-0.293-0.642-0.293-1.023c0-0.666,0.215-1.193,0.645-1.585c0.43-0.39,1.01-0.585,1.74-0.585
			c0.734,0,1.316,0.195,1.746,0.585C151.43,541.734,151.645,542.263,151.645,542.929z M150.512,546.49
			c0-0.388-0.115-0.699-0.347-0.938c-0.23-0.237-0.536-0.356-0.916-0.356s-0.683,0.118-0.911,0.354
			c-0.227,0.236-0.341,0.55-0.341,0.94c0,0.383,0.112,0.688,0.336,0.918c0.224,0.229,0.532,0.344,0.926,0.344
			c0.394,0,0.701-0.111,0.921-0.333C150.401,547.197,150.512,546.887,150.512,546.49z M150.345,542.977
			c0-0.34-0.099-0.619-0.295-0.84c-0.197-0.221-0.462-0.33-0.795-0.33s-0.596,0.104-0.79,0.313c-0.193,0.21-0.29,0.495-0.29,0.855
			c0,0.358,0.098,0.645,0.292,0.854c0.195,0.211,0.459,0.317,0.792,0.317s0.597-0.106,0.792-0.317
			C150.248,543.62,150.345,543.335,150.345,542.977z"/>
	</g>
</g>
<g>
	<g>
		<path fill="#212121" d="M626.326,374.682v2.899h-1.358v-7.82h2.991c0.874,0,1.568,0.228,2.082,0.683s0.771,1.059,0.771,1.808
			c0,0.769-0.253,1.364-0.756,1.791s-1.207,0.64-2.112,0.64H626.326L626.326,374.682z M626.326,373.585h1.633
			c0.484,0,0.854-0.112,1.107-0.341s0.381-0.557,0.381-0.986c0-0.422-0.129-0.76-0.388-1.012c-0.258-0.253-0.611-0.383-1.063-0.391
			h-1.671V373.585L626.326,373.585z"/>
		<path fill="#212121" d="M635.393,377.012c-0.383,0.451-0.928,0.678-1.633,0.678c-0.63,0-1.106-0.186-1.432-0.555
			c-0.324-0.367-0.486-0.902-0.486-1.6v-3.766h1.307v3.748c0,0.737,0.306,1.106,0.919,1.106c0.633,0,1.062-0.228,1.282-0.683v-4.174
			h1.306v5.813h-1.229L635.393,377.012z"/>
		<path fill="#212121" d="M641.027,372.962c-0.172-0.028-0.35-0.043-0.531-0.043c-0.598,0-1.001,0.229-1.209,0.688v3.975h-1.305
			v-5.813h1.245l0.032,0.65c0.315-0.506,0.752-0.758,1.312-0.758c0.187,0,0.34,0.025,0.462,0.074L641.027,372.962z"/>
		<path fill="#212121" d="M641.855,370.26c0-0.199,0.063-0.365,0.189-0.498c0.127-0.134,0.309-0.199,0.545-0.199
			s0.419,0.065,0.548,0.199c0.129,0.133,0.193,0.299,0.193,0.498c0,0.197-0.064,0.361-0.193,0.492s-0.312,0.195-0.548,0.195
			s-0.418-0.064-0.545-0.195S641.855,370.457,641.855,370.26z M643.24,377.581h-1.306v-5.812h1.306V377.581z"/>
		<path fill="#212121" d="M646.049,377.581h-1.305v-8.25h1.305V377.581z"/>
		<path fill="#212121" d="M647.473,370.26c0-0.199,0.063-0.365,0.19-0.498c0.127-0.134,0.309-0.199,0.545-0.199
			s0.419,0.065,0.548,0.199c0.129,0.133,0.193,0.299,0.193,0.498c0,0.197-0.064,0.361-0.193,0.492s-0.312,0.195-0.548,0.195
			s-0.418-0.064-0.545-0.195S647.473,370.457,647.473,370.26z M648.857,377.581h-1.306v-5.812h1.306V377.581z"/>
		<path fill="#212121" d="M652.666,376.646c0.326,0,0.597-0.096,0.813-0.285c0.215-0.189,0.328-0.424,0.344-0.703h1.229
			c-0.014,0.361-0.127,0.699-0.338,1.013s-0.498,0.562-0.859,0.743c-0.36,0.184-0.752,0.273-1.171,0.273
			c-0.813,0-1.457-0.263-1.934-0.789c-0.478-0.525-0.714-1.254-0.714-2.181v-0.135c0-0.886,0.236-1.593,0.709-2.124
			c0.473-0.532,1.117-0.798,1.934-0.798c0.69,0,1.254,0.2,1.688,0.604c0.436,0.401,0.663,0.932,0.685,1.586h-1.229
			c-0.016-0.332-0.128-0.606-0.342-0.822c-0.213-0.215-0.483-0.321-0.813-0.321c-0.422,0-0.748,0.153-0.978,0.46
			c-0.229,0.307-0.346,0.771-0.35,1.395v0.209c0,0.631,0.113,1.101,0.341,1.41C651.909,376.49,652.236,376.646,652.666,376.646z"/>
		<path fill="#212121" d="M659.51,377.581c-0.058-0.11-0.106-0.292-0.149-0.542c-0.416,0.434-0.925,0.648-1.525,0.648
			c-0.584,0-1.061-0.166-1.43-0.498c-0.368-0.334-0.554-0.746-0.554-1.236c0-0.619,0.23-1.096,0.69-1.426
			c0.46-0.332,1.118-0.496,1.974-0.496h0.802v-0.383c0-0.301-0.085-0.541-0.253-0.723c-0.168-0.181-0.426-0.271-0.77-0.271
			c-0.297,0-0.54,0.073-0.729,0.223c-0.189,0.147-0.284,0.337-0.284,0.565h-1.307c0-0.317,0.106-0.616,0.317-0.895
			c0.211-0.277,0.499-0.494,0.862-0.652c0.362-0.156,0.769-0.235,1.217-0.235c0.68,0,1.223,0.171,1.627,0.513
			s0.612,0.823,0.623,1.442v2.62c0,0.522,0.073,0.939,0.221,1.253v0.091L659.51,377.581L659.51,377.581z M658.075,376.641
			c0.258,0,0.5-0.063,0.728-0.188c0.229-0.125,0.398-0.294,0.515-0.505v-1.097h-0.704c-0.483,0-0.848,0.084-1.091,0.254
			c-0.243,0.168-0.365,0.405-0.365,0.713c0,0.252,0.084,0.451,0.25,0.6S657.796,376.641,658.075,376.641z"/>
		<path fill="#212121" d="M663.623,370.357v1.412h1.026v0.967h-1.026v3.244c0,0.222,0.044,0.381,0.132,0.479s0.245,0.147,0.47,0.147
			c0.15,0,0.304-0.019,0.457-0.055v1.01c-0.297,0.084-0.584,0.125-0.858,0.125c-1.003,0-1.504-0.555-1.504-1.66v-3.293h-0.956
			v-0.967h0.956v-1.412h1.304V370.357z"/>
		<path fill="#212121" d="M665.648,370.26c0-0.199,0.063-0.365,0.189-0.498c0.127-0.134,0.31-0.199,0.545-0.199
			c0.236,0,0.419,0.065,0.548,0.199c0.129,0.133,0.193,0.299,0.193,0.498c0,0.197-0.064,0.361-0.193,0.492s-0.312,0.195-0.548,0.195
			c-0.235,0-0.418-0.064-0.545-0.195S665.648,370.457,665.648,370.26z M667.033,377.581h-1.305v-5.812h1.305V377.581z"/>
		<path fill="#212121" d="M668.211,374.621c0-0.568,0.112-1.082,0.338-1.538c0.227-0.457,0.543-0.808,0.951-1.054
			c0.408-0.244,0.877-0.367,1.406-0.367c0.785,0,1.421,0.252,1.91,0.758c0.487,0.504,0.753,1.174,0.792,2.008l0.005,0.307
			c0,0.574-0.109,1.086-0.33,1.537s-0.535,0.799-0.945,1.047c-0.41,0.246-0.883,0.371-1.42,0.371c-0.82,0-1.477-0.273-1.969-0.819
			s-0.738-1.272-0.738-2.185V374.621z M669.516,374.734c0,0.598,0.123,1.065,0.371,1.404c0.246,0.338,0.59,0.508,1.031,0.508
			c0.439,0,0.783-0.172,1.028-0.517c0.245-0.344,0.368-0.847,0.368-1.51c0-0.587-0.128-1.054-0.38-1.396
			c-0.253-0.345-0.596-0.517-1.028-0.517c-0.427,0-0.765,0.17-1.016,0.508C669.641,373.557,669.516,374.063,669.516,374.734z"/>
		<path fill="#212121" d="M675.929,371.77l0.038,0.672c0.431-0.52,0.993-0.778,1.691-0.778c1.21,0,1.826,0.692,1.848,2.078v3.841
			h-1.305v-3.766c0-0.368-0.08-0.643-0.239-0.818c-0.159-0.178-0.42-0.268-0.782-0.268c-0.524,0-0.918,0.238-1.176,0.715v4.137
			h-1.305v-5.813H675.929L675.929,371.77z"/>
		<path fill="#212121" d="M638.176,389.202c0-0.231-0.097-0.41-0.288-0.532c-0.19-0.121-0.509-0.229-0.953-0.322
			c-0.443-0.093-0.813-0.211-1.111-0.354c-0.651-0.314-0.978-0.771-0.978-1.37c0-0.501,0.211-0.92,0.633-1.257
			c0.424-0.338,0.961-0.506,1.611-0.506c0.695,0,1.257,0.173,1.686,0.517c0.428,0.345,0.642,0.79,0.642,1.337h-1.305
			c0-0.25-0.095-0.459-0.279-0.625c-0.187-0.167-0.434-0.25-0.742-0.25c-0.286,0-0.52,0.066-0.7,0.199
			c-0.181,0.132-0.271,0.311-0.271,0.531c0,0.199,0.084,0.355,0.253,0.467c0.168,0.111,0.508,0.225,1.02,0.336
			c0.514,0.113,0.914,0.247,1.206,0.402c0.292,0.156,0.51,0.344,0.65,0.563c0.142,0.219,0.212,0.482,0.212,0.795
			c0,0.522-0.217,0.945-0.65,1.27c-0.433,0.324-1,0.486-1.701,0.486c-0.478,0-0.9-0.086-1.272-0.258
			c-0.373-0.172-0.663-0.408-0.871-0.709c-0.207-0.301-0.311-0.625-0.311-0.973h1.268c0.019,0.309,0.134,0.546,0.35,0.712
			c0.215,0.167,0.499,0.25,0.854,0.25c0.344,0,0.604-0.065,0.783-0.196C638.086,389.584,638.176,389.413,638.176,389.202z"/>
		<path fill="#212121" d="M642.627,388.912l1.182-3.941h1.393l-2.311,6.691c-0.354,0.979-0.955,1.467-1.805,1.467
			c-0.188,0-0.398-0.033-0.629-0.098v-1.016l0.248,0.018c0.329,0,0.577-0.061,0.743-0.182c0.167-0.119,0.298-0.319,0.396-0.604
			l0.188-0.499l-2.041-5.78h1.407L642.627,388.912z"/>
		<path fill="#212121" d="M649.207,389.202c0-0.231-0.096-0.41-0.287-0.532c-0.191-0.121-0.509-0.229-0.953-0.322
			c-0.443-0.093-0.813-0.211-1.111-0.354c-0.651-0.314-0.979-0.771-0.979-1.37c0-0.501,0.212-0.92,0.635-1.257
			c0.422-0.338,0.959-0.506,1.611-0.506c0.694,0,1.256,0.173,1.684,0.517c0.429,0.345,0.643,0.79,0.643,1.337h-1.307
			c0-0.25-0.093-0.459-0.278-0.625c-0.187-0.167-0.434-0.25-0.74-0.25c-0.287,0-0.521,0.066-0.701,0.199
			c-0.181,0.132-0.271,0.311-0.271,0.531c0,0.199,0.084,0.355,0.252,0.467c0.169,0.111,0.509,0.225,1.021,0.336
			c0.513,0.113,0.913,0.247,1.205,0.402c0.292,0.156,0.509,0.344,0.65,0.563s0.212,0.482,0.212,0.795
			c0,0.522-0.217,0.945-0.649,1.27c-0.434,0.324-1.001,0.486-1.703,0.486c-0.477,0-0.899-0.086-1.272-0.258
			c-0.372-0.172-0.662-0.408-0.869-0.709c-0.208-0.301-0.313-0.625-0.313-0.973h1.268c0.019,0.309,0.135,0.546,0.35,0.712
			c0.215,0.167,0.5,0.25,0.854,0.25c0.344,0,0.604-0.065,0.785-0.196C649.118,389.584,649.207,389.413,649.207,389.202z"/>
		<path fill="#212121" d="M653.264,383.557v1.414h1.025v0.967h-1.025v3.244c0,0.221,0.043,0.381,0.131,0.479
			c0.088,0.098,0.244,0.147,0.472,0.147c0.149,0,0.302-0.019,0.456-0.054v1.011c-0.297,0.082-0.584,0.123-0.859,0.123
			c-1.003,0-1.504-0.554-1.504-1.66v-3.293h-0.956v-0.967h0.956v-1.412H653.264L653.264,383.557z"/>
		<path fill="#212121" d="M657.844,390.889c-0.826,0-1.497-0.261-2.011-0.781s-0.771-1.215-0.771-2.082v-0.159
			c0-0.58,0.11-1.099,0.335-1.556c0.224-0.457,0.538-0.813,0.941-1.065c0.405-0.255,0.856-0.382,1.354-0.382
			c0.792,0,1.402,0.253,1.835,0.757c0.432,0.506,0.646,1.22,0.646,2.144v0.526h-3.798c0.039,0.479,0.199,0.858,0.48,1.14
			c0.28,0.279,0.635,0.418,1.062,0.418c0.599,0,1.084-0.24,1.461-0.726l0.703,0.672c-0.231,0.349-0.543,0.617-0.932,0.81
			C658.762,390.795,658.328,390.889,657.844,390.889z M657.688,385.91c-0.357,0-0.646,0.125-0.866,0.375
			c-0.222,0.251-0.361,0.602-0.422,1.048h2.486v-0.097c-0.028-0.438-0.146-0.769-0.35-0.991
			C658.332,386.021,658.05,385.91,657.688,385.91z"/>
		<path fill="#212121" d="M662.416,384.971l0.037,0.605c0.408-0.477,0.967-0.715,1.676-0.715c0.777,0,1.31,0.298,1.596,0.893
			c0.423-0.595,1.018-0.893,1.783-0.893c0.642,0,1.117,0.178,1.432,0.533c0.313,0.354,0.474,0.877,0.48,1.567v3.817h-1.306V387
			c0-0.369-0.081-0.639-0.241-0.811c-0.162-0.172-0.429-0.258-0.801-0.258c-0.297,0-0.54,0.078-0.729,0.237
			c-0.188,0.159-0.318,0.368-0.396,0.626l0.006,3.984h-1.305v-3.823c-0.02-0.685-0.367-1.024-1.049-1.024
			c-0.521,0-0.894,0.213-1.111,0.639v4.211h-1.306v-5.813h1.232V384.971z"/>
	</g>
</g>
<g>
	<g>
		<path fill="#212121" d="M594.483,203.089h-1.516v3.008h-1.358v-7.82h2.75c0.901,0,1.599,0.203,2.089,0.607
			c0.491,0.405,0.735,0.991,0.735,1.758c0,0.523-0.126,0.961-0.379,1.314c-0.252,0.353-0.604,0.625-1.055,0.814l1.756,3.256v0.07
			h-1.456L594.483,203.089z M592.968,201.993h1.396c0.458,0,0.815-0.115,1.073-0.347c0.259-0.23,0.388-0.547,0.388-0.948
			c0-0.419-0.119-0.743-0.357-0.972c-0.237-0.229-0.594-0.347-1.065-0.354h-1.435V201.993z"/>
		<path fill="#212121" d="M600.906,206.204c-0.827,0-1.497-0.261-2.012-0.781c-0.514-0.521-0.771-1.215-0.771-2.082v-0.161
			c0-0.58,0.112-1.098,0.335-1.555c0.224-0.456,0.538-0.812,0.943-1.066c0.404-0.254,0.855-0.381,1.353-0.381
			c0.792,0,1.403,0.252,1.835,0.757s0.647,1.219,0.647,2.143v0.526h-3.798c0.039,0.48,0.199,0.859,0.479,1.139
			c0.281,0.279,0.635,0.419,1.063,0.419c0.598,0,1.084-0.242,1.461-0.725l0.702,0.671c-0.231,0.347-0.543,0.617-0.932,0.809
			C601.826,206.108,601.391,206.204,600.906,206.204z M600.751,201.225c-0.358,0-0.647,0.125-0.867,0.376
			c-0.221,0.25-0.36,0.6-0.422,1.047h2.487v-0.097c-0.029-0.437-0.146-0.767-0.351-0.991
			C601.396,201.337,601.113,201.225,600.751,201.225z"/>
		<path fill="#212121" d="M607.723,206.097c-0.057-0.111-0.106-0.292-0.149-0.542c-0.416,0.433-0.924,0.65-1.525,0.65
			c-0.584,0-1.061-0.167-1.429-0.5s-0.555-0.745-0.555-1.235c0-0.62,0.23-1.095,0.69-1.426s1.118-0.497,1.974-0.497h0.802v-0.381
			c0-0.301-0.084-0.542-0.252-0.723c-0.169-0.181-0.426-0.271-0.77-0.271c-0.298,0-0.54,0.074-0.729,0.223
			c-0.19,0.148-0.284,0.337-0.284,0.566h-1.306c0-0.319,0.104-0.617,0.316-0.895c0.211-0.277,0.498-0.495,0.861-0.652
			c0.363-0.157,0.77-0.236,1.217-0.236c0.68,0,1.223,0.171,1.627,0.513c0.405,0.342,0.613,0.823,0.623,1.442v2.621
			c0,0.523,0.074,0.94,0.221,1.251v0.091L607.723,206.097L607.723,206.097z M606.289,205.157c0.258,0,0.5-0.063,0.728-0.188
			c0.229-0.125,0.397-0.293,0.514-0.505v-1.096h-0.703c-0.484,0-0.849,0.084-1.091,0.252c-0.243,0.168-0.365,0.406-0.365,0.714
			c0,0.25,0.083,0.45,0.25,0.599C605.786,205.083,606.01,205.157,606.289,205.157z"/>
		<path fill="#212121" d="M612.589,205.162c0.325,0,0.597-0.095,0.813-0.285c0.215-0.19,0.329-0.424,0.344-0.704h1.229
			c-0.015,0.362-0.127,0.699-0.339,1.013c-0.211,0.313-0.497,0.561-0.858,0.744c-0.361,0.183-0.752,0.274-1.17,0.274
			c-0.813,0-1.458-0.263-1.935-0.79c-0.477-0.526-0.715-1.253-0.715-2.181V203.1c0-0.884,0.236-1.593,0.709-2.124
			c0.473-0.532,1.117-0.798,1.934-0.798c0.691,0,1.254,0.201,1.689,0.604c0.435,0.402,0.663,0.932,0.685,1.587h-1.229
			c-0.015-0.333-0.129-0.607-0.342-0.822c-0.213-0.215-0.484-0.322-0.813-0.322c-0.423,0-0.749,0.153-0.978,0.459
			c-0.229,0.306-0.347,0.771-0.351,1.394v0.209c0,0.63,0.114,1.1,0.342,1.41C611.83,205.007,612.159,205.162,612.589,205.162z"/>
		<path fill="#212121" d="M617.595,198.873v1.413h1.026v0.967h-1.026v3.244c0,0.222,0.044,0.382,0.132,0.48
			c0.089,0.099,0.244,0.148,0.471,0.148c0.149,0,0.303-0.018,0.456-0.054v1.01c-0.298,0.083-0.583,0.124-0.859,0.124
			c-1.002,0-1.504-0.553-1.504-1.66v-3.292h-0.955v-0.967h0.955v-1.413H617.595z"/>
		<path fill="#212121" d="M619.211,203.137c0-0.569,0.113-1.083,0.339-1.539c0.227-0.457,0.542-0.808,0.95-1.053
			c0.408-0.246,0.878-0.368,1.408-0.368c0.783,0,1.42,0.252,1.909,0.757c0.487,0.505,0.753,1.174,0.792,2.009l0.006,0.306
			c0,0.573-0.11,1.085-0.331,1.536c-0.22,0.451-0.535,0.8-0.945,1.047s-0.884,0.371-1.421,0.371c-0.819,0-1.476-0.273-1.968-0.819
			c-0.493-0.546-0.739-1.273-0.739-2.183V203.137L619.211,203.137z M620.517,203.25c0,0.598,0.124,1.066,0.37,1.404
			c0.248,0.339,0.592,0.508,1.031,0.508c0.441,0,0.784-0.172,1.029-0.516s0.367-0.847,0.367-1.509c0-0.587-0.126-1.053-0.379-1.396
			c-0.253-0.344-0.596-0.516-1.027-0.516c-0.427,0-0.766,0.169-1.017,0.507C620.642,202.071,620.517,202.577,620.517,203.25z"/>
		<path fill="#212121" d="M628.762,201.478c-0.172-0.029-0.35-0.043-0.531-0.043c-0.599,0-1.001,0.229-1.208,0.688v3.975h-1.307
			v-5.812h1.246l0.032,0.65c0.314-0.505,0.752-0.757,1.311-0.757c0.188,0,0.34,0.025,0.462,0.075L628.762,201.478z"/>
	</g>
</g>
<g>
	<g>
		<path fill="#212121" d="M762.913,134.87h-1.354v-3.47h-3.495v3.47h-1.359v-7.82h1.359v3.255h3.495v-3.255h1.354V134.87z"/>
		<path fill="#212121" d="M766.952,134.977c-0.828,0-1.498-0.26-2.012-0.782c-0.515-0.521-0.771-1.214-0.771-2.081v-0.161
			c0-0.58,0.112-1.099,0.336-1.555c0.224-0.457,0.538-0.812,0.943-1.066c0.403-0.254,0.854-0.381,1.354-0.381
			c0.791,0,1.402,0.252,1.834,0.757c0.433,0.505,0.646,1.219,0.646,2.143v0.526h-3.797c0.039,0.48,0.198,0.859,0.479,1.139
			c0.281,0.28,0.635,0.419,1.062,0.419c0.599,0,1.086-0.242,1.461-0.725l0.704,0.671c-0.232,0.347-0.544,0.617-0.933,0.808
			C767.871,134.881,767.435,134.977,766.952,134.977z M766.796,129.998c-0.357,0-0.646,0.125-0.867,0.376
			c-0.221,0.25-0.36,0.6-0.422,1.047h2.486v-0.097c-0.028-0.437-0.146-0.767-0.349-0.991
			C767.44,130.11,767.157,129.998,766.796,129.998z"/>
		<path fill="#212121" d="M773.769,134.87c-0.058-0.111-0.106-0.292-0.149-0.542c-0.416,0.433-0.924,0.65-1.525,0.65
			c-0.584,0-1.061-0.167-1.43-0.5c-0.368-0.333-0.553-0.745-0.553-1.235c0-0.62,0.229-1.095,0.689-1.426
			c0.46-0.332,1.118-0.497,1.975-0.497h0.801v-0.381c0-0.301-0.085-0.542-0.253-0.722c-0.168-0.181-0.425-0.271-0.77-0.271
			c-0.297,0-0.54,0.074-0.729,0.223s-0.284,0.338-0.284,0.567h-1.306c0-0.319,0.105-0.617,0.316-0.894
			c0.211-0.278,0.499-0.495,0.862-0.653c0.363-0.158,0.769-0.236,1.217-0.236c0.68,0,1.224,0.171,1.627,0.513
			c0.404,0.342,0.612,0.822,0.623,1.442v2.621c0,0.523,0.073,0.94,0.221,1.251v0.091L773.769,134.87L773.769,134.87z
			 M772.334,133.93c0.258,0,0.5-0.063,0.729-0.188c0.228-0.125,0.397-0.293,0.514-0.505v-1.096h-0.704
			c-0.483,0-0.847,0.084-1.091,0.252c-0.243,0.168-0.365,0.406-0.365,0.714c0,0.25,0.084,0.45,0.25,0.599
			S772.055,133.93,772.334,133.93z"/>
		<path fill="#212121" d="M776.003,131.921c0-0.895,0.207-1.614,0.623-2.156c0.415-0.543,0.972-0.814,1.67-0.814
			c0.616,0,1.113,0.215,1.493,0.645v-2.976h1.306v8.25h-1.182l-0.064-0.602c-0.391,0.473-0.912,0.709-1.563,0.709
			c-0.682,0-1.23-0.274-1.651-0.822C776.214,133.607,776.003,132.863,776.003,131.921z M777.308,132.034
			c0,0.591,0.113,1.052,0.342,1.383c0.228,0.331,0.551,0.497,0.97,0.497c0.533,0,0.924-0.238,1.171-0.714v-2.481
			c-0.24-0.465-0.627-0.698-1.16-0.698c-0.423,0-0.748,0.167-0.978,0.502C777.422,130.856,777.308,131.36,777.308,132.034z"/>
		<path fill="#212121" d="M786.831,127.646v1.413h1.025v0.967h-1.025v3.244c0,0.222,0.043,0.382,0.131,0.481
			c0.088,0.098,0.244,0.147,0.471,0.147c0.15,0,0.303-0.018,0.456-0.054v1.01c-0.297,0.083-0.584,0.124-0.858,0.124
			c-1.003,0-1.504-0.553-1.504-1.66v-3.292h-0.956v-0.967h0.956v-1.413H786.831z"/>
		<path fill="#212121" d="M792.325,134.87c-0.058-0.111-0.107-0.292-0.15-0.542c-0.415,0.433-0.924,0.65-1.524,0.65
			c-0.583,0-1.061-0.167-1.429-0.5c-0.369-0.333-0.554-0.745-0.554-1.235c0-0.62,0.23-1.095,0.69-1.426
			c0.46-0.332,1.117-0.497,1.974-0.497h0.8v-0.381c0-0.301-0.084-0.542-0.252-0.722c-0.168-0.181-0.424-0.271-0.768-0.271
			c-0.298,0-0.541,0.074-0.73,0.223s-0.285,0.338-0.285,0.567h-1.305c0-0.319,0.104-0.617,0.316-0.894
			c0.211-0.278,0.499-0.495,0.861-0.653c0.363-0.158,0.77-0.236,1.216-0.236c0.682,0,1.225,0.171,1.629,0.513
			c0.403,0.342,0.611,0.822,0.622,1.442v2.621c0,0.523,0.073,0.94,0.221,1.251v0.091L792.325,134.87L792.325,134.87z
			 M790.892,133.93c0.259,0,0.5-0.063,0.729-0.188c0.228-0.125,0.397-0.293,0.513-0.505v-1.096h-0.703
			c-0.482,0-0.847,0.084-1.09,0.252c-0.244,0.168-0.365,0.406-0.365,0.714c0,0.25,0.083,0.45,0.249,0.599
			S790.612,133.93,790.892,133.93z"/>
		<path fill="#212121" d="M796.016,129.058l0.038,0.671c0.431-0.519,0.993-0.779,1.691-0.779c1.21,0,1.826,0.693,1.848,2.079v3.84
			h-1.305v-3.765c0-0.369-0.08-0.642-0.239-0.819c-0.159-0.177-0.42-0.266-0.782-0.266c-0.524,0-0.918,0.238-1.176,0.714v4.136
			h-1.305v-5.812L796.016,129.058L796.016,129.058z"/>
		<path fill="#212121" d="M802.81,132.377l-0.579,0.596v1.896h-1.306v-8.25h1.306v4.759l0.407-0.51l1.605-1.81h1.567l-2.157,2.422
			l2.39,3.389h-1.509L802.81,132.377z"/>
	</g>
</g>
<g>
	<g>
		<path fill="#212121" d="M340.92,69.871v-7.82h2.68c0.884,0,1.558,0.177,2.02,0.532s0.693,0.883,0.693,1.584
			c0,0.358-0.097,0.68-0.29,0.967c-0.193,0.287-0.476,0.508-0.849,0.666c0.422,0.115,0.749,0.33,0.98,0.647
			c0.23,0.316,0.346,0.697,0.346,1.141c0,0.734-0.235,1.298-0.707,1.692c-0.471,0.394-1.145,0.591-2.022,0.591H340.92L340.92,69.871
			z M342.279,65.343h1.332c0.422,0,0.753-0.096,0.991-0.288c0.238-0.191,0.357-0.462,0.357-0.813c0-0.387-0.11-0.666-0.33-0.838
			c-0.221-0.172-0.563-0.258-1.029-0.258h-1.321V65.343L342.279,65.343z M342.279,66.342v2.444h1.509
			c0.426,0,0.759-0.105,0.999-0.317c0.24-0.212,0.36-0.505,0.36-0.881c0-0.813-0.416-1.228-1.246-1.246H342.279z"/>
		<path fill="#212121" d="M347.489,66.912c0-0.569,0.113-1.083,0.338-1.539c0.226-0.457,0.542-0.808,0.951-1.053
			c0.408-0.246,0.877-0.368,1.407-0.368c0.784,0,1.42,0.252,1.91,0.757c0.488,0.505,0.752,1.174,0.792,2.009l0.005,0.306
			c0,0.573-0.11,1.085-0.331,1.536c-0.22,0.451-0.535,0.8-0.945,1.047c-0.41,0.247-0.883,0.371-1.42,0.371
			c-0.82,0-1.476-0.273-1.968-0.819c-0.493-0.546-0.739-1.273-0.739-2.183V66.912z M348.794,67.024c0,0.598,0.124,1.066,0.371,1.404
			c0.247,0.339,0.591,0.508,1.031,0.508c0.44,0,0.783-0.172,1.029-0.516c0.245-0.344,0.368-0.847,0.368-1.509
			c0-0.587-0.126-1.053-0.378-1.396c-0.253-0.344-0.596-0.516-1.029-0.516c-0.426,0-0.765,0.169-1.015,0.507
			C348.919,65.846,348.794,66.351,348.794,67.024z"/>
		<path fill="#212121" d="M357.039,65.252c-0.172-0.029-0.349-0.043-0.532-0.043c-0.598,0-1.001,0.229-1.208,0.688v3.975h-1.305
			V64.06h1.246l0.032,0.65c0.315-0.505,0.752-0.757,1.311-0.757c0.186,0,0.34,0.025,0.462,0.075L357.039,65.252z"/>
		<path fill="#212121" d="M357.425,66.912c0-0.569,0.113-1.083,0.338-1.539c0.226-0.457,0.542-0.808,0.951-1.053
			c0.408-0.246,0.877-0.368,1.407-0.368c0.784,0,1.42,0.252,1.91,0.757c0.488,0.505,0.752,1.174,0.792,2.009l0.005,0.306
			c0,0.573-0.11,1.085-0.331,1.536c-0.22,0.451-0.535,0.8-0.945,1.047c-0.41,0.247-0.883,0.371-1.42,0.371
			c-0.82,0-1.476-0.273-1.968-0.819c-0.493-0.546-0.739-1.273-0.739-2.183V66.912z M358.73,67.024c0,0.598,0.124,1.066,0.371,1.404
			c0.247,0.339,0.591,0.508,1.031,0.508c0.44,0,0.783-0.172,1.029-0.516c0.245-0.344,0.368-0.847,0.368-1.509
			c0-0.587-0.126-1.053-0.378-1.396c-0.253-0.344-0.596-0.516-1.029-0.516c-0.426,0-0.765,0.169-1.015,0.507
			C358.856,65.846,358.73,66.351,358.73,67.024z"/>
		<path fill="#212121" d="M365.144,64.06l0.038,0.671c0.43-0.519,0.994-0.779,1.692-0.779c1.21,0,1.826,0.693,1.848,2.079v3.84
			h-1.305v-3.765c0-0.369-0.08-0.642-0.239-0.819c-0.16-0.178-0.42-0.266-0.782-0.266c-0.526,0-0.918,0.238-1.176,0.714v4.136
			h-1.305V64.06H365.144z"/>
		<path fill="#212121" d="M340.111,77.26l0.038,0.607c0.408-0.476,0.967-0.714,1.676-0.714c0.777,0,1.309,0.297,1.595,0.892
			c0.422-0.594,1.017-0.892,1.783-0.892c0.641,0,1.118,0.177,1.432,0.532c0.313,0.354,0.473,0.877,0.48,1.568v3.819h-1.305V79.29
			c0-0.369-0.081-0.639-0.242-0.811c-0.161-0.172-0.428-0.258-0.8-0.258c-0.297,0-0.54,0.08-0.728,0.239
			c-0.188,0.16-0.319,0.368-0.395,0.626l0.005,3.985h-1.305v-3.824c-0.018-0.684-0.367-1.026-1.047-1.026
			c-0.523,0-0.894,0.213-1.112,0.639v4.211h-1.305V77.26H340.111z"/>
		<path fill="#212121" d="M348.458,75.75c0-0.201,0.063-0.367,0.19-0.5c0.127-0.132,0.309-0.199,0.545-0.199
			c0.236,0,0.419,0.066,0.548,0.199c0.129,0.133,0.193,0.299,0.193,0.5c0,0.197-0.064,0.361-0.193,0.492
			c-0.129,0.13-0.312,0.196-0.548,0.196c-0.236,0-0.418-0.065-0.545-0.196C348.521,76.111,348.458,75.947,348.458,75.75z
			 M349.844,83.071h-1.305V77.26h1.305V83.071z"/>
		<path fill="#212121" d="M353.351,79.172l1.106-1.912h1.45l-1.778,2.863l1.837,2.949h-1.439l-1.16-1.987l-1.155,1.987h-1.45
			l1.837-2.949l-1.772-2.863h1.439L353.351,79.172z"/>
		<path fill="#212121" d="M356.799,75.75c0-0.201,0.063-0.367,0.191-0.5c0.127-0.132,0.309-0.199,0.545-0.199
			c0.236,0,0.419,0.066,0.548,0.199s0.193,0.299,0.193,0.5c0,0.197-0.064,0.361-0.193,0.492c-0.129,0.13-0.312,0.196-0.548,0.196
			c-0.236,0-0.418-0.065-0.545-0.196C356.863,76.111,356.799,75.947,356.799,75.75z M358.185,83.071h-1.305V77.26h1.305V83.071z"/>
		<path fill="#212121" d="M360.817,77.26l0.038,0.671c0.43-0.519,0.994-0.779,1.692-0.779c1.21,0,1.826,0.693,1.848,2.079v3.84
			h-1.305v-3.765c0-0.369-0.08-0.642-0.239-0.819c-0.159-0.178-0.419-0.266-0.781-0.266c-0.526,0-0.918,0.238-1.176,0.714v4.136
			h-1.305V77.26H360.817z"/>
		<path fill="#212121" d="M365.495,80.123c0-0.902,0.212-1.623,0.637-2.162c0.424-0.539,0.987-0.809,1.689-0.809
			c0.663,0,1.184,0.231,1.563,0.693l0.059-0.585h1.176v5.634c0,0.763-0.237,1.364-0.712,1.805c-0.474,0.44-1.114,0.661-1.92,0.661
			c-0.426,0-0.842-0.089-1.249-0.266c-0.406-0.178-0.715-0.409-0.926-0.696l0.618-0.784c0.401,0.476,0.895,0.714,1.482,0.714
			c0.433,0,0.775-0.117,1.026-0.352c0.25-0.235,0.376-0.58,0.376-1.034V82.55c-0.376,0.419-0.877,0.628-1.504,0.628
			c-0.68,0-1.236-0.271-1.667-0.811C365.711,81.827,365.495,81.079,365.495,80.123z M366.795,80.235
			c0,0.583,0.119,1.043,0.357,1.378c0.238,0.334,0.568,0.502,0.991,0.502c0.526,0,0.917-0.226,1.171-0.677v-2.557
			c-0.247-0.44-0.634-0.661-1.16-0.661c-0.43,0-0.764,0.17-1.001,0.51C366.914,79.072,366.795,79.573,366.795,80.235z"/>
		<path fill="#212121" d="M346.323,89.047v1.413h1.026v0.967h-1.026v3.244c0,0.222,0.044,0.382,0.131,0.481
			c0.088,0.098,0.245,0.147,0.47,0.147c0.15,0,0.303-0.018,0.457-0.054v1.01c-0.297,0.083-0.583,0.124-0.859,0.124
			c-1.002,0-1.504-0.553-1.504-1.66v-3.292h-0.956V90.46h0.956v-1.413H346.323z"/>
		<path fill="#212121" d="M351.817,96.271c-0.057-0.111-0.107-0.292-0.15-0.542c-0.416,0.433-0.924,0.65-1.525,0.65
			c-0.583,0-1.06-0.167-1.429-0.5c-0.369-0.333-0.553-0.745-0.553-1.235c0-0.62,0.23-1.095,0.69-1.426
			c0.46-0.332,1.118-0.497,1.974-0.497h0.8V92.34c0-0.301-0.084-0.542-0.252-0.722c-0.168-0.181-0.424-0.271-0.768-0.271
			c-0.297,0-0.541,0.074-0.73,0.223c-0.19,0.149-0.285,0.338-0.285,0.567h-1.305c0-0.319,0.105-0.617,0.317-0.894
			c0.211-0.278,0.499-0.495,0.862-0.653c0.364-0.158,0.769-0.236,1.217-0.236c0.68,0,1.223,0.171,1.627,0.513
			c0.405,0.342,0.612,0.822,0.623,1.442v2.621c0,0.523,0.073,0.94,0.22,1.251v0.091L351.817,96.271L351.817,96.271z M350.383,95.331
			c0.258,0,0.5-0.063,0.728-0.188c0.227-0.125,0.398-0.293,0.513-0.505v-1.096h-0.704c-0.483,0-0.847,0.084-1.09,0.252
			s-0.365,0.406-0.365,0.714c0,0.25,0.083,0.45,0.25,0.599C349.881,95.257,350.104,95.331,350.383,95.331z"/>
		<path fill="#212121" d="M355.507,90.459l0.038,0.671c0.43-0.519,0.994-0.779,1.692-0.779c1.21,0,1.826,0.693,1.848,2.079v3.84
			h-1.305v-3.765c0-0.369-0.08-0.642-0.239-0.819c-0.159-0.177-0.419-0.266-0.781-0.266c-0.526,0-0.918,0.238-1.176,0.714v4.136
			h-1.305v-5.812L355.507,90.459L355.507,90.459z"/>
		<path fill="#212121" d="M362.302,93.779l-0.58,0.596v1.896h-1.305v-8.25h1.305v4.759l0.408-0.51l1.606-1.81h1.568l-2.159,2.422
			l2.39,3.389h-1.509L362.302,93.779z"/>
	</g>
</g>
<g>
	<g>
		<path fill="#212121" d="M232.302,62.257c-0.283,0.369-0.675,0.648-1.176,0.838c-0.501,0.19-1.071,0.285-1.708,0.285
			c-0.655,0-1.235-0.148-1.74-0.446c-0.505-0.298-0.895-0.723-1.168-1.275c-0.274-0.554-0.417-1.199-0.427-1.937V59.11
			c0-1.182,0.283-2.104,0.849-2.769s1.355-0.997,2.369-0.997c0.87,0,1.561,0.216,2.073,0.647c0.512,0.432,0.82,1.052,0.924,1.861
			h-1.332c-0.15-0.942-0.696-1.413-1.638-1.413c-0.609,0-1.072,0.219-1.388,0.657c-0.317,0.438-0.481,1.082-0.492,1.929v0.601
			c0,0.844,0.178,1.5,0.535,1.967c0.356,0.467,0.851,0.7,1.485,0.7c0.695,0,1.189-0.158,1.482-0.473v-1.531h-1.611V59.26h2.965
			v2.997H232.302z"/>
		<path fill="#212121" d="M237.142,63.272c-0.057-0.111-0.107-0.292-0.15-0.542c-0.416,0.433-0.924,0.65-1.525,0.65
			c-0.583,0-1.06-0.167-1.429-0.5s-0.553-0.745-0.553-1.235c0-0.62,0.23-1.095,0.69-1.426c0.46-0.332,1.118-0.497,1.974-0.497h0.8
			V59.34c0-0.301-0.084-0.542-0.252-0.722c-0.168-0.181-0.424-0.271-0.768-0.271c-0.297,0-0.541,0.074-0.73,0.223
			c-0.19,0.149-0.285,0.338-0.285,0.567h-1.305c0-0.319,0.105-0.617,0.317-0.894c0.211-0.278,0.499-0.495,0.862-0.653
			c0.364-0.158,0.769-0.236,1.217-0.236c0.68,0,1.223,0.171,1.627,0.513c0.405,0.342,0.612,0.822,0.623,1.442v2.621
			c0,0.523,0.073,0.94,0.22,1.251v0.091H237.142z M235.708,62.332c0.258,0,0.5-0.063,0.728-0.188
			c0.227-0.125,0.398-0.293,0.513-0.505v-1.096h-0.704c-0.483,0-0.847,0.084-1.09,0.252c-0.243,0.168-0.365,0.406-0.365,0.714
			c0,0.25,0.083,0.45,0.25,0.599C235.205,62.258,235.428,62.332,235.708,62.332z"/>
		<path fill="#212121" d="M239.376,60.323c0-0.895,0.208-1.614,0.623-2.156c0.416-0.543,0.972-0.814,1.67-0.814
			c0.616,0,1.114,0.215,1.493,0.645v-2.976h1.305v8.25h-1.182l-0.064-0.602c-0.39,0.473-0.911,0.709-1.563,0.709
			c-0.68,0-1.231-0.274-1.652-0.822C239.586,62.01,239.376,61.265,239.376,60.323z M240.681,60.436c0,0.591,0.114,1.052,0.341,1.383
			s0.55,0.497,0.969,0.497c0.534,0,0.924-0.238,1.171-0.714V59.12c-0.24-0.465-0.626-0.698-1.16-0.698
			c-0.422,0-0.749,0.167-0.978,0.502C240.796,59.259,240.681,59.763,240.681,60.436z"/>
		<path fill="#212121" d="M245.585,60.313c0-0.569,0.113-1.082,0.338-1.539c0.226-0.456,0.542-0.807,0.951-1.053
			c0.408-0.245,0.877-0.368,1.407-0.368c0.784,0,1.421,0.252,1.909,0.757c0.489,0.505,0.753,1.174,0.792,2.009l0.005,0.306
			c0,0.573-0.11,1.085-0.33,1.536c-0.221,0.451-0.536,0.8-0.945,1.047c-0.41,0.247-0.884,0.371-1.421,0.371
			c-0.82,0-1.476-0.273-1.969-0.819c-0.492-0.546-0.738-1.274-0.738-2.184L245.585,60.313L245.585,60.313z M246.89,60.425
			c0,0.598,0.124,1.066,0.371,1.405c0.247,0.338,0.591,0.507,1.031,0.507s0.783-0.172,1.028-0.516
			c0.246-0.344,0.368-0.847,0.368-1.509c0-0.587-0.126-1.053-0.379-1.396c-0.252-0.344-0.595-0.516-1.028-0.516
			c-0.426,0-0.765,0.169-1.015,0.508C247.016,59.246,246.89,59.752,246.89,60.425z"/>
		<path fill="#212121" d="M226.816,76.472h-1.305v-8.25h1.305V76.472z"/>
		<path fill="#212121" d="M228.239,69.151c0-0.201,0.063-0.367,0.19-0.5c0.127-0.132,0.309-0.199,0.545-0.199
			c0.236,0,0.419,0.066,0.548,0.199c0.129,0.133,0.193,0.299,0.193,0.5c0,0.197-0.064,0.361-0.193,0.491
			c-0.129,0.131-0.312,0.196-0.548,0.196c-0.236,0-0.418-0.065-0.545-0.196C228.303,69.512,228.239,69.348,228.239,69.151z
			 M229.625,76.472h-1.305V70.66h1.305V76.472z"/>
		<path fill="#212121" d="M232.257,70.661l0.038,0.671c0.43-0.519,0.994-0.779,1.692-0.779c1.21,0,1.826,0.693,1.848,2.079v3.84
			h-1.305v-3.765c0-0.369-0.08-0.642-0.239-0.819c-0.16-0.177-0.42-0.266-0.782-0.266c-0.526,0-0.918,0.238-1.176,0.714v4.136
			h-1.305V70.66L232.257,70.661L232.257,70.661z"/>
		<path fill="#212121" d="M240.684,75.903c-0.383,0.451-0.927,0.677-1.633,0.677c-0.63,0-1.107-0.185-1.431-0.553
			c-0.324-0.369-0.486-0.902-0.486-1.601v-3.765h1.305v3.749c0,0.738,0.306,1.106,0.918,1.106c0.634,0,1.062-0.228,1.284-0.682
			v-4.173h1.305v5.812h-1.23L240.684,75.903z"/>
		<path fill="#212121" d="M244.503,70.661l0.038,0.607c0.408-0.476,0.967-0.714,1.676-0.714c0.777,0,1.309,0.297,1.595,0.892
			c0.422-0.594,1.017-0.892,1.783-0.892c0.641,0,1.118,0.177,1.432,0.532c0.313,0.354,0.473,0.877,0.48,1.568v3.819h-1.305v-3.781
			c0-0.369-0.081-0.639-0.242-0.811c-0.161-0.172-0.428-0.258-0.8-0.258c-0.297,0-0.54,0.08-0.728,0.239
			c-0.188,0.159-0.319,0.368-0.395,0.625l0.005,3.985h-1.305v-3.824c-0.018-0.684-0.367-1.026-1.047-1.026
			c-0.523,0-0.894,0.213-1.112,0.639v4.211h-1.305V70.66L244.503,70.661L244.503,70.661z"/>
		<path fill="#212121" d="M223.827,83.86l0.038,0.607c0.408-0.476,0.967-0.714,1.676-0.714c0.777,0,1.309,0.297,1.595,0.892
			c0.422-0.594,1.017-0.892,1.783-0.892c0.641,0,1.118,0.177,1.431,0.532c0.313,0.354,0.474,0.877,0.481,1.568v3.819h-1.305v-3.781
			c0-0.369-0.081-0.639-0.242-0.811c-0.161-0.172-0.428-0.258-0.8-0.258c-0.297,0-0.54,0.08-0.728,0.239
			c-0.188,0.16-0.32,0.368-0.395,0.626l0.005,3.985h-1.305v-3.824c-0.018-0.684-0.367-1.026-1.047-1.026
			c-0.523,0-0.894,0.213-1.112,0.639v4.211h-1.305V83.86H223.827z"/>
		<path fill="#212121" d="M232.173,82.351c0-0.201,0.063-0.367,0.191-0.5c0.127-0.132,0.309-0.199,0.545-0.199
			c0.236,0,0.419,0.066,0.548,0.199c0.129,0.133,0.193,0.299,0.193,0.5c0,0.197-0.064,0.361-0.193,0.492
			c-0.129,0.13-0.312,0.196-0.548,0.196c-0.236,0-0.418-0.065-0.545-0.196C232.237,82.712,232.173,82.548,232.173,82.351z
			 M233.559,89.672h-1.305V83.86h1.305V89.672z"/>
		<path fill="#212121" d="M237.066,85.772l1.106-1.912h1.45l-1.778,2.863l1.837,2.949h-1.439l-1.16-1.987l-1.155,1.987h-1.45
			l1.837-2.949l-1.772-2.863h1.439L237.066,85.772z"/>
		<path fill="#212121" d="M240.515,82.351c0-0.201,0.063-0.367,0.19-0.5c0.127-0.132,0.309-0.199,0.545-0.199
			s0.419,0.066,0.548,0.199c0.129,0.133,0.193,0.299,0.193,0.5c0,0.197-0.064,0.361-0.193,0.492
			c-0.129,0.13-0.312,0.196-0.548,0.196s-0.418-0.065-0.545-0.196C240.578,82.712,240.515,82.548,240.515,82.351z M241.9,89.672
			h-1.305V83.86h1.305V89.672z"/>
		<path fill="#212121" d="M244.532,83.86l0.038,0.671c0.43-0.519,0.994-0.779,1.692-0.779c1.21,0,1.826,0.693,1.848,2.079v3.84
			h-1.305v-3.765c0-0.369-0.08-0.642-0.239-0.819c-0.16-0.178-0.42-0.266-0.782-0.266c-0.526,0-0.918,0.238-1.176,0.714v4.136
			h-1.305V83.86H244.532z"/>
		<path fill="#212121" d="M249.21,86.723c0-0.902,0.212-1.623,0.636-2.162c0.425-0.539,0.988-0.809,1.689-0.809
			c0.663,0,1.184,0.231,1.563,0.693l0.059-0.585h1.176v5.634c0,0.763-0.237,1.364-0.711,1.805c-0.475,0.44-1.115,0.661-1.92,0.661
			c-0.426,0-0.842-0.089-1.249-0.266c-0.407-0.178-0.715-0.409-0.927-0.696l0.618-0.784c0.401,0.476,0.895,0.714,1.482,0.714
			c0.433,0,0.775-0.117,1.026-0.352c0.25-0.235,0.376-0.58,0.376-1.034V89.15c-0.376,0.419-0.877,0.628-1.504,0.628
			c-0.68,0-1.236-0.271-1.668-0.811C249.426,88.428,249.21,87.679,249.21,86.723z M250.51,86.836c0,0.583,0.119,1.043,0.357,1.378
			c0.238,0.334,0.569,0.502,0.991,0.502c0.526,0,0.917-0.226,1.171-0.677v-2.557c-0.247-0.44-0.634-0.661-1.16-0.661
			c-0.43,0-0.764,0.17-1.002,0.51C250.629,85.672,250.51,86.173,250.51,86.836z"/>
		<path fill="#212121" d="M230.039,95.648v1.413h1.026v0.967h-1.026v3.244c0,0.222,0.044,0.382,0.131,0.48
			c0.088,0.099,0.245,0.148,0.47,0.148c0.15,0,0.303-0.018,0.457-0.054v1.01c-0.297,0.083-0.583,0.124-0.859,0.124
			c-1.002,0-1.504-0.553-1.504-1.66v-3.292h-0.956v-0.967h0.956v-1.413H230.039z"/>
		<path fill="#212121" d="M235.533,102.872c-0.057-0.111-0.107-0.292-0.15-0.542c-0.416,0.433-0.924,0.65-1.525,0.65
			c-0.583,0-1.06-0.167-1.429-0.5c-0.369-0.333-0.553-0.745-0.553-1.235c0-0.62,0.23-1.095,0.69-1.426s1.118-0.497,1.974-0.497h0.8
			V98.94c0-0.301-0.084-0.542-0.252-0.723c-0.168-0.181-0.424-0.271-0.768-0.271c-0.297,0-0.541,0.074-0.73,0.223
			c-0.19,0.148-0.285,0.337-0.285,0.566H232c0-0.319,0.105-0.617,0.317-0.895c0.211-0.277,0.499-0.495,0.862-0.652
			c0.364-0.158,0.769-0.236,1.217-0.236c0.68,0,1.223,0.171,1.627,0.513c0.405,0.342,0.612,0.823,0.623,1.442v2.621
			c0,0.523,0.073,0.94,0.22,1.251v0.091h-1.333V102.872z M234.099,101.932c0.258,0,0.5-0.063,0.728-0.188
			c0.227-0.125,0.398-0.293,0.513-0.505v-1.096h-0.704c-0.483,0-0.847,0.084-1.09,0.252c-0.243,0.168-0.365,0.406-0.365,0.714
			c0,0.25,0.083,0.45,0.25,0.599C233.597,101.858,233.82,101.932,234.099,101.932z"/>
		<path fill="#212121" d="M239.223,97.061l0.038,0.671c0.43-0.519,0.994-0.779,1.692-0.779c1.21,0,1.826,0.693,1.848,2.079v3.84
			h-1.305v-3.765c0-0.369-0.08-0.642-0.239-0.819c-0.159-0.178-0.419-0.266-0.781-0.266c-0.526,0-0.918,0.238-1.176,0.714v4.136
			h-1.305V97.06L239.223,97.061L239.223,97.061z"/>
		<path fill="#212121" d="M246.018,100.38l-0.58,0.596v1.896h-1.305v-8.25h1.305v4.759l0.408-0.51l1.606-1.81h1.568l-2.159,2.422
			l2.39,3.389h-1.509L246.018,100.38z"/>
	</g>
</g>
<g>
	<g>
		<path fill="#212121" d="M451.915,406.794v2.899h-1.359v-7.819h2.992c0.874,0,1.567,0.228,2.082,0.683
			c0.514,0.455,0.771,1.059,0.771,1.808c0,0.768-0.251,1.364-0.755,1.79c-0.504,0.428-1.209,0.641-2.113,0.641L451.915,406.794
			L451.915,406.794z M451.915,405.698h1.633c0.483,0,0.853-0.113,1.106-0.341c0.254-0.229,0.381-0.558,0.381-0.986
			c0-0.422-0.129-0.76-0.387-1.012c-0.259-0.254-0.612-0.383-1.063-0.391h-1.67V405.698z"/>
		<path fill="#212121" d="M462.549,406.848c0,0.898-0.204,1.616-0.611,2.151c-0.408,0.535-0.956,0.803-1.645,0.803
			c-0.637,0-1.146-0.21-1.531-0.628v2.756h-1.305v-8.047h1.203l0.054,0.592c0.383-0.467,0.904-0.699,1.563-0.699
			c0.709,0,1.265,0.265,1.668,0.793c0.401,0.527,0.604,1.262,0.604,2.199V406.848L462.549,406.848z M461.25,406.734
			c0-0.58-0.116-1.041-0.346-1.381c-0.231-0.34-0.563-0.511-0.991-0.511c-0.534,0-0.917,0.222-1.149,0.661v2.578
			c0.236,0.451,0.623,0.677,1.16,0.677c0.416,0,0.74-0.167,0.976-0.502C461.132,407.923,461.25,407.415,461.25,406.734z"/>
		<path fill="#212121" d="M469.843,409.693h-1.3v-6.281l-1.917,0.652v-1.096l3.051-1.121h0.167L469.843,409.693L469.843,409.693z"/>
	</g>
</g>
<g>
	<g>
		<path fill="#212121" d="M747.995,406.794v2.899h-1.359v-7.819h2.992c0.873,0,1.567,0.228,2.081,0.683s0.771,1.059,0.771,1.808
			c0,0.768-0.253,1.364-0.756,1.79c-0.503,0.428-1.207,0.641-2.112,0.641L747.995,406.794L747.995,406.794z M747.995,405.698h1.633
			c0.482,0,0.853-0.113,1.105-0.341c0.255-0.229,0.382-0.557,0.382-0.985c0-0.423-0.129-0.761-0.388-1.013
			c-0.258-0.254-0.611-0.383-1.063-0.391h-1.67V405.698z"/>
		<path fill="#212121" d="M758.63,406.848c0,0.898-0.204,1.616-0.612,2.151c-0.407,0.535-0.955,0.803-1.644,0.803
			c-0.638,0-1.147-0.209-1.531-0.629v2.757h-1.305v-8.047h1.203l0.054,0.592c0.383-0.467,0.904-0.699,1.563-0.699
			c0.709,0,1.265,0.265,1.667,0.793c0.402,0.527,0.604,1.262,0.604,2.199L758.63,406.848L758.63,406.848z M757.33,406.734
			c0-0.58-0.115-1.041-0.347-1.381c-0.23-0.34-0.562-0.51-0.99-0.51c-0.534,0-0.917,0.221-1.15,0.66v2.578
			c0.236,0.451,0.623,0.677,1.16,0.677c0.416,0,0.741-0.167,0.976-0.502C757.214,407.922,757.33,407.415,757.33,406.734z"/>
		<path fill="#212121" d="M767.646,409.693h-5.258v-0.896l2.604-2.842c0.376-0.419,0.644-0.769,0.803-1.05s0.239-0.563,0.239-0.848
			c0-0.371-0.104-0.672-0.314-0.901c-0.209-0.229-0.491-0.345-0.846-0.345c-0.423,0-0.75,0.129-0.982,0.388
			c-0.232,0.258-0.35,0.61-0.35,1.059h-1.305c0-0.477,0.106-0.905,0.323-1.286c0.218-0.382,0.526-0.678,0.931-0.89
			c0.401-0.211,0.867-0.315,1.394-0.315c0.759,0,1.358,0.189,1.797,0.571c0.438,0.381,0.657,0.908,0.657,1.582
			c0,0.39-0.109,0.799-0.33,1.228c-0.22,0.428-0.581,0.914-1.082,1.459l-1.912,2.045h3.631V409.693L767.646,409.693z"/>
	</g>
</g>
<g>
	<g>
		<path fill="#212121" d="M913.157,473.543h-1.354v-3.47h-3.497v3.47h-1.357v-7.82h1.357v3.255h3.497v-3.255h1.354V473.543z"/>
		<path fill="#212121" d="M917.545,468.548l1.646-2.825h1.567l-2.363,3.878l2.416,3.942h-1.584l-1.682-2.868l-1.686,2.868h-1.58
			l2.423-3.942l-2.368-3.878h1.568L917.545,468.548z"/>
		<path fill="#212121" d="M926.864,473.543h-5.259v-0.896l2.604-2.843c0.376-0.419,0.644-0.769,0.803-1.05s0.239-0.563,0.239-0.847
			c0-0.372-0.104-0.673-0.314-0.902c-0.209-0.229-0.49-0.344-0.846-0.344c-0.423,0-0.75,0.129-0.982,0.387s-0.35,0.611-0.35,1.06
			h-1.306c0-0.478,0.107-0.905,0.325-1.286c0.217-0.382,0.525-0.679,0.93-0.891c0.402-0.211,0.867-0.315,1.394-0.315
			c0.76,0,1.358,0.189,1.798,0.571c0.438,0.382,0.657,0.908,0.657,1.582c0,0.391-0.109,0.8-0.331,1.228
			c-0.22,0.428-0.58,0.914-1.082,1.459l-1.911,2.046h3.631V473.543z"/>
	</g>
</g>
<g>
	<g>
		<path fill="#212121" d="M1018.563,473.7h-2.438v6.725h-1.348V473.7h-2.418v-1.096h6.203V473.7L1018.563,473.7z"/>
		<path fill="#212121" d="M1025.406,477.879c-0.078,0.834-0.388,1.485-0.924,1.952c-0.537,0.468-1.251,0.701-2.144,0.701
			c-0.623,0-1.172-0.147-1.646-0.443c-0.476-0.295-0.841-0.715-1.099-1.259c-0.258-0.545-0.393-1.177-0.402-1.896v-0.729
			c0-0.737,0.131-1.388,0.392-1.949c0.262-0.563,0.637-0.996,1.126-1.301c0.488-0.304,1.054-0.456,1.694-0.456
			c0.862,0,1.558,0.233,2.084,0.701c0.525,0.467,0.832,1.129,0.918,1.983h-1.354c-0.063-0.563-0.228-0.968-0.491-1.217
			c-0.263-0.249-0.647-0.373-1.156-0.373c-0.592,0-1.045,0.216-1.361,0.647c-0.317,0.433-0.479,1.064-0.486,1.899v0.694
			c0,0.846,0.151,1.49,0.454,1.935c0.303,0.445,0.745,0.667,1.329,0.667c0.533,0,0.935-0.119,1.203-0.359
			c0.269-0.239,0.438-0.64,0.51-1.197H1025.406z"/>
		<path fill="#212121" d="M1029.375,478.723l1.988-6.118h1.492l-2.814,7.82h-1.315l-2.804-7.82h1.488L1029.375,478.723z"/>
		<path fill="#212121" d="M1040.328,472.566v1.079h-0.162c-0.73,0.012-1.313,0.212-1.75,0.603s-0.697,0.943-0.779,1.66
			c0.419-0.441,0.954-0.661,1.605-0.661c0.69,0,1.236,0.243,1.636,0.729c0.4,0.487,0.599,1.115,0.599,1.887
			c0,0.795-0.232,1.438-0.699,1.931c-0.469,0.492-1.081,0.738-1.841,0.738c-0.779,0-1.413-0.288-1.897-0.864
			c-0.485-0.577-0.729-1.332-0.729-2.268v-0.445c0-1.371,0.333-2.445,1.001-3.223c0.668-0.778,1.63-1.166,2.883-1.166H1040.328
			L1040.328,472.566z M1038.926,476.3c-0.286,0-0.549,0.081-0.787,0.241c-0.237,0.162-0.412,0.377-0.522,0.645v0.398
			c0,0.58,0.122,1.041,0.365,1.383c0.242,0.342,0.559,0.513,0.944,0.513c0.387,0,0.693-0.146,0.918-0.435
			c0.228-0.291,0.339-0.672,0.339-1.145c0-0.474-0.113-0.857-0.344-1.154C1039.609,476.448,1039.306,476.3,1038.926,476.3z"/>
		<path fill="#212121" d="M1046.053,480.425h-1.299v-6.282l-1.918,0.653V473.7l3.051-1.122h0.166V480.425z"/>
	</g>
</g>
<g>
	<g>
		<path fill="#212121" d="M1093.822,494.314h-1.517v3.008h-1.357v-7.82h2.75c0.901,0,1.599,0.202,2.089,0.607
			c0.491,0.404,0.736,0.99,0.736,1.758c0,0.522-0.126,0.961-0.379,1.313c-0.253,0.354-0.604,0.624-1.056,0.814l1.756,3.257v0.069
			h-1.455L1093.822,494.314z M1092.307,493.219h1.396c0.459,0,0.815-0.114,1.074-0.347c0.258-0.23,0.387-0.547,0.387-0.948
			c0-0.418-0.118-0.742-0.356-0.972c-0.237-0.23-0.594-0.348-1.065-0.354h-1.436V493.219z"/>
		<path fill="#212121" d="M1103.779,494.776c-0.078,0.834-0.388,1.484-0.924,1.951c-0.537,0.469-1.252,0.701-2.144,0.701
			c-0.623,0-1.172-0.146-1.646-0.442c-0.476-0.295-0.841-0.716-1.099-1.261c-0.258-0.544-0.393-1.176-0.403-1.896v-0.73
			c0-0.736,0.132-1.388,0.393-1.949c0.262-0.563,0.637-0.995,1.126-1.3c0.488-0.305,1.054-0.457,1.694-0.457
			c0.862,0,1.558,0.233,2.084,0.701c0.525,0.467,0.832,1.129,0.918,1.984h-1.354c-0.063-0.563-0.228-0.968-0.491-1.217
			c-0.263-0.249-0.647-0.373-1.156-0.373c-0.592,0-1.045,0.216-1.361,0.646c-0.317,0.434-0.479,1.065-0.486,1.9v0.693
			c0,0.847,0.151,1.49,0.454,1.936s0.745,0.667,1.329,0.667c0.533,0,0.935-0.12,1.203-0.359s0.438-0.64,0.51-1.197L1103.779,494.776
			L1103.779,494.776z"/>
		<path fill="#212121" d="M1111.128,495.389l1.203-5.887h1.349l-1.805,7.82h-1.301l-1.487-5.709l-1.521,5.709h-1.306l-1.805-7.82
			h1.348l1.216,5.876l1.491-5.876h1.14L1111.128,495.389z"/>
	</g>
</g>
<g>
	<g>
		<path fill="#212121" d="M1137.616,563.649h-1.517v3.008h-1.357v-7.82h2.75c0.901,0,1.599,0.202,2.089,0.607
			c0.491,0.404,0.735,0.99,0.735,1.758c0,0.522-0.125,0.961-0.379,1.313c-0.252,0.354-0.604,0.624-1.055,0.814l1.756,3.257v0.069
			h-1.455L1137.616,563.649z M1136.101,562.554h1.396c0.459,0,0.815-0.114,1.074-0.347c0.258-0.229,0.387-0.547,0.387-0.947
			c0-0.42-0.118-0.743-0.356-0.973c-0.237-0.23-0.594-0.349-1.065-0.354h-1.436V562.554L1136.101,562.554z"/>
		<path fill="#212121" d="M1147.573,564.111c-0.078,0.834-0.388,1.484-0.924,1.952c-0.537,0.468-1.251,0.7-2.144,0.7
			c-0.623,0-1.172-0.146-1.646-0.442c-0.476-0.295-0.84-0.715-1.099-1.259c-0.258-0.546-0.393-1.178-0.402-1.896v-0.729
			c0-0.737,0.131-1.389,0.392-1.949c0.262-0.563,0.637-0.996,1.126-1.301c0.488-0.305,1.054-0.456,1.694-0.456
			c0.862,0,1.558,0.232,2.084,0.7c0.525,0.468,0.832,1.13,0.918,1.984h-1.354c-0.063-0.563-0.228-0.968-0.49-1.217
			c-0.264-0.249-0.648-0.373-1.157-0.373c-0.591,0-1.045,0.216-1.361,0.646c-0.317,0.434-0.479,1.065-0.485,1.9v0.694
			c0,0.846,0.15,1.489,0.453,1.935c0.304,0.445,0.745,0.667,1.329,0.667c0.533,0,0.936-0.12,1.203-0.36
			c0.27-0.238,0.438-0.639,0.51-1.196H1147.573L1147.573,564.111z"/>
		<path fill="#212121" d="M1154.922,564.724l1.203-5.887h1.349l-1.805,7.82h-1.301l-1.487-5.71l-1.521,5.71h-1.305l-1.805-7.82
			h1.348l1.215,5.876l1.492-5.876h1.139L1154.922,564.724z"/>
	</g>
</g>
<g>
	<g>
		<path fill="#212121" d="M1066.41,541.961h-2.438v6.725h-1.349v-6.725h-2.416v-1.096h6.203V541.961z"/>
		<path fill="#212121" d="M1073.252,546.14c-0.078,0.834-0.387,1.485-0.924,1.952c-0.537,0.468-1.251,0.701-2.144,0.701
			c-0.622,0-1.172-0.146-1.646-0.443c-0.475-0.295-0.84-0.715-1.098-1.26c-0.259-0.544-0.394-1.176-0.403-1.896v-0.73
			c0-0.736,0.131-1.388,0.392-1.95c0.263-0.562,0.638-0.995,1.126-1.299c0.488-0.305,1.055-0.457,1.694-0.457
			c0.863,0,1.558,0.233,2.084,0.701c0.526,0.467,0.832,1.129,0.918,1.984h-1.354c-0.064-0.563-0.229-0.969-0.491-1.218
			c-0.264-0.248-0.648-0.372-1.157-0.372c-0.591,0-1.045,0.216-1.361,0.646c-0.316,0.433-0.479,1.065-0.485,1.9v0.693
			c0,0.847,0.15,1.49,0.453,1.936c0.304,0.444,0.745,0.667,1.329,0.667c0.533,0,0.936-0.12,1.203-0.359
			c0.27-0.24,0.438-0.64,0.51-1.198L1073.252,546.14L1073.252,546.14z"/>
		<path fill="#212121" d="M1077.223,546.982l1.986-6.117h1.494l-2.814,7.819h-1.315l-2.804-7.819h1.486L1077.223,546.982z"/>
		<path fill="#212121" d="M1088.174,540.828v1.079h-0.162c-0.729,0.011-1.313,0.211-1.75,0.602
			c-0.438,0.392-0.696,0.943-0.778,1.659c0.419-0.439,0.954-0.66,1.604-0.66c0.691,0,1.236,0.243,1.636,0.73
			c0.4,0.486,0.6,1.114,0.6,1.885c0,0.795-0.233,1.438-0.7,1.932c-0.468,0.492-1.081,0.738-1.84,0.738
			c-0.78,0-1.413-0.288-1.898-0.865c-0.484-0.576-0.728-1.332-0.728-2.266v-0.446c0-1.371,0.333-2.445,1.001-3.223
			c0.668-0.778,1.629-1.165,2.882-1.165H1088.174z M1086.771,544.561c-0.286,0-0.55,0.08-0.787,0.242
			c-0.238,0.16-0.412,0.375-0.523,0.646v0.396c0,0.58,0.122,1.042,0.365,1.384c0.243,0.343,0.559,0.514,0.945,0.514
			c0.386,0,0.692-0.146,0.918-0.437c0.227-0.289,0.339-0.671,0.339-1.144s-0.114-0.857-0.345-1.155
			C1087.455,544.709,1087.151,544.561,1086.771,544.561z"/>
	</g>
</g>
<g>
	<g>
		<path fill="#212121" d="M566.664,93.034h-1.515v3.008h-1.359v-7.82h2.75c0.902,0,1.599,0.203,2.089,0.607
			c0.49,0.404,0.736,0.991,0.736,1.758c0,0.523-0.126,0.961-0.378,1.314c-0.253,0.353-0.604,0.625-1.057,0.814l1.756,3.256v0.07
			h-1.455L566.664,93.034z M565.149,91.938h1.396c0.458,0,0.816-0.116,1.074-0.346c0.258-0.231,0.387-0.547,0.387-0.948
			c0-0.419-0.119-0.743-0.356-0.972c-0.238-0.229-0.594-0.347-1.066-0.354h-1.434V91.938z"/>
		<path fill="#212121" d="M570.655,96.042v-7.82h2.31c0.691,0,1.304,0.154,1.839,0.462c0.536,0.308,0.95,0.745,1.244,1.311
			s0.44,1.214,0.44,1.944v0.392c0,0.741-0.148,1.393-0.443,1.955c-0.296,0.562-0.716,0.996-1.263,1.3
			c-0.546,0.304-1.171,0.457-1.877,0.457L570.655,96.042L570.655,96.042z M572.014,89.317v5.64h0.887
			c0.712,0,1.259-0.223,1.641-0.668c0.381-0.446,0.575-1.086,0.583-1.92v-0.435c0-0.849-0.185-1.497-0.553-1.944
			c-0.368-0.447-0.904-0.671-1.606-0.671h-0.951V89.317z"/>
		<path fill="#212121" d="M581.166,96.042h-1.3v-6.283l-1.917,0.654v-1.096L581,88.194h0.167L581.166,96.042L581.166,96.042z"/>
	</g>
</g>
<g>
	<g>
		<path fill="#212121" d="M606.482,93.034h-1.517v3.008h-1.357v-7.82h2.75c0.901,0,1.599,0.203,2.089,0.607
			c0.491,0.405,0.735,0.991,0.735,1.758c0,0.523-0.126,0.961-0.379,1.314c-0.252,0.353-0.604,0.625-1.055,0.814l1.756,3.256v0.07
			h-1.455L606.482,93.034z M604.967,91.938h1.396c0.459,0,0.815-0.116,1.073-0.346c0.259-0.231,0.388-0.547,0.388-0.948
			c0-0.419-0.118-0.743-0.356-0.972s-0.594-0.347-1.065-0.354h-1.436V91.938z"/>
		<path fill="#212121" d="M610.473,96.042v-7.82h2.311c0.69,0,1.305,0.154,1.84,0.462s0.949,0.745,1.243,1.311
			s0.439,1.214,0.439,1.944v0.392c0,0.741-0.146,1.393-0.442,1.955c-0.295,0.562-0.716,0.996-1.263,1.3
			c-0.546,0.304-1.172,0.457-1.878,0.457L610.473,96.042L610.473,96.042z M611.832,89.317v5.64h0.886
			c0.713,0,1.26-0.223,1.642-0.668c0.382-0.446,0.575-1.086,0.583-1.92v-0.435c0-0.849-0.186-1.497-0.554-1.944
			c-0.369-0.448-0.903-0.671-1.605-0.671h-0.951V89.317z"/>
		<path fill="#212121" d="M622.708,96.042h-5.259v-0.897l2.604-2.841c0.376-0.419,0.645-0.769,0.804-1.05
			c0.158-0.281,0.238-0.563,0.238-0.846c0-0.373-0.104-0.673-0.313-0.902c-0.209-0.229-0.491-0.344-0.847-0.344
			c-0.423,0-0.75,0.129-0.982,0.387c-0.232,0.258-0.35,0.61-0.35,1.058h-1.306c0-0.476,0.108-0.905,0.325-1.287
			c0.217-0.381,0.526-0.677,0.93-0.889c0.402-0.211,0.867-0.317,1.395-0.317c0.759,0,1.357,0.191,1.797,0.572
			c0.438,0.382,0.658,0.909,0.658,1.582c0,0.39-0.11,0.799-0.331,1.228c-0.221,0.428-0.581,0.914-1.082,1.458L619.077,95h3.631
			V96.042z"/>
	</g>
</g>
<g>
	<g>
		<path fill="#212121" d="M585.531,77.63h-1.516v3.008h-1.358v-7.82h2.75c0.901,0,1.599,0.203,2.089,0.607
			c0.491,0.405,0.736,0.991,0.736,1.758c0,0.523-0.127,0.961-0.38,1.314c-0.252,0.353-0.604,0.625-1.055,0.814l1.756,3.256v0.07
			h-1.456L585.531,77.63z M584.016,76.534h1.396c0.458,0,0.815-0.115,1.074-0.347c0.258-0.23,0.387-0.547,0.387-0.948
			c0-0.419-0.119-0.743-0.357-0.972c-0.237-0.229-0.594-0.347-1.065-0.354h-1.435V76.534z"/>
		<path fill="#212121" d="M589.521,80.638v-7.82h2.31c0.691,0,1.304,0.154,1.84,0.462c0.535,0.308,0.95,0.745,1.243,1.311
			c0.293,0.566,0.439,1.214,0.439,1.944v0.392c0,0.741-0.146,1.393-0.442,1.955c-0.295,0.562-0.716,0.996-1.262,1.3
			c-0.546,0.304-1.173,0.457-1.877,0.457L589.521,80.638L589.521,80.638z M590.88,73.913v5.64h0.886
			c0.712,0,1.261-0.223,1.642-0.669c0.382-0.445,0.576-1.085,0.583-1.92v-0.435c0-0.849-0.186-1.497-0.554-1.944
			c-0.367-0.447-0.903-0.671-1.605-0.671L590.88,73.913L590.88,73.913z"/>
		<path fill="#212121" d="M598.008,76.131h0.795c0.401-0.003,0.72-0.107,0.953-0.312c0.234-0.205,0.353-0.5,0.353-0.886
			c0-0.373-0.098-0.662-0.292-0.867c-0.195-0.206-0.494-0.309-0.896-0.309c-0.351,0-0.639,0.101-0.865,0.303
			c-0.226,0.203-0.338,0.467-0.338,0.792h-1.305c0-0.401,0.105-0.766,0.32-1.096c0.213-0.33,0.51-0.586,0.892-0.771
			c0.381-0.184,0.808-0.276,1.281-0.276c0.781,0,1.394,0.196,1.839,0.588c0.446,0.393,0.669,0.938,0.669,1.636
			c0,0.351-0.112,0.681-0.336,0.991c-0.224,0.31-0.513,0.543-0.867,0.701c0.43,0.147,0.757,0.378,0.98,0.693
			c0.223,0.315,0.335,0.691,0.335,1.128c0,0.702-0.24,1.26-0.723,1.676c-0.481,0.416-1.113,0.623-1.898,0.623
			c-0.752,0-1.368-0.201-1.849-0.602c-0.479-0.401-0.72-0.935-0.72-1.601h1.305c0,0.344,0.115,0.623,0.348,0.838
			c0.229,0.215,0.542,0.322,0.932,0.322c0.405,0,0.725-0.107,0.956-0.322c0.232-0.215,0.35-0.526,0.35-0.935
			c0-0.412-0.121-0.729-0.364-0.951c-0.244-0.222-0.605-0.333-1.085-0.333h-0.769L598.008,76.131L598.008,76.131z"/>
	</g>
</g>
<g>
	<g>
		<path fill="#212121" d="M625.881,77.629h-1.514v3.008h-1.359v-7.82h2.75c0.902,0,1.6,0.203,2.09,0.607
			c0.49,0.405,0.735,0.991,0.735,1.758c0,0.523-0.126,0.961-0.379,1.314c-0.252,0.353-0.604,0.625-1.056,0.814l1.757,3.256v0.07
			h-1.456L625.881,77.629z M624.367,76.533h1.396c0.458,0,0.816-0.115,1.074-0.347c0.258-0.23,0.387-0.547,0.387-0.948
			c0-0.419-0.118-0.743-0.356-0.972s-0.594-0.347-1.066-0.354h-1.434V76.533z"/>
		<path fill="#212121" d="M629.872,80.637v-7.82h2.31c0.691,0,1.306,0.154,1.841,0.462c0.534,0.308,0.948,0.745,1.242,1.311
			c0.294,0.566,0.44,1.214,0.44,1.944v0.392c0,0.741-0.147,1.393-0.443,1.955c-0.295,0.562-0.716,0.996-1.262,1.3
			c-0.546,0.304-1.172,0.457-1.877,0.457L629.872,80.637L629.872,80.637z M631.23,73.912v5.64h0.887c0.713,0,1.26-0.223,1.641-0.669
			c0.382-0.445,0.576-1.085,0.583-1.92v-0.435c0-0.849-0.185-1.497-0.554-1.944c-0.368-0.448-0.903-0.671-1.605-0.671L631.23,73.912
			L631.23,73.912z"/>
		<path fill="#212121" d="M641.264,77.849h0.974v1.047h-0.974v1.74h-1.305v-1.74h-3.379l-0.037-0.795l3.373-5.285h1.348V77.849z
			 M637.912,77.849h2.047v-3.266l-0.097,0.172L637.912,77.849z"/>
	</g>
</g>
<g>
	<g>
		<path fill="#212121" d="M93.029,493.386h-1.515v3.008h-1.359v-7.819h2.75c0.902,0,1.599,0.202,2.089,0.606
			c0.49,0.405,0.736,0.991,0.736,1.758c0,0.523-0.126,0.962-0.379,1.314c-0.252,0.354-0.604,0.624-1.055,0.814l1.756,3.257v0.068
			h-1.455L93.029,493.386z M91.514,492.29h1.396c0.458,0,0.816-0.115,1.074-0.347c0.258-0.23,0.387-0.547,0.387-0.948
			c0-0.418-0.119-0.742-0.357-0.972c-0.238-0.229-0.594-0.349-1.066-0.354h-1.434V492.29z"/>
		<path fill="#212121" d="M102.987,493.848c-0.079,0.834-0.387,1.485-0.924,1.952c-0.537,0.468-1.251,0.701-2.143,0.701
			c-0.623,0-1.172-0.147-1.646-0.443c-0.474-0.295-0.84-0.715-1.098-1.26c-0.258-0.544-0.392-1.176-0.403-1.896v-0.73
			c0-0.737,0.131-1.388,0.392-1.95c0.261-0.562,0.636-0.995,1.125-1.299c0.488-0.305,1.053-0.457,1.694-0.457
			c0.863,0,1.558,0.233,2.084,0.701c0.526,0.467,0.833,1.129,0.918,1.984h-1.354c-0.064-0.563-0.228-0.969-0.492-1.218
			c-0.263-0.249-0.649-0.373-1.157-0.373c-0.591,0-1.045,0.217-1.361,0.647c-0.317,0.433-0.479,1.064-0.486,1.9v0.693
			c0,0.846,0.151,1.49,0.454,1.936c0.302,0.444,0.746,0.667,1.329,0.667c0.534,0,0.935-0.12,1.203-0.359
			c0.269-0.24,0.438-0.64,0.51-1.198L102.987,493.848L102.987,493.848z"/>
		<path fill="#212121" d="M110.334,494.46l1.203-5.887h1.348l-1.805,7.819h-1.3l-1.488-5.709l-1.52,5.709h-1.305l-1.805-7.819h1.348
			l1.214,5.876l1.493-5.876h1.139L110.334,494.46z"/>
	</g>
</g>
<g>
	<g>
		<path fill="#212121" d="M56,564.114h-1.515v3.008h-1.359v-7.82h2.75c0.902,0,1.599,0.202,2.089,0.607
			c0.49,0.404,0.736,0.991,0.736,1.758c0,0.523-0.126,0.961-0.379,1.314c-0.252,0.353-0.604,0.624-1.055,0.813l1.756,3.257v0.069
			h-1.456L56,564.114z M54.486,563.019h1.396c0.458,0,0.816-0.114,1.074-0.347c0.258-0.229,0.387-0.547,0.387-0.947
			c0-0.42-0.119-0.742-0.357-0.973c-0.238-0.229-0.594-0.348-1.066-0.354h-1.434V563.019L54.486,563.019z"/>
		<path fill="#212121" d="M65.958,564.576c-0.079,0.834-0.387,1.484-0.924,1.952c-0.537,0.468-1.251,0.701-2.143,0.701
			c-0.623,0-1.172-0.147-1.646-0.443c-0.474-0.295-0.84-0.715-1.098-1.259c-0.258-0.545-0.392-1.178-0.403-1.896v-0.729
			c0-0.737,0.131-1.389,0.392-1.949c0.261-0.563,0.636-0.996,1.125-1.301c0.488-0.305,1.053-0.456,1.694-0.456
			c0.863,0,1.558,0.232,2.084,0.701c0.526,0.467,0.833,1.129,0.918,1.983h-1.354c-0.064-0.563-0.228-0.968-0.492-1.217
			c-0.263-0.249-0.649-0.373-1.157-0.373c-0.591,0-1.045,0.216-1.361,0.647c-0.317,0.433-0.479,1.064-0.486,1.899v0.694
			c0,0.846,0.151,1.49,0.454,1.935c0.302,0.445,0.746,0.667,1.329,0.667c0.534,0,0.935-0.12,1.203-0.359
			c0.269-0.239,0.438-0.64,0.51-1.197H65.958L65.958,564.576z"/>
		<path fill="#212121" d="M73.306,565.188l1.203-5.888h1.348l-1.805,7.82h-1.3l-1.488-5.71l-1.52,5.71h-1.305l-1.805-7.82h1.348
			l1.214,5.876l1.493-5.876h1.139L73.306,565.188z"/>
	</g>
</g>
<g>
	<g>
		<path fill="#212121" d="M167.097,471.918h-2.438v6.725h-1.349v-6.725h-2.417v-1.096h6.204V471.918z"/>
		<path fill="#212121" d="M173.939,476.097c-0.079,0.834-0.387,1.485-0.924,1.952c-0.537,0.468-1.251,0.701-2.143,0.701
			c-0.623,0-1.172-0.147-1.646-0.443c-0.475-0.295-0.841-0.715-1.099-1.26c-0.258-0.544-0.392-1.176-0.403-1.896v-0.73
			c0-0.737,0.131-1.388,0.392-1.95c0.261-0.562,0.637-0.995,1.125-1.299c0.489-0.305,1.054-0.457,1.695-0.457
			c0.863,0,1.558,0.233,2.084,0.701c0.526,0.467,0.833,1.129,0.918,1.984h-1.354c-0.064-0.563-0.229-0.969-0.491-1.218
			c-0.264-0.249-0.649-0.373-1.158-0.373c-0.591,0-1.044,0.217-1.362,0.647c-0.316,0.433-0.479,1.064-0.486,1.899v0.694
			c0,0.846,0.151,1.49,0.454,1.936c0.303,0.444,0.746,0.667,1.33,0.667c0.534,0,0.935-0.12,1.203-0.359
			c0.269-0.24,0.438-0.64,0.51-1.198L173.939,476.097L173.939,476.097z"/>
		<path fill="#212121" d="M177.909,476.939l1.987-6.117h1.493l-2.814,7.819h-1.316l-2.804-7.819h1.488L177.909,476.939z"/>
		<path fill="#212121" d="M188.86,470.785v1.079h-0.161c-0.73,0.011-1.314,0.211-1.751,0.602c-0.437,0.392-0.696,0.943-0.779,1.659
			c0.419-0.439,0.954-0.66,1.606-0.66c0.691,0,1.236,0.243,1.636,0.73c0.399,0.486,0.599,1.114,0.599,1.885
			c0,0.795-0.233,1.438-0.701,1.932c-0.467,0.492-1.08,0.738-1.839,0.738c-0.781,0-1.414-0.288-1.899-0.865
			c-0.485-0.576-0.728-1.332-0.728-2.266v-0.446c0-1.371,0.334-2.445,1.002-3.223c0.667-0.777,1.628-1.165,2.881-1.165H188.86
			L188.86,470.785z M187.458,474.518c-0.287,0-0.549,0.08-0.787,0.242c-0.238,0.16-0.413,0.375-0.524,0.646v0.396
			c0,0.58,0.122,1.042,0.365,1.384c0.243,0.343,0.559,0.514,0.945,0.514c0.386,0,0.693-0.146,0.918-0.437
			c0.226-0.289,0.338-0.671,0.338-1.144c0-0.474-0.115-0.857-0.344-1.155C188.143,474.666,187.838,474.518,187.458,474.518z"/>
		<path fill="#212121" d="M196.31,478.643h-5.258v-0.896l2.605-2.842c0.376-0.419,0.644-0.77,0.803-1.05
			c0.159-0.281,0.239-0.563,0.239-0.848c0-0.372-0.105-0.673-0.314-0.901c-0.21-0.229-0.492-0.345-0.846-0.345
			c-0.422,0-0.75,0.129-0.983,0.388c-0.233,0.258-0.349,0.61-0.349,1.059h-1.305c0-0.477,0.108-0.905,0.325-1.286
			c0.216-0.382,0.526-0.678,0.929-0.89c0.403-0.211,0.868-0.316,1.394-0.316c0.759,0,1.358,0.19,1.796,0.572
			c0.439,0.381,0.658,0.908,0.658,1.582c0,0.39-0.11,0.799-0.33,1.227c-0.221,0.429-0.581,0.914-1.083,1.459l-1.912,2.046h3.631
			V478.643L196.31,478.643z"/>
	</g>
</g>
<g>
	<g>
		<path fill="#212121" d="M291.966,473.543h-1.354v-3.47h-3.497v3.47h-1.359v-7.82h1.359v3.255h3.497v-3.255h1.354V473.543z"/>
		<path fill="#212121" d="M296.354,468.548l1.644-2.825h1.568l-2.363,3.878l2.417,3.942h-1.584l-1.681-2.868l-1.687,2.868h-1.579
			l2.422-3.942l-2.369-3.878h1.568L296.354,468.548z"/>
		<path fill="#212121" d="M303.949,473.543h-1.3v-6.282l-1.917,0.653v-1.096l3.051-1.123h0.167L303.949,473.543L303.949,473.543z"/>
	</g>
</g>
<g>
	<g>
		<path fill="#212121" d="M247.142,165.071v2.9h-1.359v-7.82h2.992c0.874,0,1.567,0.228,2.082,0.683
			c0.514,0.455,0.771,1.057,0.771,1.806c0,0.768-0.251,1.364-0.755,1.791c-0.503,0.426-1.208,0.64-2.113,0.64H247.142z
			 M247.142,163.976h1.633c0.483,0,0.852-0.114,1.106-0.341c0.254-0.228,0.381-0.556,0.381-0.986c0-0.422-0.129-0.76-0.387-1.012
			c-0.258-0.253-0.612-0.382-1.063-0.39h-1.67V163.976z"/>
		<path fill="#212121" d="M255.569,166.269l1.987-6.118h1.493l-2.814,7.82h-1.316l-2.804-7.82h1.488L255.569,166.269z"/>
		<path fill="#212121" d="M265.995,167.972h-1.3v-6.283l-1.917,0.654v-1.096l3.051-1.123h0.167L265.995,167.972L265.995,167.972z"/>
		<path fill="#212121" d="M272.773,160.114v1.08h-0.161c-0.73,0.011-1.314,0.211-1.751,0.602s-0.696,0.943-0.779,1.66
			c0.419-0.44,0.954-0.661,1.606-0.661c0.691,0,1.236,0.244,1.635,0.73c0.399,0.487,0.599,1.115,0.599,1.885
			c0,0.795-0.234,1.438-0.701,1.931c-0.468,0.492-1.081,0.738-1.84,0.738c-0.781,0-1.414-0.288-1.898-0.865
			c-0.485-0.577-0.728-1.332-0.728-2.267v-0.446c0-1.372,0.334-2.446,1.001-3.223c0.668-0.777,1.628-1.166,2.882-1.166h0.135
			V160.114z M271.371,163.847c-0.287,0-0.549,0.081-0.787,0.242s-0.413,0.376-0.523,0.645v0.397c0,0.58,0.122,1.041,0.365,1.383
			c0.244,0.342,0.559,0.513,0.945,0.513c0.386,0,0.693-0.145,0.918-0.435s0.338-0.671,0.338-1.144c0-0.473-0.115-0.857-0.344-1.155
			S271.75,163.847,271.371,163.847z"/>
	</g>
</g>
<g>
	<g>
		<path fill="#212121" d="M363.643,165.07v2.9h-1.359v-7.82h2.992c0.874,0,1.567,0.228,2.081,0.683s0.771,1.057,0.771,1.806
			c0,0.768-0.251,1.364-0.754,1.791c-0.503,0.426-1.208,0.64-2.114,0.64H363.643z M363.643,163.975h1.633
			c0.483,0,0.852-0.114,1.106-0.341c0.254-0.228,0.381-0.556,0.381-0.986c0-0.422-0.129-0.76-0.387-1.012
			c-0.258-0.253-0.612-0.382-1.063-0.39h-1.67V163.975z"/>
		<path fill="#212121" d="M372.07,166.268l1.987-6.118h1.493l-2.814,7.82h-1.316l-2.804-7.82h1.488L372.07,166.268z"/>
		<path fill="#212121" d="M384.219,167.971h-5.258v-0.897l2.605-2.841c0.376-0.419,0.644-0.769,0.803-1.05
			c0.159-0.281,0.239-0.563,0.239-0.846c0-0.373-0.105-0.673-0.314-0.902c-0.21-0.229-0.492-0.344-0.846-0.344
			c-0.422,0-0.75,0.129-0.983,0.387c-0.233,0.258-0.349,0.61-0.349,1.058h-1.305c0-0.476,0.108-0.905,0.325-1.286
			c0.216-0.382,0.526-0.678,0.929-0.889c0.403-0.211,0.868-0.317,1.394-0.317c0.759,0,1.358,0.19,1.796,0.572
			c0.439,0.381,0.658,0.908,0.658,1.582c0,0.39-0.11,0.799-0.33,1.227c-0.221,0.428-0.581,0.914-1.083,1.458l-1.912,2.046h3.631
			L384.219,167.971L384.219,167.971z"/>
		<path fill="#212121" d="M390.31,164.678c0,1.125-0.21,1.972-0.631,2.543c-0.42,0.571-1.061,0.856-1.92,0.856
			c-0.845,0-1.481-0.278-1.909-0.835c-0.428-0.557-0.647-1.381-0.658-2.474v-1.354c0-1.125,0.21-1.968,0.631-2.53
			c0.421-0.562,1.063-0.843,1.926-0.843c0.856,0,1.494,0.274,1.915,0.822c0.42,0.548,0.636,1.368,0.646,2.46L390.31,164.678
			L390.31,164.678z M389.005,163.217c0-0.734-0.1-1.272-0.301-1.614c-0.201-0.342-0.52-0.513-0.956-0.513
			c-0.426,0-0.739,0.162-0.94,0.486c-0.201,0.324-0.306,0.83-0.317,1.518v1.772c0,0.73,0.102,1.275,0.306,1.633
			s0.524,0.537,0.961,0.537c0.419,0,0.729-0.166,0.93-0.497s0.306-0.849,0.316-1.555L389.005,163.217L389.005,163.217z"/>
	</g>
</g>
<g>
	<polyline fill="#D2D3D3" points="328.796,395.992 190.265,561.176 147.588,561.176 147.588,566.176 192.597,566.176 
		335.322,395.992 	"/>
	<polygon fill="#999999" points="192.831,566.676 147.088,566.676 147.088,560.676 190.032,560.676 328.413,395.671 329.18,396.313 
		190.499,561.676 148.088,561.676 148.088,565.676 192.364,565.676 334.938,395.671 335.705,396.313 	"/>
</g>
<g>
	<polyline fill="#D2D3D3" points="877.236,395.992 1021.096,564.687 1021.845,565.564 1061.24,565.564 1061.24,560.564 
		1024.151,560.564 883.808,395.992 	"/>
	<polygon fill="#999999" points="1061.74,566.064 1021.614,566.064 1020.715,565.011 876.855,396.316 877.617,395.668 
		1022.075,565.064 1060.74,565.064 1060.74,561.064 1023.921,561.064 1023.771,560.889 883.427,396.316 884.188,395.668 
		1024.382,560.064 1061.74,560.064 	"/>
</g>
<g>
	<g>
		<path fill="#F9EC31" d="M309.257,442.743c0,10.005-8.105,18.109-18.109,18.109s-18.114-8.104-18.114-18.109
			c0-10.003,8.11-18.114,18.114-18.114S309.257,432.74,309.257,442.743z"/>
		<path fill="#353535" d="M291.147,461.104c-10.126,0-18.364-8.236-18.364-18.36c0-10.126,8.238-18.364,18.364-18.364
			c10.124,0,18.359,8.238,18.359,18.364C309.507,452.867,301.271,461.104,291.147,461.104z M291.147,424.879
			c-9.851,0-17.864,8.014-17.864,17.864c0,9.849,8.014,17.859,17.864,17.859c9.848,0,17.859-8.012,17.859-17.859
			C309.007,432.893,300.995,424.879,291.147,424.879z"/>
	</g>
	<path fill="#353535" d="M295.148,448.679c-0.065,0-0.128-0.024-0.175-0.07l-11.363-11.156l-3.413,5.425
		c-0.045,0.073-0.125,0.117-0.211,0.117h-6.952c-0.138,0-0.25-0.112-0.25-0.25s0.112-0.25,0.25-0.25h6.814l3.505-5.57
		c0.04-0.063,0.107-0.105,0.182-0.115c0.073-0.01,0.15,0.018,0.205,0.069l11.353,11.146l4.684-8.229
		c0.04-0.068,0.109-0.115,0.188-0.124c0.079-0.01,0.157,0.021,0.212,0.078l3.922,4.214l5.148-0.207
		c0.144,0.014,0.254,0.103,0.26,0.24c0.005,0.138-0.102,0.254-0.24,0.26l-5.264,0.212c-0.073-0.001-0.144-0.024-0.193-0.08
		l-3.768-4.049l-4.676,8.215c-0.039,0.067-0.106,0.113-0.183,0.124C295.171,448.678,295.16,448.679,295.148,448.679z"/>
</g>
<g>
	<g>
		<path fill="#F9EC31" d="M939.257,442.743c0,10.005-8.104,18.109-18.108,18.109c-10.005,0-18.114-8.104-18.114-18.109
			c0-10.003,8.109-18.114,18.114-18.114C931.152,424.629,939.257,432.74,939.257,442.743z"/>
		<path fill="#353535" d="M921.146,461.104c-10.125,0-18.363-8.236-18.363-18.36c0-10.126,8.237-18.364,18.363-18.364
			c10.123,0,18.359,8.238,18.359,18.364C939.507,452.867,931.271,461.104,921.146,461.104z M921.146,424.879
			c-9.851,0-17.863,8.014-17.863,17.864c0,9.849,8.014,17.859,17.863,17.859c9.849,0,17.859-8.012,17.859-17.859
			C939.007,432.893,930.995,424.879,921.146,424.879z"/>
	</g>
	<path fill="#353535" d="M925.148,448.679c-0.065,0-0.129-0.024-0.176-0.07l-11.363-11.156l-3.412,5.425
		c-0.046,0.073-0.126,0.117-0.212,0.117h-6.952c-0.139,0-0.25-0.112-0.25-0.25s0.111-0.25,0.25-0.25h6.813l3.505-5.57
		c0.041-0.063,0.106-0.105,0.183-0.115c0.074-0.01,0.149,0.018,0.204,0.069l11.354,11.146l4.686-8.229
		c0.039-0.068,0.107-0.115,0.188-0.124c0.076-0.008,0.158,0.02,0.212,0.078l3.922,4.214l5.149-0.207
		c0.138,0.009,0.254,0.104,0.26,0.24c0.005,0.138-0.102,0.254-0.24,0.26l-5.264,0.212c-0.074-0.006-0.144-0.025-0.191-0.08
		l-3.77-4.049l-4.677,8.215c-0.038,0.067-0.105,0.113-0.184,0.124C925.172,448.678,925.16,448.679,925.148,448.679z"/>
</g>
</svg>
