<?xml version="1.0" encoding="utf-8"?>
<!-- Generator: Adobe Illustrator 15.0.0, SVG Export Plug-In . SVG Version: 6.00 Build 0)  -->
<!DOCTYPE svg PUBLIC "-//W3C//DTD SVG 1.1//EN" "http://www.w3.org/Graphics/SVG/1.1/DTD/svg11.dtd">
<svg version="1.1" id="Layer_1" xmlns="http://www.w3.org/2000/svg" xmlns:xlink="http://www.w3.org/1999/xlink" x="0px" y="0px"
	 width="1020px" height="600px" viewBox="0 0 1020 600" enable-background="new 0 0 1020 600" xml:space="preserve">
<line fill="none" stroke="#000000" stroke-miterlimit="10" x1="886.291" y1="216.845" x2="886.291" y2="391.021"/>
<line fill="none" stroke="#000000" stroke-miterlimit="10" x1="886.291" y1="294.528" x2="956.433" y2="294.528"/>
<polygon fill="#D2D3D3" stroke="#999999" stroke-miterlimit="10" points="216.585,239.984 185.484,239.984 185.484,139.549 
	249.42,139.549 261.351,127.619 265.281,131.549 251.723,145.108 191.043,145.108 191.043,234.426 216.585,234.426 "/>
<polygon fill="#D2D3D3" stroke="#999999" stroke-miterlimit="10" points="271.759,191.837 216.585,191.837 216.585,186.279 
	266.2,186.279 266.2,135.957 271.759,135.957 "/>
<polygon fill="#D2D3D3" stroke="#999999" stroke-miterlimit="10" points="446.461,288.839 240.003,288.839 240.003,218.744 
	219.418,218.744 219.418,213.185 245.562,213.185 245.562,283.281 446.461,283.281 "/>
<polygon fill="#D2D3D3" stroke="#999999" stroke-miterlimit="10" points="343.979,142.274 299.733,142.274 285.479,128.769 
	289.301,124.733 301.948,136.716 338.419,136.716 338.419,126.751 343.979,126.751 "/>
<polygon fill="#D2D3D3" stroke="#999999" stroke-miterlimit="10" points="446.461,273.971 414.181,273.971 414.181,215.203 
	400.674,215.203 400.674,209.644 419.739,209.644 419.739,268.412 446.461,268.412 "/>
<polygon fill="#D2D3D3" stroke="#999999" stroke-miterlimit="10" points="241.674,365.788 221.542,365.788 221.542,360.229 
	236.115,360.229 236.115,328.948 446.461,328.948 446.461,334.508 241.674,334.508 "/>
<polygon fill="#D2D3D3" stroke="#999999" stroke-miterlimit="10" points="424.197,389.249 399.113,389.249 399.113,383.689 
	418.638,383.689 418.638,313.236 446.461,313.236 446.461,318.796 424.197,318.796 "/>
<polygon fill="#D2D3D3" stroke="#999999" stroke-miterlimit="10" points="369.792,538.86 310.102,538.86 310.102,360.296 
	392.855,360.296 392.855,365.854 315.661,365.854 315.661,533.301 364.233,533.301 364.233,409.534 392.855,409.534 
	392.855,415.093 369.792,415.093 "/>
<polygon fill="#D2D3D3" stroke="#999999" stroke-miterlimit="10" points="341.229,561.71 296.907,561.71 284.163,550.993 
	287.74,546.737 298.934,556.151 335.671,556.151 335.671,536.082 341.229,536.082 "/>
<polygon fill="#D2D3D3" stroke="#999999" stroke-miterlimit="10" points="252.285,561.71 233.393,561.71 233.393,412.102 
	221.542,412.102 221.542,406.542 238.952,406.542 238.952,556.151 249.982,556.151 260.594,545.541 264.524,549.472 "/>
<polygon fill="#D2D3D3" stroke="#999999" stroke-miterlimit="10" points="269.418,573.679 182.525,573.679 182.525,385.234 
	214.462,385.234 214.462,390.794 188.084,390.794 188.084,568.119 263.86,568.119 263.86,553.218 269.418,553.218 "/>
<polygon fill="#D2D3D3" stroke="#999999" stroke-miterlimit="10" points="671.743,288.656 638.769,288.656 638.769,283.098 
	666.184,283.098 666.184,217.269 685.304,217.269 685.304,222.828 671.743,222.828 "/>
<polygon fill="#D2D3D3" stroke="#999999" stroke-miterlimit="10" points="850.729,273.971 638.769,273.971 638.769,268.412 
	845.171,268.412 845.171,237.129 862.912,237.129 862.912,242.688 850.729,242.688 "/>
<polygon fill="#D2D3D3" stroke="#999999" stroke-miterlimit="10" points="862.912,363.407 839.46,363.407 839.46,318.796 
	638.769,318.796 638.769,313.236 845.019,313.236 845.019,357.85 862.912,357.85 "/>
<polygon fill="#D2D3D3" stroke="#999999" stroke-miterlimit="10" points="778.102,239.093 695.219,239.093 695.219,233.534 
	772.544,233.534 772.544,129.196 716.896,129.196 716.896,193.937 693.444,193.937 693.444,188.378 711.339,188.378 
	711.339,123.637 778.102,123.637 "/>
<polygon fill="#D2D3D3" stroke="#999999" stroke-miterlimit="10" points="787.479,143.613 739.63,143.613 739.63,126.417 
	745.188,126.417 745.188,138.055 785.474,138.055 793.407,131.485 796.952,135.766 "/>
<polygon fill="#D2D3D3" stroke="#999999" stroke-miterlimit="10" points="900.237,216.786 871.889,216.786 871.889,211.227 
	894.679,211.227 894.679,146.537 830.275,146.537 819.328,135.592 823.258,131.66 832.577,140.979 900.237,140.979 "/>
<polygon fill="#D2D3D3" stroke="#999999" stroke-miterlimit="10" points="865.852,196.93 811.44,196.93 811.44,137.298 817,137.298 
	817,191.372 865.852,191.372 "/>
<g>
	<g>
		<path fill="#444849" d="M568.874,317.227h-1.368v-3.508h-3.534v3.508h-1.373v-7.903h1.373v3.288h3.534v-3.288h1.368V317.227z"/>
		<path fill="#444849" d="M562.916,329.455v-7.903h2.334c0.698,0,1.318,0.155,1.859,0.468c0.541,0.311,0.96,0.752,1.257,1.323
			c0.296,0.571,0.443,1.228,0.443,1.966v0.396c0,0.749-0.147,1.407-0.446,1.976s-0.725,1.008-1.275,1.314
			c-0.553,0.309-1.185,0.461-1.896,0.461H562.916L562.916,329.455z M564.289,322.658v5.699h0.896c0.722,0,1.273-0.226,1.658-0.676
			c0.386-0.449,0.582-1.098,0.59-1.939v-0.439c0-0.857-0.187-1.513-0.56-1.966c-0.373-0.452-0.914-0.679-1.623-0.679H564.289
			L564.289,322.658z"/>
		<path fill="#444849" d="M567.639,338.866h0.982v1.059h-0.982v1.759h-1.318v-1.759h-3.414l-0.038-0.804l3.409-5.342h1.361V338.866z
			 M564.252,338.866h2.067v-3.302l-0.099,0.175L564.252,338.866z"/>
	</g>
</g>
<polygon fill="#D2D3D3" stroke="#999999" stroke-miterlimit="10" points="685.304,388.672 663.051,388.672 663.051,334.508 
	638.769,334.508 638.769,328.948 668.61,328.948 668.61,383.111 685.304,383.111 "/>
<polygon fill="#D2D3D3" stroke="#999999" stroke-miterlimit="10" points="776.233,535.941 715.447,535.941 715.447,410.977 
	692.385,410.977 692.385,405.417 721.007,405.417 721.007,530.385 770.675,530.385 770.675,364.225 692.385,364.225 
	692.385,358.665 776.233,358.665 "/>
<polygon fill="#D2D3D3" stroke="#999999" stroke-miterlimit="10" points="784.165,562.138 741.644,562.138 741.644,533.163 
	747.202,533.163 747.202,556.578 781.861,556.578 794.146,544.297 798.077,548.227 "/>
<polygon fill="#D2D3D3" stroke="#999999" stroke-miterlimit="10" points="852.346,562.138 831.253,562.138 818.455,551.979 
	821.911,547.625 833.19,556.578 846.786,556.578 846.786,409.311 862.912,409.311 862.912,414.869 852.346,414.869 "/>
<polygon fill="#D2D3D3" stroke="#999999" stroke-miterlimit="10" points="899.076,573.469 810.325,573.469 810.325,552.635 
	815.883,552.635 815.883,567.91 893.519,567.91 893.519,392.92 870.809,392.92 870.809,387.361 899.076,387.361 "/>
<polygon fill="#D2D3D3" stroke="#999999" stroke-miterlimit="10" points="390.762,243.047 314.31,243.047 314.31,125.273 
	328.034,125.273 328.034,130.833 319.868,130.833 319.868,237.488 390.762,237.488 "/>
<polygon fill="#D2D3D3" stroke="#999999" stroke-miterlimit="10" points="390.762,195.194 364.879,195.194 364.879,130.833 
	353.681,130.833 353.681,125.273 370.438,125.273 370.438,189.635 390.762,189.635 "/>
<g>
	<g>
		<path fill="#444849" d="M744.467,491.086h-1.368v-3.507h-3.533v3.507h-1.373v-7.903h1.373v3.289h3.533v-3.289h1.368V491.086z"/>
		<path fill="#444849" d="M738.509,503.315v-7.903h2.334c0.698,0,1.318,0.155,1.859,0.467s0.96,0.752,1.257,1.324
			c0.296,0.571,0.444,1.227,0.444,1.965v0.396c0,0.749-0.148,1.407-0.447,1.976s-0.724,1.007-1.275,1.314
			c-0.553,0.308-1.185,0.461-1.896,0.461H738.509z M739.882,496.519v5.7h0.896c0.721,0,1.272-0.226,1.657-0.676
			c0.387-0.45,0.582-1.098,0.591-1.94v-0.438c0-0.858-0.188-1.513-0.561-1.966c-0.373-0.452-0.914-0.68-1.623-0.68H739.882
			L739.882,496.519z"/>
		<path fill="#444849" d="M744.029,508.373l-3.159,7.171h-1.384l3.152-6.846h-4.087v-1.059h5.478V508.373L744.029,508.373z"/>
	</g>
</g>
<linearGradient id="SVGID_1_" gradientUnits="userSpaceOnUse" x1="802.5352" y1="22.166" x2="802.5352" y2="-60.0226" gradientTransform="matrix(1 0 0 -1 -260.6602 280.04)">
	<stop  offset="0" style="stop-color:#D9991E"/>
	<stop  offset="0.1697" style="stop-color:#F6C41E"/>
	<stop  offset="0.5" style="stop-color:#F6EDDB"/>
	<stop  offset="0.8545" style="stop-color:#F6C41E"/>
	<stop  offset="1" style="stop-color:#D9991E"/>
</linearGradient>
<rect x="453.371" y="258.433" fill="url(#SVGID_1_)" width="177.009" height="80.715"/>
<g opacity="0.5">
	<path fill="#231F20" d="M629.38,259.433v78.715H454.371v-78.715H629.38 M630.38,258.433H453.371v80.715H630.38V258.433
		L630.38,258.433z"/>
</g>
<linearGradient id="SVGID_2_" gradientUnits="userSpaceOnUse" x1="802.5352" y1="35.395" x2="802.5352" y2="-71.2598" gradientTransform="matrix(1 0 0 -1 -260.6602 280.04)">
	<stop  offset="0" style="stop-color:#D9991E"/>
	<stop  offset="0.1697" style="stop-color:#F6C41E"/>
	<stop  offset="0.5" style="stop-color:#F6EDDB"/>
	<stop  offset="0.8545" style="stop-color:#F6C41E"/>
	<stop  offset="1" style="stop-color:#D9991E"/>
</linearGradient>
<rect x="468.239" y="246.751" fill="url(#SVGID_2_)" width="147.272" height="104.081"/>
<g opacity="0.5">
	<path fill="#231F20" d="M614.513,247.751v102.081H469.239V247.751H614.513 M615.513,246.751H468.239v104.081h147.272
		L615.513,246.751L615.513,246.751z"/>
</g>
<linearGradient id="SVGID_3_" gradientUnits="userSpaceOnUse" x1="514.6943" y1="195.1919" x2="554.4669" y2="195.1919" gradientTransform="matrix(1 0 0 -1 -260.6602 280.04)">
	<stop  offset="0" style="stop-color:#B5D9FF"/>
	<stop  offset="0.1758" style="stop-color:#DBEBFC"/>
	<stop  offset="0.3091" style="stop-color:#EDF0F2"/>
	<stop  offset="0.5" style="stop-color:#FFFFFF"/>
	<stop  offset="0.7273" style="stop-color:#E3F0F2"/>
	<stop  offset="0.9212" style="stop-color:#A8C2FD"/>
	<stop  offset="1" style="stop-color:#8FB5E6"/>
</linearGradient>
<path fill="url(#SVGID_3_)" d="M293.998,32.58c0-3.467-8.96-6.277-20.014-6.277c-11.054,0-20.013,2.81-20.013,6.277
	c0,0.01,0.004,0.019,0.004,0.028h-0.004v28.948c0,2.36,1.808,4.516,4.785,6.181V132.7c0,5.905,6.82,10.693,15.227,10.693
	c8.409,0,15.227-4.788,15.227-10.693V67.739c2.98-1.667,4.788-3.823,4.788-6.183V32.608h-0.004
	C293.994,32.599,293.998,32.59,293.998,32.58z"/>
<g opacity="0.5">
	<path fill="#231F20" d="M273.984,27.303c11.619,0,18.814,2.989,19.01,5.186v0.001v0.119l0.004,1v27.948
		c0,1.882-1.519,3.769-4.276,5.31l-0.512,0.287v0.586v64.96c0,5.345-6.382,9.693-14.227,9.693c-7.845,0-14.227-4.348-14.227-9.693
		V67.737V67.15l-0.512-0.286c-2.756-1.541-4.273-3.426-4.273-5.308V33.608h0.004v-1l-0.002-0.102
		C255.132,30.309,262.335,27.303,273.984,27.303 M273.984,26.303c-11.053,0-20.013,2.81-20.013,6.277
		c0,0.01,0.004,0.019,0.004,0.028h-0.004v28.948c0,2.36,1.808,4.516,4.785,6.181V132.7c0,5.905,6.82,10.693,15.227,10.693
		c8.409,0,15.227-4.788,15.227-10.693V67.739c2.98-1.667,4.788-3.823,4.788-6.183V32.608h-0.004c0-0.01,0.004-0.018,0.004-0.028
		C293.998,29.113,285.038,26.303,273.984,26.303L273.984,26.303z"/>
</g>
<line opacity="0.5" fill="none" stroke="#231F20" stroke-miterlimit="10" enable-background="new    " x1="259.913" y1="125.472" x2="288.056" y2="125.472"/>
<line opacity="0.5" fill="none" stroke="#231F20" stroke-miterlimit="10" enable-background="new    " x1="259.913" y1="67.684" x2="288.056" y2="67.684"/>
<line opacity="0.5" fill="none" stroke="#231F20" stroke-miterlimit="10" enable-background="new    " x1="255.134" y1="61.603" x2="292.818" y2="61.603"/>
<line opacity="0.5" fill="none" stroke="#231F20" stroke-miterlimit="10" enable-background="new    " x1="255.134" y1="33.451" x2="292.818" y2="33.451"/>
<line opacity="0.5" fill="none" stroke="#231F20" stroke-miterlimit="10" enable-background="new    " x1="273.981" y1="125.997" x2="273.981" y2="143.393"/>
<path opacity="0.5" fill="none" stroke="#231F20" stroke-miterlimit="10" enable-background="new    " d="M282.506,124.912V84.116
	h-0.07c-0.358-4.103-3.984-7.339-8.454-7.339c-4.474,0-8.101,3.237-8.457,7.339h-0.07v40.796"/>
<linearGradient id="SVGID_4_" gradientUnits="userSpaceOnUse" x1="1048.3301" y1="195.1919" x2="1088.1022" y2="195.1919" gradientTransform="matrix(1 0 0 -1 -260.6602 280.04)">
	<stop  offset="0" style="stop-color:#B5D9FF"/>
	<stop  offset="0.1758" style="stop-color:#DBEBFC"/>
	<stop  offset="0.3091" style="stop-color:#EDF0F2"/>
	<stop  offset="0.5" style="stop-color:#FFFFFF"/>
	<stop  offset="0.7273" style="stop-color:#E3F0F2"/>
	<stop  offset="0.9212" style="stop-color:#A8C2FD"/>
	<stop  offset="1" style="stop-color:#8FB5E6"/>
</linearGradient>
<path fill="url(#SVGID_4_)" d="M827.634,32.58c0-3.467-8.96-6.277-20.013-6.277c-11.054,0-20.014,2.81-20.014,6.277
	c0,0.01,0.004,0.019,0.004,0.028h-0.004v28.948c0,2.36,1.809,4.516,4.784,6.181V132.7c0,5.905,6.819,10.693,15.229,10.693
	s15.227-4.788,15.227-10.693V67.739c2.98-1.667,4.787-3.823,4.787-6.183V32.608h-0.004C827.63,32.599,827.634,32.59,827.634,32.58z"
	/>
<g opacity="0.5">
	<path fill="#231F20" d="M807.621,27.303c11.637,0,18.836,3,19.01,5.196l-0.001,0.003v0.105l0.004,1v27.948
		c0,1.883-1.519,3.769-4.274,5.31l-0.513,0.287v0.586V132.7c0,5.345-6.382,9.693-14.227,9.693s-14.229-4.348-14.229-9.693V67.737
		V67.15l-0.512-0.286c-2.756-1.542-4.272-3.427-4.272-5.308V33.608h0.004v-1l-0.002-0.097
		C788.756,30.314,795.962,27.303,807.621,27.303 M807.621,26.303c-11.054,0-20.014,2.81-20.014,6.277
		c0,0.01,0.004,0.019,0.004,0.028h-0.004v28.948c0,2.36,1.809,4.516,4.784,6.181V132.7c0,5.905,6.819,10.693,15.229,10.693
		s15.227-4.788,15.227-10.693V67.739c2.98-1.667,4.787-3.823,4.787-6.183V32.608h-0.004c0-0.01,0.004-0.018,0.004-0.028
		C827.634,29.113,818.674,26.303,807.621,26.303L807.621,26.303z"/>
</g>
<line opacity="0.5" fill="none" stroke="#231F20" stroke-miterlimit="10" enable-background="new    " x1="793.548" y1="125.472" x2="821.692" y2="125.472"/>
<line opacity="0.5" fill="none" stroke="#231F20" stroke-miterlimit="10" enable-background="new    " x1="793.548" y1="67.684" x2="821.692" y2="67.684"/>
<line opacity="0.5" fill="none" stroke="#231F20" stroke-miterlimit="10" enable-background="new    " x1="788.77" y1="61.603" x2="826.453" y2="61.603"/>
<line opacity="0.5" fill="none" stroke="#231F20" stroke-miterlimit="10" enable-background="new    " x1="788.77" y1="33.451" x2="826.453" y2="33.451"/>
<line opacity="0.5" fill="none" stroke="#231F20" stroke-miterlimit="10" enable-background="new    " x1="807.617" y1="125.997" x2="807.617" y2="143.393"/>
<path opacity="0.5" fill="none" stroke="#231F20" stroke-miterlimit="10" enable-background="new    " d="M816.143,124.912V84.116
	h-0.069c-0.358-4.103-3.983-7.339-8.453-7.339c-4.477,0-8.102,3.237-8.457,7.339h-0.071v40.796"/>
<linearGradient id="SVGID_5_" gradientUnits="userSpaceOnUse" x1="586.7852" y1="175.2319" x2="616.6992" y2="175.2319" gradientTransform="matrix(1 0 0 -1 -260.6602 280.04)">
	<stop  offset="0" style="stop-color:#918AB5"/>
	<stop  offset="0.1455" style="stop-color:#BFBAD6"/>
	<stop  offset="0.5" style="stop-color:#FFFFFF"/>
	<stop  offset="0.8424" style="stop-color:#BFBAD6"/>
	<stop  offset="1" style="stop-color:#918AB5"/>
</linearGradient>
<polygon fill="url(#SVGID_5_)" points="349.636,124.326 349.636,119.958 354.083,110.165 352.971,104.262 351.525,104.262 
	351.525,78.061 330.638,78.061 330.638,104.262 329.192,104.262 328.081,110.165 332.527,119.958 332.527,124.326 326.125,124.326 
	326.125,131.555 356.039,131.555 356.039,124.326 "/>
<polygon fill="#582A6D" points="352.971,104.291 354.083,110.195 328.081,110.195 329.193,104.291 "/>
<g opacity="0.5">
	<path fill="#231F20" d="M350.525,79.061v25.201v1h1h0.616l0.9,4.777l-4.316,9.505l-0.089,0.197v0.216v4.368v1h1h5.403v5.229
		h-27.914v-5.229h5.402h1v-1v-4.368v-0.216l-0.089-0.197l-4.316-9.505l0.9-4.777h0.616h1v-1V79.061H350.525 M351.525,78.061h-20.888
		v26.201h-1.445l-1.112,5.903l4.447,9.793v4.368h-6.402v7.229h29.914v-7.229h-6.403v-4.368l4.447-9.793l-1.112-5.903h-1.445V78.061
		L351.525,78.061z"/>
</g>
<line opacity="0.5" fill="none" stroke="#231F20" stroke-miterlimit="10" enable-background="new    " x1="333.651" y1="124.889" x2="348.506" y2="124.889"/>
<line opacity="0.5" fill="none" stroke="#231F20" stroke-miterlimit="10" enable-background="new    " x1="333.651" y1="120.268" x2="348.506" y2="120.268"/>
<linearGradient id="SVGID_6_" gradientUnits="userSpaceOnUse" x1="514.6943" y1="-219.4878" x2="554.4669" y2="-219.4878" gradientTransform="matrix(1 0 0 -1 -260.6602 280.04)">
	<stop  offset="0" style="stop-color:#B5D9FF"/>
	<stop  offset="0.1758" style="stop-color:#DBEBFC"/>
	<stop  offset="0.3091" style="stop-color:#EDF0F2"/>
	<stop  offset="0.5" style="stop-color:#FFFFFF"/>
	<stop  offset="0.7273" style="stop-color:#E3F0F2"/>
	<stop  offset="0.9212" style="stop-color:#A8C2FD"/>
	<stop  offset="1" style="stop-color:#8FB5E6"/>
</linearGradient>
<path fill="url(#SVGID_6_)" d="M293.998,447.26c0-3.467-8.96-6.276-20.014-6.276c-11.054,0-20.013,2.811-20.013,6.276
	c0,0.011,0.004,0.02,0.004,0.028h-0.004v28.947c0,2.359,1.808,4.516,4.785,6.182v64.963c0,5.905,6.82,10.692,15.227,10.692
	c8.409,0,15.227-4.787,15.227-10.692v-64.961c2.98-1.667,4.788-3.823,4.788-6.184v-28.947h-0.004
	C293.994,447.278,293.998,447.271,293.998,447.26z"/>
<g opacity="0.5">
	<path fill="#231F20" d="M273.984,441.982c11.616,0,18.812,2.987,19.009,5.185v0.001v0.12l0.004,1v27.947
		c0,1.883-1.519,3.769-4.276,5.311l-0.512,0.286v0.587v64.961c0,5.345-6.382,9.692-14.227,9.692c-7.845,0-14.227-4.349-14.227-9.692
		v-64.963v-0.586l-0.512-0.287c-2.756-1.542-4.273-3.427-4.273-5.309v-27.947h0.004v-1l-0.001-0.104
		C255.133,444.988,262.336,441.982,273.984,441.982 M273.984,440.982c-11.053,0-20.013,2.811-20.013,6.276
		c0,0.011,0.004,0.02,0.004,0.028h-0.004v28.947c0,2.359,1.808,4.516,4.785,6.182v64.963c0,5.905,6.82,10.692,15.227,10.692
		c8.409,0,15.227-4.787,15.227-10.692v-64.961c2.98-1.667,4.788-3.823,4.788-6.184v-28.947h-0.004c0-0.01,0.004-0.019,0.004-0.028
		C293.998,443.793,285.038,440.982,273.984,440.982L273.984,440.982z"/>
</g>
<line opacity="0.5" fill="none" stroke="#231F20" stroke-miterlimit="10" enable-background="new    " x1="259.913" y1="540.15" x2="288.056" y2="540.15"/>
<line opacity="0.5" fill="none" stroke="#231F20" stroke-miterlimit="10" enable-background="new    " x1="259.913" y1="482.364" x2="288.056" y2="482.364"/>
<line opacity="0.5" fill="none" stroke="#231F20" stroke-miterlimit="10" enable-background="new    " x1="255.134" y1="476.283" x2="292.818" y2="476.283"/>
<line opacity="0.5" fill="none" stroke="#231F20" stroke-miterlimit="10" enable-background="new    " x1="255.134" y1="448.131" x2="292.818" y2="448.131"/>
<line opacity="0.5" fill="none" stroke="#231F20" stroke-miterlimit="10" enable-background="new    " x1="273.981" y1="540.676" x2="273.981" y2="558.072"/>
<path opacity="0.5" fill="none" stroke="#231F20" stroke-miterlimit="10" enable-background="new    " d="M282.506,539.591v-40.795
	h-0.07c-0.358-4.104-3.984-7.34-8.454-7.34c-4.474,0-8.101,3.236-8.457,7.34h-0.07v40.795"/>
<linearGradient id="SVGID_7_" gradientUnits="userSpaceOnUse" x1="1049.4414" y1="-219.4878" x2="1089.2144" y2="-219.4878" gradientTransform="matrix(1 0 0 -1 -260.6602 280.04)">
	<stop  offset="0" style="stop-color:#B5D9FF"/>
	<stop  offset="0.1758" style="stop-color:#DBEBFC"/>
	<stop  offset="0.3091" style="stop-color:#EDF0F2"/>
	<stop  offset="0.5" style="stop-color:#FFFFFF"/>
	<stop  offset="0.7273" style="stop-color:#E3F0F2"/>
	<stop  offset="0.9212" style="stop-color:#A8C2FD"/>
	<stop  offset="1" style="stop-color:#8FB5E6"/>
</linearGradient>
<path fill="url(#SVGID_7_)" d="M828.746,447.26c0-3.467-8.961-6.276-20.016-6.276c-11.053,0-20.013,2.811-20.013,6.276
	c0,0.011,0.005,0.02,0.005,0.028h-0.005v28.947c0,2.359,1.809,4.516,4.785,6.182v64.963c0,5.905,6.819,10.692,15.227,10.692
	c8.408,0,15.229-4.787,15.229-10.692v-64.961c2.979-1.667,4.788-3.823,4.788-6.184v-28.947h-0.005
	C828.741,447.278,828.746,447.271,828.746,447.26z"/>
<g opacity="0.5">
	<path fill="#231F20" d="M808.731,441.982c11.604,0,18.796,2.981,19.01,5.178v0.128l0.005,1v27.947c0,1.883-1.52,3.769-4.276,5.311
		l-0.512,0.286v0.587v64.961c0,5.345-6.383,9.692-14.228,9.692c-7.846,0-14.228-4.349-14.228-9.692v-64.963v-0.586l-0.512-0.287
		c-2.756-1.542-4.273-3.427-4.273-5.309v-27.947h0.005v-1l-0.002-0.107C789.892,444.983,797.092,441.982,808.731,441.982
		 M808.731,440.982c-11.054,0-20.014,2.811-20.014,6.276c0,0.011,0.005,0.02,0.005,0.028h-0.005v28.947
		c0,2.359,1.809,4.516,4.785,6.182v64.963c0,5.905,6.819,10.692,15.228,10.692c8.407,0,15.228-4.787,15.228-10.692v-64.961
		c2.979-1.667,4.788-3.823,4.788-6.184v-28.947h-0.005c0-0.01,0.005-0.019,0.005-0.028
		C828.746,443.793,819.785,440.982,808.731,440.982L808.731,440.982z"/>
</g>
<line opacity="0.5" fill="none" stroke="#231F20" stroke-miterlimit="10" enable-background="new    " x1="794.661" y1="540.15" x2="822.805" y2="540.15"/>
<line opacity="0.5" fill="none" stroke="#231F20" stroke-miterlimit="10" enable-background="new    " x1="794.661" y1="482.364" x2="822.805" y2="482.364"/>
<line opacity="0.5" fill="none" stroke="#231F20" stroke-miterlimit="10" enable-background="new    " x1="789.882" y1="476.283" x2="827.565" y2="476.283"/>
<line opacity="0.5" fill="none" stroke="#231F20" stroke-miterlimit="10" enable-background="new    " x1="789.882" y1="448.131" x2="827.565" y2="448.131"/>
<line opacity="0.5" fill="none" stroke="#231F20" stroke-miterlimit="10" enable-background="new    " x1="808.729" y1="540.676" x2="808.729" y2="558.072"/>
<path opacity="0.5" fill="none" stroke="#231F20" stroke-miterlimit="10" enable-background="new    " d="M817.254,539.591v-40.795
	h-0.068c-0.358-4.104-3.984-7.34-8.455-7.34c-4.475,0-8.102,3.236-8.455,7.34h-0.072v40.795"/>
<linearGradient id="SVGID_8_" gradientUnits="userSpaceOnUse" x1="584.2578" y1="-232.8975" x2="614.1709" y2="-232.8975" gradientTransform="matrix(1 0 0 -1 -260.6602 280.04)">
	<stop  offset="0" style="stop-color:#918AB5"/>
	<stop  offset="0.1455" style="stop-color:#BFBAD6"/>
	<stop  offset="0.5" style="stop-color:#FFFFFF"/>
	<stop  offset="0.8424" style="stop-color:#BFBAD6"/>
	<stop  offset="1" style="stop-color:#918AB5"/>
</linearGradient>
<polygon fill="url(#SVGID_8_)" points="347.108,532.455 347.108,528.087 351.555,518.294 350.443,512.391 348.998,512.391 
	348.998,486.19 328.11,486.19 328.11,512.391 326.665,512.391 325.553,518.294 330,528.087 330,532.455 323.598,532.455 
	323.598,539.685 353.511,539.685 353.511,532.455 "/>
<polygon fill="#582A6D" points="350.444,512.421 351.555,518.324 325.553,518.324 326.666,512.421 "/>
<g opacity="0.5">
	<path fill="#231F20" d="M347.998,487.19v25.199v1h1h0.617l0.898,4.777l-4.315,9.506l-0.089,0.196v0.217v4.368v1h1h5.402v5.229
		h-27.914v-5.229H330h1v-1v-4.368v-0.217l-0.089-0.196l-4.317-9.506l0.9-4.777h0.616h1v-1V487.19H347.998 M348.998,486.19H328.11
		v26.199h-1.445l-1.112,5.903l4.448,9.793v4.368h-6.403v7.229h29.914v-7.229h-6.402v-4.368l4.445-9.793l-1.11-5.903h-1.446V486.19
		L348.998,486.19z"/>
</g>
<line opacity="0.5" fill="none" stroke="#231F20" stroke-miterlimit="10" enable-background="new    " x1="331.124" y1="533.019" x2="345.979" y2="533.019"/>
<line opacity="0.5" fill="none" stroke="#231F20" stroke-miterlimit="10" enable-background="new    " x1="331.124" y1="528.396" x2="345.979" y2="528.396"/>
<linearGradient id="SVGID_9_" gradientUnits="userSpaceOnUse" x1="989.9863" y1="-229.8936" x2="1019.8984" y2="-229.8936" gradientTransform="matrix(1 0 0 -1 -260.6602 280.04)">
	<stop  offset="0" style="stop-color:#918AB5"/>
	<stop  offset="0.1455" style="stop-color:#BFBAD6"/>
	<stop  offset="0.5" style="stop-color:#FFFFFF"/>
	<stop  offset="0.8424" style="stop-color:#BFBAD6"/>
	<stop  offset="1" style="stop-color:#918AB5"/>
</linearGradient>
<polygon fill="url(#SVGID_9_)" points="752.835,529.451 752.835,525.083 757.283,515.29 756.171,509.387 754.726,509.387 
	754.726,483.187 733.838,483.187 733.838,509.387 732.393,509.387 731.281,515.29 735.729,525.083 735.729,529.451 729.326,529.451 
	729.326,536.681 759.238,536.681 759.238,529.451 "/>
<polygon fill="#582A6D" points="756.171,509.417 757.283,515.32 731.281,515.32 732.393,509.417 "/>
<g opacity="0.5">
	<path fill="#231F20" d="M753.726,484.187v25.2v1h1h0.616l0.9,4.777l-4.317,9.506l-0.09,0.196v0.217v4.368v1h1h5.403v5.229h-27.912
		v-5.229h5.4h1v-1v-4.368v-0.217l-0.09-0.196l-4.314-9.506l0.898-4.777h0.616h1v-1v-25.2H753.726 M754.726,483.187h-20.888v26.2
		h-1.445l-1.11,5.903l4.445,9.793v4.368h-6.4v7.229h29.912v-7.229h-6.403v-4.368l4.448-9.793l-1.112-5.903h-1.445L754.726,483.187
		L754.726,483.187z"/>
</g>
<line opacity="0.5" fill="none" stroke="#231F20" stroke-miterlimit="10" enable-background="new    " x1="736.852" y1="530.015" x2="751.707" y2="530.015"/>
<line opacity="0.5" fill="none" stroke="#231F20" stroke-miterlimit="10" enable-background="new    " x1="736.852" y1="525.394" x2="751.707" y2="525.394"/>
<linearGradient id="SVGID_10_" gradientUnits="userSpaceOnUse" x1="988.1494" y1="176.9697" x2="1018.0645" y2="176.9697" gradientTransform="matrix(1 0 0 -1 -260.6602 280.04)">
	<stop  offset="0" style="stop-color:#918AB5"/>
	<stop  offset="0.1455" style="stop-color:#BFBAD6"/>
	<stop  offset="0.5" style="stop-color:#FFFFFF"/>
	<stop  offset="0.8424" style="stop-color:#BFBAD6"/>
	<stop  offset="1" style="stop-color:#918AB5"/>
</linearGradient>
<polygon fill="url(#SVGID_10_)" points="751.001,122.588 751.001,118.22 755.447,108.427 754.336,102.525 752.891,102.525 
	752.891,76.323 732.003,76.323 732.003,102.525 730.559,102.525 729.446,108.427 733.893,118.22 733.893,122.588 727.489,122.588 
	727.489,129.817 757.404,129.817 757.404,122.588 "/>
<polygon fill="#582A6D" points="754.336,102.554 755.447,108.458 729.446,108.458 730.559,102.554 "/>
<g opacity="0.5">
	<path fill="#231F20" d="M751.891,77.323v25.202v1h1h0.616l0.899,4.777l-4.315,9.505l-0.09,0.197v0.216v4.368v1h1h5.403v5.229
		h-27.915v-5.229h5.402h1v-1v-4.368v-0.216l-0.09-0.197l-4.314-9.505l0.899-4.777h0.615h1v-1V77.323H751.891 M752.891,76.323
		h-20.888v26.202h-1.444l-1.111,5.902l4.445,9.793v4.368h-6.402v7.229h29.915v-7.229h-6.403v-4.368l4.446-9.793l-1.111-5.902h-1.445
		L752.891,76.323L752.891,76.323z"/>
</g>
<line opacity="0.5" fill="none" stroke="#231F20" stroke-miterlimit="10" enable-background="new    " x1="735.016" y1="123.153" x2="749.87" y2="123.153"/>
<line opacity="0.5" fill="none" stroke="#231F20" stroke-miterlimit="10" enable-background="new    " x1="735.016" y1="118.531" x2="749.87" y2="118.531"/>
<g>
	<g>
		
			<line fill="none" stroke="#000000" stroke-width="0.6" stroke-miterlimit="10" x1="427.6" y1="261.995" x2="442.024" y2="261.995"/>
		<g>
			<polygon points="441.149,264.97 446.33,261.979 441.149,258.987 			"/>
		</g>
	</g>
</g>
<g>
	<g>
		
			<line fill="none" stroke="#000000" stroke-width="0.6" stroke-miterlimit="10" x1="427.6" y1="306.666" x2="442.024" y2="306.666"/>
		<g>
			<polygon points="441.149,309.641 446.33,306.648 441.149,303.658 			"/>
		</g>
	</g>
</g>
<g>
	<g>
		
			<line fill="none" stroke="#000000" stroke-width="0.6" stroke-miterlimit="10" x1="657.605" y1="294.708" x2="643.18" y2="294.708"/>
		<g>
			<polygon points="644.055,291.733 638.874,294.725 644.055,297.716 			"/>
		</g>
	</g>
</g>
<g>
	<g>
		
			<line fill="none" stroke="#000000" stroke-width="0.6" stroke-miterlimit="10" x1="657.605" y1="340.867" x2="643.18" y2="340.867"/>
		<g>
			<polygon points="644.055,337.893 638.874,340.884 644.055,343.875 			"/>
		</g>
	</g>
</g>
<polygon fill="#231F20" points="25.431,298.697 25.431,311.255 39.425,305.302 "/>
<polygon fill="#231F20" points="55.688,311.255 55.688,298.697 41.116,305.404 "/>
<g>
	<path fill="none" stroke="#231F20" stroke-width="0.5" stroke-miterlimit="10" d="M40.372,305.201"/>
</g>
<line fill="none" stroke="#231F20" stroke-width="0.25" stroke-miterlimit="10" x1="37.837" y1="305.348" x2="42.002" y2="305.348"/>
<line fill="none" stroke="#000000" stroke-miterlimit="10" x1="52.061" y1="305.348" x2="350.381" y2="305.348"/>
<line fill="none" stroke="#000000" stroke-miterlimit="10" x1="350.819" y1="242.687" x2="350.819" y2="362.324"/>
<line fill="none" stroke="#000000" stroke-miterlimit="10" x1="7.929" y1="305.201" x2="26.75" y2="305.201"/>
<linearGradient id="SVGID_11_" gradientUnits="userSpaceOnUse" x1="803.2871" y1="11.2612" x2="803.2871" y2="6.278" gradientTransform="matrix(1 0 0 -1 -260.6602 280.04)">
	<stop  offset="0" style="stop-color:#B5B5B5"/>
	<stop  offset="0.0667" style="stop-color:#FFFFFF"/>
	<stop  offset="0.2909" style="stop-color:#FFFFFF"/>
	<stop  offset="1" style="stop-color:#000000"/>
</linearGradient>
<rect x="447.008" y="268.938" fill="url(#SVGID_11_)" width="191.238" height="4.447"/>
<linearGradient id="SVGID_12_" gradientUnits="userSpaceOnUse" x1="803.2871" y1="-3.5913" x2="803.2871" y2="-8.5741" gradientTransform="matrix(1 0 0 -1 -260.6602 280.04)">
	<stop  offset="0" style="stop-color:#B5B5B5"/>
	<stop  offset="0.0667" style="stop-color:#FFFFFF"/>
	<stop  offset="0.2909" style="stop-color:#FFFFFF"/>
	<stop  offset="1" style="stop-color:#000000"/>
</linearGradient>
<rect x="447.008" y="283.79" fill="url(#SVGID_12_)" width="191.238" height="4.446"/>
<linearGradient id="SVGID_13_" gradientUnits="userSpaceOnUse" x1="803.2871" y1="-33.5156" x2="803.2871" y2="-38.4983" gradientTransform="matrix(1 0 0 -1 -260.6602 280.04)">
	<stop  offset="0" style="stop-color:#B5B5B5"/>
	<stop  offset="0.0667" style="stop-color:#FFFFFF"/>
	<stop  offset="0.2909" style="stop-color:#FFFFFF"/>
	<stop  offset="1" style="stop-color:#000000"/>
</linearGradient>
<rect x="447.008" y="313.714" fill="url(#SVGID_13_)" width="191.238" height="4.446"/>
<linearGradient id="SVGID_14_" gradientUnits="userSpaceOnUse" x1="803.2871" y1="-49.4746" x2="803.2871" y2="-54.4607" gradientTransform="matrix(1 0 0 -1 -260.6602 280.04)">
	<stop  offset="0" style="stop-color:#B5B5B5"/>
	<stop  offset="0.0667" style="stop-color:#FFFFFF"/>
	<stop  offset="0.2909" style="stop-color:#FFFFFF"/>
	<stop  offset="1" style="stop-color:#000000"/>
</linearGradient>
<rect x="447.008" y="329.673" fill="url(#SVGID_14_)" width="191.238" height="4.449"/>
<g>
	<g>
		
			<linearGradient id="SVGID_15_" gradientUnits="userSpaceOnUse" x1="394.46" y1="68.8242" x2="552.3125" y2="68.8242" gradientTransform="matrix(1 0 0 -1 -260.6602 280.04)">
			<stop  offset="0" style="stop-color:#D9991E"/>
			<stop  offset="0.1697" style="stop-color:#F6C41E"/>
			<stop  offset="0.5" style="stop-color:#F6EDDB"/>
			<stop  offset="0.8545" style="stop-color:#F6C41E"/>
			<stop  offset="1" style="stop-color:#D9991E"/>
		</linearGradient>
		<rect x="208.281" y="168.743" fill="url(#SVGID_15_)" width="12.152" height="84.945"/>
		<g opacity="0.5">
			<path fill="#231F20" d="M219.433,169.743v82.945h-10.152v-82.945H219.433 M220.433,168.743h-12.152v84.945h12.152V168.743
				L220.433,168.743z"/>
		</g>
	</g>
	<g>
		<g>
			<path fill="#444849" d="M217.172,203.137h-1.23v-3.154h-3.179v3.154h-1.235v-7.109h1.235v2.959h3.179v-2.959h1.23V203.137z"/>
			<path fill="#444849" d="M211.813,214.137v-7.109h2.1c0.628,0,1.186,0.14,1.672,0.42c0.486,0.28,0.863,0.677,1.13,1.191
				c0.267,0.514,0.4,1.104,0.4,1.768v0.356c0,0.674-0.134,1.267-0.403,1.777c-0.269,0.51-0.651,0.905-1.147,1.182
				c-0.496,0.277-1.065,0.415-1.707,0.415H211.813z M213.048,208.024v5.127h0.806c0.648,0,1.145-0.202,1.492-0.608
				c0.347-0.404,0.523-0.986,0.53-1.745v-0.396c0-0.771-0.167-1.36-0.503-1.768c-0.336-0.408-0.822-0.61-1.46-0.61H213.048z"/>
			<path fill="#444849" d="M215.26,225.137h-1.182v-5.712l-1.743,0.595v-0.996l2.773-1.021h0.151L215.26,225.137L215.26,225.137z"/>
		</g>
	</g>
</g>
<g>
	<g>
		
			<linearGradient id="SVGID_16_" gradientUnits="userSpaceOnUse" x1="576.1758" y1="68.8242" x2="734.0411" y2="68.8242" gradientTransform="matrix(1 0 0 -1 -260.6602 280.04)">
			<stop  offset="0" style="stop-color:#D9991E"/>
			<stop  offset="0.1697" style="stop-color:#F6C41E"/>
			<stop  offset="0.5" style="stop-color:#F6EDDB"/>
			<stop  offset="0.8545" style="stop-color:#F6C41E"/>
			<stop  offset="1" style="stop-color:#D9991E"/>
		</linearGradient>
		<rect x="390.002" y="168.743" fill="url(#SVGID_16_)" width="12.152" height="84.945"/>
		<g opacity="0.5">
			<path fill="#231F20" d="M401.155,169.743v82.945h-10.152v-82.945H401.155 M402.155,168.743h-12.152v84.945h12.152V168.743
				L402.155,168.743z"/>
		</g>
	</g>
	<g>
		<g>
			<path fill="#444849" d="M398.894,203.138h-1.229v-3.154h-3.179v3.154h-1.235v-7.109h1.235v2.959h3.179v-2.959h1.229V203.138z"/>
			<path fill="#444849" d="M393.535,214.138v-7.109h2.1c0.628,0,1.187,0.14,1.672,0.42c0.486,0.28,0.863,0.677,1.131,1.191
				c0.267,0.514,0.399,1.104,0.399,1.768v0.356c0,0.674-0.134,1.267-0.403,1.777c-0.269,0.51-0.65,0.905-1.146,1.182
				c-0.496,0.277-1.065,0.415-1.707,0.415H393.535z M394.771,208.024v5.127h0.806c0.647,0,1.145-0.202,1.492-0.608
				c0.347-0.404,0.522-0.986,0.529-1.745v-0.396c0-0.771-0.167-1.36-0.503-1.768c-0.336-0.408-0.821-0.61-1.46-0.61H394.771z"/>
			<path fill="#444849" d="M398.55,225.138h-4.78v-0.815l2.368-2.583c0.343-0.381,0.585-0.699,0.73-0.954
				c0.145-0.256,0.217-0.513,0.217-0.77c0-0.339-0.095-0.612-0.286-0.82c-0.19-0.208-0.447-0.313-0.769-0.313
				c-0.384,0-0.683,0.117-0.895,0.352c-0.212,0.235-0.316,0.555-0.316,0.962h-1.188c0-0.433,0.1-0.823,0.295-1.169
				c0.197-0.348,0.479-0.616,0.846-0.809c0.365-0.193,0.788-0.288,1.267-0.288c0.689,0,1.234,0.173,1.633,0.521
				c0.399,0.346,0.598,0.825,0.598,1.438c0,0.354-0.1,0.727-0.3,1.115c-0.2,0.39-0.527,0.831-0.983,1.326l-1.738,1.86h3.301
				L398.55,225.138L398.55,225.138z"/>
		</g>
	</g>
</g>
<g>
	<g>
		
			<linearGradient id="SVGID_17_" gradientUnits="userSpaceOnUse" x1="399.0728" y1="-105.6475" x2="556.9253" y2="-105.6475" gradientTransform="matrix(1 0 0 -1 -260.6602 280.04)">
			<stop  offset="0" style="stop-color:#D9991E"/>
			<stop  offset="0.1697" style="stop-color:#F6C41E"/>
			<stop  offset="0.5" style="stop-color:#F6EDDB"/>
			<stop  offset="0.8545" style="stop-color:#F6C41E"/>
			<stop  offset="1" style="stop-color:#D9991E"/>
		</linearGradient>
		<rect x="212.893" y="343.215" fill="url(#SVGID_17_)" width="12.152" height="84.945"/>
		<g opacity="0.5">
			<path fill="#231F20" d="M224.045,344.215v82.945h-10.152v-82.945H224.045 M225.045,343.215h-12.152v84.945h12.152V343.215
				L225.045,343.215z"/>
		</g>
	</g>
	<g>
		<g>
			<path fill="#444849" d="M221.784,377.611h-1.23v-3.154h-3.179v3.154h-1.235v-7.109h1.235v2.959h3.179v-2.959h1.23V377.611z"/>
			<path fill="#444849" d="M216.425,388.611v-7.109h2.1c0.628,0,1.186,0.139,1.672,0.42c0.487,0.279,0.863,0.676,1.13,1.191
				c0.267,0.514,0.4,1.104,0.4,1.768v0.355c0,0.674-0.134,1.268-0.403,1.777c-0.269,0.512-0.651,0.905-1.147,1.182
				c-0.497,0.277-1.065,0.416-1.707,0.416H216.425L216.425,388.611z M217.66,382.498v5.127h0.806c0.648,0,1.145-0.203,1.492-0.607
				c0.347-0.406,0.523-0.988,0.53-1.746v-0.396c0-0.771-0.167-1.358-0.503-1.769c-0.335-0.405-0.822-0.608-1.46-0.608
				L217.66,382.498L217.66,382.498z"/>
			<path fill="#444849" d="M216.977,396.086l0.386-3.584h3.818v1.025h-2.832l-0.195,1.699c0.329-0.189,0.7-0.283,1.113-0.283
				c0.677,0,1.204,0.217,1.58,0.647c0.376,0.435,0.564,1.017,0.564,1.748c0,0.724-0.208,1.3-0.625,1.728s-0.988,0.643-1.714,0.643
				c-0.651,0-1.19-0.186-1.619-0.555c-0.429-0.369-0.66-0.857-0.696-1.463h1.147c0.045,0.346,0.169,0.608,0.371,0.795
				c0.202,0.184,0.465,0.274,0.791,0.274c0.365,0,0.648-0.131,0.852-0.391c0.204-0.263,0.305-0.615,0.305-1.063
				c0-0.435-0.112-0.775-0.337-1.027c-0.225-0.254-0.534-0.379-0.928-0.379c-0.215,0-0.397,0.026-0.547,0.086
				c-0.15,0.057-0.313,0.168-0.488,0.334L216.977,396.086z"/>
		</g>
	</g>
</g>
<g>
	<g>
		
			<linearGradient id="SVGID_18_" gradientUnits="userSpaceOnUse" x1="576.1758" y1="-105.4307" x2="734.0411" y2="-105.4307" gradientTransform="matrix(1 0 0 -1 -260.6602 280.04)">
			<stop  offset="0" style="stop-color:#D9991E"/>
			<stop  offset="0.1697" style="stop-color:#F6C41E"/>
			<stop  offset="0.5" style="stop-color:#F6EDDB"/>
			<stop  offset="0.8545" style="stop-color:#F6C41E"/>
			<stop  offset="1" style="stop-color:#D9991E"/>
		</linearGradient>
		<rect x="390.002" y="342.998" fill="url(#SVGID_18_)" width="12.152" height="84.945"/>
		<g opacity="0.5">
			<path fill="#231F20" d="M401.155,343.998v82.945h-10.152v-82.945H401.155 M402.155,342.998h-12.152v84.945h12.152V342.998
				L402.155,342.998z"/>
		</g>
	</g>
	<g>
		<g>
			<path fill="#444849" d="M398.894,377.393h-1.229v-3.153h-3.179v3.153h-1.235v-7.108h1.235v2.959h3.179v-2.959h1.229V377.393z"/>
			<path fill="#444849" d="M393.535,388.393v-7.108h2.1c0.628,0,1.187,0.139,1.672,0.42c0.487,0.278,0.863,0.676,1.131,1.19
				c0.267,0.515,0.399,1.104,0.399,1.769v0.354c0,0.674-0.134,1.269-0.403,1.777c-0.269,0.512-0.65,0.906-1.146,1.182
				c-0.497,0.277-1.065,0.416-1.707,0.416H393.535L393.535,388.393z M394.771,382.279v5.127h0.806c0.647,0,1.145-0.203,1.492-0.607
				c0.347-0.406,0.522-0.988,0.529-1.746v-0.396c0-0.771-0.167-1.359-0.503-1.769c-0.335-0.406-0.821-0.609-1.46-0.609H394.771
				L394.771,382.279z"/>
			<path fill="#444849" d="M397.461,392.248v0.982h-0.146c-0.664,0.01-1.195,0.19-1.593,0.547c-0.396,0.354-0.633,0.856-0.708,1.508
				c0.382-0.4,0.868-0.6,1.46-0.6c0.628,0,1.124,0.221,1.487,0.664c0.363,0.44,0.544,1.014,0.544,1.713
				c0,0.723-0.212,1.309-0.637,1.756s-0.982,0.672-1.672,0.672c-0.709,0-1.285-0.262-1.727-0.787
				c-0.44-0.523-0.662-1.211-0.662-2.061v-0.404c0-1.248,0.305-2.225,0.911-2.93c0.607-0.707,1.48-1.062,2.62-1.062L397.461,392.248
				L397.461,392.248z M396.188,395.643c-0.261,0-0.499,0.072-0.716,0.219c-0.216,0.147-0.375,0.343-0.476,0.587v0.36
				c0,0.527,0.111,0.947,0.332,1.258c0.221,0.312,0.508,0.468,0.859,0.468c0.351,0,0.63-0.134,0.835-0.396
				c0.204-0.264,0.308-0.609,0.308-1.039c0-0.431-0.104-0.779-0.313-1.052C396.808,395.777,396.532,395.643,396.188,395.643z"/>
		</g>
	</g>
</g>
<g>
	<g>
		
			<linearGradient id="SVGID_19_" gradientUnits="userSpaceOnUse" x1="1048.5781" y1="-104.4482" x2="1206.4561" y2="-104.4482" gradientTransform="matrix(1 0 0 -1 -260.6602 280.04)">
			<stop  offset="0" style="stop-color:#D9991E"/>
			<stop  offset="0.1697" style="stop-color:#F6C41E"/>
			<stop  offset="0.5" style="stop-color:#F6EDDB"/>
			<stop  offset="0.8545" style="stop-color:#F6C41E"/>
			<stop  offset="1" style="stop-color:#D9991E"/>
		</linearGradient>
		<rect x="862.411" y="342.016" fill="url(#SVGID_19_)" width="12.153" height="84.945"/>
		<g opacity="0.5">
			<path fill="#231F20" d="M873.564,343.016v82.945h-10.153v-82.945H873.564 M874.564,342.016h-12.153v84.945h12.153V342.016
				L874.564,342.016z"/>
		</g>
	</g>
	<g>
		<g>
			<path fill="#444849" d="M871.303,376.411h-1.229v-3.154h-3.179v3.154h-1.235v-7.109h1.235v2.96h3.179v-2.96h1.229V376.411z"/>
			<path fill="#444849" d="M865.944,387.411v-7.109h2.1c0.628,0,1.186,0.14,1.673,0.421c0.486,0.279,0.863,0.676,1.13,1.19
				c0.268,0.515,0.4,1.104,0.4,1.769v0.355c0,0.674-0.134,1.268-0.403,1.777c-0.268,0.511-0.649,0.904-1.146,1.182
				c-0.497,0.275-1.066,0.415-1.707,0.415H865.944L865.944,387.411z M867.18,381.298v5.127h0.807c0.646,0,1.146-0.202,1.49-0.608
				c0.349-0.403,0.523-0.985,0.53-1.744v-0.396c0-0.771-0.167-1.359-0.503-1.768s-0.822-0.61-1.46-0.61H867.18L867.18,381.298z"/>
			<path fill="#444849" d="M870.91,391.961l-2.842,6.45h-1.245l2.837-6.157h-3.677v-0.952h4.927V391.961z"/>
		</g>
	</g>
</g>
<g>
	<g>
		
			<linearGradient id="SVGID_20_" gradientUnits="userSpaceOnUse" x1="1048.5781" y1="68.5439" x2="1206.4561" y2="68.5439" gradientTransform="matrix(1 0 0 -1 -260.6602 280.04)">
			<stop  offset="0" style="stop-color:#D9991E"/>
			<stop  offset="0.1697" style="stop-color:#F6C41E"/>
			<stop  offset="0.5" style="stop-color:#F6EDDB"/>
			<stop  offset="0.8545" style="stop-color:#F6C41E"/>
			<stop  offset="1" style="stop-color:#D9991E"/>
		</linearGradient>
		<rect x="862.411" y="169.023" fill="url(#SVGID_20_)" width="12.153" height="84.946"/>
		<g opacity="0.5">
			<path fill="#231F20" d="M873.564,170.023v82.946h-10.153v-82.946H873.564 M874.564,169.023h-12.153v84.946h12.153V169.023
				L874.564,169.023z"/>
		</g>
	</g>
	<g>
		<g>
			<path fill="#444849" d="M871.303,203.418h-1.229v-3.154h-3.179v3.154h-1.235v-7.109h1.235v2.959h3.179v-2.959h1.229V203.418z"/>
			<path fill="#444849" d="M865.944,214.418v-7.109h2.1c0.628,0,1.186,0.14,1.673,0.42c0.486,0.28,0.863,0.677,1.13,1.191
				c0.268,0.514,0.4,1.104,0.4,1.768v0.356c0,0.674-0.134,1.267-0.403,1.777c-0.268,0.511-0.649,0.905-1.146,1.182
				c-0.497,0.276-1.066,0.415-1.707,0.415H865.944z M867.18,208.305v5.127h0.807c0.646,0,1.146-0.202,1.49-0.608
				c0.349-0.404,0.523-0.986,0.53-1.745v-0.396c0-0.771-0.167-1.36-0.503-1.768s-0.822-0.61-1.46-0.61H867.18z"/>
			<path fill="#444849" d="M867.551,221.321h0.724c0.364-0.003,0.652-0.098,0.866-0.283c0.214-0.186,0.319-0.454,0.319-0.806
				c0-0.339-0.089-0.602-0.267-0.788c-0.178-0.188-0.447-0.281-0.813-0.281c-0.317,0-0.581,0.092-0.786,0.275
				c-0.205,0.185-0.308,0.425-0.308,0.721h-1.188c0-0.364,0.098-0.696,0.29-0.996c0.194-0.3,0.465-0.533,0.812-0.701
				c0.348-0.167,0.734-0.251,1.165-0.251c0.71,0,1.267,0.179,1.673,0.534c0.403,0.357,0.606,0.853,0.606,1.487
				c0,0.319-0.102,0.619-0.305,0.901c-0.204,0.281-0.467,0.493-0.789,0.637c0.391,0.134,0.688,0.344,0.891,0.63
				c0.204,0.286,0.307,0.628,0.307,1.025c0,0.638-0.219,1.146-0.657,1.523c-0.438,0.378-1.013,0.566-1.726,0.566
				c-0.685,0-1.243-0.183-1.681-0.547c-0.437-0.364-0.653-0.85-0.653-1.455h1.187c0,0.313,0.105,0.566,0.314,0.762
				c0.211,0.195,0.492,0.293,0.848,0.293c0.367,0,0.658-0.098,0.869-0.293s0.317-0.479,0.317-0.85c0-0.374-0.11-0.662-0.332-0.864
				c-0.223-0.202-0.551-0.303-0.986-0.303h-0.698L867.551,221.321L867.551,221.321z"/>
		</g>
	</g>
</g>
<g>
	<g>
		
			<linearGradient id="SVGID_21_" gradientUnits="userSpaceOnUse" x1="869.7842" y1="68.5439" x2="1027.624" y2="68.5439" gradientTransform="matrix(1 0 0 -1 -260.6602 280.04)">
			<stop  offset="0" style="stop-color:#D9991E"/>
			<stop  offset="0.1697" style="stop-color:#F6C41E"/>
			<stop  offset="0.5" style="stop-color:#F6EDDB"/>
			<stop  offset="0.8545" style="stop-color:#F6C41E"/>
			<stop  offset="1" style="stop-color:#D9991E"/>
		</linearGradient>
		<rect x="683.599" y="169.023" fill="url(#SVGID_21_)" width="12.15" height="84.946"/>
		<g opacity="0.5">
			<path fill="#231F20" d="M694.749,170.023v82.946h-10.15v-82.946H694.749 M695.749,169.023h-12.15v84.946h12.15V169.023
				L695.749,169.023z"/>
		</g>
	</g>
	<g>
		<g>
			<path fill="#444849" d="M692.488,203.418h-1.23v-3.154h-3.178v3.154h-1.236v-7.109h1.236v2.959h3.178v-2.959h1.23V203.418z"/>
			<path fill="#444849" d="M687.13,214.418v-7.109h2.101c0.628,0,1.186,0.14,1.673,0.42c0.485,0.28,0.862,0.677,1.13,1.191
				c0.267,0.514,0.399,1.104,0.399,1.768v0.356c0,0.674-0.134,1.267-0.402,1.777c-0.269,0.511-0.65,0.905-1.146,1.182
				c-0.497,0.276-1.065,0.415-1.707,0.415H687.13z M688.365,208.305v5.127h0.806c0.647,0,1.146-0.202,1.491-0.608
				c0.348-0.404,0.523-0.986,0.53-1.745v-0.396c0-0.771-0.167-1.36-0.503-1.768s-0.822-0.61-1.46-0.61H688.365z"/>
			<path fill="#444849" d="M691.378,222.884h0.884v0.952h-0.884v1.582h-1.187v-1.582h-3.071l-0.034-0.723l3.066-4.805h1.226V222.884
				z M688.331,222.884h1.86v-2.969l-0.089,0.156L688.331,222.884z"/>
		</g>
	</g>
</g>
<g>
	<g>
		
			<linearGradient id="SVGID_22_" gradientUnits="userSpaceOnUse" x1="869.7842" y1="-104.4487" x2="1027.624" y2="-104.4487" gradientTransform="matrix(1 0 0 -1 -260.6602 280.04)">
			<stop  offset="0" style="stop-color:#D9991E"/>
			<stop  offset="0.1697" style="stop-color:#F6C41E"/>
			<stop  offset="0.5" style="stop-color:#F6EDDB"/>
			<stop  offset="0.8545" style="stop-color:#F6C41E"/>
			<stop  offset="1" style="stop-color:#D9991E"/>
		</linearGradient>
		<rect x="683.599" y="342.016" fill="url(#SVGID_22_)" width="12.15" height="84.946"/>
		<g opacity="0.5">
			<path fill="#231F20" d="M694.749,343.016v82.946h-10.15v-82.946H694.749 M695.749,342.016h-12.15v84.946h12.15V342.016
				L695.749,342.016z"/>
		</g>
	</g>
	<g>
		<g>
			<path fill="#444849" d="M692.488,376.412h-1.23v-3.154h-3.178v3.154h-1.236v-7.109h1.236v2.959h3.178v-2.959h1.23V376.412z"/>
			<path fill="#444849" d="M687.13,387.412v-7.109h2.101c0.628,0,1.186,0.139,1.673,0.42c0.485,0.279,0.862,0.676,1.13,1.191
				c0.267,0.514,0.399,1.104,0.399,1.768v0.355c0,0.674-0.134,1.268-0.402,1.777c-0.269,0.512-0.65,0.906-1.146,1.182
				c-0.497,0.277-1.065,0.416-1.707,0.416H687.13L687.13,387.412z M688.365,381.299v5.127h0.806c0.647,0,1.146-0.203,1.491-0.609
				c0.348-0.403,0.523-0.985,0.53-1.743v-0.396c0-0.771-0.167-1.359-0.503-1.769c-0.336-0.406-0.822-0.609-1.46-0.609
				L688.365,381.299L688.365,381.299z"/>
			<path fill="#444849" d="M691.842,393.178c0,0.348-0.09,0.658-0.269,0.93c-0.179,0.272-0.423,0.486-0.732,0.644
				c0.371,0.172,0.657,0.408,0.856,0.707c0.201,0.301,0.301,0.64,0.301,1.017c0,0.625-0.211,1.121-0.635,1.485
				c-0.424,0.367-0.986,0.551-1.689,0.551c-0.707,0-1.271-0.184-1.697-0.553c-0.424-0.367-0.637-0.86-0.637-1.483
				c0-0.382,0.103-0.724,0.303-1.025c0.201-0.303,0.484-0.535,0.851-0.697c-0.308-0.156-0.548-0.371-0.726-0.643
				s-0.267-0.582-0.267-0.93c0-0.605,0.195-1.087,0.586-1.441s0.918-0.531,1.582-0.531c0.667,0,1.196,0.178,1.587,0.531
				S691.842,392.572,691.842,393.178z M690.813,396.414c0-0.352-0.104-0.635-0.315-0.852c-0.209-0.217-0.486-0.324-0.832-0.324
				s-0.621,0.107-0.828,0.322c-0.206,0.215-0.31,0.5-0.31,0.854c0,0.35,0.102,0.627,0.306,0.836
				c0.203,0.207,0.484,0.313,0.842,0.313c0.358,0,0.638-0.102,0.838-0.303C690.711,397.057,690.813,396.775,690.813,396.414z
				 M690.66,393.221c0-0.309-0.09-0.563-0.27-0.764c-0.179-0.201-0.42-0.301-0.723-0.301s-0.542,0.096-0.718,0.285
				c-0.177,0.19-0.265,0.451-0.265,0.779c0,0.325,0.09,0.584,0.267,0.776c0.178,0.19,0.418,0.287,0.721,0.287
				s0.543-0.097,0.721-0.287C690.571,393.805,690.66,393.547,690.66,393.221z"/>
		</g>
	</g>
</g>
<g>
	<g>
		<path fill="#444849" d="M335.295,92.308v2.637h-1.235v-7.109h2.721c0.794,0,1.425,0.207,1.892,0.621s0.701,0.961,0.701,1.643
			c0,0.697-0.229,1.24-0.686,1.628c-0.457,0.388-1.099,0.582-1.922,0.582h-1.471V92.308z M335.295,91.312h1.484
			c0.438,0,0.774-0.104,1.006-0.31c0.23-0.206,0.347-0.505,0.347-0.896c0-0.384-0.117-0.691-0.352-0.92
			c-0.235-0.229-0.558-0.348-0.967-0.354h-1.52L335.295,91.312L335.295,91.312z"/>
		<path fill="#444849" d="M344.463,92.357c0,0.817-0.186,1.469-0.557,1.956s-0.869,0.73-1.494,0.73c-0.58,0-1.043-0.19-1.393-0.571
			v2.505h-1.187v-7.314h1.094l0.049,0.537c0.349-0.423,0.822-0.635,1.422-0.635c0.645,0,1.149,0.24,1.516,0.72s0.549,1.146,0.549,2
			L344.463,92.357L344.463,92.357z M343.281,92.254c0-0.527-0.105-0.946-0.315-1.255s-0.51-0.464-0.9-0.464
			c-0.485,0-0.833,0.2-1.046,0.601v2.344c0.216,0.41,0.566,0.615,1.056,0.615c0.377,0,0.673-0.152,0.886-0.457
			C343.174,93.333,343.281,92.873,343.281,92.254z"/>
		<path fill="#444849" d="M348.104,94.945h-1.182v-5.711l-1.743,0.594v-0.996l2.773-1.021h0.15L348.104,94.945L348.104,94.945z"/>
	</g>
</g>
<g>
	<g>
		<path fill="#444849" d="M736.072,90.809v2.637h-1.235v-7.109h2.72c0.795,0,1.426,0.207,1.894,0.621
			c0.467,0.414,0.7,0.961,0.7,1.643c0,0.697-0.229,1.24-0.688,1.628c-0.457,0.388-1.098,0.582-1.921,0.582h-1.47V90.809z
			 M736.072,89.813h1.483c0.439,0,0.775-0.104,1.007-0.31c0.23-0.206,0.347-0.505,0.347-0.896c0-0.384-0.117-0.691-0.353-0.92
			c-0.234-0.229-0.557-0.348-0.967-0.354h-1.519L736.072,89.813L736.072,89.813z"/>
		<path fill="#444849" d="M745.24,90.858c0,0.817-0.187,1.469-0.558,1.956s-0.868,0.73-1.493,0.73c-0.58,0-1.044-0.19-1.393-0.571
			v2.505h-1.187v-7.314h1.094l0.049,0.537c0.348-0.423,0.822-0.635,1.421-0.635c0.646,0,1.149,0.24,1.518,0.72
			c0.364,0.48,0.549,1.146,0.549,2V90.858z M744.059,90.755c0-0.527-0.104-0.946-0.313-1.255c-0.211-0.309-0.511-0.464-0.901-0.464
			c-0.484,0-0.833,0.2-1.045,0.601v2.344c0.215,0.41,0.566,0.615,1.055,0.615c0.379,0,0.674-0.152,0.887-0.457
			C743.952,91.835,744.059,91.374,744.059,90.755z"/>
		<path fill="#444849" d="M750.448,93.446h-4.78V92.63l2.368-2.583c0.342-0.381,0.585-0.699,0.729-0.955
			c0.146-0.255,0.219-0.512,0.219-0.769c0-0.338-0.096-0.612-0.286-0.82c-0.189-0.208-0.446-0.313-0.77-0.313
			c-0.384,0-0.683,0.117-0.894,0.352s-0.317,0.555-0.317,0.962h-1.187c0-0.433,0.099-0.823,0.295-1.169
			c0.196-0.347,0.479-0.616,0.846-0.808c0.365-0.192,0.788-0.288,1.267-0.288c0.69,0,1.234,0.173,1.635,0.52
			c0.397,0.347,0.598,0.826,0.598,1.438c0,0.355-0.1,0.727-0.301,1.116c-0.199,0.389-0.527,0.831-0.983,1.326l-1.737,1.86h3.301
			L750.448,93.446L750.448,93.446z"/>
	</g>
</g>
<g>
	<g>
		<path fill="#444849" d="M800.352,48.864c0-0.344-0.12-0.609-0.362-0.795c-0.24-0.186-0.677-0.374-1.308-0.564
			s-1.132-0.401-1.504-0.634c-0.713-0.448-1.068-1.031-1.068-1.751c0-0.63,0.257-1.149,0.771-1.558s1.183-0.612,2.001-0.612
			c0.544,0,1.029,0.1,1.456,0.301c0.426,0.201,0.76,0.486,1.004,0.856c0.244,0.371,0.365,0.782,0.365,1.233h-1.354
			c0-0.408-0.128-0.728-0.385-0.958c-0.256-0.231-0.621-0.347-1.098-0.347c-0.443,0-0.789,0.095-1.033,0.285
			c-0.246,0.19-0.369,0.455-0.369,0.795c0,0.287,0.133,0.525,0.398,0.717c0.265,0.191,0.701,0.377,1.311,0.559
			c0.608,0.181,1.098,0.387,1.466,0.617c0.368,0.231,0.641,0.496,0.813,0.795c0.172,0.299,0.258,0.649,0.258,1.05
			c0,0.652-0.25,1.17-0.75,1.555c-0.5,0.385-1.177,0.577-2.033,0.577c-0.564,0-1.086-0.104-1.561-0.314
			c-0.475-0.209-0.842-0.499-1.105-0.867c-0.263-0.368-0.395-0.798-0.395-1.289h1.357c0,0.444,0.147,0.788,0.44,1.031
			s0.715,0.365,1.262,0.365c0.474,0,0.828-0.096,1.066-0.287C800.232,49.432,800.352,49.179,800.352,48.864z"/>
		<path fill="#444849" d="M808.896,49.863c-0.282,0.369-0.675,0.648-1.177,0.838c-0.502,0.19-1.069,0.285-1.708,0.285
			c-0.654,0-1.234-0.148-1.74-0.446c-0.505-0.298-0.894-0.722-1.169-1.276c-0.272-0.553-0.416-1.198-0.426-1.936v-0.612
			c0-1.182,0.282-2.104,0.849-2.769c0.565-0.664,1.354-0.996,2.368-0.996c0.87,0,1.562,0.216,2.073,0.647
			c0.514,0.431,0.819,1.052,0.924,1.861h-1.332c-0.149-0.942-0.695-1.413-1.638-1.413c-0.608,0-1.072,0.219-1.389,0.657
			s-0.48,1.082-0.492,1.929v0.601c0,0.844,0.179,1.5,0.535,1.967c0.354,0.467,0.852,0.7,1.483,0.7c0.695,0,1.189-0.158,1.482-0.473
			v-1.531h-1.611v-1.031h2.965v2.998H808.896z"/>
		<path fill="#444849" d="M818.178,50.878h-5.258v-0.897l2.605-2.841c0.375-0.419,0.643-0.769,0.803-1.05
			c0.159-0.281,0.238-0.563,0.238-0.846c0-0.373-0.104-0.673-0.314-0.902c-0.209-0.229-0.49-0.344-0.846-0.344
			c-0.422,0-0.75,0.129-0.982,0.387c-0.232,0.258-0.35,0.61-0.35,1.058h-1.306c0-0.476,0.108-0.905,0.324-1.286
			c0.217-0.382,0.527-0.678,0.93-0.889c0.403-0.211,0.867-0.317,1.396-0.317c0.759,0,1.357,0.19,1.797,0.572
			c0.438,0.381,0.657,0.908,0.657,1.582c0,0.39-0.11,0.799-0.331,1.227c-0.219,0.428-0.58,0.914-1.082,1.458l-1.912,2.046h3.631
			V50.878L818.178,50.878z"/>
	</g>
</g>
<g>
	<g>
		<path fill="#444849" d="M737.756,497.426v2.638h-1.234v-7.109h2.72c0.795,0,1.425,0.207,1.893,0.621
			c0.467,0.414,0.7,0.961,0.7,1.642c0,0.698-0.229,1.24-0.688,1.628c-0.456,0.389-1.098,0.582-1.921,0.582L737.756,497.426
			L737.756,497.426z M737.756,496.43h1.484c0.438,0,0.774-0.104,1.006-0.31c0.229-0.207,0.347-0.506,0.347-0.896
			c0-0.384-0.117-0.69-0.352-0.92s-0.558-0.348-0.967-0.354h-1.52L737.756,496.43L737.756,496.43z"/>
		<path fill="#444849" d="M746.924,497.475c0,0.817-0.186,1.47-0.557,1.956s-0.869,0.729-1.494,0.729
			c-0.58,0-1.043-0.19-1.393-0.571v2.505h-1.187v-7.313h1.094l0.049,0.537c0.349-0.424,0.822-0.636,1.422-0.636
			c0.645,0,1.148,0.24,1.517,0.721c0.365,0.479,0.549,1.146,0.549,2V497.475z M745.742,497.372c0-0.527-0.105-0.945-0.314-1.255
			c-0.211-0.311-0.511-0.464-0.9-0.464c-0.485,0-0.833,0.199-1.045,0.601v2.344c0.215,0.41,0.565,0.615,1.055,0.615
			c0.378,0,0.673-0.152,0.886-0.456C745.636,498.452,745.742,497.99,745.742,497.372z"/>
		<path fill="#444849" d="M751.365,497.528h0.884v0.952h-0.884v1.581h-1.188v-1.581h-3.07l-0.034-0.724l3.065-4.805h1.227V497.528z
			 M748.318,497.528h1.859v-2.97l-0.088,0.156L748.318,497.528z"/>
	</g>
</g>
<g>
	<g>
		<path fill="#444849" d="M801.879,464.02c0-0.344-0.121-0.608-0.363-0.795c-0.24-0.187-0.678-0.375-1.308-0.563
			c-0.63-0.189-1.132-0.401-1.504-0.634c-0.712-0.447-1.069-1.031-1.069-1.751c0-0.631,0.258-1.149,0.771-1.559
			c0.513-0.409,1.181-0.611,2-0.611c0.545,0,1.029,0.101,1.456,0.301c0.427,0.199,0.761,0.485,1.005,0.855
			c0.243,0.371,0.365,0.782,0.365,1.233h-1.354c0-0.408-0.129-0.729-0.385-0.959c-0.256-0.231-0.622-0.347-1.099-0.347
			c-0.443,0-0.788,0.095-1.033,0.283c-0.245,0.19-0.368,0.455-0.368,0.795c0,0.287,0.133,0.526,0.396,0.719
			c0.265,0.191,0.702,0.378,1.312,0.559c0.608,0.181,1.098,0.387,1.466,0.617c0.369,0.23,0.64,0.496,0.812,0.795
			c0.173,0.299,0.259,0.648,0.259,1.05c0,0.652-0.25,1.171-0.749,1.556c-0.5,0.386-1.179,0.577-2.033,0.577
			c-0.566,0-1.086-0.104-1.562-0.313c-0.475-0.209-0.843-0.498-1.105-0.867s-0.396-0.799-0.396-1.289h1.358
			c0,0.444,0.146,0.788,0.44,1.031s0.715,0.365,1.263,0.365c0.473,0,0.828-0.097,1.065-0.287
			C801.758,464.589,801.879,464.334,801.879,464.02z"/>
		<path fill="#444849" d="M810.424,465.018c-0.283,0.369-0.675,0.648-1.176,0.839c-0.502,0.189-1.071,0.284-1.709,0.284
			c-0.654,0-1.234-0.147-1.74-0.444c-0.504-0.298-0.894-0.724-1.168-1.276c-0.272-0.553-0.416-1.198-0.427-1.937v-0.611
			c0-1.182,0.282-2.105,0.849-2.771c0.567-0.664,1.355-0.995,2.369-0.995c0.869,0,1.562,0.216,2.072,0.646
			c0.513,0.432,0.82,1.052,0.924,1.86h-1.332c-0.15-0.941-0.695-1.412-1.638-1.412c-0.608,0-1.071,0.219-1.39,0.657
			c-0.315,0.438-0.479,1.081-0.49,1.93v0.601c0,0.846,0.178,1.5,0.533,1.968c0.356,0.467,0.853,0.699,1.485,0.699
			c0.695,0,1.189-0.156,1.482-0.473v-1.53h-1.611v-1.03h2.965L810.424,465.018L810.424,465.018z"/>
		<path fill="#444849" d="M818.861,463.246h0.973v1.047h-0.973v1.74h-1.306v-1.74h-3.379l-0.037-0.795l3.373-5.285h1.349V463.246z
			 M815.51,463.246h2.047v-3.266l-0.097,0.172L815.51,463.246z"/>
	</g>
</g>
<g>
	<g>
		<path fill="#444849" d="M332.486,500.809v2.638h-1.235v-7.109h2.72c0.794,0,1.426,0.207,1.893,0.621s0.701,0.961,0.701,1.641
			c0,0.699-0.229,1.24-0.687,1.629c-0.458,0.388-1.098,0.582-1.921,0.582L332.486,500.809L332.486,500.809z M332.486,499.813h1.483
			c0.439,0,0.775-0.104,1.006-0.312c0.231-0.207,0.348-0.506,0.348-0.896c0-0.384-0.117-0.691-0.353-0.921
			c-0.233-0.229-0.557-0.348-0.967-0.354h-1.519L332.486,499.813L332.486,499.813z"/>
		<path fill="#444849" d="M341.654,500.857c0,0.815-0.187,1.469-0.558,1.954c-0.371,0.486-0.869,0.73-1.494,0.73
			c-0.579,0-1.043-0.191-1.392-0.572v2.506h-1.187v-7.313h1.094l0.049,0.537c0.348-0.424,0.822-0.635,1.421-0.635
			c0.646,0,1.15,0.239,1.516,0.719c0.366,0.479,0.55,1.147,0.55,2L341.654,500.857L341.654,500.857z M340.473,500.754
			c0-0.527-0.104-0.945-0.314-1.254c-0.21-0.311-0.51-0.465-0.901-0.465c-0.484,0-0.833,0.201-1.045,0.602v2.345
			c0.215,0.409,0.566,0.614,1.055,0.614c0.377,0,0.674-0.151,0.887-0.457C340.366,501.834,340.473,501.373,340.473,500.754z"/>
		<path fill="#444849" d="M343.454,499.348h0.723c0.365-0.002,0.653-0.098,0.867-0.282c0.214-0.186,0.32-0.453,0.32-0.806
			c0-0.34-0.089-0.602-0.267-0.789c-0.177-0.187-0.447-0.28-0.813-0.28c-0.319,0-0.581,0.092-0.786,0.274
			c-0.205,0.187-0.308,0.426-0.308,0.721h-1.188c0-0.362,0.097-0.694,0.291-0.995c0.194-0.3,0.464-0.533,0.812-0.701
			c0.347-0.166,0.734-0.25,1.165-0.25c0.709,0,1.267,0.178,1.672,0.533c0.404,0.356,0.607,0.854,0.607,1.487
			c0,0.318-0.102,0.619-0.305,0.9s-0.466,0.494-0.789,0.637c0.391,0.135,0.688,0.344,0.891,0.631
			c0.204,0.285,0.306,0.627,0.306,1.025c0,0.637-0.22,1.145-0.657,1.522c-0.438,0.377-1.013,0.566-1.727,0.566
			c-0.684,0-1.243-0.184-1.68-0.547c-0.436-0.365-0.654-0.85-0.654-1.455h1.188c0,0.313,0.104,0.566,0.314,0.762
			c0.211,0.196,0.492,0.293,0.848,0.293c0.368,0,0.658-0.098,0.869-0.293c0.211-0.194,0.316-0.479,0.316-0.85
			c0-0.375-0.11-0.662-0.332-0.865c-0.221-0.201-0.55-0.303-0.985-0.303h-0.698L343.454,499.348L343.454,499.348z"/>
	</g>
</g>
<g>
	<g>
		<path fill="#444849" d="M267.503,463.191c0-0.345-0.121-0.607-0.363-0.796c-0.241-0.186-0.677-0.372-1.308-0.563
			s-1.131-0.402-1.504-0.635c-0.712-0.447-1.069-1.031-1.069-1.75c0-0.631,0.257-1.15,0.771-1.56c0.514-0.407,1.181-0.61,2-0.61
			c0.544,0,1.029,0.1,1.456,0.301c0.426,0.199,0.761,0.486,1.004,0.854c0.244,0.371,0.365,0.781,0.365,1.232h-1.354
			c0-0.408-0.128-0.727-0.384-0.957c-0.256-0.232-0.622-0.348-1.098-0.348c-0.444,0-0.789,0.096-1.034,0.285
			c-0.246,0.188-0.368,0.454-0.368,0.795c0,0.286,0.132,0.524,0.397,0.717c0.265,0.191,0.702,0.379,1.311,0.559
			c0.609,0.183,1.098,0.388,1.466,0.617c0.369,0.232,0.639,0.496,0.811,0.795s0.258,0.65,0.258,1.051c0,0.652-0.25,1.17-0.749,1.556
			c-0.5,0.385-1.177,0.578-2.033,0.578c-0.566,0-1.086-0.105-1.561-0.314c-0.474-0.209-0.843-0.498-1.106-0.867
			c-0.263-0.369-0.395-0.799-0.395-1.289h1.359c0,0.443,0.147,0.787,0.44,1.031c0.293,0.242,0.714,0.365,1.262,0.365
			c0.473,0,0.828-0.097,1.066-0.287C267.384,463.762,267.503,463.508,267.503,463.191z"/>
		<path fill="#444849" d="M276.049,464.191c-0.283,0.368-0.675,0.647-1.176,0.838c-0.501,0.189-1.071,0.285-1.708,0.285
			c-0.655,0-1.235-0.148-1.74-0.447c-0.505-0.297-0.894-0.721-1.168-1.275c-0.273-0.553-0.416-1.196-0.427-1.936v-0.613
			c0-1.182,0.283-2.104,0.849-2.768c0.566-0.664,1.355-0.996,2.369-0.996c0.87,0,1.561,0.215,2.073,0.646
			c0.512,0.432,0.82,1.053,0.924,1.861h-1.332c-0.15-0.941-0.696-1.412-1.638-1.412c-0.609,0-1.071,0.219-1.389,0.656
			c-0.316,0.438-0.48,1.082-0.491,1.93v0.602c0,0.845,0.178,1.5,0.534,1.968c0.356,0.467,0.852,0.698,1.485,0.698
			c0.695,0,1.189-0.155,1.482-0.473v-1.531h-1.611v-1.03h2.965L276.049,464.191L276.049,464.191z"/>
		<path fill="#444849" d="M281.581,460.699h0.795c0.401-0.002,0.719-0.107,0.953-0.312c0.235-0.205,0.352-0.5,0.352-0.887
			c0-0.371-0.098-0.66-0.292-0.867c-0.195-0.205-0.494-0.309-0.895-0.309c-0.351,0-0.639,0.102-0.865,0.303
			c-0.226,0.203-0.338,0.467-0.338,0.793h-1.305c0-0.399,0.106-0.766,0.32-1.096c0.213-0.33,0.51-0.586,0.892-0.771
			c0.381-0.184,0.808-0.274,1.281-0.274c0.781,0,1.394,0.194,1.839,0.588c0.446,0.393,0.669,0.938,0.669,1.635
			c0,0.353-0.112,0.682-0.336,0.992c-0.224,0.309-0.513,0.543-0.867,0.699c0.43,0.147,0.756,0.379,0.98,0.692
			c0.224,0.316,0.335,0.691,0.335,1.129c0,0.701-0.241,1.261-0.722,1.677c-0.482,0.414-1.115,0.623-1.899,0.623
			c-0.752,0-1.368-0.201-1.848-0.603c-0.48-0.402-0.72-0.936-0.72-1.602h1.305c0,0.344,0.115,0.623,0.347,0.838
			c0.23,0.215,0.542,0.322,0.932,0.322c0.405,0,0.723-0.107,0.956-0.322c0.233-0.215,0.349-0.525,0.349-0.935
			c0-0.411-0.122-0.729-0.365-0.95c-0.243-0.223-0.605-0.334-1.085-0.334h-0.768V460.699L281.581,460.699z"/>
	</g>
</g>
<g>
	<g>
		<path fill="#444849" d="M267.911,48.863c0-0.344-0.121-0.609-0.363-0.795c-0.241-0.186-0.677-0.374-1.308-0.564
			c-0.631-0.19-1.131-0.401-1.504-0.634c-0.712-0.448-1.069-1.031-1.069-1.751c0-0.63,0.257-1.149,0.771-1.558
			c0.514-0.408,1.181-0.612,2-0.612c0.544,0,1.029,0.1,1.456,0.301c0.427,0.201,0.761,0.486,1.004,0.856
			c0.244,0.371,0.365,0.782,0.365,1.233h-1.354c0-0.408-0.128-0.728-0.384-0.958c-0.256-0.231-0.622-0.347-1.098-0.347
			c-0.444,0-0.789,0.095-1.034,0.285c-0.246,0.19-0.368,0.455-0.368,0.795c0,0.287,0.132,0.525,0.397,0.717
			c0.265,0.191,0.702,0.377,1.311,0.559c0.609,0.181,1.098,0.387,1.466,0.617c0.369,0.231,0.639,0.496,0.811,0.795
			c0.172,0.299,0.258,0.649,0.258,1.05c0,0.652-0.25,1.17-0.749,1.555c-0.5,0.385-1.177,0.577-2.033,0.577
			c-0.566,0-1.086-0.104-1.561-0.314c-0.474-0.209-0.843-0.499-1.106-0.867c-0.263-0.369-0.395-0.798-0.395-1.289h1.359
			c0,0.444,0.147,0.788,0.44,1.031s0.714,0.365,1.262,0.365c0.473,0,0.828-0.096,1.066-0.287
			C267.792,49.432,267.911,49.178,267.911,48.863z"/>
		<path fill="#444849" d="M276.456,49.862c-0.283,0.369-0.675,0.648-1.176,0.838c-0.501,0.19-1.071,0.285-1.708,0.285
			c-0.655,0-1.235-0.148-1.74-0.446s-0.894-0.722-1.168-1.276c-0.273-0.553-0.416-1.198-0.427-1.936v-0.612
			c0-1.182,0.283-2.104,0.849-2.769c0.566-0.664,1.355-0.996,2.369-0.996c0.87,0,1.561,0.216,2.073,0.647
			c0.512,0.431,0.82,1.052,0.924,1.861h-1.332c-0.15-0.942-0.696-1.413-1.638-1.413c-0.609,0-1.071,0.219-1.389,0.657
			c-0.316,0.438-0.48,1.082-0.491,1.929v0.601c0,0.844,0.178,1.5,0.534,1.967c0.356,0.467,0.852,0.7,1.485,0.7
			c0.695,0,1.189-0.158,1.482-0.473v-1.531h-1.611v-1.031h2.965L276.456,49.862L276.456,49.862z"/>
		<path fill="#444849" d="M284.013,50.877h-1.3v-6.283l-1.917,0.654v-1.096l3.051-1.123h0.167L284.013,50.877L284.013,50.877z"/>
	</g>
</g>
<g>
	<g>
		
			<linearGradient id="SVGID_23_" gradientUnits="userSpaceOnUse" x1="95.1953" y1="-36.7354" x2="698.9709" y2="-36.7354" gradientTransform="matrix(1 0 0 -1 -260.6602 280.04)">
			<stop  offset="0" style="stop-color:#D9991E"/>
			<stop  offset="0.1697" style="stop-color:#F6C41E"/>
			<stop  offset="0.5" style="stop-color:#F6EDDB"/>
			<stop  offset="0.8545" style="stop-color:#F6C41E"/>
			<stop  offset="1" style="stop-color:#D9991E"/>
		</linearGradient>
		<path fill="url(#SVGID_23_)" d="M176.245,279.961c-1.64-9.945-17.296-17.747-36.396-17.747s-34.758,7.802-36.398,17.747h-0.164
			v65.979v1.442l36.915,23.955l36.193-23.955h0.013v-0.01v-1.463V279.96L176.245,279.961L176.245,279.961z"/>
		<g>
			<g>
				<path fill="#444849" d="M113.459,310.492v2.9H112.1v-7.82h2.992c0.874,0,1.567,0.227,2.082,0.682
					c0.514,0.455,0.771,1.059,0.771,1.807c0,0.769-0.251,1.365-0.755,1.791c-0.503,0.428-1.208,0.642-2.113,0.642L113.459,310.492
					L113.459,310.492z M113.459,309.396h1.633c0.483,0,0.852-0.113,1.106-0.342c0.254-0.228,0.381-0.556,0.381-0.984
					c0-0.424-0.129-0.762-0.387-1.014c-0.258-0.253-0.612-0.384-1.063-0.39h-1.67V309.396z"/>
				<path fill="#444849" d="M122.525,312.822c-0.383,0.451-0.927,0.678-1.633,0.678c-0.63,0-1.107-0.186-1.431-0.553
					c-0.324-0.369-0.486-0.902-0.486-1.602v-3.767h1.305v3.75c0,0.735,0.306,1.104,0.918,1.104c0.634,0,1.062-0.227,1.284-0.682
					v-4.174h1.305v5.813h-1.23L122.525,312.822z"/>
				<path fill="#444849" d="M128.16,308.773c-0.172-0.029-0.349-0.043-0.532-0.043c-0.598,0-1.001,0.229-1.208,0.688v3.975h-1.305
					v-5.813h1.246l0.032,0.65c0.315-0.504,0.752-0.758,1.311-0.758c0.186,0,0.34,0.024,0.462,0.075L128.16,308.773z"/>
				<path fill="#444849" d="M128.987,306.072c0-0.201,0.063-0.367,0.19-0.5c0.127-0.133,0.309-0.199,0.545-0.199
					c0.236,0,0.419,0.066,0.548,0.199s0.193,0.299,0.193,0.5c0,0.195-0.064,0.359-0.193,0.49s-0.312,0.196-0.548,0.196
					c-0.236,0-0.418-0.065-0.545-0.196C129.05,306.432,128.987,306.268,128.987,306.072z M130.373,313.393h-1.305v-5.813h1.305
					V313.393z"/>
				<path fill="#444849" d="M132.252,313.393v-4.846h-0.886v-0.967h0.886v-0.531c0-0.645,0.179-1.143,0.537-1.492
					c0.358-0.352,0.859-0.527,1.504-0.527c0.229,0,0.473,0.033,0.73,0.099l-0.032,1.021c-0.143-0.029-0.31-0.043-0.5-0.043
					c-0.623,0-0.935,0.319-0.935,0.961v0.516h1.182v0.967h-1.182v4.846h-1.304V313.393z"/>
				<path fill="#444849" d="M135.695,306.072c0-0.201,0.063-0.367,0.191-0.5c0.127-0.133,0.309-0.199,0.545-0.199
					c0.236,0,0.419,0.066,0.548,0.199s0.193,0.299,0.193,0.5c0,0.195-0.064,0.359-0.193,0.49s-0.312,0.196-0.548,0.196
					c-0.236,0-0.418-0.065-0.545-0.196C135.759,306.432,135.695,306.268,135.695,306.072z M137.081,313.393h-1.305v-5.813h1.305
					V313.393z"/>
				<path fill="#444849" d="M140.889,312.457c0.326,0,0.596-0.094,0.811-0.283c0.215-0.191,0.33-0.426,0.344-0.705h1.23
					c-0.014,0.361-0.127,0.699-0.338,1.014c-0.211,0.313-0.498,0.562-0.859,0.744c-0.362,0.183-0.752,0.273-1.171,0.273
					c-0.813,0-1.458-0.264-1.934-0.789c-0.476-0.527-0.714-1.254-0.714-2.182v-0.135c0-0.886,0.236-1.593,0.709-2.123
					c0.473-0.533,1.117-0.799,1.934-0.799c0.691,0,1.254,0.2,1.689,0.604c0.435,0.401,0.663,0.932,0.685,1.586h-1.23
					c-0.014-0.332-0.128-0.604-0.341-0.82c-0.213-0.215-0.484-0.321-0.813-0.321c-0.422,0-0.749,0.151-0.978,0.459
					c-0.229,0.305-0.346,0.77-0.349,1.393v0.211c0,0.629,0.114,1.1,0.341,1.408C140.131,312.303,140.459,312.457,140.889,312.457z"
					/>
				<path fill="#444849" d="M147.732,313.393c-0.057-0.11-0.107-0.293-0.15-0.543c-0.416,0.435-0.924,0.65-1.525,0.65
					c-0.583,0-1.06-0.166-1.429-0.5c-0.369-0.332-0.553-0.744-0.553-1.234c0-0.621,0.23-1.096,0.69-1.428
					c0.46-0.33,1.118-0.496,1.974-0.496h0.8v-0.381c0-0.301-0.084-0.543-0.252-0.723c-0.168-0.182-0.424-0.271-0.768-0.271
					c-0.297,0-0.541,0.074-0.73,0.223c-0.189,0.149-0.285,0.338-0.285,0.566h-1.305c0-0.318,0.105-0.617,0.317-0.895
					c0.212-0.278,0.499-0.494,0.862-0.652c0.364-0.156,0.769-0.236,1.217-0.236c0.68,0,1.223,0.172,1.627,0.514
					c0.404,0.343,0.612,0.822,0.623,1.441v2.621c0,0.523,0.073,0.941,0.22,1.252v0.092H147.732L147.732,313.393z M146.298,312.453
					c0.258,0,0.5-0.064,0.728-0.189c0.227-0.125,0.398-0.293,0.513-0.504v-1.096h-0.704c-0.483,0-0.847,0.084-1.09,0.252
					c-0.243,0.168-0.365,0.406-0.365,0.715c0,0.25,0.083,0.449,0.25,0.598C145.795,312.377,146.019,312.453,146.298,312.453z"/>
				<path fill="#444849" d="M151.846,306.168v1.412h1.026v0.967h-1.026v3.244c0,0.223,0.044,0.383,0.132,0.48
					c0.087,0.1,0.244,0.147,0.47,0.147c0.15,0,0.303-0.019,0.457-0.053v1.01c-0.297,0.082-0.583,0.123-0.859,0.123
					c-1.002,0-1.504-0.554-1.504-1.66v-3.293h-0.956v-0.967h0.956v-1.412L151.846,306.168L151.846,306.168z"/>
				<path fill="#444849" d="M153.871,306.072c0-0.201,0.063-0.367,0.191-0.5c0.127-0.133,0.309-0.199,0.545-0.199
					s0.419,0.066,0.548,0.199c0.129,0.133,0.193,0.299,0.193,0.5c0,0.195-0.064,0.359-0.193,0.49
					c-0.129,0.131-0.312,0.196-0.548,0.196s-0.418-0.065-0.545-0.196S153.871,306.268,153.871,306.072z M155.257,313.393h-1.305
					v-5.813h1.305V313.393z"/>
				<path fill="#444849" d="M156.433,310.434c0-0.57,0.113-1.084,0.338-1.539c0.226-0.457,0.542-0.809,0.951-1.053
					c0.408-0.246,0.877-0.369,1.407-0.369c0.784,0,1.421,0.254,1.909,0.758c0.489,0.506,0.753,1.174,0.792,2.011l0.005,0.305
					c0,0.574-0.11,1.086-0.33,1.537c-0.221,0.451-0.536,0.801-0.945,1.047c-0.41,0.248-0.884,0.371-1.421,0.371
					c-0.82,0-1.476-0.272-1.969-0.819c-0.492-0.546-0.738-1.273-0.738-2.183L156.433,310.434L156.433,310.434z M157.738,310.545
					c0,0.598,0.124,1.066,0.371,1.404c0.247,0.34,0.591,0.508,1.031,0.508s0.783-0.172,1.028-0.516
					c0.246-0.344,0.368-0.846,0.368-1.508c0-0.588-0.126-1.054-0.379-1.396c-0.252-0.344-0.595-0.516-1.028-0.516
					c-0.426,0-0.765,0.168-1.015,0.506C157.864,309.367,157.738,309.873,157.738,310.545z"/>
				<path fill="#444849" d="M164.151,307.58l0.038,0.672c0.43-0.52,0.994-0.779,1.692-0.779c1.21,0,1.826,0.693,1.848,2.08v3.84
					h-1.305v-3.766c0-0.369-0.08-0.643-0.239-0.818c-0.159-0.178-0.419-0.266-0.781-0.266c-0.526,0-0.918,0.236-1.176,0.713v4.137
					h-1.305v-5.813H164.151L164.151,307.58z"/>
				<path fill="#444849" d="M125.853,325.014c0-0.231-0.096-0.41-0.288-0.531c-0.191-0.123-0.509-0.229-0.953-0.321
					c-0.444-0.095-0.814-0.213-1.112-0.354c-0.652-0.314-0.978-0.771-0.978-1.369c0-0.502,0.211-0.92,0.634-1.258
					c0.422-0.337,0.959-0.505,1.611-0.505c0.695,0,1.256,0.173,1.684,0.517c0.428,0.344,0.642,0.789,0.642,1.338h-1.305
					c0-0.252-0.093-0.461-0.279-0.627c-0.186-0.166-0.433-0.25-0.741-0.25c-0.287,0-0.52,0.065-0.701,0.199
					c-0.181,0.133-0.271,0.311-0.271,0.53c0,0.201,0.084,0.357,0.252,0.47c0.168,0.108,0.508,0.223,1.021,0.334
					c0.512,0.112,0.914,0.248,1.206,0.403c0.292,0.154,0.509,0.343,0.65,0.562c0.141,0.219,0.212,0.483,0.212,0.795
					c0,0.523-0.217,0.945-0.65,1.27c-0.433,0.325-1.001,0.486-1.703,0.486c-0.476,0-0.9-0.086-1.273-0.258
					c-0.373-0.172-0.663-0.408-0.87-0.709s-0.312-0.625-0.312-0.971h1.268c0.018,0.307,0.134,0.545,0.349,0.711
					c0.215,0.166,0.5,0.25,0.854,0.25c0.344,0,0.605-0.066,0.784-0.197S125.853,325.225,125.853,325.014z"/>
				<path fill="#444849" d="M130.305,324.723l1.182-3.94h1.391l-2.31,6.69c-0.354,0.979-0.956,1.467-1.805,1.467
					c-0.19,0-0.399-0.032-0.628-0.098v-1.014l0.247,0.016c0.33,0,0.577-0.061,0.744-0.18c0.166-0.119,0.298-0.32,0.395-0.604
					l0.188-0.5l-2.041-5.779h1.407L130.305,324.723z"/>
				<path fill="#444849" d="M136.885,325.014c0-0.231-0.096-0.41-0.288-0.531c-0.191-0.123-0.509-0.229-0.953-0.321
					c-0.444-0.095-0.814-0.213-1.112-0.354c-0.652-0.314-0.978-0.771-0.978-1.369c0-0.502,0.211-0.92,0.634-1.258
					c0.422-0.337,0.959-0.505,1.611-0.505c0.695,0,1.256,0.173,1.684,0.517c0.428,0.344,0.642,0.789,0.642,1.338h-1.305
					c0-0.252-0.093-0.461-0.279-0.627s-0.433-0.25-0.741-0.25c-0.287,0-0.52,0.065-0.701,0.199c-0.181,0.133-0.271,0.311-0.271,0.53
					c0,0.201,0.084,0.357,0.252,0.47c0.168,0.108,0.508,0.223,1.021,0.334c0.512,0.112,0.914,0.248,1.206,0.403
					c0.292,0.154,0.509,0.343,0.65,0.562s0.212,0.483,0.212,0.795c0,0.523-0.217,0.945-0.65,1.27
					c-0.433,0.325-1.001,0.486-1.703,0.486c-0.476,0-0.9-0.086-1.273-0.258s-0.663-0.408-0.87-0.709s-0.312-0.625-0.312-0.971h1.268
					c0.018,0.307,0.134,0.545,0.349,0.711s0.5,0.25,0.854,0.25c0.344,0,0.605-0.066,0.784-0.197
					C136.795,325.396,136.885,325.225,136.885,325.014z"/>
				<path fill="#444849" d="M140.94,319.369v1.412h1.026v0.967h-1.026v3.244c0,0.221,0.044,0.381,0.132,0.48
					c0.087,0.098,0.244,0.147,0.47,0.147c0.15,0,0.303-0.021,0.457-0.056v1.011c-0.297,0.082-0.583,0.123-0.859,0.123
					c-1.002,0-1.504-0.554-1.504-1.658v-3.293h-0.956v-0.968h0.956v-1.411L140.94,319.369L140.94,319.369z"/>
				<path fill="#444849" d="M145.521,326.699c-0.827,0-1.498-0.26-2.011-0.781c-0.514-0.521-0.771-1.215-0.771-2.08v-0.162
					c0-0.58,0.112-1.098,0.335-1.555c0.224-0.457,0.538-0.813,0.943-1.066c0.405-0.253,0.856-0.381,1.354-0.381
					c0.792,0,1.403,0.252,1.834,0.758c0.431,0.504,0.647,1.219,0.647,2.144v0.524h-3.797c0.04,0.48,0.2,0.859,0.48,1.14
					c0.281,0.278,0.635,0.42,1.061,0.42c0.598,0,1.085-0.242,1.461-0.726l0.704,0.67c-0.233,0.349-0.543,0.617-0.932,0.81
					C146.441,326.604,146.005,326.699,145.521,326.699z M145.366,321.721c-0.358,0-0.647,0.125-0.867,0.377
					c-0.221,0.25-0.361,0.601-0.422,1.047h2.487v-0.098c-0.029-0.436-0.145-0.768-0.349-0.99
					C146.01,321.832,145.728,321.721,145.366,321.721z"/>
				<path fill="#444849" d="M150.092,320.781l0.038,0.607c0.408-0.478,0.967-0.716,1.676-0.716c0.777,0,1.309,0.298,1.595,0.892
					c0.422-0.594,1.017-0.892,1.783-0.892c0.641,0,1.118,0.179,1.432,0.531c0.313,0.354,0.473,0.877,0.48,1.567v3.818h-1.305v-3.781
					c0-0.369-0.081-0.639-0.242-0.811c-0.161-0.172-0.428-0.258-0.8-0.258c-0.297,0-0.54,0.08-0.728,0.238
					c-0.188,0.16-0.319,0.369-0.395,0.627l0.005,3.983h-1.305v-3.823c-0.018-0.685-0.367-1.025-1.047-1.025
					c-0.523,0-0.894,0.213-1.112,0.639v4.211h-1.305v-5.811h1.23V320.781z"/>
			</g>
		</g>
	</g>
	<g opacity="0.5">
		<path fill="#231F20" d="M139.849,263.214c18.292,0,33.847,7.428,35.41,16.91l0.138,0.837h0.011v64.949v0.927l-35.211,23.306
			l-35.909-23.303v-0.9v-64.978h0.012l0.138-0.837C106,270.642,121.555,263.214,139.849,263.214 M139.849,262.214
			c-19.101,0-34.758,7.802-36.398,17.747h-0.164v65.979v1.442l36.915,23.955l36.193-23.955h0.013v-0.01v-1.463V279.96h-0.163
			C174.605,270.016,158.949,262.214,139.849,262.214L139.849,262.214z"/>
	</g>
</g>
<g>
	<g>
		
			<linearGradient id="SVGID_24_" gradientUnits="userSpaceOnUse" x1="970.4014" y1="-12.3438" x2="1482.9144" y2="-12.3438" gradientTransform="matrix(1 0 0 -1 -260.6602 280.04)">
			<stop  offset="0" style="stop-color:#D9991E"/>
			<stop  offset="0.1697" style="stop-color:#F6C41E"/>
			<stop  offset="0.5" style="stop-color:#F6EDDB"/>
			<stop  offset="0.8545" style="stop-color:#F6C41E"/>
			<stop  offset="1" style="stop-color:#D9991E"/>
		</linearGradient>
		<path fill="url(#SVGID_24_)" d="M1012.813,231.747c-1.391-18.229-16.797-32.601-35.641-32.601
			c-18.848,0-34.252,14.372-35.643,32.601h-0.138v122.813h0.279c2.109,17.489,17.187,31.061,35.5,31.061
			c18.312,0,33.387-13.57,35.498-31.061h0.277V231.747H1012.813z"/>
		<g>
			<g>
				<path fill="#444849" d="M957.407,266.297v2.9h-1.358v-7.82h2.991c0.874,0,1.567,0.228,2.081,0.683s0.771,1.058,0.771,1.807
					c0,0.768-0.252,1.364-0.756,1.791c-0.502,0.427-1.207,0.64-2.112,0.64L957.407,266.297L957.407,266.297z M957.407,265.201h1.633
					c0.483,0,0.853-0.113,1.106-0.341c0.253-0.228,0.381-0.556,0.381-0.985c0-0.423-0.129-0.761-0.388-1.013
					c-0.258-0.253-0.61-0.383-1.063-0.39h-1.671L957.407,265.201L957.407,265.201z"/>
				<path fill="#444849" d="M965.996,264.578c-0.172-0.028-0.35-0.043-0.532-0.043c-0.599,0-1.001,0.229-1.208,0.688v3.975h-1.306
					v-5.813h1.246l0.031,0.649c0.314-0.504,0.752-0.757,1.312-0.757c0.186,0,0.34,0.025,0.462,0.075L965.996,264.578z"/>
				<path fill="#444849" d="M969.277,269.305c-0.827,0-1.498-0.261-2.013-0.781c-0.514-0.521-0.771-1.215-0.771-2.082v-0.16
					c0-0.58,0.111-1.099,0.335-1.556c0.225-0.456,0.539-0.812,0.942-1.065c0.404-0.255,0.855-0.382,1.354-0.382
					c0.791,0,1.402,0.253,1.834,0.757c0.432,0.506,0.647,1.22,0.647,2.144v0.526h-3.799c0.04,0.479,0.2,0.859,0.48,1.139
					c0.281,0.279,0.635,0.419,1.062,0.419c0.6,0,1.085-0.241,1.461-0.726l0.704,0.672c-0.232,0.348-0.544,0.617-0.932,0.809
					C970.197,269.209,969.761,269.305,969.277,269.305z M969.121,264.326c-0.357,0-0.646,0.125-0.867,0.375
					c-0.221,0.251-0.36,0.601-0.422,1.048h2.487v-0.097c-0.028-0.437-0.146-0.768-0.35-0.991
					C969.766,264.438,969.483,264.326,969.121,264.326z"/>
				<path fill="#444849" d="M975.879,267.618c0-0.232-0.096-0.41-0.287-0.532c-0.191-0.121-0.51-0.229-0.954-0.322
					c-0.443-0.093-0.813-0.211-1.111-0.354c-0.651-0.315-0.978-0.772-0.978-1.37c0-0.501,0.211-0.92,0.633-1.257
					c0.424-0.337,0.961-0.505,1.611-0.505c0.695,0,1.256,0.172,1.685,0.516c0.429,0.344,0.643,0.79,0.643,1.337h-1.305
					c0-0.25-0.095-0.459-0.279-0.625c-0.187-0.167-0.434-0.25-0.742-0.25c-0.286,0-0.52,0.066-0.701,0.199
					c-0.18,0.132-0.271,0.31-0.271,0.531c0,0.2,0.084,0.356,0.253,0.467c0.168,0.111,0.508,0.224,1.02,0.336
					c0.514,0.113,0.914,0.247,1.207,0.403c0.291,0.155,0.509,0.343,0.648,0.562c0.143,0.218,0.213,0.482,0.213,0.795
					c0,0.522-0.217,0.945-0.65,1.27c-0.433,0.324-1,0.486-1.701,0.486c-0.477,0-0.9-0.086-1.272-0.258
					c-0.373-0.172-0.663-0.408-0.871-0.709c-0.207-0.301-0.311-0.625-0.311-0.973h1.268c0.019,0.309,0.134,0.546,0.35,0.712
					c0.215,0.167,0.499,0.25,0.854,0.25c0.344,0,0.604-0.065,0.783-0.196C975.789,268,975.879,267.829,975.879,267.618z"/>
				<path fill="#444849" d="M981.556,267.618c0-0.232-0.096-0.41-0.288-0.532c-0.19-0.121-0.509-0.229-0.952-0.322
					c-0.443-0.093-0.814-0.211-1.111-0.354c-0.652-0.315-0.979-0.772-0.979-1.37c0-0.501,0.212-0.92,0.635-1.257
					c0.422-0.337,0.959-0.505,1.61-0.505c0.695,0,1.256,0.172,1.685,0.516c0.428,0.344,0.643,0.79,0.643,1.337h-1.306
					c0-0.25-0.094-0.459-0.279-0.625c-0.187-0.167-0.433-0.25-0.741-0.25c-0.287,0-0.52,0.066-0.701,0.199
					c-0.181,0.132-0.271,0.31-0.271,0.531c0,0.2,0.084,0.356,0.253,0.467c0.169,0.111,0.509,0.224,1.021,0.336
					c0.513,0.113,0.914,0.247,1.205,0.403c0.293,0.155,0.511,0.343,0.65,0.562c0.143,0.218,0.213,0.482,0.213,0.795
					c0,0.522-0.217,0.945-0.649,1.27c-0.434,0.325-1.001,0.486-1.703,0.486c-0.477,0-0.9-0.086-1.272-0.258
					c-0.372-0.172-0.663-0.408-0.87-0.709c-0.207-0.301-0.312-0.625-0.312-0.973h1.268c0.02,0.309,0.134,0.546,0.35,0.712
					c0.215,0.167,0.5,0.25,0.854,0.25c0.344,0,0.604-0.065,0.784-0.196C981.47,268,981.556,267.829,981.556,267.618z"/>
				<path fill="#444849" d="M987.496,268.628c-0.383,0.451-0.928,0.677-1.633,0.677c-0.631,0-1.107-0.185-1.433-0.553
					c-0.323-0.369-0.485-0.902-0.485-1.602v-3.765h1.306v3.749c0,0.737,0.306,1.106,0.919,1.106c0.633,0,1.061-0.228,1.283-0.683
					v-4.173h1.305v5.812h-1.229L987.496,268.628z"/>
				<path fill="#444849" d="M993.131,264.578c-0.172-0.028-0.35-0.043-0.532-0.043c-0.599,0-1.001,0.229-1.208,0.688v3.975h-1.306
					v-5.813h1.246l0.032,0.649c0.313-0.504,0.752-0.757,1.311-0.757c0.186,0,0.34,0.025,0.462,0.075L993.131,264.578z"/>
				<path fill="#444849" d="M996.412,269.305c-0.827,0-1.498-0.261-2.012-0.781c-0.515-0.521-0.771-1.215-0.771-2.082v-0.16
					c0-0.58,0.112-1.099,0.335-1.556c0.226-0.456,0.539-0.812,0.943-1.065c0.403-0.255,0.854-0.382,1.354-0.382
					c0.791,0,1.402,0.253,1.834,0.757c0.433,0.506,0.647,1.22,0.647,2.144v0.526h-3.798c0.04,0.479,0.199,0.859,0.479,1.139
					c0.281,0.279,0.635,0.419,1.063,0.419c0.599,0,1.085-0.241,1.461-0.726l0.704,0.672c-0.233,0.348-0.544,0.617-0.933,0.809
					C997.332,269.209,996.896,269.305,996.412,269.305z M996.256,264.326c-0.356,0-0.646,0.125-0.867,0.375
					c-0.221,0.251-0.359,0.601-0.422,1.048h2.487v-0.097c-0.028-0.437-0.146-0.768-0.349-0.991
					C996.9,264.438,996.618,264.326,996.256,264.326z"/>
				<path fill="#444849" d="M974.117,280.287c0-0.362,0.098-0.694,0.295-0.997c0.197-0.303,0.586-0.661,1.166-1.077
					c-0.305-0.383-0.519-0.709-0.637-0.977c-0.12-0.27-0.181-0.528-0.181-0.779c0-0.612,0.187-1.097,0.56-1.453
					c0.372-0.356,0.873-0.534,1.504-0.534c0.567,0,1.035,0.167,1.397,0.502c0.363,0.335,0.545,0.749,0.545,1.243
					c0,0.326-0.081,0.626-0.245,0.9c-0.165,0.273-0.437,0.547-0.813,0.818l-0.532,0.387l1.511,1.783
					c0.219-0.43,0.327-0.907,0.327-1.434h1.134c0,0.963-0.227,1.753-0.678,2.369l1.149,1.358h-1.515l-0.44-0.521
					c-0.559,0.418-1.225,0.628-1.998,0.628c-0.772,0-1.393-0.205-1.854-0.615C974.349,281.479,974.117,280.945,974.117,280.287z
					 M976.705,281.463c0.441,0,0.853-0.146,1.236-0.44l-1.709-2.015l-0.166,0.119c-0.431,0.325-0.646,0.697-0.646,1.117
					c0,0.361,0.116,0.654,0.351,0.881C976.004,281.35,976.315,281.463,976.705,281.463z M975.986,276.425
					c0,0.301,0.184,0.679,0.553,1.134l0.596-0.408l0.167-0.135c0.223-0.197,0.333-0.449,0.333-0.758
					c0-0.203-0.077-0.378-0.229-0.523c-0.154-0.145-0.351-0.217-0.586-0.217c-0.254,0-0.457,0.086-0.607,0.258
					C976.063,275.948,975.986,276.163,975.986,276.425z"/>
				<path fill="#444849" d="M956.554,295.598H955.2v-7.82h1.354V295.598z"/>
				<path fill="#444849" d="M959.309,289.786l0.038,0.671c0.431-0.519,0.993-0.778,1.692-0.778c1.21,0,1.826,0.692,1.848,2.079v3.84
					h-1.306v-3.766c0-0.368-0.079-0.642-0.239-0.818c-0.159-0.178-0.42-0.266-0.781-0.266c-0.525,0-0.918,0.237-1.176,0.714v4.136
					h-1.306v-5.812H959.309L959.309,289.786z"/>
				<path fill="#444849" d="M966.265,293.943l1.229-4.157h1.349l-2.015,5.812h-1.133l-2.03-5.812h1.354L966.265,293.943z"/>
				<path fill="#444849" d="M972.146,295.705c-0.828,0-1.498-0.261-2.013-0.781c-0.514-0.521-0.771-1.215-0.771-2.082v-0.16
					c0-0.58,0.111-1.099,0.336-1.556c0.225-0.456,0.538-0.812,0.942-1.065c0.404-0.255,0.855-0.382,1.354-0.382
					c0.791,0,1.402,0.253,1.834,0.757c0.432,0.506,0.646,1.22,0.646,2.144v0.526h-3.797c0.039,0.479,0.199,0.859,0.48,1.139
					c0.28,0.28,0.635,0.419,1.061,0.419c0.6,0,1.086-0.241,1.461-0.726l0.704,0.672c-0.232,0.348-0.544,0.617-0.933,0.809
					C973.065,295.609,972.629,295.705,972.146,295.705z M971.99,290.727c-0.357,0-0.646,0.125-0.867,0.375
					c-0.221,0.251-0.361,0.601-0.422,1.048h2.486v-0.097c-0.028-0.437-0.146-0.768-0.35-0.991S972.352,290.727,971.99,290.727z"/>
				<path fill="#444849" d="M976.701,289.786l0.037,0.671c0.43-0.519,0.994-0.778,1.69-0.778c1.211,0,1.826,0.692,1.849,2.079v3.84
					h-1.306v-3.766c0-0.368-0.08-0.642-0.237-0.818c-0.16-0.178-0.42-0.266-0.782-0.266c-0.526,0-0.919,0.237-1.177,0.714v4.136
					h-1.306v-5.812H976.701L976.701,289.786z"/>
				<path fill="#444849" d="M983.242,288.373v1.413h1.025v0.967h-1.025v3.244c0,0.222,0.045,0.382,0.133,0.48
					c0.087,0.099,0.244,0.147,0.469,0.147c0.15,0,0.303-0.018,0.457-0.053v1.01c-0.297,0.082-0.584,0.123-0.858,0.123
					c-1.003,0-1.505-0.553-1.505-1.66v-3.292h-0.955v-0.967h0.955v-1.413L983.242,288.373L983.242,288.373z"/>
				<path fill="#444849" d="M984.859,292.639c0-0.57,0.112-1.083,0.338-1.539c0.227-0.457,0.543-0.808,0.951-1.053
					c0.407-0.245,0.877-0.368,1.406-0.368c0.784,0,1.421,0.253,1.909,0.757c0.488,0.506,0.753,1.175,0.793,2.01l0.005,0.306
					c0,0.573-0.109,1.085-0.331,1.536c-0.219,0.451-0.534,0.801-0.944,1.047c-0.409,0.248-0.883,0.371-1.42,0.371
					c-0.82,0-1.478-0.273-1.97-0.819c-0.491-0.546-0.737-1.273-0.737-2.183V292.639L984.859,292.639z M986.164,292.751
					c0,0.598,0.124,1.066,0.371,1.404c0.247,0.339,0.591,0.508,1.031,0.508c0.439,0,0.782-0.172,1.028-0.516
					c0.244-0.344,0.367-0.847,0.367-1.509c0-0.588-0.127-1.053-0.379-1.396c-0.252-0.343-0.596-0.516-1.028-0.516
					c-0.427,0-0.765,0.169-1.015,0.507C986.29,291.572,986.164,292.078,986.164,292.751z"/>
				<path fill="#444849" d="M994.409,290.979c-0.172-0.028-0.35-0.043-0.532-0.043c-0.598,0-1,0.229-1.208,0.688v3.975h-1.306
					v-5.812h1.246l0.032,0.649c0.314-0.504,0.752-0.757,1.312-0.757c0.186,0,0.34,0.025,0.461,0.075L994.409,290.979z"/>
				<path fill="#444849" d="M997.363,293.729l1.182-3.942h1.391l-2.309,6.692c-0.355,0.978-0.957,1.467-1.805,1.467
					c-0.19,0-0.4-0.033-0.629-0.098v-1.015l0.246,0.017c0.329,0,0.577-0.061,0.743-0.181c0.168-0.119,0.3-0.32,0.396-0.604
					l0.188-0.499l-2.041-5.78h1.406L997.363,293.729z"/>
				<path fill="#444849" d="M962.956,307.861c0.325,0,0.597-0.094,0.812-0.283c0.216-0.189,0.329-0.426,0.345-0.704h1.229
					c-0.015,0.36-0.127,0.699-0.339,1.013c-0.211,0.313-0.497,0.562-0.859,0.744c-0.36,0.182-0.752,0.273-1.17,0.273
					c-0.813,0-1.458-0.264-1.934-0.789c-0.477-0.527-0.715-1.254-0.715-2.182V305.8c0-0.885,0.235-1.593,0.709-2.124
					c0.473-0.531,1.117-0.798,1.934-0.798c0.691,0,1.254,0.201,1.689,0.604c0.436,0.401,0.663,0.932,0.685,1.586h-1.229
					c-0.016-0.332-0.129-0.605-0.343-0.82c-0.213-0.215-0.483-0.322-0.813-0.322c-0.423,0-0.749,0.152-0.979,0.459
					c-0.229,0.307-0.346,0.771-0.35,1.395v0.21c0,0.63,0.114,1.1,0.342,1.409C962.197,307.707,962.526,307.861,962.956,307.861z"/>
				<path fill="#444849" d="M966.082,305.838c0-0.57,0.113-1.083,0.338-1.539c0.227-0.457,0.543-0.808,0.951-1.053
					s0.877-0.368,1.407-0.368c0.783,0,1.421,0.253,1.908,0.757c0.488,0.506,0.753,1.176,0.794,2.01l0.005,0.307
					c0,0.572-0.11,1.085-0.331,1.535c-0.22,0.451-0.535,0.802-0.945,1.048c-0.409,0.248-0.883,0.37-1.42,0.37
					c-0.82,0-1.477-0.272-1.969-0.818s-0.738-1.273-0.738-2.184V305.838L966.082,305.838z M967.387,305.95
					c0,0.598,0.124,1.065,0.371,1.403c0.247,0.34,0.591,0.508,1.031,0.508c0.439,0,0.783-0.172,1.029-0.516
					c0.244-0.344,0.366-0.847,0.366-1.509c0-0.588-0.127-1.053-0.379-1.396c-0.252-0.344-0.596-0.517-1.027-0.517
					c-0.428,0-0.766,0.169-1.016,0.507C967.513,304.771,967.387,305.277,967.387,305.95z"/>
				<path fill="#444849" d="M973.801,302.984l0.037,0.672c0.43-0.52,0.994-0.778,1.691-0.778c1.211,0,1.826,0.692,1.848,2.079v3.84
					h-1.305v-3.766c0-0.368-0.08-0.643-0.238-0.818c-0.16-0.178-0.42-0.266-0.782-0.266c-0.525,0-0.919,0.236-1.177,0.714v4.136
					h-1.305v-5.813H973.801L973.801,302.984z"/>
				<path fill="#444849" d="M980.342,301.572v1.412h1.026v0.968h-1.026v3.243c0,0.223,0.045,0.383,0.133,0.48
					c0.087,0.1,0.244,0.147,0.47,0.147c0.149,0,0.303-0.019,0.457-0.054v1.01c-0.298,0.082-0.584,0.123-0.859,0.123
					c-1.002,0-1.504-0.553-1.504-1.659v-3.292h-0.956v-0.967h0.956v-1.414h1.304V301.572z"/>
				<path fill="#444849" d="M985.407,304.178c-0.172-0.027-0.35-0.043-0.532-0.043c-0.598,0-1,0.229-1.208,0.688v3.975h-1.306
					v-5.812h1.246l0.032,0.648c0.314-0.504,0.752-0.757,1.312-0.757c0.186,0,0.34,0.024,0.461,0.075L985.407,304.178z"/>
				<path fill="#444849" d="M985.794,305.838c0-0.57,0.112-1.083,0.339-1.539c0.226-0.457,0.542-0.808,0.95-1.053
					s0.878-0.368,1.407-0.368c0.784,0,1.42,0.253,1.91,0.757c0.487,0.506,0.752,1.176,0.791,2.01l0.006,0.307
					c0,0.572-0.109,1.085-0.33,1.535c-0.222,0.451-0.535,0.802-0.945,1.048c-0.41,0.248-0.884,0.37-1.421,0.37
					c-0.819,0-1.476-0.272-1.968-0.818c-0.493-0.546-0.739-1.273-0.739-2.184V305.838L985.794,305.838z M987.1,305.95
					c0,0.598,0.123,1.065,0.37,1.403c0.247,0.34,0.591,0.508,1.031,0.508s0.783-0.172,1.028-0.516
					c0.246-0.344,0.367-0.847,0.367-1.509c0-0.588-0.125-1.053-0.378-1.396c-0.254-0.344-0.596-0.517-1.028-0.517
					c-0.426,0-0.766,0.169-1.017,0.507C987.225,304.771,987.1,305.277,987.1,305.95z"/>
				<path fill="#444849" d="M993.689,308.797h-1.306v-8.25h1.306V308.797z"/>
				<path fill="#444849" d="M963.176,320.418c0-0.232-0.096-0.41-0.287-0.531c-0.19-0.121-0.51-0.229-0.953-0.322
					s-0.813-0.211-1.111-0.354c-0.651-0.313-0.979-0.771-0.979-1.369c0-0.501,0.211-0.92,0.635-1.257
					c0.423-0.337,0.96-0.505,1.61-0.505c0.694,0,1.256,0.172,1.686,0.517c0.428,0.344,0.641,0.788,0.641,1.338h-1.305
					c0-0.252-0.095-0.461-0.279-0.627c-0.186-0.166-0.434-0.25-0.741-0.25c-0.286,0-0.521,0.066-0.7,0.198
					c-0.182,0.134-0.271,0.312-0.271,0.532c0,0.199,0.084,0.355,0.252,0.468c0.168,0.11,0.508,0.224,1.021,0.335
					c0.514,0.113,0.914,0.247,1.206,0.403c0.291,0.155,0.509,0.343,0.65,0.562c0.141,0.219,0.211,0.483,0.211,0.795
					c0,0.522-0.217,0.945-0.648,1.271c-0.433,0.325-1.002,0.485-1.702,0.485c-0.478,0-0.9-0.086-1.273-0.258
					s-0.662-0.408-0.87-0.709s-0.312-0.625-0.312-0.972h1.268c0.019,0.308,0.135,0.545,0.351,0.711
					c0.215,0.167,0.498,0.25,0.854,0.25c0.344,0,0.605-0.065,0.784-0.196S963.176,320.629,963.176,320.418z"/>
				<path fill="#444849" d="M967.629,320.128l1.182-3.942h1.392l-2.311,6.692c-0.354,0.978-0.956,1.466-1.805,1.466
					c-0.189,0-0.398-0.031-0.628-0.097v-1.015l0.246,0.016c0.33,0,0.578-0.061,0.744-0.18s0.299-0.32,0.395-0.604l0.188-0.499
					l-2.041-5.779h1.407L967.629,320.128z"/>
				<path fill="#444849" d="M974.208,320.418c0-0.232-0.096-0.41-0.288-0.531c-0.191-0.121-0.509-0.229-0.953-0.322
					c-0.442-0.094-0.813-0.211-1.111-0.354c-0.651-0.313-0.978-0.771-0.978-1.369c0-0.501,0.212-0.92,0.634-1.257
					s0.959-0.505,1.611-0.505c0.695,0,1.256,0.172,1.684,0.517c0.429,0.344,0.644,0.788,0.644,1.338h-1.307
					c0-0.252-0.093-0.461-0.278-0.627c-0.188-0.166-0.434-0.25-0.741-0.25c-0.287,0-0.521,0.066-0.701,0.198
					c-0.181,0.134-0.271,0.312-0.271,0.532c0,0.199,0.084,0.355,0.253,0.468c0.169,0.11,0.509,0.224,1.021,0.335
					c0.512,0.113,0.914,0.247,1.205,0.403c0.293,0.155,0.51,0.343,0.65,0.562c0.142,0.219,0.213,0.483,0.213,0.795
					c0,0.522-0.217,0.945-0.65,1.271c-0.433,0.325-1.001,0.485-1.703,0.485c-0.476,0-0.899-0.086-1.271-0.258
					s-0.663-0.408-0.87-0.709s-0.313-0.625-0.313-0.972h1.269c0.019,0.308,0.134,0.545,0.349,0.711c0.215,0.167,0.5,0.25,0.854,0.25
					c0.344,0,0.604-0.065,0.784-0.196C974.122,320.801,974.208,320.629,974.208,320.418z"/>
				<path fill="#444849" d="M978.264,314.773v1.412h1.025v0.967h-1.025v3.244c0,0.222,0.043,0.381,0.131,0.479
					s0.244,0.147,0.472,0.147c0.149,0,0.303-0.019,0.456-0.055v1.01c-0.298,0.084-0.583,0.125-0.859,0.125
					c-1.003,0-1.504-0.555-1.504-1.66v-3.293h-0.956v-0.967h0.956v-1.412h1.305V314.773z"/>
				<path fill="#444849" d="M982.845,322.104c-0.827,0-1.497-0.261-2.011-0.78c-0.515-0.521-0.771-1.216-0.771-2.081v-0.162
					c0-0.58,0.111-1.098,0.337-1.555c0.224-0.457,0.536-0.813,0.941-1.066s0.856-0.381,1.354-0.381c0.792,0,1.402,0.252,1.835,0.758
					c0.431,0.504,0.646,1.219,0.646,2.143v0.526h-3.797c0.039,0.479,0.199,0.859,0.48,1.14c0.28,0.279,0.635,0.418,1.061,0.418
					c0.598,0,1.085-0.242,1.461-0.725l0.703,0.671c-0.232,0.349-0.543,0.617-0.932,0.81
					C983.763,322.01,983.328,322.104,982.845,322.104z M982.689,317.125c-0.358,0-0.648,0.126-0.867,0.377
					c-0.222,0.25-0.361,0.6-0.422,1.047h2.485v-0.097c-0.028-0.437-0.145-0.769-0.35-0.991
					C983.334,317.236,983.051,317.125,982.689,317.125z"/>
				<path fill="#444849" d="M987.416,316.186l0.037,0.607c0.408-0.477,0.967-0.715,1.676-0.715c0.777,0,1.31,0.297,1.596,0.893
					c0.423-0.596,1.018-0.893,1.783-0.893c0.642,0,1.117,0.178,1.433,0.531c0.313,0.354,0.473,0.877,0.479,1.567v3.819h-1.306
					v-3.781c0-0.369-0.081-0.64-0.241-0.813c-0.162-0.172-0.428-0.258-0.801-0.258c-0.297,0-0.539,0.08-0.729,0.239
					c-0.188,0.159-0.317,0.368-0.395,0.626l0.006,3.985h-1.306v-3.824c-0.019-0.685-0.366-1.026-1.048-1.026
					c-0.521,0-0.894,0.215-1.111,0.641v4.211h-1.306v-5.813h1.232V316.186z"/>
			</g>
		</g>
	</g>
	<g opacity="0.5">
		<path fill="#231F20" d="M977.174,200.146c18.07,0,33.287,13.914,34.644,31.677l0.069,0.924h0.063v120.813h-0.164l-0.106,0.879
			c-2.077,17.207-16.911,30.183-34.505,30.183c-17.598,0-32.434-12.976-34.508-30.183l-0.106-0.879h-0.166V232.747h0.063l0.07-0.924
			C943.883,214.06,959.101,200.146,977.174,200.146 M977.174,199.146c-18.849,0-34.253,14.372-35.644,32.601h-0.138v122.813h0.279
			c2.109,17.49,17.188,31.062,35.501,31.062c18.312,0,33.386-13.57,35.498-31.062h0.277V231.747h-0.137
			C1011.423,213.518,996.017,199.146,977.174,199.146L977.174,199.146z"/>
	</g>
</g>
</svg>
