<?xml version="1.0" encoding="utf-8"?>
<!-- Generator: Adobe Illustrator 15.0.0, SVG Export Plug-In . SVG Version: 6.00 Build 0)  -->
<!DOCTYPE svg PUBLIC "-//W3C//DTD SVG 1.1//EN" "http://www.w3.org/Graphics/SVG/1.1/DTD/svg11.dtd">
<svg version="1.1" id="Layer_1" xmlns="http://www.w3.org/2000/svg" xmlns:xlink="http://www.w3.org/1999/xlink" x="0px" y="0px"
	 width="74px" height="110px" viewBox="0 0 74 110" enable-background="new 0 0 74 110" xml:space="preserve">
<linearGradient id="SVGID_1_" gradientUnits="userSpaceOnUse" x1="-0.1338" y1="55" x2="75.8309" y2="55">
	<stop  offset="0" style="stop-color:#FF5E00"/>
	<stop  offset="0.5" style="stop-color:#FFBF00"/>
	<stop  offset="1" style="stop-color:#FF5E00"/>
</linearGradient>
<path fill="url(#SVGID_1_)" d="M73.509,18.186C71.869,8.24,56.213,0.438,37.112,0.438S2.354,8.24,0.715,18.186H0.551v65.978v1.443
	l36.914,23.955l36.193-23.955h0.014v-0.01v-1.463V18.186H73.509z"/>
<g>
	<g>
		<path fill="#FFFFFF" d="M10.723,48.716v2.9H9.363v-7.82h2.992c0.873,0,1.567,0.227,2.082,0.682c0.514,0.455,0.77,1.059,0.77,1.807
			c0,0.768-0.251,1.365-0.754,1.791c-0.504,0.428-1.208,0.641-2.113,0.641H10.723z M10.723,47.62h1.633
			c0.483,0,0.852-0.113,1.106-0.342c0.255-0.227,0.382-0.555,0.382-0.984c0-0.424-0.129-0.762-0.387-1.014s-0.613-0.383-1.064-0.389
			h-1.67V47.62z"/>
		<path fill="#FFFFFF" d="M19.789,51.046c-0.383,0.451-0.928,0.678-1.633,0.678c-0.631,0-1.107-0.186-1.432-0.553
			c-0.324-0.369-0.486-0.902-0.486-1.602v-3.766h1.306v3.75c0,0.736,0.306,1.105,0.919,1.105c0.633,0,1.061-0.227,1.283-0.682
			v-4.174h1.305v5.813h-1.229L19.789,51.046z"/>
		<path fill="#FFFFFF" d="M25.424,46.997c-0.172-0.029-0.35-0.043-0.532-0.043c-0.599,0-1.001,0.229-1.208,0.688v3.975h-1.306
			v-5.813h1.246l0.032,0.65c0.314-0.504,0.752-0.758,1.311-0.758c0.186,0,0.34,0.025,0.462,0.076L25.424,46.997z"/>
		<path fill="#FFFFFF" d="M26.25,44.296c0-0.201,0.064-0.367,0.191-0.5s0.309-0.199,0.545-0.199s0.419,0.066,0.548,0.199
			s0.193,0.299,0.193,0.5c0,0.195-0.064,0.359-0.193,0.49s-0.312,0.197-0.548,0.197s-0.418-0.066-0.545-0.197
			S26.25,44.491,26.25,44.296z M27.637,51.616h-1.306v-5.813h1.306V51.616z"/>
		<path fill="#FFFFFF" d="M29.516,51.616v-4.846H28.63v-0.967h0.886v-0.531c0-0.645,0.18-1.143,0.537-1.492
			c0.358-0.352,0.859-0.527,1.504-0.527c0.229,0,0.473,0.033,0.73,0.098l-0.031,1.02c-0.144-0.029-0.311-0.043-0.5-0.043
			c-0.623,0-0.935,0.32-0.935,0.961v0.516h1.182v0.967h-1.182v4.846H29.516z"/>
		<path fill="#FFFFFF" d="M32.959,44.296c0-0.201,0.063-0.367,0.191-0.5c0.127-0.133,0.309-0.199,0.545-0.199
			s0.418,0.066,0.547,0.199s0.193,0.299,0.193,0.5c0,0.195-0.064,0.359-0.193,0.49s-0.311,0.197-0.547,0.197
			s-0.418-0.066-0.545-0.197C33.022,44.655,32.959,44.491,32.959,44.296z M34.345,51.616h-1.306v-5.813h1.306V51.616z"/>
		<path fill="#FFFFFF" d="M38.152,50.681c0.326,0,0.597-0.094,0.812-0.283c0.215-0.191,0.329-0.426,0.344-0.705h1.229
			c-0.014,0.361-0.127,0.699-0.338,1.014c-0.211,0.313-0.498,0.561-0.859,0.744c-0.361,0.182-0.752,0.273-1.171,0.273
			c-0.813,0-1.458-0.264-1.934-0.789c-0.476-0.527-0.714-1.254-0.714-2.182v-0.135c0-0.885,0.236-1.592,0.709-2.123
			c0.473-0.533,1.117-0.799,1.934-0.799c0.69,0,1.254,0.201,1.689,0.605c0.434,0.402,0.662,0.932,0.684,1.586h-1.229
			c-0.015-0.332-0.128-0.605-0.341-0.82s-0.484-0.322-0.814-0.322c-0.422,0-0.748,0.152-0.977,0.459
			c-0.229,0.305-0.346,0.77-0.35,1.393v0.211c0,0.629,0.113,1.1,0.342,1.408C37.395,50.526,37.723,50.681,38.152,50.681z"/>
		<path fill="#FFFFFF" d="M44.996,51.616c-0.058-0.111-0.107-0.293-0.15-0.543c-0.416,0.434-0.924,0.65-1.525,0.65
			c-0.584,0-1.061-0.166-1.43-0.5c-0.368-0.332-0.553-0.744-0.553-1.234c0-0.621,0.23-1.096,0.689-1.428
			c0.461-0.33,1.119-0.496,1.975-0.496h0.801v-0.381c0-0.301-0.084-0.543-0.253-0.723c-0.169-0.182-0.425-0.271-0.769-0.271
			c-0.297,0-0.54,0.074-0.73,0.223c-0.189,0.148-0.284,0.338-0.284,0.566h-1.306c0-0.318,0.105-0.617,0.317-0.895
			s0.499-0.494,0.862-0.652c0.363-0.156,0.769-0.236,1.217-0.236c0.68,0,1.223,0.172,1.627,0.514s0.612,0.822,0.623,1.441v2.621
			c0,0.523,0.073,0.941,0.221,1.252v0.092H44.996z M43.562,50.677c0.258,0,0.501-0.064,0.728-0.189
			c0.228-0.125,0.398-0.293,0.514-0.504v-1.096h-0.704c-0.483,0-0.847,0.084-1.091,0.252c-0.243,0.168-0.365,0.406-0.365,0.715
			c0,0.25,0.084,0.449,0.25,0.598S43.282,50.677,43.562,50.677z"/>
		<path fill="#FFFFFF" d="M49.109,44.392v1.412h1.026v0.967h-1.026v3.244c0,0.223,0.045,0.383,0.133,0.48
			c0.087,0.1,0.244,0.148,0.469,0.148c0.15,0,0.303-0.018,0.457-0.053v1.01c-0.297,0.082-0.584,0.123-0.859,0.123
			c-1.002,0-1.504-0.553-1.504-1.66v-3.293h-0.956v-0.967h0.956v-1.412H49.109z"/>
		<path fill="#FFFFFF" d="M51.135,44.296c0-0.201,0.063-0.367,0.191-0.5c0.127-0.133,0.309-0.199,0.545-0.199
			s0.418,0.066,0.547,0.199s0.193,0.299,0.193,0.5c0,0.195-0.064,0.359-0.193,0.49s-0.311,0.197-0.547,0.197
			s-0.418-0.066-0.545-0.197C51.198,44.655,51.135,44.491,51.135,44.296z M52.521,51.616h-1.306v-5.813h1.306V51.616z"/>
		<path fill="#FFFFFF" d="M53.697,48.657c0-0.57,0.112-1.084,0.338-1.539c0.226-0.457,0.543-0.809,0.951-1.053
			c0.408-0.246,0.877-0.369,1.406-0.369c0.785,0,1.422,0.254,1.91,0.758c0.488,0.506,0.752,1.174,0.792,2.01l0.005,0.305
			c0,0.574-0.109,1.086-0.33,1.537s-0.535,0.801-0.945,1.047c-0.41,0.248-0.883,0.371-1.42,0.371c-0.82,0-1.477-0.273-1.969-0.82
			c-0.492-0.545-0.738-1.273-0.738-2.182V48.657z M55.002,48.769c0,0.598,0.123,1.066,0.371,1.404
			c0.246,0.34,0.59,0.508,1.031,0.508c0.439,0,0.783-0.172,1.027-0.516c0.246-0.344,0.369-0.846,0.369-1.508
			c0-0.588-0.127-1.053-0.379-1.396s-0.596-0.516-1.029-0.516c-0.426,0-0.764,0.168-1.015,0.506
			C55.127,47.591,55.002,48.097,55.002,48.769z"/>
		<path fill="#FFFFFF" d="M61.415,45.804l0.038,0.672c0.43-0.52,0.993-0.779,1.691-0.779c1.211,0,1.826,0.693,1.848,2.08v3.84
			h-1.305v-3.766c0-0.369-0.08-0.643-0.24-0.818c-0.158-0.178-0.419-0.266-0.781-0.266c-0.525,0-0.918,0.236-1.176,0.713v4.137
			h-1.305v-5.813H61.415z"/>
		<path fill="#FFFFFF" d="M23.116,63.237c0-0.232-0.096-0.41-0.288-0.531c-0.191-0.123-0.509-0.23-0.953-0.322
			c-0.443-0.094-0.814-0.213-1.111-0.355c-0.652-0.314-0.978-0.771-0.978-1.369c0-0.502,0.212-0.92,0.634-1.258
			c0.422-0.336,0.959-0.504,1.611-0.504c0.695,0,1.256,0.172,1.684,0.516s0.643,0.789,0.643,1.338h-1.306
			c0-0.252-0.093-0.461-0.279-0.627s-0.433-0.25-0.741-0.25c-0.287,0-0.52,0.066-0.701,0.199c-0.181,0.133-0.271,0.311-0.271,0.531
			c0,0.201,0.084,0.357,0.253,0.469c0.169,0.109,0.509,0.223,1.021,0.334c0.512,0.113,0.914,0.248,1.205,0.404
			c0.293,0.154,0.51,0.342,0.65,0.561c0.142,0.219,0.213,0.484,0.213,0.795c0,0.523-0.217,0.945-0.65,1.27s-1.001,0.486-1.703,0.486
			c-0.476,0-0.9-0.086-1.272-0.258s-0.663-0.408-0.87-0.709s-0.312-0.625-0.312-0.971h1.268c0.019,0.307,0.134,0.545,0.349,0.711
			s0.5,0.25,0.854,0.25c0.344,0,0.604-0.066,0.784-0.197S23.116,63.448,23.116,63.237z"/>
		<path fill="#FFFFFF" d="M27.568,62.946l1.182-3.941h1.392l-2.31,6.691c-0.354,0.979-0.956,1.467-1.805,1.467
			c-0.189,0-0.399-0.033-0.629-0.098v-1.014l0.248,0.016c0.329,0,0.576-0.061,0.744-0.18c0.166-0.119,0.297-0.32,0.395-0.604
			l0.188-0.5l-2.041-5.779h1.407L27.568,62.946z"/>
		<path fill="#FFFFFF" d="M34.148,63.237c0-0.232-0.096-0.41-0.287-0.531c-0.191-0.123-0.51-0.23-0.953-0.322
			c-0.444-0.094-0.814-0.213-1.112-0.355c-0.651-0.314-0.978-0.771-0.978-1.369c0-0.502,0.211-0.92,0.634-1.258
			c0.423-0.336,0.96-0.504,1.611-0.504c0.694,0,1.256,0.172,1.685,0.516c0.428,0.344,0.641,0.789,0.641,1.338h-1.305
			c0-0.252-0.094-0.461-0.279-0.627s-0.434-0.25-0.741-0.25c-0.286,0-0.521,0.066-0.7,0.199c-0.182,0.133-0.271,0.311-0.271,0.531
			c0,0.201,0.084,0.357,0.252,0.469c0.168,0.109,0.508,0.223,1.021,0.334c0.513,0.113,0.914,0.248,1.206,0.404
			c0.291,0.154,0.508,0.342,0.65,0.561c0.141,0.219,0.211,0.484,0.211,0.795c0,0.523-0.217,0.945-0.649,1.27
			s-1.001,0.486-1.702,0.486c-0.477,0-0.9-0.086-1.273-0.258s-0.662-0.408-0.87-0.709s-0.312-0.625-0.312-0.971h1.268
			c0.018,0.307,0.135,0.545,0.35,0.711s0.499,0.25,0.854,0.25c0.344,0,0.605-0.066,0.784-0.197S34.148,63.448,34.148,63.237z"/>
		<path fill="#FFFFFF" d="M38.203,57.593v1.412h1.026v0.967h-1.026v3.244c0,0.221,0.045,0.381,0.133,0.48
			c0.087,0.098,0.244,0.148,0.469,0.148c0.15,0,0.303-0.02,0.457-0.055v1.01c-0.297,0.082-0.584,0.123-0.859,0.123
			c-1.002,0-1.504-0.553-1.504-1.658v-3.293h-0.956v-0.967h0.956v-1.412H38.203z"/>
		<path fill="#FFFFFF" d="M42.785,64.923c-0.827,0-1.498-0.26-2.012-0.781s-0.771-1.215-0.771-2.08v-0.162
			c0-0.58,0.112-1.098,0.335-1.555c0.225-0.457,0.539-0.813,0.943-1.066s0.855-0.381,1.354-0.381c0.791,0,1.402,0.252,1.834,0.758
			c0.432,0.504,0.647,1.219,0.647,2.143v0.525h-3.798c0.04,0.48,0.2,0.859,0.48,1.139c0.281,0.279,0.635,0.42,1.062,0.42
			c0.599,0,1.085-0.242,1.461-0.725l0.704,0.67c-0.233,0.348-0.544,0.617-0.932,0.809C43.705,64.827,43.269,64.923,42.785,64.923z
			 M42.629,59.944c-0.357,0-0.646,0.125-0.867,0.377c-0.221,0.25-0.36,0.6-0.422,1.047h2.487v-0.098
			c-0.028-0.436-0.146-0.768-0.349-0.99C43.273,60.056,42.991,59.944,42.629,59.944z"/>
		<path fill="#FFFFFF" d="M47.355,59.005l0.038,0.607c0.408-0.477,0.967-0.715,1.676-0.715c0.776,0,1.309,0.297,1.595,0.891
			c0.423-0.594,1.018-0.891,1.783-0.891c0.642,0,1.119,0.178,1.432,0.531c0.313,0.355,0.474,0.877,0.48,1.568v3.818h-1.305v-3.781
			c0-0.369-0.08-0.639-0.242-0.811c-0.16-0.172-0.428-0.258-0.8-0.258c-0.298,0-0.54,0.08-0.728,0.238
			c-0.188,0.16-0.32,0.369-0.395,0.627l0.005,3.984H49.59v-3.824c-0.018-0.684-0.367-1.025-1.047-1.025
			c-0.523,0-0.894,0.213-1.111,0.639v4.211h-1.306v-5.811H47.355z"/>
	</g>
</g>
<g opacity="0.5">
	<path fill="#231F20" d="M37.112,1.438c18.293,0,33.847,7.428,35.41,16.91l0.138,0.837h0.012v64.948v0.927l-35.212,23.306
		L1.551,85.063v-0.9V19.186h0.013l0.138-0.837C3.264,8.866,18.818,1.438,37.112,1.438 M37.112,0.438
		c-19.101,0-34.759,7.802-36.397,17.747H0.551v65.978v1.443l36.914,23.955l36.193-23.955h0.014v-0.01v-1.463V18.186h-0.163
		C71.869,8.24,56.213,0.438,37.112,0.438L37.112,0.438z"/>
</g>
</svg>
