<?xml version="1.0" encoding="utf-8"?>
<!-- Generator: Adobe Illustrator 15.0.0, SVG Export Plug-In . SVG Version: 6.00 Build 0)  -->
<!DOCTYPE svg PUBLIC "-//W3C//DTD SVG 1.1//EN" "http://www.w3.org/Graphics/SVG/1.1/DTD/svg11.dtd">
<svg version="1.1" id="Layer_1" xmlns="http://www.w3.org/2000/svg" xmlns:xlink="http://www.w3.org/1999/xlink" x="0px" y="0px"
	 width="906px" height="566.5px" viewBox="0 0 906 566.5" enable-background="new 0 0 906 566.5" xml:space="preserve">
<g>
	<g>
		<line fill="none" stroke="#A02261" stroke-miterlimit="10" x1="429.135" y1="301.662" x2="429.135" y2="272.369"/>
	</g>
	<g>
		<line fill="none" stroke="#A02261" stroke-miterlimit="10" x1="443.781" y1="287.016" x2="414.488" y2="287.016"/>
	</g>
</g>
<g>
	<g>
		<line fill="none" stroke="#A02261" stroke-miterlimit="10" x1="429.135" y1="113.424" x2="429.135" y2="84.131"/>
		<line fill="none" stroke="#A02261" stroke-miterlimit="10" x1="429.135" y1="490.678" x2="429.135" y2="461.385"/>
	</g>
	<g>
		<g>
			<line fill="none" stroke="#FEAE03" stroke-miterlimit="10" x1="43.019" y1="491.131" x2="43.019" y2="482.131"/>
			
				<line fill="none" stroke="#FEAE03" stroke-miterlimit="10" stroke-dasharray="18,6" x1="43.019" y1="476.131" x2="43.019" y2="95.131"/>
			<line fill="none" stroke="#FEAE03" stroke-miterlimit="10" x1="43.019" y1="92.131" x2="43.019" y2="83.131"/>
		</g>
	</g>
	<polyline fill="none" stroke="#FEAE03" stroke-miterlimit="10" stroke-dasharray="18,6" points="116.835,82.631 116.835,410.421 
		739.835,410.421 	"/>
	<polyline fill="none" stroke="#FEAE03" stroke-miterlimit="10" stroke-dasharray="18,6" points="117.393,211.422 740.393,211.422 
		740.393,491.422 	"/>
	<line fill="none" stroke="#096155" stroke-miterlimit="10" x1="76.089" y1="492.131" x2="76.089" y2="84.131"/>
	<line fill="none" stroke="#096155" stroke-miterlimit="10" x1="779.902" y1="489.898" x2="779.902" y2="81.899"/>
	<polyline fill="none" stroke="#096155" stroke-miterlimit="10" points="199.021,82.863 199.021,207.863 664.021,207.863 	"/>
	<polyline fill="none" stroke="#096155" stroke-miterlimit="10" points="199.463,166.863 663.463,166.863 663.463,491.863 	"/>
	<rect x="38.135" y="83.131" fill="none" stroke="#A02261" stroke-width="2" stroke-miterlimit="10" width="782" height="408"/>
</g>
<line fill="none" stroke="#FEAE03" stroke-miterlimit="10" stroke-dasharray="18,6" x1="115.393" y1="528.541" x2="193.75" y2="528.541"/>
<line fill="none" stroke="#096155" stroke-miterlimit="10" x1="115.393" y1="548.541" x2="193.75" y2="548.541"/>
<g>
	<path d="M35.242,508.697h-3.076v-1.148h3.076V508.697z"/>
	<path d="M39.695,507.521l0.463-4.302h4.582v1.23h-3.398l-0.234,2.039c0.395-0.228,0.84-0.34,1.336-0.34
		c0.813,0,1.444,0.26,1.896,0.778c0.452,0.52,0.677,1.219,0.677,2.099c0,0.866-0.25,1.558-0.75,2.07
		c-0.5,0.514-1.186,0.771-2.057,0.771c-0.781,0-1.429-0.222-1.942-0.665s-0.792-1.028-0.835-1.755h1.377
		c0.055,0.414,0.203,0.73,0.445,0.952c0.242,0.221,0.559,0.331,0.949,0.331c0.438,0,0.778-0.156,1.022-0.47
		c0.244-0.313,0.366-0.737,0.366-1.276c0-0.521-0.135-0.932-0.404-1.233s-0.641-0.454-1.113-0.454c-0.258,0-0.477,0.034-0.656,0.104
		c-0.179,0.068-0.375,0.202-0.586,0.4L39.695,507.521z"/>
</g>
<g>
	<path d="M837.77,165.057h2.228v1.301h-2.228v2.537h-1.383v-2.537h-2.237v-1.301h2.237v-2.373h1.383V165.057z"/>
	<path d="M849.436,163.469c0,0.418-0.106,0.79-0.321,1.116c-0.216,0.326-0.509,0.583-0.879,0.771c0.444,0.207,0.788,0.49,1.027,0.85
		c0.24,0.36,0.36,0.766,0.36,1.219c0,0.75-0.254,1.345-0.762,1.784c-0.509,0.439-1.185,0.659-2.027,0.659
		c-0.848,0-1.526-0.221-2.036-0.662s-0.765-1.035-0.765-1.781c0-0.457,0.121-0.867,0.362-1.23c0.242-0.363,0.582-0.643,1.021-0.838
		c-0.367-0.188-0.657-0.444-0.87-0.771s-0.319-0.698-0.319-1.116c0-0.727,0.234-1.303,0.703-1.729
		c0.469-0.426,1.103-0.639,1.898-0.639c0.801,0,1.436,0.213,1.904,0.639C849.2,162.167,849.436,162.742,849.436,163.469z
		 M848.199,167.354c0-0.422-0.126-0.763-0.378-1.022s-0.585-0.39-0.999-0.39s-0.745,0.129-0.993,0.387
		c-0.248,0.258-0.372,0.6-0.372,1.025c0,0.418,0.122,0.752,0.366,1.002s0.581,0.375,1.011,0.375s0.765-0.121,1.005-0.363
		C848.079,168.126,848.199,167.787,848.199,167.354z M848.018,163.521c0-0.371-0.106-0.677-0.321-0.917
		c-0.216-0.24-0.504-0.36-0.867-0.36s-0.65,0.114-0.861,0.343s-0.315,0.54-0.315,0.935c0,0.391,0.105,0.701,0.318,0.932
		s0.501,0.346,0.864,0.346s0.651-0.115,0.864-0.346S848.018,163.912,848.018,163.521z"/>
	<path d="M856.443,166.158c0,1.227-0.229,2.151-0.688,2.774s-1.157,0.935-2.095,0.935c-0.922,0-1.616-0.304-2.083-0.911
		s-0.706-1.507-0.718-2.698v-1.477c0-1.227,0.229-2.146,0.688-2.76s1.159-0.92,2.102-0.92c0.934,0,1.63,0.299,2.089,0.896
		c0.459,0.597,0.693,1.492,0.706,2.684V166.158z M855.02,164.564c0-0.801-0.108-1.388-0.327-1.761
		c-0.22-0.373-0.566-0.56-1.043-0.56c-0.466,0-0.808,0.177-1.025,0.53s-0.334,0.905-0.346,1.655v1.934
		c0,0.797,0.11,1.391,0.334,1.781c0.223,0.39,0.571,0.586,1.049,0.586c0.457,0,0.795-0.181,1.014-0.542s0.334-0.927,0.346-1.696
		L855.02,164.564L855.02,164.564z"/>
	<path d="M851.346,208.764h-3.305l-0.691,1.986h-1.541l3.224-8.531h1.33l3.229,8.531h-1.547L851.346,208.764z M848.457,207.568
		h2.473l-1.235-3.539L848.457,207.568z"/>
	<path d="M857.111,208.893l2.168-6.674h1.629l-3.07,8.531h-1.436l-3.06-8.531h1.623L857.111,208.893z"/>
	<path d="M868.332,209.643c-0.309,0.402-0.736,0.707-1.283,0.914s-1.168,0.311-1.863,0.311c-0.715,0-1.348-0.162-1.897-0.486
		c-0.55-0.324-0.977-0.788-1.274-1.392s-0.454-1.308-0.466-2.112v-0.668c0-1.289,0.31-2.296,0.926-3.021
		c0.617-0.725,1.479-1.087,2.584-1.087c0.949,0,1.703,0.235,2.263,0.706c0.559,0.471,0.895,1.147,1.008,2.03h-1.453
		c-0.164-1.027-0.76-1.541-1.787-1.541c-0.664,0-1.169,0.239-1.515,0.717c-0.347,0.479-0.524,1.18-0.536,2.104v0.656
		c0,0.921,0.193,1.636,0.583,2.146c0.389,0.509,0.929,0.764,1.62,0.764c0.758,0,1.297-0.172,1.617-0.516v-1.67h-1.759v-1.125h3.234
		L868.332,209.643L868.332,209.643z"/>
	<path d="M870.711,209.25c0.266,0,0.471,0.075,0.615,0.226c0.144,0.151,0.217,0.339,0.217,0.565c0,0.223-0.072,0.407-0.217,0.554
		c-0.146,0.147-0.351,0.22-0.615,0.22c-0.254,0-0.455-0.072-0.604-0.217c-0.149-0.145-0.224-0.33-0.224-0.557
		s0.072-0.415,0.217-0.565C870.246,209.326,870.449,209.25,870.711,209.25z"/>
	<path d="M837.77,247.057h2.228v1.301h-2.228v2.537h-1.383v-2.537h-2.237v-1.301h2.237v-2.373h1.383V247.057z"/>
	<path d="M848.492,243.178v1.178h-0.176c-0.798,0.012-1.435,0.23-1.91,0.656c-0.477,0.426-0.76,1.029-0.851,1.811
		c0.457-0.48,1.041-0.721,1.752-0.721c0.755,0,1.35,0.266,1.784,0.797c0.436,0.531,0.653,1.217,0.653,2.057
		c0,0.867-0.255,1.569-0.765,2.106c-0.511,0.537-1.18,0.806-2.008,0.806c-0.852,0-1.542-0.314-2.07-0.943
		c-0.529-0.629-0.794-1.453-0.794-2.473v-0.486c0-1.496,0.363-2.668,1.093-3.516c0.729-0.848,1.775-1.271,3.144-1.271
		L848.492,243.178L848.492,243.178z M846.963,247.25c-0.313,0-0.599,0.088-0.857,0.264c-0.26,0.176-0.45,0.41-0.571,0.703v0.434
		c0,0.633,0.133,1.136,0.397,1.509c0.266,0.373,0.609,0.56,1.031,0.56s0.756-0.158,1.002-0.475c0.246-0.317,0.369-0.732,0.369-1.248
		s-0.125-0.936-0.375-1.26C847.709,247.413,847.377,247.25,846.963,247.25z"/>
	<path d="M856.443,248.158c0,1.227-0.229,2.151-0.688,2.774s-1.157,0.935-2.095,0.935c-0.922,0-1.616-0.304-2.083-0.911
		s-0.706-1.507-0.718-2.698v-1.477c0-1.227,0.229-2.146,0.688-2.76c0.459-0.614,1.159-0.92,2.102-0.92
		c0.934,0,1.63,0.299,2.089,0.896c0.459,0.597,0.693,1.492,0.706,2.684V248.158z M855.02,246.564c0-0.801-0.108-1.388-0.327-1.761
		c-0.22-0.373-0.566-0.56-1.043-0.56c-0.466,0-0.808,0.177-1.025,0.53s-0.334,0.905-0.346,1.655v1.934
		c0,0.797,0.11,1.391,0.334,1.781c0.223,0.39,0.571,0.586,1.049,0.586c0.457,0,0.795-0.181,1.014-0.542s0.334-0.927,0.346-1.696
		L855.02,246.564L855.02,246.564z"/>
	<path d="M848.053,291.566h3.873v1.184h-5.354v-8.531h1.481V291.566z"/>
	<path d="M853.813,291.25c0.267,0,0.472,0.075,0.615,0.227c0.145,0.15,0.217,0.338,0.217,0.564c0,0.223-0.071,0.407-0.217,0.555
		c-0.145,0.146-0.35,0.219-0.615,0.219c-0.254,0-0.454-0.071-0.604-0.217c-0.149-0.145-0.223-0.33-0.223-0.557
		s0.071-0.415,0.217-0.564C853.348,291.326,853.551,291.25,853.813,291.25z"/>
	<path d="M863.105,290.641l1.313-6.422h1.471l-1.969,8.531h-1.418l-1.623-6.229l-1.658,6.229h-1.424l-1.969-8.531h1.471l1.324,6.41
		l1.629-6.41h1.242L863.105,290.641z"/>
	<path d="M866.885,291.25c0.267,0,0.472,0.075,0.615,0.227c0.144,0.15,0.217,0.338,0.217,0.564c0,0.223-0.072,0.407-0.217,0.555
		c-0.145,0.146-0.35,0.219-0.615,0.219c-0.254,0-0.455-0.071-0.604-0.217c-0.149-0.145-0.224-0.33-0.224-0.557
		s0.072-0.415,0.218-0.564C866.42,291.326,866.623,291.25,866.885,291.25z"/>
	<path d="M837.77,329.057h2.228v1.301h-2.228v2.537h-1.383v-2.537h-2.237v-1.301h2.237v-2.373h1.383V329.057z"/>
	<path d="M848.879,330.709h1.062v1.143h-1.062v1.898h-1.424v-1.898h-3.686l-0.041-0.867l3.68-5.766h1.471V330.709z M845.223,330.709
		h2.232v-3.563l-0.105,0.188L845.223,330.709z"/>
	<path d="M856.443,330.158c0,1.227-0.229,2.15-0.688,2.773s-1.157,0.936-2.095,0.936c-0.922,0-1.616-0.305-2.083-0.911
		s-0.706-1.507-0.718-2.698v-1.477c0-1.227,0.229-2.146,0.688-2.76c0.459-0.615,1.159-0.92,2.102-0.92
		c0.934,0,1.63,0.299,2.089,0.896s0.693,1.491,0.706,2.685V330.158z M855.02,328.564c0-0.801-0.108-1.389-0.327-1.762
		c-0.22-0.373-0.566-0.56-1.043-0.56c-0.466,0-0.808,0.177-1.025,0.53c-0.218,0.353-0.334,0.904-0.346,1.654v1.934
		c0,0.798,0.11,1.392,0.334,1.781c0.223,0.391,0.571,0.586,1.049,0.586c0.457,0,0.795-0.181,1.014-0.541
		c0.219-0.361,0.334-0.928,0.346-1.696L855.02,328.564L855.02,328.564z"/>
	<path d="M847.965,373.566h4.56v1.184h-6.353v-0.961l4.412-6.375h-4.383v-1.195h6.182v0.938L847.965,373.566z"/>
	<path d="M860.451,370.707c0,0.836-0.146,1.568-0.435,2.2c-0.289,0.631-0.702,1.114-1.238,1.452
		c-0.537,0.339-1.155,0.508-1.854,0.508c-0.69,0-1.308-0.169-1.849-0.508c-0.541-0.338-0.959-0.818-1.254-1.443
		c-0.296-0.625-0.444-1.346-0.448-2.162v-0.48c0-0.832,0.146-1.565,0.441-2.203c0.296-0.637,0.712-1.123,1.248-1.461
		c0.537-0.338,1.153-0.508,1.85-0.508c0.695,0,1.312,0.168,1.849,0.502s0.952,0.813,1.245,1.44s0.441,1.356,0.445,2.188V370.707
		L860.451,370.707z M858.969,370.262c0-0.945-0.179-1.67-0.536-2.174c-0.356-0.504-0.863-0.756-1.521-0.756
		c-0.641,0-1.143,0.251-1.503,0.753c-0.361,0.502-0.546,1.212-0.554,2.13v0.492c0,0.938,0.183,1.662,0.548,2.174
		c0.364,0.512,0.872,0.768,1.521,0.768c0.656,0,1.161-0.25,1.516-0.75c0.354-0.5,0.529-1.229,0.529-2.19V370.262z"/>
	<path d="M868.695,374.75h-1.482l-3.803-6.053v6.053h-1.482v-8.531h1.482l3.813,6.076v-6.076h1.472V374.75L868.695,374.75z"/>
	<path d="M875.434,370.941h-3.504v2.625h4.097v1.184h-5.578v-8.531h5.537v1.195h-4.056v2.355h3.504V370.941z"/>
	<path d="M837.77,411.057h2.228v1.301h-2.228v2.537h-1.383v-2.537h-2.237v-1.301h2.237v-2.373h1.383V411.057z"/>
	<path d="M849.799,415.75h-5.736v-0.979l2.843-3.1c0.409-0.457,0.702-0.839,0.876-1.146c0.174-0.308,0.261-0.614,0.261-0.924
		c0-0.406-0.114-0.733-0.343-0.983c-0.229-0.25-0.536-0.375-0.923-0.375c-0.462,0-0.818,0.141-1.072,0.422
		c-0.254,0.28-0.381,0.666-0.381,1.153h-1.425c0-0.52,0.118-0.986,0.354-1.402s0.574-0.739,1.014-0.971
		c0.44-0.23,0.946-0.346,1.521-0.346c0.828,0,1.48,0.209,1.96,0.625c0.479,0.416,0.718,0.99,0.718,1.726
		c0,0.426-0.12,0.872-0.36,1.339c-0.239,0.467-0.634,0.997-1.181,1.591l-2.086,2.232h3.961L849.799,415.75L849.799,415.75z"/>
	<path d="M856.443,412.158c0,1.227-0.229,2.15-0.688,2.773s-1.157,0.936-2.095,0.936c-0.922,0-1.616-0.304-2.083-0.911
		s-0.706-1.507-0.718-2.698v-1.477c0-1.227,0.229-2.146,0.688-2.76c0.459-0.615,1.159-0.92,2.102-0.92
		c0.934,0,1.63,0.299,2.089,0.896s0.693,1.491,0.706,2.685V412.158z M855.02,410.564c0-0.801-0.108-1.389-0.327-1.762
		c-0.22-0.373-0.566-0.56-1.043-0.56c-0.466,0-0.808,0.177-1.025,0.53c-0.218,0.353-0.334,0.904-0.346,1.654v1.934
		c0,0.798,0.11,1.392,0.334,1.781c0.223,0.391,0.571,0.587,1.049,0.587c0.457,0,0.795-0.182,1.014-0.543
		c0.219-0.36,0.334-0.927,0.346-1.695L855.02,410.564L855.02,410.564z"/>
	<path d="M848.053,455.566h3.873v1.184h-5.354v-8.531h1.481V455.566z"/>
	<path d="M858.049,452.941h-3.504v2.625h4.096v1.184h-5.578v-8.531h5.537v1.195h-4.055v2.354h3.504V452.941z"/>
	<path d="M862.854,454.893l2.169-6.674h1.629l-3.07,8.531h-1.436l-3.06-8.531h1.623L862.854,454.893z"/>
	<path d="M872.598,452.941h-3.504v2.625h4.097v1.184h-5.578v-8.531h5.537v1.195h-4.056v2.354h3.504V452.941z"/>
	<path d="M875.879,455.566h3.873v1.184h-5.354v-8.531h1.481V455.566z"/>
</g>
<g>
	<path d="M113.78,508.697h-3.076v-1.148h3.076V508.697z"/>
	<path d="M122.668,508.709h1.061v1.143h-1.061v1.898h-1.424v-1.898h-3.686l-0.041-0.866l3.68-5.767h1.471V508.709z M119.012,508.709
		h2.232v-3.563l-0.105,0.188L119.012,508.709z"/>
</g>
<g>
	<path d="M192.317,508.697h-3.076v-1.148h3.076V508.697z"/>
	<path d="M198.036,506.834h0.867c0.438-0.004,0.784-0.117,1.04-0.34c0.256-0.224,0.384-0.545,0.384-0.967
		c0-0.406-0.106-0.723-0.319-0.946c-0.213-0.225-0.538-0.337-0.976-0.337c-0.383,0-0.697,0.109-0.943,0.331
		c-0.246,0.221-0.369,0.509-0.369,0.863h-1.424c0-0.438,0.116-0.836,0.349-1.194c0.233-0.359,0.557-0.641,0.973-0.841
		c0.416-0.201,0.882-0.303,1.397-0.303c0.852,0,1.521,0.214,2.007,0.643c0.486,0.428,0.729,1.021,0.729,1.784
		c0,0.383-0.122,0.742-0.366,1.081c-0.244,0.338-0.56,0.593-0.946,0.765c0.469,0.16,0.825,0.412,1.069,0.756
		c0.244,0.344,0.366,0.754,0.366,1.229c0,0.767-0.263,1.375-0.788,1.828s-1.216,0.681-2.071,0.681c-0.82,0-1.492-0.22-2.016-0.656
		c-0.524-0.438-0.785-1.021-0.785-1.746h1.424c0,0.375,0.126,0.68,0.378,0.914s0.591,0.352,1.017,0.352
		c0.441,0,0.789-0.116,1.043-0.352c0.254-0.235,0.381-0.574,0.381-1.021c0-0.448-0.133-0.795-0.398-1.036
		c-0.265-0.242-0.66-0.363-1.184-0.363h-0.838L198.036,506.834L198.036,506.834z"/>
</g>
<g>
	<path d="M269.854,508.697h-3.076v-1.148h3.076V508.697z"/>
	<path d="M279.663,511.75h-5.736v-0.979l2.842-3.1c0.41-0.457,0.702-0.839,0.876-1.146c0.174-0.308,0.261-0.614,0.261-0.924
		c0-0.405-0.114-0.733-0.343-0.983s-0.536-0.375-0.923-0.375c-0.461,0-0.818,0.141-1.072,0.422s-0.381,0.666-0.381,1.154h-1.424
		c0-0.521,0.118-0.987,0.354-1.403c0.236-0.416,0.574-0.739,1.014-0.97c0.44-0.231,0.946-0.347,1.521-0.347
		c0.828,0,1.481,0.208,1.96,0.624s0.718,0.991,0.718,1.727c0,0.426-0.12,0.872-0.36,1.339c-0.24,0.467-0.634,0.997-1.181,1.591
		l-2.086,2.232h3.961L279.663,511.75L279.663,511.75z"/>
</g>
<g>
	<path d="M347.392,508.697h-3.076v-1.148h3.076V508.697z"/>
	<path d="M355.319,511.75h-1.418v-6.854l-2.092,0.714v-1.195l3.328-1.225h0.182V511.75L355.319,511.75z"/>
</g>
<g>
	<path d="M501.62,507.057h2.227v1.302h-2.227v2.537h-1.383v-2.537h-2.238v-1.302h2.238v-2.373h1.383V507.057z"/>
	<path d="M511.769,511.75h-1.418v-6.854l-2.092,0.714v-1.195l3.328-1.225h0.182V511.75z"/>
</g>
<g>
	<path d="M579.157,507.057h2.227v1.302h-2.227v2.537h-1.383v-2.537h-2.238v-1.302h2.238v-2.373h1.383V507.057z"/>
	<path d="M591.188,511.75h-5.736v-0.979l2.842-3.1c0.41-0.457,0.702-0.839,0.876-1.146c0.174-0.308,0.261-0.614,0.261-0.924
		c0-0.405-0.113-0.733-0.343-0.983c-0.229-0.25-0.536-0.375-0.923-0.375c-0.461,0-0.818,0.141-1.072,0.422s-0.381,0.666-0.381,1.154
		h-1.424c0-0.521,0.118-0.987,0.354-1.403c0.236-0.416,0.574-0.739,1.015-0.97c0.439-0.231,0.945-0.347,1.521-0.347
		c0.828,0,1.481,0.208,1.96,0.624c0.479,0.416,0.718,0.991,0.718,1.727c0,0.426-0.119,0.872-0.359,1.339s-0.634,0.997-1.181,1.591
		l-2.087,2.232h3.962L591.188,511.75L591.188,511.75z"/>
</g>
<g>
	<path d="M656.695,507.057h2.227v1.302h-2.227v2.537h-1.383v-2.537h-2.238v-1.302h2.238v-2.373h1.383V507.057z"/>
	<path d="M664.635,506.834h0.867c0.438-0.004,0.784-0.117,1.04-0.34c0.256-0.224,0.384-0.545,0.384-0.967
		c0-0.406-0.105-0.723-0.318-0.946c-0.213-0.225-0.538-0.337-0.977-0.337c-0.383,0-0.697,0.109-0.943,0.331
		c-0.245,0.221-0.368,0.509-0.368,0.863h-1.425c0-0.438,0.116-0.836,0.35-1.194c0.232-0.359,0.557-0.641,0.973-0.841
		c0.416-0.201,0.882-0.303,1.397-0.303c0.852,0,1.521,0.214,2.007,0.643c0.486,0.428,0.729,1.021,0.729,1.784
		c0,0.383-0.122,0.742-0.365,1.081c-0.244,0.338-0.561,0.593-0.946,0.765c0.469,0.16,0.825,0.412,1.069,0.756
		c0.243,0.344,0.365,0.754,0.365,1.229c0,0.767-0.263,1.375-0.788,1.828c-0.524,0.453-1.216,0.681-2.07,0.681
		c-0.82,0-1.492-0.22-2.017-0.656c-0.523-0.438-0.785-1.021-0.785-1.746h1.425c0,0.375,0.126,0.68,0.378,0.914
		s0.591,0.352,1.017,0.352c0.441,0,0.789-0.116,1.043-0.352s0.381-0.574,0.381-1.021c0-0.448-0.133-0.795-0.397-1.036
		c-0.266-0.242-0.66-0.363-1.185-0.363h-0.838L664.635,506.834L664.635,506.834z"/>
</g>
<g>
	<path d="M734.231,507.057h2.227v1.302h-2.227v2.537h-1.384v-2.537h-2.237v-1.302h2.237v-2.373h1.384V507.057z"/>
	<path d="M745.341,508.709h1.062v1.143h-1.062v1.898h-1.424v-1.898h-3.686l-0.041-0.866l3.68-5.767h1.471V508.709z M741.685,508.709
		h2.232v-3.563l-0.104,0.188L741.685,508.709z"/>
</g>
<g>
	<path d="M811.77,507.057h2.228v1.302h-2.228v2.537h-1.383v-2.537h-2.237v-1.302h2.237v-2.373h1.383V507.057z"/>
	<path d="M818.443,507.521l0.463-4.302h4.582v1.23h-3.398l-0.234,2.039c0.396-0.228,0.841-0.34,1.337-0.34
		c0.813,0,1.443,0.26,1.896,0.778c0.452,0.52,0.677,1.219,0.677,2.099c0,0.866-0.25,1.558-0.75,2.07
		c-0.5,0.514-1.186,0.771-2.057,0.771c-0.781,0-1.429-0.222-1.942-0.665c-0.513-0.443-0.792-1.028-0.835-1.755h1.377
		c0.056,0.414,0.203,0.73,0.445,0.952c0.242,0.221,0.559,0.331,0.949,0.331c0.438,0,0.777-0.156,1.021-0.47
		c0.244-0.313,0.366-0.737,0.366-1.276c0-0.521-0.135-0.932-0.404-1.233c-0.269-0.302-0.641-0.454-1.112-0.454
		c-0.259,0-0.478,0.034-0.656,0.104c-0.179,0.068-0.375,0.202-0.586,0.4L818.443,507.521z"/>
</g>
<g>
	<path fill="#FEAE03" d="M44.393,530.764h-3.305l-0.691,1.986h-1.541l3.223-8.531h1.33l3.229,8.531h-1.547L44.393,530.764z
		 M41.504,529.568h2.473l-1.236-3.539L41.504,529.568z"/>
	<path fill="#FEAE03" d="M47.604,532.75v-8.531h2.52c0.754,0,1.423,0.168,2.007,0.504s1.036,0.813,1.356,1.431
		c0.32,0.617,0.48,1.323,0.48,2.121v0.428c0,0.809-0.161,1.52-0.483,2.133c-0.322,0.613-0.781,1.086-1.377,1.418
		s-1.278,0.498-2.048,0.498L47.604,532.75L47.604,532.75z M49.086,525.414v6.152h0.967c0.777,0,1.374-0.243,1.79-0.729
		s0.628-1.185,0.636-2.095v-0.476c0-0.926-0.201-1.633-0.604-2.12c-0.403-0.488-0.986-0.732-1.752-0.732H49.086L49.086,525.414z"/>
	<path fill="#FEAE03" d="M58.936,524.219h1.477v5.982c0,0.815-0.255,1.465-0.765,1.944c-0.51,0.48-1.183,0.722-2.019,0.722
		c-0.891,0-1.578-0.226-2.063-0.674c-0.485-0.449-0.727-1.074-0.727-1.875h1.477c0,0.452,0.112,0.794,0.337,1.021
		c0.225,0.229,0.55,0.343,0.976,0.343c0.398,0,0.716-0.132,0.952-0.396s0.354-0.628,0.354-1.093L58.936,524.219L58.936,524.219z"/>
	<path fill="#FEAE03" d="M68.346,524.219v5.701c0,0.906-0.29,1.624-0.87,2.153c-0.58,0.528-1.353,0.794-2.317,0.794
		c-0.977,0-1.752-0.261-2.326-0.782c-0.574-0.521-0.861-1.245-0.861-2.171v-5.695h1.477v5.707c0,0.57,0.145,1.006,0.434,1.308
		c0.289,0.301,0.715,0.45,1.277,0.45c1.141,0,1.711-0.602,1.711-1.805v-5.66H68.346z"/>
	<path fill="#FEAE03" d="M74.387,530.553c0-0.375-0.132-0.664-0.396-0.867c-0.264-0.202-0.739-0.407-1.427-0.614
		s-1.234-0.438-1.641-0.691c-0.777-0.488-1.166-1.125-1.166-1.91c0-0.688,0.28-1.254,0.841-1.698
		c0.561-0.445,1.288-0.669,2.183-0.669c0.594,0,1.123,0.109,1.588,0.328c0.465,0.22,0.83,0.53,1.096,0.936
		c0.266,0.404,0.398,0.853,0.398,1.345h-1.477c0-0.445-0.14-0.794-0.419-1.046c-0.279-0.252-0.679-0.378-1.198-0.378
		c-0.484,0-0.86,0.104-1.128,0.311s-0.401,0.496-0.401,0.867c0,0.313,0.145,0.573,0.434,0.782s0.766,0.412,1.43,0.609
		c0.664,0.196,1.197,0.422,1.6,0.674c0.403,0.252,0.697,0.541,0.885,0.867c0.188,0.325,0.281,0.707,0.281,1.146
		c0,0.711-0.272,1.276-0.817,1.696c-0.545,0.42-1.284,0.63-2.218,0.63c-0.617,0-1.185-0.114-1.702-0.343
		c-0.517-0.229-0.92-0.545-1.207-0.946c-0.287-0.402-0.431-0.871-0.431-1.406h1.482c0,0.484,0.16,0.859,0.48,1.125
		c0.32,0.267,0.779,0.398,1.377,0.398c0.516,0,0.903-0.104,1.163-0.313C74.257,531.175,74.387,530.896,74.387,530.553z"/>
	<path fill="#FEAE03" d="M83.334,525.414h-2.66v7.336h-1.471v-7.336h-2.637v-1.195h6.768V525.414z"/>
	<path fill="#FEAE03" d="M89.439,528.941h-3.504v2.625h4.096v1.184h-5.578v-8.531h5.537v1.195h-4.055v2.354h3.504V528.941z"/>
	<path fill="#FEAE03" d="M94.373,529.469h-1.652v3.281h-1.482v-8.531h3c0.984,0,1.744,0.222,2.279,0.663s0.803,1.081,0.803,1.917
		c0,0.571-0.138,1.049-0.413,1.435c-0.275,0.386-0.659,0.682-1.151,0.889l1.916,3.553v0.076h-1.588L94.373,529.469z M92.721,528.273
		h1.523c0.5,0,0.891-0.126,1.172-0.378c0.281-0.253,0.422-0.598,0.422-1.034c0-0.457-0.13-0.812-0.39-1.062
		c-0.26-0.25-0.647-0.379-1.163-0.387h-1.564V528.273z"/>
</g>
<g>
	<g>
		<path fill="#096155" d="M44.393,549.764h-3.305l-0.691,1.986h-1.541l3.223-8.531h1.33l3.229,8.531h-1.547L44.393,549.764z
			 M41.504,548.568h2.473l-1.236-3.539L41.504,548.568z"/>
		<path fill="#096155" d="M47.604,551.75v-8.531h2.924c0.965,0,1.699,0.193,2.203,0.58c0.504,0.388,0.756,0.963,0.756,1.729
			c0,0.391-0.105,0.742-0.316,1.055s-0.52,0.555-0.926,0.727c0.461,0.125,0.817,0.36,1.069,0.706
			c0.252,0.347,0.378,0.762,0.378,1.245c0,0.801-0.257,1.416-0.771,1.847c-0.514,0.43-1.249,0.645-2.206,0.645h-3.111V551.75z
			 M49.086,546.811h1.453c0.461,0,0.821-0.104,1.081-0.313c0.26-0.209,0.39-0.505,0.39-0.888c0-0.422-0.12-0.728-0.36-0.914
			c-0.24-0.188-0.614-0.281-1.122-0.281h-1.441L49.086,546.811L49.086,546.811z M49.086,547.9v2.666h1.646
			c0.465,0,0.828-0.115,1.09-0.347c0.262-0.23,0.393-0.551,0.393-0.961c0-0.887-0.453-1.34-1.359-1.358H49.086z"/>
		<path fill="#096155" d="M59.633,549.553c0-0.375-0.132-0.664-0.396-0.867c-0.264-0.202-0.739-0.407-1.427-0.614
			s-1.234-0.438-1.641-0.691c-0.777-0.488-1.166-1.125-1.166-1.91c0-0.688,0.28-1.254,0.841-1.698
			c0.561-0.445,1.288-0.669,2.183-0.669c0.594,0,1.123,0.109,1.588,0.328c0.465,0.22,0.83,0.53,1.096,0.936
			c0.266,0.404,0.398,0.853,0.398,1.345h-1.477c0-0.445-0.14-0.794-0.419-1.046c-0.279-0.252-0.679-0.378-1.198-0.378
			c-0.484,0-0.86,0.104-1.128,0.311c-0.268,0.207-0.401,0.496-0.401,0.867c0,0.313,0.145,0.573,0.434,0.782s0.766,0.412,1.43,0.609
			c0.664,0.196,1.197,0.422,1.6,0.674c0.403,0.252,0.697,0.541,0.885,0.867c0.188,0.325,0.281,0.707,0.281,1.146
			c0,0.711-0.272,1.276-0.817,1.696s-1.284,0.63-2.218,0.63c-0.617,0-1.185-0.114-1.702-0.343c-0.517-0.229-0.92-0.545-1.207-0.946
			c-0.287-0.402-0.431-0.871-0.431-1.406h1.482c0,0.484,0.16,0.859,0.48,1.125c0.32,0.267,0.779,0.398,1.377,0.398
			c0.516,0,0.903-0.104,1.163-0.313C59.503,550.175,59.633,549.896,59.633,549.553z"/>
		<path fill="#096155" d="M69.225,547.707c0,0.836-0.145,1.569-0.434,2.2s-0.702,1.115-1.239,1.453
			c-0.537,0.338-1.155,0.507-1.854,0.507c-0.691,0-1.308-0.169-1.849-0.507s-0.959-0.819-1.254-1.444
			c-0.295-0.625-0.444-1.346-0.448-2.162v-0.479c0-0.832,0.147-1.566,0.442-2.203c0.295-0.638,0.711-1.124,1.248-1.462
			s1.153-0.507,1.849-0.507s1.312,0.166,1.849,0.5c0.537,0.334,0.952,0.814,1.245,1.441c0.293,0.627,0.441,1.356,0.445,2.188
			V547.707z M67.742,547.262c0-0.944-0.179-1.67-0.536-2.174s-0.864-0.756-1.521-0.756c-0.641,0-1.142,0.251-1.503,0.753
			c-0.361,0.502-0.546,1.212-0.554,2.13v0.492c0,0.938,0.183,1.662,0.548,2.174c0.365,0.513,0.872,0.769,1.521,0.769
			c0.656,0,1.161-0.25,1.515-0.75s0.53-1.23,0.53-2.191V547.262z"/>
		<path fill="#096155" d="M73.836,548.469h-1.652v3.281h-1.482v-8.531h3c0.984,0,1.744,0.222,2.279,0.663s0.803,1.081,0.803,1.917
			c0,0.571-0.138,1.049-0.413,1.435s-0.659,0.682-1.151,0.889l1.916,3.553v0.076h-1.588L73.836,548.469z M72.184,547.273h1.523
			c0.5,0,0.891-0.126,1.172-0.378c0.281-0.253,0.422-0.598,0.422-1.034c0-0.457-0.13-0.812-0.39-1.062
			c-0.26-0.25-0.647-0.379-1.163-0.387h-1.564V547.273z"/>
		<path fill="#096155" d="M78.189,551.75v-8.531h2.924c0.965,0,1.699,0.193,2.203,0.58c0.504,0.388,0.756,0.963,0.756,1.729
			c0,0.391-0.105,0.742-0.316,1.055s-0.52,0.555-0.926,0.727c0.461,0.125,0.817,0.36,1.069,0.706
			c0.252,0.347,0.378,0.762,0.378,1.245c0,0.801-0.257,1.416-0.771,1.847c-0.514,0.43-1.249,0.645-2.206,0.645h-3.111V551.75z
			 M79.672,546.811h1.453c0.461,0,0.821-0.104,1.081-0.313c0.26-0.209,0.39-0.505,0.39-0.888c0-0.422-0.12-0.728-0.36-0.914
			c-0.24-0.188-0.614-0.281-1.122-0.281h-1.441L79.672,546.811L79.672,546.811z M79.672,547.9v2.666h1.646
			c0.465,0,0.828-0.115,1.09-0.347c0.262-0.23,0.393-0.551,0.393-0.961c0-0.887-0.453-1.34-1.359-1.358H79.672z"/>
		<path fill="#096155" d="M90.746,547.941h-3.504v2.625h4.096v1.184H85.76v-8.531h5.537v1.195h-4.055v2.354h3.504V547.941z"/>
		<path fill="#096155" d="M95.68,548.469h-1.652v3.281h-1.482v-8.531h3c0.984,0,1.744,0.222,2.279,0.663
			c0.535,0.441,0.803,1.081,0.803,1.917c0,0.571-0.138,1.049-0.413,1.435c-0.275,0.386-0.659,0.682-1.151,0.889l1.916,3.553v0.076
			h-1.588L95.68,548.469z M94.027,547.273h1.523c0.5,0,0.891-0.126,1.172-0.378c0.281-0.253,0.422-0.598,0.422-1.034
			c0-0.457-0.13-0.812-0.39-1.062c-0.26-0.25-0.647-0.379-1.163-0.387h-1.564V547.273z"/>
	</g>
</g>
<g>
	<path fill="#FEAE03" d="M44.393,50.764h-3.305l-0.691,1.986h-1.541l3.223-8.531h1.33l3.229,8.531h-1.547L44.393,50.764z
		 M41.504,49.568h2.473l-1.236-3.539L41.504,49.568z"/>
	<path fill="#FEAE03" d="M47.604,52.75v-8.531h2.52c0.754,0,1.423,0.168,2.007,0.504s1.036,0.813,1.356,1.43
		c0.32,0.617,0.48,1.324,0.48,2.121v0.428c0,0.809-0.161,1.52-0.483,2.133c-0.322,0.613-0.781,1.086-1.377,1.418
		s-1.278,0.498-2.048,0.498L47.604,52.75L47.604,52.75z M49.086,45.414v6.152h0.967c0.777,0,1.374-0.243,1.79-0.729
		c0.416-0.486,0.628-1.185,0.636-2.095v-0.475c0-0.926-0.201-1.633-0.604-2.121s-0.986-0.732-1.752-0.732H49.086z"/>
	<path fill="#FEAE03" d="M58.936,44.219h1.477v5.982c0,0.816-0.255,1.465-0.765,1.945c-0.51,0.48-1.183,0.721-2.019,0.721
		c-0.891,0-1.578-0.225-2.063-0.674c-0.485-0.449-0.727-1.074-0.727-1.875h1.477c0,0.453,0.112,0.794,0.337,1.022
		c0.225,0.228,0.55,0.343,0.976,0.343c0.398,0,0.716-0.132,0.952-0.396c0.236-0.264,0.354-0.628,0.354-1.093L58.936,44.219
		L58.936,44.219z"/>
	<path fill="#FEAE03" d="M68.346,44.219v5.701c0,0.906-0.29,1.624-0.87,2.153c-0.58,0.529-1.353,0.794-2.317,0.794
		c-0.977,0-1.752-0.261-2.326-0.782s-0.861-1.245-0.861-2.171v-5.695h1.477v5.707c0,0.57,0.145,1.006,0.434,1.307
		c0.289,0.301,0.715,0.451,1.277,0.451c1.141,0,1.711-0.602,1.711-1.805v-5.66H68.346z"/>
	<path fill="#FEAE03" d="M74.387,50.553c0-0.375-0.132-0.664-0.396-0.867c-0.264-0.203-0.739-0.408-1.427-0.615
		c-0.688-0.207-1.234-0.438-1.641-0.691c-0.777-0.488-1.166-1.125-1.166-1.91c0-0.688,0.28-1.254,0.841-1.699
		s1.288-0.668,2.183-0.668c0.594,0,1.123,0.109,1.588,0.328c0.465,0.219,0.83,0.53,1.096,0.935c0.266,0.405,0.398,0.853,0.398,1.345
		h-1.477c0-0.445-0.14-0.794-0.419-1.046c-0.279-0.252-0.679-0.378-1.198-0.378c-0.484,0-0.86,0.104-1.128,0.311
		s-0.401,0.496-0.401,0.867c0,0.313,0.145,0.573,0.434,0.782s0.766,0.412,1.43,0.609c0.664,0.197,1.197,0.422,1.6,0.674
		c0.403,0.252,0.697,0.541,0.885,0.867s0.281,0.708,0.281,1.146c0,0.711-0.272,1.276-0.817,1.696c-0.545,0.42-1.284,0.63-2.218,0.63
		c-0.617,0-1.185-0.114-1.702-0.343c-0.517-0.229-0.92-0.544-1.207-0.946c-0.287-0.402-0.431-0.871-0.431-1.406h1.482
		c0,0.484,0.16,0.859,0.48,1.125c0.32,0.266,0.779,0.398,1.377,0.398c0.516,0,0.903-0.104,1.163-0.313
		C74.257,51.175,74.387,50.896,74.387,50.553z"/>
	<path fill="#FEAE03" d="M83.334,45.414h-2.66v7.336h-1.471v-7.336h-2.637v-1.195h6.768V45.414z"/>
	<path fill="#FEAE03" d="M89.439,48.941h-3.504v2.625h4.096v1.184h-5.578v-8.531h5.537v1.195h-4.055v2.355h3.504V48.941z"/>
	<path fill="#FEAE03" d="M94.373,49.469h-1.652v3.281h-1.482v-8.531h3c0.984,0,1.744,0.221,2.279,0.663
		c0.535,0.441,0.803,1.081,0.803,1.917c0,0.571-0.138,1.049-0.413,1.434c-0.275,0.386-0.659,0.682-1.151,0.889l1.916,3.553v0.076
		h-1.588L94.373,49.469z M92.721,48.273h1.523c0.5,0,0.891-0.126,1.172-0.378c0.281-0.252,0.422-0.597,0.422-1.034
		c0-0.457-0.13-0.811-0.39-1.061c-0.26-0.25-0.647-0.379-1.163-0.387h-1.564V48.273z"/>
</g>
<g>
	<g>
		<path d="M45.125,71.75h-5.736v-0.979l2.842-3.1c0.41-0.457,0.702-0.839,0.876-1.146c0.174-0.307,0.261-0.614,0.261-0.923
			c0-0.406-0.114-0.734-0.343-0.984s-0.536-0.375-0.923-0.375c-0.461,0-0.818,0.141-1.072,0.422
			c-0.254,0.281-0.381,0.666-0.381,1.154h-1.424c0-0.52,0.118-0.987,0.354-1.403c0.236-0.416,0.574-0.739,1.014-0.97
			c0.44-0.231,0.946-0.346,1.521-0.346c0.828,0,1.481,0.208,1.96,0.624c0.479,0.416,0.718,0.991,0.718,1.726
			c0,0.426-0.12,0.872-0.36,1.339c-0.24,0.467-0.634,0.997-1.181,1.591l-2.086,2.232h3.961L45.125,71.75L45.125,71.75z"/>
		<path d="M49.426,71.75v-8.531h2.924c0.965,0,1.699,0.193,2.203,0.58c0.504,0.387,0.756,0.963,0.756,1.729
			c0,0.391-0.105,0.742-0.316,1.055s-0.52,0.555-0.926,0.727c0.461,0.125,0.817,0.36,1.069,0.706
			c0.252,0.346,0.378,0.761,0.378,1.245c0,0.801-0.257,1.416-0.771,1.846c-0.514,0.43-1.249,0.645-2.206,0.645h-3.111V71.75z
			 M50.908,66.811h1.453c0.461,0,0.821-0.104,1.081-0.313c0.26-0.209,0.39-0.505,0.39-0.888c0-0.422-0.12-0.727-0.36-0.914
			c-0.24-0.187-0.614-0.281-1.122-0.281h-1.441L50.908,66.811L50.908,66.811z M50.908,67.9v2.666h1.646
			c0.465,0,0.828-0.115,1.09-0.346s0.393-0.551,0.393-0.961c0-0.887-0.453-1.34-1.359-1.359H50.908z"/>
		<path d="M61.771,69.764h-3.305l-0.691,1.986h-1.541l3.223-8.531h1.33l3.229,8.531h-1.547L61.771,69.764z M58.883,68.568h2.473
			l-1.236-3.539L58.883,68.568z"/>
		<path d="M71.75,71.75h-1.482l-3.803-6.053v6.053h-1.482v-8.531h1.482l3.814,6.076v-6.076h1.471V71.75z"/>
		<path d="M75.951,68.064l-0.967,1.025v2.66h-1.482v-8.531h1.482v4.002l0.82-1.014l2.496-2.988h1.793l-3.17,3.779l3.352,4.752
			h-1.758L75.951,68.064z"/>
		<path d="M85.525,69.553c0-0.375-0.132-0.664-0.396-0.867c-0.264-0.203-0.739-0.408-1.427-0.615
			c-0.688-0.207-1.234-0.438-1.641-0.691c-0.777-0.488-1.166-1.125-1.166-1.91c0-0.688,0.28-1.254,0.841-1.699
			s1.288-0.668,2.183-0.668c0.594,0,1.123,0.109,1.588,0.328c0.465,0.219,0.83,0.53,1.096,0.935
			c0.266,0.405,0.398,0.853,0.398,1.345h-1.477c0-0.445-0.14-0.794-0.419-1.046s-0.679-0.378-1.198-0.378
			c-0.484,0-0.86,0.104-1.128,0.311s-0.401,0.496-0.401,0.867c0,0.313,0.145,0.573,0.434,0.782s0.766,0.412,1.43,0.609
			c0.664,0.197,1.197,0.422,1.6,0.674c0.403,0.252,0.697,0.541,0.885,0.867s0.281,0.708,0.281,1.146
			c0,0.711-0.272,1.276-0.817,1.696c-0.545,0.42-1.284,0.63-2.218,0.63c-0.617,0-1.185-0.114-1.702-0.343s-0.92-0.544-1.207-0.946
			s-0.431-0.871-0.431-1.406h1.482c0,0.484,0.16,0.859,0.48,1.125c0.32,0.266,0.779,0.398,1.377,0.398
			c0.516,0,0.903-0.104,1.163-0.313C85.395,70.175,85.525,69.896,85.525,69.553z"/>
	</g>
</g>
<g>
	<g>
		<path d="M778.434,71.75h-5.735v-0.979l2.842-3.1c0.41-0.457,0.702-0.839,0.876-1.146s0.261-0.614,0.261-0.923
			c0-0.406-0.114-0.734-0.343-0.984c-0.229-0.25-0.536-0.375-0.923-0.375c-0.461,0-0.818,0.141-1.072,0.422
			c-0.254,0.281-0.381,0.666-0.381,1.154h-1.424c0-0.52,0.118-0.987,0.354-1.403c0.236-0.416,0.574-0.739,1.015-0.97
			c0.439-0.231,0.945-0.346,1.521-0.346c0.828,0,1.481,0.208,1.96,0.624c0.479,0.416,0.718,0.991,0.718,1.726
			c0,0.426-0.12,0.872-0.359,1.339c-0.24,0.467-0.634,0.997-1.182,1.591l-2.086,2.232h3.961L778.434,71.75L778.434,71.75z"/>
		<path d="M782.734,71.75v-8.531h2.924c0.965,0,1.699,0.193,2.203,0.58c0.504,0.387,0.756,0.963,0.756,1.729
			c0,0.391-0.105,0.742-0.316,1.055s-0.52,0.555-0.926,0.727c0.461,0.125,0.817,0.36,1.069,0.706
			c0.252,0.346,0.378,0.761,0.378,1.245c0,0.801-0.258,1.416-0.771,1.846s-1.249,0.645-2.206,0.645h-3.11V71.75z M784.217,66.811
			h1.453c0.461,0,0.821-0.104,1.081-0.313s0.39-0.505,0.39-0.888c0-0.422-0.119-0.727-0.359-0.914s-0.614-0.281-1.122-0.281h-1.441
			L784.217,66.811L784.217,66.811z M784.217,67.9v2.666h1.646c0.465,0,0.828-0.115,1.09-0.346s0.393-0.551,0.393-0.961
			c0-0.887-0.453-1.34-1.358-1.359H784.217z"/>
		<path d="M795.08,69.764h-3.305l-0.691,1.986h-1.541l3.223-8.531h1.33l3.229,8.531h-1.547L795.08,69.764z M792.191,68.568h2.473
			l-1.236-3.539L792.191,68.568z"/>
		<path d="M805.059,71.75h-1.481l-3.803-6.053v6.053h-1.482v-8.531h1.482l3.813,6.076v-6.076h1.471V71.75L805.059,71.75z"/>
		<path d="M809.26,68.064l-0.967,1.025v2.66h-1.482v-8.531h1.482v4.002l0.82-1.014l2.496-2.988h1.793l-3.17,3.779l3.352,4.752
			h-1.758L809.26,68.064z"/>
		<path d="M818.834,69.553c0-0.375-0.132-0.664-0.396-0.867c-0.264-0.203-0.738-0.408-1.427-0.615
			c-0.688-0.207-1.233-0.438-1.641-0.691c-0.777-0.488-1.166-1.125-1.166-1.91c0-0.688,0.28-1.254,0.841-1.699
			s1.288-0.668,2.183-0.668c0.595,0,1.123,0.109,1.589,0.328c0.465,0.219,0.83,0.53,1.096,0.935
			c0.266,0.405,0.397,0.853,0.397,1.345h-1.477c0-0.445-0.14-0.794-0.419-1.046s-0.679-0.378-1.198-0.378
			c-0.483,0-0.859,0.104-1.128,0.311c-0.268,0.207-0.4,0.496-0.4,0.867c0,0.313,0.145,0.573,0.434,0.782s0.766,0.412,1.43,0.609
			c0.664,0.197,1.197,0.422,1.601,0.674c0.402,0.252,0.696,0.541,0.885,0.867c0.188,0.326,0.281,0.708,0.281,1.146
			c0,0.711-0.272,1.276-0.817,1.696c-0.545,0.42-1.284,0.63-2.218,0.63c-0.617,0-1.186-0.114-1.702-0.343
			c-0.518-0.229-0.92-0.544-1.207-0.946s-0.431-0.871-0.431-1.406h1.481c0,0.484,0.16,0.859,0.48,1.125
			c0.319,0.266,0.778,0.398,1.377,0.398c0.516,0,0.902-0.104,1.163-0.313C818.704,70.175,818.834,69.896,818.834,69.553z"/>
	</g>
</g>
<g>
	<g>
		<path d="M44.604,28.941H41.1v2.625h4.096v1.184h-5.578v-8.531h5.537v1.195H41.1v2.355h3.504V28.941z"/>
		<path d="M49.338,27.301l1.793-3.082h1.711l-2.578,4.23l2.637,4.301h-1.729l-1.834-3.129l-1.84,3.129h-1.723l2.643-4.301
			l-2.584-4.23h1.711L49.338,27.301z"/>
		<path d="M60.16,25.414H57.5v7.336h-1.471v-7.336h-2.637v-1.195h6.768V25.414z"/>
		<path d="M64.414,29.469h-1.652v3.281H61.28v-8.531h3c0.984,0,1.744,0.221,2.279,0.663c0.535,0.441,0.803,1.081,0.803,1.917
			c0,0.571-0.138,1.049-0.413,1.434c-0.275,0.386-0.659,0.682-1.151,0.889l1.916,3.553v0.076h-1.588L64.414,29.469z M62.762,28.273
			h1.523c0.5,0,0.891-0.126,1.172-0.378c0.281-0.252,0.422-0.597,0.422-1.034c0-0.457-0.13-0.811-0.39-1.061
			c-0.26-0.25-0.647-0.379-1.163-0.387h-1.564V28.273z"/>
		<path d="M73.543,30.764h-3.305l-0.691,1.986h-1.541l3.223-8.531h1.33l3.229,8.531h-1.547L73.543,30.764z M70.654,29.568h2.473
			l-1.236-3.539L70.654,29.568z"/>
		<path d="M83.141,29.973c-0.086,0.91-0.422,1.62-1.008,2.13c-0.586,0.51-1.365,0.765-2.338,0.765c-0.68,0-1.278-0.161-1.796-0.483
			c-0.518-0.322-0.917-0.78-1.198-1.374c-0.281-0.594-0.428-1.283-0.439-2.068v-0.797c0-0.805,0.143-1.514,0.428-2.127
			s0.694-1.086,1.228-1.418c0.534-0.332,1.149-0.498,1.849-0.498c0.941,0,1.699,0.255,2.273,0.765
			c0.574,0.51,0.908,1.231,1.002,2.165h-1.477c-0.07-0.613-0.249-1.056-0.536-1.327s-0.708-0.407-1.263-0.407
			c-0.645,0-1.14,0.235-1.485,0.707c-0.346,0.471-0.522,1.162-0.53,2.073v0.756c0,0.923,0.165,1.627,0.495,2.111
			c0.33,0.485,0.813,0.728,1.45,0.728c0.582,0,1.02-0.131,1.313-0.393c0.293-0.262,0.479-0.697,0.557-1.307L83.141,29.973
			L83.141,29.973z"/>
		<path d="M90.459,25.414h-2.66v7.336h-1.471v-7.336h-2.637v-1.195h6.768V25.414z"/>
		<path d="M93.143,32.75h-1.477v-8.531h1.477V32.75z"/>
		<path d="M101.773,28.707c0,0.836-0.145,1.569-0.434,2.2c-0.289,0.631-0.702,1.115-1.239,1.453
			c-0.537,0.338-1.155,0.507-1.854,0.507c-0.691,0-1.308-0.169-1.849-0.507c-0.541-0.338-0.959-0.819-1.254-1.444
			s-0.444-1.346-0.448-2.162v-0.48c0-0.832,0.147-1.566,0.442-2.203c0.295-0.637,0.711-1.124,1.248-1.462
			c0.537-0.338,1.153-0.507,1.849-0.507c0.696,0,1.312,0.167,1.849,0.501s0.952,0.814,1.245,1.441s0.441,1.356,0.445,2.188V28.707z
			 M100.291,28.262c0-0.945-0.179-1.67-0.536-2.174s-0.864-0.756-1.521-0.756c-0.641,0-1.142,0.251-1.503,0.753
			s-0.546,1.212-0.554,2.13v0.492c0,0.938,0.183,1.662,0.548,2.174c0.365,0.512,0.872,0.768,1.521,0.768
			c0.656,0,1.161-0.25,1.515-0.75c0.354-0.5,0.53-1.23,0.53-2.191V28.262z"/>
		<path d="M110.018,32.75h-1.483l-3.803-6.053v6.053h-1.482v-8.531h1.482l3.814,6.076v-6.076h1.471L110.018,32.75L110.018,32.75z"/>
	</g>
</g>
<g>
	<g>
		<path d="M762.578,32.75h-1.478v-8.531h1.478V32.75z"/>
		<path d="M771.168,32.75h-1.482l-3.803-6.053v6.053H764.4v-8.531h1.481l3.814,6.076v-6.076h1.471L771.168,32.75L771.168,32.75z"/>
		<path d="M777.379,30.553c0-0.375-0.132-0.664-0.396-0.867c-0.265-0.203-0.739-0.408-1.428-0.615
			c-0.688-0.207-1.233-0.438-1.641-0.691c-0.777-0.488-1.166-1.125-1.166-1.91c0-0.688,0.28-1.254,0.841-1.699
			c0.562-0.445,1.288-0.668,2.184-0.668c0.594,0,1.123,0.109,1.588,0.328c0.465,0.219,0.83,0.53,1.096,0.935
			c0.266,0.405,0.398,0.853,0.398,1.345h-1.478c0-0.445-0.14-0.794-0.419-1.046s-0.679-0.378-1.198-0.378
			c-0.483,0-0.859,0.104-1.128,0.311c-0.268,0.207-0.4,0.496-0.4,0.867c0,0.313,0.145,0.573,0.434,0.782s0.766,0.412,1.43,0.609
			c0.664,0.197,1.197,0.422,1.601,0.674c0.402,0.252,0.696,0.541,0.885,0.867s0.281,0.708,0.281,1.146
			c0,0.711-0.272,1.276-0.817,1.696c-0.545,0.42-1.284,0.63-2.218,0.63c-0.617,0-1.186-0.114-1.702-0.343s-0.92-0.544-1.207-0.946
			s-0.431-0.871-0.431-1.406h1.481c0,0.484,0.16,0.859,0.48,1.125c0.319,0.266,0.778,0.398,1.377,0.398
			c0.516,0,0.902-0.104,1.163-0.313C777.249,31.175,777.379,30.896,777.379,30.553z"/>
		<path d="M785.148,28.941h-3.505v2.625h4.097v1.184h-5.578v-8.531h5.537v1.195h-4.056v2.355h3.505V28.941z"/>
		<path d="M790.082,29.469h-1.652v3.281h-1.481v-8.531h3c0.983,0,1.744,0.221,2.278,0.663c0.535,0.441,0.804,1.081,0.804,1.917
			c0,0.571-0.139,1.049-0.413,1.434c-0.275,0.386-0.659,0.682-1.151,0.889l1.916,3.553v0.076h-1.588L790.082,29.469z M788.43,28.273
			h1.523c0.5,0,0.891-0.126,1.172-0.378s0.422-0.597,0.422-1.034c0-0.457-0.13-0.811-0.39-1.061
			c-0.261-0.25-0.647-0.379-1.163-0.387h-1.564V28.273L788.43,28.273z"/>
		<path d="M800.307,25.414h-2.659v7.336h-1.472v-7.336h-2.637v-1.195h6.768V25.414z"/>
		<path d="M802.99,32.75h-1.478v-8.531h1.478V32.75z"/>
		<path d="M811.621,28.707c0,0.836-0.146,1.569-0.435,2.2c-0.288,0.631-0.701,1.115-1.238,1.453
			c-0.537,0.338-1.155,0.507-1.854,0.507c-0.69,0-1.308-0.169-1.849-0.507c-0.541-0.338-0.959-0.819-1.254-1.444
			s-0.444-1.346-0.448-2.162v-0.48c0-0.832,0.146-1.566,0.442-2.203c0.295-0.637,0.711-1.124,1.247-1.462
			c0.537-0.338,1.153-0.507,1.85-0.507s1.312,0.167,1.849,0.501s0.952,0.814,1.245,1.441s0.441,1.356,0.445,2.188V28.707
			L811.621,28.707z M810.139,28.262c0-0.945-0.179-1.67-0.536-2.174c-0.356-0.504-0.863-0.756-1.521-0.756
			c-0.641,0-1.143,0.251-1.503,0.753c-0.361,0.502-0.546,1.212-0.554,2.13v0.492c0,0.938,0.183,1.662,0.548,2.174
			c0.364,0.512,0.872,0.768,1.521,0.768c0.656,0,1.161-0.25,1.516-0.75c0.354-0.5,0.529-1.23,0.529-2.191V28.262z"/>
		<path d="M819.865,32.75h-1.482l-3.803-6.053v6.053h-1.482v-8.531h1.482l3.814,6.076v-6.076h1.471V32.75L819.865,32.75z"/>
	</g>
</g>
<g>
	<g>
		<path fill="#096155" d="M134.393,50.764h-3.305l-0.691,1.986h-1.541l3.223-8.531h1.33l3.229,8.531h-1.548L134.393,50.764z
			 M131.504,49.568h2.473l-1.236-3.539L131.504,49.568z"/>
		<path fill="#096155" d="M137.604,52.75v-8.531h2.924c0.965,0,1.699,0.193,2.203,0.58c0.504,0.387,0.756,0.963,0.756,1.729
			c0,0.391-0.105,0.742-0.316,1.055s-0.52,0.555-0.926,0.727c0.461,0.125,0.817,0.36,1.069,0.706
			c0.252,0.346,0.378,0.761,0.378,1.245c0,0.801-0.257,1.416-0.771,1.846c-0.514,0.43-1.249,0.645-2.206,0.645h-3.111V52.75z
			 M139.086,47.811h1.453c0.461,0,0.821-0.104,1.081-0.313c0.26-0.209,0.39-0.505,0.39-0.888c0-0.422-0.12-0.727-0.36-0.914
			c-0.24-0.187-0.614-0.281-1.122-0.281h-1.441L139.086,47.811L139.086,47.811z M139.086,48.9v2.666h1.646
			c0.465,0,0.828-0.115,1.09-0.346c0.262-0.231,0.393-0.551,0.393-0.961c0-0.887-0.453-1.34-1.359-1.359H139.086z"/>
		<path fill="#096155" d="M149.633,50.553c0-0.375-0.132-0.664-0.396-0.867c-0.264-0.203-0.739-0.408-1.427-0.615
			c-0.688-0.207-1.234-0.438-1.641-0.691c-0.777-0.488-1.166-1.125-1.166-1.91c0-0.688,0.28-1.254,0.841-1.699
			c0.561-0.445,1.288-0.668,2.183-0.668c0.594,0,1.123,0.109,1.588,0.328c0.465,0.219,0.83,0.53,1.096,0.935
			c0.266,0.405,0.398,0.853,0.398,1.345h-1.477c0-0.445-0.14-0.794-0.419-1.046c-0.279-0.252-0.679-0.378-1.198-0.378
			c-0.484,0-0.86,0.104-1.128,0.311c-0.268,0.207-0.401,0.496-0.401,0.867c0,0.313,0.145,0.573,0.434,0.782s0.766,0.412,1.43,0.609
			c0.664,0.197,1.197,0.422,1.6,0.674c0.403,0.252,0.697,0.541,0.885,0.867s0.281,0.708,0.281,1.146
			c0,0.711-0.272,1.276-0.817,1.696c-0.545,0.42-1.284,0.63-2.218,0.63c-0.617,0-1.185-0.114-1.702-0.343s-0.92-0.544-1.207-0.946
			s-0.431-0.871-0.431-1.406h1.482c0,0.484,0.16,0.859,0.48,1.125c0.32,0.266,0.779,0.398,1.377,0.398
			c0.516,0,0.903-0.104,1.163-0.313C149.503,51.175,149.633,50.896,149.633,50.553z"/>
		<path fill="#096155" d="M159.225,48.707c0,0.836-0.145,1.569-0.434,2.2c-0.289,0.631-0.702,1.115-1.239,1.453
			c-0.537,0.338-1.155,0.507-1.854,0.507c-0.691,0-1.308-0.169-1.849-0.507c-0.541-0.338-0.959-0.819-1.254-1.444
			c-0.295-0.625-0.444-1.346-0.448-2.162v-0.48c0-0.832,0.147-1.566,0.442-2.203c0.295-0.637,0.711-1.124,1.248-1.462
			s1.153-0.507,1.849-0.507s1.312,0.167,1.849,0.501c0.537,0.334,0.952,0.814,1.245,1.441c0.293,0.627,0.441,1.356,0.445,2.188
			V48.707z M157.742,48.262c0-0.945-0.179-1.67-0.536-2.174s-0.864-0.756-1.521-0.756c-0.641,0-1.142,0.251-1.503,0.753
			c-0.361,0.502-0.546,1.212-0.554,2.13v0.492c0,0.938,0.183,1.662,0.548,2.174c0.365,0.512,0.872,0.768,1.521,0.768
			c0.656,0,1.161-0.25,1.515-0.75s0.53-1.23,0.53-2.191V48.262z"/>
		<path fill="#096155" d="M163.836,49.469h-1.652v3.281h-1.482v-8.531h3c0.984,0,1.744,0.221,2.279,0.663
			c0.535,0.441,0.803,1.081,0.803,1.917c0,0.571-0.138,1.049-0.413,1.434c-0.275,0.386-0.659,0.682-1.151,0.889l1.916,3.553v0.076
			h-1.588L163.836,49.469z M162.184,48.273h1.523c0.5,0,0.891-0.126,1.172-0.378c0.281-0.252,0.422-0.597,0.422-1.034
			c0-0.457-0.13-0.811-0.39-1.061c-0.26-0.25-0.647-0.379-1.163-0.387h-1.564V48.273L162.184,48.273z"/>
		<path fill="#096155" d="M168.189,52.75v-8.531h2.924c0.965,0,1.699,0.193,2.203,0.58c0.504,0.387,0.756,0.963,0.756,1.729
			c0,0.391-0.105,0.742-0.316,1.055s-0.52,0.555-0.926,0.727c0.461,0.125,0.817,0.36,1.069,0.706
			c0.252,0.346,0.378,0.761,0.378,1.245c0,0.801-0.257,1.416-0.771,1.846c-0.514,0.43-1.249,0.645-2.206,0.645h-3.111V52.75z
			 M169.672,47.811h1.453c0.461,0,0.821-0.104,1.081-0.313c0.26-0.209,0.39-0.505,0.39-0.888c0-0.422-0.12-0.727-0.36-0.914
			c-0.24-0.187-0.614-0.281-1.122-0.281h-1.441L169.672,47.811L169.672,47.811z M169.672,48.9v2.666h1.646
			c0.465,0,0.828-0.115,1.09-0.346c0.262-0.231,0.393-0.551,0.393-0.961c0-0.887-0.453-1.34-1.359-1.359H169.672z"/>
		<path fill="#096155" d="M180.746,48.941h-3.504v2.625h4.096v1.184h-5.578v-8.531h5.537v1.195h-4.055v2.355h3.504V48.941z"/>
		<path fill="#096155" d="M185.68,49.469h-1.652v3.281h-1.482v-8.531h3c0.984,0,1.744,0.221,2.279,0.663
			c0.535,0.441,0.803,1.081,0.803,1.917c0,0.571-0.138,1.049-0.413,1.434c-0.275,0.386-0.659,0.682-1.151,0.889l1.916,3.553v0.076
			h-1.588L185.68,49.469z M184.027,48.273h1.523c0.5,0,0.891-0.126,1.172-0.378c0.281-0.252,0.422-0.597,0.422-1.034
			c0-0.457-0.13-0.811-0.39-1.061c-0.26-0.25-0.647-0.379-1.163-0.387h-1.564V48.273L184.027,48.273z"/>
	</g>
</g>
<g>
	<path fill="#FEAE03" d="M675.393,50.764h-3.305l-0.69,1.986h-1.541l3.223-8.531h1.33l3.229,8.531h-1.547L675.393,50.764z
		 M672.504,49.568h2.473l-1.235-3.539L672.504,49.568z"/>
	<path fill="#FEAE03" d="M678.604,52.75v-8.531h2.521c0.754,0,1.423,0.168,2.007,0.504s1.036,0.813,1.356,1.43
		c0.319,0.617,0.479,1.324,0.479,2.121v0.428c0,0.809-0.161,1.52-0.482,2.133c-0.322,0.613-0.781,1.086-1.377,1.418
		c-0.597,0.332-1.278,0.498-2.049,0.498L678.604,52.75L678.604,52.75z M680.086,45.414v6.152h0.967c0.777,0,1.374-0.243,1.79-0.729
		c0.416-0.486,0.628-1.185,0.636-2.095v-0.475c0-0.926-0.2-1.633-0.604-2.121s-0.986-0.732-1.752-0.732H680.086z"/>
	<path fill="#FEAE03" d="M689.936,44.219h1.478v5.982c0,0.816-0.255,1.465-0.765,1.945c-0.511,0.48-1.184,0.721-2.02,0.721
		c-0.891,0-1.578-0.225-2.063-0.674c-0.485-0.449-0.728-1.074-0.728-1.875h1.478c0,0.453,0.111,0.794,0.337,1.022
		c0.225,0.228,0.55,0.343,0.976,0.343c0.398,0,0.716-0.132,0.952-0.396c0.236-0.264,0.354-0.628,0.354-1.093L689.936,44.219
		L689.936,44.219z"/>
	<path fill="#FEAE03" d="M699.346,44.219v5.701c0,0.906-0.29,1.624-0.87,2.153c-0.579,0.529-1.353,0.794-2.316,0.794
		c-0.978,0-1.752-0.261-2.326-0.782s-0.861-1.245-0.861-2.171v-5.695h1.478v5.707c0,0.57,0.145,1.006,0.434,1.307
		c0.289,0.301,0.715,0.451,1.277,0.451c1.141,0,1.711-0.602,1.711-1.805v-5.66H699.346z"/>
	<path fill="#FEAE03" d="M705.387,50.553c0-0.375-0.132-0.664-0.396-0.867c-0.265-0.203-0.739-0.408-1.427-0.615
		c-0.688-0.207-1.234-0.438-1.642-0.691c-0.776-0.488-1.166-1.125-1.166-1.91c0-0.688,0.28-1.254,0.841-1.699
		c0.562-0.445,1.288-0.668,2.184-0.668c0.594,0,1.123,0.109,1.588,0.328c0.465,0.219,0.83,0.53,1.096,0.935
		c0.267,0.405,0.398,0.853,0.398,1.345h-1.478c0-0.445-0.14-0.794-0.419-1.046c-0.278-0.252-0.679-0.378-1.197-0.378
		c-0.484,0-0.86,0.104-1.129,0.311c-0.268,0.207-0.4,0.496-0.4,0.867c0,0.313,0.145,0.573,0.434,0.782s0.767,0.412,1.431,0.609
		c0.663,0.197,1.196,0.422,1.6,0.674c0.403,0.252,0.697,0.541,0.885,0.867c0.188,0.326,0.281,0.708,0.281,1.146
		c0,0.711-0.272,1.276-0.817,1.696c-0.545,0.42-1.283,0.63-2.218,0.63c-0.617,0-1.185-0.114-1.702-0.343
		c-0.517-0.229-0.92-0.544-1.207-0.946s-0.431-0.871-0.431-1.406h1.481c0,0.484,0.16,0.859,0.48,1.125
		c0.32,0.266,0.779,0.398,1.377,0.398c0.516,0,0.903-0.104,1.163-0.313S705.387,50.896,705.387,50.553z"/>
	<path fill="#FEAE03" d="M714.334,45.414h-2.66v7.336h-1.471v-7.336h-2.637v-1.195h6.768V45.414z"/>
	<path fill="#FEAE03" d="M720.439,48.941h-3.505v2.625h4.097v1.184h-5.578v-8.531h5.537v1.195h-4.056v2.355h3.505V48.941z"/>
	<path fill="#FEAE03" d="M725.373,49.469h-1.652v3.281h-1.481v-8.531h3c0.983,0,1.744,0.221,2.278,0.663
		c0.535,0.441,0.804,1.081,0.804,1.917c0,0.571-0.139,1.049-0.413,1.434c-0.275,0.386-0.659,0.682-1.151,0.889l1.916,3.553v0.076
		h-1.588L725.373,49.469z M723.721,48.273h1.523c0.5,0,0.891-0.126,1.172-0.378s0.422-0.597,0.422-1.034
		c0-0.457-0.13-0.811-0.39-1.061c-0.261-0.25-0.647-0.379-1.163-0.387h-1.564V48.273L723.721,48.273z"/>
</g>
<g>
	<g>
		<path fill="#096155" d="M765.977,50.764h-3.305l-0.69,1.986h-1.541l3.223-8.531h1.33l3.229,8.531h-1.547L765.977,50.764z
			 M763.088,49.568h2.473l-1.235-3.539L763.088,49.568z"/>
		<path fill="#096155" d="M769.188,52.75v-8.531h2.925c0.965,0,1.698,0.193,2.203,0.58c0.504,0.387,0.756,0.963,0.756,1.729
			c0,0.391-0.105,0.742-0.316,1.055s-0.52,0.555-0.926,0.727c0.461,0.125,0.817,0.36,1.069,0.706
			c0.252,0.346,0.378,0.761,0.378,1.245c0,0.801-0.258,1.416-0.771,1.846s-1.249,0.645-2.206,0.645h-3.111V52.75z M770.67,47.811
			h1.453c0.461,0,0.821-0.104,1.081-0.313s0.39-0.505,0.39-0.888c0-0.422-0.12-0.727-0.359-0.914
			c-0.24-0.187-0.614-0.281-1.122-0.281h-1.441L770.67,47.811L770.67,47.811z M770.67,48.9v2.666h1.646
			c0.465,0,0.827-0.115,1.09-0.346c0.262-0.231,0.393-0.551,0.393-0.961c0-0.887-0.453-1.34-1.358-1.359H770.67z"/>
		<path fill="#096155" d="M781.217,50.553c0-0.375-0.132-0.664-0.396-0.867c-0.265-0.203-0.739-0.408-1.428-0.615
			c-0.688-0.207-1.233-0.438-1.641-0.691c-0.777-0.488-1.166-1.125-1.166-1.91c0-0.688,0.28-1.254,0.841-1.699
			c0.562-0.445,1.288-0.668,2.184-0.668c0.594,0,1.123,0.109,1.588,0.328c0.465,0.219,0.83,0.53,1.096,0.935
			c0.266,0.405,0.398,0.853,0.398,1.345h-1.478c0-0.445-0.14-0.794-0.419-1.046s-0.679-0.378-1.198-0.378
			c-0.483,0-0.859,0.104-1.128,0.311c-0.268,0.207-0.4,0.496-0.4,0.867c0,0.313,0.145,0.573,0.434,0.782s0.766,0.412,1.43,0.609
			c0.664,0.197,1.197,0.422,1.601,0.674c0.402,0.252,0.697,0.541,0.885,0.867c0.188,0.326,0.281,0.708,0.281,1.146
			c0,0.711-0.272,1.276-0.817,1.696c-0.545,0.42-1.284,0.63-2.218,0.63c-0.617,0-1.185-0.114-1.702-0.343
			c-0.517-0.229-0.92-0.544-1.207-0.946s-0.431-0.871-0.431-1.406h1.481c0,0.484,0.16,0.859,0.48,1.125
			c0.32,0.266,0.779,0.398,1.377,0.398c0.516,0,0.903-0.104,1.163-0.313S781.217,50.896,781.217,50.553z"/>
		<path fill="#096155" d="M790.809,48.707c0,0.836-0.145,1.569-0.434,2.2c-0.289,0.631-0.702,1.115-1.239,1.453
			c-0.537,0.338-1.155,0.507-1.854,0.507c-0.691,0-1.309-0.169-1.85-0.507c-0.541-0.338-0.959-0.819-1.254-1.444
			s-0.443-1.346-0.448-2.162v-0.48c0-0.832,0.147-1.566,0.442-2.203c0.295-0.637,0.711-1.124,1.248-1.462s1.153-0.507,1.849-0.507
			c0.696,0,1.313,0.167,1.85,0.501s0.952,0.814,1.245,1.441s0.44,1.356,0.444,2.188V48.707L790.809,48.707z M789.326,48.262
			c0-0.945-0.18-1.67-0.536-2.174c-0.357-0.504-0.864-0.756-1.521-0.756c-0.641,0-1.142,0.251-1.503,0.753
			c-0.36,0.502-0.546,1.212-0.554,2.13v0.492c0,0.938,0.183,1.662,0.548,2.174c0.365,0.512,0.872,0.768,1.521,0.768
			c0.655,0,1.161-0.25,1.515-0.75c0.354-0.5,0.53-1.23,0.53-2.191V48.262z"/>
		<path fill="#096155" d="M795.42,49.469h-1.652v3.281h-1.481v-8.531h3c0.983,0,1.744,0.221,2.279,0.663
			c0.534,0.441,0.803,1.081,0.803,1.917c0,0.571-0.138,1.049-0.413,1.434c-0.275,0.386-0.659,0.682-1.151,0.889l1.916,3.553v0.076
			h-1.588L795.42,49.469z M793.768,48.273h1.523c0.5,0,0.891-0.126,1.172-0.378s0.422-0.597,0.422-1.034
			c0-0.457-0.13-0.811-0.39-1.061s-0.647-0.379-1.163-0.387h-1.564V48.273L793.768,48.273z"/>
		<path fill="#096155" d="M799.773,52.75v-8.531h2.924c0.965,0,1.699,0.193,2.203,0.58c0.504,0.387,0.756,0.963,0.756,1.729
			c0,0.391-0.105,0.742-0.316,1.055s-0.52,0.555-0.926,0.727c0.461,0.125,0.817,0.36,1.069,0.706
			c0.252,0.346,0.378,0.761,0.378,1.245c0,0.801-0.258,1.416-0.771,1.846s-1.249,0.645-2.206,0.645h-3.11V52.75z M801.256,47.811
			h1.453c0.461,0,0.821-0.104,1.081-0.313s0.39-0.505,0.39-0.888c0-0.422-0.12-0.727-0.359-0.914
			c-0.24-0.187-0.614-0.281-1.122-0.281h-1.441L801.256,47.811L801.256,47.811z M801.256,48.9v2.666h1.646
			c0.465,0,0.828-0.115,1.09-0.346s0.393-0.551,0.393-0.961c0-0.887-0.453-1.34-1.358-1.359H801.256z"/>
		<path fill="#096155" d="M812.33,48.941h-3.504v2.625h4.096v1.184h-5.578v-8.531h5.537v1.195h-4.055v2.355h3.504V48.941z"/>
		<path fill="#096155" d="M817.264,49.469h-1.651v3.281h-1.482v-8.531h3c0.984,0,1.744,0.221,2.279,0.663
			c0.535,0.441,0.803,1.081,0.803,1.917c0,0.571-0.138,1.049-0.413,1.434c-0.275,0.386-0.659,0.682-1.15,0.889l1.916,3.553v0.076
			h-1.589L817.264,49.469z M815.611,48.273h1.522c0.5,0,0.892-0.126,1.172-0.378c0.281-0.252,0.423-0.597,0.423-1.034
			c0-0.457-0.131-0.811-0.391-1.061s-0.646-0.379-1.163-0.387h-1.563V48.273L815.611,48.273z"/>
	</g>
</g>
<g>
	<g>
		<path d="M394.196,44.219v5.701c0,0.906-0.29,1.624-0.87,2.153c-0.58,0.529-1.353,0.794-2.317,0.794
			c-0.977,0-1.752-0.261-2.326-0.782c-0.574-0.521-0.861-1.245-0.861-2.171v-5.695h1.477v5.707c0,0.57,0.145,1.006,0.434,1.307
			c0.289,0.301,0.715,0.451,1.277,0.451c1.141,0,1.711-0.602,1.711-1.805v-5.66H394.196z"/>
		<path d="M402.546,52.75h-1.482l-3.803-6.053v6.053h-1.482v-8.531h1.482l3.814,6.076v-6.076h1.471V52.75z"/>
		<path d="M405.862,52.75h-1.478v-8.531h1.478V52.75z"/>
		<path d="M413.679,45.414h-2.66v7.336h-1.471v-7.336h-2.637v-1.195h6.768V45.414z"/>
		<path d="M418.917,49.586v3.164h-1.482v-8.531h3.265c0.953,0,1.71,0.248,2.271,0.745c0.562,0.496,0.841,1.153,0.841,1.971
			c0,0.837-0.273,1.488-0.822,1.953c-0.549,0.466-1.317,0.698-2.307,0.698H418.917z M418.917,48.391h1.781
			c0.526,0,0.93-0.124,1.207-0.372c0.276-0.248,0.416-0.606,0.416-1.075c0-0.461-0.142-0.829-0.422-1.104
			c-0.281-0.275-0.668-0.417-1.16-0.425h-1.822V48.391z"/>
		<path d="M430.091,48.941h-3.504v2.625h4.096v1.184h-5.577v-8.531h5.536v1.195h-4.055v2.355h3.504V48.941z"/>
		<path d="M435.024,49.469h-1.652v3.281h-1.482v-8.531h3c0.984,0,1.744,0.221,2.279,0.663c0.535,0.441,0.803,1.081,0.803,1.917
			c0,0.571-0.138,1.049-0.413,1.434c-0.274,0.386-0.658,0.682-1.15,0.889l1.916,3.553v0.076h-1.588L435.024,49.469z M433.372,48.273
			h1.522c0.5,0,0.892-0.126,1.173-0.378c0.28-0.252,0.422-0.597,0.422-1.034c0-0.457-0.13-0.811-0.391-1.061
			c-0.26-0.25-0.646-0.379-1.163-0.387h-1.563V48.273z"/>
		<path d="M445.888,49.973c-0.086,0.91-0.422,1.62-1.008,2.13c-0.586,0.51-1.365,0.765-2.338,0.765c-0.68,0-1.278-0.161-1.796-0.483
			c-0.518-0.322-0.917-0.78-1.198-1.374c-0.281-0.594-0.428-1.283-0.438-2.068v-0.797c0-0.805,0.143-1.514,0.428-2.127
			s0.694-1.086,1.228-1.418c0.534-0.332,1.149-0.498,1.85-0.498c0.94,0,1.699,0.255,2.272,0.765c0.574,0.51,0.908,1.231,1.002,2.165
			h-1.477c-0.07-0.613-0.249-1.056-0.536-1.327s-0.708-0.407-1.263-0.407c-0.646,0-1.141,0.235-1.485,0.707
			c-0.346,0.471-0.521,1.162-0.53,2.073v0.756c0,0.923,0.165,1.627,0.495,2.111c0.33,0.485,0.813,0.728,1.45,0.728
			c0.582,0,1.021-0.131,1.313-0.393c0.293-0.262,0.479-0.697,0.557-1.307L445.888,49.973L445.888,49.973z"/>
		<path d="M452.198,48.941h-3.504v2.625h4.096v1.184h-5.578v-8.531h5.537v1.195h-4.055v2.355h3.504V48.941z"/>
		<path d="M460.765,52.75h-1.481l-3.803-6.053v6.053h-1.482v-8.531h1.482l3.813,6.076v-6.076h1.471V52.75z"/>
		<path d="M468.511,45.414h-2.66v7.336h-1.471v-7.336h-2.637v-1.195h6.768V45.414z"/>
	</g>
</g>
<g>
	<g>
		<path d="M373.647,533.586v3.164h-1.482v-8.531h3.264c0.953,0,1.71,0.248,2.271,0.745c0.561,0.496,0.841,1.153,0.841,1.971
			c0,0.838-0.274,1.488-0.823,1.953c-0.549,0.467-1.317,0.698-2.306,0.698H373.647z M373.647,532.391h1.781
			c0.527,0,0.93-0.124,1.207-0.372c0.277-0.248,0.416-0.605,0.416-1.074c0-0.461-0.141-0.829-0.422-1.104
			c-0.281-0.274-0.668-0.417-1.16-0.425h-1.822V532.391z"/>
		<path d="M386.644,532.707c0,0.836-0.145,1.569-0.434,2.2s-0.702,1.115-1.239,1.453c-0.537,0.338-1.155,0.507-1.854,0.507
			c-0.691,0-1.308-0.169-1.849-0.507s-0.959-0.819-1.254-1.444s-0.444-1.346-0.448-2.162v-0.479c0-0.832,0.147-1.566,0.442-2.203
			c0.295-0.638,0.711-1.124,1.248-1.462s1.153-0.507,1.849-0.507s1.312,0.166,1.849,0.5s0.952,0.814,1.245,1.441
			c0.293,0.627,0.441,1.356,0.445,2.188V532.707L386.644,532.707z M385.161,532.262c0-0.944-0.179-1.67-0.536-2.174
			s-0.864-0.756-1.521-0.756c-0.641,0-1.142,0.251-1.503,0.753s-0.546,1.212-0.554,2.13v0.492c0,0.938,0.183,1.662,0.548,2.174
			c0.365,0.513,0.872,0.769,1.521,0.769c0.656,0,1.161-0.25,1.515-0.75s0.53-1.23,0.53-2.191V532.262L385.161,532.262z"/>
		<path d="M394.812,534.641l1.313-6.422h1.471l-1.969,8.531h-1.418l-1.623-6.229l-1.658,6.229h-1.424l-1.969-8.531h1.471l1.324,6.41
			l1.629-6.41h1.242L394.812,534.641z"/>
		<path d="M403.665,532.941h-3.504v2.625h4.096v1.184h-5.578v-8.531h5.537v1.195h-4.055v2.354h3.504V532.941z"/>
		<path d="M408.599,533.469h-1.651v3.281h-1.482v-8.531h3c0.984,0,1.744,0.222,2.279,0.663s0.803,1.081,0.803,1.917
			c0,0.571-0.138,1.049-0.413,1.435c-0.274,0.386-0.659,0.682-1.15,0.889l1.916,3.553v0.076h-1.589L408.599,533.469z
			 M406.946,532.273h1.522c0.5,0,0.892-0.126,1.172-0.378c0.281-0.253,0.423-0.598,0.423-1.034c0-0.457-0.131-0.812-0.391-1.062
			s-0.646-0.379-1.163-0.387h-1.563V532.273z"/>
		<path d="M420.927,532.941h-3.504v2.625h4.096v1.184h-5.577v-8.531h5.536v1.195h-4.055v2.354h3.504V532.941z"/>
		<path d="M425.86,533.469h-1.652v3.281h-1.482v-8.531h3c0.984,0,1.744,0.222,2.279,0.663s0.803,1.081,0.803,1.917
			c0,0.571-0.138,1.049-0.413,1.435c-0.274,0.386-0.658,0.682-1.15,0.889l1.916,3.553v0.076h-1.588L425.86,533.469z
			 M424.208,532.273h1.523c0.5,0,0.891-0.126,1.172-0.378c0.28-0.253,0.422-0.598,0.422-1.034c0-0.457-0.13-0.812-0.391-1.062
			c-0.26-0.25-0.646-0.379-1.162-0.387h-1.564V532.273z"/>
		<path d="M433.349,533.469h-1.651v3.281h-1.482v-8.531h3c0.984,0,1.744,0.222,2.279,0.663s0.803,1.081,0.803,1.917
			c0,0.571-0.138,1.049-0.413,1.435c-0.274,0.386-0.659,0.682-1.15,0.889l1.916,3.553v0.076h-1.589L433.349,533.469z
			 M431.696,532.273h1.522c0.5,0,0.892-0.126,1.172-0.378c0.281-0.253,0.423-0.598,0.423-1.034c0-0.457-0.131-0.812-0.391-1.062
			s-0.646-0.379-1.163-0.387h-1.563V532.273z"/>
		<path d="M444.511,532.707c0,0.836-0.145,1.569-0.434,2.2s-0.702,1.115-1.239,1.453s-1.155,0.507-1.854,0.507
			c-0.691,0-1.309-0.169-1.85-0.507s-0.959-0.819-1.254-1.444s-0.444-1.346-0.448-2.162v-0.479c0-0.832,0.147-1.566,0.442-2.203
			c0.295-0.638,0.711-1.124,1.248-1.462s1.153-0.507,1.849-0.507c0.696,0,1.313,0.166,1.85,0.5s0.952,0.814,1.245,1.441
			s0.44,1.356,0.444,2.188V532.707L444.511,532.707z M443.028,532.262c0-0.944-0.18-1.67-0.536-2.174
			c-0.357-0.504-0.864-0.756-1.521-0.756c-0.641,0-1.142,0.251-1.503,0.753c-0.36,0.502-0.546,1.212-0.554,2.13v0.492
			c0,0.938,0.183,1.662,0.548,2.174c0.365,0.513,0.872,0.769,1.521,0.769c0.655,0,1.161-0.25,1.515-0.75s0.53-1.23,0.53-2.191
			V532.262L443.028,532.262z"/>
		<path d="M449.122,533.469h-1.652v3.281h-1.481v-8.531h3c0.983,0,1.744,0.222,2.278,0.663c0.535,0.441,0.804,1.081,0.804,1.917
			c0,0.571-0.139,1.049-0.413,1.435c-0.275,0.386-0.659,0.682-1.151,0.889l1.916,3.553v0.076h-1.588L449.122,533.469z
			 M447.47,532.273h1.523c0.5,0,0.891-0.126,1.172-0.378c0.281-0.253,0.422-0.598,0.422-1.034c0-0.457-0.13-0.812-0.39-1.062
			c-0.261-0.25-0.647-0.379-1.163-0.387h-1.564V532.273z"/>
		<path d="M463.272,532.707c0,0.836-0.146,1.569-0.435,2.2s-0.702,1.115-1.239,1.453s-1.154,0.507-1.854,0.507
			c-0.691,0-1.309-0.169-1.849-0.507c-0.541-0.338-0.96-0.819-1.255-1.444s-0.443-1.346-0.447-2.162v-0.479
			c0-0.832,0.146-1.566,0.441-2.203c0.295-0.638,0.711-1.124,1.248-1.462s1.153-0.507,1.85-0.507c0.695,0,1.312,0.166,1.849,0.5
			s0.952,0.814,1.245,1.441s0.44,1.356,0.444,2.188L463.272,532.707L463.272,532.707z M461.79,532.262
			c0-0.944-0.179-1.67-0.536-2.174s-0.864-0.756-1.521-0.756c-0.642,0-1.143,0.251-1.503,0.753c-0.361,0.502-0.547,1.212-0.555,2.13
			v0.492c0,0.938,0.184,1.662,0.548,2.174c0.365,0.513,0.872,0.769,1.521,0.769c0.656,0,1.161-0.25,1.515-0.75
			c0.354-0.5,0.53-1.23,0.53-2.191V532.262L461.79,532.262z"/>
		<path d="M471.517,536.75h-1.481l-3.803-6.053v6.053h-1.482v-8.531h1.482l3.813,6.076v-6.076h1.471V536.75z"/>
		<path d="M475.97,529.859c0-0.517,0.166-0.938,0.498-1.27s0.769-0.495,1.308-0.495c0.547,0,0.984,0.165,1.314,0.495
			s0.495,0.763,0.495,1.298v0.422c0,0.513-0.165,0.933-0.495,1.261s-0.765,0.491-1.304,0.491c-0.527,0-0.962-0.16-1.304-0.482
			c-0.343-0.322-0.514-0.757-0.514-1.304L475.97,529.859L475.97,529.859z M476.966,530.309c0,0.271,0.075,0.488,0.227,0.654
			c0.149,0.167,0.349,0.25,0.595,0.25c0.242,0,0.438-0.083,0.586-0.25c0.148-0.166,0.223-0.393,0.223-0.678v-0.43
			c0-0.271-0.074-0.489-0.226-0.657c-0.15-0.169-0.349-0.253-0.595-0.253s-0.442,0.085-0.59,0.256
			c-0.146,0.17-0.22,0.395-0.22,0.672V530.309z M478.079,536.111l-0.732-0.422l4.166-6.669l0.732,0.423L478.079,536.111z
			 M480.071,534.658c0-0.523,0.17-0.947,0.51-1.271c0.34-0.323,0.773-0.485,1.301-0.485c0.531,0,0.966,0.162,1.304,0.485
			c0.339,0.324,0.508,0.763,0.508,1.313v0.416c0,0.508-0.163,0.927-0.489,1.257s-0.763,0.495-1.311,0.495
			c-0.547,0-0.986-0.163-1.32-0.489s-0.501-0.757-0.501-1.292L480.071,534.658L480.071,534.658z M481.067,535.109
			c0,0.266,0.076,0.482,0.23,0.652s0.354,0.255,0.595,0.255c0.25,0,0.446-0.08,0.59-0.242c0.143-0.162,0.214-0.391,0.214-0.684
			v-0.438c0-0.273-0.076-0.492-0.229-0.656s-0.348-0.246-0.586-0.246c-0.242,0-0.438,0.082-0.589,0.246s-0.226,0.391-0.226,0.68
			L481.067,535.109L481.067,535.109z"/>
	</g>
</g>
<g>
	<g>
		<path d="M179.244,71.75h-1.418v-6.854l-2.092,0.713v-1.195l3.328-1.225h0.182V71.75z"/>
		<path d="M182.438,71.75v-8.531h2.924c0.965,0,1.699,0.193,2.203,0.58c0.504,0.387,0.756,0.963,0.756,1.729
			c0,0.391-0.105,0.742-0.316,1.055s-0.52,0.555-0.926,0.727c0.461,0.125,0.817,0.36,1.069,0.706
			c0.252,0.346,0.378,0.761,0.378,1.245c0,0.801-0.257,1.416-0.771,1.846c-0.514,0.43-1.249,0.645-2.206,0.645h-3.111V71.75z
			 M183.92,66.811h1.453c0.461,0,0.821-0.104,1.081-0.313c0.26-0.209,0.39-0.505,0.39-0.888c0-0.422-0.12-0.727-0.36-0.914
			c-0.24-0.187-0.614-0.281-1.122-0.281h-1.442V66.811z M183.92,67.9v2.666h1.646c0.465,0,0.828-0.115,1.09-0.346
			c0.262-0.231,0.393-0.551,0.393-0.961c0-0.887-0.453-1.34-1.359-1.359H183.92z"/>
		<path d="M194.783,69.764h-3.305l-0.691,1.986h-1.541l3.223-8.531h1.33l3.229,8.531h-1.548L194.783,69.764z M191.895,68.568h2.473
			l-1.236-3.539L191.895,68.568z"/>
		<path d="M204.762,71.75h-1.482l-3.803-6.053v6.053h-1.482v-8.531h1.482l3.814,6.076v-6.076h1.471V71.75z"/>
		<path d="M208.963,68.064l-0.967,1.025v2.66h-1.482v-8.531h1.482v4.002l0.82-1.014l2.496-2.988h1.793l-3.17,3.779l3.352,4.752
			h-1.758L208.963,68.064z"/>
	</g>
</g>
<g>
	<g>
		<path d="M655.244,71.75h-1.418v-6.854l-2.092,0.713v-1.195l3.328-1.225h0.182V71.75z"/>
		<path d="M658.438,71.75v-8.531h2.925c0.965,0,1.698,0.193,2.203,0.58c0.504,0.387,0.756,0.963,0.756,1.729
			c0,0.391-0.105,0.742-0.316,1.055s-0.52,0.555-0.926,0.727c0.461,0.125,0.817,0.36,1.069,0.706
			c0.252,0.346,0.378,0.761,0.378,1.245c0,0.801-0.258,1.416-0.771,1.846s-1.249,0.645-2.206,0.645h-3.111V71.75z M659.92,66.811
			h1.453c0.461,0,0.821-0.104,1.081-0.313s0.39-0.505,0.39-0.888c0-0.422-0.12-0.727-0.359-0.914
			c-0.24-0.187-0.614-0.281-1.122-0.281h-1.441L659.92,66.811L659.92,66.811z M659.92,67.9v2.666h1.646
			c0.465,0,0.827-0.115,1.09-0.346c0.262-0.231,0.393-0.551,0.393-0.961c0-0.887-0.453-1.34-1.358-1.359H659.92z"/>
		<path d="M670.783,69.764h-3.305l-0.691,1.986h-1.541l3.223-8.531h1.33l3.229,8.531h-1.547L670.783,69.764z M667.895,68.568h2.474
			l-1.236-3.539L667.895,68.568z"/>
		<path d="M680.762,71.75h-1.481l-3.804-6.053v6.053h-1.481v-8.531h1.481l3.814,6.076v-6.076h1.471V71.75L680.762,71.75z"/>
		<path d="M684.963,68.064l-0.967,1.025v2.66h-1.482v-8.531h1.482v4.002l0.82-1.014l2.496-2.988h1.793l-3.17,3.779l3.352,4.752
			h-1.758L684.963,68.064z"/>
	</g>
</g>
</svg>
