<?xml version="1.0" encoding="utf-8"?>
<!-- Generator: Adobe Illustrator 15.0.0, SVG Export Plug-In . SVG Version: 6.00 Build 0)  -->
<!DOCTYPE svg PUBLIC "-//W3C//DTD SVG 1.1//EN" "http://www.w3.org/Graphics/SVG/1.1/DTD/svg11.dtd">
<svg version="1.1" id="Layer_1" xmlns="http://www.w3.org/2000/svg" xmlns:xlink="http://www.w3.org/1999/xlink" x="0px" y="0px"
	 width="1200px" height="600px" viewBox="-90 0 1200 600" enable-background="new -90 0 1200 600" xml:space="preserve">
<path fill="none" stroke="#231F20" stroke-width="0.6" stroke-miterlimit="10" d="M481.208,259.46"/>
<polyline fill="none" stroke="#000000" stroke-width="1.4" stroke-miterlimit="10" points="814.521,255.569 814.521,463.068 
	795.8,463.068 "/>
<polyline fill="none" stroke="#000000" stroke-width="1.4" stroke-miterlimit="10" points="829.083,255.569 829.083,531.167 
	795.8,531.167 "/>
<g>
	<linearGradient id="SVGID_1_" gradientUnits="userSpaceOnUse" x1="758.1504" y1="187.8389" x2="758.1504" y2="262.497">
		<stop  offset="0" style="stop-color:#D9991E"/>
		<stop  offset="0.1697" style="stop-color:#F6C41E"/>
		<stop  offset="0.5" style="stop-color:#F6ED57"/>
		<stop  offset="0.8545" style="stop-color:#F6C41E"/>
		<stop  offset="1" style="stop-color:#D9991E"/>
	</linearGradient>
	<path fill="url(#SVGID_1_)" d="M662.098,262.076v-0.223c-18.479-1.891-32.824-17.876-32.824-36.803
		c0-18.923,14.345-34.907,32.824-36.797v-0.224h193.656v0.404c17.892,2.604,31.274,18.188,31.274,36.617
		c0,18.432-13.382,34.019-31.274,36.621v0.405H662.098z"/>
	<path fill="#020202" d="M854.754,189.029v0.28c17.61,2.126,31.274,17.304,31.274,35.741c0,18.44-13.664,33.621-31.274,35.746v0.28
		H663.098v-0.138c-18.355-1.399-32.824-16.911-32.824-35.888c0-18.973,14.469-34.484,32.824-35.883v-0.138H854.754 M856.754,187.029
		h-2H663.098h-2v0.331c-8.71,1.103-16.736,5.25-22.768,11.804c-6.485,7.048-10.057,16.241-10.057,25.886
		c0,9.647,3.571,18.841,10.057,25.89c6.031,6.554,14.058,10.703,22.768,11.805v0.331h2h191.656h2v-0.55
		c17.95-3.04,31.274-18.842,31.274-37.476c0-18.629-13.324-34.431-31.274-37.472V187.029L856.754,187.029z"/>
</g>
<circle fill="none" stroke="#231F20" stroke-miterlimit="10" cx="727.193" cy="223.643" r="8.652"/>
<path fill="none" stroke="#231F20" stroke-miterlimit="10" d="M636.291,227.527c1.993,0.079,3.743-0.961,5.402-1.9
	c1.893-1.071,3.612-1.713,5.634-2.421c4.824-1.689,7.509,0.751,11.959,2.347c3.312,1.187,4.826,1.645,8.416,1.645
	c1.778,0,3.608,0.124,5.229-0.523c2.153-0.86,3.877-1.326,5.922-2.354c1.451-0.73,3.059-1.687,4.804-1.397
	c1.715,0.285,5.057,0.89,6.655,1.765c3.366,1.843,6.258,1.27,9.628-0.133c2.992-1.246,6.16-1.643,9.523-1.643
	c1.596,0,3.378-0.623,4.801-0.177c1.831,0.574,2.446,2.602,4.598,2.319"/>
<path fill="none" stroke="#231F20" stroke-miterlimit="10" d="M737.155,223.242c1.676-1.282,6.599-0.33,8.896-0.33
	c2.036,0,4.071,0,6.106,0c4.497,0,7.725,2.369,12.195,2.641c8.175,0.498,15.529-3.89,23.604-2.813
	c4.353,0.58,7.426,3.139,12.019,3.139c2.732,0,4.081-0.325,6.531-1.326c2.045-0.836,4.729-1.423,6.958-1.653
	c4.093-0.422,8.537-0.188,12.214,1.578c3.905,1.876,7.146,0.658,11.059-0.279c1.841-0.441,3.44-1.06,5.241-1.411
	c2.225-0.434,4.273-1.248,6.472-1.656c2.239-0.416,2.07-0.397,4.335-0.069c2.246,0.326,2.899,1.741,4.57,3.082
	c1.829,1.468,2.762,0.221,4.688-0.825c1.763-0.957,3.428-1.749,5.48-1.891c4.451-0.307,9.071,4.714,13.147,6.12"/>
<polyline fill="none" stroke="#231F20" stroke-width="2" stroke-miterlimit="10" points="700.896,204.616 716.719,192.794 
	731.717,203.792 "/>
<line fill="none" stroke="#231F20" stroke-width="2" stroke-miterlimit="10" x1="716.719" y1="192.794" x2="716.719" y2="203.298"/>
<g>
	<polyline fill="none" stroke="#231F20" stroke-width="2" stroke-miterlimit="10" points="786.763,204.616 802.585,192.794 
		817.583,203.792 	"/>
	
		<line fill="none" stroke="#231F20" stroke-width="2" stroke-miterlimit="10" x1="802.585" y1="192.794" x2="802.585" y2="203.298"/>
</g>
<polyline fill="none" stroke="#000000" stroke-width="1.4" stroke-miterlimit="10" points="718.541,227.531 689.168,238.167 
	689.168,440.167 668.834,440.167 "/>
<g>
	<g>
		<path d="M777.24,248.821c0-0.375-0.133-0.664-0.396-0.867s-0.738-0.408-1.426-0.615s-1.234-0.438-1.641-0.691
			c-0.777-0.488-1.166-1.125-1.166-1.91c0-0.688,0.279-1.254,0.84-1.699s1.289-0.668,2.184-0.668c0.594,0,1.123,0.109,1.588,0.328
			s0.83,0.53,1.096,0.935s0.398,0.853,0.398,1.345h-1.477c0-0.445-0.141-0.794-0.42-1.046s-0.678-0.378-1.197-0.378
			c-0.484,0-0.861,0.104-1.129,0.311s-0.4,0.496-0.4,0.867c0,0.313,0.145,0.573,0.434,0.782s0.766,0.412,1.43,0.609
			s1.197,0.422,1.6,0.674s0.697,0.541,0.885,0.867s0.281,0.708,0.281,1.146c0,0.711-0.273,1.276-0.818,1.696s-1.283,0.63-2.217,0.63
			c-0.617,0-1.186-0.114-1.703-0.343s-0.92-0.544-1.207-0.946s-0.43-0.871-0.43-1.406h1.482c0,0.484,0.16,0.859,0.48,1.125
			s0.779,0.398,1.377,0.398c0.516,0,0.902-0.104,1.162-0.313S777.24,249.165,777.24,248.821z"/>
		<path d="M785.01,247.209h-3.504v2.625h4.096v1.184h-5.578v-8.531h5.537v1.195h-4.055v2.355h3.504V247.209z"/>
		<path d="M791.584,249.032h-3.305l-0.691,1.986h-1.541l3.223-8.531h1.33l3.229,8.531h-1.547L791.584,249.032z M788.695,247.836
			h2.473l-1.236-3.539L788.695,247.836z"/>
		<path d="M796.277,249.834h3.873v1.184h-5.355v-8.531h1.482V249.834z"/>
		<path d="M811.084,246.975c0,0.836-0.145,1.569-0.434,2.2s-0.703,1.115-1.24,1.453s-1.154,0.507-1.854,0.507
			c-0.691,0-1.309-0.169-1.85-0.507s-0.959-0.819-1.254-1.444s-0.443-1.346-0.447-2.162v-0.48c0-0.832,0.146-1.566,0.441-2.203
			s0.711-1.124,1.248-1.462s1.154-0.507,1.85-0.507s1.311,0.167,1.848,0.501s0.953,0.814,1.246,1.441s0.441,1.356,0.445,2.188
			V246.975z M809.602,246.53c0-0.945-0.18-1.67-0.537-2.174s-0.863-0.756-1.52-0.756c-0.641,0-1.143,0.251-1.504,0.753
			s-0.545,1.212-0.553,2.13v0.492c0,0.938,0.182,1.662,0.547,2.174s0.873,0.768,1.521,0.768c0.656,0,1.16-0.25,1.514-0.75
			s0.531-1.23,0.531-2.191V246.53z"/>
		<path d="M814.125,251.018h-1.477v-8.531h1.477V251.018z"/>
		<path d="M817.43,249.834h3.873v1.184h-5.355v-8.531h1.482V249.834z"/>
		<path d="M831.24,243.682h-2.66v7.336h-1.471v-7.336h-2.637v-1.195h6.768V243.682z"/>
		<path d="M836.432,249.032h-3.305l-0.691,1.986h-1.541l3.223-8.531h1.33l3.229,8.531h-1.547L836.432,249.032z M833.543,247.836
			h2.473l-1.236-3.539L833.543,247.836z"/>
		<path d="M846.41,251.018h-1.482l-3.803-6.053v6.053h-1.482v-8.531h1.482l3.814,6.076v-6.076h1.471V251.018z"/>
		<path d="M850.611,247.333l-0.967,1.025v2.66h-1.482v-8.531h1.482v4.002l0.82-1.014l2.496-2.988h1.793l-3.17,3.779l3.352,4.752
			h-1.758L850.611,247.333z"/>
	</g>
</g>
<polyline fill="none" stroke="#000000" stroke-width="1.4" stroke-miterlimit="10" points="855.834,201.167 899.501,201.167 
	899.501,531.167 926.168,531.167 "/>
<polyline fill="none" stroke="#000000" stroke-width="1.4" stroke-miterlimit="10" points="949.99,520.58 969.867,520.58 
	969.867,378.032 "/>
<g>
	<g>
		
			<linearGradient id="SVGID_2_" gradientUnits="userSpaceOnUse" x1="-644.0786" y1="621.5498" x2="-636.3826" y2="635.658" gradientTransform="matrix(0 -1 -1 0 1573.2363 -118.1641)">
			<stop  offset="0" style="stop-color:#FA9C40"/>
			<stop  offset="0.5" style="stop-color:#B0380F"/>
			<stop  offset="1" style="stop-color:#E36E40"/>
		</linearGradient>
		<rect x="934.268" y="514.569" fill="url(#SVGID_2_)" width="17.232" height="13.086"/>
		<g>
			
				<linearGradient id="SVGID_3_" gradientUnits="userSpaceOnUse" x1="-572.1318" y1="507.0459" x2="-551.8433" y2="525.8614" gradientTransform="matrix(-1 0 0 1 374.3291 9.7324)">
				<stop  offset="0" style="stop-color:#FA9C40"/>
				<stop  offset="0.5" style="stop-color:#B0380F"/>
				<stop  offset="1" style="stop-color:#E36E40"/>
			</linearGradient>
			<circle fill="url(#SVGID_3_)" cx="936.114" cy="526.374" r="12.125"/>
		</g>
		<linearGradient id="SVGID_4_" gradientUnits="userSpaceOnUse" x1="932.8975" y1="534.0586" x2="937.6045" y2="542.6874">
			<stop  offset="0" style="stop-color:#FA9C40"/>
			<stop  offset="0.5" style="stop-color:#B0380F"/>
			<stop  offset="1" style="stop-color:#E36E40"/>
		</linearGradient>
		<path fill="url(#SVGID_4_)" d="M948.241,540.129L948.241,540.129c0-1.265-0.751-2.291-1.676-2.291h-21.129
			c-0.925,0-1.676,1.026-1.676,2.291l0,0H948.241z"/>
	</g>
	<g opacity="0.6">
		<path d="M936.114,514.648c0.861,0,1.751,0.104,2.646,0.311l0.044,0.011h0.046H951.1v12.285h-2.928h-0.36l-0.037,0.358
			c-0.475,4.509-3.562,8.373-7.866,9.846l-2.274,0.779h2.404h6.527c0.6,0,1.118,0.65,1.246,1.49H924.19
			c0.128-0.84,0.646-1.49,1.246-1.49h6.754h2.404l-2.274-0.779c-4.746-1.623-7.934-6.078-7.934-11.086
			C924.387,519.908,929.647,514.648,936.114,514.648 M936.114,514.248c-6.698,0-12.128,5.426-12.128,12.125
			c0,5.322,3.435,9.833,8.204,11.465h-6.754c-0.925,0-1.676,1.026-1.676,2.291h24.48c0-1.265-0.751-2.291-1.676-2.291h-6.527
			c4.381-1.499,7.634-5.426,8.134-10.183h3.328v-13.086h-12.649C937.97,514.366,937.057,514.248,936.114,514.248L936.114,514.248z"
			/>
	</g>
	<g>
		<g>
			<path fill="#FFFFFF" d="M937.865,528.605c0-0.375-0.133-0.664-0.396-0.867s-0.738-0.408-1.426-0.615s-1.234-0.438-1.641-0.691
				c-0.777-0.488-1.166-1.125-1.166-1.91c0-0.688,0.279-1.254,0.84-1.699s1.289-0.668,2.184-0.668c0.594,0,1.123,0.109,1.588,0.328
				s0.83,0.53,1.096,0.935s0.398,0.853,0.398,1.345h-1.477c0-0.445-0.141-0.794-0.42-1.046s-0.678-0.378-1.197-0.378
				c-0.484,0-0.861,0.104-1.129,0.311s-0.4,0.496-0.4,0.867c0,0.313,0.145,0.573,0.434,0.782s0.766,0.412,1.43,0.609
				s1.197,0.422,1.6,0.674s0.697,0.541,0.885,0.867s0.281,0.708,0.281,1.146c0,0.711-0.273,1.276-0.818,1.696
				s-1.283,0.63-2.217,0.63c-0.617,0-1.186-0.114-1.703-0.343s-0.92-0.544-1.207-0.946s-0.43-0.871-0.43-1.406h1.482
				c0,0.484,0.16,0.859,0.48,1.125s0.779,0.398,1.377,0.398c0.516,0,0.902-0.104,1.162-0.313S937.865,528.949,937.865,528.605z"/>
		</g>
	</g>
	<linearGradient id="SVGID_5_" gradientUnits="userSpaceOnUse" x1="937.6299" y1="527.1885" x2="937.6299" y2="527.1885">
		<stop  offset="0" style="stop-color:#66A8E0"/>
		<stop  offset="0.497" style="stop-color:#003D57"/>
		<stop  offset="1" style="stop-color:#002140"/>
	</linearGradient>
	<path fill="url(#SVGID_5_)" d="M937.63,527.188"/>
	<linearGradient id="SVGID_6_" gradientUnits="userSpaceOnUse" x1="937.6299" y1="527.1885" x2="937.6299" y2="527.1885">
		<stop  offset="0" style="stop-color:#66A8E0"/>
		<stop  offset="0.497" style="stop-color:#003D57"/>
		<stop  offset="1" style="stop-color:#002140"/>
	</linearGradient>
	<path fill="url(#SVGID_6_)" d="M937.63,527.188"/>
</g>
<linearGradient id="SVGID_7_" gradientUnits="userSpaceOnUse" x1="788.9521" y1="527.1885" x2="788.9521" y2="527.1885">
	<stop  offset="0" style="stop-color:#66A8E0"/>
	<stop  offset="0.497" style="stop-color:#003D57"/>
	<stop  offset="1" style="stop-color:#002140"/>
</linearGradient>
<path fill="url(#SVGID_7_)" d="M788.952,527.188"/>
<linearGradient id="SVGID_8_" gradientUnits="userSpaceOnUse" x1="788.9521" y1="527.1885" x2="788.9521" y2="527.1885">
	<stop  offset="0" style="stop-color:#66A8E0"/>
	<stop  offset="0.497" style="stop-color:#003D57"/>
	<stop  offset="1" style="stop-color:#002140"/>
</linearGradient>
<path fill="url(#SVGID_8_)" d="M788.952,527.188"/>
<polyline fill="none" stroke="#000000" stroke-width="1.4" stroke-miterlimit="10" points="774.891,450.587 716.771,450.587 
	716.771,520.394 "/>
<line fill="none" stroke="#000000" stroke-width="1.4" stroke-miterlimit="10" x1="646.538" y1="428.393" x2="591.45" y2="428.393"/>
<polyline fill="none" stroke="#FF4200" stroke-width="1.4" stroke-miterlimit="10" points="157,198.705 157,213.99 506.5,213.99 
	506.5,490.37 461.616,490.37 "/>
<polyline fill="none" stroke="#FF4200" stroke-width="1.4" stroke-miterlimit="10" points="381.904,77 522.5,77 522.5,496.749 
	468.724,496.749 "/>
<polyline fill="none" stroke="#000000" stroke-width="1.4" stroke-miterlimit="10" points="270.291,259.46 354.5,259.46 
	354.5,296.437 "/>
<line fill="none" stroke="#000000" stroke-width="1.4" stroke-miterlimit="10" x1="270.291" y1="200.437" x2="270.291" y2="359.318"/>
<polyline fill="none" stroke="#000000" stroke-width="1.4" stroke-miterlimit="10" points="374.5,304.205 425.257,304.205 
	425.257,359.318 170.5,359.318 "/>
<polyline fill="none" stroke="#000000" stroke-width="1.4" stroke-miterlimit="10" points="312.396,198.705 312.396,236.5 
	563.467,236.5 563.467,293 "/>
<polyline fill="none" stroke="#000000" stroke-width="1.4" stroke-miterlimit="10" points="312.396,135 312.396,157 563.467,157 
	563.467,175 "/>
<line fill="none" stroke="#000000" stroke-width="1.4" stroke-miterlimit="10" x1="354.5" y1="121.622" x2="354.5" y2="180"/>
<polyline fill="none" stroke="#000000" stroke-width="1.4" stroke-miterlimit="10" points="410,121.622 410,223.643 213.5,223.643 
	213.5,292.757 60.5,292.757 60.5,121.622 "/>
<line fill="none" stroke="#000000" stroke-width="1.4" stroke-miterlimit="10" x1="114.5" y1="121.622" x2="114.5" y2="180"/>
<polyline fill="none" stroke="#000000" stroke-width="1.4" stroke-miterlimit="10" points="170.5,302.448 170.5,394.896 
	689.168,394.896 "/>
<line fill="none" stroke="#000000" stroke-width="1.4" stroke-miterlimit="10" x1="591.45" y1="394.896" x2="591.45" y2="520.394"/>
<g>
	<g>
		<path fill="#D8D8D8" d="M325.167,421.525c-14.684,0-26.629-11.946-26.629-26.63s11.946-26.629,26.629-26.629
			c14.683,0,26.629,11.945,26.629,26.629S339.85,421.525,325.167,421.525z"/>
		<path d="M325.167,368.566c14.518,0,26.329,11.812,26.329,26.329c0,14.519-11.811,26.33-26.329,26.33
			c-14.518,0-26.329-11.812-26.329-26.33C298.837,380.378,310.648,368.566,325.167,368.566 M325.167,367.967
			c-14.872,0-26.929,12.057-26.929,26.929c0,14.874,12.057,26.93,26.929,26.93c14.871,0,26.929-12.056,26.929-26.93
			C352.095,380.023,340.038,367.967,325.167,367.967L325.167,367.967z"/>
	</g>
	<g opacity="0.5">
		<path fill="#D8D8D8" d="M325.167,421.525c-14.684,0-26.629-11.946-26.629-26.63s11.946-26.629,26.629-26.629
			c14.683,0,26.629,11.945,26.629,26.629S339.85,421.525,325.167,421.525z"/>
		<path d="M325.167,368.566c14.518,0,26.329,11.812,26.329,26.329c0,14.519-11.811,26.33-26.329,26.33
			c-14.518,0-26.329-11.812-26.329-26.33C298.837,380.378,310.648,368.566,325.167,368.566 M325.167,367.967
			c-14.872,0-26.929,12.057-26.929,26.929c0,14.874,12.057,26.93,26.929,26.93c14.871,0,26.929-12.056,26.929-26.93
			C352.095,380.023,340.038,367.967,325.167,367.967L325.167,367.967z"/>
	</g>
</g>
<g>
	<g>
		<g>
			<path d="M318.675,384.316l2.689-4.623h2.566l-3.867,6.346l3.955,6.451h-2.593l-2.751-4.693l-2.76,4.693h-2.584l3.964-6.451
				l-3.876-6.346h2.566L318.675,384.316z"/>
		</g>
	</g>
	<g>
		<g>
			<path d="M331.675,399.648l2.689-4.623h2.566l-3.867,6.346l3.955,6.451h-2.593l-2.751-4.693l-2.76,4.693h-2.584l3.964-6.451
				l-3.876-6.346h2.566L331.675,399.648z"/>
		</g>
	</g>
</g>
<g>
	<line fill="none" stroke="#000000" stroke-width="1.4" stroke-miterlimit="10" x1="114.5" y1="302.448" x2="114.5" y2="361.057"/>
	<path fill="none" stroke="#000000" stroke-width="1.4" stroke-miterlimit="10" d="M126.576,350.369"/>
	<polyline fill="none" stroke="#000000" stroke-width="1.4" stroke-miterlimit="10" points="103.781,350.338 114.5,361.057 
		125.33,350.227 	"/>
</g>
<g>
	
		<line fill="none" stroke="#000000" stroke-width="1.4" stroke-miterlimit="10" x1="227.252" y1="428.505" x2="227.252" y2="394.896"/>
	<path fill="none" stroke="#000000" stroke-width="1.4" stroke-miterlimit="10" d="M215.176,405.584"/>
	<polyline fill="none" stroke="#000000" stroke-width="1.4" stroke-miterlimit="10" points="237.971,405.615 227.252,394.896 
		216.422,405.727 	"/>
</g>
<polyline fill="none" stroke="#000000" stroke-width="1.4" stroke-miterlimit="10" points="88.21,106.584 88.21,64.5 16.5,64.5 
	16.5,521.146 "/>
<polyline fill="none" stroke="#000000" stroke-width="1.4" stroke-miterlimit="10" points="779.429,520.58 -10.5,520.58 -10.5,42.5 
	381.789,42.5 381.789,116.326 "/>
<g>
	<rect x="45.08" y="106.884" fill="#898989" width="379.877" height="18.885"/>
	<g>
		<path d="M424.657,107.184v18.285H45.38v-18.285H424.657 M425.257,106.584H44.78v19.485h380.477V106.584L425.257,106.584z"/>
	</g>
</g>
<g>
	<rect x="129.923" y="87.126" fill="#D8D8D8" width="210.19" height="58.4"/>
	<g>
		<path d="M339.813,87.427v57.8h-209.59v-57.8H339.813 M340.413,86.827h-210.79v59h210.79V86.827L340.413,86.827z"/>
	</g>
</g>
<g>
	<g>
		<path d="M199.612,120.145c-0.412,0.537-0.982,0.943-1.711,1.219s-1.557,0.414-2.484,0.414c-0.953,0-1.797-0.216-2.531-0.648
			s-1.301-1.051-1.699-1.855s-0.605-1.744-0.621-2.816v-0.891c0-1.719,0.412-3.061,1.234-4.027s1.971-1.449,3.445-1.449
			c1.266,0,2.271,0.314,3.016,0.941s1.193,1.53,1.344,2.707h-1.938c-0.219-1.37-1.013-2.055-2.383-2.055
			c-0.885,0-1.559,0.319-2.02,0.956c-0.461,0.638-0.699,1.573-0.715,2.806v0.874c0,1.228,0.259,2.182,0.777,2.861
			s1.238,1.019,2.16,1.019c1.01,0,1.729-0.229,2.156-0.688v-2.227h-2.344v-1.5h4.313V120.145z"/>
		<path d="M208.432,116.543h-4.672v3.5h5.461v1.578h-7.438v-11.375h7.383v1.594h-5.406v3.141h4.672V116.543z"/>
		<path d="M219.854,121.622h-1.977l-5.07-8.07v8.07h-1.977v-11.375h1.977l5.086,8.102v-8.102h1.961V121.622z"/>
		<path d="M228.838,116.543h-4.672v3.5h5.461v1.578h-7.438v-11.375h7.383v1.594h-5.406v3.141h4.672V116.543z"/>
		<path d="M235.417,117.247h-2.203v4.375h-1.977v-11.375h4c1.313,0,2.326,0.294,3.039,0.883c0.713,0.589,1.07,1.441,1.07,2.557
			c0,0.761-0.184,1.398-0.551,1.912c-0.367,0.514-0.879,0.908-1.535,1.185l2.555,4.737v0.102h-2.117L235.417,117.247z
			 M233.213,115.653h2.031c0.667,0,1.188-0.168,1.563-0.504s0.563-0.795,0.563-1.379c0-0.609-0.173-1.081-0.52-1.414
			s-0.863-0.505-1.551-0.516h-2.086V115.653z"/>
		<path d="M247.588,118.973h-4.406l-0.922,2.648h-2.055l4.297-11.375h1.773l4.305,11.375h-2.063L247.588,118.973z M243.737,117.379
			h3.297l-1.648-4.719L243.737,117.379z"/>
		<path d="M259.151,111.84h-3.547v9.781h-1.961v-9.781h-3.516v-1.594h9.023V111.84z"/>
		<path d="M269.502,116.231c0,1.115-0.193,2.092-0.578,2.934s-0.936,1.487-1.652,1.938s-1.541,0.676-2.473,0.676
			c-0.922,0-1.744-0.225-2.465-0.676s-1.279-1.092-1.672-1.926s-0.592-1.794-0.598-2.883v-0.641c0-1.109,0.197-2.088,0.59-2.938
			s0.948-1.499,1.664-1.949s1.538-0.676,2.465-0.676s1.749,0.223,2.465,0.668s1.27,1.086,1.66,1.922s0.588,1.809,0.594,2.918
			V116.231z M267.526,115.637c0-1.26-0.238-2.227-0.715-2.898s-1.152-1.008-2.027-1.008c-0.854,0-1.522,0.334-2.004,1.004
			s-0.728,1.616-0.738,2.84v0.656c0,1.25,0.244,2.216,0.73,2.898s1.163,1.023,2.027,1.023c0.875,0,1.548-0.333,2.02-1
			s0.707-1.641,0.707-2.922V115.637z"/>
		<path d="M275.651,117.247h-2.203v4.375h-1.977v-11.375h4c1.313,0,2.326,0.294,3.039,0.883c0.713,0.589,1.07,1.441,1.07,2.557
			c0,0.761-0.184,1.398-0.551,1.912c-0.367,0.514-0.879,0.908-1.535,1.185l2.555,4.737v0.102h-2.117L275.651,117.247z
			 M273.448,115.653h2.031c0.667,0,1.188-0.168,1.563-0.504s0.563-0.795,0.563-1.379c0-0.609-0.173-1.081-0.52-1.414
			s-0.863-0.505-1.551-0.516h-2.086V115.653z"/>
	</g>
</g>
<g>
	<g>
		<path d="M434.15,544.006v3.691h-1.729v-9.953h3.808c1.112,0,1.995,0.29,2.649,0.869c0.654,0.58,0.981,1.346,0.981,2.3
			c0,0.977-0.32,1.735-0.96,2.278s-1.537,0.814-2.69,0.814H434.15z M434.15,542.611h2.078c0.615,0,1.084-0.145,1.408-0.434
			s0.485-0.707,0.485-1.254c0-0.538-0.164-0.968-0.492-1.289s-0.779-0.486-1.354-0.496h-2.126V542.611z"/>
		<path d="M448.964,544.457c-0.1,1.063-0.492,1.891-1.176,2.485s-1.593,0.892-2.728,0.892c-0.793,0-1.491-0.188-2.095-0.563
			s-1.07-0.91-1.398-1.603c-0.328-0.693-0.499-1.498-0.513-2.414v-0.93c0-0.938,0.167-1.766,0.499-2.48
			c0.333-0.716,0.81-1.268,1.432-1.654c0.622-0.388,1.341-0.582,2.157-0.582c1.098,0,1.982,0.298,2.652,0.893
			s1.06,1.437,1.169,2.525h-1.723c-0.082-0.715-0.291-1.23-0.625-1.548s-0.826-0.476-1.473-0.476c-0.752,0-1.33,0.275-1.733,0.825
			s-0.609,1.356-0.619,2.419v0.883c0,1.076,0.192,1.896,0.578,2.463c0.385,0.565,0.949,0.848,1.692,0.848
			c0.679,0,1.189-0.152,1.531-0.457c0.342-0.306,0.558-0.814,0.649-1.525H448.964z"/>
		<path d="M454.016,545.531l2.529-7.787h1.9l-3.582,9.953h-1.675l-3.568-9.953h1.894L454.016,545.531z"/>
		<path d="M464.01,543.535c-0.556,0.588-1.206,0.881-1.948,0.881c-0.875,0-1.572-0.307-2.092-0.919s-0.779-1.419-0.779-2.417
			c0-0.656,0.132-1.25,0.396-1.783s0.64-0.948,1.128-1.244c0.488-0.297,1.053-0.445,1.695-0.445c1.002,0,1.798,0.374,2.386,1.121
			c0.588,0.748,0.882,1.748,0.882,3.002v0.465c0,1.795-0.406,3.164-1.217,4.107s-2.021,1.422-3.63,1.436h-0.198v-1.373h0.239
			c0.98-0.014,1.732-0.25,2.256-0.708S463.946,544.492,464.01,543.535z M462.41,543.117c0.333,0,0.645-0.096,0.937-0.287
			s0.517-0.455,0.677-0.793v-0.648c0-0.734-0.15-1.324-0.451-1.771c-0.301-0.446-0.69-0.67-1.169-0.67s-0.86,0.197-1.145,0.592
			s-0.427,0.893-0.427,1.494c0,0.624,0.144,1.127,0.431,1.51S461.932,543.117,462.41,543.117z"/>
	</g>
</g>
<g>
	<rect x="109.176" y="178.145" fill="#D8D8D8" width="251.685" height="23.945"/>
	<path d="M360.56,178.445v23.345H109.476v-23.345H360.56 M361.16,177.845H108.876v24.545H361.16V177.845L361.16,177.845z"/>
</g>
<g>
	<g>
		<path d="M196.32,195.332h-1.477v-3.785h-3.814v3.785h-1.482v-8.531h1.482v3.551h3.814v-3.551h1.477V195.332z"/>
		<path d="M203.58,195.332h-5.736v-0.979l2.842-3.1c0.41-0.457,0.702-0.839,0.876-1.146s0.261-0.614,0.261-0.923
			c0-0.406-0.114-0.734-0.343-0.984s-0.536-0.375-0.923-0.375c-0.461,0-0.818,0.141-1.072,0.422s-0.381,0.666-0.381,1.154h-1.424
			c0-0.52,0.118-0.987,0.354-1.403s0.574-0.739,1.014-0.97s0.946-0.346,1.521-0.346c0.828,0,1.481,0.208,1.96,0.624
			s0.718,0.991,0.718,1.726c0,0.426-0.12,0.872-0.36,1.339s-0.634,0.997-1.181,1.591l-2.086,2.232h3.961V195.332z"/>
		<path d="M207.88,195.332v-8.531h2.52c0.754,0,1.423,0.168,2.007,0.504s1.036,0.813,1.356,1.43s0.48,1.324,0.48,2.121v0.428
			c0,0.809-0.161,1.52-0.483,2.133s-0.781,1.086-1.377,1.418s-1.278,0.498-2.048,0.498H207.88z M209.363,187.996v6.152h0.967
			c0.777,0,1.374-0.243,1.79-0.729s0.628-1.185,0.636-2.095v-0.475c0-0.926-0.201-1.633-0.604-2.121s-0.986-0.732-1.752-0.732
			H209.363z"/>
		<path d="M220.707,191.523h-3.504v2.625h4.096v1.184h-5.578v-8.531h5.537v1.195h-4.055v2.355h3.504V191.523z"/>
		<path d="M225.64,192.051h-1.652v3.281h-1.482v-8.531h3c0.984,0,1.744,0.221,2.279,0.663s0.803,1.081,0.803,1.918
			c0,0.571-0.138,1.048-0.413,1.434s-0.659,0.681-1.151,0.888l1.916,3.553v0.076h-1.588L225.64,192.051z M223.988,190.855h1.523
			c0.5,0,0.891-0.126,1.172-0.378s0.422-0.597,0.422-1.034c0-0.457-0.13-0.811-0.39-1.061s-0.647-0.379-1.163-0.387h-1.564V190.855z
			"/>
		<path d="M233.128,192.051h-1.652v3.281h-1.482v-8.531h3c0.984,0,1.744,0.221,2.279,0.663s0.803,1.081,0.803,1.918
			c0,0.571-0.138,1.048-0.413,1.434s-0.659,0.681-1.151,0.888l1.916,3.553v0.076h-1.588L233.128,192.051z M231.476,190.855H233
			c0.5,0,0.891-0.126,1.172-0.378s0.422-0.597,0.422-1.034c0-0.457-0.13-0.811-0.39-1.061s-0.647-0.379-1.163-0.387h-1.564V190.855z
			"/>
		<path d="M242.257,193.346h-3.305l-0.691,1.986h-1.541l3.223-8.531h1.33l3.229,8.531h-1.547L242.257,193.346z M239.369,192.15
			h2.473l-1.236-3.539L239.369,192.15z"/>
		<path d="M247.033,195.332h-1.477v-8.531h1.477V195.332z"/>
		<path d="M255.623,195.332h-1.482l-3.803-6.053v6.053h-1.482v-8.531h1.482l3.814,6.076v-6.076h1.471V195.332z"/>
		<path d="M264.822,193.135c0-0.375-0.132-0.664-0.396-0.867s-0.739-0.408-1.427-0.615s-1.234-0.438-1.641-0.691
			c-0.777-0.488-1.166-1.125-1.166-1.91c0-0.688,0.28-1.254,0.841-1.699s1.288-0.668,2.183-0.668c0.594,0,1.123,0.109,1.588,0.328
			s0.83,0.53,1.096,0.935s0.398,0.853,0.398,1.345h-1.477c0-0.445-0.14-0.794-0.419-1.046s-0.679-0.378-1.198-0.378
			c-0.484,0-0.86,0.104-1.128,0.311s-0.401,0.496-0.401,0.867c0,0.313,0.145,0.573,0.434,0.782s0.766,0.412,1.43,0.609
			s1.197,0.422,1.6,0.674s0.697,0.541,0.885,0.867s0.281,0.708,0.281,1.146c0,0.711-0.272,1.276-0.817,1.696s-1.284,0.63-2.218,0.63
			c-0.617,0-1.185-0.114-1.702-0.343s-0.92-0.544-1.207-0.946s-0.431-0.871-0.431-1.406h1.482c0,0.484,0.16,0.859,0.48,1.125
			s0.779,0.398,1.377,0.398c0.516,0,0.903-0.104,1.163-0.313S264.822,193.479,264.822,193.135z"/>
		<path d="M272.591,191.523h-3.504v2.625h4.096v1.184h-5.578v-8.531h5.537v1.195h-4.055v2.355h3.504V191.523z"/>
		<path d="M280.9,192.555c-0.086,0.91-0.422,1.62-1.008,2.13s-1.365,0.765-2.338,0.765c-0.68,0-1.278-0.161-1.796-0.483
			s-0.917-0.78-1.198-1.374s-0.428-1.283-0.439-2.068v-0.797c0-0.805,0.143-1.514,0.428-2.127s0.694-1.086,1.228-1.418
			s1.149-0.498,1.849-0.498c0.941,0,1.699,0.255,2.273,0.765s0.908,1.231,1.002,2.165h-1.477c-0.07-0.613-0.249-1.056-0.536-1.327
			s-0.708-0.407-1.263-0.407c-0.645,0-1.14,0.235-1.485,0.707s-0.522,1.163-0.53,2.073v0.757c0,0.922,0.165,1.626,0.495,2.111
			s0.813,0.727,1.45,0.727c0.582,0,1.02-0.131,1.313-0.393s0.479-0.697,0.557-1.307H280.9z"/>
	</g>
</g>
<g>
	<rect x="102.309" y="281.608" fill="#D8D8D8" width="82.977" height="22.297"/>
	<path d="M184.985,281.908v21.697h-82.376v-21.697H184.985 M185.585,281.308h-83.577v22.897h83.577V281.308L185.585,281.308z"/>
</g>
<g>
	<g>
		<rect x="262.746" y="269.603" fill="#D8D8D8" width="15.09" height="68.256"/>
		<path d="M277.535,269.903v67.656h-14.489v-67.656H277.535 M278.135,269.303h-15.689v68.856h15.689V269.303L278.135,269.303z"/>
	</g>
	<g opacity="0.5">
		<rect x="262.746" y="269.603" fill="#D8D8D8" width="15.09" height="68.256"/>
		<path d="M277.535,269.903v67.656h-14.489v-67.656H277.535 M278.135,269.303h-15.689v68.856h15.689V269.303L278.135,269.303z"/>
	</g>
	<g>
		<rect x="254.383" y="279.886" fill="#D8D8D8" width="31.815" height="47.69"/>
		<path d="M285.898,280.187v47.09h-31.215v-47.09H285.898 M286.498,279.586h-32.415v48.29h32.415V279.586L286.498,279.586z"/>
	</g>
	<g opacity="0.5">
		<rect x="254.383" y="279.886" fill="#D8D8D8" width="31.815" height="47.69"/>
		<path d="M285.898,280.187v47.09h-31.215v-47.09H285.898 M286.498,279.586h-32.415v48.29h32.415V279.586L286.498,279.586z"/>
	</g>
</g>
<g>
	<g>
		<path fill="#D8D8D8" d="M267.5,546.192c-14.683,0-26.629-11.946-26.629-26.63s11.946-26.629,26.629-26.629
			c14.684,0,26.63,11.945,26.63,26.629S282.183,546.192,267.5,546.192z"/>
		<path d="M267.5,493.233c14.518,0,26.33,11.812,26.33,26.329c0,14.519-11.812,26.33-26.33,26.33
			c-14.518,0-26.329-11.812-26.329-26.33C241.171,505.045,252.982,493.233,267.5,493.233 M267.5,492.634
			c-14.872,0-26.929,12.057-26.929,26.929c0,14.874,12.057,26.93,26.929,26.93c14.871,0,26.93-12.056,26.93-26.93
			C294.429,504.69,282.371,492.634,267.5,492.634L267.5,492.634z"/>
	</g>
	<g opacity="0.5">
		<path fill="#D8D8D8" d="M267.5,546.192c-14.683,0-26.629-11.946-26.629-26.63s11.946-26.629,26.629-26.629
			c14.684,0,26.63,11.945,26.63,26.629S282.183,546.192,267.5,546.192z"/>
		<path d="M267.5,493.233c14.518,0,26.33,11.812,26.33,26.329c0,14.519-11.812,26.33-26.33,26.33
			c-14.518,0-26.329-11.812-26.329-26.33C241.171,505.045,252.982,493.233,267.5,493.233 M267.5,492.634
			c-14.872,0-26.929,12.057-26.929,26.929c0,14.874,12.057,26.93,26.929,26.93c14.871,0,26.93-12.056,26.93-26.93
			C294.429,504.69,282.371,492.634,267.5,492.634L267.5,492.634z"/>
	</g>
</g>
<g>
	<g>
		<g>
			<path d="M261.008,508.982l2.689-4.623h2.566l-3.867,6.346l3.955,6.451h-2.593l-2.751-4.693l-2.76,4.693h-2.584l3.964-6.451
				l-3.876-6.346h2.566L261.008,508.982z"/>
		</g>
	</g>
	<g>
		<g>
			<path d="M274.008,524.316l2.689-4.623h2.566l-3.867,6.346l3.955,6.451h-2.593l-2.751-4.693l-2.76,4.693h-2.584l3.964-6.451
				l-3.876-6.346h2.566L274.008,524.316z"/>
		</g>
	</g>
</g>
<g>
	<g>
		<path fill="#231F20" d="M451.511,498.023v21.711h-4.979v-21.711H451.511 M452.261,497.273h-6.479v23.211h6.479V497.273
			L452.261,497.273z"/>
	</g>
	<g>
		<g>
			<linearGradient id="SVGID_9_" gradientUnits="userSpaceOnUse" x1="423.2212" y1="493.4648" x2="474.8218" y2="493.4648">
				<stop  offset="0" style="stop-color:#85878A"/>
				<stop  offset="0.5333" style="stop-color:#FFFFFF"/>
				<stop  offset="1" style="stop-color:#85878A"/>
			</linearGradient>
			<path fill="url(#SVGID_9_)" d="M449.021,498.879c-15.433,0-25.8-2.799-25.8-5.413c0-2.615,10.367-5.415,25.8-5.415
				c15.434,0,25.801,2.8,25.801,5.415C474.822,496.08,464.455,498.879,449.021,498.879z"/>
			<path fill="#231F20" d="M449.021,488.426c15.753,0,25.426,2.936,25.426,5.04c0,2.104-9.673,5.038-25.426,5.038
				c-15.752,0-25.425-2.935-25.425-5.038C423.596,491.361,433.269,488.426,449.021,488.426 M449.021,487.676
				c-14.456,0-26.175,2.593-26.175,5.79c0,3.196,11.719,5.788,26.175,5.788s26.176-2.592,26.176-5.788
				C475.197,490.269,463.477,487.676,449.021,487.676L449.021,487.676z"/>
		</g>
		<g>
			<linearGradient id="SVGID_10_" gradientUnits="userSpaceOnUse" x1="423.5288" y1="493.4648" x2="474.4795" y2="493.4648">
				<stop  offset="0" style="stop-color:#85878A"/>
				<stop  offset="0.5333" style="stop-color:#FFFFFF"/>
				<stop  offset="1" style="stop-color:#85878A"/>
			</linearGradient>
			<path fill="url(#SVGID_10_)" d="M424.919,494.919c-0.767,0-1.391-0.652-1.391-1.453c0-0.803,0.624-1.455,1.391-1.455h48.168
				c0.768,0,1.392,0.652,1.392,1.455c0,0.801-0.624,1.453-1.392,1.453H424.919z"/>
			<path fill="#231F20" d="M473.088,492.386c0.561,0,1.017,0.484,1.017,1.08c0,0.595-0.456,1.078-1.017,1.078h-48.168
				c-0.56,0-1.016-0.483-1.016-1.078c0-0.596,0.456-1.08,1.016-1.08H473.088 M473.088,491.636h-48.168
				c-0.975,0-1.766,0.818-1.766,1.83c0,1.01,0.791,1.828,1.766,1.828h48.168c0.975,0,1.767-0.818,1.767-1.828
				C474.854,492.454,474.063,491.636,473.088,491.636L473.088,491.636z"/>
		</g>
	</g>
	<g>
		<linearGradient id="SVGID_11_" gradientUnits="userSpaceOnUse" x1="449.0215" y1="520.457" x2="449.0215" y2="520.457">
			<stop  offset="0" style="stop-color:#85878A"/>
			<stop  offset="0.5333" style="stop-color:#FFFFFF"/>
			<stop  offset="1" style="stop-color:#85878A"/>
		</linearGradient>
		<path fill="url(#SVGID_11_)" stroke="#231F20" stroke-width="0.75" stroke-miterlimit="10" d="M449.021,520.457"/>
		<linearGradient id="SVGID_12_" gradientUnits="userSpaceOnUse" x1="449.0215" y1="529.542" x2="449.0215" y2="529.542">
			<stop  offset="0" style="stop-color:#85878A"/>
			<stop  offset="0.5333" style="stop-color:#FFFFFF"/>
			<stop  offset="1" style="stop-color:#85878A"/>
		</linearGradient>
		<path fill="url(#SVGID_12_)" stroke="#231F20" stroke-width="0.75" stroke-miterlimit="10" d="M449.021,529.542"/>
		<linearGradient id="SVGID_13_" gradientUnits="userSpaceOnUse" x1="459.0327" y1="511.9746" x2="459.0327" y2="530.1667">
			<stop  offset="0" style="stop-color:#85878A"/>
			<stop  offset="0.5333" style="stop-color:#FFFFFF"/>
			<stop  offset="1" style="stop-color:#85878A"/>
		</linearGradient>
		<polygon fill="url(#SVGID_13_)" stroke="#231F20" stroke-width="0.75" stroke-miterlimit="10" points="469.044,529.513 
			469.044,511.457 449.021,520.482 		"/>
		<linearGradient id="SVGID_14_" gradientUnits="userSpaceOnUse" x1="439.0103" y1="511.9746" x2="439.0103" y2="530.1667">
			<stop  offset="0" style="stop-color:#85878A"/>
			<stop  offset="0.5333" style="stop-color:#FFFFFF"/>
			<stop  offset="1" style="stop-color:#85878A"/>
		</linearGradient>
		<polygon fill="url(#SVGID_14_)" stroke="#231F20" stroke-width="0.75" stroke-miterlimit="10" points="428.999,511.457 
			428.999,529.513 449.021,520.482 		"/>
	</g>
</g>
<g>
	<g>
		<path d="M722.279,176.351h-1.652v3.281h-1.482v-8.531h3c0.984,0,1.744,0.221,2.279,0.663s0.803,1.081,0.803,1.918
			c0,0.571-0.139,1.048-0.414,1.434s-0.658,0.681-1.15,0.888l1.916,3.553v0.076h-1.588L722.279,176.351z M720.627,175.156h1.523
			c0.5,0,0.891-0.126,1.172-0.378s0.422-0.597,0.422-1.034c0-0.457-0.131-0.811-0.391-1.061s-0.646-0.379-1.162-0.387h-1.564
			V175.156z"/>
		<path d="M733.324,177.523l1.313-6.422h1.471l-1.969,8.531h-1.418l-1.623-6.229l-1.658,6.229h-1.424l-1.969-8.531h1.471l1.324,6.41
			l1.629-6.41h1.242L733.324,177.523z"/>
		<path d="M743.701,176.855c-0.086,0.91-0.422,1.62-1.008,2.13s-1.365,0.765-2.338,0.765c-0.68,0-1.279-0.161-1.797-0.483
			s-0.916-0.78-1.197-1.374s-0.428-1.283-0.439-2.068v-0.797c0-0.805,0.143-1.514,0.428-2.127s0.693-1.086,1.227-1.418
			s1.15-0.498,1.85-0.498c0.941,0,1.699,0.255,2.273,0.765s0.908,1.231,1.002,2.165h-1.477c-0.07-0.613-0.25-1.056-0.537-1.327
			s-0.707-0.407-1.262-0.407c-0.645,0-1.141,0.235-1.486,0.707s-0.521,1.163-0.529,2.073v0.757c0,0.922,0.164,1.626,0.494,2.111
			s0.814,0.727,1.451,0.727c0.582,0,1.02-0.131,1.313-0.393s0.479-0.697,0.557-1.307H743.701z"/>
		<path d="M746.59,179.632h-1.477v-8.531h1.477V179.632z"/>
		<path d="M751.547,176.351h-1.652v3.281h-1.482v-8.531h3c0.984,0,1.744,0.221,2.279,0.663s0.803,1.081,0.803,1.918
			c0,0.571-0.139,1.048-0.414,1.434s-0.658,0.681-1.15,0.888l1.916,3.553v0.076h-1.588L751.547,176.351z M749.895,175.156h1.523
			c0.5,0,0.891-0.126,1.172-0.378s0.422-0.597,0.422-1.034c0-0.457-0.131-0.811-0.391-1.061s-0.646-0.379-1.162-0.387h-1.564
			V175.156z"/>
		<path d="M763.348,177.435c0-0.375-0.133-0.664-0.396-0.867s-0.738-0.408-1.426-0.615s-1.234-0.438-1.641-0.691
			c-0.777-0.488-1.166-1.125-1.166-1.91c0-0.688,0.279-1.254,0.84-1.699s1.289-0.668,2.184-0.668c0.594,0,1.123,0.109,1.588,0.328
			s0.83,0.53,1.096,0.935s0.398,0.853,0.398,1.345h-1.477c0-0.445-0.141-0.794-0.42-1.046s-0.678-0.378-1.197-0.378
			c-0.484,0-0.861,0.104-1.129,0.311s-0.4,0.496-0.4,0.867c0,0.313,0.145,0.573,0.434,0.782s0.766,0.412,1.43,0.609
			s1.197,0.422,1.6,0.674s0.697,0.541,0.885,0.867s0.281,0.708,0.281,1.146c0,0.711-0.273,1.276-0.818,1.696s-1.283,0.63-2.217,0.63
			c-0.617,0-1.186-0.114-1.703-0.343s-0.92-0.544-1.207-0.946s-0.43-0.871-0.43-1.406h1.482c0,0.484,0.16,0.859,0.48,1.125
			s0.779,0.398,1.377,0.398c0.516,0,0.902-0.104,1.162-0.313S763.348,177.779,763.348,177.435z"/>
		<path d="M767.613,176.468v3.164h-1.482v-8.531h3.264c0.953,0,1.709,0.249,2.27,0.745s0.842,1.153,0.842,1.971
			c0,0.837-0.275,1.488-0.824,1.954c-0.549,0.465-1.316,0.698-2.305,0.698H767.613z M767.613,175.273h1.781
			c0.527,0,0.93-0.124,1.207-0.372s0.416-0.606,0.416-1.075c0-0.461-0.141-0.829-0.422-1.104s-0.668-0.417-1.16-0.425h-1.822
			V175.273z"/>
		<path d="M776.936,176.351h-1.652v3.281h-1.482v-8.531h3c0.984,0,1.744,0.221,2.279,0.663s0.803,1.081,0.803,1.918
			c0,0.571-0.139,1.048-0.414,1.434s-0.658,0.681-1.15,0.888l1.916,3.553v0.076h-1.588L776.936,176.351z M775.283,175.156h1.523
			c0.5,0,0.891-0.126,1.172-0.378s0.422-0.597,0.422-1.034c0-0.457-0.131-0.811-0.391-1.061s-0.646-0.379-1.162-0.387h-1.564
			V175.156z"/>
		<path d="M786.064,177.646h-3.305l-0.691,1.986h-1.541l3.223-8.531h1.33l3.229,8.531h-1.547L786.064,177.646z M783.176,176.451
			h2.473l-1.236-3.539L783.176,176.451z"/>
		<path d="M794.736,172.296h-2.66v7.336h-1.471v-7.336h-2.637v-1.195h6.768V172.296z"/>
	</g>
</g>
<g>
	<g>
		<path d="M722.613,75.941v3.691h-1.73v-9.953h3.809c1.111,0,1.994,0.29,2.648,0.869s0.98,1.346,0.98,2.299
			c0,0.977-0.32,1.736-0.96,2.279s-1.537,0.814-2.69,0.814H722.613z M722.613,74.546h2.078c0.615,0,1.084-0.145,1.408-0.434
			c0.323-0.29,0.484-0.708,0.484-1.254c0-0.538-0.164-0.967-0.492-1.289s-0.779-0.486-1.354-0.496h-2.125V74.546z"/>
		<path d="M733.488,75.804h-1.928v3.828h-1.729v-9.953h3.5c1.148,0,2.034,0.258,2.658,0.773c0.625,0.516,0.938,1.261,0.938,2.237
			c0,0.666-0.161,1.224-0.482,1.673s-0.77,0.795-1.344,1.037l2.236,4.145v0.089h-1.854L733.488,75.804z M731.561,74.41h1.777
			c0.584,0,1.039-0.147,1.367-0.441s0.492-0.696,0.492-1.207c0-0.533-0.15-0.946-0.454-1.237s-0.755-0.442-1.356-0.451h-1.826V74.41
			z"/>
		<path d="M746.512,74.916c0,0.975-0.169,1.831-0.506,2.567c-0.338,0.736-0.82,1.301-1.446,1.695s-1.348,0.591-2.163,0.591
			c-0.807,0-1.525-0.197-2.157-0.591s-1.118-0.956-1.463-1.685s-0.519-1.57-0.522-2.522V74.41c0-0.971,0.172-1.828,0.516-2.57
			s0.83-1.312,1.456-1.706s1.346-0.591,2.157-0.591c0.811,0,1.529,0.195,2.156,0.584s1.111,0.95,1.453,1.682s0.515,1.583,0.52,2.553
			V74.916z M744.781,74.396c0-1.103-0.208-1.948-0.625-2.536s-1.008-0.882-1.773-0.882c-0.748,0-1.332,0.293-1.754,0.878
			s-0.637,1.414-0.646,2.485v0.574c0,1.094,0.213,1.939,0.64,2.536s1.018,0.896,1.774,0.896c0.766,0,1.354-0.292,1.767-0.875
			s0.618-1.436,0.618-2.557V74.396z"/>
		<path d="M751.891,75.804h-1.928v3.828h-1.729v-9.953h3.5c1.148,0,2.034,0.258,2.658,0.773c0.625,0.516,0.938,1.261,0.938,2.237
			c0,0.666-0.161,1.224-0.482,1.673s-0.77,0.795-1.344,1.037l2.236,4.145v0.089h-1.854L751.891,75.804z M749.963,74.41h1.777
			c0.584,0,1.039-0.147,1.367-0.441s0.492-0.696,0.492-1.207c0-0.533-0.15-0.946-0.454-1.237s-0.755-0.442-1.356-0.451h-1.826V74.41
			z"/>
		<path d="M766.273,75.189h-4.088v3.063h4.779v1.381h-6.508v-9.953h6.459v1.395h-4.73v2.748h4.088V75.189z"/>
		<path d="M770.615,69.679l2.871,7.629l2.863-7.629h2.236v9.953h-1.723v-3.281l0.17-4.389l-2.939,7.67h-1.236l-2.934-7.663
			l0.172,4.382v3.281h-1.723v-9.953H770.615z"/>
		<path d="M786.447,75.189h-4.088v3.063h4.777v1.381h-6.508v-9.953h6.461v1.395h-4.73v2.748h4.088V75.189z"/>
		<path d="M792.203,75.804h-1.928v3.828h-1.73v-9.953h3.5c1.148,0,2.035,0.258,2.66,0.773c0.624,0.516,0.936,1.261,0.936,2.237
			c0,0.666-0.16,1.224-0.481,1.673s-0.769,0.795-1.343,1.037l2.234,4.145v0.089h-1.852L792.203,75.804z M790.275,74.41h1.777
			c0.583,0,1.039-0.147,1.367-0.441s0.492-0.696,0.492-1.207c0-0.533-0.152-0.946-0.455-1.237s-0.756-0.442-1.357-0.451h-1.824
			V74.41z"/>
		<path d="M805.971,77.069c0-0.438-0.154-0.775-0.462-1.012s-0.862-0.476-1.665-0.718c-0.802-0.242-1.439-0.51-1.914-0.807
			c-0.906-0.57-1.359-1.313-1.359-2.229c0-0.802,0.326-1.463,0.98-1.982s1.503-0.779,2.547-0.779c0.692,0,1.31,0.127,1.852,0.383
			c0.543,0.255,0.969,0.619,1.279,1.09c0.31,0.472,0.465,0.995,0.465,1.569h-1.723c0-0.52-0.164-0.926-0.489-1.22
			s-0.792-0.441-1.397-0.441c-0.565,0-1.004,0.121-1.316,0.362s-0.469,0.579-0.469,1.012c0,0.365,0.169,0.669,0.506,0.913
			c0.338,0.244,0.894,0.481,1.668,0.711c0.775,0.23,1.397,0.492,1.867,0.786c0.469,0.294,0.813,0.631,1.031,1.012
			s0.328,0.826,0.328,1.336c0,0.83-0.317,1.489-0.953,1.979s-1.498,0.735-2.588,0.735c-0.72,0-1.381-0.133-1.985-0.4
			s-1.073-0.635-1.408-1.104s-0.503-1.016-0.503-1.641h1.73c0,0.565,0.187,1.002,0.561,1.313c0.373,0.31,0.908,0.465,1.605,0.465
			c0.602,0,1.055-0.122,1.357-0.366S805.971,77.47,805.971,77.069z"/>
		<path d="M815.035,75.189h-4.088v3.063h4.777v1.381h-6.508v-9.953h6.461v1.395h-4.73v2.748h4.088V75.189z"/>
		<path d="M822.705,77.315h-3.855l-0.807,2.317h-1.799l3.76-9.953h1.553l3.766,9.953h-1.805L822.705,77.315z M819.334,75.92h2.885
			l-1.441-4.129L819.334,75.92z"/>
		<path d="M828.18,78.251h4.52v1.381h-6.248v-9.953h1.729V78.251z"/>
		<path d="M845.455,74.916c0,0.975-0.169,1.831-0.506,2.567c-0.338,0.736-0.82,1.301-1.446,1.695s-1.348,0.591-2.163,0.591
			c-0.807,0-1.525-0.197-2.157-0.591s-1.118-0.956-1.463-1.685s-0.519-1.57-0.522-2.522V74.41c0-0.971,0.172-1.828,0.516-2.57
			s0.83-1.312,1.456-1.706s1.346-0.591,2.157-0.591c0.811,0,1.529,0.195,2.156,0.584s1.111,0.95,1.453,1.682s0.515,1.583,0.52,2.553
			V74.916z M843.725,74.396c0-1.103-0.208-1.948-0.625-2.536s-1.008-0.882-1.773-0.882c-0.748,0-1.332,0.293-1.754,0.878
			s-0.637,1.414-0.646,2.485v0.574c0,1.094,0.213,1.939,0.64,2.536s1.018,0.896,1.774,0.896c0.766,0,1.354-0.292,1.767-0.875
			s0.618-1.436,0.618-2.557V74.396z"/>
		<path d="M849.002,79.632h-1.723v-9.953h1.723V79.632z"/>
		<path d="M852.857,78.251h4.52v1.381h-6.248v-9.953h1.729V78.251z"/>
		<path d="M863.918,75.941v3.691h-1.729v-9.953h3.807c1.112,0,1.996,0.29,2.649,0.869s0.981,1.346,0.981,2.299
			c0,0.977-0.32,1.736-0.961,2.279s-1.537,0.814-2.689,0.814H863.918z M863.918,74.546h2.078c0.615,0,1.085-0.145,1.408-0.434
			c0.324-0.29,0.486-0.708,0.486-1.254c0-0.538-0.164-0.967-0.492-1.289s-0.779-0.486-1.354-0.496h-2.127V74.546z"/>
		<path d="M878.418,69.679v6.651c0,1.057-0.339,1.895-1.016,2.512s-1.578,0.926-2.703,0.926c-1.14,0-2.045-0.304-2.715-0.913
			s-1.004-1.453-1.004-2.533v-6.645h1.723v6.658c0,0.666,0.168,1.173,0.506,1.524c0.337,0.351,0.834,0.526,1.49,0.526
			c1.33,0,1.996-0.702,1.996-2.105v-6.604H878.418z"/>
		<path d="M882.506,69.679l2.871,7.629l2.863-7.629h2.236v9.953h-1.723v-3.281l0.17-4.389l-2.939,7.67h-1.236l-2.934-7.663
			l0.172,4.382v3.281h-1.723v-9.953H882.506z"/>
		<path d="M894.25,75.941v3.691h-1.73v-9.953h3.809c1.111,0,1.994,0.29,2.648,0.869s0.98,1.346,0.98,2.299
			c0,0.977-0.32,1.736-0.96,2.279s-1.537,0.814-2.69,0.814H894.25z M894.25,74.546h2.078c0.615,0,1.084-0.145,1.408-0.434
			c0.323-0.29,0.484-0.708,0.484-1.254c0-0.538-0.164-0.967-0.492-1.289s-0.779-0.486-1.354-0.496h-2.125V74.546z"/>
		<path d="M743.217,103.189h-4.088v3.063h4.777v1.381h-6.508v-9.953h6.461v1.395h-4.73v2.748h4.088V103.189z"/>
		<path d="M750.518,105.069c0-0.438-0.154-0.775-0.462-1.012s-0.862-0.476-1.665-0.718c-0.802-0.242-1.439-0.51-1.914-0.807
			c-0.906-0.57-1.359-1.313-1.359-2.229c0-0.802,0.326-1.463,0.98-1.982s1.503-0.779,2.547-0.779c0.692,0,1.31,0.127,1.852,0.383
			c0.543,0.255,0.969,0.619,1.279,1.09c0.31,0.472,0.465,0.995,0.465,1.569h-1.723c0-0.52-0.164-0.926-0.489-1.22
			s-0.792-0.441-1.397-0.441c-0.565,0-1.004,0.121-1.316,0.362s-0.469,0.579-0.469,1.012c0,0.365,0.169,0.669,0.506,0.913
			c0.338,0.244,0.894,0.481,1.668,0.711c0.775,0.23,1.397,0.492,1.867,0.786c0.469,0.294,0.813,0.631,1.031,1.012
			s0.328,0.826,0.328,1.336c0,0.83-0.317,1.489-0.953,1.979s-1.498,0.735-2.588,0.735c-0.72,0-1.381-0.133-1.985-0.4
			s-1.073-0.635-1.408-1.104s-0.503-1.016-0.503-1.641h1.73c0,0.565,0.187,1.002,0.561,1.313c0.373,0.31,0.908,0.465,1.605,0.465
			c0.602,0,1.055-0.122,1.357-0.366S750.518,105.47,750.518,105.069z"/>
		<path d="M761.707,102.916c0,0.975-0.168,1.831-0.506,2.567c-0.337,0.736-0.818,1.301-1.445,1.695s-1.348,0.591-2.164,0.591
			c-0.807,0-1.525-0.197-2.156-0.591s-1.119-0.956-1.463-1.685s-0.519-1.57-0.523-2.522v-0.561c0-0.971,0.172-1.828,0.517-2.57
			s0.829-1.312,1.456-1.706s1.346-0.591,2.156-0.591c0.812,0,1.531,0.195,2.157,0.584s1.11,0.95,1.452,1.682s0.516,1.583,0.52,2.553
			V102.916z M759.979,102.396c0-1.103-0.209-1.948-0.626-2.536s-1.009-0.882-1.774-0.882c-0.747,0-1.332,0.293-1.753,0.878
			s-0.637,1.414-0.646,2.485v0.574c0,1.094,0.213,1.939,0.639,2.536s1.018,0.896,1.773,0.896c0.766,0,1.355-0.292,1.768-0.875
			s0.619-1.436,0.619-2.557V102.396z"/>
		<path d="M765.16,103.941v3.691h-1.73v-9.953h3.809c1.111,0,1.994,0.29,2.648,0.869s0.98,1.346,0.98,2.299
			c0,0.977-0.32,1.736-0.96,2.279s-1.537,0.814-2.69,0.814H765.16z M765.16,102.546h2.078c0.615,0,1.084-0.145,1.408-0.434
			c0.323-0.29,0.484-0.708,0.484-1.254c0-0.538-0.164-0.967-0.492-1.289s-0.779-0.486-1.354-0.496h-2.125V102.546z"/>
		<path d="M778.107,97.679l2.871,7.629l2.863-7.629h2.236v9.953h-1.723v-3.281l0.17-4.389l-2.939,7.67h-1.236l-2.934-7.663
			l0.172,4.382v3.281h-1.723v-9.953H778.107z"/>
		<path d="M796.064,102.916c0,0.975-0.168,1.831-0.506,2.567c-0.337,0.736-0.818,1.301-1.445,1.695s-1.348,0.591-2.164,0.591
			c-0.807,0-1.525-0.197-2.156-0.591s-1.119-0.956-1.463-1.685s-0.519-1.57-0.523-2.522v-0.561c0-0.971,0.172-1.828,0.517-2.57
			s0.829-1.312,1.456-1.706s1.346-0.591,2.156-0.591c0.812,0,1.531,0.195,2.157,0.584s1.11,0.95,1.452,1.682s0.516,1.583,0.52,2.553
			V102.916z M794.336,102.396c0-1.103-0.209-1.948-0.626-2.536s-1.009-0.882-1.774-0.882c-0.747,0-1.332,0.293-1.753,0.878
			s-0.637,1.414-0.646,2.485v0.574c0,1.094,0.213,1.939,0.639,2.536s1.018,0.896,1.773,0.896c0.766,0,1.355-0.292,1.768-0.875
			s0.619-1.436,0.619-2.557V102.396z"/>
		<path d="M804.398,99.074h-3.104v8.559h-1.717v-8.559h-3.076v-1.395h7.896V99.074z"/>
		<path d="M813.455,102.916c0,0.975-0.168,1.831-0.506,2.567c-0.337,0.736-0.818,1.301-1.445,1.695s-1.348,0.591-2.164,0.591
			c-0.807,0-1.525-0.197-2.156-0.591s-1.119-0.956-1.463-1.685s-0.519-1.57-0.523-2.522v-0.561c0-0.971,0.172-1.828,0.517-2.57
			s0.829-1.312,1.456-1.706s1.346-0.591,2.156-0.591c0.812,0,1.531,0.195,2.157,0.584s1.11,0.95,1.452,1.682s0.516,1.583,0.52,2.553
			V102.916z M811.727,102.396c0-1.103-0.209-1.948-0.626-2.536s-1.009-0.882-1.774-0.882c-0.747,0-1.332,0.293-1.753,0.878
			s-0.637,1.414-0.646,2.485v0.574c0,1.094,0.213,1.939,0.639,2.536s1.018,0.896,1.773,0.896c0.766,0,1.355-0.292,1.768-0.875
			s0.619-1.436,0.619-2.557V102.396z"/>
		<path d="M818.836,103.804h-1.928v3.828h-1.73v-9.953h3.5c1.148,0,2.035,0.258,2.66,0.773c0.624,0.516,0.936,1.261,0.936,2.237
			c0,0.666-0.16,1.224-0.481,1.673s-0.769,0.795-1.343,1.037l2.234,4.145v0.089h-1.852L818.836,103.804z M816.908,102.41h1.777
			c0.583,0,1.039-0.147,1.367-0.441s0.492-0.696,0.492-1.207c0-0.533-0.152-0.946-0.455-1.237s-0.756-0.442-1.357-0.451h-1.824
			V102.41z"/>
		<path d="M835.303,107.632h-1.723v-4.416h-4.449v4.416h-1.73v-9.953h1.73v4.143h4.449v-4.143h1.723V107.632z"/>
		<path d="M839.172,107.632h-1.723v-9.953h1.723V107.632z"/>
		<path d="M848.928,106.34c-0.36,0.469-0.859,0.825-1.498,1.066c-0.638,0.242-1.362,0.362-2.174,0.362
			c-0.834,0-1.572-0.189-2.215-0.567s-1.138-0.919-1.486-1.624s-0.529-1.525-0.543-2.464v-0.779c0-1.504,0.359-2.679,1.08-3.524
			c0.72-0.845,1.725-1.268,3.014-1.268c1.107,0,1.987,0.274,2.639,0.824c0.652,0.549,1.044,1.339,1.176,2.369h-1.695
			c-0.191-1.199-0.886-1.798-2.084-1.798c-0.775,0-1.364,0.279-1.768,0.836c-0.403,0.558-0.611,1.376-0.625,2.456v0.765
			c0,1.075,0.227,1.909,0.68,2.503s1.084,0.891,1.891,0.891c0.884,0,1.513-0.201,1.887-0.602v-1.948h-2.051v-1.313h3.773V106.34z"/>
		<path d="M858.73,107.632h-1.723v-4.416h-4.451v4.416h-1.729v-9.953h1.729v4.143h4.451v-4.143h1.723V107.632z"/>
		<path d="M871.041,99.074h-3.104v8.559h-1.715v-8.559h-3.076v-1.395h7.895V99.074z"/>
		<path d="M878.164,103.189h-4.088v3.063h4.779v1.381h-6.508v-9.953h6.459v1.395h-4.73v2.748h4.088V103.189z"/>
		<path d="M882.506,97.679l2.871,7.629l2.863-7.629h2.236v9.953h-1.723v-3.281l0.17-4.389l-2.939,7.67h-1.236l-2.934-7.663
			l0.172,4.382v3.281h-1.723v-9.953H882.506z"/>
		<path d="M894.25,103.941v3.691h-1.73v-9.953h3.809c1.111,0,1.994,0.29,2.648,0.869s0.98,1.346,0.98,2.299
			c0,0.977-0.32,1.736-0.96,2.279s-1.537,0.814-2.69,0.814H894.25z M894.25,102.546h2.078c0.615,0,1.084-0.145,1.408-0.434
			c0.323-0.29,0.484-0.708,0.484-1.254c0-0.538-0.164-0.967-0.492-1.289s-0.779-0.486-1.354-0.496h-2.125V102.546z"/>
	</g>
</g>
<g>
	<g>
		<path d="M586.802,175.888h3.55v1.085h-4.908v-7.82h1.358V175.888z"/>
		<path d="M592.828,176.973h-1.354v-7.82h1.354V176.973z"/>
		<path d="M600.713,173.267c0,0.741-0.117,1.383-0.352,1.925c-0.234,0.543-0.563,0.973-0.986,1.292l1.344,1.047l-0.881,0.795
			l-1.666-1.316c-0.218,0.046-0.453,0.07-0.703,0.07c-0.631,0-1.193-0.155-1.689-0.464c-0.496-0.31-0.879-0.751-1.149-1.324
			s-0.407-1.233-0.411-1.982v-0.44c0-0.763,0.136-1.436,0.406-2.02c0.27-0.583,0.651-1.03,1.144-1.34
			c0.493-0.31,1.056-0.464,1.689-0.464c0.645,0,1.213,0.153,1.705,0.459c0.493,0.306,0.873,0.746,1.142,1.321
			c0.269,0.574,0.404,1.243,0.408,2.006V173.267z M599.349,172.858c0-0.881-0.165-1.549-0.494-2.003s-0.795-0.682-1.396-0.682
			c-0.583,0-1.041,0.23-1.372,0.69c-0.332,0.46-0.5,1.109-0.508,1.947v0.457c0,0.845,0.166,1.506,0.497,1.982
			s0.796,0.714,1.394,0.714c0.605,0,1.07-0.229,1.394-0.688c0.324-0.458,0.486-1.128,0.486-2.009V172.858z"/>
		<path d="M607.813,169.152v5.226c0,0.831-0.266,1.489-0.798,1.974c-0.531,0.485-1.24,0.728-2.124,0.728
			c-0.896,0-1.606-0.239-2.132-0.717c-0.527-0.478-0.79-1.141-0.79-1.99v-5.221h1.354v5.231c0,0.523,0.132,0.922,0.397,1.198
			s0.655,0.414,1.171,0.414c1.046,0,1.568-0.551,1.568-1.654v-5.188H607.813z"/>
		<path d="M610.697,176.973h-1.354v-7.82h1.354V176.973z"/>
		<path d="M612.368,176.973v-7.82h2.31c0.691,0,1.305,0.154,1.84,0.462s0.949,0.745,1.243,1.311s0.44,1.214,0.44,1.944v0.392
			c0,0.741-0.147,1.393-0.443,1.955c-0.295,0.562-0.716,0.996-1.262,1.3c-0.547,0.304-1.172,0.457-1.877,0.457H612.368z
			 M613.727,170.248v5.64h0.887c0.713,0,1.26-0.223,1.641-0.668c0.382-0.446,0.576-1.086,0.583-1.92v-0.435
			c0-0.849-0.185-1.497-0.554-1.944c-0.368-0.448-0.904-0.671-1.605-0.671H613.727z"/>
		<path d="M585.443,190.973v-7.82h2.309c0.691,0,1.305,0.154,1.84,0.462s0.95,0.745,1.244,1.311
			c0.293,0.566,0.439,1.214,0.439,1.944v0.392c0,0.741-0.147,1.393-0.442,1.955c-0.296,0.562-0.716,0.996-1.263,1.3
			c-0.546,0.304-1.172,0.457-1.877,0.457H585.443z M586.802,184.248v5.64h0.886c0.713,0,1.26-0.223,1.642-0.668
			c0.381-0.446,0.575-1.086,0.583-1.92v-0.435c0-0.849-0.186-1.497-0.554-1.944s-0.904-0.671-1.606-0.671H586.802z"/>
		<path d="M597.2,187.481h-3.212v2.406h3.754v1.085h-5.113v-7.82h5.076v1.096h-3.717v2.159h3.212V187.481z"/>
		<path d="M604.607,184.248h-2.439v6.725h-1.348v-6.725h-2.417v-1.096h6.204V184.248z"/>
		<path d="M610.203,187.481h-3.211v2.406h3.754v1.085h-5.113v-7.82h5.076v1.096h-3.717v2.159h3.211V187.481z"/>
		<path d="M617.82,188.427c-0.079,0.834-0.387,1.485-0.924,1.953c-0.537,0.467-1.252,0.701-2.144,0.701
			c-0.623,0-1.172-0.148-1.646-0.443c-0.474-0.296-0.841-0.715-1.099-1.26s-0.392-1.176-0.402-1.896v-0.73
			c0-0.738,0.131-1.388,0.393-1.95c0.261-0.562,0.636-0.996,1.125-1.3c0.488-0.304,1.053-0.457,1.694-0.457
			c0.862,0,1.558,0.234,2.084,0.701c0.526,0.468,0.833,1.129,0.919,1.985h-1.354c-0.064-0.562-0.229-0.968-0.492-1.216
			c-0.263-0.249-0.648-0.374-1.157-0.374c-0.591,0-1.045,0.216-1.361,0.648c-0.317,0.432-0.479,1.065-0.486,1.9v0.693
			c0,0.846,0.151,1.491,0.454,1.936s0.746,0.667,1.329,0.667c0.534,0,0.935-0.12,1.203-0.36s0.438-0.639,0.511-1.198H617.82z"/>
		<path d="M624.528,184.248h-2.438v6.725h-1.348v-6.725h-2.418v-1.096h6.204V184.248z"/>
		<path d="M631.645,187.267c0,0.766-0.132,1.438-0.396,2.017c-0.266,0.578-0.645,1.022-1.137,1.332
			c-0.492,0.31-1.059,0.464-1.699,0.464c-0.635,0-1.199-0.155-1.695-0.464c-0.496-0.31-0.879-0.751-1.149-1.324
			s-0.407-1.233-0.411-1.982v-0.44c0-0.763,0.136-1.436,0.406-2.02c0.27-0.583,0.651-1.03,1.144-1.34
			c0.493-0.31,1.058-0.464,1.694-0.464c0.638,0,1.203,0.153,1.695,0.459c0.492,0.306,0.873,0.746,1.141,1.321
			c0.27,0.574,0.405,1.243,0.408,2.006V187.267z M630.286,186.858c0-0.867-0.164-1.531-0.491-1.993
			c-0.328-0.462-0.793-0.693-1.395-0.693c-0.587,0-1.046,0.23-1.377,0.69c-0.332,0.46-0.5,1.111-0.508,1.953v0.451
			c0,0.859,0.168,1.523,0.502,1.993c0.335,0.469,0.8,0.704,1.395,0.704c0.602,0,1.064-0.229,1.388-0.688
			c0.324-0.458,0.486-1.128,0.486-2.009V186.858z"/>
		<path d="M635.872,187.965h-1.515v3.008h-1.359v-7.82h2.75c0.902,0,1.6,0.203,2.09,0.607s0.736,0.991,0.736,1.758
			c0,0.523-0.127,0.961-0.379,1.314c-0.253,0.353-0.604,0.625-1.056,0.814l1.757,3.256v0.07h-1.456L635.872,187.965z
			 M634.357,186.869h1.396c0.459,0,0.816-0.116,1.074-0.346c0.258-0.231,0.387-0.547,0.387-0.948c0-0.419-0.119-0.743-0.357-0.972
			s-0.594-0.347-1.066-0.354h-1.434V186.869z"/>
	</g>
</g>
<g>
	<g>
		<path d="M584.035,283.984v-7.82h2.311c0.69,0,1.304,0.154,1.839,0.462c0.536,0.308,0.95,0.745,1.243,1.311
			c0.294,0.566,0.441,1.214,0.441,1.944v0.392c0,0.741-0.148,1.393-0.443,1.955c-0.296,0.562-0.717,0.996-1.263,1.3
			s-1.171,0.457-1.877,0.457H584.035z M585.395,277.26v5.64h0.887c0.712,0,1.259-0.223,1.641-0.668
			c0.381-0.446,0.575-1.086,0.582-1.92v-0.435c0-0.849-0.184-1.497-0.553-1.944s-0.904-0.671-1.605-0.671H585.395z"/>
		<path d="M594.096,280.977h-1.515v3.008h-1.358v-7.82h2.75c0.902,0,1.598,0.203,2.089,0.607s0.735,0.991,0.735,1.758
			c0,0.523-0.126,0.961-0.378,1.314c-0.253,0.353-0.604,0.625-1.056,0.814l1.756,3.256v0.07h-1.455L594.096,280.977z
			 M592.581,279.881h1.396c0.458,0,0.816-0.116,1.074-0.346c0.258-0.231,0.387-0.547,0.387-0.948c0-0.419-0.119-0.743-0.357-0.972
			c-0.237-0.229-0.593-0.347-1.065-0.354h-1.435V279.881z"/>
		<path d="M602.464,282.164h-3.029l-0.634,1.821h-1.412l2.953-7.82h1.22l2.96,7.82h-1.418L602.464,282.164z M599.816,281.068h2.266
			l-1.133-3.244L599.816,281.068z"/>
		<path d="M606.842,283.984h-1.354v-7.82h1.354V283.984z"/>
		<path d="M614.715,283.984h-1.358l-3.485-5.548v5.548h-1.359v-7.82h1.359l3.496,5.57v-5.57h1.348V283.984z"/>
		<path d="M588.606,294.493h-3.212v2.406h3.754v1.085h-5.113v-7.82h5.076v1.096h-3.717v2.159h3.212V294.493z"/>
		<path d="M596.459,297.984H595.1l-3.485-5.548v5.548h-1.358v-7.82h1.358l3.497,5.57v-5.57h1.348V297.984z"/>
		<path d="M599.424,296.899h3.551v1.085h-4.91v-7.82h1.359V296.899z"/>
		<path d="M608.496,296.164h-3.029l-0.635,1.821h-1.412l2.954-7.82h1.22l2.959,7.82h-1.418L608.496,296.164z M605.848,295.068h2.267
			l-1.134-3.244L605.848,295.068z"/>
		<path d="M614.313,294.977h-1.515v3.008h-1.358v-7.82h2.75c0.902,0,1.598,0.203,2.089,0.607s0.735,0.991,0.735,1.758
			c0,0.523-0.126,0.961-0.378,1.314c-0.253,0.353-0.604,0.625-1.056,0.814l1.756,3.256v0.07h-1.455L614.313,294.977z
			 M612.798,293.881h1.396c0.458,0,0.816-0.116,1.074-0.346c0.258-0.231,0.387-0.547,0.387-0.948c0-0.419-0.119-0.743-0.357-0.972
			c-0.237-0.229-0.593-0.347-1.065-0.354h-1.435V293.881z"/>
		<path d="M624.297,296.969c-0.282,0.369-0.674,0.648-1.176,0.838s-1.07,0.285-1.708,0.285c-0.655,0-1.235-0.148-1.74-0.446
			s-0.895-0.723-1.168-1.275c-0.274-0.554-0.417-1.199-0.427-1.937v-0.612c0-1.182,0.282-2.104,0.848-2.769
			c0.566-0.665,1.355-0.997,2.369-0.997c0.87,0,1.561,0.216,2.073,0.647c0.513,0.432,0.819,1.052,0.924,1.861h-1.332
			c-0.15-0.942-0.696-1.413-1.638-1.413c-0.609,0-1.072,0.219-1.389,0.657c-0.317,0.438-0.48,1.082-0.492,1.929v0.601
			c0,0.844,0.179,1.5,0.535,1.967c0.355,0.467,0.852,0.7,1.484,0.7c0.695,0,1.189-0.158,1.482-0.473v-1.531h-1.611v-1.031h2.965
			V296.969z"/>
		<path d="M630.361,294.493h-3.212v2.406h3.755v1.085h-5.113v-7.82h5.075v1.096h-3.717v2.159h3.212V294.493z"/>
		<path d="M633.771,290.164l2.256,5.994l2.251-5.994h1.757v7.82h-1.354v-2.578l0.134-3.448l-2.31,6.026h-0.973l-2.304-6.021
			l0.134,3.443v2.578h-1.354v-7.82H633.771z"/>
		<path d="M646.211,294.493H643v2.406h3.754v1.085h-5.113v-7.82h5.076v1.096H643v2.159h3.211V294.493z"/>
		<path d="M654.064,297.984h-1.359l-3.486-5.548v5.548h-1.358v-7.82h1.358l3.497,5.57v-5.57h1.349V297.984z"/>
		<path d="M661.164,291.26h-2.438v6.725h-1.349v-6.725h-2.417v-1.096h6.203V291.26z"/>
	</g>
</g>
<g>
	<g>
		<path d="M116.111,273.981h-3.305l-0.691,1.986h-1.541l3.223-8.531h1.33l3.229,8.531h-1.547L116.111,273.981z M113.222,272.786
			h2.473l-1.236-3.539L113.222,272.786z"/>
		<path d="M125.462,267.436v5.701c0,0.906-0.29,1.624-0.87,2.153s-1.353,0.794-2.317,0.794c-0.977,0-1.752-0.261-2.326-0.782
			s-0.861-1.245-0.861-2.171v-5.695h1.477v5.707c0,0.57,0.145,1.006,0.434,1.307s0.715,0.451,1.277,0.451
			c1.141,0,1.711-0.602,1.711-1.805v-5.66H125.462z"/>
		<path d="M129.98,270.518l1.793-3.082h1.711l-2.578,4.23l2.637,4.301h-1.729l-1.834-3.129l-1.84,3.129h-1.723l2.643-4.301
			l-2.584-4.23h1.711L129.98,270.518z"/>
		<path d="M142.085,273.77c0-0.375-0.132-0.664-0.396-0.867s-0.739-0.408-1.427-0.615s-1.234-0.438-1.641-0.691
			c-0.777-0.488-1.166-1.125-1.166-1.91c0-0.688,0.28-1.254,0.841-1.699s1.288-0.668,2.183-0.668c0.594,0,1.123,0.109,1.588,0.328
			s0.83,0.53,1.096,0.935s0.398,0.853,0.398,1.345h-1.477c0-0.445-0.14-0.794-0.419-1.046s-0.679-0.378-1.198-0.378
			c-0.484,0-0.86,0.104-1.128,0.311s-0.401,0.496-0.401,0.867c0,0.313,0.145,0.573,0.434,0.782s0.766,0.412,1.43,0.609
			s1.197,0.422,1.6,0.674s0.697,0.541,0.885,0.867s0.281,0.708,0.281,1.146c0,0.711-0.272,1.276-0.817,1.696s-1.284,0.63-2.218,0.63
			c-0.617,0-1.185-0.114-1.702-0.343s-0.92-0.544-1.207-0.946s-0.431-0.871-0.431-1.406h1.482c0,0.484,0.16,0.859,0.48,1.125
			s0.779,0.398,1.377,0.398c0.516,0,0.903-0.104,1.163-0.313S142.085,274.114,142.085,273.77z"/>
		<path d="M149.855,272.159h-3.504v2.625h4.096v1.184h-5.578v-8.531h5.537v1.195h-4.055v2.355h3.504V272.159z"/>
		<path d="M158.164,273.19c-0.086,0.91-0.422,1.62-1.008,2.13s-1.365,0.765-2.338,0.765c-0.68,0-1.278-0.161-1.796-0.483
			s-0.917-0.78-1.198-1.374s-0.428-1.283-0.439-2.068v-0.797c0-0.805,0.143-1.514,0.428-2.127s0.694-1.086,1.228-1.418
			s1.149-0.498,1.849-0.498c0.941,0,1.699,0.255,2.273,0.765s0.908,1.231,1.002,2.165h-1.477c-0.07-0.613-0.249-1.056-0.536-1.327
			s-0.708-0.407-1.263-0.407c-0.645,0-1.14,0.235-1.485,0.707s-0.522,1.163-0.53,2.073v0.757c0,0.922,0.165,1.626,0.495,2.111
			s0.813,0.727,1.45,0.727c0.582,0,1.02-0.131,1.313-0.393s0.479-0.697,0.557-1.307H158.164z"/>
		<path d="M165.482,268.631h-2.66v7.336h-1.471v-7.336h-2.637v-1.195h6.768V268.631z"/>
		<path d="M168.166,275.967h-1.477v-8.531h1.477V275.967z"/>
		<path d="M176.796,271.924c0,0.836-0.145,1.569-0.434,2.2s-0.702,1.115-1.239,1.453s-1.155,0.507-1.854,0.507
			c-0.691,0-1.308-0.169-1.849-0.507s-0.959-0.819-1.254-1.444s-0.444-1.346-0.448-2.162v-0.48c0-0.832,0.147-1.566,0.442-2.203
			s0.711-1.124,1.248-1.462s1.153-0.507,1.849-0.507s1.312,0.167,1.849,0.501s0.952,0.814,1.245,1.441s0.441,1.356,0.445,2.188
			V271.924z M175.314,271.479c0-0.945-0.179-1.67-0.536-2.174s-0.864-0.756-1.521-0.756c-0.641,0-1.142,0.251-1.503,0.753
			s-0.546,1.212-0.554,2.13v0.492c0,0.938,0.183,1.662,0.548,2.174s0.872,0.768,1.521,0.768c0.656,0,1.161-0.25,1.515-0.75
			s0.53-1.23,0.53-2.191V271.479z"/>
		<path d="M185.041,275.967h-1.482l-3.803-6.053v6.053h-1.482v-8.531h1.482l3.814,6.076v-6.076h1.471V275.967z"/>
	</g>
</g>
<g>
	<g>
		<path d="M79.895,373.546v-8.531h2.924c0.965,0,1.699,0.193,2.203,0.58s0.756,0.963,0.756,1.729c0,0.391-0.105,0.742-0.316,1.055
			s-0.52,0.555-0.926,0.727c0.461,0.125,0.817,0.36,1.069,0.706s0.378,0.761,0.378,1.245c0,0.801-0.257,1.416-0.771,1.846
			s-1.249,0.645-2.206,0.645H79.895z M81.377,368.606h1.453c0.461,0,0.821-0.104,1.081-0.313s0.39-0.505,0.39-0.888
			c0-0.422-0.12-0.727-0.36-0.914s-0.614-0.281-1.122-0.281h-1.441V368.606z M81.377,369.696v2.666h1.646
			c0.465,0,0.828-0.115,1.09-0.346s0.393-0.551,0.393-0.961c0-0.887-0.453-1.34-1.359-1.359H81.377z"/>
		<path d="M92.451,369.737h-3.504v2.625h4.096v1.184h-5.578v-8.531h5.537v1.195h-4.055v2.355h3.504V369.737z"/>
		<path d="M99.025,371.56h-3.305l-0.691,1.986h-1.541l3.223-8.531h1.33l3.229,8.531h-1.547L99.025,371.56z M96.137,370.364h2.473
			l-1.236-3.539L96.137,370.364z"/>
		<path d="M105.371,370.265h-1.652v3.281h-1.482v-8.531h3c0.984,0,1.744,0.221,2.279,0.663c0.535,0.441,0.803,1.08,0.803,1.918
			c0,0.57-0.138,1.048-0.413,1.434c-0.275,0.385-0.659,0.681-1.151,0.888l1.916,3.553v0.076h-1.588L105.371,370.265z
			 M103.719,369.069h1.523c0.5,0,0.891-0.126,1.172-0.378s0.422-0.597,0.422-1.034c0-0.457-0.13-0.811-0.39-1.061
			s-0.647-0.379-1.163-0.387h-1.564V369.069z"/>
		<path d="M111.289,373.546h-1.477v-8.531h1.477V373.546z"/>
		<path d="M119.879,373.546h-1.482l-3.803-6.053v6.053h-1.482v-8.531h1.482l3.814,6.076v-6.076h1.471V373.546z"/>
		<path d="M128.17,372.438c-0.309,0.402-0.736,0.707-1.283,0.914s-1.168,0.311-1.863,0.311c-0.715,0-1.348-0.162-1.898-0.486
			s-0.976-0.788-1.274-1.392s-0.454-1.308-0.466-2.112v-0.668c0-1.289,0.309-2.296,0.926-3.021s1.479-1.087,2.584-1.087
			c0.949,0,1.703,0.235,2.262,0.706s0.895,1.147,1.008,2.03h-1.453c-0.164-1.027-0.76-1.541-1.787-1.541
			c-0.664,0-1.169,0.239-1.515,0.718c-0.346,0.478-0.524,1.18-0.536,2.104v0.656c0,0.921,0.194,1.636,0.583,2.145
			c0.389,0.51,0.929,0.765,1.62,0.765c0.758,0,1.297-0.172,1.617-0.516v-1.67h-1.758v-1.125h3.234V372.438z"/>
		<path d="M139.596,369.503c0,0.836-0.145,1.569-0.434,2.2s-0.702,1.115-1.239,1.453s-1.155,0.507-1.854,0.507
			c-0.691,0-1.308-0.169-1.849-0.507s-0.959-0.819-1.254-1.444s-0.444-1.346-0.448-2.162v-0.48c0-0.832,0.147-1.566,0.442-2.203
			s0.711-1.124,1.248-1.462s1.153-0.507,1.849-0.507s1.312,0.167,1.849,0.501s0.952,0.814,1.245,1.441s0.441,1.356,0.445,2.188
			V369.503z M138.113,369.058c0-0.945-0.179-1.67-0.536-2.174s-0.864-0.756-1.521-0.756c-0.641,0-1.142,0.251-1.503,0.753
			s-0.546,1.212-0.554,2.13v0.492c0,0.938,0.183,1.662,0.548,2.174s0.872,0.768,1.521,0.768c0.656,0,1.161-0.25,1.515-0.75
			s0.53-1.23,0.53-2.191V369.058z"/>
		<path d="M142.637,373.546h-1.477v-8.531h1.477V373.546z"/>
		<path d="M145.941,372.362h3.873v1.184h-5.355v-8.531h1.482V372.362z"/>
		<path d="M97.813,385.546v-8.531h2.52c0.754,0,1.423,0.168,2.007,0.504s1.036,0.813,1.356,1.43s0.48,1.324,0.48,2.121v0.428
			c0,0.809-0.161,1.52-0.483,2.133s-0.781,1.086-1.377,1.418s-1.278,0.498-2.048,0.498H97.813z M99.295,378.21v6.152h0.967
			c0.777,0,1.374-0.243,1.79-0.729s0.628-1.185,0.636-2.095v-0.475c0-0.926-0.201-1.633-0.604-2.121s-0.986-0.732-1.752-0.732
			H99.295z"/>
		<path d="M108.787,382.265h-1.652v3.281h-1.482v-8.531h3c0.984,0,1.744,0.221,2.279,0.663c0.535,0.441,0.803,1.08,0.803,1.918
			c0,0.57-0.138,1.048-0.413,1.434c-0.275,0.385-0.659,0.681-1.151,0.888l1.916,3.553v0.076h-1.588L108.787,382.265z
			 M107.135,381.069h1.523c0.5,0,0.891-0.126,1.172-0.378s0.422-0.597,0.422-1.034c0-0.457-0.13-0.811-0.39-1.061
			s-0.647-0.379-1.163-0.387h-1.564V381.069z"/>
		<path d="M117.916,383.56h-3.305l-0.691,1.986h-1.541l3.223-8.531h1.33l3.229,8.531h-1.547L117.916,383.56z M115.027,382.364h2.473
			l-1.236-3.539L115.027,382.364z"/>
		<path d="M122.691,385.546h-1.477v-8.531h1.477V385.546z"/>
		<path d="M131.281,385.546h-1.482l-3.803-6.053v6.053h-1.482v-8.531h1.482l3.814,6.076v-6.076h1.471V385.546z"/>
	</g>
</g>
<g>
	<g>
		<path d="M281.679,342.73l2.461,6.539l2.455-6.539h1.916v8.531h-1.477v-2.813l0.146-3.762l-2.52,6.574h-1.061l-2.514-6.568
			l0.146,3.756v2.813h-1.477v-8.531H281.679z"/>
		<path d="M295.25,347.453h-3.504v2.625h4.096v1.184h-5.578v-8.531h5.537v1.195h-4.055v2.355h3.504V347.453z"/>
		<path d="M301.824,349.275h-3.305l-0.691,1.986h-1.541l3.223-8.531h1.33l3.229,8.531h-1.547L301.824,349.275z M298.935,348.08
			h2.473l-1.236-3.539L298.935,348.08z"/>
		<path d="M309.494,349.064c0-0.375-0.132-0.664-0.396-0.867s-0.739-0.408-1.427-0.615s-1.234-0.438-1.641-0.691
			c-0.777-0.488-1.166-1.125-1.166-1.91c0-0.688,0.28-1.254,0.841-1.699s1.288-0.668,2.183-0.668c0.594,0,1.123,0.109,1.588,0.328
			s0.83,0.53,1.096,0.935s0.398,0.853,0.398,1.345h-1.477c0-0.445-0.14-0.794-0.419-1.046s-0.679-0.378-1.198-0.378
			c-0.484,0-0.86,0.104-1.128,0.311s-0.401,0.496-0.401,0.867c0,0.313,0.145,0.573,0.434,0.782s0.766,0.412,1.43,0.609
			s1.197,0.422,1.6,0.674s0.697,0.541,0.885,0.867s0.281,0.708,0.281,1.146c0,0.711-0.272,1.276-0.817,1.696s-1.284,0.63-2.218,0.63
			c-0.617,0-1.185-0.114-1.702-0.343s-0.92-0.544-1.207-0.946s-0.431-0.871-0.431-1.406h1.482c0,0.484,0.16,0.859,0.48,1.125
			s0.779,0.398,1.377,0.398c0.516,0,0.903-0.104,1.163-0.313S309.494,349.408,309.494,349.064z"/>
		<path d="M318.517,342.73v5.701c0,0.906-0.29,1.624-0.87,2.153s-1.353,0.794-2.317,0.794c-0.977,0-1.752-0.261-2.326-0.782
			s-0.861-1.245-0.861-2.171v-5.695h1.477v5.707c0,0.57,0.145,1.006,0.434,1.307s0.715,0.451,1.277,0.451
			c1.141,0,1.711-0.602,1.711-1.805v-5.66H318.517z"/>
		<path d="M323.234,347.98h-1.652v3.281h-1.482v-8.531h3c0.984,0,1.744,0.221,2.279,0.662c0.535,0.442,0.803,1.082,0.803,1.918
			c0,0.571-0.138,1.049-0.413,1.434c-0.275,0.386-0.659,0.682-1.151,0.889l1.916,3.553v0.076h-1.588L323.234,347.98z
			 M321.582,346.785h1.523c0.5,0,0.891-0.126,1.172-0.378s0.422-0.597,0.422-1.034c0-0.457-0.13-0.811-0.39-1.061
			s-0.647-0.379-1.163-0.387h-1.564V346.785z"/>
		<path d="M332.574,347.453h-3.504v2.625h4.096v1.184h-5.578v-8.531h5.537v1.195h-4.055v2.355h3.504V347.453z"/>
		<path d="M336.294,342.73l2.461,6.539l2.455-6.539h1.916v8.531h-1.477v-2.813l0.146-3.762l-2.52,6.574h-1.061l-2.514-6.568
			l0.146,3.756v2.813h-1.477v-8.531H336.294z"/>
		<path d="M349.865,347.453h-3.504v2.625h4.096v1.184h-5.578v-8.531h5.537v1.195h-4.055v2.355h3.504V347.453z"/>
		<path d="M358.431,351.262h-1.482l-3.803-6.053v6.053h-1.482v-8.531h1.482l3.814,6.076v-6.076h1.471V351.262z"/>
		<path d="M366.177,343.926h-2.66v7.336h-1.471v-7.336h-2.637v-1.195h6.768V343.926z"/>
		<path d="M375.746,343.926h-2.66v7.336h-1.471v-7.336h-2.637v-1.195h6.768V343.926z"/>
		<path d="M380.937,349.275h-3.305l-0.691,1.986H375.4l3.223-8.531h1.33l3.229,8.531h-1.547L380.937,349.275z M378.048,348.08h2.473
			l-1.236-3.539L378.048,348.08z"/>
		<path d="M390.916,351.262h-1.482l-3.803-6.053v6.053h-1.482v-8.531h1.482l3.814,6.076v-6.076h1.471V351.262z"/>
		<path d="M395.117,347.576l-0.967,1.025v2.66h-1.482v-8.531h1.482v4.002l0.82-1.014l2.496-2.988h1.793l-3.17,3.779l3.352,4.752
			h-1.758L395.117,347.576z"/>
	</g>
</g>
<g>
	<g>
		<path d="M274.437,300.258h-3.99v11.004h-2.206v-11.004h-3.955v-1.793h10.151V300.258z"/>
	</g>
</g>
<g>
	<g>
		<path d="M192.591,437.952v-8.531h2.924c0.965,0,1.699,0.193,2.203,0.58s0.756,0.963,0.756,1.729c0,0.391-0.105,0.742-0.316,1.055
			s-0.52,0.555-0.926,0.727c0.461,0.125,0.817,0.36,1.069,0.706s0.378,0.761,0.378,1.245c0,0.801-0.257,1.416-0.771,1.846
			s-1.249,0.645-2.206,0.645H192.591z M194.074,433.013h1.453c0.461,0,0.821-0.104,1.081-0.313s0.39-0.505,0.39-0.888
			c0-0.422-0.12-0.727-0.36-0.914s-0.614-0.281-1.122-0.281h-1.441V433.013z M194.074,434.103v2.666h1.646
			c0.465,0,0.828-0.115,1.09-0.346s0.393-0.551,0.393-0.961c0-0.887-0.453-1.34-1.359-1.359H194.074z"/>
		<path d="M205.148,434.144h-3.504v2.625h4.096v1.184h-5.578v-8.531h5.537v1.195h-4.055v2.355h3.504V434.144z"/>
		<path d="M211.722,435.966h-3.305l-0.691,1.986h-1.541l3.223-8.531h1.33l3.229,8.531h-1.547L211.722,435.966z M208.833,434.771
			h2.473l-1.236-3.539L208.833,434.771z"/>
		<path d="M218.068,434.671h-1.652v3.281h-1.482v-8.531h3c0.984,0,1.744,0.221,2.279,0.663c0.535,0.441,0.803,1.08,0.803,1.918
			c0,0.57-0.138,1.048-0.413,1.434c-0.275,0.385-0.659,0.681-1.151,0.888l1.916,3.553v0.076h-1.588L218.068,434.671z
			 M216.416,433.476h1.523c0.5,0,0.891-0.126,1.172-0.378s0.422-0.597,0.422-1.034c0-0.457-0.13-0.811-0.39-1.061
			s-0.647-0.379-1.163-0.387h-1.564V433.476z"/>
		<path d="M223.986,437.952h-1.477v-8.531h1.477V437.952z"/>
		<path d="M232.576,437.952h-1.482l-3.803-6.053v6.053h-1.482v-8.531h1.482l3.814,6.076v-6.076h1.471V437.952z"/>
		<path d="M240.867,436.845c-0.309,0.402-0.736,0.707-1.283,0.914s-1.168,0.311-1.863,0.311c-0.715,0-1.348-0.162-1.898-0.486
			s-0.976-0.788-1.274-1.392s-0.454-1.308-0.466-2.112v-0.668c0-1.289,0.309-2.296,0.926-3.021s1.479-1.087,2.584-1.087
			c0.949,0,1.703,0.235,2.262,0.706s0.895,1.147,1.008,2.03h-1.453c-0.164-1.027-0.76-1.541-1.787-1.541
			c-0.664,0-1.169,0.239-1.515,0.718c-0.346,0.478-0.524,1.18-0.536,2.104v0.656c0,0.921,0.194,1.636,0.583,2.145
			c0.389,0.51,0.929,0.765,1.62,0.765c0.758,0,1.297-0.172,1.617-0.516v-1.67h-1.758v-1.125h3.234V436.845z"/>
		<path d="M252.292,433.909c0,0.836-0.145,1.569-0.434,2.2s-0.702,1.115-1.239,1.453s-1.155,0.507-1.854,0.507
			c-0.691,0-1.308-0.169-1.849-0.507s-0.959-0.819-1.254-1.444s-0.444-1.346-0.448-2.162v-0.48c0-0.832,0.147-1.566,0.442-2.203
			s0.711-1.124,1.248-1.462s1.153-0.507,1.849-0.507s1.312,0.167,1.849,0.501s0.952,0.814,1.245,1.441s0.441,1.356,0.445,2.188
			V433.909z M250.81,433.464c0-0.945-0.179-1.67-0.536-2.174s-0.864-0.756-1.521-0.756c-0.641,0-1.142,0.251-1.503,0.753
			s-0.546,1.212-0.554,2.13v0.492c0,0.938,0.183,1.662,0.548,2.174s0.872,0.768,1.521,0.768c0.656,0,1.161-0.25,1.515-0.75
			s0.53-1.23,0.53-2.191V433.464z"/>
		<path d="M255.333,437.952h-1.477v-8.531h1.477V437.952z"/>
		<path d="M258.638,436.769h3.873v1.184h-5.355v-8.531h1.482V436.769z"/>
		<path d="M212.188,449.952h-1.477v-3.785h-3.814v3.785h-1.482v-8.531h1.482v3.551h3.814v-3.551h1.477V449.952z"/>
		<path d="M218.926,446.144h-3.504v2.625h4.096v1.184h-5.578v-8.531h5.537v1.195h-4.055v2.355h3.504V446.144z"/>
		<path d="M225.5,447.966h-3.305l-0.691,1.986h-1.541l3.223-8.531h1.33l3.229,8.531h-1.547L225.5,447.966z M222.612,446.771h2.473
			l-1.236-3.539L222.612,446.771z"/>
		<path d="M228.711,449.952v-8.531h2.52c0.754,0,1.423,0.168,2.007,0.504s1.036,0.813,1.356,1.43s0.48,1.324,0.48,2.121v0.428
			c0,0.809-0.161,1.52-0.483,2.133s-0.781,1.086-1.377,1.418s-1.278,0.498-2.048,0.498H228.711z M230.194,442.616v6.152h0.967
			c0.777,0,1.374-0.243,1.79-0.729s0.628-1.185,0.636-2.095v-0.475c0-0.926-0.201-1.633-0.604-2.121s-0.986-0.732-1.752-0.732
			H230.194z"/>
		<path d="M241.538,446.144h-3.504v2.625h4.096v1.184h-5.578v-8.531h5.537v1.195h-4.055v2.355h3.504V446.144z"/>
		<path d="M246.471,446.671h-1.652v3.281h-1.482v-8.531h3c0.984,0,1.744,0.221,2.279,0.663c0.535,0.441,0.803,1.08,0.803,1.918
			c0,0.57-0.138,1.048-0.413,1.434c-0.275,0.385-0.659,0.681-1.151,0.888l1.916,3.553v0.076h-1.588L246.471,446.671z
			 M244.819,445.476h1.523c0.5,0,0.891-0.126,1.172-0.378s0.422-0.597,0.422-1.034c0-0.457-0.13-0.811-0.39-1.061
			s-0.647-0.379-1.163-0.387h-1.564V445.476z"/>
	</g>
</g>
<g>
	<g>
		<path d="M589.609,534.475c0,0.836-0.145,1.569-0.434,2.2s-0.703,1.115-1.24,1.453s-1.154,0.507-1.854,0.507
			c-0.691,0-1.309-0.169-1.85-0.507s-0.959-0.819-1.254-1.444s-0.443-1.346-0.447-2.162v-0.48c0-0.832,0.146-1.566,0.441-2.203
			s0.711-1.124,1.248-1.462s1.154-0.507,1.85-0.507s1.311,0.167,1.848,0.501s0.953,0.814,1.246,1.441s0.441,1.356,0.445,2.188
			V534.475z M588.127,534.029c0-0.945-0.18-1.67-0.537-2.174s-0.863-0.756-1.52-0.756c-0.641,0-1.143,0.251-1.504,0.753
			s-0.545,1.212-0.553,2.13v0.492c0,0.938,0.182,1.662,0.547,2.174s0.873,0.768,1.521,0.768c0.656,0,1.16-0.25,1.514-0.75
			s0.531-1.23,0.531-2.191V534.029z"/>
		<path d="M597.326,529.986v5.701c0,0.906-0.291,1.624-0.871,2.153s-1.352,0.794-2.316,0.794c-0.977,0-1.752-0.261-2.326-0.782
			s-0.861-1.245-0.861-2.171v-5.695h1.477v5.707c0,0.57,0.145,1.006,0.434,1.307s0.715,0.451,1.277,0.451
			c1.141,0,1.711-0.602,1.711-1.805v-5.66H597.326z"/>
		<path d="M605.072,531.182h-2.66v7.336h-1.471v-7.336h-2.637v-1.195h6.768V531.182z"/>
		<path d="M610.311,535.354v3.164h-1.482v-8.531h3.264c0.953,0,1.709,0.248,2.27,0.745s0.842,1.153,0.842,1.971
			c0,0.837-0.275,1.487-0.824,1.954c-0.549,0.465-1.316,0.697-2.305,0.697H610.311z M610.311,534.158h1.781
			c0.527,0,0.93-0.124,1.207-0.372s0.416-0.606,0.416-1.075c0-0.461-0.141-0.829-0.422-1.104s-0.668-0.417-1.16-0.425h-1.822
			V534.158z"/>
		<path d="M619.633,535.236h-1.652v3.281h-1.482v-8.531h3c0.984,0,1.744,0.221,2.279,0.662c0.535,0.442,0.803,1.082,0.803,1.918
			c0,0.571-0.139,1.049-0.414,1.434c-0.275,0.386-0.658,0.682-1.15,0.889l1.916,3.553v0.076h-1.588L619.633,535.236z
			 M617.98,534.041h1.523c0.5,0,0.891-0.126,1.172-0.378s0.422-0.597,0.422-1.034c0-0.457-0.131-0.811-0.391-1.061
			s-0.646-0.379-1.162-0.387h-1.564V534.041z"/>
		<path d="M628.973,534.709h-3.504v2.625h4.096v1.184h-5.578v-8.531h5.537v1.195h-4.055v2.355h3.504V534.709z"/>
		<path d="M635.23,536.32c0-0.375-0.133-0.664-0.396-0.867s-0.738-0.408-1.426-0.615s-1.234-0.438-1.641-0.691
			c-0.777-0.488-1.166-1.125-1.166-1.91c0-0.688,0.279-1.254,0.84-1.699s1.289-0.668,2.184-0.668c0.594,0,1.123,0.109,1.588,0.328
			s0.83,0.53,1.096,0.935s0.398,0.853,0.398,1.345h-1.477c0-0.445-0.141-0.794-0.42-1.046s-0.678-0.378-1.197-0.378
			c-0.484,0-0.861,0.104-1.129,0.311s-0.4,0.496-0.4,0.867c0,0.313,0.145,0.573,0.434,0.782s0.766,0.412,1.43,0.609
			s1.197,0.422,1.6,0.674s0.697,0.541,0.885,0.867s0.281,0.708,0.281,1.146c0,0.711-0.273,1.276-0.818,1.696s-1.283,0.63-2.217,0.63
			c-0.617,0-1.186-0.114-1.703-0.343s-0.92-0.544-1.207-0.946s-0.43-0.871-0.43-1.406h1.482c0,0.484,0.16,0.859,0.48,1.125
			s0.779,0.398,1.377,0.398c0.516,0,0.902-0.104,1.162-0.313S635.23,536.664,635.23,536.32z"/>
		<path d="M642.473,536.32c0-0.375-0.133-0.664-0.396-0.867s-0.738-0.408-1.426-0.615s-1.234-0.438-1.641-0.691
			c-0.777-0.488-1.166-1.125-1.166-1.91c0-0.688,0.279-1.254,0.84-1.699s1.289-0.668,2.184-0.668c0.594,0,1.123,0.109,1.588,0.328
			s0.83,0.53,1.096,0.935s0.398,0.853,0.398,1.345h-1.477c0-0.445-0.141-0.794-0.42-1.046s-0.678-0.378-1.197-0.378
			c-0.484,0-0.861,0.104-1.129,0.311s-0.4,0.496-0.4,0.867c0,0.313,0.145,0.573,0.434,0.782s0.766,0.412,1.43,0.609
			s1.197,0.422,1.6,0.674s0.697,0.541,0.885,0.867s0.281,0.708,0.281,1.146c0,0.711-0.273,1.276-0.818,1.696s-1.283,0.63-2.217,0.63
			c-0.617,0-1.186-0.114-1.703-0.343s-0.92-0.544-1.207-0.946s-0.43-0.871-0.43-1.406h1.482c0,0.484,0.16,0.859,0.48,1.125
			s0.779,0.398,1.377,0.398c0.516,0,0.902-0.104,1.162-0.313S642.473,536.664,642.473,536.32z"/>
	</g>
</g>
<g>
	<g>
		<path d="M652.393,459.804h-3.504v2.625h4.096v1.184h-5.578v-8.531h5.537v1.195h-4.055v2.355h3.504V459.804z"/>
		<path d="M658.65,461.415c0-0.375-0.133-0.664-0.396-0.867s-0.738-0.408-1.426-0.615s-1.234-0.438-1.641-0.691
			c-0.777-0.488-1.166-1.125-1.166-1.91c0-0.688,0.279-1.254,0.84-1.699s1.289-0.668,2.184-0.668c0.594,0,1.123,0.109,1.588,0.328
			s0.83,0.53,1.096,0.935s0.398,0.853,0.398,1.345h-1.477c0-0.445-0.141-0.794-0.42-1.046s-0.678-0.378-1.197-0.378
			c-0.484,0-0.861,0.104-1.129,0.311s-0.4,0.496-0.4,0.867c0,0.313,0.145,0.573,0.434,0.782s0.766,0.412,1.43,0.609
			s1.197,0.422,1.6,0.674s0.697,0.541,0.885,0.867s0.281,0.708,0.281,1.146c0,0.711-0.273,1.276-0.818,1.696s-1.283,0.63-2.217,0.63
			c-0.617,0-1.186-0.114-1.703-0.343s-0.92-0.544-1.207-0.946s-0.43-0.871-0.43-1.406h1.482c0,0.484,0.16,0.859,0.48,1.125
			s0.779,0.398,1.377,0.398c0.516,0,0.902-0.104,1.162-0.313S658.65,461.759,658.65,461.415z"/>
		<path d="M668.242,459.569c0,0.836-0.145,1.569-0.434,2.2s-0.703,1.115-1.24,1.453s-1.154,0.507-1.854,0.507
			c-0.691,0-1.309-0.169-1.85-0.507s-0.959-0.819-1.254-1.444s-0.443-1.346-0.447-2.162v-0.48c0-0.832,0.146-1.566,0.441-2.203
			s0.711-1.124,1.248-1.462s1.154-0.507,1.85-0.507s1.311,0.167,1.848,0.501s0.953,0.814,1.246,1.441s0.441,1.356,0.445,2.188
			V459.569z M666.76,459.124c0-0.945-0.18-1.67-0.537-2.174s-0.863-0.756-1.52-0.756c-0.641,0-1.143,0.251-1.504,0.753
			s-0.545,1.212-0.553,2.13v0.492c0,0.938,0.182,1.662,0.547,2.174s0.873,0.768,1.521,0.768c0.656,0,1.16-0.25,1.514-0.75
			s0.531-1.23,0.531-2.191V459.124z"/>
		<path d="M671.201,460.448v3.164h-1.482v-8.531h3.264c0.953,0,1.709,0.249,2.27,0.745s0.842,1.153,0.842,1.971
			c0,0.837-0.275,1.488-0.824,1.953c-0.549,0.466-1.316,0.698-2.305,0.698H671.201z M671.201,459.253h1.781
			c0.527,0,0.93-0.124,1.207-0.372s0.416-0.606,0.416-1.075c0-0.461-0.141-0.829-0.422-1.104s-0.668-0.417-1.16-0.425h-1.822
			V459.253z"/>
	</g>
</g>
<g>
	<g>
		<path d="M778.881,482.3h-1.652v3.281h-1.482v-8.531h3c0.984,0,1.744,0.221,2.279,0.663c0.535,0.441,0.803,1.08,0.803,1.918
			c0,0.57-0.137,1.048-0.412,1.434c-0.275,0.385-0.66,0.681-1.152,0.888l1.916,3.553v0.076h-1.588L778.881,482.3z M777.229,481.104
			h1.523c0.5,0,0.891-0.126,1.172-0.378s0.422-0.597,0.422-1.034c0-0.457-0.129-0.811-0.389-1.061s-0.648-0.379-1.164-0.387h-1.564
			V481.104z"/>
		<path d="M787.693,483.384c0-0.375-0.131-0.664-0.395-0.867s-0.74-0.408-1.428-0.615s-1.234-0.438-1.641-0.691
			c-0.777-0.488-1.166-1.125-1.166-1.91c0-0.688,0.281-1.254,0.842-1.699s1.287-0.668,2.182-0.668c0.594,0,1.123,0.109,1.588,0.328
			s0.83,0.53,1.096,0.935s0.398,0.853,0.398,1.345h-1.477c0-0.445-0.139-0.794-0.418-1.046s-0.68-0.378-1.199-0.378
			c-0.484,0-0.859,0.104-1.127,0.311s-0.402,0.496-0.402,0.867c0,0.313,0.145,0.573,0.434,0.782s0.766,0.412,1.43,0.609
			s1.197,0.422,1.6,0.674s0.697,0.541,0.885,0.867s0.281,0.708,0.281,1.146c0,0.711-0.271,1.276-0.816,1.696s-1.285,0.63-2.219,0.63
			c-0.617,0-1.184-0.114-1.701-0.343s-0.92-0.544-1.207-0.946s-0.432-0.871-0.432-1.406h1.482c0,0.484,0.16,0.859,0.48,1.125
			s0.779,0.398,1.377,0.398c0.516,0,0.904-0.104,1.164-0.313S787.693,483.728,787.693,483.384z"/>
		<path d="M797.285,481.538c0,0.836-0.145,1.569-0.434,2.2s-0.701,1.115-1.238,1.453s-1.156,0.507-1.855,0.507
			c-0.691,0-1.307-0.169-1.848-0.507s-0.959-0.819-1.254-1.444s-0.445-1.346-0.449-2.162v-0.48c0-0.832,0.148-1.566,0.443-2.203
			s0.711-1.124,1.248-1.462s1.152-0.507,1.848-0.507s1.313,0.167,1.85,0.501s0.951,0.814,1.244,1.441s0.441,1.356,0.445,2.188
			V481.538z M795.803,481.093c0-0.945-0.178-1.67-0.535-2.174s-0.865-0.756-1.521-0.756c-0.641,0-1.141,0.251-1.502,0.753
			s-0.547,1.212-0.555,2.13v0.492c0,0.938,0.184,1.662,0.549,2.174s0.871,0.768,1.52,0.768c0.656,0,1.162-0.25,1.516-0.75
			s0.529-1.23,0.529-2.191V481.093z"/>
		<path d="M800.244,482.417v3.164h-1.482v-8.531h3.264c0.953,0,1.711,0.249,2.271,0.745s0.84,1.153,0.84,1.971
			c0,0.837-0.273,1.488-0.822,1.953c-0.549,0.466-1.318,0.698-2.307,0.698H800.244z M800.244,481.222h1.781
			c0.527,0,0.93-0.124,1.207-0.372s0.416-0.606,0.416-1.075c0-0.461-0.141-0.829-0.422-1.104s-0.668-0.417-1.16-0.425h-1.822
			V481.222z"/>
	</g>
</g>
<g>
	<g>
		<path d="M776.285,545.846l2.461,6.539l2.455-6.539h1.916v8.531h-1.477v-2.813l0.146-3.762l-2.52,6.574h-1.061l-2.514-6.568
			l0.146,3.756v2.813h-1.477v-8.531H776.285z"/>
		<path d="M789.328,552.18c0-0.375-0.131-0.664-0.395-0.867s-0.74-0.408-1.428-0.615s-1.234-0.438-1.641-0.691
			c-0.777-0.488-1.166-1.125-1.166-1.91c0-0.688,0.281-1.254,0.842-1.699s1.287-0.668,2.182-0.668c0.594,0,1.123,0.109,1.588,0.328
			s0.83,0.53,1.096,0.935s0.398,0.853,0.398,1.345h-1.477c0-0.445-0.139-0.794-0.418-1.046s-0.68-0.378-1.199-0.378
			c-0.484,0-0.859,0.104-1.127,0.311s-0.402,0.496-0.402,0.867c0,0.313,0.145,0.573,0.434,0.782s0.766,0.412,1.43,0.609
			s1.197,0.422,1.6,0.674s0.697,0.541,0.885,0.867s0.281,0.708,0.281,1.146c0,0.711-0.271,1.276-0.816,1.696s-1.285,0.63-2.219,0.63
			c-0.617,0-1.184-0.114-1.701-0.343s-0.92-0.544-1.207-0.946s-0.432-0.871-0.432-1.406h1.482c0,0.484,0.16,0.859,0.48,1.125
			s0.779,0.398,1.377,0.398c0.516,0,0.904-0.104,1.164-0.313S789.328,552.523,789.328,552.18z"/>
		<path d="M798.92,550.334c0,0.836-0.145,1.569-0.434,2.2s-0.701,1.115-1.238,1.453s-1.156,0.507-1.855,0.507
			c-0.691,0-1.307-0.169-1.848-0.507s-0.959-0.819-1.254-1.444s-0.445-1.346-0.449-2.162v-0.48c0-0.832,0.148-1.566,0.443-2.203
			s0.711-1.124,1.248-1.462s1.152-0.507,1.848-0.507s1.313,0.167,1.85,0.501s0.951,0.814,1.244,1.441s0.441,1.356,0.445,2.188
			V550.334z M797.438,549.889c0-0.945-0.178-1.67-0.535-2.174s-0.865-0.756-1.521-0.756c-0.641,0-1.141,0.251-1.502,0.753
			s-0.547,1.212-0.555,2.13v0.492c0,0.938,0.184,1.662,0.549,2.174s0.871,0.768,1.52,0.768c0.656,0,1.162-0.25,1.516-0.75
			s0.529-1.23,0.529-2.191V549.889z"/>
		<path d="M801.879,551.213v3.164h-1.482v-8.531h3.264c0.953,0,1.711,0.248,2.271,0.745s0.84,1.153,0.84,1.971
			c0,0.837-0.273,1.487-0.822,1.954c-0.549,0.465-1.318,0.697-2.307,0.697H801.879z M801.879,550.018h1.781
			c0.527,0,0.93-0.124,1.207-0.372s0.416-0.606,0.416-1.075c0-0.461-0.141-0.829-0.422-1.104s-0.668-0.417-1.16-0.425h-1.822
			V550.018z"/>
	</g>
</g>
<g>
	<g>
		<path d="M927.846,552.18c0-0.375-0.131-0.664-0.395-0.867s-0.74-0.408-1.428-0.615s-1.234-0.438-1.641-0.691
			c-0.777-0.488-1.166-1.125-1.166-1.91c0-0.688,0.281-1.254,0.842-1.699s1.287-0.668,2.182-0.668c0.594,0,1.123,0.109,1.588,0.328
			s0.83,0.53,1.096,0.935s0.398,0.853,0.398,1.345h-1.477c0-0.445-0.139-0.794-0.418-1.046s-0.68-0.378-1.199-0.378
			c-0.484,0-0.859,0.104-1.127,0.311s-0.402,0.496-0.402,0.867c0,0.313,0.145,0.573,0.434,0.782s0.766,0.412,1.43,0.609
			s1.197,0.422,1.6,0.674s0.697,0.541,0.885,0.867s0.281,0.708,0.281,1.146c0,0.711-0.271,1.276-0.816,1.696s-1.285,0.63-2.219,0.63
			c-0.617,0-1.184-0.114-1.701-0.343s-0.92-0.544-1.207-0.946s-0.432-0.871-0.432-1.406h1.482c0,0.484,0.16,0.859,0.48,1.125
			s0.779,0.398,1.377,0.398c0.516,0,0.904-0.104,1.164-0.313S927.846,552.523,927.846,552.18z"/>
		<path d="M935.088,552.18c0-0.375-0.131-0.664-0.395-0.867s-0.74-0.408-1.428-0.615s-1.234-0.438-1.641-0.691
			c-0.777-0.488-1.166-1.125-1.166-1.91c0-0.688,0.281-1.254,0.842-1.699s1.287-0.668,2.182-0.668c0.594,0,1.123,0.109,1.588,0.328
			s0.83,0.53,1.096,0.935s0.398,0.853,0.398,1.345h-1.477c0-0.445-0.139-0.794-0.418-1.046s-0.68-0.378-1.199-0.378
			c-0.484,0-0.859,0.104-1.127,0.311s-0.402,0.496-0.402,0.867c0,0.313,0.145,0.573,0.434,0.782s0.766,0.412,1.43,0.609
			s1.197,0.422,1.6,0.674s0.697,0.541,0.885,0.867s0.281,0.708,0.281,1.146c0,0.711-0.271,1.276-0.816,1.696s-1.285,0.63-2.219,0.63
			c-0.617,0-1.184-0.114-1.701-0.343s-0.92-0.544-1.207-0.946s-0.432-0.871-0.432-1.406h1.482c0,0.484,0.16,0.859,0.48,1.125
			s0.779,0.398,1.377,0.398c0.516,0,0.904-0.104,1.164-0.313S935.088,552.523,935.088,552.18z"/>
		<path d="M944.68,550.334c0,0.836-0.145,1.569-0.434,2.2s-0.701,1.115-1.238,1.453s-1.156,0.507-1.855,0.507
			c-0.691,0-1.307-0.169-1.848-0.507s-0.959-0.819-1.254-1.444s-0.445-1.346-0.449-2.162v-0.48c0-0.832,0.148-1.566,0.443-2.203
			s0.711-1.124,1.248-1.462s1.152-0.507,1.848-0.507s1.313,0.167,1.85,0.501s0.951,0.814,1.244,1.441s0.441,1.356,0.445,2.188
			V550.334z M943.197,549.889c0-0.945-0.178-1.67-0.535-2.174s-0.865-0.756-1.521-0.756c-0.641,0-1.141,0.251-1.502,0.753
			s-0.547,1.212-0.555,2.13v0.492c0,0.938,0.184,1.662,0.549,2.174s0.871,0.768,1.52,0.768c0.656,0,1.162-0.25,1.516-0.75
			s0.529-1.23,0.529-2.191V549.889z"/>
		<path d="M947.639,551.213v3.164h-1.482v-8.531h3.264c0.953,0,1.711,0.248,2.271,0.745s0.84,1.153,0.84,1.971
			c0,0.837-0.273,1.487-0.822,1.954c-0.549,0.465-1.318,0.697-2.307,0.697H947.639z M947.639,550.018h1.781
			c0.527,0,0.93-0.124,1.207-0.372s0.416-0.606,0.416-1.075c0-0.461-0.141-0.829-0.422-1.104s-0.668-0.417-1.16-0.425h-1.822
			V550.018z"/>
	</g>
</g>
<g>
	<g>
		<path d="M956.795,362.933l2.529-7.786h1.9l-3.582,9.953h-1.675l-3.568-9.953h1.894L956.795,362.933z"/>
		<path d="M968.163,360.656h-4.088v3.063h4.778v1.381h-6.508v-9.953h6.46v1.395h-4.73v2.748h4.088V360.656z"/>
		<path d="M978.157,365.1h-1.729l-4.437-7.062v7.062h-1.729v-9.953h1.729l4.45,7.089v-7.089h1.716V365.1z"/>
		<path d="M987.194,356.541h-3.104v8.559h-1.716v-8.559h-3.076v-1.395h7.896V356.541z"/>
	</g>
</g>
<g>
	<path fill="#5439AA" d="M969.839,369.284"/>
	<path fill="#5439AA" d="M975.929,369.284"/>
	<polygon fill="#5439AA" points="963.806,379.382 975.909,379.382 969.856,369.284 	"/>
</g>
<g>
	<g>
		
			<linearGradient id="SVGID_15_" gradientUnits="userSpaceOnUse" x1="-644.0776" y1="767.3799" x2="-636.382" y2="781.4874" gradientTransform="matrix(4.489659e-011 -1 1 4.489659e-011 4.6699 -118.1641)">
			<stop  offset="0" style="stop-color:#FA9C40"/>
			<stop  offset="0.5" style="stop-color:#B0380F"/>
			<stop  offset="1" style="stop-color:#E36E40"/>
		</linearGradient>
		<rect x="772.236" y="514.569" fill="url(#SVGID_15_)" width="17.232" height="13.086"/>
		<g>
			
				<linearGradient id="SVGID_16_" gradientUnits="userSpaceOnUse" x1="-426.3008" y1="507.0459" x2="-406.0123" y2="525.8614" gradientTransform="matrix(1 0 0 1 1203.5771 9.7324)">
				<stop  offset="0" style="stop-color:#FA9C40"/>
				<stop  offset="0.5" style="stop-color:#B0380F"/>
				<stop  offset="1" style="stop-color:#E36E40"/>
			</linearGradient>
			<circle fill="url(#SVGID_16_)" cx="787.622" cy="526.374" r="12.125"/>
		</g>
		
			<linearGradient id="SVGID_17_" gradientUnits="userSpaceOnUse" x1="787.0674" y1="534.0596" x2="791.7744" y2="542.6884" gradientTransform="matrix(-1 0 0 1 1577.9063 0)">
			<stop  offset="0" style="stop-color:#FA9C40"/>
			<stop  offset="0.5" style="stop-color:#B0380F"/>
			<stop  offset="1" style="stop-color:#E36E40"/>
		</linearGradient>
		<path fill="url(#SVGID_17_)" d="M775.495,540.129L775.495,540.129c0-1.265,0.751-2.291,1.676-2.291H798.3
			c0.925,0,1.676,1.026,1.676,2.291l0,0H775.495z"/>
	</g>
	<g opacity="0.6">
		<path d="M787.622,514.648c6.467,0,11.728,5.26,11.728,11.725c0,5.008-3.188,9.463-7.934,11.086l-2.275,0.779h2.405h6.754
			c0.6,0,1.118,0.65,1.246,1.49h-23.621c0.128-0.84,0.646-1.49,1.246-1.49h6.527h2.404l-2.274-0.779
			c-4.305-1.473-7.392-5.337-7.866-9.846l-0.037-0.358h-0.36h-2.928V514.97h12.249h0.046l0.044-0.011
			C785.871,514.753,786.761,514.648,787.622,514.648 M787.622,514.248c-0.942,0-1.855,0.118-2.736,0.321h-12.649v13.086h3.328
			c0.5,4.757,3.753,8.684,8.134,10.183h-6.527c-0.925,0-1.676,1.026-1.676,2.291h24.48c0-1.265-0.751-2.291-1.676-2.291h-6.754
			c4.77-1.632,8.204-6.143,8.204-11.465C799.75,519.674,794.32,514.248,787.622,514.248L787.622,514.248z"/>
	</g>
</g>
<g>
	<g>
		<path fill="#FFFFFF" d="M785.018,522.271l2.461,6.539l2.455-6.539h1.916v8.531h-1.477v-2.813l0.146-3.762l-2.52,6.574h-1.061
			l-2.514-6.568l0.146,3.756v2.813h-1.477v-8.531H785.018z"/>
	</g>
</g>
<g>
	<g>
		
			<linearGradient id="SVGID_18_" gradientUnits="userSpaceOnUse" x1="-574.2153" y1="767.3799" x2="-566.5193" y2="781.4881" gradientTransform="matrix(4.489659e-011 -1 1 4.489659e-011 4.6699 -118.1641)">
			<stop  offset="0" style="stop-color:#FA9C40"/>
			<stop  offset="0.5" style="stop-color:#B0380F"/>
			<stop  offset="1" style="stop-color:#E36E40"/>
		</linearGradient>
		<rect x="772.236" y="444.707" fill="url(#SVGID_18_)" width="17.232" height="13.086"/>
		<g>
			
				<linearGradient id="SVGID_19_" gradientUnits="userSpaceOnUse" x1="-426.3013" y1="437.1836" x2="-406.0128" y2="455.9991" gradientTransform="matrix(1 0 0 1 1203.5771 9.7324)">
				<stop  offset="0" style="stop-color:#FA9C40"/>
				<stop  offset="0.5" style="stop-color:#B0380F"/>
				<stop  offset="1" style="stop-color:#E36E40"/>
			</linearGradient>
			<circle fill="url(#SVGID_19_)" cx="787.622" cy="456.511" r="12.125"/>
		</g>
		
			<linearGradient id="SVGID_20_" gradientUnits="userSpaceOnUse" x1="787.0664" y1="464.1963" x2="791.7734" y2="472.8252" gradientTransform="matrix(-1 0 0 1 1577.9063 0)">
			<stop  offset="0" style="stop-color:#FA9C40"/>
			<stop  offset="0.5" style="stop-color:#B0380F"/>
			<stop  offset="1" style="stop-color:#E36E40"/>
		</linearGradient>
		<path fill="url(#SVGID_20_)" d="M775.495,470.267L775.495,470.267c0-1.265,0.751-2.291,1.676-2.291H798.3
			c0.925,0,1.676,1.026,1.676,2.291l0,0H775.495z"/>
	</g>
	<g opacity="0.6">
		<path d="M787.622,444.786c6.467,0,11.728,5.26,11.728,11.725c0,5.008-3.188,9.463-7.934,11.086l-2.275,0.779h2.405h6.754
			c0.6,0,1.118,0.65,1.246,1.49h-23.621c0.128-0.84,0.646-1.49,1.246-1.49h6.527h2.404l-2.274-0.779
			c-4.305-1.473-7.392-5.337-7.866-9.846l-0.037-0.358h-0.36h-2.928v-12.285h12.249h0.046l0.044-0.011
			C785.871,444.891,786.761,444.786,787.622,444.786 M787.622,444.386c-0.942,0-1.855,0.118-2.736,0.321h-12.649v13.086h3.328
			c0.5,4.757,3.753,8.684,8.134,10.183h-6.527c-0.925,0-1.676,1.026-1.676,2.291h24.48c0-1.265-0.751-2.291-1.676-2.291h-6.754
			c4.77-1.632,8.204-6.143,8.204-11.465C799.75,449.812,794.32,444.386,787.622,444.386L787.622,444.386z"/>
	</g>
</g>
<g>
	<g>
		<path fill="#FFFFFF" d="M787.74,457.659h-1.652v3.281h-1.482v-8.531h3c0.984,0,1.744,0.221,2.279,0.663
			c0.535,0.441,0.803,1.08,0.803,1.918c0,0.57-0.139,1.048-0.414,1.434c-0.275,0.385-0.658,0.681-1.15,0.888l1.916,3.553v0.076
			h-1.588L787.74,457.659z M786.088,456.464h1.523c0.5,0,0.891-0.126,1.172-0.378s0.422-0.597,0.422-1.034
			c0-0.457-0.131-0.811-0.391-1.061s-0.646-0.379-1.162-0.387h-1.564V456.464z"/>
	</g>
</g>
<g>
	<g>
		
			<linearGradient id="SVGID_21_" gradientUnits="userSpaceOnUse" x1="-552.835" y1="639.3984" x2="-545.1393" y2="653.506" gradientTransform="matrix(4.489659e-011 -1 1 4.489659e-011 4.6699 -118.1641)">
			<stop  offset="0" style="stop-color:#FA9C40"/>
			<stop  offset="0.5" style="stop-color:#B0380F"/>
			<stop  offset="1" style="stop-color:#E36E40"/>
		</linearGradient>
		<rect x="644.255" y="423.326" fill="url(#SVGID_21_)" width="17.232" height="13.086"/>
		<g>
			
				<linearGradient id="SVGID_22_" gradientUnits="userSpaceOnUse" x1="-554.2827" y1="415.8018" x2="-533.9942" y2="434.6172" gradientTransform="matrix(1 0 0 1 1203.5771 9.7324)">
				<stop  offset="0" style="stop-color:#FA9C40"/>
				<stop  offset="0.5" style="stop-color:#B0380F"/>
				<stop  offset="1" style="stop-color:#E36E40"/>
			</linearGradient>
			<circle fill="url(#SVGID_22_)" cx="659.641" cy="435.13" r="12.125"/>
		</g>
		
			<linearGradient id="SVGID_23_" gradientUnits="userSpaceOnUse" x1="915.0488" y1="442.8164" x2="919.7559" y2="451.4453" gradientTransform="matrix(-1 0 0 1 1577.9063 0)">
			<stop  offset="0" style="stop-color:#FA9C40"/>
			<stop  offset="0.5" style="stop-color:#B0380F"/>
			<stop  offset="1" style="stop-color:#E36E40"/>
		</linearGradient>
		<path fill="url(#SVGID_23_)" d="M647.514,448.886L647.514,448.886c0-1.265,0.751-2.291,1.676-2.291h21.129
			c0.925,0,1.676,1.026,1.676,2.291l0,0H647.514z"/>
	</g>
	<g opacity="0.6">
		<path d="M659.641,423.405c6.467,0,11.728,5.26,11.728,11.725c0,5.008-3.188,9.463-7.934,11.086l-2.275,0.779h2.405h6.754
			c0.6,0,1.118,0.65,1.246,1.49h-23.621c0.128-0.84,0.646-1.49,1.246-1.49h6.527h2.404l-2.274-0.779
			c-4.305-1.473-7.392-5.337-7.866-9.846l-0.037-0.358h-0.36h-2.928v-12.285h12.249h0.046l0.044-0.011
			C657.89,423.51,658.779,423.405,659.641,423.405 M659.641,423.005c-0.942,0-1.855,0.118-2.736,0.321h-12.649v13.086h3.328
			c0.5,4.757,3.753,8.684,8.134,10.183h-6.527c-0.925,0-1.676,1.026-1.676,2.291h24.48c0-1.265-0.751-2.291-1.676-2.291h-6.754
			c4.77-1.632,8.204-6.143,8.204-11.465C671.769,428.431,666.339,423.005,659.641,423.005L659.641,423.005z"/>
	</g>
</g>
<g>
	<g>
		<path fill="#FFFFFF" d="M661.961,435.751h-3.504v2.625h4.096v1.184h-5.578v-8.531h5.537v1.195h-4.055v2.355h3.504V435.751z"/>
	</g>
</g>
<g>
	<g>
		<path fill="#D8D8D8" d="M550.637,223.769v-51.98c0-0.09,0.031-0.182,0.087-0.258c3.06-4.098,7.705-6.449,12.744-6.449
			s9.685,2.351,12.744,6.451c0.056,0.074,0.085,0.163,0.085,0.256v51.98H550.637z"/>
		<path d="M563.468,165.382c4.943,0,9.501,2.307,12.503,6.329c0.018,0.023,0.026,0.049,0.026,0.077v51.68h-25.061v-51.68
			c0-0.027,0.011-0.056,0.025-0.077C553.967,167.689,558.524,165.382,563.468,165.382 M563.468,164.782
			c-5.135,0-9.867,2.395-12.986,6.571c-0.092,0.125-0.145,0.278-0.145,0.436v52.28h26.26v-52.28c0-0.158-0.051-0.31-0.145-0.436
			C573.335,167.177,568.603,164.782,563.468,164.782L563.468,164.782z"/>
	</g>
	<circle fill="#D8D8D8" stroke="#231F20" stroke-miterlimit="10" cx="563.467" cy="209.05" r="8.612"/>
	
		<line fill="#D8D8D8" stroke="#000000" stroke-width="0.6" stroke-miterlimit="10" x1="550.943" y1="178.843" x2="576.365" y2="178.843"/>
</g>
<g>
	<g>
		<path fill="#D8D8D8" d="M550.637,324.959v-51.98c0-0.09,0.031-0.182,0.087-0.258c3.06-4.098,7.705-6.449,12.744-6.449
			s9.685,2.351,12.744,6.451c0.056,0.074,0.085,0.163,0.085,0.256v51.98H550.637z"/>
		<path d="M563.468,266.573c4.943,0,9.501,2.307,12.503,6.329c0.018,0.023,0.026,0.049,0.026,0.077v51.68h-25.061v-51.68
			c0-0.027,0.011-0.056,0.025-0.077C553.967,268.88,558.524,266.573,563.468,266.573 M563.468,265.973
			c-5.135,0-9.867,2.395-12.986,6.571c-0.092,0.125-0.145,0.278-0.145,0.436v52.28h26.26v-52.28c0-0.158-0.051-0.31-0.145-0.436
			C573.335,268.367,568.603,265.973,563.468,265.973L563.468,265.973z"/>
	</g>
	<circle fill="#D8D8D8" stroke="#231F20" stroke-miterlimit="10" cx="563.467" cy="310.24" r="8.612"/>
	
		<line fill="#D8D8D8" stroke="#000000" stroke-width="0.6" stroke-miterlimit="10" x1="550.943" y1="280.034" x2="576.365" y2="280.034"/>
</g>
<g>
	<g>
		<path fill="#D8D8D8" d="M957.004,471.959v-51.98c0-0.091,0.031-0.183,0.087-0.258c3.06-4.098,7.706-6.448,12.744-6.448
			c5.039,0,9.685,2.351,12.744,6.45c0.055,0.074,0.085,0.164,0.085,0.256v51.98H957.004z"/>
		<path d="M969.835,413.572c4.943,0,9.501,2.308,12.502,6.327c0.018,0.024,0.027,0.051,0.027,0.079v51.681h-25.061v-51.681
			c0-0.026,0.011-0.056,0.025-0.076C960.334,415.88,964.892,413.572,969.835,413.572 M969.835,412.973
			c-5.135,0-9.867,2.395-12.986,6.57c-0.092,0.125-0.145,0.278-0.145,0.436v52.28h26.26v-52.28c0-0.157-0.051-0.309-0.145-0.436
			C979.702,415.367,974.97,412.973,969.835,412.973L969.835,412.973z"/>
	</g>
	
		<line fill="#D8D8D8" stroke="#000000" stroke-width="0.6" stroke-miterlimit="10" x1="957.311" y1="427.033" x2="982.732" y2="427.033"/>
</g>
<g>
	<g>
		<path fill="#D8D8D8" d="M328.694,316.812c-0.09,0-0.182-0.031-0.258-0.087c-4.097-3.06-6.448-7.706-6.448-12.744
			c0-5.039,2.351-9.684,6.45-12.744c0.075-0.055,0.164-0.085,0.256-0.085h51.98v25.66H328.694z"/>
		<path d="M380.375,291.452v25.06h-51.68c-0.027,0-0.056-0.011-0.077-0.025c-4.022-3.005-6.329-7.563-6.329-12.506
			s2.307-9.5,6.327-12.501c0.024-0.018,0.051-0.027,0.079-0.027H380.375 M380.975,290.852h-52.28c-0.157,0-0.309,0.051-0.436,0.145
			c-4.176,3.117-6.57,7.85-6.57,12.984c0,5.135,2.395,9.867,6.57,12.986c0.125,0.092,0.278,0.145,0.436,0.145h52.28V290.852
			L380.975,290.852z"/>
	</g>
	
		<line fill="#D8D8D8" stroke="#000000" stroke-width="0.6" stroke-miterlimit="10" x1="335.749" y1="316.506" x2="335.749" y2="291.083"/>
</g>
<line fill="none" stroke="#000000" stroke-width="1.4" stroke-miterlimit="10" x1="758.15" y1="188.5" x2="758.15" y2="450.587"/>
</svg>
