<?xml version="1.0" encoding="utf-8"?>
<!-- Generator: Adobe Illustrator 15.0.0, SVG Export Plug-In . SVG Version: 6.00 Build 0)  -->
<!DOCTYPE svg PUBLIC "-//W3C//DTD SVG 1.1//EN" "http://www.w3.org/Graphics/SVG/1.1/DTD/svg11.dtd">
<svg version="1.1" id="Layer_1" xmlns="http://www.w3.org/2000/svg" xmlns:xlink="http://www.w3.org/1999/xlink" x="0px" y="0px"
	 width="1200px" height="600px" viewBox="-90 0 1200 600" enable-background="new -90 0 1200 600" xml:space="preserve">
<path fill="#E2E2E2" stroke="#3A3A3A" stroke-width="0.6" stroke-miterlimit="10" d="M295.832,385.025h-74c-1.657,0-3-1.343-3-3
	s1.343-3,3-3h74c1.657,0,3,1.343,3,3S297.488,385.025,295.832,385.025z"/>
<path fill="#E2E2E2" stroke="#3A3A3A" stroke-width="0.6" stroke-miterlimit="10" d="M641.157,494.969H532.498V430.12
	c0-1.657,1.343-3,3-3s3,1.343,3,3v58.849h102.659c1.657,0,3,1.343,3,3S642.814,494.969,641.157,494.969z"/>
<path fill="#E2E2E2" stroke="#3A3A3A" stroke-width="0.6" stroke-miterlimit="10" d="M804.165,503.029h-143c-1.657,0-3-1.343-3-3
	s1.343-3,3-3h137V382.461c0-1.657,1.343-3,3-3s3,1.343,3,3V503.029z"/>
<path fill="#E2E2E2" stroke="#3A3A3A" stroke-width="0.6" stroke-miterlimit="10" d="M847.498,551.945H184.519v-58.69
	c0-1.657,1.343-3,3-3s3,1.343,3,3v52.69h650.979V380.369c0-1.657,1.343-3,3-3s3,1.343,3,3V551.945z"/>
<path fill="#E2E2E2" stroke="#3A3A3A" stroke-width="0.6" stroke-miterlimit="10" d="M759.498,443.142H654.984c-1.657,0-3-1.343-3-3
	s1.343-3,3-3h98.514v-47.737c0-1.657,1.343-3,3-3s3,1.343,3,3V443.142z"/>
<path fill="#E2E2E2" stroke="#3A3A3A" stroke-width="0.6" stroke-miterlimit="10" d="M446.498,472.167c-1.657,0-3-1.343-3-3v-43.219
	h202.695c1.657,0,3,1.343,3,3s-1.343,3-3,3H449.498v37.219C449.498,470.824,448.155,472.167,446.498,472.167z"/>
<g>
	
		<radialGradient id="SVGID_1_" cx="464.1187" cy="542.1689" r="21.0329" gradientTransform="matrix(0 1 1 0 199.8311 -190.0479)" gradientUnits="userSpaceOnUse">
		<stop  offset="0" style="stop-color:#FFFFFF"/>
		<stop  offset="1" style="stop-color:#858585"/>
	</radialGradient>
	<path fill="url(#SVGID_1_)" d="M746.732,286.343v-12.302c0-2.838-2.311-5.148-5.148-5.148h-12.303c-0.275,0-0.5,0.225-0.5,0.5
		v8.566c0,0.275,0.225,0.5,0.5,0.5h7.885v7.884c0,0.276,0.225,0.5,0.5,0.5h8.566C746.508,286.843,746.732,286.621,746.732,286.343z"
		/>
	<path opacity="0.4" enable-background="new    " d="M745.732,285.843h-7.566v-7.384v-1h-1h-7.385v-7.566h11.803
		c2.287,0,4.148,1.861,4.148,4.148V285.843 M746.732,286.343v-12.302c0-2.838-2.311-5.148-5.148-5.148h-12.303
		c-0.275,0-0.5,0.225-0.5,0.5v8.566c0,0.275,0.225,0.5,0.5,0.5h7.885v7.884c0,0.276,0.225,0.5,0.5,0.5h8.566
		C746.508,286.843,746.732,286.621,746.732,286.343L746.732,286.343z"/>
</g>
<g>
	
		<linearGradient id="SVGID_2_" gradientUnits="userSpaceOnUse" x1="-732.6982" y1="352.418" x2="-725.0023" y2="366.5262" gradientTransform="matrix(6.609870e-004 1 1 -6.609870e-004 285.1928 1158.6699)">
		<stop  offset="0" style="stop-color:#66A8E0"/>
		<stop  offset="0.497" style="stop-color:#003D57"/>
		<stop  offset="1" style="stop-color:#002140"/>
	</linearGradient>
	<polygon fill="url(#SVGID_2_)" points="637.31,437.107 654.542,437.096 654.534,424.01 637.302,424.021 	"/>
	<g>
		
			<linearGradient id="SVGID_3_" gradientUnits="userSpaceOnUse" x1="-288.9531" y1="416.6846" x2="-268.6646" y2="435.5001" gradientTransform="matrix(-1 6.609870e-004 6.609870e-004 1 374.2831 9.7343)">
			<stop  offset="0" style="stop-color:#66A8E0"/>
			<stop  offset="0.497" style="stop-color:#003D57"/>
			<stop  offset="1" style="stop-color:#002140"/>
		</linearGradient>
		<circle fill="url(#SVGID_3_)" cx="653.164" cy="435.815" r="12.125"/>
	</g>
	
		<linearGradient id="SVGID_4_" gradientUnits="userSpaceOnUse" x1="650.2344" y1="443.6582" x2="654.9418" y2="452.2877" gradientTransform="matrix(1 -6.609870e-004 6.609870e-004 1 -0.5563 0.2876)">
		<stop  offset="0" style="stop-color:#66A8E0"/>
		<stop  offset="0.497" style="stop-color:#003D57"/>
		<stop  offset="1" style="stop-color:#002140"/>
	</linearGradient>
	<path fill="url(#SVGID_4_)" d="M665.3,449.563L665.3,449.563c-0.002-1.265-0.753-2.291-1.677-2.288l-21.129,0.012
		c-0.927,0.002-1.676,1.029-1.676,2.293l0,0L665.3,449.563z"/>
	<g>
		<g>
			<path fill="#FFFFFF" d="M655.613,436.587l-3.504,0.002l0.002,2.625l4.096-0.002l0.001,1.184l-5.578,0.003l-0.006-8.531
				l5.537-0.003l0.001,1.195l-4.055,0.002l0.001,2.355l3.504-0.002L655.613,436.587z"/>
		</g>
	</g>
</g>
<g>
	
		<linearGradient id="SVGID_5_" gradientUnits="userSpaceOnUse" x1="-671.2861" y1="352.3779" x2="-663.5905" y2="366.4855" gradientTransform="matrix(6.609870e-004 1 1 -6.609870e-004 285.1928 1158.6699)">
		<stop  offset="0" style="stop-color:#66A8E0"/>
		<stop  offset="0.497" style="stop-color:#003D57"/>
		<stop  offset="1" style="stop-color:#002140"/>
	</linearGradient>
	<polygon fill="url(#SVGID_5_)" points="637.31,498.518 654.542,498.506 654.534,485.42 637.302,485.431 	"/>
	<g>
		
			<linearGradient id="SVGID_6_" gradientUnits="userSpaceOnUse" x1="-288.9126" y1="478.0957" x2="-268.6241" y2="496.9112" gradientTransform="matrix(-1 6.609870e-004 6.609870e-004 1 374.2831 9.7343)">
			<stop  offset="0" style="stop-color:#66A8E0"/>
			<stop  offset="0.497" style="stop-color:#003D57"/>
			<stop  offset="1" style="stop-color:#002140"/>
		</linearGradient>
		<circle fill="url(#SVGID_6_)" cx="653.164" cy="497.225" r="12.125"/>
	</g>
	
		<linearGradient id="SVGID_7_" gradientUnits="userSpaceOnUse" x1="650.1943" y1="505.0713" x2="654.9017" y2="513.7008" gradientTransform="matrix(1 -6.609870e-004 6.609870e-004 1 -0.5563 0.2876)">
		<stop  offset="0" style="stop-color:#66A8E0"/>
		<stop  offset="0.497" style="stop-color:#003D57"/>
		<stop  offset="1" style="stop-color:#002140"/>
	</linearGradient>
	<path fill="url(#SVGID_7_)" d="M665.3,510.973L665.3,510.973c-0.002-1.265-0.753-2.291-1.677-2.288l-21.129,0.012
		c-0.927,0.002-1.676,1.029-1.676,2.293l0,0L665.3,510.973z"/>
	<g>
		<g>
			<path fill="#FFFFFF" d="M655.613,497.997l-3.504,0.002l0.002,2.625l4.096-0.002l0.001,1.184l-5.578,0.003l-0.006-8.531
				l5.537-0.003l0.001,1.195l-4.055,0.002l0.001,2.355l3.504-0.002L655.613,497.997z"/>
		</g>
	</g>
</g>
<g>
	
		<radialGradient id="SVGID_8_" cx="306.4131" cy="254.8848" r="21.0329" gradientTransform="matrix(0 -1 -1 0 789.7822 798.9463)" gradientUnits="userSpaceOnUse">
		<stop  offset="0" style="stop-color:#FFFFFF"/>
		<stop  offset="1" style="stop-color:#858585"/>
	</radialGradient>
	<path fill="url(#SVGID_8_)" d="M530.165,480.261v12.302c0,2.838,2.311,5.148,5.148,5.148h12.303c0.275,0,0.5-0.225,0.5-0.5v-8.566
		c0-0.275-0.225-0.5-0.5-0.5h-7.885v-7.884c0-0.276-0.225-0.5-0.5-0.5h-8.566C530.39,479.761,530.165,479.983,530.165,480.261z"/>
	<path opacity="0.4" enable-background="new    " d="M531.165,480.761h7.566v7.384v1h1h7.385v7.566h-11.803
		c-2.287,0-4.148-1.861-4.148-4.148V480.761 M530.165,480.261v12.302c0,2.838,2.311,5.148,5.148,5.148h12.303
		c0.275,0,0.5-0.225,0.5-0.5v-8.566c0-0.275-0.225-0.5-0.5-0.5h-7.885v-7.884c0-0.276-0.225-0.5-0.5-0.5h-8.566
		C530.39,479.761,530.165,479.983,530.165,480.261L530.165,480.261z"/>
</g>
<g>
	<g>
		
			<radialGradient id="SVGID_9_" cx="652.1836" cy="-68.0879" r="15.9376" gradientTransform="matrix(1 0 0 -1 -116.8594 360.1533)" gradientUnits="userSpaceOnUse">
			<stop  offset="0" style="stop-color:#FFFFFF"/>
			<stop  offset="1" style="stop-color:#858585"/>
		</radialGradient>
		<path fill="url(#SVGID_9_)" d="M543.975,423.252h-16.951c-0.275,0-0.5,0.225-0.5,0.5v8.566c0,0.277,0.225,0.5,0.5,0.5h3.691v7.975
			c0,0.277,0.225,0.5,0.5,0.5h8.566c0.277,0,0.5-0.223,0.5-0.5v-7.975h3.691c0.275,0,0.5-0.223,0.5-0.5v-8.566
			C544.475,423.477,544.25,423.252,543.975,423.252z"/>
	</g>
	<g opacity="0.4">
		<path d="M543.475,424.252v7.566h-3.193h-1v1v7.475h-7.564v-7.475v-1h-1h-3.191v-7.566H543.475 M543.975,423.252h-16.951
			c-0.275,0-0.5,0.225-0.5,0.5v8.566c0,0.277,0.225,0.5,0.5,0.5h3.691v7.975c0,0.277,0.225,0.5,0.5,0.5h8.566
			c0.277,0,0.5-0.223,0.5-0.5v-7.975h3.691c0.275,0,0.5-0.223,0.5-0.5v-8.566C544.475,423.477,544.25,423.252,543.975,423.252
			L543.975,423.252z"/>
	</g>
</g>
<g>
	
		<radialGradient id="SVGID_10_" cx="447.0298" cy="171.1104" r="21.0329" gradientTransform="matrix(1 0 0 -1 -0.02 599.0947)" gradientUnits="userSpaceOnUse">
		<stop  offset="0" style="stop-color:#FFFFFF"/>
		<stop  offset="1" style="stop-color:#858585"/>
	</radialGradient>
	<path fill="url(#SVGID_10_)" d="M459.282,423.252H446.98c-2.838,0-5.148,2.311-5.148,5.148v12.303c0,0.275,0.225,0.5,0.5,0.5h8.566
		c0.275,0,0.5-0.225,0.5-0.5v-7.885h7.884c0.276,0,0.5-0.225,0.5-0.5v-8.566C459.782,423.477,459.56,423.252,459.282,423.252z"/>
	<path opacity="0.4" enable-background="new    " d="M458.782,424.252v7.566h-7.384h-1v1v7.385h-7.566V428.4
		c0-2.287,1.861-4.148,4.148-4.148H458.782 M459.282,423.252H446.98c-2.838,0-5.148,2.311-5.148,5.148v12.303
		c0,0.275,0.225,0.5,0.5,0.5h8.566c0.275,0,0.5-0.225,0.5-0.5v-7.885h7.884c0.276,0,0.5-0.225,0.5-0.5v-8.566
		C459.782,423.477,459.56,423.252,459.282,423.252L459.282,423.252z"/>
</g>
<polygon fill="#B5B4B4" points="135.761,463.894 135.761,356.386 152.556,341.972 223.094,341.972 239.277,356.386 239.277,463.894 
	187.519,508.337 "/>
<g opacity="0.6">
	<path fill="#231F20" d="M222.713,342.972l15.564,13.862v106.601l-50.758,43.584l-50.758-43.584V356.846l16.165-13.874H222.713
		 M223.094,341.972h-70.538l-16.795,14.414v107.508l51.758,44.443l51.758-44.443V356.386L223.094,341.972L223.094,341.972z"/>
</g>
<g>
	<g>
		<path d="M187.777,377.088h-1.652v3.281h-1.482v-8.531h3c0.984,0,1.744,0.221,2.279,0.662s0.803,1.081,0.803,1.918
			c0,0.57-0.138,1.049-0.413,1.434s-0.659,0.682-1.151,0.889l1.916,3.553v0.076h-1.588L187.777,377.088z M186.125,375.893h1.523
			c0.5,0,0.891-0.127,1.172-0.379s0.422-0.596,0.422-1.033c0-0.457-0.13-0.811-0.39-1.061s-0.647-0.379-1.163-0.387h-1.564V375.893z
			"/>
		<path d="M189.98,388.561h-3.504v2.625h4.096v1.184h-5.578v-8.531h5.537v1.195h-4.055v2.355h3.504V388.561z"/>
		<path d="M189.224,402.172c0-0.375-0.132-0.664-0.396-0.867s-0.739-0.408-1.427-0.615s-1.234-0.438-1.641-0.691
			c-0.777-0.488-1.166-1.125-1.166-1.91c0-0.688,0.28-1.254,0.841-1.699s1.288-0.668,2.183-0.668c0.594,0,1.123,0.109,1.588,0.328
			s0.83,0.529,1.096,0.934s0.398,0.854,0.398,1.346h-1.477c0-0.445-0.14-0.795-0.419-1.047s-0.679-0.377-1.198-0.377
			c-0.484,0-0.86,0.104-1.128,0.311s-0.401,0.496-0.401,0.867c0,0.313,0.145,0.572,0.434,0.781s0.766,0.412,1.43,0.609
			s1.197,0.422,1.6,0.674s0.697,0.541,0.885,0.867s0.281,0.709,0.281,1.146c0,0.711-0.272,1.275-0.817,1.695
			s-1.284,0.631-2.218,0.631c-0.617,0-1.185-0.115-1.702-0.344s-0.92-0.543-1.207-0.945s-0.431-0.871-0.431-1.406h1.482
			c0,0.484,0.16,0.859,0.48,1.125s0.779,0.398,1.377,0.398c0.516,0,0.903-0.105,1.163-0.314S189.224,402.516,189.224,402.172z"/>
		<path d="M188.257,416.369h-1.477v-8.531h1.477V416.369z"/>
		<path d="M190.894,428.369h-1.482l-3.803-6.053v6.053h-1.482v-8.531h1.482l3.814,6.076v-6.076h1.471V428.369z"/>
		<path d="M184.601,452.369v-8.531h2.924c0.965,0,1.699,0.193,2.203,0.58s0.756,0.963,0.756,1.729c0,0.391-0.105,0.742-0.316,1.055
			s-0.52,0.555-0.926,0.727c0.461,0.125,0.817,0.359,1.069,0.705s0.378,0.762,0.378,1.246c0,0.801-0.257,1.416-0.771,1.846
			s-1.249,0.645-2.206,0.645H184.601z M186.083,447.43h1.453c0.461,0,0.821-0.105,1.081-0.314s0.39-0.504,0.39-0.887
			c0-0.422-0.12-0.727-0.36-0.914s-0.614-0.281-1.122-0.281h-1.441V447.43z M186.083,448.52v2.666h1.646
			c0.465,0,0.828-0.115,1.09-0.346s0.393-0.551,0.393-0.961c0-0.887-0.453-1.34-1.359-1.359H186.083z"/>
		<path d="M189.98,460.561h-3.504v2.625h4.096v1.184h-5.578v-8.531h5.537v1.195h-4.055v2.355h3.504V460.561z"/>
		<path d="M184.466,476.369v-8.531h2.52c0.754,0,1.423,0.168,2.007,0.504s1.036,0.813,1.356,1.43s0.48,1.324,0.48,2.121v0.428
			c0,0.809-0.161,1.52-0.483,2.133s-0.781,1.086-1.377,1.418s-1.278,0.498-2.048,0.498H184.466z M185.949,469.033v6.152h0.967
			c0.777,0,1.374-0.244,1.79-0.73s0.628-1.184,0.636-2.094v-0.475c0-0.926-0.201-1.633-0.604-2.121s-0.986-0.732-1.752-0.732
			H185.949z"/>
	</g>
</g>
<g>
	
		<radialGradient id="SVGID_11_" cx="251.0313" cy="601.8848" r="21.0329" gradientTransform="matrix(0 -1 -1 0 789.7822 798.9463)" gradientUnits="userSpaceOnUse">
		<stop  offset="0" style="stop-color:#FFFFFF"/>
		<stop  offset="1" style="stop-color:#858585"/>
	</radialGradient>
	<path fill="url(#SVGID_11_)" d="M183.165,535.643v12.302c0,2.838,2.311,5.148,5.148,5.148h12.303c0.275,0,0.5-0.225,0.5-0.5v-8.566
		c0-0.275-0.225-0.5-0.5-0.5h-7.885v-7.884c0-0.276-0.225-0.5-0.5-0.5h-8.566C183.39,535.143,183.165,535.365,183.165,535.643z"/>
	<path opacity="0.4" enable-background="new    " d="M184.165,536.143h7.566v7.384v1h1h7.385v7.566h-11.803
		c-2.287,0-4.148-1.861-4.148-4.148V536.143 M183.165,535.643v12.302c0,2.838,2.311,5.148,5.148,5.148h12.303
		c0.275,0,0.5-0.225,0.5-0.5v-8.566c0-0.275-0.225-0.5-0.5-0.5h-7.885v-7.884c0-0.276-0.225-0.5-0.5-0.5h-8.566
		C183.39,535.143,183.165,535.365,183.165,535.643L183.165,535.643z"/>
</g>
<g>
	
		<radialGradient id="SVGID_12_" cx="145.9829" cy="539.8877" r="21.0322" gradientTransform="matrix(-1 0 0 1 989.3037 9.4736)" gradientUnits="userSpaceOnUse">
		<stop  offset="0" style="stop-color:#FFFFFF"/>
		<stop  offset="1" style="stop-color:#858585"/>
	</radialGradient>
	<path fill="url(#SVGID_12_)" d="M831.049,554.094h12.301c2.838,0,5.148-2.311,5.148-5.148v-12.303c0-0.275-0.225-0.5-0.5-0.5
		h-8.566c-0.275,0-0.5,0.225-0.5,0.5v7.885h-7.883c-0.277,0-0.5,0.225-0.5,0.5v8.566
		C830.549,553.869,830.771,554.094,831.049,554.094z"/>
	<path opacity="0.4" enable-background="new    " d="M831.549,553.094v-7.566h7.383h1v-1v-7.385h7.566v11.803
		c0,2.287-1.861,4.148-4.148,4.148H831.549 M831.049,554.094h12.301c2.838,0,5.148-2.311,5.148-5.148v-12.303
		c0-0.275-0.225-0.5-0.5-0.5h-8.566c-0.275,0-0.5,0.225-0.5,0.5v7.885h-7.883c-0.277,0-0.5,0.225-0.5,0.5v8.566
		C830.549,553.869,830.771,554.094,831.049,554.094L831.049,554.094z"/>
</g>
<g>
	
		<radialGradient id="SVGID_13_" cx="188.1797" cy="491.04" r="21.0343" gradientTransform="matrix(-1 0 0 1 989.3037 9.4736)" gradientUnits="userSpaceOnUse">
		<stop  offset="0" style="stop-color:#FFFFFF"/>
		<stop  offset="1" style="stop-color:#858585"/>
	</radialGradient>
	<path fill="url(#SVGID_13_)" d="M788.851,505.246h12.303c2.838,0,5.148-2.311,5.148-5.148v-12.303c0-0.275-0.225-0.5-0.5-0.5
		h-8.566c-0.275,0-0.5,0.225-0.5,0.5v7.885h-7.885c-0.275,0-0.5,0.225-0.5,0.5v8.566
		C788.351,505.021,788.573,505.246,788.851,505.246z"/>
	<path opacity="0.4" enable-background="new    " d="M789.351,504.246v-7.566h7.385h1v-1v-7.385h7.566v11.803
		c0,2.287-1.861,4.148-4.148,4.148H789.351 M788.851,505.246h12.303c2.838,0,5.148-2.311,5.148-5.148v-12.303
		c0-0.275-0.225-0.5-0.5-0.5h-8.566c-0.275,0-0.5,0.225-0.5,0.5v7.885h-7.885c-0.275,0-0.5,0.225-0.5,0.5v8.566
		C788.351,505.021,788.573,505.246,788.851,505.246L788.851,505.246z"/>
</g>
<g>
	
		<radialGradient id="SVGID_14_" cx="233.9824" cy="430.3457" r="21.0329" gradientTransform="matrix(-1 0 0 1 989.3037 9.4736)" gradientUnits="userSpaceOnUse">
		<stop  offset="0" style="stop-color:#FFFFFF"/>
		<stop  offset="1" style="stop-color:#858585"/>
	</radialGradient>
	<path fill="url(#SVGID_14_)" d="M743.049,444.552h12.302c2.838,0,5.148-2.311,5.148-5.148v-12.303c0-0.275-0.225-0.5-0.5-0.5
		h-8.566c-0.275,0-0.5,0.225-0.5,0.5v7.885h-7.884c-0.276,0-0.5,0.225-0.5,0.5v8.566
		C742.549,444.327,742.771,444.552,743.049,444.552z"/>
	<path opacity="0.4" enable-background="new    " d="M743.549,443.552v-7.566h7.384h1v-1v-7.385h7.566v11.803
		c0,2.287-1.861,4.148-4.148,4.148H743.549 M743.049,444.552h12.302c2.838,0,5.148-2.311,5.148-5.148v-12.303
		c0-0.275-0.225-0.5-0.5-0.5h-8.566c-0.275,0-0.5,0.225-0.5,0.5v7.885h-7.884c-0.276,0-0.5,0.225-0.5,0.5v8.566
		C742.549,444.327,742.771,444.552,743.049,444.552L743.049,444.552z"/>
</g>
<polygon fill="#C0C0C0" points="340.219,91.626 340.219,213.287 362.109,223.68 763.8,223.68 782.17,212.676 782.17,91.626 
	764.155,77.565 362.109,77.565 "/>
<g opacity="0.6">
	<path d="M763.813,78.565l17.357,13.549v119.995l-17.646,10.571h-401.19l-21.116-10.025V92.173l21.184-13.607H763.813
		 M764.156,77.565H362.109l-21.891,14.061v121.661l21.891,10.393h401.691l18.369-11.004V91.626L764.156,77.565L764.156,77.565z"/>
</g>
<linearGradient id="SVGID_15_" gradientUnits="userSpaceOnUse" x1="561.1943" y1="103.5317" x2="561.1943" y2="199.1665">
	<stop  offset="0" style="stop-color:#FFD6B0"/>
	<stop  offset="0.5" style="stop-color:#FFF5E6"/>
	<stop  offset="1" style="stop-color:#FFD6B0"/>
</linearGradient>
<polygon fill="url(#SVGID_15_)" points="370.991,151.511 407.209,103.532 718.229,103.532 751.397,151.511 720.327,198.358 
	405.964,198.358 "/>
<g opacity="0.6">
	<path d="M717.705,104.532l32.484,46.991l-30.399,45.835H406.466l-34.225-45.844l35.466-46.983H717.705 M718.229,103.532H407.209
		l-36.218,47.979l34.974,46.847h314.363l31.07-46.847L718.229,103.532L718.229,103.532z"/>
</g>
<g>
	<g>
		<path d="M530.214,94.394c-0.36,0.469-0.858,0.825-1.497,1.066s-1.363,0.362-2.174,0.362c-0.834,0-1.572-0.189-2.215-0.567
			s-1.139-0.919-1.486-1.624c-0.35-0.704-0.53-1.525-0.544-2.464v-0.779c0-1.504,0.36-2.679,1.08-3.524s1.726-1.268,3.015-1.268
			c1.107,0,1.986,0.274,2.639,0.824s1.043,1.339,1.176,2.369h-1.695c-0.191-1.199-0.887-1.798-2.085-1.798
			c-0.774,0-1.364,0.279-1.767,0.836c-0.404,0.558-0.612,1.376-0.626,2.456v0.765c0,1.075,0.227,1.909,0.681,2.503
			c0.453,0.594,1.083,0.891,1.89,0.891c0.884,0,1.513-0.201,1.887-0.602v-1.948h-2.051V90.58h3.773V94.394z"/>
		<path d="M537.932,91.243h-4.088v3.063h4.778v1.381h-6.508v-9.953h6.46v1.395h-4.73v2.748h4.088V91.243z"/>
		<path d="M547.926,95.686h-1.729l-4.437-7.062v7.062h-1.729v-9.953h1.729l4.45,7.089v-7.089h1.716V95.686z"/>
		<path d="M555.787,91.243h-4.088v3.063h4.778v1.381h-6.508v-9.953h6.46v1.395h-4.73v2.748h4.088V91.243z"/>
		<path d="M561.543,91.858h-1.928v3.828h-1.729v-9.953h3.5c1.148,0,2.034,0.258,2.659,0.773c0.625,0.516,0.937,1.261,0.937,2.237
			c0,0.666-0.161,1.224-0.481,1.673c-0.322,0.449-0.77,0.795-1.344,1.037l2.235,4.145v0.089h-1.853L561.543,91.858z M559.615,90.463
			h1.777c0.584,0,1.039-0.147,1.367-0.441s0.492-0.696,0.492-1.207c0-0.533-0.151-0.946-0.455-1.237
			c-0.303-0.292-0.755-0.442-1.356-0.451h-1.825V90.463z"/>
		<path d="M572.193,93.369h-3.855l-0.807,2.317h-1.798l3.76-9.953h1.552l3.767,9.953h-1.805L572.193,93.369z M568.823,91.974h2.885
			l-1.442-4.129L568.823,91.974z"/>
		<path d="M582.311,87.127h-3.104v8.559h-1.716v-8.559h-3.076v-1.395h7.896V87.127z"/>
		<path d="M591.368,90.969c0,0.975-0.169,1.831-0.506,2.567s-0.819,1.301-1.446,1.695c-0.626,0.394-1.348,0.591-2.163,0.591
			c-0.807,0-1.525-0.197-2.157-0.591c-0.631-0.394-1.118-0.956-1.463-1.685c-0.344-0.729-0.518-1.57-0.522-2.522v-0.561
			c0-0.971,0.172-1.828,0.517-2.57c0.344-0.743,0.829-1.312,1.455-1.706c0.627-0.394,1.346-0.591,2.157-0.591
			s1.53,0.195,2.157,0.584c0.626,0.39,1.11,0.95,1.452,1.682s0.515,1.583,0.52,2.553V90.969z M589.639,90.45
			c0-1.103-0.209-1.948-0.625-2.536c-0.418-0.588-1.009-0.882-1.774-0.882c-0.747,0-1.332,0.293-1.753,0.878
			c-0.422,0.585-0.637,1.414-0.646,2.485v0.574c0,1.094,0.213,1.939,0.639,2.536c0.427,0.597,1.018,0.896,1.774,0.896
			c0.766,0,1.354-0.292,1.767-0.875c0.413-0.583,0.619-1.436,0.619-2.557V90.45z"/>
		<path d="M596.748,91.858h-1.928v3.828h-1.729v-9.953h3.5c1.148,0,2.034,0.258,2.659,0.773c0.625,0.516,0.937,1.261,0.937,2.237
			c0,0.666-0.161,1.224-0.481,1.673c-0.322,0.449-0.77,0.795-1.344,1.037l2.235,4.145v0.089h-1.853L596.748,91.858z M594.82,90.463
			h1.777c0.584,0,1.039-0.147,1.367-0.441s0.492-0.696,0.492-1.207c0-0.533-0.151-0.946-0.455-1.237
			c-0.303-0.292-0.755-0.442-1.356-0.451h-1.825V90.463z"/>
	</g>
</g>
<g>
	<g>
		<path d="M441.801,245.446c-0.1,1.062-0.492,1.89-1.176,2.485s-1.593,0.892-2.728,0.892c-0.793,0-1.491-0.188-2.095-0.564
			s-1.07-0.91-1.398-1.603s-0.499-1.497-0.513-2.413v-0.93c0-0.939,0.167-1.766,0.499-2.481s0.81-1.267,1.432-1.654
			s1.341-0.581,2.157-0.581c1.098,0,1.982,0.297,2.652,0.892s1.06,1.437,1.169,2.526h-1.723c-0.082-0.715-0.291-1.231-0.625-1.548
			s-0.826-0.475-1.473-0.475c-0.752,0-1.33,0.275-1.733,0.825c-0.403,0.549-0.609,1.356-0.619,2.418v0.883
			c0,1.076,0.192,1.897,0.578,2.463c0.385,0.566,0.949,0.849,1.692,0.849c0.679,0,1.189-0.153,1.531-0.458s0.558-0.813,0.649-1.524
			H441.801z"/>
		<path d="M448.917,246.369h-3.855l-0.807,2.317h-1.798l3.76-9.953h1.552l3.767,9.953h-1.805L448.917,246.369z M445.547,244.974
			h2.885l-1.442-4.129L445.547,244.974z"/>
		<path d="M457.865,246.123c0-0.438-0.154-0.775-0.461-1.012s-0.862-0.476-1.665-0.718s-1.44-0.51-1.914-0.807
			c-0.907-0.57-1.36-1.313-1.36-2.229c0-0.802,0.327-1.463,0.981-1.982s1.503-0.779,2.546-0.779c0.693,0,1.31,0.127,1.853,0.383
			s0.968,0.619,1.278,1.09s0.465,0.995,0.465,1.569h-1.723c0-0.52-0.163-0.926-0.489-1.22s-0.792-0.441-1.398-0.441
			c-0.565,0-1.004,0.121-1.316,0.362s-0.468,0.579-0.468,1.012c0,0.365,0.168,0.669,0.506,0.913s0.893,0.481,1.668,0.711
			s1.397,0.492,1.866,0.786s0.813,0.631,1.032,1.012s0.328,0.826,0.328,1.336c0,0.83-0.318,1.489-0.954,1.979
			s-1.498,0.735-2.587,0.735c-0.72,0-1.382-0.133-1.986-0.4s-1.073-0.635-1.408-1.104s-0.502-1.016-0.502-1.641h1.729
			c0,0.565,0.187,1.002,0.561,1.313s0.909,0.465,1.606,0.465c0.602,0,1.054-0.122,1.357-0.366S457.865,246.523,457.865,246.123z"/>
		<path d="M462.938,248.686h-1.723v-9.953h1.723V248.686z"/>
		<path d="M472.959,248.686h-1.729l-4.437-7.062v7.062h-1.729v-9.953h1.729l4.45,7.089v-7.089h1.716V248.686z"/>
		<path d="M482.632,247.394c-0.36,0.469-0.859,0.825-1.497,1.066s-1.363,0.362-2.174,0.362c-0.834,0-1.572-0.189-2.215-0.567
			s-1.138-0.919-1.487-1.624s-0.53-1.525-0.543-2.464v-0.779c0-1.504,0.36-2.679,1.08-3.524s1.725-1.268,3.015-1.268
			c1.107,0,1.987,0.274,2.639,0.824s1.043,1.339,1.176,2.369h-1.695c-0.191-1.199-0.886-1.798-2.085-1.798
			c-0.775,0-1.364,0.279-1.767,0.836c-0.403,0.558-0.612,1.376-0.625,2.456v0.765c0,1.075,0.227,1.909,0.68,2.503
			s1.083,0.891,1.89,0.891c0.884,0,1.513-0.201,1.887-0.602v-1.948h-2.051v-1.313h3.773V247.394z"/>
		<path d="M489.748,247.305h4.519v1.381h-6.248v-9.953h1.729V247.305z"/>
		<path d="M497.418,248.686h-1.723v-9.953h1.723V248.686z"/>
		<path d="M507.453,243.969c0,0.943-0.149,1.76-0.447,2.451c-0.299,0.69-0.717,1.238-1.255,1.644l1.709,1.333l-1.121,1.012
			l-2.119-1.675c-0.278,0.059-0.577,0.089-0.896,0.089c-0.802,0-1.519-0.197-2.15-0.591s-1.119-0.956-1.463-1.685
			s-0.519-1.57-0.523-2.522v-0.561c0-0.971,0.172-1.828,0.516-2.57s0.83-1.312,1.456-1.706s1.343-0.591,2.15-0.591
			c0.82,0,1.544,0.195,2.17,0.584c0.627,0.39,1.111,0.95,1.453,1.682s0.516,1.583,0.52,2.553V243.969z M505.717,243.45
			c0-1.121-0.209-1.971-0.629-2.55s-1.012-0.868-1.777-0.868c-0.743,0-1.325,0.293-1.747,0.878s-0.637,1.412-0.646,2.478v0.581
			c0,1.076,0.211,1.917,0.632,2.522s1.013,0.909,1.774,0.909c0.77,0,1.361-0.292,1.773-0.875c0.413-0.583,0.619-1.436,0.619-2.557
			V243.45z"/>
		<path d="M510.085,246.936c0.31,0,0.55,0.088,0.718,0.263s0.253,0.396,0.253,0.66c0,0.26-0.085,0.475-0.253,0.646
			s-0.408,0.256-0.718,0.256c-0.296,0-0.53-0.084-0.704-0.253s-0.26-0.385-0.26-0.649s0.084-0.484,0.253-0.66
			S509.779,246.936,510.085,246.936z"/>
		<path d="M518.336,247.305h4.519v1.381h-6.248v-9.953h1.729V247.305z"/>
		<path d="M529.998,244.243h-4.088v3.063h4.778v1.381h-6.508v-9.953h6.46v1.395h-4.73v2.748h4.088V244.243z"/>
		<path d="M535.604,246.519l2.529-7.786h1.9l-3.582,9.953h-1.675l-3.568-9.953h1.894L535.604,246.519z"/>
		<path d="M546.972,244.243h-4.088v3.063h4.778v1.381h-6.508v-9.953h6.46v1.395h-4.73v2.748h4.088V244.243z"/>
		<path d="M550.8,247.305h4.519v1.381h-6.248v-9.953h1.729V247.305z"/>
		<path d="M565.333,246.123c0-0.438-0.153-0.775-0.462-1.012c-0.307-0.237-0.861-0.476-1.664-0.718s-1.439-0.51-1.914-0.807
			c-0.906-0.57-1.36-1.313-1.36-2.229c0-0.802,0.327-1.463,0.981-1.982c0.653-0.52,1.502-0.779,2.546-0.779
			c0.692,0,1.31,0.127,1.853,0.383s0.969,0.619,1.278,1.09s0.465,0.995,0.465,1.569h-1.723c0-0.52-0.163-0.926-0.489-1.22
			c-0.325-0.294-0.791-0.441-1.397-0.441c-0.565,0-1.004,0.121-1.315,0.362c-0.313,0.242-0.469,0.579-0.469,1.012
			c0,0.365,0.168,0.669,0.506,0.913s0.893,0.481,1.668,0.711s1.396,0.492,1.866,0.786s0.813,0.631,1.032,1.012
			s0.328,0.826,0.328,1.336c0,0.83-0.318,1.489-0.953,1.979c-0.637,0.49-1.498,0.735-2.588,0.735c-0.721,0-1.382-0.133-1.986-0.4
			c-0.604-0.267-1.072-0.635-1.408-1.104c-0.334-0.469-0.502-1.016-0.502-1.641h1.729c0,0.565,0.187,1.002,0.561,1.313
			s0.909,0.465,1.606,0.465c0.602,0,1.054-0.122,1.357-0.366C565.182,246.846,565.333,246.523,565.333,246.123z"/>
		<path d="M575.771,240.127h-3.104v8.559h-1.716v-8.559h-3.076v-1.395h7.896V240.127z"/>
		<path d="M581.828,246.369h-3.855l-0.807,2.317h-1.798l3.76-9.953h1.552l3.767,9.953h-1.805L581.828,246.369z M578.458,244.974
			h2.885l-1.442-4.129L578.458,244.974z"/>
		<path d="M591.945,240.127h-3.104v8.559h-1.716v-8.559h-3.076v-1.395h7.896V240.127z"/>
		<path d="M600.531,238.733v6.651c0,1.057-0.338,1.895-1.016,2.512c-0.676,0.618-1.578,0.926-2.703,0.926
			c-1.139,0-2.044-0.304-2.714-0.913s-1.005-1.453-1.005-2.533v-6.645h1.723v6.658c0,0.666,0.168,1.173,0.506,1.524
			s0.834,0.526,1.49,0.526c1.33,0,1.996-0.702,1.996-2.105v-6.604H600.531z"/>
		<path d="M607.579,246.123c0-0.438-0.153-0.775-0.462-1.012c-0.307-0.237-0.861-0.476-1.664-0.718s-1.439-0.51-1.914-0.807
			c-0.906-0.57-1.36-1.313-1.36-2.229c0-0.802,0.327-1.463,0.981-1.982c0.653-0.52,1.502-0.779,2.546-0.779
			c0.692,0,1.31,0.127,1.853,0.383s0.969,0.619,1.278,1.09s0.465,0.995,0.465,1.569h-1.723c0-0.52-0.163-0.926-0.489-1.22
			c-0.325-0.294-0.791-0.441-1.397-0.441c-0.565,0-1.004,0.121-1.315,0.362c-0.313,0.242-0.469,0.579-0.469,1.012
			c0,0.365,0.168,0.669,0.506,0.913s0.893,0.481,1.668,0.711s1.396,0.492,1.866,0.786s0.813,0.631,1.032,1.012
			s0.328,0.826,0.328,1.336c0,0.83-0.318,1.489-0.953,1.979c-0.637,0.49-1.498,0.735-2.588,0.735c-0.721,0-1.382-0.133-1.986-0.4
			c-0.604-0.267-1.072-0.635-1.408-1.104c-0.334-0.469-0.502-1.016-0.502-1.641h1.729c0,0.565,0.187,1.002,0.561,1.313
			s0.909,0.465,1.606,0.465c0.602,0,1.054-0.122,1.357-0.366C607.428,246.846,607.579,246.523,607.579,246.123z"/>
	</g>
</g>
<g>
	<g>
		<path d="M504.863,529.857h-1.928v3.828h-1.729v-9.953h3.5c1.148,0,2.035,0.258,2.659,0.773s0.937,1.262,0.937,2.237
			c0,0.666-0.161,1.224-0.482,1.673s-0.769,0.795-1.343,1.037l2.235,4.145v0.088h-1.853L504.863,529.857z M502.936,528.463h1.777
			c0.583,0,1.039-0.146,1.367-0.44s0.492-0.696,0.492-1.206c0-0.533-0.151-0.946-0.455-1.238c-0.303-0.291-0.755-0.441-1.357-0.451
			h-1.825V528.463z"/>
		<path d="M515.76,529.242h-4.088v3.063h4.778v1.381h-6.508v-9.953h6.46v1.395h-4.73v2.748h4.088V529.242z"/>
		<path d="M523.061,531.123c0-0.438-0.154-0.775-0.461-1.012c-0.309-0.237-0.863-0.477-1.665-0.719
			c-0.802-0.241-1.44-0.51-1.914-0.807c-0.907-0.569-1.36-1.313-1.36-2.229c0-0.802,0.327-1.463,0.98-1.982
			c0.654-0.52,1.504-0.779,2.547-0.779c0.693,0,1.311,0.128,1.853,0.383c0.542,0.256,0.968,0.619,1.278,1.091
			s0.465,0.995,0.465,1.569h-1.723c0-0.52-0.163-0.927-0.488-1.221c-0.326-0.294-0.793-0.441-1.398-0.441
			c-0.564,0-1.004,0.121-1.316,0.363c-0.312,0.241-0.468,0.578-0.468,1.012c0,0.364,0.169,0.668,0.506,0.912s0.894,0.48,1.668,0.711
			s1.397,0.492,1.866,0.786s0.813,0.632,1.032,1.012s0.328,0.826,0.328,1.337c0,0.829-0.317,1.488-0.954,1.979
			c-0.635,0.49-1.498,0.734-2.587,0.734c-0.72,0-1.382-0.133-1.985-0.399c-0.604-0.267-1.074-0.635-1.408-1.104
			c-0.336-0.469-0.503-1.016-0.503-1.641h1.729c0,0.565,0.188,1.003,0.561,1.313c0.373,0.311,0.909,0.465,1.606,0.465
			c0.602,0,1.054-0.121,1.356-0.365C522.909,531.846,523.061,531.523,523.061,531.123z"/>
		<path d="M532.125,529.242h-4.088v3.063h4.778v1.381h-6.508v-9.953h6.46v1.395h-4.73v2.748h4.088V529.242z"/>
		<path d="M537.881,529.857h-1.928v3.828h-1.729v-9.953h3.5c1.148,0,2.034,0.258,2.659,0.773s0.937,1.262,0.937,2.237
			c0,0.666-0.161,1.224-0.481,1.673c-0.322,0.449-0.77,0.795-1.344,1.037l2.235,4.145v0.088h-1.853L537.881,529.857z
			 M535.953,528.463h1.777c0.584,0,1.039-0.146,1.367-0.44s0.492-0.696,0.492-1.206c0-0.533-0.151-0.946-0.455-1.238
			c-0.303-0.291-0.755-0.441-1.356-0.451h-1.825V528.463z"/>
		<path d="M546.337,531.52l2.529-7.787h1.9l-3.582,9.953h-1.675l-3.568-9.953h1.894L546.337,531.52z"/>
		<path d="M557.705,529.242h-4.088v3.063h4.778v1.381h-6.508v-9.953h6.46v1.395h-4.73v2.748h4.088V529.242z"/>
		<path d="M565.02,529.994v3.691h-1.729v-9.953h3.808c1.111,0,1.995,0.29,2.648,0.869c0.654,0.58,0.981,1.346,0.981,2.3
			c0,0.977-0.32,1.735-0.96,2.278c-0.641,0.543-1.537,0.814-2.69,0.814H565.02z M565.02,528.6h2.078
			c0.615,0,1.084-0.145,1.408-0.434s0.485-0.707,0.485-1.254c0-0.538-0.164-0.968-0.492-1.289s-0.779-0.486-1.354-0.496h-2.126
			V528.6z"/>
		<path d="M579.519,523.732v6.652c0,1.057-0.339,1.895-1.015,2.512c-0.678,0.617-1.578,0.926-2.704,0.926
			c-1.14,0-2.044-0.304-2.714-0.912s-1.005-1.453-1.005-2.533v-6.645h1.723v6.658c0,0.666,0.169,1.174,0.506,1.525
			c0.337,0.351,0.834,0.525,1.49,0.525c1.331,0,1.996-0.701,1.996-2.105v-6.604H579.519z"/>
		<path d="M583.606,523.732l2.871,7.629l2.864-7.629h2.235v9.953h-1.723v-3.281l0.171-4.389l-2.939,7.67h-1.237l-2.933-7.662
			l0.171,4.381v3.281h-1.723v-9.953H583.606z"/>
		<path d="M595.351,529.994v3.691h-1.729v-9.953h3.808c1.112,0,1.995,0.29,2.649,0.869c0.653,0.58,0.98,1.346,0.98,2.3
			c0,0.977-0.32,1.735-0.961,2.278c-0.64,0.543-1.537,0.814-2.689,0.814H595.351z M595.351,528.6h2.078
			c0.615,0,1.085-0.145,1.408-0.434s0.485-0.707,0.485-1.254c0-0.538-0.164-0.968-0.492-1.289s-0.779-0.486-1.354-0.496h-2.126
			V528.6z"/>
	</g>
</g>
<g>
	<g>
		<path d="M468.144,126.365c0-0.469-0.165-0.83-0.495-1.084c-0.329-0.254-0.924-0.51-1.783-0.769s-1.543-0.547-2.051-0.864
			c-0.972-0.61-1.458-1.406-1.458-2.388c0-0.859,0.35-1.567,1.051-2.124c0.7-0.557,1.61-0.835,2.728-0.835
			c0.742,0,1.404,0.137,1.985,0.41s1.038,0.663,1.37,1.168c0.332,0.505,0.498,1.065,0.498,1.681h-1.846
			c0-0.557-0.175-0.992-0.524-1.308c-0.349-0.314-0.848-0.472-1.498-0.472c-0.605,0-1.076,0.129-1.41,0.388
			c-0.335,0.259-0.502,0.62-0.502,1.084c0,0.391,0.181,0.717,0.542,0.978c0.361,0.262,0.957,0.516,1.787,0.762
			c0.83,0.247,1.497,0.527,2,0.843c0.503,0.314,0.872,0.676,1.106,1.084s0.352,0.885,0.352,1.432c0,0.889-0.341,1.596-1.021,2.12
			c-0.682,0.525-1.605,0.788-2.772,0.788c-0.771,0-1.481-0.143-2.128-0.428c-0.647-0.286-1.149-0.68-1.509-1.183
			c-0.358-0.503-0.538-1.089-0.538-1.758h1.853c0,0.605,0.2,1.074,0.601,1.406s0.974,0.498,1.721,0.498
			c0.645,0,1.129-0.13,1.454-0.392C467.981,127.141,468.144,126.795,468.144,126.365z"/>
		<path d="M479.328,119.942h-3.325v9.17h-1.838v-9.17h-3.296v-1.494h8.459V119.942z"/>
		<path d="M485.817,126.629h-4.131l-0.864,2.483h-1.926l4.028-10.664h1.663l4.036,10.664h-1.934L485.817,126.629z M482.206,125.135
			h3.091l-1.545-4.424L482.206,125.135z"/>
		<path d="M496.657,119.942h-3.325v9.17h-1.838v-9.17h-3.296v-1.494h8.459V119.942z"/>
		<path d="M506.361,124.058c0,1.045-0.181,1.962-0.542,2.75s-0.878,1.394-1.549,1.816s-1.444,0.633-2.318,0.633
			c-0.864,0-1.635-0.211-2.311-0.633s-1.199-1.024-1.567-1.806s-0.555-1.682-0.56-2.703v-0.601c0-1.04,0.184-1.958,0.553-2.754
			c0.368-0.796,0.888-1.405,1.56-1.828c0.671-0.422,1.442-0.633,2.311-0.633s1.639,0.208,2.311,0.626
			c0.671,0.417,1.19,1.018,1.556,1.802c0.366,0.783,0.552,1.695,0.557,2.735V124.058z M504.508,123.501
			c0-1.182-0.224-2.087-0.67-2.717c-0.447-0.63-1.081-0.945-1.901-0.945c-0.801,0-1.427,0.314-1.878,0.941
			c-0.452,0.628-0.683,1.515-0.692,2.663v0.615c0,1.172,0.228,2.078,0.685,2.717s1.09,0.959,1.901,0.959
			c0.82,0,1.451-0.313,1.893-0.938s0.663-1.538,0.663-2.739V123.501z"/>
		<path d="M512.125,125.01h-2.065v4.102h-1.853v-10.664h3.75c1.23,0,2.18,0.276,2.85,0.828c0.668,0.552,1.003,1.352,1.003,2.397
			c0,0.713-0.173,1.311-0.517,1.792s-0.824,0.852-1.439,1.111l2.396,4.44v0.095h-1.985L512.125,125.01z M510.06,123.516h1.905
			c0.625,0,1.113-0.158,1.465-0.472c0.352-0.315,0.527-0.746,0.527-1.293c0-0.571-0.163-1.013-0.488-1.326
			c-0.324-0.313-0.809-0.474-1.453-0.483h-1.956V123.516z"/>
		<path d="M529.667,126.475l1.641-8.027h1.839l-2.461,10.664h-1.773l-2.028-7.786l-2.073,7.786h-1.779l-2.461-10.664h1.838
			l1.656,8.013l2.035-8.013h1.553L529.667,126.475z"/>
		<path d="M540.155,126.629h-4.131l-0.864,2.483h-1.926l4.027-10.664h1.663l4.036,10.664h-1.934L540.155,126.629z M536.545,125.135
			h3.09l-1.545-4.424L536.545,125.135z"/>
		<path d="M550.995,119.942h-3.325v9.17h-1.838v-9.17h-3.297v-1.494h8.46V119.942z"/>
		<path d="M558.627,124.351h-4.38v3.281h5.12v1.479h-6.973v-10.664h6.921v1.494h-5.068v2.944h4.38V124.351z"/>
		<path d="M564.794,125.01h-2.065v4.102h-1.854v-10.664h3.75c1.23,0,2.181,0.276,2.85,0.828c0.669,0.552,1.004,1.352,1.004,2.397
			c0,0.713-0.172,1.311-0.518,1.792c-0.344,0.481-0.823,0.852-1.438,1.111l2.396,4.44v0.095h-1.985L564.794,125.01z
			 M562.729,123.516h1.904c0.625,0,1.113-0.158,1.465-0.472c0.352-0.315,0.527-0.746,0.527-1.293c0-0.571-0.162-1.013-0.486-1.326
			c-0.326-0.313-0.811-0.474-1.455-0.483h-1.955V123.516z"/>
		<path d="M582.108,125.64c-0.107,1.138-0.527,2.025-1.26,2.663c-0.732,0.637-1.706,0.956-2.923,0.956
			c-0.85,0-1.598-0.202-2.244-0.604c-0.647-0.403-1.146-0.976-1.498-1.718s-0.535-1.604-0.549-2.585v-0.996
			c0-1.006,0.178-1.892,0.534-2.659s0.868-1.357,1.534-1.772s1.438-0.623,2.311-0.623c1.178,0,2.125,0.319,2.842,0.956
			c0.719,0.638,1.136,1.54,1.253,2.707h-1.846c-0.088-0.767-0.312-1.319-0.671-1.659c-0.357-0.339-0.885-0.509-1.578-0.509
			c-0.805,0-1.424,0.294-1.855,0.883c-0.434,0.589-0.654,1.453-0.664,2.592v0.945c0,1.153,0.207,2.033,0.619,2.639
			c0.412,0.606,1.018,0.909,1.813,0.909c0.729,0,1.275-0.164,1.641-0.491c0.367-0.327,0.599-0.872,0.696-1.633H582.108z"/>
		<path d="M592.274,124.058c0,1.045-0.181,1.962-0.542,2.75s-0.878,1.394-1.549,1.816c-0.672,0.422-1.444,0.633-2.318,0.633
			c-0.864,0-1.635-0.211-2.311-0.633c-0.677-0.422-1.199-1.024-1.568-1.806c-0.368-0.781-0.555-1.682-0.56-2.703v-0.601
			c0-1.04,0.185-1.958,0.554-2.754c0.367-0.796,0.888-1.405,1.559-1.828c0.672-0.422,1.442-0.633,2.312-0.633
			s1.64,0.208,2.312,0.626c0.67,0.417,1.189,1.018,1.556,1.802c0.366,0.783,0.552,1.695,0.557,2.735V124.058z M590.422,123.501
			c0-1.182-0.225-2.087-0.67-2.717c-0.447-0.63-1.081-0.945-1.901-0.945c-0.801,0-1.427,0.314-1.878,0.941
			c-0.453,0.628-0.684,1.515-0.693,2.663v0.615c0,1.172,0.229,2.078,0.686,2.717c0.456,0.64,1.09,0.959,1.9,0.959
			c0.82,0,1.451-0.313,1.893-0.938c0.442-0.625,0.664-1.538,0.664-2.739V123.501z"/>
		<path d="M602.58,129.112h-1.854l-4.754-7.566v7.566h-1.853v-10.664h1.853l4.769,7.595v-7.595h1.839V129.112z"/>
		<path d="M604.77,129.112v-10.664h3.149c0.942,0,1.778,0.21,2.509,0.63c0.729,0.42,1.295,1.016,1.695,1.787
			s0.601,1.655,0.601,2.651v0.535c0,1.011-0.202,1.899-0.604,2.666s-0.977,1.357-1.721,1.772c-0.745,0.415-1.598,0.623-2.561,0.623
			H604.77z M606.623,119.942v7.69h1.208c0.972,0,1.718-0.304,2.237-0.912c0.52-0.608,0.785-1.481,0.795-2.619v-0.593
			c0-1.157-0.252-2.041-0.754-2.651c-0.504-0.61-1.233-0.916-2.19-0.916H606.623z"/>
		<path d="M616.525,129.112h-1.846v-10.664h1.846V129.112z"/>
		<path d="M626.295,119.942h-3.324v9.17h-1.839v-9.17h-3.296v-1.494h8.459V119.942z"/>
		<path d="M629.65,129.112h-1.846v-10.664h1.846V129.112z"/>
		<path d="M640.438,124.058c0,1.045-0.181,1.962-0.542,2.75s-0.878,1.394-1.549,1.816c-0.672,0.422-1.444,0.633-2.318,0.633
			c-0.864,0-1.635-0.211-2.311-0.633c-0.677-0.422-1.199-1.024-1.568-1.806c-0.368-0.781-0.555-1.682-0.56-2.703v-0.601
			c0-1.04,0.185-1.958,0.554-2.754c0.367-0.796,0.888-1.405,1.559-1.828c0.672-0.422,1.442-0.633,2.312-0.633
			s1.64,0.208,2.312,0.626c0.67,0.417,1.189,1.018,1.556,1.802c0.366,0.783,0.552,1.695,0.557,2.735V124.058z M638.586,123.501
			c0-1.182-0.225-2.087-0.67-2.717c-0.447-0.63-1.081-0.945-1.901-0.945c-0.801,0-1.427,0.314-1.878,0.941
			c-0.453,0.628-0.684,1.515-0.693,2.663v0.615c0,1.172,0.229,2.078,0.686,2.717c0.456,0.64,1.09,0.959,1.9,0.959
			c0.82,0,1.451-0.313,1.893-0.938c0.442-0.625,0.664-1.538,0.664-2.739V123.501z"/>
		<path d="M650.744,129.112h-1.854l-4.754-7.566v7.566h-1.853v-10.664h1.853l4.769,7.595v-7.595h1.839V129.112z"/>
		<path d="M658.508,126.365c0-0.469-0.166-0.83-0.494-1.084c-0.33-0.254-0.925-0.51-1.784-0.769s-1.543-0.547-2.051-0.864
			c-0.972-0.61-1.458-1.406-1.458-2.388c0-0.859,0.351-1.567,1.051-2.124c0.701-0.557,1.611-0.835,2.729-0.835
			c0.742,0,1.404,0.137,1.985,0.41s1.038,0.663,1.37,1.168c0.332,0.505,0.498,1.065,0.498,1.681h-1.846
			c0-0.557-0.176-0.992-0.523-1.308c-0.35-0.314-0.85-0.472-1.498-0.472c-0.605,0-1.076,0.129-1.41,0.388
			c-0.335,0.259-0.502,0.62-0.502,1.084c0,0.391,0.181,0.717,0.542,0.978c0.361,0.262,0.957,0.516,1.787,0.762
			c0.83,0.247,1.497,0.527,1.999,0.843c0.504,0.314,0.872,0.676,1.106,1.084s0.352,0.885,0.352,1.432
			c0,0.889-0.341,1.596-1.022,2.12c-0.68,0.525-1.604,0.788-2.771,0.788c-0.771,0-1.48-0.143-2.127-0.428
			c-0.648-0.286-1.15-0.68-1.51-1.183s-0.538-1.089-0.538-1.758h1.853c0,0.605,0.201,1.074,0.602,1.406s0.974,0.498,1.721,0.498
			c0.645,0,1.129-0.13,1.453-0.392C658.345,127.141,658.508,126.795,658.508,126.365z"/>
	</g>
</g>
<path fill="#E2E2E2" stroke="#3A3A3A" stroke-width="0.6" stroke-miterlimit="10" d="M387.165,472.167c-1.657,0-3-1.343-3-3V433.12
	H297.98V42.833h546.851V272.19h-78V151.833c0-1.657,1.343-3,3-3s3,1.343,3,3V266.19h66V48.833H303.98V427.12h86.185v42.047
	C390.165,470.824,388.821,472.167,387.165,472.167z"/>
<g>
	
		<radialGradient id="SVGID_16_" cx="528.6982" cy="21.2188" r="21.0329" gradientTransform="matrix(0 -1 -1 0 789.7822 798.9463)" gradientUnits="userSpaceOnUse">
		<stop  offset="0" style="stop-color:#FFFFFF"/>
		<stop  offset="1" style="stop-color:#858585"/>
	</radialGradient>
	<path fill="url(#SVGID_16_)" d="M763.831,257.976v12.302c0,2.838,2.311,5.148,5.148,5.148h12.303c0.275,0,0.5-0.225,0.5-0.5v-8.566
		c0-0.275-0.225-0.5-0.5-0.5h-7.885v-7.884c0-0.276-0.225-0.5-0.5-0.5h-8.566C764.056,257.476,763.831,257.698,763.831,257.976z"/>
	<path opacity="0.4" enable-background="new    " d="M764.831,258.476h7.566v7.384v1h1h7.385v7.566h-11.803
		c-2.287,0-4.148-1.861-4.148-4.148V258.476 M763.831,257.976v12.302c0,2.838,2.311,5.148,5.148,5.148h12.303
		c0.275,0,0.5-0.225,0.5-0.5v-8.566c0-0.275-0.225-0.5-0.5-0.5h-7.885v-7.884c0-0.276-0.225-0.5-0.5-0.5h-8.566
		C764.056,257.476,763.831,257.698,763.831,257.976L763.831,257.976z"/>
</g>
<g>
	
		<radialGradient id="SVGID_17_" cx="145.9829" cy="261.2197" r="21.0322" gradientTransform="matrix(-1 0 0 1 989.3037 9.4736)" gradientUnits="userSpaceOnUse">
		<stop  offset="0" style="stop-color:#FFFFFF"/>
		<stop  offset="1" style="stop-color:#858585"/>
	</radialGradient>
	<path fill="url(#SVGID_17_)" d="M831.049,275.426h12.301c2.838,0,5.148-2.311,5.148-5.148v-12.303c0-0.275-0.225-0.5-0.5-0.5
		h-8.566c-0.275,0-0.5,0.225-0.5,0.5v7.885h-7.883c-0.277,0-0.5,0.225-0.5,0.5v8.566
		C830.549,275.202,830.771,275.426,831.049,275.426z"/>
	<path opacity="0.4" enable-background="new    " d="M831.549,274.426v-7.566h7.383h1v-1v-7.385h7.566v11.803
		c0,2.287-1.861,4.148-4.148,4.148H831.549 M831.049,275.426h12.301c2.838,0,5.148-2.311,5.148-5.148v-12.303
		c0-0.275-0.225-0.5-0.5-0.5h-8.566c-0.275,0-0.5,0.225-0.5,0.5v7.885h-7.883c-0.277,0-0.5,0.225-0.5,0.5v8.566
		C830.549,275.202,830.771,275.426,831.049,275.426L831.049,275.426z"/>
</g>
<g>
	
		<radialGradient id="SVGID_18_" cx="235.2515" cy="643.9355" r="21.0329" gradientTransform="matrix(0 1 1 0 199.8311 -190.0479)" gradientUnits="userSpaceOnUse">
		<stop  offset="0" style="stop-color:#FFFFFF"/>
		<stop  offset="1" style="stop-color:#858585"/>
	</radialGradient>
	<path fill="url(#SVGID_18_)" d="M848.499,57.476V45.174c0-2.838-2.311-5.148-5.148-5.148h-12.303c-0.275,0-0.5,0.225-0.5,0.5v8.566
		c0,0.275,0.225,0.5,0.5,0.5h7.885v7.884c0,0.276,0.225,0.5,0.5,0.5h8.566C848.274,57.976,848.499,57.753,848.499,57.476z"/>
	<path opacity="0.4" enable-background="new    " d="M847.499,56.976h-7.566v-7.384v-1h-1h-7.385v-7.566h11.803
		c2.287,0,4.148,1.861,4.148,4.148V56.976 M848.499,57.476V45.174c0-2.838-2.311-5.148-5.148-5.148h-12.303
		c-0.275,0-0.5,0.225-0.5,0.5v8.566c0,0.275,0.225,0.5,0.5,0.5h7.885v7.884c0,0.276,0.225,0.5,0.5,0.5h8.566
		C848.274,57.976,848.499,57.753,848.499,57.476L848.499,57.476z"/>
</g>
<path fill="#E2E2E2" stroke="#3A3A3A" stroke-width="0.6" stroke-miterlimit="10" d="M742.549,313.286c-1.657,0-3-1.343-3-3v-33.688
	H354.165V151.833c0-1.657,1.343-3,3-3s3,1.343,3,3v118.765h385.384v39.688C745.549,311.943,744.206,313.286,742.549,313.286z"/>
<g>
	
		<radialGradient id="SVGID_19_" cx="525.958" cy="431.8848" r="21.0343" gradientTransform="matrix(0 -1 -1 0 789.7822 798.9463)" gradientUnits="userSpaceOnUse">
		<stop  offset="0" style="stop-color:#FFFFFF"/>
		<stop  offset="1" style="stop-color:#858585"/>
	</radialGradient>
	<path fill="url(#SVGID_19_)" d="M353.165,260.715v12.302c0,2.838,2.311,5.148,5.148,5.148h12.303c0.275,0,0.5-0.225,0.5-0.5v-8.566
		c0-0.275-0.225-0.5-0.5-0.5h-7.885v-7.884c0-0.276-0.225-0.5-0.5-0.5h-8.566C353.39,260.215,353.165,260.438,353.165,260.715z"/>
	<path opacity="0.4" enable-background="new    " d="M354.165,261.215h7.566v7.384v1h1h7.385v7.566h-11.803
		c-2.287,0-4.148-1.861-4.148-4.148V261.215 M353.165,260.715v12.302c0,2.838,2.311,5.148,5.148,5.148h12.303
		c0.275,0,0.5-0.225,0.5-0.5v-8.566c0-0.275-0.225-0.5-0.5-0.5h-7.885v-7.884c0-0.276-0.225-0.5-0.5-0.5h-8.566
		C353.39,260.215,353.165,260.438,353.165,260.715L353.165,260.715z"/>
</g>
<g>
	
		<linearGradient id="SVGID_20_" gradientUnits="userSpaceOnUse" x1="-142.5811" y1="50.644" x2="-53.915" y2="50.644" gradientTransform="matrix(0 1 1 0 768.2368 449.459)">
		<stop  offset="0" style="stop-color:#AFBDD6"/>
		<stop  offset="0.5" style="stop-color:#FFFFFF"/>
		<stop  offset="1" style="stop-color:#AFBDD6"/>
	</linearGradient>
	<path fill="url(#SVGID_20_)" d="M727.605,395.054c-13.171-10.527-20.725-26.506-20.725-43.846c0-17.336,7.554-33.316,20.727-43.842
		c0.396-0.316,0.878-0.488,1.375-0.488h179.797c0.497,0,0.98,0.172,1.377,0.488c13.174,10.525,20.725,26.506,20.725,43.842
		c0,17.34-7.551,33.318-20.722,43.846c-0.397,0.318-0.882,0.49-1.377,0.49h-179.8C728.485,395.544,728.002,395.372,727.605,395.054z
		"/>
	<g opacity="0.5">
		<path fill="#231F20" d="M908.779,307.479c0.358,0,0.714,0.127,1.003,0.356c13.027,10.409,20.499,26.218,20.499,43.373
			s-7.471,32.966-20.497,43.378c-0.289,0.23-0.645,0.357-1.002,0.357h-179.8c-0.363,0-0.71-0.123-1.002-0.358
			c-13.028-10.413-20.5-26.224-20.5-43.377s7.473-32.963,20.502-43.374c0.292-0.232,0.638-0.355,1-0.355H908.779 M908.779,306.878
			H728.982c-0.497,0-0.979,0.172-1.375,0.488c-13.173,10.525-20.727,26.506-20.727,43.842c0,17.34,7.554,33.318,20.725,43.846
			c0.396,0.318,0.88,0.49,1.377,0.49h179.8c0.495,0,0.979-0.172,1.377-0.49c13.171-10.527,20.722-26.506,20.722-43.846
			c0-17.336-7.551-33.316-20.725-43.842C909.76,307.05,909.276,306.878,908.779,306.878L908.779,306.878z"/>
	</g>
	<g>
		
			<line opacity="0.5" fill="none" stroke="#231F20" stroke-width="0.6" stroke-miterlimit="10" x1="737.819" y1="308.202" x2="737.819" y2="394.22"/>
		
			<line opacity="0.5" fill="none" stroke="#FFFFFF" stroke-width="0.6" stroke-miterlimit="10" x1="739.027" y1="308.202" x2="739.027" y2="394.22"/>
	</g>
	<g>
		
			<line opacity="0.5" fill="none" stroke="#231F20" stroke-width="0.6" stroke-miterlimit="10" x1="897.528" y1="308.202" x2="897.528" y2="394.22"/>
		
			<line opacity="0.5" fill="none" stroke="#FFFFFF" stroke-width="0.6" stroke-miterlimit="10" x1="898.736" y1="308.202" x2="898.736" y2="394.22"/>
	</g>
	
		<line fill="none" stroke="#231F20" stroke-width="0.6" stroke-miterlimit="10" x1="739.027" y1="327.86" x2="897.528" y2="327.86"/>
	
		<line opacity="0.6" fill="none" stroke="#231F20" stroke-width="0.6" stroke-miterlimit="10" stroke-dasharray="4" x1="739.027" y1="332.784" x2="897.528" y2="332.784"/>
	<g opacity="0.6">
		<line fill="none" stroke="#231F20" stroke-miterlimit="10" x1="731.083" y1="319.605" x2="735.636" y2="319.605"/>
		<line fill="none" stroke="#231F20" stroke-miterlimit="10" x1="731.083" y1="326.549" x2="735.636" y2="326.549"/>
		<line fill="none" stroke="#231F20" stroke-miterlimit="10" x1="731.083" y1="312.664" x2="735.636" y2="312.664"/>
		<line fill="none" stroke="#231F20" stroke-miterlimit="10" x1="731.083" y1="333.49" x2="735.636" y2="333.49"/>
		<line fill="none" stroke="#231F20" stroke-miterlimit="10" x1="731.083" y1="347.375" x2="735.636" y2="347.375"/>
		<line fill="none" stroke="#231F20" stroke-miterlimit="10" x1="731.083" y1="340.434" x2="735.636" y2="340.434"/>
		<line fill="none" stroke="#231F20" stroke-miterlimit="10" x1="731.083" y1="361.635" x2="735.636" y2="361.635"/>
		<line fill="none" stroke="#231F20" stroke-miterlimit="10" x1="731.083" y1="368.576" x2="735.636" y2="368.576"/>
		<line fill="none" stroke="#231F20" stroke-miterlimit="10" x1="731.083" y1="354.691" x2="735.636" y2="354.691"/>
		<line fill="none" stroke="#231F20" stroke-miterlimit="10" x1="731.083" y1="375.52" x2="735.636" y2="375.52"/>
		<line fill="none" stroke="#231F20" stroke-miterlimit="10" x1="731.083" y1="389.404" x2="735.636" y2="389.404"/>
		<line fill="none" stroke="#231F20" stroke-miterlimit="10" x1="731.083" y1="382.461" x2="735.636" y2="382.461"/>
	</g>
	<g opacity="0.6">
		<line fill="none" stroke="#231F20" stroke-miterlimit="10" x1="900.872" y1="319.605" x2="905.425" y2="319.605"/>
		<line fill="none" stroke="#231F20" stroke-miterlimit="10" x1="900.872" y1="326.549" x2="905.425" y2="326.549"/>
		<line fill="none" stroke="#231F20" stroke-miterlimit="10" x1="900.872" y1="312.664" x2="905.425" y2="312.664"/>
		<line fill="none" stroke="#231F20" stroke-miterlimit="10" x1="900.872" y1="333.49" x2="905.425" y2="333.49"/>
		<line fill="none" stroke="#231F20" stroke-miterlimit="10" x1="900.872" y1="347.375" x2="905.425" y2="347.375"/>
		<line fill="none" stroke="#231F20" stroke-miterlimit="10" x1="900.872" y1="340.434" x2="905.425" y2="340.434"/>
		<line fill="none" stroke="#231F20" stroke-miterlimit="10" x1="900.872" y1="361.635" x2="905.425" y2="361.635"/>
		<line fill="none" stroke="#231F20" stroke-miterlimit="10" x1="900.872" y1="368.576" x2="905.425" y2="368.576"/>
		<line fill="none" stroke="#231F20" stroke-miterlimit="10" x1="900.872" y1="354.691" x2="905.425" y2="354.691"/>
		<line fill="none" stroke="#231F20" stroke-miterlimit="10" x1="900.872" y1="375.52" x2="905.425" y2="375.52"/>
		<line fill="none" stroke="#231F20" stroke-miterlimit="10" x1="900.872" y1="389.404" x2="905.425" y2="389.404"/>
		<line fill="none" stroke="#231F20" stroke-miterlimit="10" x1="900.872" y1="382.461" x2="905.425" y2="382.461"/>
	</g>
</g>
<g>
	<g>
		<path d="M789.188,344.324l1.313-6.422h1.471l-1.969,8.531h-1.418l-1.623-6.229l-1.658,6.229h-1.424l-1.969-8.531h1.471l1.324,6.41
			l1.629-6.41h1.242L789.188,344.324z"/>
		<path d="M797.578,344.447h-3.305l-0.691,1.986h-1.541l3.223-8.531h1.33l3.229,8.531h-1.547L797.578,344.447z M794.689,343.252
			h2.473l-1.236-3.539L794.689,343.252z"/>
		<path d="M806.25,339.098h-2.66v7.336h-1.471v-7.336h-2.637v-1.195h6.768V339.098z"/>
		<path d="M812.355,342.625h-3.504v2.625h4.096v1.184h-5.578v-8.531h5.537v1.195h-4.055v2.355h3.504V342.625z"/>
		<path d="M817.289,343.152h-1.652v3.281h-1.482v-8.531h3c0.984,0,1.744,0.221,2.279,0.662s0.803,1.081,0.803,1.918
			c0,0.57-0.139,1.049-0.414,1.434s-0.658,0.682-1.15,0.889l1.916,3.553v0.076H819L817.289,343.152z M815.637,341.957h1.523
			c0.5,0,0.891-0.127,1.172-0.379s0.422-0.596,0.422-1.033c0-0.457-0.131-0.811-0.391-1.061s-0.646-0.379-1.162-0.387h-1.564
			V341.957z"/>
		<path d="M830.443,339.098h-2.66v7.336h-1.471v-7.336h-2.637v-1.195h6.768V339.098z"/>
		<path d="M835.635,344.447h-3.305l-0.691,1.986h-1.541l3.223-8.531h1.33l3.229,8.531h-1.547L835.635,344.447z M832.746,343.252
			h2.473l-1.236-3.539L832.746,343.252z"/>
		<path d="M845.613,346.434h-1.482l-3.803-6.053v6.053h-1.482v-8.531h1.482l3.814,6.076v-6.076h1.471V346.434z"/>
		<path d="M849.814,342.748l-0.967,1.025v2.66h-1.482v-8.531h1.482v4.002l0.82-1.014l2.496-2.988h1.793l-3.17,3.779l3.352,4.752
			h-1.758L849.814,342.748z"/>
	</g>
</g>
<g>
	
		<radialGradient id="SVGID_21_" cx="369.6982" cy="489.2188" r="21.0329" gradientTransform="matrix(0 -1 -1 0 789.7822 798.9463)" gradientUnits="userSpaceOnUse">
		<stop  offset="0" style="stop-color:#FFFFFF"/>
		<stop  offset="1" style="stop-color:#858585"/>
	</radialGradient>
	<path fill="url(#SVGID_21_)" d="M295.832,416.976v12.302c0,2.838,2.311,5.148,5.148,5.148h12.303c0.275,0,0.5-0.225,0.5-0.5v-8.566
		c0-0.275-0.225-0.5-0.5-0.5h-7.885v-7.884c0-0.276-0.225-0.5-0.5-0.5h-8.566C296.056,416.476,295.832,416.698,295.832,416.976z"/>
	<path opacity="0.4" enable-background="new    " d="M296.832,417.476h7.566v7.384v1h1h7.385v7.566H300.98
		c-2.287,0-4.148-1.861-4.148-4.148V417.476 M295.832,416.976v12.302c0,2.838,2.311,5.148,5.148,5.148h12.303
		c0.275,0,0.5-0.225,0.5-0.5v-8.566c0-0.275-0.225-0.5-0.5-0.5h-7.885v-7.884c0-0.276-0.225-0.5-0.5-0.5h-8.566
		C296.056,416.476,295.832,416.698,295.832,416.976L295.832,416.976z"/>
</g>
<g>
	
		<radialGradient id="SVGID_22_" cx="620.6768" cy="188.8853" r="21.0329" gradientTransform="matrix(0 1 1 0 199.8311 -190.0479)" gradientUnits="userSpaceOnUse">
		<stop  offset="0" style="stop-color:#FFFFFF"/>
		<stop  offset="1" style="stop-color:#858585"/>
	</radialGradient>
	<path fill="url(#SVGID_22_)" d="M393.449,442.901V430.6c0-2.838-2.311-5.148-5.148-5.148h-12.303c-0.275,0-0.5,0.225-0.5,0.5v8.566
		c0,0.275,0.225,0.5,0.5,0.5h7.885v7.884c0,0.276,0.225,0.5,0.5,0.5h8.566C393.224,443.401,393.449,443.179,393.449,442.901z"/>
	<path opacity="0.4" enable-background="new    " d="M392.449,442.401h-7.566v-7.384v-1h-1h-7.385v-7.566H388.3
		c2.287,0,4.148,1.861,4.148,4.148V442.401 M393.449,442.901V430.6c0-2.838-2.311-5.148-5.148-5.148h-12.303
		c-0.275,0-0.5,0.225-0.5,0.5v8.566c0,0.275,0.225,0.5,0.5,0.5h7.885v7.884c0,0.276,0.225,0.5,0.5,0.5h8.566
		C393.224,443.401,393.449,443.179,393.449,442.901L393.449,442.901z"/>
</g>
<g>
	<g>
		
			<radialGradient id="SVGID_23_" cx="689.8604" cy="-138.4951" r="15.9376" gradientTransform="matrix(0 1 1 0 438.3584 -308.0098)" gradientUnits="userSpaceOnUse">
			<stop  offset="0" style="stop-color:#FFFFFF"/>
			<stop  offset="1" style="stop-color:#858585"/>
		</radialGradient>
		<path fill="url(#SVGID_23_)" d="M304.853,390.501V373.55c0-0.275-0.225-0.5-0.5-0.5h-8.566c-0.276,0-0.5,0.225-0.5,0.5v3.691
			h-7.975c-0.276,0-0.5,0.225-0.5,0.5v8.566c0,0.277,0.224,0.5,0.5,0.5h7.975v3.691c0,0.275,0.224,0.5,0.5,0.5h8.566
			C304.628,391.001,304.853,390.776,304.853,390.501z"/>
	</g>
	<g opacity="0.4">
		<path d="M303.853,390.001h-7.566v-3.193v-1h-1h-7.475v-7.564h7.475h1v-1v-3.191h7.566V390.001 M304.853,390.501V373.55
			c0-0.275-0.225-0.5-0.5-0.5h-8.566c-0.276,0-0.5,0.225-0.5,0.5v3.691h-7.975c-0.276,0-0.5,0.225-0.5,0.5v8.566
			c0,0.277,0.224,0.5,0.5,0.5h7.975v3.691c0,0.275,0.224,0.5,0.5,0.5h8.566C304.628,391.001,304.853,390.776,304.853,390.501
			L304.853,390.501z"/>
	</g>
</g>
<path fill="#56DED4" d="M472.472,474.914c0,6.454-4.827,11.686-10.782,11.686h-94.164c-5.955,0-10.782-5.231-10.782-11.686l0,0
	c0-6.454,4.827-11.686,10.782-11.686h94.164C467.645,463.229,472.472,468.46,472.472,474.914L472.472,474.914z"/>
<g opacity="0.6">
	<path fill="#231F20" d="M461.689,464.229c5.394,0,9.782,4.794,9.782,10.686s-4.388,10.686-9.782,10.686h-94.164
		c-5.394,0-9.782-4.794-9.782-10.686s4.388-10.686,9.782-10.686H461.689 M461.689,463.229h-94.164
		c-5.955,0-10.782,5.231-10.782,11.686s4.827,11.686,10.782,11.686h94.164c5.955,0,10.782-5.231,10.782-11.686
		S467.645,463.229,461.689,463.229L461.689,463.229z"/>
</g>
<g>
	<g>
		<path d="M399.4,475.645c-0.086,0.91-0.422,1.619-1.008,2.129s-1.365,0.766-2.338,0.766c-0.68,0-1.278-0.162-1.796-0.484
			s-0.917-0.779-1.198-1.373s-0.428-1.283-0.439-2.068v-0.797c0-0.805,0.143-1.514,0.428-2.127s0.694-1.086,1.228-1.418
			s1.149-0.498,1.849-0.498c0.941,0,1.699,0.254,2.273,0.764s0.908,1.232,1.002,2.166h-1.477c-0.07-0.613-0.249-1.057-0.536-1.328
			s-0.708-0.406-1.263-0.406c-0.645,0-1.14,0.234-1.485,0.706s-0.522,1.163-0.53,2.073v0.757c0,0.923,0.165,1.626,0.495,2.111
			s0.813,0.728,1.45,0.728c0.582,0,1.02-0.131,1.313-0.393s0.479-0.697,0.557-1.307H399.4z"/>
		<path d="M407.533,474.379c0,0.836-0.145,1.568-0.434,2.199s-0.702,1.115-1.239,1.453s-1.155,0.508-1.854,0.508
			c-0.691,0-1.308-0.17-1.849-0.508s-0.959-0.818-1.254-1.443s-0.444-1.346-0.448-2.162v-0.48c0-0.832,0.147-1.566,0.442-2.203
			s0.711-1.125,1.248-1.463s1.153-0.506,1.849-0.506s1.312,0.166,1.849,0.5s0.952,0.814,1.245,1.441s0.441,1.357,0.445,2.189
			V474.379z M406.05,473.934c0-0.945-0.179-1.67-0.536-2.174s-0.864-0.756-1.521-0.756c-0.641,0-1.142,0.25-1.503,0.752
			s-0.546,1.213-0.554,2.131v0.492c0,0.938,0.183,1.662,0.548,2.174s0.872,0.768,1.521,0.768c0.656,0,1.161-0.25,1.515-0.75
			s0.53-1.23,0.53-2.191V473.934z"/>
		<path d="M415.818,474.379c0,0.836-0.145,1.568-0.434,2.199s-0.702,1.115-1.239,1.453s-1.155,0.508-1.854,0.508
			c-0.691,0-1.308-0.17-1.849-0.508s-0.959-0.818-1.254-1.443s-0.444-1.346-0.448-2.162v-0.48c0-0.832,0.147-1.566,0.442-2.203
			s0.711-1.125,1.248-1.463s1.153-0.506,1.849-0.506s1.312,0.166,1.849,0.5s0.952,0.814,1.245,1.441s0.441,1.357,0.445,2.189
			V474.379z M414.335,473.934c0-0.945-0.179-1.67-0.536-2.174s-0.864-0.756-1.521-0.756c-0.641,0-1.142,0.25-1.503,0.752
			s-0.546,1.213-0.554,2.131v0.492c0,0.938,0.183,1.662,0.548,2.174s0.872,0.768,1.521,0.768c0.656,0,1.161-0.25,1.515-0.75
			s0.53-1.23,0.53-2.191V473.934z"/>
		<path d="M418.777,477.238h3.873v1.184h-5.355v-8.531h1.482V477.238z"/>
		<path d="M428.773,474.613h-3.504v2.625h4.096v1.184h-5.578v-8.531h5.537v1.195h-4.055v2.355h3.504V474.613z"/>
		<path d="M433.707,475.141h-1.652v3.281h-1.482v-8.531h3c0.984,0,1.744,0.221,2.279,0.662s0.803,1.081,0.803,1.918
			c0,0.57-0.138,1.049-0.413,1.434s-0.659,0.682-1.151,0.889l1.916,3.553v0.076h-1.588L433.707,475.141z M432.054,473.945h1.523
			c0.5,0,0.891-0.127,1.172-0.379s0.422-0.596,0.422-1.033c0-0.457-0.13-0.811-0.39-1.061s-0.647-0.379-1.163-0.387h-1.564V473.945z
			"/>
	</g>
</g>
<g>
	<g>
		<path d="M332.367,311.074l2.461,6.539l2.455-6.539h1.916v8.531h-1.477v-2.813l0.146-3.762l-2.52,6.574h-1.061l-2.514-6.568
			l0.146,3.756v2.813h-1.477v-8.531H332.367z"/>
		<path d="M345.832,317.619h-3.305l-0.691,1.986h-1.541l3.223-8.531h1.33l3.229,8.531h-1.547L345.832,317.619z M342.943,316.424
			h2.473l-1.236-3.539L342.943,316.424z"/>
		<path d="M350.607,319.605h-1.477v-8.531h1.477V319.605z"/>
		<path d="M359.197,319.605h-1.482l-3.803-6.053v6.053h-1.482v-8.531h1.482l3.814,6.076v-6.076h1.471V319.605z"/>
		<path d="M335.361,327.99h-3.434v3.615h-1.482v-8.531h5.42v1.195h-3.938v2.537h3.434V327.99z"/>
		<path d="M338.602,331.605h-1.477v-8.531h1.477V331.605z"/>
		<path d="M341.906,330.422h3.873v1.184h-5.355v-8.531h1.482V330.422z"/>
		<path d="M351.879,324.27h-2.66v7.336h-1.471v-7.336h-2.637v-1.195h6.768V324.27z"/>
		<path d="M357.984,327.797h-3.504v2.625h4.096v1.184h-5.578v-8.531h5.537v1.195h-4.055v2.355h3.504V327.797z"/>
		<path d="M362.918,328.324h-1.652v3.281h-1.482v-8.531h3c0.984,0,1.744,0.221,2.279,0.663s0.803,1.081,0.803,1.918
			c0,0.571-0.138,1.048-0.413,1.434s-0.659,0.681-1.151,0.888l1.916,3.553v0.076h-1.588L362.918,328.324z M361.266,327.129h1.523
			c0.5,0,0.891-0.125,1.172-0.377s0.422-0.598,0.422-1.035c0-0.457-0.13-0.811-0.39-1.061s-0.647-0.379-1.163-0.387h-1.564V327.129z
			"/>
	</g>
</g>
<g>
	<g>
		<path d="M332.646,108.484h-2.66v7.336h-1.471v-7.336h-2.637v-1.195h6.768V108.484z"/>
		<path d="M332.276,119.289v5.701c0,0.906-0.29,1.624-0.87,2.153s-1.353,0.794-2.317,0.794c-0.977,0-1.752-0.261-2.326-0.782
			s-0.861-1.245-0.861-2.171v-5.695h1.477v5.707c0,0.57,0.145,1.006,0.434,1.307s0.715,0.451,1.277,0.451
			c1.141,0,1.711-0.602,1.711-1.805v-5.66H332.276z"/>
		<path d="M329.338,136.539h-1.652v3.281h-1.482v-8.531h3c0.984,0,1.744,0.221,2.279,0.663s0.803,1.081,0.803,1.918
			c0,0.571-0.138,1.048-0.413,1.434s-0.659,0.681-1.151,0.888l1.916,3.553v0.076h-1.588L329.338,136.539z M327.686,135.343h1.523
			c0.5,0,0.891-0.126,1.172-0.378s0.422-0.597,0.422-1.034c0-0.457-0.13-0.811-0.39-1.061s-0.647-0.379-1.163-0.387h-1.564V135.343z
			"/>
		<path d="M326.162,151.82v-8.531h2.924c0.965,0,1.699,0.193,2.203,0.58s0.756,0.963,0.756,1.729c0,0.391-0.105,0.742-0.316,1.055
			s-0.52,0.555-0.926,0.727c0.461,0.125,0.817,0.36,1.069,0.706s0.378,0.761,0.378,1.245c0,0.801-0.257,1.416-0.771,1.846
			s-1.249,0.645-2.206,0.645H326.162z M327.645,146.88h1.453c0.461,0,0.821-0.104,1.081-0.313s0.39-0.505,0.39-0.888
			c0-0.422-0.12-0.727-0.36-0.914s-0.614-0.281-1.122-0.281h-1.441V146.88z M327.645,147.97v2.666h1.646
			c0.465,0,0.828-0.115,1.09-0.346s0.393-0.551,0.393-0.961c0-0.887-0.453-1.34-1.359-1.359H327.645z"/>
		<path d="M331.541,172.011h-3.504v2.625h4.096v1.184h-5.578v-8.531h5.537v1.195h-4.055v2.355h3.504V172.011z"/>
		<path d="M332.455,187.82h-1.482l-3.803-6.053v6.053h-1.482v-8.531h1.482l3.814,6.076v-6.076h1.471V187.82z"/>
		<path d="M326.027,199.82v-8.531h2.52c0.754,0,1.423,0.168,2.007,0.504s1.036,0.813,1.356,1.43s0.48,1.324,0.48,2.121v0.428
			c0,0.809-0.161,1.52-0.483,2.133s-0.781,1.086-1.377,1.418s-1.278,0.498-2.048,0.498H326.027z M327.51,192.484v6.152h0.967
			c0.777,0,1.374-0.243,1.79-0.729s0.628-1.185,0.636-2.095v-0.475c0-0.926-0.201-1.633-0.604-2.121s-0.986-0.732-1.752-0.732
			H327.51z"/>
	</g>
</g>
<g>
	<g>
		<path d="M798.93,108.042c-0.086,0.91-0.422,1.62-1.008,2.13s-1.365,0.765-2.338,0.765c-0.68,0-1.278-0.161-1.796-0.483
			s-0.917-0.78-1.198-1.374s-0.428-1.283-0.439-2.068v-0.797c0-0.805,0.143-1.514,0.428-2.127s0.694-1.086,1.228-1.418
			s1.149-0.498,1.849-0.498c0.941,0,1.699,0.255,2.273,0.765s0.908,1.231,1.002,2.165h-1.477c-0.07-0.613-0.249-1.056-0.536-1.327
			s-0.708-0.407-1.263-0.407c-0.645,0-1.14,0.235-1.485,0.707s-0.522,1.163-0.53,2.073v0.757c0,0.922,0.165,1.626,0.495,2.111
			s0.813,0.727,1.45,0.727c0.582,0,1.02-0.131,1.313-0.393s0.479-0.697,0.557-1.307H798.93z"/>
		<path d="M799.003,118.777c0,0.836-0.145,1.569-0.434,2.2s-0.702,1.115-1.239,1.453s-1.155,0.507-1.854,0.507
			c-0.691,0-1.308-0.169-1.849-0.507s-0.959-0.819-1.254-1.444s-0.444-1.346-0.448-2.162v-0.48c0-0.832,0.147-1.566,0.442-2.203
			s0.711-1.124,1.248-1.462s1.153-0.507,1.849-0.507s1.312,0.167,1.849,0.501s0.952,0.814,1.245,1.441s0.441,1.356,0.445,2.188
			V118.777z M797.521,118.332c0-0.945-0.179-1.67-0.536-2.174s-0.864-0.756-1.521-0.756c-0.641,0-1.142,0.251-1.503,0.753
			s-0.546,1.212-0.554,2.13v0.492c0,0.938,0.183,1.662,0.548,2.174s0.872,0.768,1.521,0.768c0.656,0,1.161-0.25,1.515-0.75
			s0.53-1.23,0.53-2.191V118.332z"/>
		<path d="M794.573,133.636h3.873v1.184h-5.355v-8.531h1.482V133.636z"/>
		<path d="M794.573,145.636h3.873v1.184h-5.355v-8.531h1.482V145.636z"/>
		<path d="M797.931,167.011h-3.504v2.625h4.096v1.184h-5.578v-8.531h5.537v1.195h-4.055v2.355h3.504V167.011z"/>
		<path d="M798.845,182.82h-1.482l-3.803-6.053v6.053h-1.482v-8.531h1.482l3.814,6.076v-6.076h1.471V182.82z"/>
		<path d="M792.417,194.82v-8.531h2.52c0.754,0,1.423,0.168,2.007,0.504s1.036,0.813,1.356,1.43s0.48,1.324,0.48,2.121v0.428
			c0,0.809-0.161,1.52-0.483,2.133s-0.781,1.086-1.377,1.418s-1.278,0.498-2.048,0.498H792.417z M793.899,187.484v6.152h0.967
			c0.777,0,1.374-0.243,1.79-0.729s0.628-1.185,0.636-2.095v-0.475c0-0.926-0.201-1.633-0.604-2.121s-0.986-0.732-1.752-0.732
			H793.899z"/>
	</g>
</g>
<g>
	<g>
		
			<line fill="none" stroke="#078983" stroke-width="2" stroke-miterlimit="10" x1="377.697" y1="255.646" x2="420.626" y2="255.646"/>
		<g>
			<polygon fill="#078983" points="413.999,263.826 412.635,262.361 419.858,255.648 412.635,248.933 413.999,247.468 
				422.795,255.648 			"/>
		</g>
	</g>
</g>
<g>
	<g>
		
			<line fill="none" stroke="#078983" stroke-width="2" stroke-miterlimit="10" x1="248.697" y1="530.646" x2="291.626" y2="530.646"/>
		<g>
			<polygon fill="#078983" points="284.999,538.826 283.635,537.361 290.858,530.648 283.635,523.934 284.999,522.469 
				293.795,530.648 			"/>
		</g>
	</g>
</g>
<g>
	<g>
		
			<line fill="none" stroke="#078983" stroke-width="2" stroke-miterlimit="10" x1="764.697" y1="530.646" x2="807.626" y2="530.646"/>
		<g>
			<polygon fill="#078983" points="800.999,538.826 799.635,537.361 806.858,530.648 799.635,523.934 800.999,522.469 
				809.795,530.648 			"/>
		</g>
	</g>
</g>
<g>
	<g>
		
			<line fill="none" stroke="#078983" stroke-width="2" stroke-miterlimit="10" x1="828.795" y1="253.646" x2="785.866" y2="253.646"/>
		<g>
			<polygon fill="#078983" points="792.493,245.466 793.857,246.931 786.634,253.644 793.857,260.359 792.493,261.824 
				783.697,253.644 			"/>
		</g>
	</g>
</g>
<g>
	<g>
		
			<line fill="none" stroke="#078983" stroke-width="2" stroke-miterlimit="10" x1="292.795" y1="364.646" x2="249.866" y2="364.646"/>
		<g>
			<polygon fill="#078983" points="256.493,356.467 257.857,357.932 250.634,364.645 257.857,371.359 256.493,372.824 
				247.697,364.645 			"/>
		</g>
	</g>
</g>
<g>
	<g>
		
			<line fill="none" stroke="#078983" stroke-width="2" stroke-miterlimit="10" x1="369.795" y1="410.646" x2="326.866" y2="410.646"/>
		<g>
			<polygon fill="#078983" points="333.493,402.467 334.857,403.932 327.634,410.645 334.857,417.359 333.493,418.824 
				324.697,410.645 			"/>
		</g>
	</g>
</g>
<g>
	<g>
		
			<line fill="none" stroke="#078983" stroke-width="2" stroke-miterlimit="10" x1="513.795" y1="410.646" x2="470.866" y2="410.646"/>
		<g>
			<polygon fill="#078983" points="477.493,402.467 478.857,403.932 471.634,410.645 478.857,417.359 477.493,418.824 
				468.697,410.645 			"/>
		</g>
	</g>
</g>
<g>
	<g>
		
			<line fill="none" stroke="#078983" stroke-width="2" stroke-miterlimit="10" x1="765.795" y1="480.646" x2="722.866" y2="480.646"/>
		<g>
			<polygon fill="#078983" points="729.493,472.467 730.857,473.932 723.634,480.645 730.857,487.359 729.493,488.824 
				720.697,480.645 			"/>
		</g>
	</g>
</g>
<g>
	<g>
		<line fill="none" stroke="#078983" stroke-width="2" stroke-miterlimit="10" x1="539.697" y1="63.646" x2="582.626" y2="63.646"/>
		<g>
			<polygon fill="#078983" points="575.999,71.826 574.635,70.361 581.858,63.648 574.635,56.933 575.999,55.468 584.795,63.648 			
				"/>
		</g>
	</g>
</g>
<g>
	<polygon fill="#24FEFF" points="287.785,299.845 310.607,299.845 319.316,303.544 311.809,308.048 321.118,311.952 313.49,317.357 
		321.118,321.562 313.49,326.366 321.118,330.57 313.49,335.676 287.785,335.676 279.677,330.57 288.085,326.066 279.677,321.262 
		286.52,317.761 279.677,312.853 288.386,308.349 279.677,303.544 	"/>
	<g opacity="0.6">
		<path d="M310.404,300.845l6.714,2.852l-5.824,3.494l-1.693,1.016l1.821,0.764l7.648,3.208l-6.158,4.363l-1.301,0.923l1.396,0.77
			l6.144,3.386l-6.194,3.901l-1.434,0.903l1.484,0.818l6.189,3.411l-6.01,4.022h-25.113l-6.409-4.036l6.893-3.691l1.593-0.854
			l-1.569-0.896l-6.804-3.888l5.198-2.659l1.46-0.747l-1.333-0.956l-5.517-3.957l7.259-3.754l1.662-0.86l-1.639-0.904l-6.968-3.844
			l6.102-2.784H310.404 M310.607,299.845h-22.822l-8.108,3.699l8.709,4.805l-8.709,4.504l6.843,4.908l-6.843,3.501l8.408,4.805
			l-8.408,4.504l8.108,5.105h25.705l7.628-5.105l-7.628-4.204l7.628-4.805l-7.628-4.204l7.628-5.405l-9.31-3.904l7.508-4.504
			L310.607,299.845L310.607,299.845z"/>
	</g>
</g>
<g>
	
		<radialGradient id="SVGID_24_" cx="301.0298" cy="554.3369" r="21.0324" gradientTransform="matrix(1 0 0 -1 -0.02 599.0947)" gradientUnits="userSpaceOnUse">
		<stop  offset="0" style="stop-color:#FFFFFF"/>
		<stop  offset="1" style="stop-color:#858585"/>
	</radialGradient>
	<path fill="url(#SVGID_24_)" d="M313.282,40.026H300.98c-2.838,0-5.148,2.311-5.148,5.148v12.302c0,0.276,0.225,0.5,0.5,0.5h8.566
		c0.275,0,0.5-0.224,0.5-0.5v-7.884h7.884c0.276,0,0.5-0.225,0.5-0.5v-8.566C313.782,40.25,313.56,40.026,313.282,40.026z"/>
	<path opacity="0.4" enable-background="new    " d="M312.782,41.026v7.566h-7.384h-1v1v7.384h-7.566V45.174
		c0-2.287,1.861-4.148,4.148-4.148H312.782 M313.282,40.026H300.98c-2.838,0-5.148,2.311-5.148,5.148v12.302
		c0,0.276,0.225,0.5,0.5,0.5h8.566c0.275,0,0.5-0.224,0.5-0.5v-7.884h7.884c0.276,0,0.5-0.225,0.5-0.5v-8.566
		C313.782,40.25,313.56,40.026,313.282,40.026L313.282,40.026z"/>
</g>
</svg>
