<?xml version="1.0" encoding="utf-8"?>
<!-- Generator: Adobe Illustrator 15.0.0, SVG Export Plug-In . SVG Version: 6.00 Build 0)  -->
<!DOCTYPE svg PUBLIC "-//W3C//DTD SVG 1.1//EN" "http://www.w3.org/Graphics/SVG/1.1/DTD/svg11.dtd">
<svg version="1.1" id="Layer_1" xmlns="http://www.w3.org/2000/svg" xmlns:xlink="http://www.w3.org/1999/xlink" x="0px" y="0px"
	 width="430px" height="260px" viewBox="-2.75 -2.75 430 260" enable-background="new -2.75 -2.75 430 260" xml:space="preserve">
<linearGradient id="SVGID_1_" gradientUnits="userSpaceOnUse" x1="592.0522" y1="75.6519" x2="592.0522" y2="61.7724" gradientTransform="matrix(1 0 0 -1 -282.6602 195.04)">
	<stop  offset="0" style="stop-color:#404040"/>
	<stop  offset="0.25" style="stop-color:#A5A5A5"/>
	<stop  offset="0.503" style="stop-color:#FFFFFF"/>
	<stop  offset="0.7636" style="stop-color:#A5A5A5"/>
	<stop  offset="0.9333" style="stop-color:#212121"/>
	<stop  offset="1" style="stop-color:#404040"/>
</linearGradient>
<rect x="209.318" y="119.482" fill="url(#SVGID_1_)" width="200.147" height="13.631"/>
<g>
	<g>
		
			<linearGradient id="SVGID_2_" gradientUnits="userSpaceOnUse" x1="545.3823" y1="90.1533" x2="545.3823" y2="46.4215" gradientTransform="matrix(1 0 0 -1 -282.6602 195.04)">
			<stop  offset="0" style="stop-color:#005485"/>
			<stop  offset="0.25" style="stop-color:#74B5D2"/>
			<stop  offset="0.503" style="stop-color:#FFFFFF"/>
			<stop  offset="0.75" style="stop-color:#1482B3"/>
			<stop  offset="1" style="stop-color:#005485"/>
		</linearGradient>
		<polygon fill="url(#SVGID_2_)" points="293.727,105.191 262.721,113.672 231.718,105.191 231.718,147.404 262.723,138.66 
			293.727,147.404 		"/>
		
			<linearGradient id="SVGID_3_" gradientUnits="userSpaceOnUse" x1="510.4536" y1="89.0127" x2="510.4536" y2="48.2949" gradientTransform="matrix(1 0 0 -1 -282.6602 195.04)">
			<stop  offset="0" style="stop-color:#003B69"/>
			<stop  offset="0.15" style="stop-color:#005485"/>
			<stop  offset="0.4" style="stop-color:#74B5D2"/>
			<stop  offset="0.5" style="stop-color:#FFFFFF"/>
			<stop  offset="0.6" style="stop-color:#74B5D2"/>
			<stop  offset="0.85" style="stop-color:#005485"/>
			<stop  offset="1" style="stop-color:#003B69"/>
		</linearGradient>
		<rect x="223.868" y="105.191" fill="url(#SVGID_3_)" width="7.851" height="42.213"/>
		
			<linearGradient id="SVGID_4_" gradientUnits="userSpaceOnUse" x1="580.313" y1="89.0127" x2="580.313" y2="48.2949" gradientTransform="matrix(1 0 0 -1 -282.6602 195.04)">
			<stop  offset="0" style="stop-color:#003B69"/>
			<stop  offset="0.15" style="stop-color:#005485"/>
			<stop  offset="0.4" style="stop-color:#74B5D2"/>
			<stop  offset="0.5" style="stop-color:#FFFFFF"/>
			<stop  offset="0.6" style="stop-color:#74B5D2"/>
			<stop  offset="0.85" style="stop-color:#005485"/>
			<stop  offset="1" style="stop-color:#003B69"/>
		</linearGradient>
		<rect x="293.727" y="105.191" fill="url(#SVGID_4_)" width="7.853" height="42.213"/>
	</g>
	<path opacity="0.5" fill="#231F20" enable-background="new    " d="M300.979,105.792v41.013h-7.168l-30.924-8.722l-0.163-0.046
		l-0.163,0.046l-30.925,8.722h-7.167v-41.013h7.17l30.926,8.459l0.157,0.043l0.158-0.043l30.928-8.459H300.979 M301.579,105.191
		h-7.853l-31.006,8.48l-31.003-8.48h-7.851v42.213h7.851l31.005-8.744l31.004,8.744h7.853V105.191L301.579,105.191z"/>
</g>
<g>
	<g>
		
			<linearGradient id="SVGID_5_" gradientUnits="userSpaceOnUse" x1="641.6797" y1="102.1768" x2="641.6797" y2="36.3473" gradientTransform="matrix(1 0 0 -1 -282.6602 195.04)">
			<stop  offset="0" style="stop-color:#005485"/>
			<stop  offset="0.25" style="stop-color:#74B5D2"/>
			<stop  offset="0.503" style="stop-color:#FFFFFF"/>
			<stop  offset="0.75" style="stop-color:#1482B3"/>
			<stop  offset="1" style="stop-color:#005485"/>
		</linearGradient>
		<polygon fill="url(#SVGID_5_)" points="386.904,94.4 359.018,107.217 331.135,94.4 331.135,158.196 359.02,144.982 
			386.904,158.196 		"/>
		
			<linearGradient id="SVGID_6_" gradientUnits="userSpaceOnUse" x1="610.2646" y1="99.3765" x2="610.2646" y2="37.8403" gradientTransform="matrix(1 0 0 -1 -282.6602 195.04)">
			<stop  offset="0" style="stop-color:#003B69"/>
			<stop  offset="0.15" style="stop-color:#005485"/>
			<stop  offset="0.4" style="stop-color:#74B5D2"/>
			<stop  offset="0.5" style="stop-color:#FFFFFF"/>
			<stop  offset="0.6" style="stop-color:#74B5D2"/>
			<stop  offset="0.85" style="stop-color:#005485"/>
			<stop  offset="1" style="stop-color:#003B69"/>
		</linearGradient>
		<rect x="324.074" y="94.4" fill="url(#SVGID_6_)" width="7.061" height="63.796"/>
		
			<linearGradient id="SVGID_7_" gradientUnits="userSpaceOnUse" x1="673.0947" y1="99.3774" x2="673.0947" y2="37.8402" gradientTransform="matrix(1 0 0 -1 -282.6602 195.04)">
			<stop  offset="0" style="stop-color:#003B69"/>
			<stop  offset="0.15" style="stop-color:#005485"/>
			<stop  offset="0.4" style="stop-color:#74B5D2"/>
			<stop  offset="0.5" style="stop-color:#FFFFFF"/>
			<stop  offset="0.6" style="stop-color:#74B5D2"/>
			<stop  offset="0.85" style="stop-color:#005485"/>
			<stop  offset="1" style="stop-color:#003B69"/>
		</linearGradient>
		<rect x="386.904" y="94.399" fill="url(#SVGID_7_)" width="7.061" height="63.797"/>
	</g>
	<path opacity="0.5" fill="#231F20" enable-background="new    " d="M393.366,95v62.597h-6.327l-27.763-13.156l-0.258-0.122
		l-0.257,0.122L331,157.596h-6.326V95h6.329l27.764,12.761l0.251,0.115l0.251-0.115L387.035,95H393.366 M393.966,94.399h-7.062V94.4
		l-27.887,12.816L331.135,94.4h-7.061v63.796h7.061l27.885-13.214l27.886,13.214h7.062L393.966,94.399L393.966,94.399z"/>
</g>
<g>
	<path d="M261.949,130.935h-1.478v-3.785h-3.813v3.785h-1.482v-8.531h1.482v3.551h3.813v-3.551h1.478V130.935z"/>
	<path d="M265.184,127.771v3.164h-1.481v-8.531h3.264c0.953,0,1.71,0.249,2.271,0.745c0.561,0.496,0.841,1.153,0.841,1.971
		c0,0.837-0.274,1.488-0.823,1.953c-0.549,0.466-1.316,0.698-2.306,0.698H265.184z M265.184,126.576h1.781
		c0.527,0,0.93-0.124,1.207-0.372s0.416-0.606,0.416-1.075c0-0.461-0.141-0.829-0.422-1.104s-0.668-0.417-1.16-0.425h-1.822V126.576
		z"/>
</g>
<g>
	<path d="M354.33,129.751h3.873v1.184h-5.355v-8.531h1.482V129.751z"/>
	<path d="M360.822,127.771v3.164h-1.482v-8.531h3.264c0.953,0,1.71,0.249,2.271,0.745c0.561,0.496,0.841,1.153,0.841,1.971
		c0,0.837-0.274,1.488-0.823,1.953c-0.549,0.466-1.316,0.698-2.306,0.698H360.822z M360.822,126.576h1.78
		c0.527,0,0.931-0.124,1.207-0.372c0.277-0.248,0.416-0.606,0.416-1.075c0-0.461-0.141-0.829-0.422-1.104s-0.668-0.417-1.16-0.425
		h-1.821V126.576z"/>
</g>
<rect x="223.882" y="145.553" fill="#643636" width="2" height="34.08"/>
<rect x="200.186" y="213.174" fill="#643636" width="59.684" height="2"/>
<rect x="135.985" y="213.174" fill="#643636" width="46.461" height="2"/>
<polygon fill="#643636" points="149.523,215.174 136.367,215.174 136.367,178.656 299.444,178.656 299.444,145.576 301.444,145.576 
	301.444,180.656 138.367,180.656 138.367,213.174 149.523,213.174 "/>
<polygon fill="#643636" points="264.369,102.658 262.369,102.658 262.369,50.135 203.87,50.135 203.87,48.135 264.369,48.135 "/>
<rect x="110.733" y="48.135" fill="#643636" width="73.075" height="2"/>
<rect x="59.061" y="48.135" fill="#643636" width="31.716" height="2"/>
<polygon fill="#643636" points="263.369,109.891 263.369,109.891 253.951,102.205 272.787,102.205 "/>
<polygon fill="#643636" points="358.475,148.827 358.475,148.827 367.893,156.513 349.057,156.513 "/>
<rect x="357.475" y="155.938" fill="#643636" width="2" height="58.561"/>
<g>
	<polygon fill="#95DB0F" points="206.75,221.18 206.75,207.127 192.307,213.432 192.307,206.137 197.498,206.137 197.498,196.084 
		183.818,196.084 183.818,206.137 189.01,206.137 189.01,213.432 174.566,207.127 174.566,221.18 190.654,214.154 190.663,214.154 	
		"/>
	<path opacity="0.8" fill="#231F20" enable-background="new    " d="M196.898,196.684v8.853h-4.592h-0.6v0.6v7.295v0.524
		l-0.804-0.351l-0.124-0.05h-0.125h-0.125l-0.115,0.05l-0.804,0.351v-0.524v-7.295v-0.6h-0.601h-4.591v-8.853H196.898
		 M206.15,208.043v12.219l-13.994-6.111l0.391-0.17L206.15,208.043 M175.167,208.043l13.603,5.938l0.392,0.17l-13.994,6.111V208.043
		 M197.498,196.084h-13.68v10.053h5.19v7.295l-14.442-6.305v14.053l16.087-7.025h0.009l16.087,7.025v-14.053l-14.443,6.305v-7.295
		h5.191L197.498,196.084L197.498,196.084z"/>
</g>
<g>
	<polygon fill="#95DB0F" points="209.486,56.092 209.486,42.039 195.042,48.344 195.042,41.049 200.234,41.049 200.234,30.996 
		186.554,30.996 186.554,41.049 191.746,41.049 191.746,48.344 177.302,42.039 177.302,56.092 193.39,49.066 193.398,49.066 	"/>
	<path opacity="0.8" fill="#231F20" enable-background="new    " d="M199.634,31.596v8.853h-4.591h-0.6v0.6v7.295v0.524
		l-0.805-0.351l-0.124-0.05h-0.125h-0.125l-0.114,0.05l-0.805,0.351v-0.524v-7.295v-0.6h-0.6h-4.591v-8.853H199.634 M208.886,42.956
		v12.219l-13.994-6.111l0.392-0.17L208.886,42.956 M177.902,42.956l13.603,5.938l0.392,0.17l-13.994,6.111V42.956 M200.234,30.996
		h-13.681v10.053h5.191v7.295l-14.443-6.305v14.053l16.087-7.025h0.01l16.087,7.025V42.039l-14.443,6.305v-7.295h5.191
		L200.234,30.996L200.234,30.996z"/>
</g>
<g>
	<polygon fill="#95DB0F" points="117.141,56.092 117.141,42.039 102.698,48.344 102.698,41.049 107.889,41.049 107.889,30.996 
		94.209,30.996 94.209,41.049 99.401,41.049 99.401,48.344 84.958,42.039 84.958,56.092 101.045,49.066 101.054,49.066 	"/>
	<path opacity="0.8" fill="#231F20" enable-background="new    " d="M107.289,31.596v8.853h-4.591h-0.6v0.6v7.295v0.524
		l-0.804-0.351l-0.124-0.05h-0.125h-0.125l-0.115,0.05l-0.804,0.351v-0.524v-7.295v-0.6h-0.6H94.81v-8.853H107.289 M116.541,42.956
		v12.219l-13.994-6.111l0.391-0.17L116.541,42.956 M85.558,42.956l13.603,5.938l0.391,0.17l-13.994,6.111V42.956 M107.889,30.996
		h-13.68v10.053H99.4v7.295l-14.443-6.305v14.053l16.087-7.025h0.009l16.087,7.025V42.039l-14.443,6.305v-7.295h5.191
		L107.889,30.996L107.889,30.996z"/>
</g>
<g>
	<g>
		<path d="M114.439,30.696l2.461,6.539l2.455-6.539h1.916v8.531h-1.477v-2.813l0.146-3.762l-2.52,6.574h-1.061l-2.514-6.568
			l0.146,3.756v2.813h-1.477v-8.531H114.439z"/>
		<path d="M127.482,37.03c0-0.375-0.132-0.664-0.396-0.867s-0.739-0.408-1.427-0.615s-1.234-0.438-1.641-0.691
			c-0.777-0.488-1.166-1.125-1.166-1.91c0-0.688,0.28-1.254,0.841-1.699c0.561-0.445,1.288-0.668,2.183-0.668
			c0.594,0,1.123,0.109,1.588,0.328c0.465,0.219,0.83,0.53,1.096,0.935c0.266,0.405,0.398,0.853,0.398,1.345h-1.477
			c0-0.445-0.14-0.794-0.419-1.046s-0.679-0.378-1.198-0.378c-0.484,0-0.86,0.104-1.128,0.311c-0.268,0.207-0.401,0.496-0.401,0.867
			c0,0.313,0.145,0.573,0.434,0.782s0.766,0.412,1.43,0.609c0.664,0.197,1.197,0.422,1.6,0.674c0.403,0.252,0.697,0.541,0.885,0.867
			s0.281,0.708,0.281,1.146c0,0.711-0.272,1.276-0.817,1.696s-1.284,0.63-2.218,0.63c-0.617,0-1.185-0.114-1.702-0.343
			s-0.92-0.544-1.207-0.946c-0.287-0.402-0.431-0.871-0.431-1.406h1.482c0,0.484,0.16,0.859,0.48,1.125
			c0.32,0.266,0.779,0.398,1.377,0.398c0.516,0,0.903-0.104,1.163-0.313C127.352,37.652,127.482,37.374,127.482,37.03z"/>
		<path d="M133.271,37.37l2.168-6.674h1.629l-3.07,8.531h-1.437l-3.059-8.531h1.623L133.271,37.37z"/>
	</g>
</g>
<g>
	<path d="M211.027,36.45c-0.086,0.91-0.422,1.62-1.009,2.13c-0.586,0.51-1.364,0.765-2.338,0.765c-0.68,0-1.277-0.161-1.796-0.483
		c-0.518-0.322-0.917-0.78-1.197-1.374c-0.281-0.594-0.429-1.283-0.439-2.068v-0.797c0-0.805,0.143-1.514,0.428-2.127
		c0.285-0.613,0.694-1.086,1.229-1.418s1.148-0.498,1.849-0.498c0.941,0,1.699,0.255,2.273,0.765
		c0.573,0.51,0.907,1.231,1.002,2.165h-1.478c-0.069-0.613-0.249-1.056-0.536-1.327c-0.286-0.271-0.708-0.407-1.263-0.407
		c-0.645,0-1.14,0.235-1.485,0.707c-0.345,0.472-0.521,1.163-0.529,2.073v0.757c0,0.922,0.165,1.626,0.495,2.111
		c0.33,0.485,0.813,0.727,1.449,0.727c0.582,0,1.021-0.131,1.313-0.393c0.293-0.262,0.479-0.697,0.557-1.307L211.027,36.45
		L211.027,36.45z"/>
	<path d="M215.357,37.37l2.168-6.674h1.629l-3.07,8.531h-1.436l-3.06-8.531h1.623L215.357,37.37z"/>
</g>
<g>
	<path d="M203.375,204.938h-1.477v-8.531h1.477V204.938z"/>
	<path d="M208.203,203.08l2.168-6.674H212l-3.07,8.531h-1.436l-3.06-8.531h1.623L208.203,203.08z"/>
</g>
<g>
	<path d="M282.111,204.938h-1.478v-8.531h1.478V204.938z"/>
	<path d="M288.393,202.74c0-0.375-0.132-0.664-0.396-0.867s-0.739-0.408-1.427-0.615c-0.688-0.207-1.234-0.438-1.642-0.691
		c-0.776-0.488-1.166-1.125-1.166-1.91c0-0.688,0.28-1.254,0.842-1.699c0.561-0.445,1.287-0.668,2.183-0.668
		c0.594,0,1.123,0.109,1.588,0.328c0.465,0.219,0.83,0.53,1.096,0.935c0.267,0.405,0.398,0.853,0.398,1.345h-1.477
		c0-0.445-0.141-0.794-0.42-1.046c-0.278-0.252-0.679-0.378-1.197-0.378c-0.484,0-0.86,0.104-1.128,0.311
		c-0.269,0.207-0.401,0.496-0.401,0.867c0,0.313,0.145,0.573,0.434,0.782s0.767,0.412,1.431,0.609s1.196,0.422,1.6,0.674
		s0.697,0.541,0.885,0.867c0.188,0.326,0.281,0.708,0.281,1.146c0,0.711-0.271,1.276-0.816,1.696c-0.546,0.42-1.284,0.63-2.219,0.63
		c-0.616,0-1.185-0.114-1.702-0.343c-0.517-0.229-0.92-0.544-1.207-0.946c-0.286-0.402-0.431-0.871-0.431-1.406h1.482
		c0,0.484,0.16,0.859,0.479,1.125c0.32,0.266,0.779,0.398,1.377,0.398c0.517,0,0.903-0.104,1.163-0.313
		S288.393,203.084,288.393,202.74z"/>
	<path d="M294.182,203.08l2.168-6.674h1.629l-3.069,8.531h-1.437l-3.059-8.531h1.623L294.182,203.08z"/>
</g>
<path fill="#FFFFFF" stroke="#000000" stroke-miterlimit="10" d="M16.925,39.805v18.674h43.572V39.805H16.925z"/>
<g>
	<path d="M31.006,53.408h-1.482l-3.803-6.053v6.053h-1.482v-8.531h1.482l3.814,6.076v-6.076h1.471V53.408z"/>
	<path d="M37.217,51.21c0-0.375-0.132-0.664-0.396-0.867s-0.739-0.408-1.427-0.615s-1.234-0.438-1.641-0.691
		c-0.777-0.488-1.166-1.125-1.166-1.91c0-0.688,0.28-1.254,0.841-1.699s1.288-0.668,2.183-0.668c0.594,0,1.123,0.109,1.588,0.328
		s0.83,0.53,1.096,0.935s0.398,0.853,0.398,1.345h-1.477c0-0.445-0.14-0.794-0.419-1.046s-0.679-0.378-1.198-0.378
		c-0.484,0-0.86,0.104-1.128,0.311s-0.401,0.496-0.401,0.867c0,0.313,0.145,0.573,0.434,0.782s0.766,0.412,1.43,0.609
		s1.197,0.422,1.6,0.674s0.697,0.541,0.885,0.867s0.281,0.708,0.281,1.146c0,0.711-0.272,1.276-0.817,1.696s-1.284,0.63-2.218,0.63
		c-0.617,0-1.185-0.114-1.702-0.343s-0.92-0.544-1.207-0.946s-0.431-0.871-0.431-1.406h1.482c0,0.484,0.16,0.859,0.48,1.125
		s0.779,0.398,1.377,0.398c0.516,0,0.903-0.104,1.163-0.313S37.217,51.554,37.217,51.21z"/>
	<path d="M44.459,51.21c0-0.375-0.132-0.664-0.396-0.867s-0.739-0.408-1.427-0.615s-1.234-0.438-1.641-0.691
		c-0.777-0.488-1.166-1.125-1.166-1.91c0-0.688,0.28-1.254,0.841-1.699s1.288-0.668,2.183-0.668c0.594,0,1.123,0.109,1.588,0.328
		s0.83,0.53,1.096,0.935s0.398,0.853,0.398,1.345h-1.477c0-0.445-0.14-0.794-0.419-1.046s-0.679-0.378-1.198-0.378
		c-0.484,0-0.86,0.104-1.128,0.311s-0.401,0.496-0.401,0.867c0,0.313,0.145,0.573,0.434,0.782s0.766,0.412,1.43,0.609
		s1.197,0.422,1.6,0.674s0.697,0.541,0.885,0.867s0.281,0.708,0.281,1.146c0,0.711-0.272,1.276-0.817,1.696s-1.284,0.63-2.218,0.63
		c-0.617,0-1.185-0.114-1.702-0.343s-0.92-0.544-1.207-0.946s-0.431-0.871-0.431-1.406h1.482c0,0.484,0.16,0.859,0.48,1.125
		s0.779,0.398,1.377,0.398c0.516,0,0.903-0.104,1.163-0.313S44.459,51.554,44.459,51.21z"/>
	<path d="M51.701,51.21c0-0.375-0.132-0.664-0.396-0.867s-0.739-0.408-1.427-0.615s-1.234-0.438-1.641-0.691
		c-0.777-0.488-1.166-1.125-1.166-1.91c0-0.688,0.28-1.254,0.841-1.699s1.288-0.668,2.183-0.668c0.594,0,1.123,0.109,1.588,0.328
		s0.83,0.53,1.096,0.935s0.398,0.853,0.398,1.345h-1.477c0-0.445-0.14-0.794-0.419-1.046s-0.679-0.378-1.198-0.378
		c-0.484,0-0.86,0.104-1.128,0.311s-0.401,0.496-0.401,0.867c0,0.313,0.145,0.573,0.434,0.782s0.766,0.412,1.43,0.609
		s1.197,0.422,1.6,0.674s0.697,0.541,0.885,0.867s0.281,0.708,0.281,1.146c0,0.711-0.272,1.276-0.817,1.696s-1.284,0.63-2.218,0.63
		c-0.617,0-1.185-0.114-1.702-0.343s-0.92-0.544-1.207-0.946s-0.431-0.871-0.431-1.406h1.482c0,0.484,0.16,0.859,0.48,1.125
		s0.779,0.398,1.377,0.398c0.516,0,0.903-0.104,1.163-0.313S51.701,51.554,51.701,51.21z"/>
</g>
<rect x="277.128" y="213.174" fill="#643636" width="82.348" height="2"/>
<g>
	<polygon fill="#95DB0F" points="284.719,221.18 284.719,207.127 270.275,213.432 270.275,206.137 275.467,206.137 275.467,196.084 
		261.787,196.084 261.787,206.137 266.979,206.137 266.979,213.432 252.535,207.127 252.535,221.18 268.623,214.154 
		268.631,214.154 	"/>
	<path opacity="0.8" fill="#231F20" enable-background="new    " d="M274.867,196.684v8.853h-4.591h-0.601v0.6v7.295v0.524
		l-0.804-0.351l-0.124-0.05h-0.125h-0.125l-0.115,0.05l-0.804,0.351v-0.524v-7.295v-0.6h-0.6h-4.592v-8.853H274.867
		 M284.119,208.043v12.219l-13.994-6.111l0.391-0.17L284.119,208.043 M253.135,208.043l13.604,5.938l0.391,0.17l-13.994,6.111
		V208.043 M275.467,196.084h-13.68v10.053h5.191v7.295l-14.443-6.305v14.053l16.087-7.025h0.009l16.087,7.025v-14.053l-14.442,6.305
		v-7.295h5.19L275.467,196.084L275.467,196.084z"/>
</g>
</svg>
