<?xml version="1.0" encoding="utf-8"?>
<!-- Generator: Adobe Illustrator 15.0.0, SVG Export Plug-In . SVG Version: 6.00 Build 0)  -->
<!DOCTYPE svg PUBLIC "-//W3C//DTD SVG 1.1//EN" "http://www.w3.org/Graphics/SVG/1.1/DTD/svg11.dtd">
<svg version="1.1" id="Layer_1" xmlns="http://www.w3.org/2000/svg" xmlns:xlink="http://www.w3.org/1999/xlink" x="0px" y="0px"
	 width="758.5px" height="566.5px" viewBox="-90 -50 758.5 566.5" enable-background="new -90 -50 758.5 566.5"
	 xml:space="preserve">
<g>
	<g>
		<path fill="#E8FFFF" d="M371.043,369.813C504.93,275.206,582.972,56.992,601.881-1.153H-36v449.847h98.571
			C288.313,448.693,371.043,369.813,371.043,369.813z"/>
		<path fill="#FFECF5" d="M371.043,369.813c0,0-82.729,78.881-308.472,78.881h41.886c225.742,0,308.472-78.881,308.472-78.881
			C518.636,295.119,589.532,143.372,624,54.186V-1.153h-22.119C582.972,56.992,504.93,275.206,371.043,369.813z"/>
		<path fill="#FFFFEC" d="M624,448.847V54.186c-34.468,89.187-105.364,240.934-211.071,315.627c0,0-82.729,78.881-308.472,78.881
			H62.571H-36v0.153H624z"/>
	</g>
	<g>
		<g>
			<g>
				<path fill="none" stroke="#FF00FF" stroke-width="0.6" stroke-miterlimit="10" d="M104.458,448.847
					c225.742,0,308.472-78.881,308.472-78.881C518.636,295.272,589.532,143.525,624,54.338"/>
			</g>
			<g>
				<path fill="none" stroke="#FF00FF" stroke-width="0.6" stroke-miterlimit="10" d="M624,54.338
					c-34.468,89.188-105.364,240.935-211.071,315.628c0,0-82.729,78.881-308.472,78.881"/>
			</g>
		</g>
	</g>
	<g opacity="0.6">
		<g>
			<path fill="none" stroke="#00007F" stroke-width="0.6" stroke-miterlimit="10" d="M62.69,448.847
				c225.742,0,308.472-78.881,308.472-78.881C505.049,275.359,583.091,57.146,602-1"/>
			<path fill="none" stroke="#00007F" stroke-width="0.6" stroke-miterlimit="10" d="M602-1
				c-18.909,58.146-96.951,276.359-230.838,370.966c0,0-82.729,78.881-308.472,78.881"/>
			<path fill="none" stroke="#00007F" stroke-width="0.6" stroke-miterlimit="10" d="M62.69,448.847"/>
		</g>
	</g>
	<g opacity="0.4">
		<g>
			<path fill="none" stroke="#FF00FF" stroke-width="0.6" stroke-miterlimit="10" d="M104.458,448.847
				c225.742,0,308.472-78.881,308.472-78.881C518.636,295.272,589.532,143.525,624,54.338"/>
			<path fill="none" stroke="#FF00FF" stroke-width="0.6" stroke-miterlimit="10" d="M624,54.338
				c-34.468,89.188-105.364,240.935-211.071,315.628c0,0-82.729,78.881-308.472,78.881"/>
		</g>
	</g>
</g>
<line fill="none" stroke="#000000" stroke-width="0.6" stroke-miterlimit="10" x1="-36" y1="298.848" x2="624" y2="298.848"/>
<line fill="none" stroke="#000000" stroke-width="0.6" stroke-miterlimit="10" x1="-36" y1="148.847" x2="624" y2="148.847"/>
<g opacity="0.2">
	<line fill="none" stroke="#000000" stroke-width="0.6" stroke-miterlimit="10" x1="-36" y1="418.848" x2="624" y2="418.848"/>
	<line fill="none" stroke="#000000" stroke-width="0.6" stroke-miterlimit="10" x1="-36" y1="388.848" x2="624" y2="388.848"/>
	<line fill="none" stroke="#000000" stroke-width="0.6" stroke-miterlimit="10" x1="-36" y1="358.848" x2="624" y2="358.848"/>
	<line fill="none" stroke="#000000" stroke-width="0.6" stroke-miterlimit="10" x1="-36" y1="328.848" x2="624" y2="328.848"/>
	<line fill="none" stroke="#000000" stroke-width="0.6" stroke-miterlimit="10" x1="-36" y1="178.847" x2="624" y2="178.847"/>
	<line fill="none" stroke="#000000" stroke-width="0.6" stroke-miterlimit="10" x1="-36" y1="268.848" x2="624" y2="268.848"/>
	<line fill="none" stroke="#000000" stroke-width="0.6" stroke-miterlimit="10" x1="-36" y1="238.848" x2="624" y2="238.848"/>
	<line fill="none" stroke="#000000" stroke-width="0.6" stroke-miterlimit="10" x1="-36" y1="208.848" x2="624" y2="208.848"/>
	<line fill="none" stroke="#000000" stroke-width="0.6" stroke-miterlimit="10" x1="-36" y1="118.847" x2="624" y2="118.847"/>
	<line fill="none" stroke="#000000" stroke-width="0.6" stroke-miterlimit="10" x1="-36" y1="88.847" x2="624" y2="88.847"/>
	<line fill="none" stroke="#000000" stroke-width="0.6" stroke-miterlimit="10" x1="-36" y1="58.847" x2="624" y2="58.847"/>
	<line fill="none" stroke="#000000" stroke-width="0.6" stroke-miterlimit="10" x1="-36" y1="28.847" x2="624" y2="28.847"/>
</g>
<g opacity="0.2">
	<line fill="none" stroke="#000000" stroke-width="0.6" stroke-miterlimit="10" x1="24.375" y1="-1.153" x2="24.375" y2="448.848"/>
	<line fill="none" stroke="#000000" stroke-width="0.6" stroke-miterlimit="10" x1="84.375" y1="-1.153" x2="84.375" y2="448.848"/>
	
		<line fill="none" stroke="#000000" stroke-width="0.6" stroke-miterlimit="10" x1="144.375" y1="-1.153" x2="144.375" y2="448.848"/>
	
		<line fill="none" stroke="#000000" stroke-width="0.6" stroke-miterlimit="10" x1="204.375" y1="-1.153" x2="204.375" y2="448.848"/>
	
		<line fill="none" stroke="#000000" stroke-width="0.6" stroke-miterlimit="10" x1="264.375" y1="-1.153" x2="264.375" y2="448.848"/>
	
		<line fill="none" stroke="#000000" stroke-width="0.6" stroke-miterlimit="10" x1="324.375" y1="-1.153" x2="324.375" y2="448.848"/>
	
		<line fill="none" stroke="#000000" stroke-width="0.6" stroke-miterlimit="10" x1="384.375" y1="-1.153" x2="384.375" y2="448.848"/>
	
		<line fill="none" stroke="#000000" stroke-width="0.6" stroke-miterlimit="10" x1="444.375" y1="-1.153" x2="444.375" y2="448.848"/>
	
		<line fill="none" stroke="#000000" stroke-width="0.6" stroke-miterlimit="10" x1="504.375" y1="-1.153" x2="504.375" y2="448.848"/>
	
		<line fill="none" stroke="#000000" stroke-width="0.6" stroke-miterlimit="10" x1="564.375" y1="-1.153" x2="564.375" y2="448.848"/>
</g>
<g>
	<path d="M623.4-0.553v448.801H-35.4V-0.553H623.4 M624-1.153H-36v450.001h660V-1.153L624-1.153z"/>
</g>
<g>
	<path d="M-61.636-20.951h-2.004v3.451h-1.131v-8.531h2.824c0.961,0,1.7,0.219,2.218,0.656s0.776,1.074,0.776,1.91
		c0,0.531-0.144,0.994-0.431,1.389s-0.687,0.689-1.198,0.885l2.004,3.621v0.07h-1.207L-61.636-20.951z M-63.64-21.871h1.729
		c0.559,0,1.003-0.145,1.333-0.435c0.33-0.29,0.495-0.677,0.495-1.162c0-0.528-0.157-0.933-0.472-1.215s-0.769-0.425-1.362-0.429
		h-1.723V-21.871z"/>
	<path d="M-56.169-17.5h-1.125v-8.531h1.125V-17.5z"/>
	<path d="M-50.017-20.84v3.34h-1.125v-8.531h3.146c0.934,0,1.665,0.238,2.194,0.715s0.794,1.107,0.794,1.893
		c0,0.828-0.259,1.466-0.776,1.913s-1.259,0.671-2.224,0.671H-50.017z M-50.017-21.76h2.021c0.602,0,1.063-0.142,1.383-0.426
		c0.32-0.283,0.48-0.693,0.48-1.229c0-0.509-0.16-0.916-0.48-1.221s-0.76-0.464-1.318-0.476h-2.086V-21.76z"/>
	<path d="M-40.677-22.867c-0.164-0.027-0.342-0.041-0.533-0.041c-0.711,0-1.193,0.303-1.447,0.908v4.5h-1.084v-6.34h1.055
		l0.018,0.732c0.355-0.566,0.859-0.85,1.512-0.85c0.211,0,0.371,0.027,0.48,0.082V-22.867z"/>
	<path d="M-37.161-17.383c-0.859,0-1.559-0.282-2.098-0.847s-0.809-1.319-0.809-2.265v-0.199c0-0.629,0.12-1.19,0.36-1.685
		s0.576-0.881,1.008-1.16s0.899-0.419,1.403-0.419c0.824,0,1.465,0.271,1.922,0.814s0.686,1.32,0.686,2.332v0.451h-4.295
		c0.016,0.625,0.198,1.13,0.548,1.515s0.794,0.577,1.333,0.577c0.383,0,0.707-0.078,0.973-0.234s0.498-0.363,0.697-0.621
		l0.662,0.516C-35.302-17.791-36.099-17.383-37.161-17.383z M-37.296-23.066c-0.438,0-0.805,0.159-1.102,0.478
		s-0.48,0.765-0.551,1.339h3.176v-0.082c-0.031-0.551-0.18-0.978-0.445-1.28S-36.843-23.066-37.296-23.066z"/>
	<path d="M-29.743-19.182c0-0.293-0.11-0.521-0.331-0.683s-0.605-0.302-1.154-0.419s-0.984-0.258-1.307-0.422
		s-0.561-0.359-0.715-0.586s-0.231-0.496-0.231-0.809c0-0.52,0.22-0.959,0.659-1.318s1.001-0.539,1.685-0.539
		c0.719,0,1.302,0.186,1.749,0.557s0.671,0.846,0.671,1.424h-1.09c0-0.297-0.126-0.553-0.378-0.768s-0.569-0.322-0.952-0.322
		c-0.395,0-0.703,0.086-0.926,0.258s-0.334,0.396-0.334,0.674c0,0.262,0.104,0.459,0.311,0.592s0.581,0.26,1.122,0.381
		s0.979,0.266,1.315,0.434s0.585,0.37,0.747,0.606s0.243,0.524,0.243,0.864c0,0.566-0.227,1.021-0.68,1.362
		s-1.041,0.513-1.764,0.513c-0.508,0-0.957-0.09-1.348-0.27s-0.696-0.431-0.917-0.753s-0.331-0.671-0.331-1.046h1.084
		c0.02,0.363,0.165,0.651,0.437,0.864s0.63,0.319,1.075,0.319c0.41,0,0.739-0.083,0.987-0.249S-29.743-18.904-29.743-19.182z"/>
	<path d="M-23.556-19.182c0-0.293-0.11-0.521-0.331-0.683s-0.605-0.302-1.154-0.419s-0.984-0.258-1.307-0.422
		s-0.561-0.359-0.715-0.586s-0.231-0.496-0.231-0.809c0-0.52,0.22-0.959,0.659-1.318s1.001-0.539,1.685-0.539
		c0.719,0,1.302,0.186,1.749,0.557s0.671,0.846,0.671,1.424h-1.09c0-0.297-0.126-0.553-0.378-0.768s-0.569-0.322-0.952-0.322
		c-0.395,0-0.703,0.086-0.926,0.258s-0.334,0.396-0.334,0.674c0,0.262,0.104,0.459,0.311,0.592s0.581,0.26,1.122,0.381
		s0.979,0.266,1.315,0.434s0.585,0.37,0.747,0.606s0.243,0.524,0.243,0.864c0,0.566-0.227,1.021-0.68,1.362
		s-1.041,0.513-1.764,0.513c-0.508,0-0.957-0.09-1.348-0.27s-0.696-0.431-0.917-0.753s-0.331-0.671-0.331-1.046h1.084
		c0.02,0.363,0.165,0.651,0.437,0.864s0.63,0.319,1.075,0.319c0.41,0,0.739-0.083,0.987-0.249S-23.556-18.904-23.556-19.182z"/>
	<path d="M-17.146-18.127c-0.422,0.496-1.041,0.744-1.857,0.744c-0.676,0-1.19-0.196-1.544-0.589s-0.532-0.974-0.536-1.743v-4.125
		h1.084v4.096c0,0.961,0.391,1.441,1.172,1.441c0.828,0,1.379-0.309,1.652-0.926v-4.611h1.084v6.34h-1.031L-17.146-18.127z"/>
	<path d="M-11.38-22.867c-0.164-0.027-0.342-0.041-0.533-0.041c-0.711,0-1.193,0.303-1.447,0.908v4.5h-1.084v-6.34h1.055
		l0.018,0.732c0.355-0.566,0.859-0.85,1.512-0.85c0.211,0,0.371,0.027,0.48,0.082V-22.867z"/>
	<path d="M-7.864-17.383c-0.859,0-1.559-0.282-2.098-0.847s-0.809-1.319-0.809-2.265v-0.199c0-0.629,0.12-1.19,0.36-1.685
		s0.576-0.881,1.008-1.16s0.899-0.419,1.403-0.419c0.824,0,1.465,0.271,1.922,0.814s0.686,1.32,0.686,2.332v0.451h-4.295
		c0.016,0.625,0.198,1.13,0.548,1.515s0.794,0.577,1.333,0.577c0.383,0,0.707-0.078,0.973-0.234s0.498-0.363,0.697-0.621
		l0.662,0.516C-6.005-17.791-6.802-17.383-7.864-17.383z M-7.999-23.066c-0.438,0-0.805,0.159-1.102,0.478s-0.48,0.765-0.551,1.339
		h3.176v-0.082c-0.031-0.551-0.18-0.978-0.445-1.28S-7.546-23.066-7.999-23.066z"/>
	<path d="M0.456-26.031l2.789,6.961l2.789-6.961h1.459v8.531H6.368v-3.322l0.105-3.586L3.673-17.5H2.812l-2.795-6.891l0.111,3.568
		v3.322h-1.125v-8.531H0.456z"/>
	<path d="M14.665-20.6c0,0.965-0.221,1.742-0.662,2.332s-1.039,0.885-1.793,0.885c-0.77,0-1.375-0.244-1.816-0.732v3.053H9.31
		v-8.777h0.99l0.053,0.703c0.441-0.547,1.055-0.82,1.84-0.82c0.762,0,1.364,0.287,1.808,0.861s0.665,1.373,0.665,2.396V-20.6z
		 M13.581-20.723c0-0.715-0.152-1.279-0.457-1.693s-0.723-0.621-1.254-0.621c-0.656,0-1.148,0.291-1.477,0.873v3.029
		c0.324,0.578,0.82,0.867,1.488,0.867c0.52,0,0.933-0.206,1.239-0.618S13.581-19.91,13.581-20.723z"/>
	<path d="M19.956-17.5c-0.063-0.125-0.113-0.348-0.152-0.668c-0.504,0.523-1.105,0.785-1.805,0.785c-0.625,0-1.138-0.177-1.538-0.53
		s-0.601-0.802-0.601-1.345c0-0.66,0.251-1.173,0.753-1.538s1.208-0.548,2.118-0.548h1.055v-0.498c0-0.379-0.113-0.681-0.34-0.905
		s-0.561-0.337-1.002-0.337c-0.387,0-0.711,0.098-0.973,0.293s-0.393,0.432-0.393,0.709h-1.09c0-0.316,0.112-0.622,0.337-0.917
		s0.529-0.528,0.914-0.7s0.808-0.258,1.269-0.258c0.73,0,1.303,0.183,1.717,0.548s0.629,0.868,0.645,1.509v2.918
		c0,0.582,0.074,1.045,0.223,1.389v0.094H19.956z M18.157-18.326c0.34,0,0.662-0.088,0.967-0.264s0.525-0.404,0.662-0.686v-1.301
		h-0.85c-1.328,0-1.992,0.389-1.992,1.166c0,0.34,0.113,0.605,0.34,0.797S17.802-18.326,18.157-18.326z"/>
	<path d="M22.528-20.963c0-0.883,0.118-1.73,0.354-2.543s0.589-1.551,1.058-2.215s0.955-1.133,1.459-1.406l0.223,0.715
		c-0.57,0.438-1.038,1.105-1.403,2.004s-0.565,1.904-0.601,3.018l-0.006,0.498c0,1.508,0.275,2.816,0.826,3.926
		c0.332,0.664,0.727,1.184,1.184,1.559l-0.223,0.662c-0.52-0.289-1.016-0.773-1.488-1.453
		C22.989-17.527,22.528-19.115,22.528-20.963z"/>
	<path d="M26.413-20.723c0-0.988,0.229-1.774,0.686-2.358s1.063-0.876,1.816-0.876c0.773,0,1.377,0.273,1.811,0.82l0.053-0.703h0.99
		v6.188c0,0.82-0.243,1.467-0.729,1.939s-1.14,0.709-1.96,0.709c-0.457,0-0.904-0.098-1.342-0.293s-0.771-0.463-1.002-0.803
		l0.563-0.65c0.465,0.574,1.033,0.861,1.705,0.861c0.527,0,0.938-0.148,1.233-0.445s0.442-0.715,0.442-1.254v-0.545
		c-0.434,0.5-1.025,0.75-1.775,0.75c-0.742,0-1.343-0.299-1.802-0.896S26.413-19.691,26.413-20.723z M27.503-20.6
		c0,0.715,0.146,1.276,0.439,1.685s0.703,0.612,1.23,0.612c0.684,0,1.186-0.311,1.506-0.932v-2.895
		c-0.332-0.605-0.83-0.908-1.494-0.908c-0.527,0-0.939,0.205-1.236,0.615S27.503-21.404,27.503-20.6z"/>
	<path d="M35.905-20.904c0,0.871-0.114,1.706-0.343,2.505s-0.578,1.536-1.049,2.212s-0.964,1.156-1.479,1.441l-0.229-0.662
		c0.602-0.461,1.085-1.177,1.45-2.147s0.552-2.048,0.56-3.231v-0.188c0-0.82-0.086-1.583-0.258-2.288s-0.411-1.337-0.718-1.896
		s-0.651-0.994-1.034-1.307l0.229-0.662c0.516,0.285,1.007,0.762,1.474,1.43s0.816,1.404,1.049,2.209S35.905-21.822,35.905-20.904z"
		/>
</g>
<g>
	<path d="M272.346,494.049h-2.004v3.451h-1.131v-8.531h2.824c0.961,0,1.7,0.219,2.218,0.656s0.776,1.074,0.776,1.91
		c0,0.531-0.144,0.994-0.431,1.389s-0.687,0.689-1.198,0.885l2.004,3.621v0.07h-1.207L272.346,494.049z M270.342,493.129h1.729
		c0.559,0,1.003-0.145,1.333-0.435s0.495-0.677,0.495-1.162c0-0.528-0.157-0.933-0.472-1.215s-0.769-0.425-1.362-0.429h-1.723
		V493.129z"/>
	<path d="M277.813,497.5h-1.125v-8.531h1.125V497.5z"/>
	<path d="M288.5,489.889h-2.742v7.611h-1.119v-7.611h-2.736v-0.92h6.598V489.889z"/>
	<path d="M291.646,497.617c-0.859,0-1.559-0.282-2.098-0.847s-0.809-1.319-0.809-2.265v-0.199c0-0.629,0.12-1.19,0.36-1.685
		s0.576-0.881,1.008-1.16s0.899-0.419,1.403-0.419c0.824,0,1.465,0.271,1.922,0.814s0.686,1.32,0.686,2.332v0.451h-4.295
		c0.016,0.625,0.198,1.13,0.548,1.515s0.794,0.577,1.333,0.577c0.383,0,0.707-0.078,0.973-0.234s0.498-0.363,0.697-0.621
		l0.662,0.516C293.506,497.209,292.709,497.617,291.646,497.617z M291.512,491.934c-0.438,0-0.805,0.159-1.102,0.478
		s-0.48,0.765-0.551,1.339h3.176v-0.082c-0.031-0.551-0.18-0.978-0.445-1.28S291.965,491.934,291.512,491.934z"/>
	<path d="M296.393,491.16l0.029,0.703c0.465-0.547,1.092-0.82,1.881-0.82c0.887,0,1.49,0.34,1.811,1.02
		c0.211-0.305,0.485-0.551,0.823-0.738s0.737-0.281,1.198-0.281c1.391,0,2.098,0.736,2.121,2.209v4.248h-1.084v-4.184
		c0-0.453-0.104-0.792-0.311-1.017s-0.555-0.337-1.043-0.337c-0.402,0-0.736,0.12-1.002,0.36s-0.42,0.563-0.463,0.97v4.207h-1.09
		v-4.154c0-0.922-0.451-1.383-1.354-1.383c-0.711,0-1.197,0.303-1.459,0.908v4.629h-1.084v-6.34H296.393z"/>
	<path d="M311.246,494.4c0,0.965-0.221,1.742-0.662,2.332s-1.039,0.885-1.793,0.885c-0.77,0-1.375-0.244-1.816-0.732v3.053h-1.084
		v-8.777h0.99l0.053,0.703c0.441-0.547,1.055-0.82,1.84-0.82c0.762,0,1.364,0.287,1.808,0.861s0.665,1.373,0.665,2.396V494.4z
		 M310.162,494.277c0-0.715-0.152-1.279-0.457-1.693s-0.723-0.621-1.254-0.621c-0.656,0-1.148,0.291-1.477,0.873v3.029
		c0.324,0.578,0.82,0.867,1.488,0.867c0.52,0,0.933-0.206,1.239-0.618S310.162,495.09,310.162,494.277z"/>
	<path d="M318.959,489.104c0,0.563-0.468,1.128-1.187,1.128c-0.744,0-1.14-0.564-1.14-1.128c0-0.575,0.396-1.14,1.199-1.14
		C318.575,487.965,318.959,488.529,318.959,489.104z M317.004,489.08c0,0.456,0.335,0.805,0.768,0.805
		c0.479,0,0.839-0.373,0.839-0.805c0-0.407-0.3-0.768-0.78-0.768C317.34,488.313,317.004,488.673,317.004,489.08z M324.488,491.228
		c-0.3-1.188-1.116-2.183-2.483-2.183c-1.667,0-2.555,1.619-2.555,3.981c0,2.387,0.959,3.935,2.555,3.935
		c1.116,0,2.231-0.576,2.603-1.848l0.24,0.107c-0.432,1.404-1.499,2.123-2.854,2.123c-2.027,0-3.49-1.679-3.49-4.317
		c0-2.243,1.283-4.354,3.406-4.354c0.779,0,1.283,0.228,1.955,0.659c0.096,0.072,0.18,0.108,0.264,0.108
		c0.156,0,0.288-0.132,0.372-0.444h0.228v2.231H324.488z"/>
</g>
<g>
	<path d="M15.099,463.707h0.814c0.512-0.008,0.914-0.143,1.207-0.404s0.439-0.615,0.439-1.061c0-1-0.498-1.5-1.494-1.5
		c-0.469,0-0.843,0.134-1.122,0.401s-0.419,0.622-0.419,1.063H13.44c0-0.676,0.247-1.237,0.741-1.685s1.122-0.671,1.884-0.671
		c0.805,0,1.436,0.213,1.893,0.639s0.686,1.018,0.686,1.775c0,0.371-0.12,0.73-0.36,1.078s-0.567,0.607-0.981,0.779
		c0.469,0.148,0.831,0.395,1.087,0.738s0.384,0.764,0.384,1.26c0,0.766-0.25,1.373-0.75,1.822s-1.15,0.674-1.951,0.674
		s-1.452-0.217-1.954-0.65s-0.753-1.006-0.753-1.717h1.09c0,0.449,0.146,0.809,0.439,1.078s0.686,0.404,1.178,0.404
		c0.523,0,0.924-0.137,1.201-0.41s0.416-0.666,0.416-1.178c0-0.496-0.152-0.877-0.457-1.143s-0.744-0.402-1.318-0.41h-0.814V463.707
		z"/>
	<path d="M25.61,464.861c0,1.27-0.217,2.213-0.65,2.83s-1.111,0.926-2.033,0.926c-0.91,0-1.584-0.302-2.021-0.905
		s-0.664-1.505-0.68-2.704v-1.447c0-1.254,0.217-2.186,0.65-2.795s1.113-0.914,2.039-0.914c0.918,0,1.594,0.294,2.027,0.882
		s0.656,1.495,0.668,2.722V464.861z M24.526,463.379c0-0.918-0.129-1.587-0.387-2.007s-0.666-0.63-1.225-0.63
		c-0.555,0-0.959,0.209-1.213,0.627s-0.385,1.061-0.393,1.928v1.734c0,0.922,0.134,1.603,0.401,2.042s0.673,0.659,1.216,0.659
		c0.535,0,0.933-0.207,1.192-0.621s0.396-1.066,0.407-1.957V463.379z"/>
	<path d="M27.134,467.932c0-0.188,0.056-0.344,0.167-0.469s0.278-0.188,0.501-0.188s0.392,0.063,0.507,0.188
		s0.173,0.281,0.173,0.469c0,0.18-0.058,0.33-0.173,0.451s-0.284,0.182-0.507,0.182s-0.39-0.061-0.501-0.182
		S27.134,468.111,27.134,467.932z"/>
	<path d="M35.507,464.861c0,1.27-0.217,2.213-0.65,2.83s-1.111,0.926-2.033,0.926c-0.91,0-1.584-0.302-2.021-0.905
		s-0.664-1.505-0.68-2.704v-1.447c0-1.254,0.217-2.186,0.65-2.795s1.113-0.914,2.039-0.914c0.918,0,1.594,0.294,2.027,0.882
		s0.656,1.495,0.668,2.722V464.861z M34.423,463.379c0-0.918-0.129-1.587-0.387-2.007s-0.666-0.63-1.225-0.63
		c-0.555,0-0.959,0.209-1.213,0.627s-0.385,1.061-0.393,1.928v1.734c0,0.922,0.134,1.603,0.401,2.042s0.673,0.659,1.216,0.659
		c0.535,0,0.933-0.207,1.192-0.621s0.396-1.066,0.407-1.957V463.379z"/>
</g>
<g>
	<path d="M77.477,459.963v0.92h-0.199c-0.844,0.016-1.516,0.266-2.016,0.75s-0.789,1.166-0.867,2.045
		c0.449-0.516,1.063-0.773,1.84-0.773c0.742,0,1.335,0.262,1.778,0.785s0.665,1.199,0.665,2.027c0,0.879-0.239,1.582-0.718,2.109
		s-1.12,0.791-1.925,0.791c-0.816,0-1.479-0.313-1.986-0.94s-0.762-1.435-0.762-2.423v-0.416c0-1.57,0.335-2.771,1.005-3.601
		s1.667-1.255,2.991-1.274H77.477z M76.053,463.807c-0.371,0-0.713,0.111-1.025,0.334s-0.529,0.502-0.65,0.838v0.398
		c0,0.703,0.158,1.27,0.475,1.699s0.711,0.645,1.184,0.645c0.488,0,0.872-0.18,1.151-0.539s0.419-0.83,0.419-1.412
		c0-0.586-0.142-1.06-0.425-1.421S76.521,463.807,76.053,463.807z"/>
	<path d="M85.311,464.861c0,1.27-0.217,2.213-0.65,2.83s-1.111,0.926-2.033,0.926c-0.91,0-1.584-0.302-2.021-0.905
		s-0.664-1.505-0.68-2.704v-1.447c0-1.254,0.217-2.186,0.65-2.795s1.113-0.914,2.039-0.914c0.918,0,1.594,0.294,2.027,0.882
		s0.656,1.495,0.668,2.722V464.861z M84.227,463.379c0-0.918-0.129-1.587-0.387-2.007s-0.666-0.63-1.225-0.63
		c-0.555,0-0.959,0.209-1.213,0.627s-0.385,1.061-0.393,1.928v1.734c0,0.922,0.134,1.603,0.401,2.042s0.673,0.659,1.216,0.659
		c0.535,0,0.933-0.207,1.192-0.621s0.396-1.066,0.407-1.957V463.379z"/>
	<path d="M86.834,467.932c0-0.188,0.056-0.344,0.167-0.469s0.278-0.188,0.501-0.188s0.392,0.063,0.507,0.188
		s0.173,0.281,0.173,0.469c0,0.18-0.058,0.33-0.173,0.451s-0.284,0.182-0.507,0.182s-0.39-0.061-0.501-0.182
		S86.834,468.111,86.834,467.932z"/>
	<path d="M95.207,464.861c0,1.27-0.217,2.213-0.65,2.83s-1.111,0.926-2.033,0.926c-0.91,0-1.584-0.302-2.021-0.905
		s-0.664-1.505-0.68-2.704v-1.447c0-1.254,0.217-2.186,0.65-2.795s1.113-0.914,2.039-0.914c0.918,0,1.594,0.294,2.027,0.882
		s0.656,1.495,0.668,2.722V464.861z M94.123,463.379c0-0.918-0.129-1.587-0.387-2.007s-0.666-0.63-1.225-0.63
		c-0.555,0-0.959,0.209-1.213,0.627s-0.385,1.061-0.393,1.928v1.734c0,0.922,0.134,1.603,0.401,2.042s0.673,0.659,1.216,0.659
		c0.535,0,0.933-0.207,1.192-0.621s0.396-1.066,0.407-1.957V463.379z"/>
</g>
<g>
	<path d="M137.077,464.75c-0.227,0.27-0.497,0.486-0.812,0.65s-0.659,0.246-1.034,0.246c-0.492,0-0.921-0.121-1.286-0.363
		s-0.647-0.583-0.847-1.022s-0.299-0.925-0.299-1.456c0-0.57,0.108-1.084,0.325-1.541s0.524-0.807,0.923-1.049
		s0.863-0.363,1.395-0.363c0.844,0,1.509,0.315,1.995,0.946s0.729,1.491,0.729,2.581v0.316c0,1.66-0.328,2.872-0.984,3.636
		s-1.646,1.155-2.971,1.175H134v-0.92h0.229c0.895-0.016,1.582-0.248,2.063-0.699C136.772,466.438,137.034,465.725,137.077,464.75z
		 M135.407,464.75c0.363,0,0.698-0.111,1.005-0.334s0.53-0.498,0.671-0.826v-0.434c0-0.711-0.154-1.289-0.463-1.734
		s-0.699-0.668-1.172-0.668c-0.477,0-0.859,0.183-1.148,0.548s-0.434,0.847-0.434,1.444c0,0.582,0.14,1.062,0.419,1.438
		S134.938,464.75,135.407,464.75z"/>
	<path d="M145.01,464.861c0,1.27-0.217,2.213-0.65,2.83s-1.111,0.926-2.033,0.926c-0.91,0-1.584-0.302-2.021-0.905
		s-0.664-1.505-0.68-2.704v-1.447c0-1.254,0.217-2.186,0.65-2.795s1.113-0.914,2.039-0.914c0.918,0,1.594,0.294,2.027,0.882
		s0.656,1.495,0.668,2.722V464.861z M143.926,463.379c0-0.918-0.129-1.587-0.387-2.007s-0.666-0.63-1.225-0.63
		c-0.555,0-0.959,0.209-1.213,0.627s-0.385,1.061-0.393,1.928v1.734c0,0.922,0.134,1.603,0.401,2.042s0.673,0.659,1.216,0.659
		c0.535,0,0.933-0.207,1.192-0.621s0.396-1.066,0.407-1.957V463.379z"/>
	<path d="M146.534,467.932c0-0.188,0.056-0.344,0.167-0.469s0.278-0.188,0.501-0.188s0.392,0.063,0.507,0.188
		s0.173,0.281,0.173,0.469c0,0.18-0.058,0.33-0.173,0.451s-0.284,0.182-0.507,0.182s-0.39-0.061-0.501-0.182
		S146.534,468.111,146.534,467.932z"/>
	<path d="M154.907,464.861c0,1.27-0.217,2.213-0.65,2.83s-1.111,0.926-2.033,0.926c-0.91,0-1.584-0.302-2.021-0.905
		s-0.664-1.505-0.68-2.704v-1.447c0-1.254,0.217-2.186,0.65-2.795s1.113-0.914,2.039-0.914c0.918,0,1.594,0.294,2.027,0.882
		s0.656,1.495,0.668,2.722V464.861z M153.823,463.379c0-0.918-0.129-1.587-0.387-2.007s-0.666-0.63-1.225-0.63
		c-0.555,0-0.959,0.209-1.213,0.627s-0.385,1.061-0.393,1.928v1.734c0,0.922,0.134,1.603,0.401,2.042s0.673,0.659,1.216,0.659
		c0.535,0,0.933-0.207,1.192-0.621s0.396-1.066,0.407-1.957V463.379z"/>
</g>
<g>
	<path d="M192.816,468.5h-1.09v-7.225l-2.186,0.803v-0.984l3.105-1.166h0.17V468.5z"/>
	<path d="M201.582,468.5h-5.59v-0.779l2.953-3.281c0.438-0.496,0.739-0.899,0.905-1.21s0.249-0.632,0.249-0.964
		c0-0.445-0.135-0.811-0.404-1.096s-0.629-0.428-1.078-0.428c-0.539,0-0.958,0.153-1.257,0.46s-0.448,0.733-0.448,1.28h-1.084
		c0-0.785,0.253-1.42,0.759-1.904s1.183-0.727,2.03-0.727c0.793,0,1.42,0.208,1.881,0.624s0.691,0.97,0.691,1.661
		c0,0.84-0.535,1.84-1.605,3l-2.285,2.479h4.283V468.5z"/>
	<path d="M208.08,464.861c0,1.27-0.217,2.213-0.65,2.83s-1.111,0.926-2.033,0.926c-0.91,0-1.584-0.302-2.021-0.905
		s-0.664-1.505-0.68-2.704v-1.447c0-1.254,0.217-2.186,0.65-2.795s1.113-0.914,2.039-0.914c0.918,0,1.594,0.294,2.027,0.882
		s0.656,1.495,0.668,2.722V464.861z M206.996,463.379c0-0.918-0.129-1.587-0.387-2.007s-0.666-0.63-1.225-0.63
		c-0.555,0-0.959,0.209-1.213,0.627s-0.385,1.061-0.393,1.928v1.734c0,0.922,0.134,1.603,0.401,2.042s0.673,0.659,1.216,0.659
		c0.535,0,0.933-0.207,1.192-0.621s0.396-1.066,0.407-1.957V463.379z"/>
	<path d="M209.603,467.932c0-0.188,0.056-0.344,0.167-0.469s0.278-0.188,0.501-0.188s0.392,0.063,0.507,0.188
		s0.173,0.281,0.173,0.469c0,0.18-0.058,0.33-0.173,0.451s-0.284,0.182-0.507,0.182s-0.39-0.061-0.501-0.182
		S209.603,468.111,209.603,467.932z"/>
	<path d="M217.976,464.861c0,1.27-0.217,2.213-0.65,2.83s-1.111,0.926-2.033,0.926c-0.91,0-1.584-0.302-2.021-0.905
		s-0.664-1.505-0.68-2.704v-1.447c0-1.254,0.217-2.186,0.65-2.795s1.113-0.914,2.039-0.914c0.918,0,1.594,0.294,2.027,0.882
		s0.656,1.495,0.668,2.722V464.861z M216.892,463.379c0-0.918-0.129-1.587-0.387-2.007s-0.666-0.63-1.225-0.63
		c-0.555,0-0.959,0.209-1.213,0.627s-0.385,1.061-0.393,1.928v1.734c0,0.922,0.134,1.603,0.401,2.042s0.673,0.659,1.216,0.659
		c0.535,0,0.933-0.207,1.192-0.621s0.396-1.066,0.407-1.957V463.379z"/>
</g>
<g>
	<path d="M252.516,468.5h-1.09v-7.225l-2.186,0.803v-0.984l3.105-1.166h0.17V468.5z"/>
	<path d="M256.189,464.223l0.434-4.254h4.371v1.002h-3.451l-0.258,2.326c0.418-0.246,0.893-0.369,1.424-0.369
		c0.777,0,1.395,0.257,1.852,0.771s0.686,1.208,0.686,2.083c0,0.879-0.237,1.571-0.712,2.077s-1.138,0.759-1.989,0.759
		c-0.754,0-1.369-0.209-1.846-0.627s-0.748-0.996-0.814-1.734h1.025c0.066,0.488,0.24,0.856,0.521,1.104s0.652,0.372,1.113,0.372
		c0.504,0,0.899-0.172,1.187-0.516s0.431-0.818,0.431-1.424c0-0.57-0.155-1.028-0.466-1.374s-0.724-0.519-1.239-0.519
		c-0.473,0-0.844,0.104-1.113,0.311l-0.287,0.234L256.189,464.223z"/>
	<path d="M267.779,464.861c0,1.27-0.217,2.213-0.65,2.83s-1.111,0.926-2.033,0.926c-0.91,0-1.584-0.302-2.021-0.905
		s-0.664-1.505-0.68-2.704v-1.447c0-1.254,0.217-2.186,0.65-2.795s1.113-0.914,2.039-0.914c0.918,0,1.594,0.294,2.027,0.882
		s0.656,1.495,0.668,2.722V464.861z M266.695,463.379c0-0.918-0.129-1.587-0.387-2.007s-0.666-0.63-1.225-0.63
		c-0.555,0-0.959,0.209-1.213,0.627s-0.385,1.061-0.393,1.928v1.734c0,0.922,0.134,1.603,0.401,2.042s0.673,0.659,1.216,0.659
		c0.535,0,0.933-0.207,1.192-0.621s0.396-1.066,0.407-1.957V463.379z"/>
	<path d="M269.303,467.932c0-0.188,0.056-0.344,0.167-0.469s0.278-0.188,0.501-0.188s0.392,0.063,0.507,0.188
		s0.173,0.281,0.173,0.469c0,0.18-0.058,0.33-0.173,0.451s-0.284,0.182-0.507,0.182s-0.39-0.061-0.501-0.182
		S269.303,468.111,269.303,467.932z"/>
	<path d="M277.676,464.861c0,1.27-0.217,2.213-0.65,2.83s-1.111,0.926-2.033,0.926c-0.91,0-1.584-0.302-2.021-0.905
		s-0.664-1.505-0.68-2.704v-1.447c0-1.254,0.217-2.186,0.65-2.795s1.113-0.914,2.039-0.914c0.918,0,1.594,0.294,2.027,0.882
		s0.656,1.495,0.668,2.722V464.861z M276.592,463.379c0-0.918-0.129-1.587-0.387-2.007s-0.666-0.63-1.225-0.63
		c-0.555,0-0.959,0.209-1.213,0.627s-0.385,1.061-0.393,1.928v1.734c0,0.922,0.134,1.603,0.401,2.042s0.673,0.659,1.216,0.659
		c0.535,0,0.933-0.207,1.192-0.621s0.396-1.066,0.407-1.957V463.379z"/>
</g>
<g>
	<path d="M312.216,468.5h-1.09v-7.225l-2.186,0.803v-0.984l3.105-1.166h0.17V468.5z"/>
	<path d="M320.565,462.195c0,0.426-0.112,0.805-0.337,1.137s-0.528,0.592-0.911,0.779c0.445,0.191,0.798,0.471,1.058,0.838
		s0.39,0.783,0.39,1.248c0,0.738-0.249,1.326-0.747,1.764s-1.153,0.656-1.966,0.656c-0.82,0-1.478-0.22-1.972-0.659
		s-0.741-1.026-0.741-1.761c0-0.461,0.126-0.877,0.378-1.248s0.601-0.652,1.046-0.844c-0.379-0.188-0.678-0.447-0.896-0.779
		s-0.328-0.709-0.328-1.131c0-0.719,0.23-1.289,0.691-1.711s1.068-0.633,1.822-0.633c0.75,0,1.356,0.211,1.819,0.633
		S320.565,461.477,320.565,462.195z M319.681,466.174c0-0.477-0.151-0.865-0.454-1.166s-0.698-0.451-1.187-0.451
		s-0.88,0.148-1.175,0.445s-0.442,0.688-0.442,1.172s0.144,0.865,0.431,1.143s0.687,0.416,1.198,0.416
		c0.508,0,0.906-0.14,1.195-0.419S319.681,466.654,319.681,466.174z M318.052,460.742c-0.426,0-0.771,0.132-1.034,0.396
		s-0.396,0.622-0.396,1.075c0,0.434,0.13,0.784,0.39,1.052s0.606,0.401,1.04,0.401s0.78-0.134,1.04-0.401s0.39-0.618,0.39-1.052
		s-0.135-0.787-0.404-1.061S318.466,460.742,318.052,460.742z"/>
	<path d="M327.479,464.861c0,1.27-0.217,2.213-0.65,2.83s-1.111,0.926-2.033,0.926c-0.91,0-1.584-0.302-2.021-0.905
		s-0.664-1.505-0.68-2.704v-1.447c0-1.254,0.217-2.186,0.65-2.795s1.113-0.914,2.039-0.914c0.918,0,1.594,0.294,2.027,0.882
		s0.656,1.495,0.668,2.722V464.861z M326.396,463.379c0-0.918-0.129-1.587-0.387-2.007s-0.666-0.63-1.225-0.63
		c-0.555,0-0.959,0.209-1.213,0.627s-0.385,1.061-0.393,1.928v1.734c0,0.922,0.134,1.603,0.401,2.042s0.673,0.659,1.216,0.659
		c0.535,0,0.933-0.207,1.192-0.621s0.396-1.066,0.407-1.957V463.379z"/>
	<path d="M329.003,467.932c0-0.188,0.056-0.344,0.167-0.469s0.278-0.188,0.501-0.188s0.392,0.063,0.507,0.188
		s0.173,0.281,0.173,0.469c0,0.18-0.058,0.33-0.173,0.451s-0.284,0.182-0.507,0.182s-0.39-0.061-0.501-0.182
		S329.003,468.111,329.003,467.932z"/>
	<path d="M337.376,464.861c0,1.27-0.217,2.213-0.65,2.83s-1.111,0.926-2.033,0.926c-0.91,0-1.584-0.302-2.021-0.905
		s-0.664-1.505-0.68-2.704v-1.447c0-1.254,0.217-2.186,0.65-2.795s1.113-0.914,2.039-0.914c0.918,0,1.594,0.294,2.027,0.882
		s0.656,1.495,0.668,2.722V464.861z M336.292,463.379c0-0.918-0.129-1.587-0.387-2.007s-0.666-0.63-1.225-0.63
		c-0.555,0-0.959,0.209-1.213,0.627s-0.385,1.061-0.393,1.928v1.734c0,0.922,0.134,1.603,0.401,2.042s0.673,0.659,1.216,0.659
		c0.535,0,0.933-0.207,1.192-0.621s0.396-1.066,0.407-1.957V463.379z"/>
</g>
<g>
	<path d="M373.943,468.5h-5.59v-0.779l2.953-3.281c0.438-0.496,0.739-0.899,0.905-1.21s0.249-0.632,0.249-0.964
		c0-0.445-0.135-0.811-0.404-1.096s-0.629-0.428-1.078-0.428c-0.539,0-0.958,0.153-1.257,0.46s-0.448,0.733-0.448,1.28h-1.084
		c0-0.785,0.253-1.42,0.759-1.904s1.183-0.727,2.03-0.727c0.793,0,1.42,0.208,1.881,0.624s0.691,0.97,0.691,1.661
		c0,0.84-0.535,1.84-1.605,3l-2.285,2.479h4.283V468.5z"/>
	<path d="M378.654,468.5h-1.09v-7.225l-2.186,0.803v-0.984l3.105-1.166h0.17V468.5z"/>
	<path d="M387.18,464.861c0,1.27-0.217,2.213-0.65,2.83s-1.111,0.926-2.033,0.926c-0.91,0-1.584-0.302-2.021-0.905
		s-0.664-1.505-0.68-2.704v-1.447c0-1.254,0.217-2.186,0.65-2.795s1.113-0.914,2.039-0.914c0.918,0,1.594,0.294,2.027,0.882
		s0.656,1.495,0.668,2.722V464.861z M386.096,463.379c0-0.918-0.129-1.587-0.387-2.007s-0.666-0.63-1.225-0.63
		c-0.555,0-0.959,0.209-1.213,0.627s-0.385,1.061-0.393,1.928v1.734c0,0.922,0.134,1.603,0.401,2.042s0.673,0.659,1.216,0.659
		c0.535,0,0.933-0.207,1.192-0.621s0.396-1.066,0.407-1.957V463.379z"/>
	<path d="M388.703,467.932c0-0.188,0.056-0.344,0.167-0.469s0.278-0.188,0.501-0.188s0.392,0.063,0.507,0.188
		s0.173,0.281,0.173,0.469c0,0.18-0.058,0.33-0.173,0.451s-0.284,0.182-0.507,0.182s-0.39-0.061-0.501-0.182
		S388.703,468.111,388.703,467.932z"/>
	<path d="M397.076,464.861c0,1.27-0.217,2.213-0.65,2.83s-1.111,0.926-2.033,0.926c-0.91,0-1.584-0.302-2.021-0.905
		s-0.664-1.505-0.68-2.704v-1.447c0-1.254,0.217-2.186,0.65-2.795s1.113-0.914,2.039-0.914c0.918,0,1.594,0.294,2.027,0.882
		s0.656,1.495,0.668,2.722V464.861z M395.992,463.379c0-0.918-0.129-1.587-0.387-2.007s-0.666-0.63-1.225-0.63
		c-0.555,0-0.959,0.209-1.213,0.627s-0.385,1.061-0.393,1.928v1.734c0,0.922,0.134,1.603,0.401,2.042s0.673,0.659,1.216,0.659
		c0.535,0,0.933-0.207,1.192-0.621s0.396-1.066,0.407-1.957V463.379z"/>
</g>
<g>
	<path d="M433.643,468.5h-5.59v-0.779l2.953-3.281c0.438-0.496,0.739-0.899,0.905-1.21s0.249-0.632,0.249-0.964
		c0-0.445-0.135-0.811-0.404-1.096s-0.629-0.428-1.078-0.428c-0.539,0-0.958,0.153-1.257,0.46s-0.448,0.733-0.448,1.28h-1.084
		c0-0.785,0.253-1.42,0.759-1.904s1.183-0.727,2.03-0.727c0.793,0,1.42,0.208,1.881,0.624s0.691,0.97,0.691,1.661
		c0,0.84-0.535,1.84-1.605,3l-2.285,2.479h4.283V468.5z"/>
	<path d="M439.368,465.635h1.184v0.885h-1.184v1.98h-1.09v-1.98h-3.885v-0.639l3.82-5.912h1.154V465.635z M435.624,465.635h2.654
		v-4.184l-0.129,0.234L435.624,465.635z"/>
	<path d="M446.879,464.861c0,1.27-0.217,2.213-0.65,2.83s-1.111,0.926-2.033,0.926c-0.91,0-1.584-0.302-2.021-0.905
		s-0.664-1.505-0.68-2.704v-1.447c0-1.254,0.217-2.186,0.65-2.795s1.113-0.914,2.039-0.914c0.918,0,1.594,0.294,2.027,0.882
		s0.656,1.495,0.668,2.722V464.861z M445.795,463.379c0-0.918-0.129-1.587-0.387-2.007s-0.666-0.63-1.225-0.63
		c-0.555,0-0.959,0.209-1.213,0.627s-0.385,1.061-0.393,1.928v1.734c0,0.922,0.134,1.603,0.401,2.042s0.673,0.659,1.216,0.659
		c0.535,0,0.933-0.207,1.192-0.621s0.396-1.066,0.407-1.957V463.379z"/>
	<path d="M448.403,467.932c0-0.188,0.056-0.344,0.167-0.469s0.278-0.188,0.501-0.188s0.392,0.063,0.507,0.188
		s0.173,0.281,0.173,0.469c0,0.18-0.058,0.33-0.173,0.451s-0.284,0.182-0.507,0.182s-0.39-0.061-0.501-0.182
		S448.403,468.111,448.403,467.932z"/>
	<path d="M456.776,464.861c0,1.27-0.217,2.213-0.65,2.83s-1.111,0.926-2.033,0.926c-0.91,0-1.584-0.302-2.021-0.905
		s-0.664-1.505-0.68-2.704v-1.447c0-1.254,0.217-2.186,0.65-2.795s1.113-0.914,2.039-0.914c0.918,0,1.594,0.294,2.027,0.882
		s0.656,1.495,0.668,2.722V464.861z M455.692,463.379c0-0.918-0.129-1.587-0.387-2.007s-0.666-0.63-1.225-0.63
		c-0.555,0-0.959,0.209-1.213,0.627s-0.385,1.061-0.393,1.928v1.734c0,0.922,0.134,1.603,0.401,2.042s0.673,0.659,1.216,0.659
		c0.535,0,0.933-0.207,1.192-0.621s0.396-1.066,0.407-1.957V463.379z"/>
</g>
<g>
	<path d="M493.343,468.5h-5.59v-0.779l2.953-3.281c0.438-0.496,0.739-0.899,0.905-1.21s0.249-0.632,0.249-0.964
		c0-0.445-0.135-0.811-0.404-1.096s-0.629-0.428-1.078-0.428c-0.539,0-0.958,0.153-1.257,0.46s-0.448,0.733-0.448,1.28h-1.084
		c0-0.785,0.253-1.42,0.759-1.904s1.183-0.727,2.03-0.727c0.793,0,1.42,0.208,1.881,0.624s0.691,0.97,0.691,1.661
		c0,0.84-0.535,1.84-1.605,3l-2.285,2.479h4.283V468.5z"/>
	<path d="M500,460.578l-3.533,7.922h-1.137l3.521-7.641h-4.617v-0.891H500V460.578z"/>
	<path d="M506.58,464.861c0,1.27-0.217,2.213-0.65,2.83s-1.111,0.926-2.033,0.926c-0.91,0-1.584-0.302-2.021-0.905
		s-0.664-1.505-0.68-2.704v-1.447c0-1.254,0.217-2.186,0.65-2.795s1.113-0.914,2.039-0.914c0.918,0,1.594,0.294,2.027,0.882
		s0.656,1.495,0.668,2.722V464.861z M505.496,463.379c0-0.918-0.129-1.587-0.387-2.007s-0.666-0.63-1.225-0.63
		c-0.555,0-0.959,0.209-1.213,0.627s-0.385,1.061-0.393,1.928v1.734c0,0.922,0.134,1.603,0.401,2.042s0.673,0.659,1.216,0.659
		c0.535,0,0.933-0.207,1.192-0.621s0.396-1.066,0.407-1.957V463.379z"/>
	<path d="M508.103,467.932c0-0.188,0.056-0.344,0.167-0.469s0.278-0.188,0.501-0.188s0.392,0.063,0.507,0.188
		s0.173,0.281,0.173,0.469c0,0.18-0.058,0.33-0.173,0.451s-0.284,0.182-0.507,0.182s-0.39-0.061-0.501-0.182
		S508.103,468.111,508.103,467.932z"/>
	<path d="M516.477,464.861c0,1.27-0.217,2.213-0.65,2.83s-1.111,0.926-2.033,0.926c-0.91,0-1.584-0.302-2.021-0.905
		s-0.664-1.505-0.68-2.704v-1.447c0-1.254,0.217-2.186,0.65-2.795s1.113-0.914,2.039-0.914c0.918,0,1.594,0.294,2.027,0.882
		s0.656,1.495,0.668,2.722V464.861z M515.393,463.379c0-0.918-0.129-1.587-0.387-2.007s-0.666-0.63-1.225-0.63
		c-0.555,0-0.959,0.209-1.213,0.627s-0.385,1.061-0.393,1.928v1.734c0,0.922,0.133,1.603,0.4,2.042s0.674,0.659,1.217,0.659
		c0.535,0,0.932-0.207,1.191-0.621s0.396-1.066,0.408-1.957V463.379z"/>
</g>
<g>
	<path d="M-63.915,4.5h-1.09v-7.225l-2.186,0.803v-0.984l3.105-1.166h0.17V4.5z"/>
	<path d="M-60.241,0.223l0.434-4.254h4.371v1.002h-3.451l-0.258,2.326c0.418-0.246,0.893-0.369,1.424-0.369
		c0.777,0,1.395,0.257,1.852,0.771s0.686,1.208,0.686,2.083c0,0.879-0.237,1.571-0.712,2.077s-1.138,0.759-1.989,0.759
		c-0.754,0-1.369-0.209-1.846-0.627s-0.748-0.996-0.814-1.734h1.025c0.066,0.488,0.24,0.856,0.521,1.104s0.652,0.372,1.113,0.372
		c0.504,0,0.899-0.172,1.187-0.516s0.431-0.818,0.431-1.424c0-0.57-0.155-1.028-0.466-1.374S-57.458-0.1-57.974-0.1
		c-0.473,0-0.844,0.104-1.113,0.311l-0.287,0.234L-60.241,0.223z"/>
	<path d="M-53.866,3.932c0-0.188,0.056-0.344,0.167-0.469s0.278-0.188,0.501-0.188s0.392,0.063,0.507,0.188s0.173,0.281,0.173,0.469
		c0,0.18-0.058,0.33-0.173,0.451s-0.284,0.182-0.507,0.182s-0.39-0.061-0.501-0.182S-53.866,4.111-53.866,3.932z"/>
	<path d="M-45.493,0.861c0,1.27-0.217,2.213-0.65,2.83s-1.111,0.926-2.033,0.926c-0.91,0-1.584-0.302-2.021-0.905
		s-0.664-1.505-0.68-2.704v-1.447c0-1.254,0.217-2.186,0.65-2.795s1.113-0.914,2.039-0.914c0.918,0,1.594,0.294,2.027,0.882
		s0.656,1.495,0.668,2.722V0.861z M-46.577-0.621c0-0.918-0.129-1.587-0.387-2.007s-0.666-0.63-1.225-0.63
		c-0.555,0-0.959,0.209-1.213,0.627s-0.385,1.061-0.393,1.928v1.734c0,0.922,0.134,1.603,0.401,2.042s0.673,0.659,1.216,0.659
		c0.535,0,0.933-0.207,1.192-0.621s0.396-1.066,0.407-1.957V-0.621z"/>
	<path d="M-63.915,154.5h-1.09v-7.225l-2.186,0.803v-0.984l3.105-1.166h0.17V154.5z"/>
	<path d="M-55.39,150.861c0,1.27-0.217,2.213-0.65,2.83s-1.111,0.926-2.033,0.926c-0.91,0-1.584-0.302-2.021-0.905
		s-0.664-1.505-0.68-2.704v-1.447c0-1.254,0.217-2.186,0.65-2.795s1.113-0.914,2.039-0.914c0.918,0,1.594,0.294,2.027,0.882
		s0.656,1.495,0.668,2.722V150.861z M-56.474,149.379c0-0.918-0.129-1.587-0.387-2.007s-0.666-0.63-1.225-0.63
		c-0.555,0-0.959,0.209-1.213,0.627s-0.385,1.061-0.393,1.928v1.734c0,0.922,0.134,1.603,0.401,2.042s0.673,0.659,1.216,0.659
		c0.535,0,0.933-0.207,1.192-0.621s0.396-1.066,0.407-1.957V149.379z"/>
	<path d="M-53.866,153.932c0-0.188,0.056-0.344,0.167-0.469s0.278-0.188,0.501-0.188s0.392,0.063,0.507,0.188
		s0.173,0.281,0.173,0.469c0,0.18-0.058,0.33-0.173,0.451s-0.284,0.182-0.507,0.182s-0.39-0.061-0.501-0.182
		S-53.866,154.111-53.866,153.932z"/>
	<path d="M-45.493,150.861c0,1.27-0.217,2.213-0.65,2.83s-1.111,0.926-2.033,0.926c-0.91,0-1.584-0.302-2.021-0.905
		s-0.664-1.505-0.68-2.704v-1.447c0-1.254,0.217-2.186,0.65-2.795s1.113-0.914,2.039-0.914c0.918,0,1.594,0.294,2.027,0.882
		s0.656,1.495,0.668,2.722V150.861z M-46.577,149.379c0-0.918-0.129-1.587-0.387-2.007s-0.666-0.63-1.225-0.63
		c-0.555,0-0.959,0.209-1.213,0.627s-0.385,1.061-0.393,1.928v1.734c0,0.922,0.134,1.603,0.401,2.042s0.673,0.659,1.216,0.659
		c0.535,0,0.933-0.207,1.192-0.621s0.396-1.066,0.407-1.957V149.379z"/>
	<path d="M-63.61,300.223l0.434-4.254h4.371v1.002h-3.451l-0.258,2.326c0.418-0.246,0.893-0.369,1.424-0.369
		c0.777,0,1.395,0.257,1.852,0.771s0.686,1.208,0.686,2.083c0,0.879-0.237,1.571-0.712,2.077s-1.138,0.759-1.989,0.759
		c-0.754,0-1.369-0.209-1.846-0.627s-0.748-0.996-0.814-1.734h1.025c0.066,0.488,0.24,0.856,0.521,1.104s0.652,0.372,1.113,0.372
		c0.504,0,0.899-0.172,1.187-0.516s0.431-0.818,0.431-1.424c0-0.57-0.155-1.028-0.466-1.374s-0.724-0.519-1.239-0.519
		c-0.473,0-0.844,0.104-1.113,0.311l-0.287,0.234L-63.61,300.223z"/>
	<path d="M-57.235,303.932c0-0.188,0.056-0.344,0.167-0.469s0.278-0.188,0.501-0.188s0.392,0.063,0.507,0.188
		s0.173,0.281,0.173,0.469c0,0.18-0.058,0.33-0.173,0.451s-0.284,0.182-0.507,0.182s-0.39-0.061-0.501-0.182
		S-57.235,304.111-57.235,303.932z"/>
	<path d="M-48.862,300.861c0,1.27-0.217,2.213-0.65,2.83s-1.111,0.926-2.033,0.926c-0.91,0-1.584-0.302-2.021-0.905
		s-0.664-1.505-0.68-2.704v-1.447c0-1.254,0.217-2.186,0.65-2.795s1.113-0.914,2.039-0.914c0.918,0,1.594,0.294,2.027,0.882
		s0.656,1.495,0.668,2.722V300.861z M-49.946,299.379c0-0.918-0.129-1.587-0.387-2.007s-0.666-0.63-1.225-0.63
		c-0.555,0-0.959,0.209-1.213,0.627s-0.385,1.061-0.393,1.928v1.734c0,0.922,0.134,1.603,0.401,2.042s0.673,0.659,1.216,0.659
		c0.535,0,0.933-0.207,1.192-0.621s0.396-1.066,0.407-1.957V299.379z"/>
	<path d="M-58.759,450.861c0,1.27-0.217,2.213-0.65,2.83s-1.111,0.926-2.033,0.926c-0.91,0-1.584-0.302-2.021-0.905
		s-0.664-1.505-0.68-2.704v-1.447c0-1.254,0.217-2.186,0.65-2.795s1.113-0.914,2.039-0.914c0.918,0,1.594,0.294,2.027,0.882
		s0.656,1.495,0.668,2.722V450.861z M-59.843,449.379c0-0.918-0.129-1.587-0.387-2.007s-0.666-0.63-1.225-0.63
		c-0.555,0-0.959,0.209-1.213,0.627s-0.385,1.061-0.393,1.928v1.734c0,0.922,0.134,1.603,0.401,2.042s0.673,0.659,1.216,0.659
		c0.535,0,0.933-0.207,1.192-0.621s0.396-1.066,0.407-1.957V449.379z"/>
	<path d="M-57.235,453.932c0-0.188,0.056-0.344,0.167-0.469s0.278-0.188,0.501-0.188s0.392,0.063,0.507,0.188
		s0.173,0.281,0.173,0.469c0,0.18-0.058,0.33-0.173,0.451s-0.284,0.182-0.507,0.182s-0.39-0.061-0.501-0.182
		S-57.235,454.111-57.235,453.932z"/>
	<path d="M-48.862,450.861c0,1.27-0.217,2.213-0.65,2.83s-1.111,0.926-2.033,0.926c-0.91,0-1.584-0.302-2.021-0.905
		s-0.664-1.505-0.68-2.704v-1.447c0-1.254,0.217-2.186,0.65-2.795s1.113-0.914,2.039-0.914c0.918,0,1.594,0.294,2.027,0.882
		s0.656,1.495,0.668,2.722V450.861z M-49.946,449.379c0-0.918-0.129-1.587-0.387-2.007s-0.666-0.63-1.225-0.63
		c-0.555,0-0.959,0.209-1.213,0.627s-0.385,1.061-0.393,1.928v1.734c0,0.922,0.134,1.603,0.401,2.042s0.673,0.659,1.216,0.659
		c0.535,0,0.933-0.207,1.192-0.621s0.396-1.066,0.407-1.957V449.379z"/>
</g>
<g>
	<path d="M549.029,463.707h0.814c0.512-0.008,0.914-0.143,1.207-0.404s0.439-0.615,0.439-1.061c0-1-0.498-1.5-1.494-1.5
		c-0.469,0-0.843,0.134-1.122,0.401s-0.419,0.622-0.419,1.063h-1.084c0-0.676,0.247-1.237,0.741-1.685s1.122-0.671,1.884-0.671
		c0.805,0,1.436,0.213,1.893,0.639s0.686,1.018,0.686,1.775c0,0.371-0.12,0.73-0.36,1.078s-0.567,0.607-0.981,0.779
		c0.469,0.148,0.831,0.395,1.087,0.738s0.384,0.764,0.384,1.26c0,0.766-0.25,1.373-0.75,1.822s-1.15,0.674-1.951,0.674
		s-1.452-0.217-1.954-0.65s-0.753-1.006-0.753-1.717h1.09c0,0.449,0.146,0.809,0.439,1.078s0.686,0.404,1.178,0.404
		c0.523,0,0.924-0.137,1.201-0.41s0.416-0.666,0.416-1.178c0-0.496-0.152-0.877-0.457-1.143s-0.744-0.402-1.318-0.41h-0.814V463.707
		z"/>
	<path d="M559.541,464.861c0,1.27-0.217,2.213-0.65,2.83s-1.111,0.926-2.033,0.926c-0.91,0-1.584-0.302-2.021-0.905
		s-0.664-1.505-0.68-2.704v-1.447c0-1.254,0.217-2.186,0.65-2.795s1.113-0.914,2.039-0.914c0.918,0,1.594,0.294,2.027,0.882
		s0.656,1.495,0.668,2.722V464.861z M558.457,463.379c0-0.918-0.129-1.587-0.387-2.007s-0.666-0.63-1.225-0.63
		c-0.555,0-0.959,0.209-1.213,0.627s-0.385,1.061-0.393,1.928v1.734c0,0.922,0.134,1.603,0.401,2.042s0.673,0.659,1.216,0.659
		c0.535,0,0.933-0.207,1.192-0.621s0.396-1.066,0.407-1.957V463.379z"/>
	<path d="M566.279,464.861c0,1.27-0.217,2.213-0.65,2.83s-1.111,0.926-2.033,0.926c-0.91,0-1.584-0.302-2.021-0.905
		s-0.664-1.505-0.68-2.704v-1.447c0-1.254,0.217-2.186,0.65-2.795s1.113-0.914,2.039-0.914c0.918,0,1.594,0.294,2.027,0.882
		s0.656,1.495,0.668,2.722V464.861z M565.195,463.379c0-0.918-0.129-1.587-0.387-2.007s-0.666-0.63-1.225-0.63
		c-0.555,0-0.959,0.209-1.213,0.627s-0.385,1.061-0.393,1.928v1.734c0,0.922,0.134,1.603,0.401,2.042s0.673,0.659,1.216,0.659
		c0.535,0,0.933-0.207,1.192-0.621s0.396-1.066,0.407-1.957V463.379z"/>
	<path d="M567.803,467.932c0-0.188,0.056-0.344,0.167-0.469s0.278-0.188,0.501-0.188s0.392,0.063,0.507,0.188
		s0.173,0.281,0.173,0.469c0,0.18-0.058,0.33-0.173,0.451s-0.284,0.182-0.507,0.182s-0.39-0.061-0.501-0.182
		S567.803,468.111,567.803,467.932z"/>
	<path d="M576.176,464.861c0,1.27-0.217,2.213-0.65,2.83s-1.111,0.926-2.033,0.926c-0.91,0-1.584-0.302-2.021-0.905
		s-0.664-1.505-0.68-2.704v-1.447c0-1.254,0.217-2.186,0.65-2.795s1.113-0.914,2.039-0.914c0.918,0,1.594,0.294,2.027,0.882
		s0.656,1.495,0.668,2.722V464.861z M575.092,463.379c0-0.918-0.129-1.587-0.387-2.007s-0.666-0.63-1.225-0.63
		c-0.555,0-0.959,0.209-1.213,0.627s-0.385,1.061-0.393,1.928v1.734c0,0.922,0.134,1.603,0.401,2.042s0.673,0.659,1.216,0.659
		c0.535,0,0.933-0.207,1.192-0.621s0.396-1.066,0.407-1.957V463.379z"/>
</g>
<g>
	<path d="M608.729,463.707h0.814c0.512-0.008,0.914-0.143,1.207-0.404s0.439-0.615,0.439-1.061c0-1-0.498-1.5-1.494-1.5
		c-0.469,0-0.843,0.134-1.122,0.401s-0.419,0.622-0.419,1.063h-1.084c0-0.676,0.247-1.237,0.741-1.685s1.122-0.671,1.884-0.671
		c0.805,0,1.436,0.213,1.893,0.639s0.686,1.018,0.686,1.775c0,0.371-0.12,0.73-0.36,1.078s-0.567,0.607-0.981,0.779
		c0.469,0.148,0.831,0.395,1.087,0.738s0.384,0.764,0.384,1.26c0,0.766-0.25,1.373-0.75,1.822s-1.15,0.674-1.951,0.674
		s-1.452-0.217-1.954-0.65s-0.753-1.006-0.753-1.717h1.09c0,0.449,0.146,0.809,0.439,1.078s0.686,0.404,1.178,0.404
		c0.523,0,0.924-0.137,1.201-0.41s0.416-0.666,0.416-1.178c0-0.496-0.152-0.877-0.457-1.143s-0.744-0.402-1.318-0.41h-0.814V463.707
		z"/>
	<path d="M615.468,463.707h0.814c0.512-0.008,0.914-0.143,1.207-0.404s0.439-0.615,0.439-1.061c0-1-0.498-1.5-1.494-1.5
		c-0.469,0-0.843,0.134-1.122,0.401s-0.419,0.622-0.419,1.063h-1.084c0-0.676,0.247-1.237,0.741-1.685s1.122-0.671,1.884-0.671
		c0.805,0,1.436,0.213,1.893,0.639s0.686,1.018,0.686,1.775c0,0.371-0.12,0.73-0.36,1.078s-0.567,0.607-0.981,0.779
		c0.469,0.148,0.831,0.395,1.087,0.738s0.384,0.764,0.384,1.26c0,0.766-0.25,1.373-0.75,1.822s-1.15,0.674-1.951,0.674
		s-1.452-0.217-1.954-0.65s-0.753-1.006-0.753-1.717h1.09c0,0.449,0.146,0.809,0.439,1.078s0.686,0.404,1.178,0.404
		c0.523,0,0.924-0.137,1.201-0.41s0.416-0.666,0.416-1.178c0-0.496-0.152-0.877-0.457-1.143s-0.744-0.402-1.318-0.41h-0.814V463.707
		z"/>
	<path d="M625.979,464.861c0,1.27-0.217,2.213-0.65,2.83s-1.111,0.926-2.033,0.926c-0.91,0-1.584-0.302-2.021-0.905
		s-0.664-1.505-0.68-2.704v-1.447c0-1.254,0.217-2.186,0.65-2.795s1.113-0.914,2.039-0.914c0.918,0,1.594,0.294,2.027,0.882
		s0.656,1.495,0.668,2.722V464.861z M624.896,463.379c0-0.918-0.129-1.587-0.387-2.007s-0.666-0.63-1.225-0.63
		c-0.555,0-0.959,0.209-1.213,0.627s-0.385,1.061-0.393,1.928v1.734c0,0.922,0.134,1.603,0.401,2.042s0.673,0.659,1.216,0.659
		c0.535,0,0.933-0.207,1.192-0.621s0.396-1.066,0.407-1.957V463.379z"/>
	<path d="M627.503,467.932c0-0.188,0.056-0.344,0.167-0.469s0.278-0.188,0.501-0.188s0.392,0.063,0.507,0.188
		s0.173,0.281,0.173,0.469c0,0.18-0.058,0.33-0.173,0.451s-0.284,0.182-0.507,0.182s-0.39-0.061-0.501-0.182
		S627.503,468.111,627.503,467.932z"/>
	<path d="M635.876,464.861c0,1.27-0.217,2.213-0.65,2.83s-1.111,0.926-2.033,0.926c-0.91,0-1.584-0.302-2.021-0.905
		s-0.664-1.505-0.68-2.704v-1.447c0-1.254,0.217-2.186,0.65-2.795s1.113-0.914,2.039-0.914c0.918,0,1.594,0.294,2.027,0.882
		s0.656,1.495,0.668,2.722V464.861z M634.792,463.379c0-0.918-0.129-1.587-0.387-2.007s-0.666-0.63-1.225-0.63
		c-0.555,0-0.959,0.209-1.213,0.627s-0.385,1.061-0.393,1.928v1.734c0,0.922,0.134,1.603,0.401,2.042s0.673,0.659,1.216,0.659
		c0.535,0,0.933-0.207,1.192-0.621s0.396-1.066,0.407-1.957V463.379z"/>
</g>
<g>
	<g>
		<path d="M444.537-16.933v0.804h-9.75v-0.804h4.354v-2.471h-3.466v-0.792h1.643v-3.526h-1.667v-0.792h7.976v0.792h-1.667v3.526
			h1.643v0.792h-3.466v2.471H444.537z M438.3-20.195h2.674v-3.526H438.3V-20.195z"/>
		<path d="M449.604-17.724c0.972-0.048,1.967-0.12,2.891-0.264l0.06,0.732c-2.303,0.408-4.833,0.432-6.716,0.432l-0.132-0.828
			c0.864,0,1.871,0,2.915-0.036v-1.176c-1.235-0.156-2.051-0.899-2.051-1.967c0-1.211,1.043-1.991,2.542-1.991
			s2.542,0.779,2.542,1.991c0,1.067-0.815,1.811-2.051,1.967V-17.724z M452.314-23.457h-6.428v-0.78h2.734v-1.295h0.983v1.295h2.71
			V-23.457z M449.112-19.607c0.959,0,1.607-0.48,1.607-1.224s-0.647-1.235-1.607-1.235s-1.607,0.492-1.607,1.235
			S448.153-19.607,449.112-19.607z M455.792-20.147h-1.679v5.361h-0.983v-10.758h0.983v4.569h1.679V-20.147z"/>
		<path d="M469.281-20.423v0.792h-9.727v-0.792H469.281z M460.106-21.862c1.907-0.204,3.634-1.14,3.682-2.339h-3.334v-0.792h7.952
			v0.792h-3.346c0.048,1.199,1.775,2.135,3.682,2.339l-0.348,0.779c-1.763-0.216-3.382-0.995-3.97-2.171
			c-0.6,1.176-2.207,1.955-3.97,2.171L460.106-21.862z M468.093-16.753c0,1.259-1.391,1.955-3.682,1.955
			c-2.303,0-3.682-0.696-3.682-1.955c0-1.247,1.379-1.943,3.682-1.943C466.702-18.696,468.093-18,468.093-16.753z M467.098-16.753
			c0-0.744-1.008-1.175-2.687-1.175c-1.691,0-2.687,0.432-2.687,1.175c0,0.756,0.995,1.175,2.687,1.175
			C466.09-15.578,467.098-15.997,467.098-16.753z"/>
		<path d="M476.267-24.38c0,3.106-1.427,5.841-5.001,7.592l-0.527-0.804c2.89-1.379,4.33-3.442,4.533-5.997h-4.042v-0.792H476.267z
			 M479.421-25.544v10.758h-0.983v-10.758H479.421z"/>
		<path d="M491.348-20.423v0.792h-9.69v-0.792h3.97v-2.183h0.983v2.183H491.348z M482.689-18.408h7.424v3.622h-0.984v-2.831h-6.44
			V-18.408z M489.153-24.165h-6.356v-0.792h7.328v0.815c0,0.815,0,1.751-0.264,2.962l-0.983-0.096
			c0.275-1.211,0.275-2.075,0.275-2.866V-24.165z"/>
		<path d="M498.442-19.283c-1.187-0.468-2.111-1.392-2.566-2.555c-0.456,1.283-1.415,2.303-2.674,2.806l-0.516-0.779
			c1.607-0.588,2.687-2.111,2.687-3.754v-1.332h0.983v1.368c0,1.499,1.056,2.914,2.603,3.49L498.442-19.283z M501.789-15.829v0.803
			h-7.172v-3.358h0.983v2.555H501.789z M500.542-22.198h-2.351v-0.815h2.351v-2.519h0.996v8.035h-0.996V-22.198z"/>
	</g>
	
		<line fill="none" stroke="#FF00FF" stroke-width="2" stroke-miterlimit="10" x1="414.818" y1="-20.673" x2="426.183" y2="-20.673"/>
</g>
<g>
	<g>
		<path d="M553.91-16.933v0.804h-9.751v-0.804h4.354v-2.471h-3.466v-0.792h1.643v-3.526h-1.667v-0.792h7.976v0.792h-1.667v3.526
			h1.644v0.792h-3.467v2.471H553.91z M547.674-20.195h2.674v-3.526h-2.674V-20.195z"/>
		<path d="M558.977-17.724c0.973-0.048,1.967-0.12,2.891-0.264l0.061,0.732c-2.303,0.408-4.834,0.432-6.717,0.432l-0.132-0.828
			c0.864,0,1.871,0,2.915-0.036v-1.176c-1.236-0.156-2.051-0.899-2.051-1.967c0-1.211,1.043-1.991,2.542-1.991
			s2.542,0.779,2.542,1.991c0,1.067-0.814,1.811-2.051,1.967V-17.724z M561.688-23.457h-6.428v-0.78h2.734v-1.295h0.982v1.295h2.711
			V-23.457z M558.485-19.607c0.96,0,1.606-0.48,1.606-1.224s-0.646-1.235-1.606-1.235s-1.606,0.492-1.606,1.235
			S557.525-19.607,558.485-19.607z M565.166-20.147h-1.68v5.361h-0.983v-10.758h0.983v4.569h1.68V-20.147z"/>
		<path d="M575.953-19.823v0.804h-9.714v-0.804h4.378v-1.127c-2.027-0.108-3.299-0.875-3.299-2.123c0-1.343,1.476-2.147,3.79-2.147
			c2.291,0,3.767,0.804,3.767,2.147c0,1.235-1.271,2.015-3.275,2.123v1.127H575.953z M568.47-15.829h6.417v0.803h-7.4v-3.106h0.983
			V-15.829z M571.108-21.73c1.679,0,2.759-0.492,2.759-1.343s-1.08-1.355-2.759-1.355c-1.703,0-2.782,0.504-2.782,1.355
			S569.405-21.73,571.108-21.73z"/>
		<path d="M587.042-16.957v0.815h-9.774v-0.815h4.377v-2.759h-3.13v-4.965h7.292v0.803h-6.309v3.37h6.416v0.792h-3.273v2.759
			H587.042z"/>
		<path d="M590.923-19.451h3.07v0.839h-3.07V-19.451z"/>
		<path d="M595.063-16.321c2.579-2.567,4.03-4.102,4.03-5.505c0-0.971-0.528-1.667-1.619-1.667c-0.72,0-1.343,0.456-1.823,1.02
			l-0.636-0.612c0.72-0.779,1.476-1.295,2.591-1.295c1.571,0,2.555,0.995,2.555,2.506c0,1.607-1.463,3.202-3.49,5.337
			c0.456-0.036,0.983-0.084,1.439-0.084h2.482v0.947h-5.529V-16.321z"/>
		<path d="M601.783-19.979c0-2.866,1.043-4.401,2.746-4.401s2.734,1.547,2.734,4.401c0,2.866-1.031,4.461-2.734,4.461
			S601.783-17.113,601.783-19.979z M606.197-19.979c0-2.507-0.672-3.526-1.668-3.526c-1.008,0-1.679,1.019-1.679,3.526
			s0.671,3.586,1.679,3.586C605.525-16.393,606.197-17.472,606.197-19.979z"/>
		<path d="M611.106-23.109c0-1.055,0.78-1.715,1.691-1.715c0.899,0,1.679,0.66,1.679,1.715c0,1.032-0.779,1.715-1.679,1.715
			C611.887-21.394,611.106-22.078,611.106-23.109z M613.805-23.109c0-0.647-0.42-1.091-1.007-1.091c-0.6,0-1.008,0.444-1.008,1.091
			c0,0.636,0.408,1.091,1.008,1.091C613.385-22.018,613.805-22.474,613.805-23.109z M615.496-20.051
			c0-2.843,1.667-4.558,3.922-4.558c1.043,0,1.895,0.528,2.41,1.08l-0.646,0.719c-0.469-0.492-1.02-0.792-1.752-0.792
			c-1.654,0-2.746,1.355-2.746,3.526c0,2.183,1.043,3.55,2.699,3.55c0.839,0,1.438-0.336,1.99-0.959l0.66,0.708
			c-0.696,0.815-1.56,1.259-2.676,1.259C617.139-15.518,615.496-17.196,615.496-20.051z"/>
	</g>
	
		<line fill="none" stroke="#00007F" stroke-width="2" stroke-miterlimit="10" x1="523.914" y1="-20.673" x2="535.277" y2="-20.673"/>
</g>
</svg>
