<?xml version="1.0" encoding="utf-8"?>
<!-- Generator: Adobe Illustrator 15.0.0, SVG Export Plug-In . SVG Version: 6.00 Build 0)  -->
<!DOCTYPE svg PUBLIC "-//W3C//DTD SVG 1.1//EN" "http://www.w3.org/Graphics/SVG/1.1/DTD/svg11.dtd">
<svg version="1.1" id="Layer_1" xmlns="http://www.w3.org/2000/svg" xmlns:xlink="http://www.w3.org/1999/xlink" x="0px" y="0px"
	 width="1200px" height="600px" viewBox="-90 0 1200 600" enable-background="new -90 0 1200 600" xml:space="preserve">
<polyline fill="#5439AA" points="196.928,275.947 196.893,275.932 196.964,275.932 196.928,275.947 "/>
<path fill="#2D2D2D" d="M104.124,335.01h-1v-38.62h26.095v19.229h-25.095V335.01z M104.124,314.619h24.095V297.39h-24.095V314.619z"
	/>
<path fill="#2D2D2D" d="M331.729,164.901h-42.276V138.31h42.276V164.901z M290.454,163.901h40.276V139.31h-40.276V163.901z"/>
<rect x="310.091" y="163.904" fill="#2D2D2D" width="1" height="147.439"/>
<rect x="310.091" y="98.813" fill="#2D2D2D" width="1" height="39.5"/>
<g>
	<path d="M305.362,152.533v3.164h-1.482v-8.531h3.264c0.953,0,1.71,0.249,2.271,0.745s0.841,1.153,0.841,1.971
		c0,0.837-0.274,1.488-0.823,1.954c-0.549,0.465-1.317,0.698-2.306,0.698H305.362z M305.362,151.337h1.781
		c0.527,0,0.93-0.124,1.207-0.372s0.416-0.606,0.416-1.075c0-0.461-0.141-0.829-0.422-1.104s-0.668-0.417-1.16-0.425h-1.822V151.337
		z"/>
	<path d="M314.684,152.416h-1.652v3.281h-1.482v-8.531h3c0.984,0,1.744,0.221,2.279,0.663s0.803,1.081,0.803,1.918
		c0,0.571-0.138,1.048-0.413,1.434s-0.659,0.681-1.151,0.888l1.916,3.553v0.076h-1.588L314.684,152.416z M313.032,151.22h1.523
		c0.5,0,0.891-0.126,1.172-0.378s0.422-0.597,0.422-1.034c0-0.457-0.13-0.811-0.39-1.061s-0.647-0.379-1.163-0.387h-1.564V151.22z"
		/>
</g>
<rect x="602.092" y="164.654" fill="#2D2D2D" width="1" height="147.439"/>
<rect x="602.092" y="99.563" fill="#2D2D2D" width="1" height="39.5"/>
<polygon fill="#2D2D2D" points="773.5,248.524 772.5,248.524 772.5,178.5 809.336,178.5 809.336,229.5 808.336,229.5 808.336,179.5 
	773.5,179.5 "/>
<g>
	<polygon fill="#F4E4E5" points="378.382,338.03 324.924,338.03 324.924,332.03 372.382,332.03 372.382,99.563 378.382,99.563 	"/>
	<path fill="#AF7D83" d="M378.682,338.33h-54.057v-6.6h47.458V99.264h6.6V338.33z M325.224,337.73h52.858V99.863h-5.4V332.33
		h-47.458V337.73z"/>
</g>
<g>
	<rect x="116.349" y="332.03" fill="#F4E4E5" width="182.504" height="6"/>
	<path fill="#AF7D83" d="M299.152,338.33H116.049v-6.6h183.104V338.33z M116.648,337.73h181.904v-5.4H116.648V337.73z"/>
</g>
<g>
	<rect x="-5.5" y="332.03" fill="#F4E4E5" width="97.639" height="6"/>
	<path fill="#AF7D83" d="M92.438,338.33H-5.8v-6.6h98.238V338.33z M-5.2,337.73h97.039v-5.4H-5.2V337.73z"/>
</g>
<g>
	<path fill="#F4E4E5" d="M773,338.03H616.391c-1.657,0-3-1.343-3-3s1.343-3,3-3H773c1.657,0,3,1.343,3,3S774.657,338.03,773,338.03z
		"/>
	<path fill="#AF7D83" d="M773,338.33H616.391c-1.819,0-3.3-1.48-3.3-3.3s1.48-3.3,3.3-3.3H773c1.819,0,3.3,1.48,3.3,3.3
		S774.819,338.33,773,338.33z M616.391,332.33c-1.489,0-2.7,1.211-2.7,2.7s1.211,2.7,2.7,2.7H773c1.489,0,2.7-1.211,2.7-2.7
		s-1.211-2.7-2.7-2.7H616.391z"/>
</g>
<g>
	<polygon fill="#F4E4E5" points="587.556,338.03 461.322,338.03 461.322,99.563 467.322,99.563 467.322,332.03 587.556,332.03 	"/>
	<path fill="#AF7D83" d="M587.855,338.33H461.022V99.263h6.6V331.73h120.233V338.33z M461.622,337.73h125.634v-5.4H467.022V99.862
		h-5.4V337.73z"/>
</g>
<g>
	<rect x="897.099" y="175.508" fill="#F4E4E5" width="6" height="72.498"/>
	<path fill="#AF7D83" d="M903.398,248.306h-6.6v-73.097h6.6V248.306z M897.398,247.706h5.4v-71.898h-5.4V247.706z"/>
</g>
<g>
	<rect x="897.099" y="101.583" fill="#F4E4E5" width="6" height="48.536"/>
	<path fill="#AF7D83" d="M903.398,150.418h-6.6v-49.136h6.6V150.418z M897.398,149.819h5.4v-47.937h-5.4V149.819z"/>
</g>
<g>
	<rect x="823.49" y="245.006" fill="#F4E4E5" width="182.974" height="6"/>
	<path fill="#AF7D83" d="M1006.764,251.306H823.19v-6.6h183.573V251.306z M823.79,250.706h182.374v-5.4H823.79V250.706z"/>
</g>
<g>
	<polygon fill="#F4E4E5" points="795.57,251.006 747.208,251.006 747.208,99.563 753.208,99.563 753.208,245.006 795.57,245.006 	
		"/>
	<path fill="#AF7D83" d="M795.87,251.306h-48.962V99.263h6.6v145.443h42.362V251.306z M747.508,250.706h47.763v-5.4h-42.362V99.862
		h-5.4V250.706z"/>
</g>
<g>
	<polygon fill="#F4E4E5" points="161.204,149.239 155.204,149.239 155.204,95.813 1009.5,95.813 1009.5,101.813 161.204,101.813 	
		"/>
	<path fill="#AF7D83" d="M161.504,149.539h-6.6V95.513H1009.8v6.6H161.504V149.539z M155.504,148.939h5.4v-47.426H1009.2v-5.4
		H155.504V148.939z"/>
</g>
<g>
	<rect x="155.204" y="177.678" fill="#F4E4E5" width="6" height="157.352"/>
	<path fill="#AF7D83" d="M161.504,335.329h-6.6V177.378h6.6V335.329z M155.504,334.729h5.4V177.978h-5.4V334.729z"/>
</g>
<g>
	
		<path fill="#02A2D3" stroke="#000000" stroke-width="0.6" stroke-linecap="round" stroke-linejoin="round" stroke-miterlimit="10" d="
		M103.624,334.978"/>
	
		<path fill="#02A2D3" stroke="#000000" stroke-width="0.6" stroke-linecap="round" stroke-linejoin="round" stroke-miterlimit="10" d="
		M103.624,346.031"/>
	<g>
		<polygon fill="#02A2D3" points="123.473,345.996 123.473,324.026 103.624,335.01 		"/>
		<path d="M123.473,346.296c-0.05,0-0.1-0.013-0.146-0.037l-19.849-10.986c-0.095-0.053-0.154-0.153-0.154-0.263
			s0.059-0.21,0.155-0.263l19.849-10.983c0.092-0.051,0.206-0.05,0.297,0.004c0.091,0.055,0.147,0.152,0.147,0.259v21.97
			c0,0.106-0.056,0.204-0.147,0.259C123.578,346.282,123.525,346.296,123.473,346.296z M104.243,335.01l18.93,10.478v-20.952
			L104.243,335.01z"/>
	</g>
	<g>
		<polygon fill="#02A2D3" points="83.776,324.026 83.776,345.996 103.624,335.01 		"/>
		<path d="M83.776,346.296c-0.053,0-0.105-0.014-0.152-0.041c-0.091-0.055-0.147-0.152-0.147-0.259v-21.97
			c0-0.106,0.056-0.204,0.147-0.259c0.091-0.054,0.205-0.055,0.297-0.004l19.848,10.983c0.096,0.053,0.155,0.153,0.155,0.263
			s-0.059,0.21-0.154,0.263l-19.848,10.986C83.876,346.283,83.826,346.296,83.776,346.296z M84.076,324.535v20.952l18.928-10.478
			L84.076,324.535z"/>
	</g>
</g>
<g>
	<g>
		<polygon fill="#02A2D3" points="19.207,323.992 28.781,334.977 19.207,345.963 39.054,334.977 		"/>
		<path d="M19.207,346.263c-0.088,0-0.175-0.039-0.233-0.111c-0.091-0.113-0.088-0.275,0.007-0.386l9.402-10.789l-9.402-10.787
			c-0.096-0.11-0.099-0.272-0.007-0.386c0.092-0.112,0.252-0.144,0.379-0.074L39.2,334.714c0.095,0.053,0.154,0.153,0.154,0.263
			s-0.059,0.21-0.154,0.263l-19.848,10.986C19.306,346.251,19.256,346.263,19.207,346.263z M20.553,325.08l8.454,9.699
			c0.099,0.113,0.099,0.281,0,0.395l-8.454,9.701l17.882-9.898L20.553,325.08z"/>
	</g>
</g>
<g>
	<radialGradient id="SVGID_1_" cx="158.3198" cy="98.5698" r="21.0317" gradientUnits="userSpaceOnUse">
		<stop  offset="0" style="stop-color:#FFFFFF"/>
		<stop  offset="1" style="stop-color:#858585"/>
	</radialGradient>
	<path fill="url(#SVGID_1_)" d="M170.592,93.838h-12.302c-2.838,0-5.148,2.31-5.148,5.148v12.302c0,0.276,0.224,0.5,0.5,0.5h8.566
		c0.276,0,0.5-0.224,0.5-0.5v-7.884h7.884c0.276,0,0.5-0.224,0.5-0.5v-8.566C171.092,94.062,170.869,93.838,170.592,93.838z"/>
	<path opacity="0.4" d="M170.092,94.838v7.566h-7.384h-1v1v7.384h-7.566V98.986c0-2.287,1.861-4.148,4.148-4.148H170.092
		 M170.592,93.838h-12.302c-2.838,0-5.148,2.31-5.148,5.148v12.302c0,0.276,0.224,0.5,0.5,0.5h8.566c0.276,0,0.5-0.224,0.5-0.5
		v-7.884h7.884c0.276,0,0.5-0.224,0.5-0.5v-8.566C171.092,94.062,170.869,93.838,170.592,93.838L170.592,93.838z"/>
</g>
<g>
	
		<radialGradient id="SVGID_2_" cx="418.8999" cy="368.29" r="21.0308" gradientTransform="matrix(-1 0 0 -1 794.2344 703.625)" gradientUnits="userSpaceOnUse">
		<stop  offset="0" style="stop-color:#FFFFFF"/>
		<stop  offset="1" style="stop-color:#858585"/>
	</radialGradient>
	<path fill="url(#SVGID_2_)" d="M363.062,340.067h12.302c2.838,0,5.148-2.309,5.148-5.148v-12.301c0-0.277-0.224-0.5-0.5-0.5h-8.566
		c-0.276,0-0.5,0.223-0.5,0.5v7.883h-7.884c-0.276,0-0.5,0.225-0.5,0.5v8.566C362.562,339.845,362.786,340.067,363.062,340.067z"/>
	<path opacity="0.4" d="M379.512,323.118v11.801c0,2.287-1.861,4.148-4.148,4.148h-11.802v-7.566h7.384h1v-1v-7.383H379.512
		 M380.012,322.118h-8.566c-0.276,0-0.5,0.223-0.5,0.5v7.883h-7.884c-0.276,0-0.5,0.225-0.5,0.5v8.566c0,0.277,0.224,0.5,0.5,0.5
		h12.302c2.838,0,5.148-2.309,5.148-5.148v-12.301C380.512,322.341,380.288,322.118,380.012,322.118L380.012,322.118z"/>
</g>
<g>
	
		<radialGradient id="SVGID_3_" cx="327.103" cy="368.29" r="21.0305" gradientTransform="matrix(1 0 0 -1 137.4199 703.625)" gradientUnits="userSpaceOnUse">
		<stop  offset="0" style="stop-color:#FFFFFF"/>
		<stop  offset="1" style="stop-color:#858585"/>
	</radialGradient>
	<path fill="url(#SVGID_3_)" d="M477.295,339.567v-8.566c0-0.275-0.224-0.5-0.5-0.5h-7.884v-7.883c0-0.277-0.224-0.5-0.5-0.5h-8.566
		c-0.276,0-0.5,0.223-0.5,0.5v12.301c0,2.84,2.31,5.148,5.148,5.148h12.302C477.071,340.067,477.295,339.845,477.295,339.567z"/>
	<path opacity="0.4" d="M467.911,323.118v7.383v1h1h7.384v7.566h-11.802c-2.287,0-4.148-1.861-4.148-4.148v-11.801H467.911
		 M468.411,322.118h-8.566c-0.276,0-0.5,0.223-0.5,0.5v12.301c0,2.84,2.31,5.148,5.148,5.148h12.302c0.276,0,0.5-0.223,0.5-0.5
		v-8.566c0-0.275-0.224-0.5-0.5-0.5h-7.884v-7.883C468.911,322.341,468.688,322.118,468.411,322.118L468.411,322.118z"/>
</g>
<g>
	<g>
		<polygon fill="#02A2D3" points="995.22,87.827 1004.794,98.812 995.22,109.798 1015.067,98.812 		"/>
		<path d="M995.22,110.098c-0.088,0-0.175-0.039-0.233-0.111c-0.092-0.113-0.089-0.276,0.007-0.386l9.402-10.789l-9.402-10.787
			c-0.096-0.11-0.099-0.272-0.007-0.386c0.092-0.114,0.253-0.142,0.379-0.074l19.848,10.984c0.096,0.053,0.154,0.153,0.154,0.263
			c0,0.109-0.059,0.209-0.154,0.263l-19.848,10.986C995.319,110.085,995.27,110.098,995.22,110.098z M996.566,88.915l8.454,9.699
			c0.098,0.113,0.098,0.281,0,0.395l-8.455,9.701l17.883-9.898L996.566,88.915z"/>
	</g>
</g>
<g>
	<g>
		<polygon fill="#02A2D3" points="996.54,237.539 1006.114,248.523 996.54,259.509 1016.388,248.523 		"/>
		<path d="M996.54,259.809c-0.088,0-0.175-0.039-0.233-0.111c-0.092-0.113-0.089-0.276,0.007-0.386l9.402-10.789l-9.402-10.787
			c-0.096-0.11-0.099-0.272-0.007-0.386s0.253-0.142,0.379-0.074l19.848,10.984c0.096,0.053,0.154,0.153,0.154,0.263
			c0,0.109-0.059,0.209-0.154,0.263l-19.848,10.986C996.64,259.797,996.59,259.809,996.54,259.809z M997.887,238.626l8.454,9.699
			c0.098,0.113,0.098,0.281,0,0.395l-8.455,9.701l17.883-9.898L997.887,238.626z"/>
	</g>
</g>
<g>
	<g>
		<polygon fill="#02A2D3" points="741.733,346.016 732.159,335.031 741.733,324.045 721.886,335.031 		"/>
		<path d="M741.733,346.315c-0.05,0-0.1-0.012-0.146-0.037l-19.848-10.984c-0.096-0.053-0.154-0.153-0.154-0.263
			s0.059-0.21,0.154-0.263l19.848-10.986c0.128-0.069,0.288-0.038,0.379,0.074c0.092,0.113,0.089,0.275-0.007,0.386l-9.402,10.789
			l9.402,10.787c0.096,0.11,0.099,0.272,0.007,0.386C741.908,346.276,741.821,346.315,741.733,346.315z M722.505,335.031
			l17.882,9.896l-8.454-9.699c-0.098-0.113-0.098-0.281,0-0.395l8.455-9.701L722.505,335.031z"/>
	</g>
</g>
<g>
	<path d="M113.707,302.059l2.461,6.539l2.455-6.539h1.916v8.531h-1.477v-2.813l0.146-3.762l-2.52,6.574h-1.061l-2.514-6.568
		l0.146,3.756v2.813h-1.477v-8.531H113.707z"/>
</g>
<path fill="#2D2D2D" d="M623.622,164.901h-42.276V138.31h42.276V164.901z M582.346,163.901h40.276V139.31h-40.276V163.901z"/>
<g>
	<path d="M597.254,152.533v3.164h-1.482v-8.531h3.264c0.953,0,1.711,0.249,2.271,0.745s0.84,1.153,0.84,1.971
		c0,0.837-0.273,1.488-0.822,1.954c-0.549,0.465-1.318,0.698-2.307,0.698H597.254z M597.254,151.337h1.781
		c0.527,0,0.93-0.124,1.207-0.372s0.416-0.606,0.416-1.075c0-0.461-0.141-0.829-0.422-1.104s-0.668-0.417-1.16-0.425h-1.822V151.337
		z"/>
	<path d="M606.576,152.416h-1.652v3.281h-1.482v-8.531h3c0.984,0,1.744,0.221,2.279,0.663s0.803,1.081,0.803,1.918
		c0,0.571-0.137,1.048-0.412,1.434s-0.66,0.681-1.152,0.888l1.916,3.553v0.076h-1.588L606.576,152.416z M604.924,151.22h1.523
		c0.5,0,0.891-0.126,1.172-0.378s0.422-0.597,0.422-1.034c0-0.457-0.129-0.811-0.389-1.061s-0.648-0.379-1.164-0.387h-1.564V151.22z
		"/>
</g>
<g>
	<path fill="#FFFFFF" d="M549.799,344.271c-0.243,0-0.486-0.059-0.708-0.178l-25.043-13.402v12.08c0,0.828-0.672,1.5-1.5,1.5
		s-1.5-0.672-1.5-1.5v-14.584c0-0.527,0.276-1.016,0.729-1.287c0.451-0.271,1.014-0.285,1.479-0.035l25.043,13.402v-12.08
		c0-0.828,0.672-1.5,1.5-1.5s1.5,0.672,1.5,1.5v14.584c0,0.527-0.276,1.016-0.729,1.287
		C550.333,344.199,550.066,344.271,549.799,344.271z"/>
	<path d="M549.799,344.771c-0.329,0-0.656-0.082-0.944-0.237l-24.307-13.008v11.245c0,1.103-0.897,2-2,2s-2-0.897-2-2v-14.584
		c0-0.699,0.373-1.356,0.973-1.716c0.591-0.356,1.363-0.373,1.973-0.047l24.306,13.008v-11.245c0-1.103,0.897-2,2-2s2,0.897,2,2
		v14.584c0,0.699-0.373,1.356-0.973,1.716C550.517,344.672,550.161,344.771,549.799,344.771z M523.548,329.855l25.779,13.797
		c0.304,0.162,0.689,0.153,0.985-0.023c0.3-0.18,0.486-0.509,0.486-0.858v-14.584c0-0.552-0.448-1-1-1s-1,0.448-1,1v12.915
		l-25.779-13.797c-0.304-0.162-0.688-0.153-0.985,0.023c-0.3,0.18-0.486,0.509-0.486,0.858v14.584c0,0.552,0.448,1,1,1s1-0.448,1-1
		V329.855z"/>
</g>
<g>
	<path d="M573.597,352.496v1.178h-0.176c-0.797,0.012-1.434,0.23-1.91,0.656s-0.76,1.029-0.85,1.811
		c0.457-0.48,1.041-0.721,1.752-0.721c0.754,0,1.349,0.266,1.784,0.797s0.653,1.217,0.653,2.057c0,0.867-0.255,1.57-0.765,2.107
		s-1.179,0.805-2.007,0.805c-0.852,0-1.542-0.314-2.071-0.943s-0.794-1.453-0.794-2.473v-0.486c0-1.496,0.364-2.668,1.093-3.516
		s1.776-1.271,3.144-1.271H573.597z M572.067,356.568c-0.313,0-0.599,0.088-0.858,0.264s-0.45,0.41-0.571,0.703v0.434
		c0,0.633,0.133,1.137,0.398,1.51s0.609,0.559,1.031,0.559s0.756-0.158,1.002-0.475s0.369-0.732,0.369-1.248
		s-0.125-0.936-0.375-1.26S572.481,356.568,572.067,356.568z"/>
	<path d="M580.804,358.027h1.061v1.143h-1.061v1.898h-1.424v-1.898h-3.686l-0.041-0.867l3.68-5.766h1.471V358.027z M577.147,358.027
		h2.232v-3.563l-0.105,0.188L577.147,358.027z"/>
	<path d="M586.663,361.068h-1.418v-6.854l-2.092,0.713v-1.195l3.328-1.225h0.182V361.068z"/>
	<path d="M593.483,361.068h-1.418v-6.854l-2.092,0.713v-1.195l3.328-1.225h0.182V361.068z"/>
	<path d="M596.829,356.838l0.463-4.301h4.582v1.23h-3.398l-0.234,2.039c0.395-0.227,0.84-0.34,1.336-0.34
		c0.813,0,1.444,0.26,1.896,0.779s0.677,1.219,0.677,2.098c0,0.867-0.25,1.559-0.75,2.072s-1.186,0.77-2.057,0.77
		c-0.781,0-1.429-0.221-1.942-0.664s-0.792-1.029-0.835-1.756h1.377c0.055,0.414,0.203,0.732,0.445,0.953s0.559,0.33,0.949,0.33
		c0.438,0,0.778-0.156,1.022-0.469s0.366-0.738,0.366-1.277c0-0.52-0.135-0.93-0.404-1.232s-0.641-0.455-1.113-0.455
		c-0.258,0-0.477,0.035-0.656,0.104s-0.375,0.201-0.586,0.4L596.829,356.838z"/>
	<path d="M606.122,358.016h-3.076v-1.148h3.076V358.016z"/>
	<path d="M608.917,357.904v3.164h-1.482v-8.531h3.264c0.953,0,1.71,0.249,2.271,0.746c0.561,0.496,0.841,1.152,0.841,1.971
		c0,0.836-0.274,1.487-0.823,1.953c-0.549,0.465-1.317,0.697-2.306,0.697H608.917z M608.917,356.709h1.781
		c0.527,0,0.93-0.123,1.207-0.371s0.416-0.607,0.416-1.076c0-0.461-0.141-0.828-0.422-1.104s-0.668-0.418-1.16-0.426h-1.822V356.709
		z"/>
	<path d="M621.614,358.291c-0.086,0.91-0.422,1.621-1.008,2.131s-1.365,0.764-2.338,0.764c-0.68,0-1.278-0.16-1.796-0.482
		s-0.917-0.781-1.198-1.375s-0.428-1.283-0.439-2.068v-0.797c0-0.805,0.143-1.514,0.428-2.127s0.694-1.086,1.228-1.418
		s1.149-0.498,1.849-0.498c0.941,0,1.699,0.256,2.273,0.766s0.908,1.23,1.002,2.164h-1.477c-0.07-0.613-0.249-1.055-0.536-1.326
		s-0.708-0.408-1.263-0.408c-0.645,0-1.14,0.236-1.485,0.707s-0.522,1.162-0.53,2.073v0.757c0,0.922,0.165,1.627,0.495,2.111
		s0.813,0.727,1.45,0.727c0.582,0,1.02-0.131,1.313-0.393s0.479-0.697,0.557-1.307H621.614z"/>
	<path d="M625.944,359.211l2.168-6.674h1.629l-3.07,8.531h-1.436l-3.059-8.531h1.623L625.944,359.211z"/>
	<path d="M636.21,361.068h-5.736v-0.979l2.842-3.1c0.41-0.457,0.702-0.838,0.876-1.145s0.261-0.615,0.261-0.924
		c0-0.406-0.114-0.734-0.343-0.984s-0.536-0.375-0.923-0.375c-0.461,0-0.818,0.141-1.072,0.422s-0.381,0.666-0.381,1.154h-1.424
		c0-0.52,0.118-0.986,0.354-1.402s0.574-0.74,1.014-0.971s0.946-0.346,1.521-0.346c0.828,0,1.481,0.209,1.96,0.625
		s0.718,0.99,0.718,1.725c0,0.426-0.12,0.873-0.36,1.34s-0.634,0.996-1.181,1.59l-2.086,2.232h3.961V361.068z"/>
</g>
<g>
	<path d="M738.663,357.26h-3.504v2.625h4.096v1.184h-5.578v-8.531h5.537v1.195h-4.055v2.355h3.504V357.26z"/>
	<path d="M743.397,355.619l1.793-3.082h1.711l-2.578,4.23l2.637,4.301h-1.729l-1.834-3.129l-1.84,3.129h-1.723l2.643-4.301
		l-2.584-4.23h1.711L743.397,355.619z"/>
	<path d="M754.22,353.732h-2.66v7.336h-1.471v-7.336h-2.637v-1.195h6.768V353.732z"/>
	<path d="M758.474,357.787h-1.652v3.281h-1.482v-8.531h3c0.984,0,1.744,0.221,2.279,0.662s0.803,1.081,0.803,1.918
		c0,0.57-0.138,1.049-0.413,1.434s-0.659,0.682-1.151,0.889l1.916,3.553v0.076h-1.588L758.474,357.787z M756.821,356.592h1.523
		c0.5,0,0.891-0.127,1.172-0.379s0.422-0.596,0.422-1.033c0-0.457-0.13-0.811-0.39-1.061s-0.647-0.379-1.163-0.387h-1.564V356.592z"
		/>
	<path d="M767.603,359.082h-3.305l-0.691,1.986h-1.541l3.223-8.531h1.33l3.229,8.531H768.3L767.603,359.082z M764.714,357.887h2.473
		l-1.236-3.539L764.714,357.887z"/>
	<path d="M777.2,358.291c-0.086,0.91-0.422,1.619-1.008,2.129s-1.365,0.766-2.338,0.766c-0.68,0-1.278-0.162-1.796-0.484
		s-0.917-0.779-1.198-1.373s-0.428-1.283-0.439-2.068v-0.797c0-0.805,0.143-1.514,0.428-2.127s0.694-1.086,1.228-1.418
		s1.149-0.498,1.849-0.498c0.941,0,1.699,0.254,2.273,0.764s0.908,1.232,1.002,2.166h-1.477c-0.07-0.613-0.249-1.057-0.536-1.328
		s-0.708-0.406-1.263-0.406c-0.645,0-1.14,0.234-1.485,0.706s-0.522,1.163-0.53,2.073v0.757c0,0.923,0.165,1.626,0.495,2.111
		s0.813,0.728,1.45,0.728c0.582,0,1.02-0.131,1.313-0.393s0.479-0.697,0.557-1.307H777.2z"/>
	<path d="M784.519,353.732h-2.66v7.336h-1.471v-7.336h-2.637v-1.195h6.768V353.732z"/>
	<path d="M787.202,361.068h-1.477v-8.531h1.477V361.068z"/>
	<path d="M795.833,357.025c0,0.836-0.145,1.568-0.434,2.199s-0.702,1.115-1.239,1.453s-1.155,0.508-1.854,0.508
		c-0.691,0-1.308-0.17-1.849-0.508s-0.959-0.818-1.254-1.443s-0.444-1.346-0.448-2.162v-0.48c0-0.832,0.147-1.566,0.442-2.203
		s0.711-1.125,1.248-1.463s1.153-0.506,1.849-0.506s1.312,0.166,1.849,0.5s0.952,0.814,1.245,1.441s0.441,1.357,0.445,2.189V357.025
		z M794.351,356.58c0-0.945-0.179-1.67-0.536-2.174s-0.864-0.756-1.521-0.756c-0.641,0-1.142,0.25-1.503,0.752
		s-0.546,1.213-0.554,2.131v0.492c0,0.938,0.183,1.662,0.548,2.174s0.872,0.768,1.521,0.768c0.656,0,1.161-0.25,1.515-0.75
		s0.53-1.23,0.53-2.191V356.58z"/>
	<path d="M804.077,361.068h-1.482l-3.803-6.053v6.053h-1.482v-8.531h1.482l3.814,6.076v-6.076h1.471V361.068z"/>
	<path d="M738.136,370.871c0-0.375-0.132-0.664-0.396-0.867s-0.739-0.408-1.427-0.615s-1.234-0.438-1.641-0.691
		c-0.777-0.488-1.166-1.125-1.166-1.91c0-0.688,0.28-1.254,0.841-1.699s1.288-0.668,2.183-0.668c0.594,0,1.123,0.109,1.588,0.328
		s0.83,0.529,1.096,0.934s0.398,0.854,0.398,1.346h-1.477c0-0.445-0.14-0.795-0.419-1.047s-0.679-0.377-1.198-0.377
		c-0.484,0-0.86,0.104-1.128,0.311s-0.401,0.496-0.401,0.867c0,0.313,0.145,0.572,0.434,0.781s0.766,0.412,1.43,0.609
		s1.197,0.422,1.6,0.674s0.697,0.541,0.885,0.867s0.281,0.709,0.281,1.146c0,0.711-0.272,1.275-0.817,1.695
		s-1.284,0.631-2.218,0.631c-0.617,0-1.185-0.115-1.702-0.344s-0.92-0.543-1.207-0.945s-0.431-0.871-0.431-1.406h1.482
		c0,0.484,0.16,0.859,0.48,1.125s0.779,0.398,1.377,0.398c0.516,0,0.903-0.105,1.163-0.314S738.136,371.215,738.136,370.871z"/>
	<path d="M747.083,365.732h-2.66v7.336h-1.471v-7.336h-2.637v-1.195h6.768V365.732z"/>
	<path d="M753.188,369.26h-3.504v2.625h4.096v1.184h-5.578v-8.531h5.537v1.195h-4.055v2.355h3.504V369.26z"/>
	<path d="M759.763,371.082h-3.305l-0.691,1.986h-1.541l3.223-8.531h1.33l3.229,8.531h-1.547L759.763,371.082z M756.874,369.887
		h2.473l-1.236-3.539L756.874,369.887z"/>
	<path d="M764.896,364.537l2.461,6.539l2.455-6.539h1.916v8.531h-1.477v-2.813l0.146-3.762l-2.52,6.574h-1.061l-2.514-6.568
		l0.146,3.756v2.813h-1.477v-8.531H764.896z"/>
</g>
<g>
	<path d="M776.43,266.282v1.178h-0.176c-0.797,0.012-1.434,0.23-1.91,0.656s-0.76,1.029-0.85,1.811
		c0.457-0.48,1.041-0.721,1.752-0.721c0.754,0,1.35,0.266,1.785,0.797s0.652,1.217,0.652,2.057c0,0.867-0.254,1.569-0.764,2.106
		s-1.18,0.806-2.008,0.806c-0.852,0-1.541-0.314-2.07-0.943s-0.795-1.453-0.795-2.473v-0.486c0-1.496,0.365-2.668,1.094-3.516
		s1.775-1.271,3.143-1.271H776.43z M774.9,270.354c-0.313,0-0.598,0.088-0.857,0.264s-0.451,0.41-0.572,0.703v0.434
		c0,0.633,0.133,1.136,0.398,1.509s0.609,0.56,1.031,0.56s0.756-0.158,1.002-0.475s0.369-0.732,0.369-1.248s-0.125-0.936-0.375-1.26
		S775.314,270.354,774.9,270.354z"/>
	<path d="M783.637,271.813h1.061v1.143h-1.061v1.898h-1.424v-1.898h-3.686l-0.041-0.867l3.68-5.766h1.471V271.813z M779.98,271.813
		h2.232v-3.563l-0.105,0.188L779.98,271.813z"/>
	<path d="M789.496,274.854h-1.418V268l-2.092,0.713v-1.195l3.328-1.225h0.182V274.854z"/>
	<path d="M796.316,274.854h-1.418V268l-2.092,0.713v-1.195l3.328-1.225h0.182V274.854z"/>
	<path d="M799.662,270.624l0.463-4.301h4.582v1.23h-3.398l-0.234,2.039c0.395-0.227,0.84-0.34,1.336-0.34
		c0.813,0,1.445,0.26,1.896,0.779s0.676,1.219,0.676,2.098c0,0.867-0.25,1.558-0.75,2.071s-1.186,0.771-2.057,0.771
		c-0.781,0-1.428-0.222-1.941-0.665s-0.793-1.028-0.836-1.755h1.377c0.055,0.414,0.203,0.731,0.445,0.952s0.559,0.331,0.949,0.331
		c0.438,0,0.779-0.156,1.023-0.469s0.365-0.738,0.365-1.277c0-0.52-0.135-0.931-0.404-1.233s-0.641-0.454-1.113-0.454
		c-0.258,0-0.477,0.034-0.656,0.103s-0.375,0.202-0.586,0.401L799.662,270.624z"/>
	<path d="M808.955,271.801h-3.076v-1.148h3.076V271.801z"/>
	<path d="M811.75,271.69v3.164h-1.482v-8.531h3.264c0.953,0,1.711,0.249,2.271,0.745s0.84,1.153,0.84,1.971
		c0,0.837-0.273,1.488-0.822,1.954c-0.549,0.465-1.318,0.698-2.307,0.698H811.75z M811.75,270.495h1.781
		c0.527,0,0.93-0.124,1.207-0.372s0.416-0.606,0.416-1.075c0-0.461-0.141-0.829-0.422-1.104s-0.668-0.417-1.16-0.425h-1.822V270.495
		z"/>
	<path d="M824.447,272.077c-0.086,0.91-0.422,1.62-1.008,2.13s-1.365,0.765-2.338,0.765c-0.68,0-1.277-0.161-1.795-0.483
		s-0.918-0.78-1.199-1.374s-0.428-1.283-0.439-2.068v-0.797c0-0.805,0.143-1.514,0.428-2.127s0.695-1.086,1.229-1.418
		s1.148-0.498,1.848-0.498c0.941,0,1.699,0.255,2.273,0.765s0.908,1.231,1.002,2.165h-1.477c-0.07-0.613-0.248-1.056-0.535-1.327
		s-0.709-0.407-1.264-0.407c-0.645,0-1.139,0.235-1.484,0.707s-0.523,1.163-0.531,2.073v0.757c0,0.922,0.166,1.626,0.496,2.111
		s0.813,0.727,1.449,0.727c0.582,0,1.02-0.131,1.313-0.393s0.479-0.697,0.557-1.307H824.447z"/>
	<path d="M828.777,272.997l2.168-6.674h1.629l-3.07,8.531h-1.436l-3.059-8.531h1.623L828.777,272.997z"/>
	<path d="M837.162,274.854h-1.418V268l-2.092,0.713v-1.195l3.328-1.225h0.182V274.854z"/>
	<path d="M845.863,274.854h-5.736v-0.979l2.842-3.1c0.41-0.457,0.703-0.839,0.877-1.146s0.26-0.614,0.26-0.923
		c0-0.406-0.113-0.734-0.342-0.984s-0.537-0.375-0.924-0.375c-0.461,0-0.818,0.141-1.072,0.422s-0.381,0.666-0.381,1.154h-1.424
		c0-0.52,0.119-0.987,0.355-1.403s0.574-0.739,1.014-0.97s0.945-0.346,1.52-0.346c0.828,0,1.482,0.208,1.961,0.624
		s0.717,0.991,0.717,1.726c0,0.426-0.119,0.872-0.359,1.339s-0.635,0.997-1.182,1.591l-2.086,2.232h3.961V274.854z"/>
</g>
<g>
	<path d="M991.096,267.518h-2.66v7.336h-1.471v-7.336h-2.637v-1.195h6.768V267.518z"/>
	<path d="M998.859,270.811c0,0.836-0.145,1.569-0.434,2.2s-0.703,1.115-1.24,1.453s-1.154,0.507-1.854,0.507
		c-0.691,0-1.309-0.169-1.85-0.507s-0.959-0.819-1.254-1.444s-0.443-1.346-0.447-2.162v-0.48c0-0.832,0.146-1.566,0.441-2.203
		s0.711-1.124,1.248-1.462s1.154-0.507,1.85-0.507s1.311,0.167,1.848,0.501s0.953,0.814,1.246,1.441s0.441,1.356,0.445,2.188
		V270.811z M997.377,270.366c0-0.945-0.18-1.67-0.537-2.174s-0.863-0.756-1.52-0.756c-0.641,0-1.143,0.251-1.504,0.753
		s-0.545,1.212-0.553,2.13v0.492c0,0.938,0.182,1.662,0.547,2.174s0.873,0.768,1.521,0.768c0.656,0,1.16-0.25,1.514-0.75
		s0.531-1.23,0.531-2.191V270.366z"/>
	<path d="M1009.834,272.077c-0.086,0.91-0.422,1.62-1.008,2.13s-1.365,0.765-2.338,0.765c-0.68,0-1.279-0.161-1.797-0.483
		s-0.916-0.78-1.197-1.374s-0.428-1.283-0.439-2.068v-0.797c0-0.805,0.143-1.514,0.428-2.127s0.693-1.086,1.227-1.418
		s1.15-0.498,1.85-0.498c0.941,0,1.699,0.255,2.273,0.765s0.908,1.231,1.002,2.165h-1.477c-0.07-0.613-0.25-1.056-0.537-1.327
		s-0.707-0.407-1.262-0.407c-0.645,0-1.141,0.235-1.486,0.707s-0.521,1.163-0.529,2.073v0.757c0,0.922,0.164,1.626,0.494,2.111
		s0.814,0.727,1.451,0.727c0.582,0,1.02-0.131,1.313-0.393s0.479-0.697,0.557-1.307H1009.834z"/>
	<path d="M1017.967,270.811c0,0.836-0.145,1.569-0.434,2.2s-0.703,1.115-1.24,1.453s-1.154,0.507-1.854,0.507
		c-0.691,0-1.309-0.169-1.85-0.507s-0.959-0.819-1.254-1.444s-0.443-1.346-0.447-2.162v-0.48c0-0.832,0.146-1.566,0.441-2.203
		s0.711-1.124,1.248-1.462s1.154-0.507,1.85-0.507s1.311,0.167,1.848,0.501s0.953,0.814,1.246,1.441s0.441,1.356,0.445,2.188
		V270.811z M1016.484,270.366c0-0.945-0.18-1.67-0.537-2.174s-0.863-0.756-1.52-0.756c-0.641,0-1.143,0.251-1.504,0.753
		s-0.545,1.212-0.553,2.13v0.492c0,0.938,0.182,1.662,0.547,2.174s0.873,0.768,1.521,0.768c0.656,0,1.16-0.25,1.514-0.75
		s0.531-1.23,0.531-2.191V270.366z"/>
	<path d="M1026.211,274.854h-1.482l-3.803-6.053v6.053h-1.482v-8.531h1.482l3.814,6.076v-6.076h1.471V274.854z"/>
	<path d="M1027.963,274.854v-8.531h2.52c0.754,0,1.422,0.168,2.006,0.504s1.037,0.813,1.357,1.43s0.48,1.324,0.48,2.121v0.428
		c0,0.809-0.162,1.52-0.484,2.133s-0.781,1.086-1.377,1.418s-1.277,0.498-2.047,0.498H1027.963z M1029.445,267.518v6.152h0.967
		c0.777,0,1.373-0.243,1.789-0.729s0.629-1.185,0.637-2.095v-0.475c0-0.926-0.201-1.633-0.604-2.121s-0.986-0.732-1.752-0.732
		H1029.445z"/>
</g>
<g>
	<path d="M990.764,116.955h-2.66v7.336h-1.471v-7.336h-2.637v-1.195h6.768V116.955z"/>
	<path d="M998.527,120.248c0,0.836-0.145,1.569-0.434,2.2s-0.703,1.115-1.24,1.453s-1.154,0.507-1.854,0.507
		c-0.691,0-1.309-0.169-1.85-0.507s-0.959-0.819-1.254-1.444s-0.443-1.346-0.447-2.162v-0.48c0-0.832,0.146-1.566,0.441-2.203
		s0.711-1.124,1.248-1.462s1.154-0.507,1.85-0.507s1.311,0.167,1.848,0.501s0.953,0.814,1.246,1.441s0.441,1.356,0.445,2.188
		V120.248z M997.045,119.802c0-0.945-0.18-1.67-0.537-2.174s-0.863-0.756-1.52-0.756c-0.641,0-1.143,0.251-1.504,0.753
		s-0.545,1.212-0.553,2.13v0.492c0,0.938,0.182,1.662,0.547,2.174s0.873,0.768,1.521,0.768c0.656,0,1.16-0.25,1.514-0.75
		s0.531-1.23,0.531-2.191V119.802z"/>
	<path d="M1007.451,122.093c0-0.375-0.133-0.664-0.396-0.867s-0.738-0.408-1.426-0.615s-1.234-0.438-1.641-0.691
		c-0.777-0.488-1.166-1.125-1.166-1.91c0-0.688,0.279-1.254,0.84-1.699s1.289-0.668,2.184-0.668c0.594,0,1.123,0.109,1.588,0.328
		s0.83,0.53,1.096,0.935s0.398,0.853,0.398,1.345h-1.477c0-0.445-0.141-0.794-0.42-1.046s-0.678-0.378-1.197-0.378
		c-0.484,0-0.861,0.104-1.129,0.311s-0.4,0.496-0.4,0.867c0,0.313,0.145,0.573,0.434,0.782s0.766,0.412,1.43,0.609
		s1.197,0.422,1.6,0.674s0.697,0.541,0.885,0.867s0.281,0.708,0.281,1.146c0,0.711-0.273,1.276-0.818,1.696s-1.283,0.63-2.217,0.63
		c-0.617,0-1.186-0.114-1.703-0.343s-0.92-0.544-1.207-0.946s-0.43-0.871-0.43-1.406h1.482c0,0.484,0.16,0.859,0.48,1.125
		s0.779,0.398,1.377,0.398c0.516,0,0.902-0.104,1.162-0.313S1007.451,122.437,1007.451,122.093z"/>
	<path d="M1015.221,120.482h-3.504v2.625h4.096v1.184h-5.578v-8.531h5.537v1.195h-4.055v2.355h3.504V120.482z"/>
	<path d="M1021.795,122.304h-3.305l-0.691,1.986h-1.541l3.223-8.531h1.33l3.229,8.531h-1.547L1021.795,122.304z M1018.906,121.109
		h2.473l-1.236-3.539L1018.906,121.109z"/>
	<path d="M1026.488,123.107h3.873v1.184h-5.355v-8.531h1.482V123.107z"/>
</g>
<g>
	<path d="M927.803,164.945h1.061v1.143h-1.061v1.898h-1.424v-1.898h-3.686l-0.041-0.867l3.68-5.766h1.471V164.945z M924.146,164.945
		h2.232v-3.563l-0.105,0.188L924.146,164.945z"/>
	<path d="M933.662,167.986h-1.418v-6.854l-2.092,0.713v-1.195l3.328-1.225h0.182V167.986z"/>
	<path d="M940.482,167.986h-1.418v-6.854l-2.092,0.713v-1.195l3.328-1.225h0.182V167.986z"/>
	<path d="M943.828,163.755l0.463-4.301h4.582v1.23h-3.398l-0.234,2.039c0.395-0.227,0.84-0.34,1.336-0.34
		c0.813,0,1.445,0.26,1.896,0.779s0.676,1.219,0.676,2.098c0,0.867-0.25,1.558-0.75,2.071s-1.186,0.771-2.057,0.771
		c-0.781,0-1.428-0.222-1.941-0.665s-0.793-1.028-0.836-1.755h1.377c0.055,0.414,0.203,0.731,0.445,0.952s0.559,0.331,0.949,0.331
		c0.438,0,0.779-0.156,1.023-0.469s0.365-0.738,0.365-1.277c0-0.52-0.135-0.931-0.404-1.233s-0.641-0.454-1.113-0.454
		c-0.258,0-0.477,0.034-0.656,0.103s-0.375,0.202-0.586,0.401L943.828,163.755z"/>
	<path d="M953.121,164.933h-3.076v-1.148h3.076V164.933z"/>
	<path d="M956.355,159.455l2.461,6.539l2.455-6.539h1.916v8.531h-1.477v-2.813l0.146-3.762l-2.52,6.574h-1.061l-2.514-6.568
		l0.146,3.756v2.813h-1.477v-8.531H956.355z"/>
	<path d="M967.945,166.128l2.168-6.674h1.629l-3.07,8.531h-1.436l-3.059-8.531h1.623L967.945,166.128z"/>
	<path d="M978.035,164.394c0,1.227-0.229,2.151-0.688,2.774s-1.158,0.935-2.096,0.935c-0.922,0-1.615-0.304-2.082-0.911
		s-0.707-1.507-0.719-2.698v-1.477c0-1.227,0.23-2.146,0.689-2.76s1.158-0.92,2.1-0.92c0.934,0,1.631,0.299,2.09,0.896
		s0.693,1.492,0.705,2.684V164.394z M976.611,162.8c0-0.801-0.109-1.388-0.328-1.761s-0.566-0.56-1.043-0.56
		c-0.465,0-0.807,0.177-1.025,0.53s-0.334,0.905-0.346,1.655v1.934c0,0.797,0.111,1.391,0.334,1.781s0.572,0.586,1.049,0.586
		c0.457,0,0.795-0.181,1.014-0.542s0.334-0.927,0.346-1.696V162.8z"/>
	<path d="M984.855,164.394c0,1.227-0.229,2.151-0.688,2.774s-1.158,0.935-2.096,0.935c-0.922,0-1.615-0.304-2.082-0.911
		s-0.707-1.507-0.719-2.698v-1.477c0-1.227,0.23-2.146,0.689-2.76s1.158-0.92,2.1-0.92c0.934,0,1.631,0.299,2.09,0.896
		s0.693,1.492,0.705,2.684V164.394z M983.432,162.8c0-0.801-0.109-1.388-0.328-1.761s-0.566-0.56-1.043-0.56
		c-0.465,0-0.807,0.177-1.025,0.53s-0.334,0.905-0.346,1.655v1.934c0,0.797,0.111,1.391,0.334,1.781s0.572,0.586,1.049,0.586
		c0.457,0,0.795-0.181,1.014-0.542s0.334-0.927,0.346-1.696V162.8z"/>
	<path d="M987.762,163.07h0.867c0.438-0.004,0.785-0.117,1.041-0.34s0.383-0.545,0.383-0.967c0-0.406-0.105-0.722-0.318-0.946
		s-0.539-0.337-0.977-0.337c-0.383,0-0.697,0.11-0.943,0.331s-0.369,0.509-0.369,0.864h-1.424c0-0.438,0.117-0.836,0.35-1.195
		s0.557-0.64,0.973-0.841s0.881-0.302,1.396-0.302c0.852,0,1.521,0.214,2.008,0.642s0.729,1.022,0.729,1.784
		c0,0.383-0.121,0.743-0.365,1.081s-0.561,0.593-0.947,0.765c0.469,0.16,0.826,0.412,1.07,0.756s0.365,0.754,0.365,1.23
		c0,0.766-0.262,1.375-0.787,1.828s-1.217,0.68-2.072,0.68c-0.82,0-1.492-0.219-2.016-0.656s-0.785-1.02-0.785-1.746h1.424
		c0,0.375,0.127,0.68,0.379,0.914s0.59,0.352,1.016,0.352c0.441,0,0.789-0.117,1.043-0.352s0.381-0.574,0.381-1.02
		c0-0.449-0.133-0.795-0.398-1.037s-0.66-0.363-1.184-0.363h-0.838V163.07z"/>
</g>
<g>
	<path d="M281.597,352.496v1.178h-0.176c-0.797,0.012-1.434,0.23-1.91,0.656s-0.76,1.029-0.85,1.811
		c0.457-0.48,1.041-0.721,1.752-0.721c0.754,0,1.349,0.266,1.784,0.797s0.653,1.217,0.653,2.057c0,0.867-0.255,1.57-0.765,2.107
		s-1.179,0.805-2.007,0.805c-0.852,0-1.542-0.314-2.071-0.943s-0.794-1.453-0.794-2.473v-0.486c0-1.496,0.364-2.668,1.093-3.516
		s1.776-1.271,3.144-1.271H281.597z M280.067,356.568c-0.313,0-0.599,0.088-0.858,0.264s-0.45,0.41-0.571,0.703v0.434
		c0,0.633,0.133,1.137,0.398,1.51s0.609,0.559,1.031,0.559s0.756-0.158,1.002-0.475s0.369-0.732,0.369-1.248
		s-0.125-0.936-0.375-1.26S280.481,356.568,280.067,356.568z"/>
	<path d="M288.804,358.027h1.061v1.143h-1.061v1.898h-1.424v-1.898h-3.686l-0.041-0.867l3.68-5.766h1.471V358.027z M285.147,358.027
		h2.232v-3.563l-0.105,0.188L285.147,358.027z"/>
	<path d="M294.663,361.068h-1.418v-6.854l-2.092,0.713v-1.195l3.328-1.225h0.182V361.068z"/>
	<path d="M301.483,361.068h-1.418v-6.854l-2.092,0.713v-1.195l3.328-1.225h0.182V361.068z"/>
	<path d="M304.829,356.838l0.463-4.301h4.582v1.23h-3.398l-0.234,2.039c0.395-0.227,0.84-0.34,1.336-0.34
		c0.813,0,1.444,0.26,1.896,0.779s0.677,1.219,0.677,2.098c0,0.867-0.25,1.559-0.75,2.072s-1.186,0.77-2.057,0.77
		c-0.781,0-1.429-0.221-1.942-0.664s-0.792-1.029-0.835-1.756h1.377c0.055,0.414,0.203,0.732,0.445,0.953s0.559,0.33,0.949,0.33
		c0.438,0,0.778-0.156,1.022-0.469s0.366-0.738,0.366-1.277c0-0.52-0.135-0.93-0.404-1.232s-0.641-0.455-1.113-0.455
		c-0.258,0-0.477,0.035-0.656,0.104s-0.375,0.201-0.586,0.4L304.829,356.838z"/>
	<path d="M314.122,358.016h-3.076v-1.148h3.076V358.016z"/>
	<path d="M316.917,357.904v3.164h-1.482v-8.531h3.264c0.953,0,1.71,0.249,2.271,0.746c0.561,0.496,0.841,1.152,0.841,1.971
		c0,0.836-0.274,1.487-0.823,1.953c-0.549,0.465-1.317,0.697-2.306,0.697H316.917z M316.917,356.709h1.781
		c0.527,0,0.93-0.123,1.207-0.371s0.416-0.607,0.416-1.076c0-0.461-0.141-0.828-0.422-1.104s-0.668-0.418-1.16-0.426h-1.822V356.709
		z"/>
	<path d="M329.614,358.291c-0.086,0.91-0.422,1.621-1.008,2.131s-1.365,0.764-2.338,0.764c-0.68,0-1.278-0.16-1.796-0.482
		s-0.917-0.781-1.198-1.375s-0.428-1.283-0.439-2.068v-0.797c0-0.805,0.143-1.514,0.428-2.127s0.694-1.086,1.228-1.418
		s1.149-0.498,1.849-0.498c0.941,0,1.699,0.256,2.273,0.766s0.908,1.23,1.002,2.164h-1.477c-0.07-0.613-0.249-1.055-0.536-1.326
		s-0.708-0.408-1.263-0.408c-0.645,0-1.14,0.236-1.485,0.707s-0.522,1.162-0.53,2.073v0.757c0,0.922,0.165,1.627,0.495,2.111
		s0.813,0.727,1.45,0.727c0.582,0,1.02-0.131,1.313-0.393s0.479-0.697,0.557-1.307H329.614z"/>
	<path d="M333.944,359.211l2.168-6.674h1.629l-3.07,8.531h-1.436l-3.059-8.531h1.623L333.944,359.211z"/>
	<path d="M342.329,361.068h-1.418v-6.854l-2.092,0.713v-1.195l3.328-1.225h0.182V361.068z"/>
</g>
<g>
	<path d="M185.22,164.945h1.061v1.143h-1.061v1.898h-1.424v-1.898h-3.686l-0.041-0.867l3.68-5.766h1.471V164.945z M181.563,164.945
		h2.232v-3.563l-0.105,0.188L181.563,164.945z"/>
	<path d="M191.079,167.986h-1.418v-6.854l-2.092,0.713v-1.195l3.328-1.225h0.182V167.986z"/>
	<path d="M197.899,167.986h-1.418v-6.854l-2.092,0.713v-1.195l3.328-1.225h0.182V167.986z"/>
	<path d="M201.245,163.755l0.463-4.301h4.582v1.23h-3.398l-0.234,2.039c0.395-0.227,0.84-0.34,1.336-0.34
		c0.813,0,1.444,0.26,1.896,0.779s0.677,1.219,0.677,2.098c0,0.867-0.25,1.558-0.75,2.071s-1.186,0.771-2.057,0.771
		c-0.781,0-1.429-0.222-1.942-0.665s-0.792-1.028-0.835-1.755h1.377c0.055,0.414,0.203,0.731,0.445,0.952s0.559,0.331,0.949,0.331
		c0.438,0,0.778-0.156,1.022-0.469s0.366-0.738,0.366-1.277c0-0.52-0.135-0.931-0.404-1.233s-0.641-0.454-1.113-0.454
		c-0.258,0-0.477,0.034-0.656,0.103s-0.375,0.202-0.586,0.401L201.245,163.755z"/>
	<path d="M210.538,164.933h-3.076v-1.148h3.076V164.933z"/>
	<path d="M213.772,159.455l2.461,6.539l2.455-6.539h1.916v8.531h-1.477v-2.813l0.146-3.762l-2.52,6.574h-1.061l-2.514-6.568
		l0.146,3.756v2.813h-1.477v-8.531H213.772z"/>
	<path d="M225.362,166.128l2.168-6.674h1.629l-3.07,8.531h-1.436l-3.059-8.531h1.623L225.362,166.128z"/>
	<path d="M235.452,164.394c0,1.227-0.229,2.151-0.688,2.774s-1.157,0.935-2.095,0.935c-0.922,0-1.616-0.304-2.083-0.911
		s-0.706-1.507-0.718-2.698v-1.477c0-1.227,0.229-2.146,0.688-2.76s1.159-0.92,2.101-0.92c0.934,0,1.63,0.299,2.089,0.896
		s0.694,1.492,0.706,2.684V164.394z M234.028,162.8c0-0.801-0.109-1.388-0.328-1.761s-0.566-0.56-1.043-0.56
		c-0.465,0-0.807,0.177-1.025,0.53s-0.334,0.905-0.346,1.655v1.934c0,0.797,0.111,1.391,0.334,1.781s0.572,0.586,1.049,0.586
		c0.457,0,0.795-0.181,1.014-0.542s0.334-0.927,0.346-1.696V162.8z"/>
	<path d="M242.272,164.394c0,1.227-0.229,2.151-0.688,2.774s-1.157,0.935-2.095,0.935c-0.922,0-1.616-0.304-2.083-0.911
		s-0.706-1.507-0.718-2.698v-1.477c0-1.227,0.229-2.146,0.688-2.76s1.159-0.92,2.101-0.92c0.934,0,1.63,0.299,2.089,0.896
		s0.694,1.492,0.706,2.684V164.394z M240.849,162.8c0-0.801-0.109-1.388-0.328-1.761s-0.566-0.56-1.043-0.56
		c-0.465,0-0.807,0.177-1.025,0.53s-0.334,0.905-0.346,1.655v1.934c0,0.797,0.111,1.391,0.334,1.781s0.572,0.586,1.049,0.586
		c0.457,0,0.795-0.181,1.014-0.542s0.334-0.927,0.346-1.696V162.8z"/>
	<path d="M243.913,163.755l0.463-4.301h4.582v1.23h-3.398l-0.234,2.039c0.395-0.227,0.84-0.34,1.336-0.34
		c0.813,0,1.444,0.26,1.896,0.779s0.677,1.219,0.677,2.098c0,0.867-0.25,1.558-0.75,2.071s-1.186,0.771-2.057,0.771
		c-0.781,0-1.429-0.222-1.942-0.665s-0.792-1.028-0.835-1.755h1.377c0.055,0.414,0.203,0.731,0.445,0.952s0.559,0.331,0.949,0.331
		c0.438,0,0.778-0.156,1.022-0.469s0.366-0.738,0.366-1.277c0-0.52-0.135-0.931-0.404-1.233s-0.641-0.454-1.113-0.454
		c-0.258,0-0.477,0.034-0.656,0.103s-0.375,0.202-0.586,0.401L243.913,163.755z"/>
</g>
<g>
	<path d="M78.526,358.027h1.061v1.143h-1.061v1.898h-1.424v-1.898h-3.686l-0.041-0.867l3.68-5.766h1.471V358.027z M74.87,358.027
		h2.232v-3.563l-0.105,0.188L74.87,358.027z"/>
	<path d="M84.386,361.068h-1.418v-6.854l-2.092,0.713v-1.195l3.328-1.225h0.182V361.068z"/>
	<path d="M91.206,361.068h-1.418v-6.854l-2.092,0.713v-1.195l3.328-1.225h0.182V361.068z"/>
	<path d="M94.552,356.838l0.463-4.301h4.582v1.23h-3.398l-0.234,2.039c0.395-0.227,0.84-0.34,1.336-0.34
		c0.813,0,1.444,0.26,1.896,0.779s0.677,1.219,0.677,2.098c0,0.867-0.25,1.558-0.75,2.071s-1.186,0.771-2.057,0.771
		c-0.781,0-1.429-0.222-1.942-0.665s-0.792-1.028-0.835-1.755h1.377c0.055,0.414,0.203,0.731,0.445,0.952s0.559,0.331,0.949,0.331
		c0.438,0,0.778-0.156,1.022-0.469s0.366-0.738,0.366-1.277c0-0.52-0.135-0.931-0.404-1.233s-0.641-0.454-1.113-0.454
		c-0.258,0-0.477,0.034-0.656,0.103s-0.375,0.202-0.586,0.401L94.552,356.838z"/>
	<path d="M103.845,358.016h-3.076v-1.148h3.076V358.016z"/>
	<path d="M107.079,352.537l2.461,6.539l2.455-6.539h1.916v8.531h-1.477v-2.813l0.146-3.762l-2.52,6.574h-1.061l-2.514-6.568
		l0.146,3.756v2.813h-1.477v-8.531H107.079z"/>
	<path d="M118.669,359.211l2.168-6.674h1.629l-3.07,8.531h-1.436l-3.059-8.531h1.623L118.669,359.211z"/>
	<path d="M128.759,357.477c0,1.227-0.229,2.151-0.688,2.774s-1.157,0.935-2.095,0.935c-0.922,0-1.616-0.304-2.083-0.911
		s-0.706-1.507-0.718-2.698V356.1c0-1.227,0.229-2.146,0.688-2.76s1.159-0.92,2.101-0.92c0.934,0,1.63,0.299,2.089,0.896
		s0.694,1.492,0.706,2.684V357.477z M127.335,355.883c0-0.801-0.109-1.388-0.328-1.761s-0.566-0.56-1.043-0.56
		c-0.465,0-0.807,0.177-1.025,0.53s-0.334,0.905-0.346,1.655v1.934c0,0.797,0.111,1.391,0.334,1.781s0.572,0.586,1.049,0.586
		c0.457,0,0.795-0.181,1.014-0.542s0.334-0.927,0.346-1.696V355.883z"/>
	<path d="M135.579,357.477c0,1.227-0.229,2.151-0.688,2.774s-1.157,0.935-2.095,0.935c-0.922,0-1.616-0.304-2.083-0.911
		s-0.706-1.507-0.718-2.698V356.1c0-1.227,0.229-2.146,0.688-2.76s1.159-0.92,2.101-0.92c0.934,0,1.63,0.299,2.089,0.896
		s0.694,1.492,0.706,2.684V357.477z M134.155,355.883c0-0.801-0.109-1.388-0.328-1.761s-0.566-0.56-1.043-0.56
		c-0.465,0-0.807,0.177-1.025,0.53s-0.334,0.905-0.346,1.655v1.934c0,0.797,0.111,1.391,0.334,1.781s0.572,0.586,1.049,0.586
		c0.457,0,0.795-0.181,1.014-0.542s0.334-0.927,0.346-1.696V355.883z"/>
	<path d="M142.517,353.328l-3.41,7.74h-1.494l3.404-7.389h-4.412v-1.143h5.912V353.328z"/>
</g>
<g>
	<path d="M-25.16,352.537l2.461,6.539l2.455-6.539h1.916v8.531h-1.477v-2.813l0.146-3.762l-2.52,6.574h-1.061l-2.514-6.568
		l0.146,3.756v2.813h-1.477v-8.531H-25.16z"/>
	<path d="M-11.695,359.082H-15l-0.691,1.986h-1.541l3.223-8.531h1.33l3.229,8.531h-1.547L-11.695,359.082z M-14.584,357.887h2.473
		l-1.236-3.539L-14.584,357.887z"/>
	<path d="M-6.92,361.068h-1.477v-8.531h1.477V361.068z"/>
	<path d="M1.67,361.068H0.188l-3.803-6.053v6.053h-1.482v-8.531h1.482l3.814,6.076v-6.076H1.67V361.068z"/>
	<path d="M10.869,358.871c0-0.375-0.132-0.664-0.396-0.867s-0.739-0.408-1.427-0.615s-1.234-0.438-1.641-0.691
		c-0.777-0.488-1.166-1.125-1.166-1.91c0-0.688,0.28-1.254,0.841-1.699s1.288-0.668,2.183-0.668c0.594,0,1.123,0.109,1.588,0.328
		s0.83,0.531,1.096,0.936s0.398,0.852,0.398,1.344h-1.477c0-0.445-0.14-0.793-0.419-1.045s-0.679-0.379-1.198-0.379
		c-0.484,0-0.86,0.104-1.128,0.311s-0.401,0.496-0.401,0.867c0,0.313,0.145,0.574,0.434,0.783s0.766,0.412,1.43,0.609
		s1.197,0.422,1.6,0.674s0.697,0.541,0.885,0.867s0.281,0.707,0.281,1.145c0,0.711-0.272,1.277-0.817,1.697
		s-1.284,0.629-2.218,0.629c-0.617,0-1.185-0.113-1.702-0.342s-0.92-0.545-1.207-0.947s-0.431-0.871-0.431-1.406h1.482
		c0,0.484,0.16,0.859,0.48,1.125s0.779,0.398,1.377,0.398c0.516,0,0.903-0.104,1.163-0.313S10.869,359.215,10.869,358.871z"/>
	<path d="M19.816,353.732h-2.66v7.336h-1.471v-7.336h-2.637v-1.195h6.768V353.732z"/>
	<path d="M25.922,357.26h-3.504v2.625h4.096v1.184h-5.578v-8.531h5.537v1.195h-4.055v2.355h3.504V357.26z"/>
	<path d="M32.496,359.082h-3.305l-0.691,1.986h-1.541l3.223-8.531h1.33l3.229,8.531h-1.547L32.496,359.082z M29.607,357.887h2.473
		l-1.236-3.539L29.607,357.887z"/>
	<path d="M37.629,352.537l2.461,6.539l2.455-6.539h1.916v8.531h-1.477v-2.813l0.146-3.762l-2.52,6.574h-1.061l-2.514-6.568
		l0.146,3.756v2.813h-1.477v-8.531H37.629z"/>
</g>
<g>
	<path d="M125.425,148.141l2.461,6.539l2.455-6.539h1.916v8.531h-1.477v-2.813l0.146-3.762l-2.52,6.574h-1.061l-2.514-6.568
		l0.146,3.756v2.813h-1.477v-8.531H125.425z"/>
</g>
<path fill="#2D2D2D" d="M158.206,164.803h-39.062v-26.714h17.649v25.714h21.412V164.803z M120.144,163.803h15.649v-24.714h-15.649
	V163.803z"/>
<g>
	<path fill="#F40046" stroke="#000000" stroke-width="0.6" stroke-miterlimit="10" d="M158.179,164.303"/>
	<path fill="#F40046" stroke="#000000" stroke-width="0.6" stroke-miterlimit="10" d="M169.234,164.303"/>
	<g>
		<polygon fill="#F40046" points="169.199,144.454 147.228,144.454 158.212,164.303 		"/>
		<path d="M158.212,164.922l-11.493-20.768h22.988L158.212,164.922z M147.737,144.754l10.476,18.929l10.478-18.929H147.737z"/>
	</g>
	<g>
		<polygon fill="#F40046" points="147.228,184.151 169.199,184.151 158.212,164.303 		"/>
		<path d="M169.708,184.451h-22.988l11.493-20.768L169.708,184.451z M147.737,183.852h20.953l-10.478-18.929L147.737,183.852z"/>
	</g>
</g>
<g>
	<path d="M867.296,148.141l2.461,6.539l2.455-6.539h1.916v8.531h-1.477v-2.813l0.146-3.762l-2.52,6.574h-1.061l-2.514-6.568
		l0.146,3.756v2.813h-1.477v-8.531H867.296z"/>
</g>
<path fill="#2D2D2D" d="M900.076,164.803h-39.061v-26.714h17.648v25.714h21.412V164.803z M862.016,163.803h15.648v-24.714h-15.648
	V163.803z"/>
<g>
	<path fill="#F40046" stroke="#000000" stroke-width="0.6" stroke-miterlimit="10" d="M900.051,164.303"/>
	<path fill="#F40046" stroke="#000000" stroke-width="0.6" stroke-miterlimit="10" d="M911.105,164.303"/>
	<g>
		<polygon fill="#F40046" points="911.07,144.454 889.1,144.454 900.084,164.303 		"/>
		<path d="M900.084,164.922l-11.493-20.768h22.988L900.084,164.922z M889.608,144.754l10.476,18.929l10.478-18.929H889.608z"/>
	</g>
	<g>
		<polygon fill="#F40046" points="889.1,184.151 911.07,184.151 900.084,164.303 		"/>
		<path d="M911.579,184.451h-22.988l11.493-20.768L911.579,184.451z M889.608,183.852h20.953l-10.478-18.929L889.608,183.852z"/>
	</g>
</g>
<g>
	<g>
		<radialGradient id="SVGID_4_" cx="464.1211" cy="99.1787" r="15.9376" gradientUnits="userSpaceOnUse">
			<stop  offset="0" style="stop-color:#FFFFFF"/>
			<stop  offset="1" style="stop-color:#858585"/>
		</radialGradient>
		<path fill="url(#SVGID_4_)" d="M472.77,94.19h-16.95c-0.276,0-0.5,0.224-0.5,0.5v8.566c0,0.276,0.224,0.5,0.5,0.5h3.692v7.975
			c0,0.276,0.224,0.5,0.5,0.5h8.565c0.277,0,0.5-0.224,0.5-0.5v-7.975h3.692c0.276,0,0.5-0.224,0.5-0.5V94.69
			C473.27,94.414,473.046,94.19,472.77,94.19z"/>
	</g>
	<g opacity="0.4">
		<path d="M472.27,95.19v7.566h-3.192h-1v1v7.475h-7.565v-7.475v-1h-1h-3.192V95.19H472.27 M472.77,94.19h-16.95
			c-0.276,0-0.5,0.224-0.5,0.5v8.566c0,0.276,0.224,0.5,0.5,0.5h3.692v7.975c0,0.276,0.224,0.5,0.5,0.5h8.565
			c0.277,0,0.5-0.224,0.5-0.5v-7.975h3.692c0.276,0,0.5-0.224,0.5-0.5V94.69C473.27,94.414,473.046,94.19,472.77,94.19L472.77,94.19
			z"/>
	</g>
</g>
<g>
	<g>
		<radialGradient id="SVGID_5_" cx="375.1914" cy="99.1787" r="15.9376" gradientUnits="userSpaceOnUse">
			<stop  offset="0" style="stop-color:#FFFFFF"/>
			<stop  offset="1" style="stop-color:#858585"/>
		</radialGradient>
		<path fill="url(#SVGID_5_)" d="M383.84,94.19h-16.95c-0.276,0-0.5,0.224-0.5,0.5v8.566c0,0.276,0.224,0.5,0.5,0.5h3.692v7.975
			c0,0.276,0.224,0.5,0.5,0.5h8.565c0.277,0,0.5-0.224,0.5-0.5v-7.975h3.692c0.276,0,0.5-0.224,0.5-0.5V94.69
			C384.34,94.414,384.116,94.19,383.84,94.19z"/>
	</g>
	<g opacity="0.4">
		<path d="M383.34,95.19v7.566h-3.192h-1v1v7.475h-7.565v-7.475v-1h-1h-3.192V95.19H383.34 M383.84,94.19h-16.95
			c-0.276,0-0.5,0.224-0.5,0.5v8.566c0,0.276,0.224,0.5,0.5,0.5h3.692v7.975c0,0.276,0.224,0.5,0.5,0.5h8.565
			c0.277,0,0.5-0.224,0.5-0.5v-7.975h3.692c0.276,0,0.5-0.224,0.5-0.5V94.69C384.34,94.414,384.116,94.19,383.84,94.19L383.84,94.19
			z"/>
	</g>
</g>
<g>
	<g>
		
			<radialGradient id="SVGID_6_" cx="203.7129" cy="344.3584" r="15.9375" gradientTransform="matrix(-1 0 0 -1 362.1914 679.4375)" gradientUnits="userSpaceOnUse">
			<stop  offset="0" style="stop-color:#FFFFFF"/>
			<stop  offset="1" style="stop-color:#858585"/>
		</radialGradient>
		<path fill="url(#SVGID_6_)" d="M149.83,340.067h16.95c0.276,0,0.5-0.224,0.5-0.5v-8.565c0-0.277-0.224-0.5-0.5-0.5h-3.692v-7.975
			c0-0.277-0.224-0.5-0.5-0.5h-8.565c-0.277,0-0.5,0.223-0.5,0.5v7.975h-3.692c-0.276,0-0.5,0.223-0.5,0.5v8.565
			C149.33,339.844,149.553,340.067,149.83,340.067z"/>
	</g>
	<g opacity="0.4">
		<path d="M162.087,323.027v7.475v1h1h3.192v7.565h-15.95v-7.565h3.192h1v-1v-7.475H162.087 M162.587,322.027h-8.565
			c-0.277,0-0.5,0.223-0.5,0.5v7.975h-3.692c-0.276,0-0.5,0.223-0.5,0.5v8.565c0,0.276,0.224,0.5,0.5,0.5h16.95
			c0.276,0,0.5-0.224,0.5-0.5v-8.565c0-0.277-0.224-0.5-0.5-0.5h-3.692v-7.975C163.087,322.25,162.864,322.027,162.587,322.027
			L162.587,322.027z"/>
	</g>
</g>
<g>
	
		<radialGradient id="SVGID_7_" cx="613.0771" cy="455.7998" r="21.0301" gradientTransform="matrix(1 0 0 -1 137.4199 703.625)" gradientUnits="userSpaceOnUse">
		<stop  offset="0" style="stop-color:#FFFFFF"/>
		<stop  offset="1" style="stop-color:#858585"/>
	</radialGradient>
	<path fill="url(#SVGID_7_)" d="M763.269,252.058v-8.566c0-0.275-0.224-0.5-0.5-0.5h-7.884v-7.883c0-0.277-0.224-0.5-0.5-0.5h-8.565
		c-0.277,0-0.5,0.223-0.5,0.5v12.301c0,2.84,2.309,5.148,5.147,5.148h12.302C763.045,252.558,763.269,252.335,763.269,252.058z"/>
	<path opacity="0.4" d="M753.885,235.608v7.383v1h1h7.384v7.566h-11.802c-2.287,0-4.147-1.861-4.147-4.148v-11.801H753.885
		 M754.385,234.608h-8.565c-0.277,0-0.5,0.223-0.5,0.5v12.301c0,2.84,2.309,5.148,5.147,5.148h12.302c0.276,0,0.5-0.223,0.5-0.5
		v-8.566c0-0.275-0.224-0.5-0.5-0.5h-7.884v-7.883C754.885,234.831,754.661,234.608,754.385,234.608L754.385,234.608z"/>
</g>
<g>
	<g>
		
			<radialGradient id="SVGID_8_" cx="-538.1758" cy="431.8682" r="15.9372" gradientTransform="matrix(-1 0 0 -1 362.1914 679.4375)" gradientUnits="userSpaceOnUse">
			<stop  offset="0" style="stop-color:#FFFFFF"/>
			<stop  offset="1" style="stop-color:#858585"/>
		</radialGradient>
		<path fill="url(#SVGID_8_)" d="M891.719,252.558h16.949c0.276,0,0.5-0.224,0.5-0.5v-8.565c0-0.277-0.224-0.5-0.5-0.5h-3.691
			v-7.975c0-0.277-0.225-0.5-0.5-0.5h-8.566c-0.277,0-0.5,0.223-0.5,0.5v7.975h-3.691c-0.277,0-0.5,0.223-0.5,0.5v8.565
			C891.219,252.334,891.441,252.558,891.719,252.558z"/>
	</g>
	<g opacity="0.4">
		<path d="M903.977,235.518v7.475v1h1h3.191v7.565h-15.949v-7.565h3.191h1v-1v-7.475H903.977 M904.477,234.518h-8.566
			c-0.277,0-0.5,0.223-0.5,0.5v7.975h-3.691c-0.277,0-0.5,0.223-0.5,0.5v8.565c0,0.276,0.223,0.5,0.5,0.5h16.949
			c0.276,0,0.5-0.224,0.5-0.5v-8.565c0-0.277-0.224-0.5-0.5-0.5h-3.691v-7.975C904.977,234.74,904.752,234.518,904.477,234.518
			L904.477,234.518z"/>
	</g>
</g>
<g>
	<g>
		<radialGradient id="SVGID_9_" cx="899.8779" cy="99.1787" r="15.9376" gradientUnits="userSpaceOnUse">
			<stop  offset="0" style="stop-color:#FFFFFF"/>
			<stop  offset="1" style="stop-color:#858585"/>
		</radialGradient>
		<path fill="url(#SVGID_9_)" d="M908.526,94.19h-16.949c-0.277,0-0.5,0.224-0.5,0.5v8.566c0,0.276,0.223,0.5,0.5,0.5h3.691v7.975
			c0,0.276,0.224,0.5,0.5,0.5h8.565c0.277,0,0.5-0.224,0.5-0.5v-7.975h3.692c0.276,0,0.5-0.224,0.5-0.5V94.69
			C909.026,94.414,908.803,94.19,908.526,94.19z"/>
	</g>
	<g opacity="0.4">
		<path d="M908.026,95.19v7.566h-3.192h-1v1v7.475h-7.565v-7.475v-1h-1h-3.191V95.19H908.026 M908.526,94.19h-16.949
			c-0.277,0-0.5,0.224-0.5,0.5v8.566c0,0.276,0.223,0.5,0.5,0.5h3.691v7.975c0,0.276,0.224,0.5,0.5,0.5h8.565
			c0.277,0,0.5-0.224,0.5-0.5v-7.975h3.692c0.276,0,0.5-0.224,0.5-0.5V94.69C909.026,94.414,908.803,94.19,908.526,94.19
			L908.526,94.19z"/>
	</g>
</g>
<g>
	<g>
		<radialGradient id="SVGID_10_" cx="749.9492" cy="99.1787" r="15.9376" gradientUnits="userSpaceOnUse">
			<stop  offset="0" style="stop-color:#FFFFFF"/>
			<stop  offset="1" style="stop-color:#858585"/>
		</radialGradient>
		<path fill="url(#SVGID_10_)" d="M758.598,94.19h-16.949c-0.277,0-0.5,0.224-0.5,0.5v8.566c0,0.276,0.223,0.5,0.5,0.5h3.691v7.975
			c0,0.276,0.224,0.5,0.5,0.5h8.565c0.277,0,0.5-0.224,0.5-0.5v-7.975h3.692c0.276,0,0.5-0.224,0.5-0.5V94.69
			C759.098,94.414,758.874,94.19,758.598,94.19z"/>
	</g>
	<g opacity="0.4">
		<path d="M758.098,95.19v7.566h-3.192h-1v1v7.475h-7.565v-7.475v-1h-1h-3.191V95.19H758.098 M758.598,94.19h-16.949
			c-0.277,0-0.5,0.224-0.5,0.5v8.566c0,0.276,0.223,0.5,0.5,0.5h3.691v7.975c0,0.276,0.224,0.5,0.5,0.5h8.565
			c0.277,0,0.5-0.224,0.5-0.5v-7.975h3.692c0.276,0,0.5-0.224,0.5-0.5V94.69C759.098,94.414,758.874,94.19,758.598,94.19
			L758.598,94.19z"/>
	</g>
</g>
<g>
	<radialGradient id="SVGID_11_" cx="310.8223" cy="313.207" r="24.4691" gradientUnits="userSpaceOnUse">
		<stop  offset="0" style="stop-color:#FFFFFF"/>
		<stop  offset="1" style="stop-color:#858585"/>
	</radialGradient>
	<path fill="url(#SVGID_11_)" d="M312.249,334.447v-15.556h12.081v-0.004c0-8.309-6.143-15.054-13.725-15.054
		c-7.585,0-13.731,6.745-13.731,15.054v0.004h12.083v15.556H312.249z"/>
	<path opacity="0.4" d="M310.605,304.434c7.055,0,12.827,6.161,13.113,13.858h-11.47h-0.6v0.6v15.525h-2.092v-15.525v-0.6h-0.6
		h-11.472C297.769,310.597,303.545,304.434,310.605,304.434 M310.605,303.834c-7.585,0-13.731,6.745-13.731,15.054v0.004h12.083
		v15.556h3.292v-15.556h12.081v-0.004C324.33,310.579,318.187,303.834,310.605,303.834L310.605,303.834z"/>
	<g>
		<linearGradient id="SVGID_12_" gradientUnits="userSpaceOnUse" x1="310.6011" y1="334.4141" x2="310.6011" y2="334.4141">
			<stop  offset="0" style="stop-color:#858585"/>
			<stop  offset="0.5" style="stop-color:#FFFFFF"/>
			<stop  offset="1" style="stop-color:#858585"/>
		</linearGradient>
		<path fill="url(#SVGID_12_)" d="M310.601,334.414"/>
		<linearGradient id="SVGID_13_" gradientUnits="userSpaceOnUse" x1="310.6011" y1="345.4678" x2="310.6011" y2="345.4678">
			<stop  offset="0" style="stop-color:#858585"/>
			<stop  offset="0.5" style="stop-color:#FFFFFF"/>
			<stop  offset="1" style="stop-color:#858585"/>
		</linearGradient>
		<path fill="url(#SVGID_13_)" d="M310.601,345.468"/>
		<linearGradient id="SVGID_14_" gradientUnits="userSpaceOnUse" x1="320.5254" y1="323.4863" x2="320.5254" y2="345.1736">
			<stop  offset="0" style="stop-color:#858585"/>
			<stop  offset="0.5" style="stop-color:#FFFFFF"/>
			<stop  offset="1" style="stop-color:#858585"/>
		</linearGradient>
		<polygon fill="url(#SVGID_14_)" points="330.45,345.433 330.45,323.463 310.601,334.446 		"/>
		<linearGradient id="SVGID_15_" gradientUnits="userSpaceOnUse" x1="300.6772" y1="323.4863" x2="300.6772" y2="345.1736">
			<stop  offset="0" style="stop-color:#858585"/>
			<stop  offset="0.5" style="stop-color:#FFFFFF"/>
			<stop  offset="1" style="stop-color:#858585"/>
		</linearGradient>
		<polygon fill="url(#SVGID_15_)" points="290.753,323.463 290.753,345.433 310.601,334.446 		"/>
	</g>
	<g opacity="0.4">
		<path fill="none" stroke="#000000" stroke-width="0.6" stroke-miterlimit="10" d="M310.601,334.414"/>
		<path fill="none" stroke="#000000" stroke-width="0.6" stroke-miterlimit="10" d="M310.601,345.468"/>
		<path d="M329.85,324.48v19.935l-18.009-9.969L329.85,324.48 M330.45,323.463l-19.849,10.983l19.849,10.986V323.463L330.45,323.463
			z"/>
		<path d="M291.354,324.48l18.008,9.966l-18.008,9.969V324.48 M290.753,323.463v21.97l19.848-10.986L290.753,323.463
			L290.753,323.463z"/>
	</g>
</g>
<g>
	<radialGradient id="SVGID_16_" cx="602.8223" cy="313.207" r="24.4693" gradientUnits="userSpaceOnUse">
		<stop  offset="0" style="stop-color:#FFFFFF"/>
		<stop  offset="1" style="stop-color:#858585"/>
	</radialGradient>
	<path fill="url(#SVGID_16_)" d="M604.248,334.447v-15.556h12.082v-0.004c0-8.309-6.143-15.054-13.725-15.054
		c-7.586,0-13.732,6.745-13.732,15.054v0.004h12.084v15.556H604.248z"/>
	<path opacity="0.4" d="M602.605,304.434c7.055,0,12.826,6.161,13.113,13.858h-11.471h-0.6v0.6v15.525h-2.092v-15.525v-0.6h-0.6
		h-11.473C589.77,310.597,595.545,304.434,602.605,304.434 M602.605,303.834c-7.586,0-13.732,6.745-13.732,15.054v0.004h12.084
		v15.556h3.291v-15.556h12.082v-0.004C616.33,310.579,610.188,303.834,602.605,303.834L602.605,303.834z"/>
	<g>
		<linearGradient id="SVGID_17_" gradientUnits="userSpaceOnUse" x1="602.6016" y1="334.4141" x2="602.6016" y2="334.4141">
			<stop  offset="0" style="stop-color:#858585"/>
			<stop  offset="0.5" style="stop-color:#FFFFFF"/>
			<stop  offset="1" style="stop-color:#858585"/>
		</linearGradient>
		<path fill="url(#SVGID_17_)" d="M602.602,334.414"/>
		<linearGradient id="SVGID_18_" gradientUnits="userSpaceOnUse" x1="602.6016" y1="345.4678" x2="602.6016" y2="345.4678">
			<stop  offset="0" style="stop-color:#858585"/>
			<stop  offset="0.5" style="stop-color:#FFFFFF"/>
			<stop  offset="1" style="stop-color:#858585"/>
		</linearGradient>
		<path fill="url(#SVGID_18_)" d="M602.602,345.468"/>
		<linearGradient id="SVGID_19_" gradientUnits="userSpaceOnUse" x1="612.5254" y1="323.4863" x2="612.5254" y2="345.1736">
			<stop  offset="0" style="stop-color:#858585"/>
			<stop  offset="0.5" style="stop-color:#FFFFFF"/>
			<stop  offset="1" style="stop-color:#858585"/>
		</linearGradient>
		<polygon fill="url(#SVGID_19_)" points="622.449,345.433 622.449,323.463 602.602,334.446 		"/>
		<linearGradient id="SVGID_20_" gradientUnits="userSpaceOnUse" x1="592.6777" y1="323.4863" x2="592.6777" y2="345.1736">
			<stop  offset="0" style="stop-color:#858585"/>
			<stop  offset="0.5" style="stop-color:#FFFFFF"/>
			<stop  offset="1" style="stop-color:#858585"/>
		</linearGradient>
		<polygon fill="url(#SVGID_20_)" points="582.754,323.463 582.754,345.433 602.602,334.446 		"/>
	</g>
	<g opacity="0.4">
		<path fill="none" stroke="#000000" stroke-width="0.6" stroke-miterlimit="10" d="M602.602,334.414"/>
		<path fill="none" stroke="#000000" stroke-width="0.6" stroke-miterlimit="10" d="M602.602,345.468"/>
		<path d="M621.85,324.48v19.935l-18.009-9.969L621.85,324.48 M622.449,323.463l-19.848,10.983l19.848,10.986V323.463
			L622.449,323.463z"/>
		<path d="M583.354,324.48l18.009,9.966l-18.009,9.969V324.48 M582.754,323.463v21.97l19.848-10.986L582.754,323.463
			L582.754,323.463z"/>
	</g>
</g>
<g>
	<radialGradient id="SVGID_21_" cx="808.8223" cy="226.6055" r="24.4697" gradientUnits="userSpaceOnUse">
		<stop  offset="0" style="stop-color:#FFFFFF"/>
		<stop  offset="1" style="stop-color:#858585"/>
	</radialGradient>
	<path fill="url(#SVGID_21_)" d="M810.248,247.846v-15.556h12.082v-0.004c0-8.309-6.143-15.054-13.725-15.054
		c-7.586,0-13.732,6.745-13.732,15.054v0.004h12.084v15.556H810.248z"/>
	<path opacity="0.4" d="M808.605,217.833c7.055,0,12.826,6.161,13.113,13.858h-11.471h-0.6v0.6v15.525h-2.092v-15.525v-0.6h-0.6
		h-11.473C795.77,223.996,801.545,217.833,808.605,217.833 M808.605,217.233c-7.586,0-13.732,6.745-13.732,15.054v0.004h12.084
		v15.556h3.291v-15.556h12.082v-0.004C822.33,223.978,816.188,217.233,808.605,217.233L808.605,217.233z"/>
	<g>
		<linearGradient id="SVGID_22_" gradientUnits="userSpaceOnUse" x1="808.6016" y1="247.813" x2="808.6016" y2="247.813">
			<stop  offset="0" style="stop-color:#858585"/>
			<stop  offset="0.5" style="stop-color:#FFFFFF"/>
			<stop  offset="1" style="stop-color:#858585"/>
		</linearGradient>
		<path fill="url(#SVGID_22_)" d="M808.602,247.813"/>
		<linearGradient id="SVGID_23_" gradientUnits="userSpaceOnUse" x1="808.6016" y1="258.8667" x2="808.6016" y2="258.8667">
			<stop  offset="0" style="stop-color:#858585"/>
			<stop  offset="0.5" style="stop-color:#FFFFFF"/>
			<stop  offset="1" style="stop-color:#858585"/>
		</linearGradient>
		<path fill="url(#SVGID_23_)" d="M808.602,258.867"/>
		<linearGradient id="SVGID_24_" gradientUnits="userSpaceOnUse" x1="818.5254" y1="236.8853" x2="818.5254" y2="258.5726">
			<stop  offset="0" style="stop-color:#858585"/>
			<stop  offset="0.5" style="stop-color:#FFFFFF"/>
			<stop  offset="1" style="stop-color:#858585"/>
		</linearGradient>
		<polygon fill="url(#SVGID_24_)" points="828.449,258.832 828.449,236.862 808.602,247.845 		"/>
		<linearGradient id="SVGID_25_" gradientUnits="userSpaceOnUse" x1="798.6777" y1="236.8853" x2="798.6777" y2="258.5726">
			<stop  offset="0" style="stop-color:#858585"/>
			<stop  offset="0.5" style="stop-color:#FFFFFF"/>
			<stop  offset="1" style="stop-color:#858585"/>
		</linearGradient>
		<polygon fill="url(#SVGID_25_)" points="788.754,236.862 788.754,258.832 808.602,247.845 		"/>
	</g>
	<g opacity="0.4">
		<path fill="none" stroke="#000000" stroke-width="0.6" stroke-miterlimit="10" d="M808.602,247.813"/>
		<path fill="none" stroke="#000000" stroke-width="0.6" stroke-miterlimit="10" d="M808.602,258.867"/>
		<path d="M827.85,237.879v19.934l-18.009-9.968L827.85,237.879 M828.449,236.862l-19.848,10.983l19.848,10.986V236.862
			L828.449,236.862z"/>
		<path d="M789.354,237.879l18.009,9.966l-18.009,9.968V237.879 M788.754,236.862v21.97l19.848-10.986L788.754,236.862
			L788.754,236.862z"/>
	</g>
</g>
</svg>
