<?xml version="1.0" encoding="utf-8"?>
<!-- Generator: Adobe Illustrator 15.0.0, SVG Export Plug-In . SVG Version: 6.00 Build 0)  -->
<!DOCTYPE svg PUBLIC "-//W3C//DTD SVG 1.1//EN" "http://www.w3.org/Graphics/SVG/1.1/DTD/svg11.dtd">
<svg version="1.1" id="Layer_1" xmlns="http://www.w3.org/2000/svg" xmlns:xlink="http://www.w3.org/1999/xlink" x="0px" y="0px"
	 width="1200px" height="600px" viewBox="-90 0 1200 600" enable-background="new -90 0 1200 600" xml:space="preserve">
<polygon fill="#EDEDED" stroke="#9E9E9E" stroke-miterlimit="10" points="145.604,141.189 96.346,141.189 96.346,135.189 
	139.604,135.189 139.604,111.737 145.604,111.737 "/>
<polygon fill="#EDEDED" stroke="#9E9E9E" stroke-miterlimit="10" points="546.188,66.396 540.188,66.396 540.188,34.288 
	186.479,34.288 186.479,55.638 180.479,55.638 180.479,28.288 546.188,28.288 "/>
<polygon fill="#EDEDED" stroke="#9E9E9E" stroke-miterlimit="10" points="516.929,377.054 510.929,377.054 510.929,326.7 
	237.274,326.7 237.274,137.833 367.205,137.833 367.205,143.833 243.274,143.833 243.274,320.7 516.929,320.7 "/>
<polygon fill="#EDEDED" stroke="#9E9E9E" stroke-miterlimit="10" points="265.648,377.054 259.648,377.054 259.648,204.956 
	367.205,204.956 367.205,210.956 265.648,210.956 "/>
<polygon fill="#EDEDED" stroke="#9E9E9E" stroke-miterlimit="10" points="572.004,377.054 566.004,377.054 566.004,324.571 
	778.559,324.571 778.559,210.956 718.309,210.956 718.309,204.956 784.559,204.956 784.559,330.571 572.004,330.571 "/>
<polygon fill="#EDEDED" stroke="#9E9E9E" stroke-miterlimit="10" points="844.367,318.523 540.188,318.523 540.188,277.659 
	546.188,277.659 546.188,312.523 838.367,312.523 838.367,242.389 929.991,242.389 929.991,256.576 923.991,256.576 
	923.991,248.389 844.367,248.389 "/>
<polygon fill="#EDEDED" stroke="#9E9E9E" stroke-miterlimit="10" points="863.729,304.505 857.729,304.505 857.729,254.943 
	984.484,254.943 984.484,302.139 978.484,302.139 978.484,260.943 863.729,260.943 "/>
<polygon fill="#EDEDED" stroke="#9E9E9E" stroke-miterlimit="10" points="812.526,380.926 806.526,380.926 806.526,143.833 
	717.447,143.833 717.447,137.833 812.526,137.833 "/>
<polygon fill="#EDEDED" stroke="#9E9E9E" stroke-miterlimit="10" points="750.997,383.077 744.997,383.077 744.997,304.755 
	714.447,304.755 714.447,37.567 720.447,37.567 720.447,298.755 750.997,298.755 "/>
<polygon fill="#EDEDED" stroke="#9E9E9E" stroke-miterlimit="10" points="327.179,380.926 321.179,380.926 321.179,296.174 
	364.205,296.174 364.205,111.737 370.205,111.737 370.205,302.174 327.179,302.174 "/>
<path fill="#EDEDED" stroke="#9E9E9E" stroke-miterlimit="10" d="M696.218,278.724H389.992V63.396h306.226V278.724z
	 M395.992,272.724h294.226V69.396H395.992V272.724z"/>
<polygon fill="#EDEDED" stroke="#9E9E9E" stroke-miterlimit="10" points="942.268,559.187 690.218,559.187 690.218,542.642 
	696.218,542.642 696.218,553.187 936.268,553.187 936.268,413.628 942.268,413.628 "/>
<rect x="536.963" y="513.297" fill="#EDEDED" stroke="#9E9E9E" stroke-miterlimit="10" width="6" height="27.088"/>
<polygon fill="#EDEDED" stroke="#9E9E9E" stroke-miterlimit="10" points="781.244,543.385 287.143,543.385 287.143,510.287 
	293.143,510.287 293.143,537.385 775.244,537.385 775.244,510.287 781.244,510.287 "/>
<polygon fill="#EDEDED" stroke="#9E9E9E" stroke-miterlimit="10" points="323.763,513.287 259.648,513.287 259.648,494.485 
	265.648,494.485 265.648,507.287 317.763,507.287 317.763,494.485 323.763,494.485 "/>
<polygon fill="#EDEDED" stroke="#9E9E9E" stroke-miterlimit="10" points="571.304,514.749 509.946,514.749 509.946,495.733 
	515.946,495.733 515.946,508.749 565.304,508.749 565.304,496.952 571.304,496.952 "/>
<polygon fill="#EDEDED" stroke="#9E9E9E" stroke-miterlimit="10" points="809.442,513.287 748.086,513.287 748.086,494.515 
	754.086,494.515 754.086,507.287 803.442,507.287 803.442,494.515 809.442,494.515 "/>
<polygon fill="#EDEDED" stroke="#9E9E9E" stroke-miterlimit="10" points="402.5,554.5 148.3,554.5 148.3,511.749 154.3,511.749 
	154.3,548.5 396.5,548.5 396.5,485.5 510,485.5 510,491.5 402.5,491.5 "/>
<g>
	<g>
		
			<linearGradient id="SVGID_1_" gradientUnits="userSpaceOnUse" x1="510.3979" y1="579.9531" x2="510.3979" y2="597.9002" gradientTransform="matrix(-1 0 0 -1 857.8125 697.3574)">
			<stop  offset="0" style="stop-color:#917887"/>
			<stop  offset="0.1455" style="stop-color:#C4B3BD"/>
			<stop  offset="0.5" style="stop-color:#FFFFFF"/>
			<stop  offset="0.8485" style="stop-color:#C4B3BD"/>
			<stop  offset="1" style="stop-color:#917887"/>
		</linearGradient>
		<path fill="url(#SVGID_1_)" d="M354.213,108.489c0,4.945-3.042,8.955-6.794,8.955c-3.755,0-6.802-4.01-6.802-8.955
			c0-4.95,3.047-8.96,6.802-8.96C351.171,99.529,354.213,103.539,354.213,108.489z"/>
		<g opacity="0.5">
			<path fill="#231F20" d="M347.419,100.129c3.416,0,6.194,3.75,6.194,8.36c0,4.607-2.778,8.355-6.194,8.355
				c-3.419,0-6.202-3.748-6.202-8.355C341.217,103.879,344,100.129,347.419,100.129 M347.419,99.529c-3.755,0-6.802,4.01-6.802,8.96
				c0,4.945,3.047,8.955,6.802,8.955c3.752,0,6.794-4.01,6.794-8.955C354.213,103.539,351.171,99.529,347.419,99.529L347.419,99.529
				z"/>
		</g>
		
			<linearGradient id="SVGID_2_" gradientUnits="userSpaceOnUse" x1="479.5205" y1="579.834" x2="479.5205" y2="597.955" gradientTransform="matrix(-1 0 0 -1 857.8125 697.3574)">
			<stop  offset="0" style="stop-color:#917887"/>
			<stop  offset="0.1455" style="stop-color:#C4B3BD"/>
			<stop  offset="0.5" style="stop-color:#FFFFFF"/>
			<stop  offset="0.8485" style="stop-color:#C4B3BD"/>
			<stop  offset="1" style="stop-color:#917887"/>
		</linearGradient>
		<rect x="347.009" y="99.529" fill="url(#SVGID_2_)" width="62.567" height="17.915"/>
		<g opacity="0.5">
			<path fill="#231F20" d="M408.976,100.129v16.715h-61.367v-16.715H408.976 M409.576,99.529h-62.567v17.915h62.567V99.529
				L409.576,99.529z"/>
		</g>
	</g>
	<g>
		
			<linearGradient id="SVGID_3_" gradientUnits="userSpaceOnUse" x1="464.9141" y1="576.8799" x2="464.9141" y2="601.4963" gradientTransform="matrix(-1 0 0 -1 857.8125 697.3574)">
			<stop  offset="0" style="stop-color:#917887"/>
			<stop  offset="0.1455" style="stop-color:#C4B3BD"/>
			<stop  offset="0.5" style="stop-color:#FFFFFF"/>
			<stop  offset="0.8485" style="stop-color:#C4B3BD"/>
			<stop  offset="1" style="stop-color:#917887"/>
		</linearGradient>
		<rect x="388.192" y="95.617" fill="url(#SVGID_3_)" width="9.413" height="24.957"/>
		<g opacity="0.5">
			<path fill="#231F20" d="M397.005,96.217v23.757h-8.213V96.217H397.005 M397.605,95.617h-9.413v24.957h9.413V95.617
				L397.605,95.617z"/>
		</g>
	</g>
</g>
<g>
	<g>
		<path d="M362.441,112.527l-1.354-0.001l0.002-3.47l-3.497-0.002l-0.002,3.47h-1.359l0.004-7.82h1.359l-0.002,3.255l3.497,0.002
			l0.002-3.255l1.354,0.001L362.441,112.527z"/>
		<path d="M369.545,105.807l-2.438-0.002l-0.003,6.725h-1.348l0.003-6.725l-2.417-0.002l0.001-1.096l6.204,0.004L369.545,105.807z"
			/>
		<path d="M373.442,109.525l-1.515-0.001l-0.001,3.008l-1.359-0.001l0.004-7.82l2.75,0.002c0.902,0,1.598,0.203,2.089,0.608
			c0.49,0.405,0.735,0.991,0.735,1.758c0,0.523-0.127,0.961-0.379,1.314c-0.253,0.353-0.605,0.624-1.056,0.813l1.754,3.258v0.069
			h-1.456L373.442,109.525z M371.929,108.429l1.396,0.001c0.458,0,0.816-0.115,1.074-0.347c0.258-0.23,0.387-0.547,0.387-0.948
			c0-0.418-0.119-0.742-0.357-0.972c-0.238-0.229-0.593-0.348-1.066-0.354l-1.434-0.001L371.929,108.429z"/>
		<path d="M385.061,109.246c0,1.125-0.211,1.973-0.633,2.543c-0.42,0.571-1.061,0.856-1.92,0.855c-0.845,0-1.481-0.278-1.909-0.836
			c-0.428-0.557-0.646-1.382-0.657-2.474l0-1.354c0-1.124,0.211-1.968,0.632-2.529s1.063-0.843,1.926-0.843
			c0.856,0.001,1.494,0.274,1.915,0.823c0.42,0.548,0.635,1.368,0.646,2.46L385.061,109.246z M383.756,107.784
			c0-0.733-0.099-1.271-0.3-1.613s-0.519-0.514-0.956-0.515c-0.426,0-0.74,0.162-0.94,0.486s-0.307,0.83-0.318,1.518l0,1.772
			c0,0.73,0.101,1.274,0.305,1.633c0.204,0.358,0.524,0.537,0.961,0.537c0.419,0.001,0.729-0.165,0.93-0.496
			c0.201-0.331,0.307-0.85,0.317-1.555L383.756,107.784z"/>
		<path d="M387.725,108.034l0.795,0.001c0.401-0.004,0.719-0.107,0.954-0.313c0.235-0.203,0.352-0.499,0.352-0.886
			c0-0.372-0.097-0.661-0.292-0.867c-0.195-0.206-0.493-0.31-0.894-0.31c-0.351-0.001-0.64,0.101-0.865,0.303
			s-0.338,0.467-0.339,0.792l-1.305-0.001c0-0.4,0.107-0.766,0.32-1.095s0.511-0.586,0.892-0.771
			c0.382-0.185,0.809-0.276,1.282-0.275c0.781,0,1.393,0.196,1.839,0.589c0.445,0.393,0.668,0.938,0.667,1.636
			c0,0.351-0.112,0.682-0.336,0.991s-0.513,0.543-0.868,0.7c0.429,0.147,0.756,0.378,0.979,0.693s0.335,0.691,0.335,1.128
			c0,0.702-0.242,1.261-0.724,1.676c-0.482,0.414-1.115,0.622-1.899,0.622c-0.752-0.001-1.368-0.201-1.847-0.603
			c-0.48-0.402-0.719-0.936-0.719-1.602l1.305,0.001c0,0.344,0.115,0.623,0.346,0.838c0.231,0.215,0.542,0.322,0.932,0.323
			c0.405,0,0.723-0.107,0.957-0.322c0.233-0.215,0.349-0.526,0.35-0.935c0-0.412-0.122-0.729-0.365-0.951
			c-0.244-0.222-0.605-0.332-1.085-0.332l-0.768-0.001L387.725,108.034z"/>
		<path d="M397.053,110.725l-3.029-0.002l-0.635,1.82l-1.413-0.001l2.958-7.818l1.219,0.001l2.955,7.821l-1.418-0.001
			L397.053,110.725z M394.406,109.628l2.267,0.001l-1.131-3.245L394.406,109.628z"/>
	</g>
</g>
<g>
	<linearGradient id="SVGID_4_" gradientUnits="userSpaceOnUse" x1="158.7422" y1="72.7598" x2="164.9824" y2="72.7598">
		<stop  offset="0" style="stop-color:#C9C4D9"/>
		<stop  offset="0.5" style="stop-color:#FFFFFF"/>
		<stop  offset="1" style="stop-color:#C9C4D9"/>
	</linearGradient>
	<polyline fill="url(#SVGID_4_)" points="158.742,62.907 158.742,82.612 158.742,82.612 158.742,82.612 164.982,82.612 
		164.982,82.612 164.982,82.612 164.982,62.907 	"/>
	
		<line fill="none" stroke="#231F20" stroke-width="0.6" stroke-linecap="round" stroke-linejoin="round" stroke-miterlimit="10" x1="164.96" y1="62.481" x2="158.72" y2="62.481"/>
	
		<line fill="none" stroke="#231F20" stroke-width="0.6" stroke-linecap="round" stroke-linejoin="round" stroke-miterlimit="10" x1="158.673" y1="83.007" x2="164.913" y2="83.007"/>
	
		<line fill="none" stroke="#231F20" stroke-width="0.6" stroke-linecap="round" stroke-linejoin="round" stroke-miterlimit="10" x1="164.982" y1="82.612" x2="164.982" y2="62.907"/>
	
		<line fill="none" stroke="#231F20" stroke-width="0.6" stroke-linecap="round" stroke-linejoin="round" stroke-miterlimit="10" x1="158.742" y1="62.907" x2="158.742" y2="82.612"/>
</g>
<g>
	<linearGradient id="SVGID_5_" gradientUnits="userSpaceOnUse" x1="195.8662" y1="72.7598" x2="202.1064" y2="72.7598">
		<stop  offset="0" style="stop-color:#C9C4D9"/>
		<stop  offset="0.5" style="stop-color:#FFFFFF"/>
		<stop  offset="1" style="stop-color:#C9C4D9"/>
	</linearGradient>
	<polyline fill="url(#SVGID_5_)" points="195.866,62.907 195.866,82.612 195.866,82.612 195.866,82.612 202.106,82.612 
		202.106,82.612 202.106,82.612 202.106,62.907 	"/>
	
		<line fill="none" stroke="#231F20" stroke-width="0.6" stroke-linecap="round" stroke-linejoin="round" stroke-miterlimit="10" x1="202.084" y1="62.481" x2="195.844" y2="62.481"/>
	
		<line fill="none" stroke="#231F20" stroke-width="0.6" stroke-linecap="round" stroke-linejoin="round" stroke-miterlimit="10" x1="195.797" y1="83.007" x2="202.037" y2="83.007"/>
	
		<line fill="none" stroke="#231F20" stroke-width="0.6" stroke-linecap="round" stroke-linejoin="round" stroke-miterlimit="10" x1="202.106" y1="82.612" x2="202.106" y2="62.907"/>
	
		<line fill="none" stroke="#231F20" stroke-width="0.6" stroke-linecap="round" stroke-linejoin="round" stroke-miterlimit="10" x1="195.866" y1="62.907" x2="195.866" y2="82.612"/>
</g>
<g>
	<g>
		<g>
			
				<linearGradient id="SVGID_6_" gradientUnits="userSpaceOnUse" x1="510.3979" y1="515.3574" x2="510.3979" y2="533.3045" gradientTransform="matrix(-1 0 0 -1 857.8125 697.3574)">
				<stop  offset="0" style="stop-color:#917887"/>
				<stop  offset="0.1455" style="stop-color:#C4B3BD"/>
				<stop  offset="0.5" style="stop-color:#FFFFFF"/>
				<stop  offset="0.8485" style="stop-color:#C4B3BD"/>
				<stop  offset="1" style="stop-color:#917887"/>
			</linearGradient>
			<path fill="url(#SVGID_6_)" d="M354.213,173.084c0,4.945-3.042,8.955-6.794,8.955c-3.755,0-6.802-4.01-6.802-8.955
				c0-4.95,3.047-8.96,6.802-8.96C351.171,164.125,354.213,168.134,354.213,173.084z"/>
			<g opacity="0.5">
				<path fill="#231F20" d="M347.419,164.725c3.416,0,6.194,3.75,6.194,8.36c0,4.607-2.778,8.355-6.194,8.355
					c-3.419,0-6.202-3.748-6.202-8.355C341.217,168.475,344,164.725,347.419,164.725 M347.419,164.125
					c-3.755,0-6.802,4.01-6.802,8.96c0,4.945,3.047,8.955,6.802,8.955c3.752,0,6.794-4.01,6.794-8.955
					C354.213,168.134,351.171,164.125,347.419,164.125L347.419,164.125z"/>
			</g>
			
				<linearGradient id="SVGID_7_" gradientUnits="userSpaceOnUse" x1="479.5205" y1="515.2383" x2="479.5205" y2="533.3593" gradientTransform="matrix(-1 0 0 -1 857.8125 697.3574)">
				<stop  offset="0" style="stop-color:#917887"/>
				<stop  offset="0.1455" style="stop-color:#C4B3BD"/>
				<stop  offset="0.5" style="stop-color:#FFFFFF"/>
				<stop  offset="0.8485" style="stop-color:#C4B3BD"/>
				<stop  offset="1" style="stop-color:#917887"/>
			</linearGradient>
			<rect x="347.009" y="164.125" fill="url(#SVGID_7_)" width="62.567" height="17.915"/>
			<g opacity="0.5">
				<path fill="#231F20" d="M408.976,164.725v16.715h-61.367v-16.715H408.976 M409.576,164.125h-62.567v17.915h62.567V164.125
					L409.576,164.125z"/>
			</g>
		</g>
		<g>
			
				<linearGradient id="SVGID_8_" gradientUnits="userSpaceOnUse" x1="464.9141" y1="512.2842" x2="464.9141" y2="536.9006" gradientTransform="matrix(-1 0 0 -1 857.8125 697.3574)">
				<stop  offset="0" style="stop-color:#917887"/>
				<stop  offset="0.1455" style="stop-color:#C4B3BD"/>
				<stop  offset="0.5" style="stop-color:#FFFFFF"/>
				<stop  offset="0.8485" style="stop-color:#C4B3BD"/>
				<stop  offset="1" style="stop-color:#917887"/>
			</linearGradient>
			<rect x="388.192" y="160.212" fill="url(#SVGID_8_)" width="9.413" height="24.957"/>
			<g opacity="0.5">
				<path fill="#231F20" d="M397.005,160.813v23.757h-8.213v-23.757H397.005 M397.605,160.212h-9.413v24.957h9.413V160.212
					L397.605,160.212z"/>
			</g>
		</g>
	</g>
	<g>
		<g>
			<path d="M362.441,177.123l-1.354-0.001l0.002-3.47l-3.497-0.002l-0.002,3.47h-1.359l0.004-7.82h1.359l-0.002,3.255l3.497,0.002
				l0.002-3.255l1.354,0.001L362.441,177.123z"/>
			<path d="M369.545,170.402l-2.438-0.002l-0.003,6.725h-1.348l0.003-6.725l-2.417-0.002l0.001-1.096l6.204,0.004L369.545,170.402z"
				/>
			<path d="M373.442,174.121l-1.515-0.001l-0.001,3.008l-1.359-0.001l0.004-7.82l2.75,0.002c0.902,0,1.598,0.203,2.089,0.608
				c0.49,0.405,0.735,0.991,0.735,1.758c0,0.523-0.127,0.961-0.379,1.314c-0.253,0.353-0.605,0.624-1.056,0.813l1.754,3.258v0.069
				h-1.456L373.442,174.121z M371.929,173.024l1.396,0.001c0.458,0,0.816-0.115,1.074-0.347c0.258-0.23,0.387-0.547,0.387-0.948
				c0-0.418-0.119-0.742-0.357-0.972c-0.238-0.229-0.593-0.348-1.066-0.354l-1.434-0.001L371.929,173.024z"/>
			<path d="M385.061,173.842c0,1.125-0.211,1.973-0.633,2.543c-0.42,0.571-1.061,0.856-1.92,0.855c-0.845,0-1.481-0.278-1.909-0.836
				c-0.428-0.557-0.646-1.382-0.657-2.474l0-1.354c0-1.124,0.211-1.968,0.632-2.529s1.063-0.843,1.926-0.843
				c0.856,0.001,1.494,0.274,1.915,0.823c0.42,0.548,0.635,1.368,0.646,2.46L385.061,173.842z M383.756,172.38
				c0-0.733-0.099-1.271-0.3-1.613s-0.519-0.514-0.956-0.515c-0.426,0-0.74,0.162-0.94,0.486s-0.307,0.83-0.318,1.518l0,1.772
				c0,0.73,0.101,1.274,0.305,1.633c0.204,0.358,0.524,0.537,0.961,0.537c0.419,0.001,0.729-0.165,0.93-0.496
				c0.201-0.331,0.307-0.85,0.317-1.555L383.756,172.38z"/>
			<path d="M391.472,177.138l-5.258-0.003l0-0.896l2.606-2.84c0.376-0.419,0.644-0.769,0.804-1.05s0.239-0.563,0.239-0.847
				c0-0.372-0.104-0.673-0.313-0.902c-0.21-0.229-0.491-0.344-0.846-0.344c-0.422-0.001-0.75,0.128-0.983,0.386
				s-0.35,0.611-0.35,1.059l-1.305-0.001c0-0.477,0.109-0.905,0.326-1.285c0.217-0.382,0.527-0.678,0.929-0.89
				c0.404-0.211,0.868-0.316,1.395-0.315c0.759,0,1.357,0.19,1.796,0.573c0.439,0.381,0.658,0.908,0.657,1.582
				c0,0.39-0.11,0.799-0.331,1.227c-0.221,0.428-0.582,0.914-1.083,1.458l-1.914,2.045l3.631,0.002L391.472,177.138z"/>
			<path d="M397.053,175.32l-3.029-0.002l-0.635,1.82l-1.413-0.001l2.958-7.818l1.219,0.001l2.955,7.821l-1.418-0.001
				L397.053,175.32z M394.406,174.224l2.267,0.001l-1.131-3.245L394.406,174.224z"/>
		</g>
	</g>
</g>
<g>
	<g>
		<g>
			
				<linearGradient id="SVGID_9_" gradientUnits="userSpaceOnUse" x1="510.3979" y1="450.5322" x2="510.3979" y2="468.4793" gradientTransform="matrix(-1 0 0 -1 857.8125 697.3574)">
				<stop  offset="0" style="stop-color:#917887"/>
				<stop  offset="0.1455" style="stop-color:#C4B3BD"/>
				<stop  offset="0.5" style="stop-color:#FFFFFF"/>
				<stop  offset="0.8485" style="stop-color:#C4B3BD"/>
				<stop  offset="1" style="stop-color:#917887"/>
			</linearGradient>
			<path fill="url(#SVGID_9_)" d="M354.213,237.909c0,4.945-3.042,8.955-6.794,8.955c-3.755,0-6.802-4.01-6.802-8.955
				c0-4.95,3.047-8.96,6.802-8.96C351.171,228.949,354.213,232.959,354.213,237.909z"/>
			<g opacity="0.5">
				<path fill="#231F20" d="M347.419,229.549c3.416,0,6.194,3.75,6.194,8.36c0,4.607-2.778,8.355-6.194,8.355
					c-3.419,0-6.202-3.748-6.202-8.355C341.217,233.299,344,229.549,347.419,229.549 M347.419,228.949
					c-3.755,0-6.802,4.01-6.802,8.96c0,4.945,3.047,8.955,6.802,8.955c3.752,0,6.794-4.01,6.794-8.955
					C354.213,232.959,351.171,228.949,347.419,228.949L347.419,228.949z"/>
			</g>
			
				<linearGradient id="SVGID_10_" gradientUnits="userSpaceOnUse" x1="479.5205" y1="450.4131" x2="479.5205" y2="468.5341" gradientTransform="matrix(-1 0 0 -1 857.8125 697.3574)">
				<stop  offset="0" style="stop-color:#917887"/>
				<stop  offset="0.1455" style="stop-color:#C4B3BD"/>
				<stop  offset="0.5" style="stop-color:#FFFFFF"/>
				<stop  offset="0.8485" style="stop-color:#C4B3BD"/>
				<stop  offset="1" style="stop-color:#917887"/>
			</linearGradient>
			<rect x="347.009" y="228.949" fill="url(#SVGID_10_)" width="62.567" height="17.915"/>
			<g opacity="0.5">
				<path fill="#231F20" d="M408.976,229.549v16.715h-61.367v-16.715H408.976 M409.576,228.949h-62.567v17.915h62.567V228.949
					L409.576,228.949z"/>
			</g>
		</g>
		<g>
			
				<linearGradient id="SVGID_11_" gradientUnits="userSpaceOnUse" x1="464.9141" y1="447.459" x2="464.9141" y2="472.0754" gradientTransform="matrix(-1 0 0 -1 857.8125 697.3574)">
				<stop  offset="0" style="stop-color:#917887"/>
				<stop  offset="0.1455" style="stop-color:#C4B3BD"/>
				<stop  offset="0.5" style="stop-color:#FFFFFF"/>
				<stop  offset="0.8485" style="stop-color:#C4B3BD"/>
				<stop  offset="1" style="stop-color:#917887"/>
			</linearGradient>
			<rect x="388.192" y="225.037" fill="url(#SVGID_11_)" width="9.413" height="24.957"/>
			<g opacity="0.5">
				<path fill="#231F20" d="M397.005,225.637v23.757h-8.213v-23.757H397.005 M397.605,225.037h-9.413v24.957h9.413V225.037
					L397.605,225.037z"/>
			</g>
		</g>
	</g>
	<g>
		<g>
			<path d="M362.441,241.947l-1.354-0.001l0.002-3.47l-3.497-0.002l-0.002,3.47h-1.359l0.004-7.82h1.359l-0.002,3.255l3.497,0.002
				l0.002-3.255l1.354,0.001L362.441,241.947z"/>
			<path d="M369.545,235.227l-2.438-0.002l-0.003,6.725h-1.348l0.003-6.725l-2.417-0.002l0.001-1.096l6.204,0.004L369.545,235.227z"
				/>
			<path d="M373.442,238.945l-1.515-0.001l-0.001,3.008l-1.359-0.001l0.004-7.82l2.75,0.002c0.902,0,1.598,0.203,2.089,0.608
				c0.49,0.405,0.735,0.991,0.735,1.758c0,0.523-0.127,0.961-0.379,1.314c-0.253,0.353-0.605,0.624-1.056,0.813l1.754,3.258v0.069
				h-1.456L373.442,238.945z M371.929,237.849l1.396,0.001c0.458,0,0.816-0.115,1.074-0.347c0.258-0.23,0.387-0.547,0.387-0.948
				c0-0.418-0.119-0.742-0.357-0.972c-0.238-0.229-0.593-0.348-1.066-0.354l-1.434-0.001L371.929,237.849z"/>
			<path d="M385.061,238.666c0,1.125-0.211,1.973-0.633,2.543c-0.42,0.571-1.061,0.856-1.92,0.855c-0.845,0-1.481-0.278-1.909-0.836
				c-0.428-0.557-0.646-1.382-0.657-2.474l0-1.354c0-1.124,0.211-1.968,0.632-2.529s1.063-0.843,1.926-0.843
				c0.856,0.001,1.494,0.274,1.915,0.823c0.42,0.548,0.635,1.368,0.646,2.46L385.061,238.666z M383.756,237.204
				c0-0.733-0.099-1.271-0.3-1.613s-0.519-0.514-0.956-0.515c-0.426,0-0.74,0.162-0.94,0.486s-0.307,0.83-0.318,1.518l0,1.772
				c0,0.73,0.101,1.274,0.305,1.633c0.204,0.358,0.524,0.537,0.961,0.537c0.419,0.001,0.729-0.165,0.93-0.496
				c0.201-0.331,0.307-0.85,0.317-1.555L383.756,237.204z"/>
			<path d="M389.748,241.961h-1.3l0.003-6.282l-1.918,0.652l0-1.096l3.052-1.122h0.167L389.748,241.961z"/>
			<path d="M397.053,240.145l-3.029-0.002l-0.635,1.82l-1.413-0.001l2.958-7.818l1.219,0.001l2.955,7.821l-1.418-0.001
				L397.053,240.145z M394.406,239.048l2.267,0.001l-1.131-3.245L394.406,239.048z"/>
		</g>
	</g>
</g>
<g>
	<g>
		<g>
			
				<linearGradient id="SVGID_12_" gradientUnits="userSpaceOnUse" x1="706.0615" y1="426.2285" x2="706.0615" y2="444.1756" gradientTransform="matrix(1 0 0 1 32.3809 -197.7461)">
				<stop  offset="0" style="stop-color:#917887"/>
				<stop  offset="0.1455" style="stop-color:#C4B3BD"/>
				<stop  offset="0.5" style="stop-color:#FFFFFF"/>
				<stop  offset="0.8485" style="stop-color:#C4B3BD"/>
				<stop  offset="1" style="stop-color:#917887"/>
			</linearGradient>
			<path fill="url(#SVGID_12_)" d="M731.645,237.398c0-4.945,3.041-8.955,6.793-8.955c3.756,0,6.803,4.01,6.803,8.955
				c0,4.95-3.047,8.96-6.803,8.96C734.686,246.358,731.645,242.349,731.645,237.398z"/>
			<g opacity="0.5">
				<path fill="#231F20" d="M738.438,229.043c3.42,0,6.202,3.748,6.202,8.355c0,4.609-2.782,8.36-6.202,8.36
					c-3.415,0-6.193-3.751-6.193-8.36C732.244,232.791,735.022,229.043,738.438,229.043 M738.438,228.443
					c-3.752,0-6.793,4.01-6.793,8.955c0,4.95,3.041,8.96,6.793,8.96c3.756,0,6.803-4.01,6.803-8.96
					C745.24,232.453,742.193,228.443,738.438,228.443L738.438,228.443z"/>
			</g>
			
				<linearGradient id="SVGID_13_" gradientUnits="userSpaceOnUse" x1="675.1836" y1="426.1094" x2="675.1836" y2="444.2304" gradientTransform="matrix(1 0 0 1 32.3809 -197.7461)">
				<stop  offset="0" style="stop-color:#917887"/>
				<stop  offset="0.1455" style="stop-color:#C4B3BD"/>
				<stop  offset="0.5" style="stop-color:#FFFFFF"/>
				<stop  offset="0.8485" style="stop-color:#C4B3BD"/>
				<stop  offset="1" style="stop-color:#917887"/>
			</linearGradient>
			<rect x="676.281" y="228.443" fill="url(#SVGID_13_)" width="62.566" height="17.915"/>
			<g opacity="0.5">
				<path fill="#231F20" d="M738.248,229.043v16.716h-61.367v-16.716H738.248 M738.848,228.443h-62.566v17.915h62.566V228.443
					L738.848,228.443z"/>
			</g>
		</g>
		<g>
			
				<linearGradient id="SVGID_14_" gradientUnits="userSpaceOnUse" x1="660.5781" y1="423.1553" x2="660.5781" y2="447.7717" gradientTransform="matrix(1 0 0 1 32.3809 -197.7461)">
				<stop  offset="0" style="stop-color:#917887"/>
				<stop  offset="0.1455" style="stop-color:#C4B3BD"/>
				<stop  offset="0.5" style="stop-color:#FFFFFF"/>
				<stop  offset="0.8485" style="stop-color:#C4B3BD"/>
				<stop  offset="1" style="stop-color:#917887"/>
			</linearGradient>
			<rect x="688.252" y="225.313" fill="url(#SVGID_14_)" width="9.413" height="24.957"/>
			<g opacity="0.5">
				<path fill="#231F20" d="M697.064,225.913v23.758h-8.213v-23.758H697.064 M697.665,225.313h-9.413v24.957h9.413V225.313
					L697.665,225.313z"/>
			</g>
		</g>
	</g>
</g>
<g>
	<g>
		<g>
			
				<linearGradient id="SVGID_15_" gradientUnits="userSpaceOnUse" x1="706.0615" y1="361.6328" x2="706.0615" y2="379.5799" gradientTransform="matrix(1 0 0 1 32.3809 -197.7461)">
				<stop  offset="0" style="stop-color:#917887"/>
				<stop  offset="0.1455" style="stop-color:#C4B3BD"/>
				<stop  offset="0.5" style="stop-color:#FFFFFF"/>
				<stop  offset="0.8485" style="stop-color:#C4B3BD"/>
				<stop  offset="1" style="stop-color:#917887"/>
			</linearGradient>
			<path fill="url(#SVGID_15_)" d="M731.645,172.803c0-4.945,3.041-8.955,6.793-8.955c3.756,0,6.803,4.01,6.803,8.955
				c0,4.95-3.047,8.96-6.803,8.96C734.686,181.763,731.645,177.753,731.645,172.803z"/>
			<g opacity="0.5">
				<path fill="#231F20" d="M738.438,164.448c3.42,0,6.202,3.748,6.202,8.355c0,4.61-2.782,8.36-6.202,8.36
					c-3.415,0-6.193-3.75-6.193-8.36C732.244,168.196,735.022,164.448,738.438,164.448 M738.438,163.848
					c-3.752,0-6.793,4.01-6.793,8.955c0,4.95,3.041,8.96,6.793,8.96c3.756,0,6.803-4.01,6.803-8.96
					C745.24,167.857,742.193,163.848,738.438,163.848L738.438,163.848z"/>
			</g>
			
				<linearGradient id="SVGID_16_" gradientUnits="userSpaceOnUse" x1="675.1836" y1="361.5137" x2="675.1836" y2="379.6347" gradientTransform="matrix(1 0 0 1 32.3809 -197.7461)">
				<stop  offset="0" style="stop-color:#917887"/>
				<stop  offset="0.1455" style="stop-color:#C4B3BD"/>
				<stop  offset="0.5" style="stop-color:#FFFFFF"/>
				<stop  offset="0.8485" style="stop-color:#C4B3BD"/>
				<stop  offset="1" style="stop-color:#917887"/>
			</linearGradient>
			<rect x="676.281" y="163.848" fill="url(#SVGID_16_)" width="62.566" height="17.915"/>
			<g opacity="0.5">
				<path fill="#231F20" d="M738.248,164.448v16.715h-61.367v-16.715H738.248 M738.848,163.848h-62.566v17.915h62.566V163.848
					L738.848,163.848z"/>
			</g>
		</g>
		<g>
			
				<linearGradient id="SVGID_17_" gradientUnits="userSpaceOnUse" x1="660.5781" y1="358.5596" x2="660.5781" y2="383.176" gradientTransform="matrix(1 0 0 1 32.3809 -197.7461)">
				<stop  offset="0" style="stop-color:#917887"/>
				<stop  offset="0.1455" style="stop-color:#C4B3BD"/>
				<stop  offset="0.5" style="stop-color:#FFFFFF"/>
				<stop  offset="0.8485" style="stop-color:#C4B3BD"/>
				<stop  offset="1" style="stop-color:#917887"/>
			</linearGradient>
			<rect x="688.252" y="160.718" fill="url(#SVGID_17_)" width="9.413" height="24.957"/>
			<g opacity="0.5">
				<path fill="#231F20" d="M697.064,161.318v23.757h-8.213v-23.757H697.064 M697.665,160.718h-9.413v24.957h9.413V160.718
					L697.665,160.718z"/>
			</g>
		</g>
	</g>
</g>
<g>
	<g>
		<g>
			
				<linearGradient id="SVGID_18_" gradientUnits="userSpaceOnUse" x1="706.0615" y1="296.8086" x2="706.0615" y2="314.7557" gradientTransform="matrix(1 0 0 1 32.3809 -197.7461)">
				<stop  offset="0" style="stop-color:#917887"/>
				<stop  offset="0.1455" style="stop-color:#C4B3BD"/>
				<stop  offset="0.5" style="stop-color:#FFFFFF"/>
				<stop  offset="0.8485" style="stop-color:#C4B3BD"/>
				<stop  offset="1" style="stop-color:#917887"/>
			</linearGradient>
			<path fill="url(#SVGID_18_)" d="M731.645,107.978c0-4.945,3.041-8.955,6.793-8.955c3.756,0,6.803,4.01,6.803,8.955
				c0,4.95-3.047,8.96-6.803,8.96C734.686,116.938,731.645,112.928,731.645,107.978z"/>
			<g opacity="0.5">
				<path fill="#231F20" d="M738.438,99.623c3.42,0,6.202,3.748,6.202,8.355c0,4.61-2.782,8.36-6.202,8.36
					c-3.415,0-6.193-3.75-6.193-8.36C732.244,103.371,735.022,99.623,738.438,99.623 M738.438,99.023
					c-3.752,0-6.793,4.01-6.793,8.955c0,4.95,3.041,8.96,6.793,8.96c3.756,0,6.803-4.01,6.803-8.96
					C745.24,103.033,742.193,99.023,738.438,99.023L738.438,99.023z"/>
			</g>
			
				<linearGradient id="SVGID_19_" gradientUnits="userSpaceOnUse" x1="675.1836" y1="296.6885" x2="675.1836" y2="314.8095" gradientTransform="matrix(1 0 0 1 32.3809 -197.7461)">
				<stop  offset="0" style="stop-color:#917887"/>
				<stop  offset="0.1455" style="stop-color:#C4B3BD"/>
				<stop  offset="0.5" style="stop-color:#FFFFFF"/>
				<stop  offset="0.8485" style="stop-color:#C4B3BD"/>
				<stop  offset="1" style="stop-color:#917887"/>
			</linearGradient>
			<rect x="676.281" y="99.023" fill="url(#SVGID_19_)" width="62.566" height="17.915"/>
			<g opacity="0.5">
				<path fill="#231F20" d="M738.248,99.623v16.715h-61.367V99.623H738.248 M738.848,99.023h-62.566v17.915h62.566V99.023
					L738.848,99.023z"/>
			</g>
		</g>
		<g>
			
				<linearGradient id="SVGID_20_" gradientUnits="userSpaceOnUse" x1="660.5781" y1="293.7354" x2="660.5781" y2="318.3518" gradientTransform="matrix(1 0 0 1 32.3809 -197.7461)">
				<stop  offset="0" style="stop-color:#917887"/>
				<stop  offset="0.1455" style="stop-color:#C4B3BD"/>
				<stop  offset="0.5" style="stop-color:#FFFFFF"/>
				<stop  offset="0.8485" style="stop-color:#C4B3BD"/>
				<stop  offset="1" style="stop-color:#917887"/>
			</linearGradient>
			<rect x="688.252" y="95.893" fill="url(#SVGID_20_)" width="9.413" height="24.957"/>
			<g opacity="0.5">
				<path fill="#231F20" d="M697.064,96.493v23.757h-8.213V96.493H697.064 M697.665,95.893h-9.413v24.957h9.413V95.893
					L697.665,95.893z"/>
			</g>
		</g>
	</g>
</g>
<g>
	<g>
		<path d="M696.854,111.71l-1.354-0.001l0.002-3.47l-3.496-0.002l-0.002,3.47h-1.359l0.004-7.82h1.359l-0.002,3.255l3.496,0.002
			l0.002-3.255l1.354,0.001L696.854,111.71z"/>
		<path d="M703.957,104.989l-2.438-0.002l-0.004,6.725h-1.348l0.003-6.725l-2.417-0.002l0.001-1.096l6.204,0.004L703.957,104.989z"
			/>
		<path d="M707.855,108.708l-1.516-0.001l-0.001,3.008l-1.358-0.001l0.004-7.82l2.75,0.002c0.902,0,1.598,0.203,2.089,0.608
			c0.49,0.405,0.735,0.991,0.735,1.758c-0.001,0.523-0.127,0.961-0.379,1.314c-0.254,0.353-0.605,0.624-1.057,0.813l1.754,3.258
			v0.069h-1.455L707.855,108.708z M706.342,107.611l1.396,0.001c0.458,0,0.816-0.115,1.074-0.347
			c0.258-0.23,0.387-0.547,0.387-0.948c0-0.418-0.119-0.742-0.357-0.972c-0.237-0.229-0.593-0.348-1.065-0.354l-1.435-0.001V107.611
			z"/>
		<path d="M719.473,108.429c0,1.125-0.211,1.973-0.633,2.543c-0.42,0.571-1.061,0.856-1.92,0.855c-0.846,0-1.48-0.278-1.908-0.836
			c-0.428-0.557-0.646-1.382-0.657-2.474l0.001-1.354c0-1.124,0.211-1.968,0.632-2.529s1.063-0.843,1.927-0.843
			c0.855,0.001,1.493,0.274,1.914,0.823c0.42,0.548,0.635,1.368,0.646,2.46L719.473,108.429z M718.168,106.967
			c0.001-0.733-0.099-1.271-0.299-1.613c-0.201-0.342-0.52-0.514-0.956-0.515c-0.427,0-0.739,0.162-0.94,0.486
			s-0.307,0.83-0.318,1.518v1.772c0,0.73,0.102,1.274,0.305,1.633c0.204,0.358,0.524,0.537,0.961,0.537
			c0.42,0.001,0.729-0.165,0.93-0.496s0.307-0.85,0.318-1.555V106.967z"/>
		<path d="M722.138,107.217l0.795,0.001c0.401-0.004,0.719-0.107,0.954-0.313c0.234-0.203,0.352-0.499,0.352-0.886
			c0-0.372-0.098-0.661-0.293-0.867c-0.194-0.206-0.492-0.31-0.893-0.31c-0.352-0.001-0.641,0.101-0.865,0.303
			c-0.227,0.202-0.339,0.467-0.34,0.792l-1.305-0.001c0-0.4,0.107-0.766,0.32-1.095s0.511-0.586,0.892-0.771
			c0.382-0.185,0.81-0.276,1.282-0.275c0.78,0,1.393,0.196,1.839,0.589c0.445,0.393,0.668,0.938,0.667,1.636
			c0,0.351-0.111,0.682-0.336,0.991c-0.224,0.31-0.513,0.543-0.867,0.7c0.43,0.147,0.756,0.378,0.979,0.693s0.335,0.691,0.335,1.128
			c0,0.702-0.241,1.261-0.723,1.676c-0.482,0.414-1.115,0.622-1.899,0.622c-0.752-0.001-1.368-0.201-1.847-0.603
			c-0.48-0.402-0.72-0.936-0.719-1.602l1.305,0.001c0,0.344,0.115,0.623,0.346,0.838s0.541,0.322,0.932,0.323
			c0.404,0,0.723-0.107,0.957-0.322c0.232-0.215,0.349-0.526,0.35-0.935c0-0.412-0.122-0.729-0.365-0.951
			c-0.244-0.222-0.605-0.332-1.085-0.332l-0.769-0.001L722.138,107.217z"/>
		<path d="M727.088,111.726l0.004-7.82l2.68,0.001c0.885,0.001,1.558,0.179,2.02,0.532c0.462,0.355,0.692,0.884,0.691,1.586
			c0,0.358-0.096,0.681-0.29,0.966c-0.193,0.286-0.476,0.509-0.849,0.666c0.422,0.114,0.749,0.33,0.979,0.648
			c0.231,0.316,0.347,0.697,0.347,1.141c-0.001,0.734-0.236,1.299-0.707,1.691c-0.472,0.394-1.146,0.591-2.023,0.59L727.088,111.726
			z M728.448,108.196l-0.001,2.444l1.509,0.001c0.427,0.001,0.76-0.104,0.999-0.316c0.24-0.211,0.36-0.504,0.361-0.881
			c0-0.813-0.416-1.228-1.246-1.247L728.448,108.196z M728.449,107.198l1.332,0.001c0.422,0,0.752-0.096,0.99-0.287
			s0.357-0.463,0.357-0.813c0.001-0.387-0.109-0.666-0.33-0.838c-0.219-0.172-0.563-0.259-1.027-0.259l-1.322-0.001V107.198z"/>
	</g>
</g>
<g>
	<g>
		<path d="M696.854,176.71l-1.354-0.001l0.002-3.47l-3.496-0.002l-0.002,3.47h-1.359l0.004-7.82h1.359l-0.002,3.255l3.496,0.002
			l0.002-3.255l1.354,0.001L696.854,176.71z"/>
		<path d="M703.957,169.989l-2.438-0.002l-0.004,6.725h-1.348l0.003-6.725l-2.417-0.002l0.001-1.096l6.204,0.004L703.957,169.989z"
			/>
		<path d="M707.855,173.708l-1.516-0.001l-0.001,3.008l-1.358-0.001l0.004-7.82l2.75,0.002c0.902,0,1.598,0.203,2.089,0.608
			c0.49,0.405,0.735,0.991,0.735,1.758c-0.001,0.523-0.127,0.961-0.379,1.314c-0.254,0.353-0.605,0.624-1.057,0.813l1.754,3.258
			v0.069h-1.455L707.855,173.708z M706.342,172.611l1.396,0.001c0.458,0,0.816-0.115,1.074-0.347
			c0.258-0.23,0.387-0.547,0.387-0.948c0-0.418-0.119-0.742-0.357-0.972c-0.237-0.229-0.593-0.348-1.065-0.354l-1.435-0.001V172.611
			z"/>
		<path d="M719.473,173.429c0,1.125-0.211,1.973-0.633,2.543c-0.42,0.571-1.061,0.856-1.92,0.855c-0.846,0-1.48-0.278-1.908-0.836
			c-0.428-0.557-0.646-1.382-0.657-2.474l0.001-1.354c0-1.124,0.211-1.968,0.632-2.529s1.063-0.843,1.927-0.843
			c0.855,0.001,1.493,0.274,1.914,0.823c0.42,0.548,0.635,1.368,0.646,2.46L719.473,173.429z M718.168,171.967
			c0.001-0.733-0.099-1.271-0.299-1.613c-0.201-0.342-0.52-0.514-0.956-0.515c-0.427,0-0.739,0.162-0.94,0.486
			s-0.307,0.83-0.318,1.518v1.772c0,0.73,0.102,1.274,0.305,1.633c0.204,0.358,0.524,0.537,0.961,0.537
			c0.42,0.001,0.729-0.165,0.93-0.496s0.307-0.85,0.318-1.555V171.967z"/>
		<path d="M725.885,176.725l-5.259-0.003l0.001-0.896l2.605-2.84c0.377-0.419,0.645-0.769,0.805-1.05
			c0.159-0.281,0.238-0.563,0.238-0.847c0.001-0.372-0.104-0.673-0.313-0.902c-0.211-0.229-0.492-0.344-0.846-0.344
			c-0.423-0.001-0.751,0.128-0.984,0.386c-0.232,0.258-0.35,0.611-0.35,1.059l-1.305-0.001c0-0.477,0.109-0.905,0.326-1.285
			c0.217-0.382,0.526-0.678,0.929-0.89c0.403-0.211,0.868-0.316,1.395-0.315c0.759,0,1.357,0.19,1.796,0.573
			c0.439,0.381,0.658,0.908,0.657,1.582c0,0.39-0.11,0.799-0.331,1.227s-0.581,0.914-1.082,1.458l-1.914,2.045l3.631,0.002V176.725z
			"/>
		<path d="M727.088,176.726l0.004-7.82l2.68,0.001c0.885,0.001,1.558,0.179,2.02,0.532c0.462,0.355,0.692,0.884,0.691,1.586
			c0,0.358-0.096,0.681-0.29,0.966c-0.193,0.286-0.476,0.509-0.849,0.666c0.422,0.114,0.749,0.33,0.979,0.648
			c0.231,0.316,0.347,0.697,0.347,1.141c-0.001,0.734-0.236,1.299-0.707,1.691c-0.472,0.394-1.146,0.591-2.023,0.59L727.088,176.726
			z M728.448,173.196l-0.001,2.444l1.509,0.001c0.427,0.001,0.76-0.104,0.999-0.316c0.24-0.211,0.36-0.504,0.361-0.881
			c0-0.813-0.416-1.228-1.246-1.247L728.448,173.196z M728.449,172.198l1.332,0.001c0.422,0,0.752-0.096,0.99-0.287
			s0.357-0.463,0.357-0.813c0.001-0.387-0.109-0.666-0.33-0.838c-0.219-0.172-0.563-0.259-1.027-0.259l-1.322-0.001V172.198z"/>
	</g>
</g>
<g>
	<g>
		<path d="M699.996,241.947l-1.354-0.001l0.002-3.47l-3.496-0.002l-0.002,3.47h-1.359l0.004-7.82h1.359l-0.002,3.255l3.496,0.002
			l0.002-3.255l1.354,0.001L699.996,241.947z"/>
		<path d="M707.1,235.227l-2.438-0.002l-0.004,6.725h-1.348l0.003-6.725l-2.417-0.002l0.001-1.096l6.204,0.004L707.1,235.227z"/>
		<path d="M710.998,238.945l-1.516-0.001l-0.001,3.008l-1.358-0.001l0.004-7.82l2.75,0.002c0.902,0,1.598,0.203,2.089,0.608
			c0.49,0.405,0.735,0.991,0.735,1.758c-0.001,0.523-0.127,0.961-0.379,1.314c-0.254,0.353-0.605,0.624-1.057,0.813l1.754,3.258
			v0.069h-1.455L710.998,238.945z M709.484,237.849l1.396,0.001c0.458,0,0.816-0.115,1.074-0.347
			c0.258-0.23,0.387-0.547,0.387-0.948c0-0.418-0.119-0.742-0.357-0.972c-0.237-0.229-0.593-0.348-1.065-0.354l-1.435-0.001V237.849
			z"/>
		<path d="M722.615,238.666c0,1.125-0.211,1.973-0.633,2.543c-0.42,0.571-1.061,0.856-1.92,0.855c-0.846,0-1.48-0.278-1.908-0.836
			c-0.428-0.557-0.646-1.382-0.657-2.474l0.001-1.354c0-1.124,0.211-1.968,0.632-2.529s1.063-0.843,1.927-0.843
			c0.855,0.001,1.493,0.274,1.914,0.823c0.42,0.548,0.635,1.368,0.646,2.46L722.615,238.666z M721.311,237.204
			c0.001-0.733-0.099-1.271-0.299-1.613c-0.201-0.342-0.52-0.514-0.956-0.515c-0.427,0-0.739,0.162-0.94,0.486
			s-0.307,0.83-0.318,1.518v1.772c0,0.73,0.102,1.274,0.305,1.633c0.204,0.358,0.524,0.537,0.961,0.537
			c0.42,0.001,0.729-0.165,0.93-0.496s0.307-0.85,0.318-1.555V237.204z"/>
		<path d="M727.303,241.961h-1.3l0.003-6.282l-1.918,0.652l0.001-1.096l3.052-1.122h0.166L727.303,241.961z"/>
		<path d="M730.23,241.963l0.004-7.82l2.68,0.001c0.885,0.001,1.558,0.179,2.02,0.532c0.462,0.355,0.692,0.884,0.691,1.586
			c0,0.358-0.096,0.681-0.29,0.966c-0.193,0.286-0.476,0.509-0.849,0.666c0.422,0.114,0.749,0.33,0.979,0.648
			c0.231,0.316,0.347,0.697,0.347,1.141c-0.001,0.734-0.236,1.299-0.707,1.691c-0.472,0.394-1.146,0.591-2.023,0.59L730.23,241.963z
			 M731.591,238.434l-0.001,2.444l1.509,0.001c0.427,0.001,0.76-0.104,0.999-0.316c0.24-0.211,0.36-0.504,0.361-0.881
			c0-0.813-0.416-1.228-1.246-1.247L731.591,238.434z M731.592,237.436l1.332,0.001c0.422,0,0.752-0.096,0.99-0.287
			s0.357-0.463,0.357-0.813c0.001-0.387-0.109-0.666-0.33-0.838c-0.219-0.172-0.563-0.259-1.027-0.259l-1.322-0.001V237.436z"/>
	</g>
</g>
<g>
	
		<linearGradient id="SVGID_21_" gradientUnits="userSpaceOnUse" x1="106.8696" y1="-685.8174" x2="106.8696" y2="-259.194" gradientTransform="matrix(0 1 -1 0 66.8477 348.4321)">
		<stop  offset="0" style="stop-color:#B5D9FF"/>
		<stop  offset="0.1758" style="stop-color:#DBEBFC"/>
		<stop  offset="0.3091" style="stop-color:#EDF0F2"/>
		<stop  offset="0.5" style="stop-color:#FFFFFF"/>
		<stop  offset="0.7273" style="stop-color:#E3F0F2"/>
		<stop  offset="0.9212" style="stop-color:#A8C2FD"/>
		<stop  offset="1" style="stop-color:#8FB5E6"/>
	</linearGradient>
	<rect x="327.913" y="448.491" fill="url(#SVGID_21_)" stroke="#6F797F" stroke-miterlimit="10" width="416.328" height="13.622"/>
	<g opacity="0.5">
		<linearGradient id="SVGID_22_" gradientUnits="userSpaceOnUse" x1="328.4126" y1="455.3027" x2="743.7402" y2="455.3027">
			<stop  offset="0" style="stop-color:#B5D9FF"/>
			<stop  offset="0.1758" style="stop-color:#DBEBFC"/>
			<stop  offset="0.3091" style="stop-color:#EDF0F2"/>
			<stop  offset="0.5" style="stop-color:#FFFFFF"/>
			<stop  offset="0.7273" style="stop-color:#E3F0F2"/>
			<stop  offset="0.9212" style="stop-color:#A8C2FD"/>
			<stop  offset="1" style="stop-color:#8FB5E6"/>
		</linearGradient>
		<rect x="328.413" y="448.991" fill="url(#SVGID_22_)" width="415.328" height="12.622"/>
		<path fill="#6F797F" d="M743.24,449.491v11.622H328.913v-11.622H743.24 M744.24,448.491H327.913v13.622H744.24V448.491
			L744.24,448.491z"/>
	</g>
</g>
<g>
	<g>
		<linearGradient id="SVGID_23_" gradientUnits="userSpaceOnUse" x1="403.9453" y1="437.3574" x2="459.2969" y2="437.3574">
			<stop  offset="0" style="stop-color:#B5D9FF"/>
			<stop  offset="0.1758" style="stop-color:#DBEBFC"/>
			<stop  offset="0.3091" style="stop-color:#EDF0F2"/>
			<stop  offset="0.5" style="stop-color:#FFFFFF"/>
			<stop  offset="0.7273" style="stop-color:#E3F0F2"/>
			<stop  offset="0.9212" style="stop-color:#A8C2FD"/>
			<stop  offset="1" style="stop-color:#8FB5E6"/>
		</linearGradient>
		<rect x="251.839" y="377.554" fill="url(#SVGID_23_)" width="81.991" height="119.607"/>
		<path fill="#6F797F" d="M333.33,378.054v118.607h-80.991V378.054H333.33 M334.33,377.054h-82.991v120.607h82.991V377.054
			L334.33,377.054z"/>
	</g>
	<g opacity="0.5">
		<linearGradient id="SVGID_24_" gradientUnits="userSpaceOnUse" x1="252.8569" y1="437.3574" x2="333.2975" y2="437.3574">
			<stop  offset="0" style="stop-color:#B5D9FF"/>
			<stop  offset="0.1758" style="stop-color:#DBEBFC"/>
			<stop  offset="0.3091" style="stop-color:#EDF0F2"/>
			<stop  offset="0.5" style="stop-color:#FFFFFF"/>
			<stop  offset="0.7273" style="stop-color:#E3F0F2"/>
			<stop  offset="0.9212" style="stop-color:#A8C2FD"/>
			<stop  offset="1" style="stop-color:#8FB5E6"/>
		</linearGradient>
		<rect x="251.839" y="377.554" fill="url(#SVGID_24_)" width="81.991" height="119.607"/>
		<path fill="#6F797F" d="M333.33,378.054v118.607h-80.991V378.054H333.33 M334.33,377.054h-82.991v120.607h82.991V377.054
			L334.33,377.054z"/>
	</g>
</g>
<g>
	
		<linearGradient id="SVGID_25_" gradientUnits="userSpaceOnUse" x1="498.5" y1="-474.1147" x2="582.9808" y2="-474.1147" gradientTransform="matrix(0 1 -1 0 66.8477 348.4316)">
		<stop  offset="0" style="stop-color:#B5D9FF"/>
		<stop  offset="0.1758" style="stop-color:#DBEBFC"/>
		<stop  offset="0.3091" style="stop-color:#EDF0F2"/>
		<stop  offset="0.5" style="stop-color:#FFFFFF"/>
		<stop  offset="0.7273" style="stop-color:#E3F0F2"/>
		<stop  offset="0.9212" style="stop-color:#A8C2FD"/>
		<stop  offset="1" style="stop-color:#8FB5E6"/>
	</linearGradient>
	<rect x="499.467" y="377.054" fill="url(#SVGID_25_)" stroke="#6F797F" stroke-miterlimit="10" width="82.991" height="120.607"/>
	<g opacity="0.5">
		<linearGradient id="SVGID_26_" gradientUnits="userSpaceOnUse" x1="499.0117" y1="437.3574" x2="582.4745" y2="437.3574">
			<stop  offset="0" style="stop-color:#B5D9FF"/>
			<stop  offset="0.1758" style="stop-color:#DBEBFC"/>
			<stop  offset="0.3091" style="stop-color:#EDF0F2"/>
			<stop  offset="0.5" style="stop-color:#FFFFFF"/>
			<stop  offset="0.7273" style="stop-color:#E3F0F2"/>
			<stop  offset="0.9212" style="stop-color:#A8C2FD"/>
			<stop  offset="1" style="stop-color:#8FB5E6"/>
		</linearGradient>
		<rect x="499.967" y="377.554" fill="url(#SVGID_26_)" width="81.991" height="119.607"/>
		<g>
			<path fill="#6F797F" d="M581.458,378.054v118.607h-80.991V378.054H581.458 M582.458,377.054h-82.991v120.607h82.991V377.054
				L582.458,377.054z"/>
		</g>
	</g>
</g>
<g>
	
		<linearGradient id="SVGID_27_" gradientUnits="userSpaceOnUse" x1="740.5" y1="-713.9165" x2="823.6865" y2="-713.9165" gradientTransform="matrix(0 1 -1 0 66.8477 348.4316)">
		<stop  offset="0" style="stop-color:#B5D9FF"/>
		<stop  offset="0.1758" style="stop-color:#DBEBFC"/>
		<stop  offset="0.3091" style="stop-color:#EDF0F2"/>
		<stop  offset="0.5" style="stop-color:#FFFFFF"/>
		<stop  offset="0.7273" style="stop-color:#E3F0F2"/>
		<stop  offset="0.9212" style="stop-color:#A8C2FD"/>
		<stop  offset="1" style="stop-color:#8FB5E6"/>
	</linearGradient>
	<rect x="739.269" y="377.054" fill="url(#SVGID_27_)" stroke="#6F797F" stroke-miterlimit="10" width="82.991" height="120.607"/>
	<g opacity="0.5">
		<linearGradient id="SVGID_28_" gradientUnits="userSpaceOnUse" x1="740.9854" y1="437.3574" x2="823.1696" y2="437.3574">
			<stop  offset="0" style="stop-color:#B5D9FF"/>
			<stop  offset="0.1758" style="stop-color:#DBEBFC"/>
			<stop  offset="0.3091" style="stop-color:#EDF0F2"/>
			<stop  offset="0.5" style="stop-color:#FFFFFF"/>
			<stop  offset="0.7273" style="stop-color:#E3F0F2"/>
			<stop  offset="0.9212" style="stop-color:#A8C2FD"/>
			<stop  offset="1" style="stop-color:#8FB5E6"/>
		</linearGradient>
		<rect x="739.769" y="377.554" fill="url(#SVGID_28_)" width="81.991" height="119.607"/>
		<path fill="#6F797F" d="M821.26,378.054v118.607h-80.991V378.054H821.26 M822.26,377.054h-82.991v120.607h82.991V377.054
			L822.26,377.054z"/>
	</g>
</g>
<polygon fill="#EDEDED" stroke="#9E9E9E" stroke-miterlimit="10" points="365.474,430.408 359.474,430.408 359.474,400.277 
	236.822,400.277 236.822,420.512 230.822,420.512 230.822,394.277 365.474,394.277 "/>
<polygon fill="#EDEDED" stroke="#9E9E9E" stroke-miterlimit="10" points="670.969,431.699 664.969,431.699 664.969,398.557 
	414.956,398.557 414.956,419.651 408.956,419.651 408.956,392.557 670.969,392.557 "/>
<polygon fill="#EDEDED" stroke="#9E9E9E" stroke-miterlimit="10" points="160.374,456.212 119.37,456.212 119.37,450.212 
	154.374,450.212 154.374,427.408 840.091,427.408 840.091,397.265 717.009,397.265 717.009,423.081 154.234,423.081 
	154.234,398.557 119.37,398.557 119.37,392.557 160.234,392.557 160.234,417.081 711.009,417.081 711.009,391.265 846.091,391.265 
	846.091,433.408 160.374,433.408 "/>
<g>
	<g>
		<path d="M290.479,386.089c-0.079,0.834-0.387,1.485-0.924,1.952c-0.537,0.468-1.251,0.701-2.143,0.701
			c-0.623,0-1.172-0.147-1.646-0.443c-0.474-0.295-0.84-0.715-1.098-1.259c-0.258-0.545-0.392-1.177-0.403-1.896v-0.73
			c0-0.737,0.131-1.388,0.392-1.949c0.261-0.563,0.636-0.996,1.125-1.301c0.488-0.304,1.053-0.456,1.694-0.456
			c0.863,0,1.558,0.233,2.084,0.701c0.526,0.467,0.833,1.129,0.918,1.984h-1.354c-0.064-0.563-0.228-0.968-0.492-1.217
			c-0.263-0.249-0.649-0.373-1.157-0.373c-0.591,0-1.045,0.216-1.361,0.647c-0.317,0.433-0.479,1.065-0.486,1.9v0.694
			c0,0.846,0.151,1.49,0.454,1.935c0.302,0.445,0.746,0.667,1.329,0.667c0.534,0,0.935-0.12,1.203-0.36
			c0.269-0.239,0.438-0.639,0.51-1.197H290.479z"/>
		<path d="M291.693,388.635v-7.82h2.31c0.691,0,1.304,0.154,1.839,0.462c0.536,0.308,0.95,0.745,1.244,1.311s0.44,1.214,0.44,1.944
			v0.392c0,0.742-0.148,1.394-0.443,1.955c-0.296,0.563-0.716,0.996-1.263,1.301c-0.546,0.304-1.171,0.456-1.877,0.456H291.693z
			 M293.052,381.91v5.64h0.886c0.712,0,1.259-0.223,1.641-0.669c0.381-0.445,0.575-1.086,0.583-1.92v-0.435
			c0-0.85-0.185-1.497-0.553-1.945c-0.369-0.447-0.904-0.671-1.606-0.671H293.052z"/>
		<path d="M302.919,384.128h0.795c0.401-0.003,0.719-0.107,0.954-0.311c0.234-0.205,0.352-0.5,0.352-0.887
			c0-0.372-0.098-0.661-0.293-0.867c-0.195-0.206-0.493-0.309-0.894-0.309c-0.351,0-0.639,0.101-0.865,0.303
			s-0.338,0.467-0.338,0.793h-1.305c0-0.401,0.106-0.767,0.319-1.096c0.213-0.33,0.511-0.587,0.892-0.771
			c0.382-0.185,0.809-0.276,1.281-0.276c0.781,0,1.394,0.196,1.84,0.588c0.445,0.393,0.668,0.938,0.668,1.636
			c0,0.351-0.112,0.682-0.335,0.991c-0.224,0.31-0.513,0.543-0.868,0.7c0.43,0.147,0.756,0.378,0.98,0.693
			c0.224,0.315,0.336,0.691,0.336,1.128c0,0.702-0.241,1.261-0.723,1.676c-0.481,0.415-1.114,0.623-1.898,0.623
			c-0.752,0-1.368-0.2-1.848-0.602s-0.72-0.935-0.72-1.601h1.305c0,0.344,0.116,0.623,0.346,0.838
			c0.231,0.215,0.542,0.322,0.932,0.322c0.405,0,0.723-0.107,0.956-0.322s0.349-0.526,0.349-0.935c0-0.412-0.122-0.729-0.365-0.95
			c-0.244-0.223-0.605-0.334-1.085-0.334h-0.768V384.128z"/>
	</g>
</g>
<g>
	<g>
		<path d="M537.691,386.089c-0.078,0.834-0.387,1.485-0.924,1.952c-0.537,0.468-1.251,0.701-2.143,0.701
			c-0.623,0-1.172-0.147-1.646-0.443c-0.475-0.295-0.84-0.715-1.098-1.259c-0.258-0.545-0.393-1.177-0.403-1.896v-0.73
			c0-0.737,0.131-1.388,0.392-1.949c0.262-0.563,0.637-0.996,1.126-1.301c0.488-0.304,1.054-0.456,1.694-0.456
			c0.863,0,1.558,0.233,2.084,0.701c0.526,0.467,0.832,1.129,0.918,1.984h-1.354c-0.064-0.563-0.228-0.968-0.491-1.217
			c-0.263-0.249-0.649-0.373-1.157-0.373c-0.591,0-1.045,0.216-1.361,0.647c-0.317,0.433-0.479,1.065-0.486,1.9v0.694
			c0,0.846,0.151,1.49,0.454,1.935c0.302,0.445,0.745,0.667,1.329,0.667c0.533,0,0.935-0.12,1.203-0.36
			c0.269-0.239,0.438-0.639,0.51-1.197H537.691z"/>
		<path d="M538.906,388.635v-7.82h2.309c0.691,0,1.305,0.154,1.84,0.462s0.95,0.745,1.244,1.311
			c0.293,0.565,0.439,1.214,0.439,1.944v0.392c0,0.742-0.147,1.394-0.442,1.955c-0.296,0.563-0.716,0.996-1.263,1.301
			c-0.546,0.304-1.172,0.456-1.877,0.456H538.906z M540.265,381.91v5.64h0.886c0.713,0,1.26-0.223,1.642-0.669
			c0.381-0.445,0.575-1.086,0.583-1.92v-0.435c0-0.85-0.186-1.497-0.554-1.945c-0.368-0.447-0.904-0.671-1.606-0.671H540.265z"/>
		<path d="M553.881,388.635h-5.259v-0.897l2.604-2.841c0.377-0.419,0.645-0.769,0.804-1.05s0.239-0.563,0.239-0.846
			c0-0.373-0.105-0.674-0.314-0.902c-0.21-0.229-0.492-0.344-0.846-0.344c-0.423,0-0.75,0.129-0.983,0.387s-0.349,0.61-0.349,1.058
			h-1.306c0-0.477,0.108-0.905,0.325-1.286c0.217-0.382,0.526-0.678,0.929-0.889c0.403-0.212,0.868-0.317,1.394-0.317
			c0.76,0,1.358,0.19,1.797,0.572c0.439,0.381,0.658,0.908,0.658,1.581c0,0.391-0.11,0.8-0.33,1.228
			c-0.221,0.428-0.581,0.914-1.082,1.458l-1.912,2.047h3.631V388.635z"/>
	</g>
</g>
<g>
	<g>
		<path d="M776.686,386.089c-0.078,0.834-0.387,1.485-0.924,1.952c-0.537,0.468-1.251,0.701-2.143,0.701
			c-0.623,0-1.172-0.147-1.646-0.443c-0.475-0.295-0.84-0.715-1.098-1.259c-0.258-0.545-0.393-1.177-0.403-1.896v-0.73
			c0-0.737,0.131-1.388,0.392-1.949c0.262-0.563,0.637-0.996,1.126-1.301c0.488-0.304,1.054-0.456,1.694-0.456
			c0.863,0,1.558,0.233,2.084,0.701c0.526,0.467,0.832,1.129,0.918,1.984h-1.354c-0.064-0.563-0.228-0.968-0.491-1.217
			c-0.263-0.249-0.649-0.373-1.157-0.373c-0.591,0-1.045,0.216-1.361,0.647c-0.317,0.433-0.479,1.065-0.486,1.9v0.694
			c0,0.846,0.151,1.49,0.454,1.935c0.302,0.445,0.745,0.667,1.329,0.667c0.533,0,0.935-0.12,1.203-0.36
			c0.269-0.239,0.438-0.639,0.51-1.197H776.686z"/>
		<path d="M777.9,388.635v-7.82h2.309c0.691,0,1.305,0.154,1.84,0.462s0.95,0.745,1.244,1.311c0.293,0.565,0.439,1.214,0.439,1.944
			v0.392c0,0.742-0.147,1.394-0.442,1.955c-0.296,0.563-0.716,0.996-1.263,1.301c-0.546,0.304-1.172,0.456-1.877,0.456H777.9z
			 M779.259,381.91v5.64h0.886c0.713,0,1.26-0.223,1.642-0.669c0.381-0.445,0.575-1.086,0.583-1.92v-0.435
			c0-0.85-0.186-1.497-0.554-1.945c-0.368-0.447-0.904-0.671-1.606-0.671H779.259z"/>
		<path d="M791.15,388.635h-1.3v-6.282l-1.917,0.653v-1.096l3.051-1.122h0.166V388.635z"/>
	</g>
</g>
<polygon fill="#EDEDED" stroke="#9E9E9E" stroke-miterlimit="10" points="994.649,416.628 866.057,416.628 866.057,333.19 
	872.057,333.19 872.057,410.628 988.649,410.628 988.649,335.667 994.649,335.667 "/>
<g>
	
		<linearGradient id="SVGID_29_" gradientUnits="userSpaceOnUse" x1="-292.7451" y1="925.96" x2="-283.7522" y2="942.4456" gradientTransform="matrix(1 0 0 1 1148.7881 -623.998)">
		<stop  offset="0" style="stop-color:#66A8E0"/>
		<stop  offset="0.497" style="stop-color:#003D57"/>
		<stop  offset="1" style="stop-color:#002140"/>
	</linearGradient>
	<polygon fill="url(#SVGID_29_)" points="855.174,301.545 855.174,304.103 856.374,304.103 856.374,323.884 866.431,323.884 
		866.431,304.103 867.442,304.103 867.442,301.545 	"/>
	<g>
		
			<linearGradient id="SVGID_30_" gradientUnits="userSpaceOnUse" x1="-869.4482" y1="859.1064" x2="-844.7648" y2="881.9977" gradientTransform="matrix(0 -1 1 0 -0.043 -534.6553)">
			<stop  offset="0" style="stop-color:#66A8E0"/>
			<stop  offset="0.497" style="stop-color:#003D57"/>
			<stop  offset="1" style="stop-color:#002140"/>
		</linearGradient>
		<path fill="url(#SVGID_30_)" d="M855.984,322.205c0-8.148,6.602-14.754,14.753-14.754c8.147,0,14.752,6.605,14.752,14.754
			c0,8.15-6.604,14.754-14.752,14.754C862.586,336.959,855.984,330.355,855.984,322.205z"/>
		<path fill="#F1F1F2" stroke="#231F20" stroke-width="0.6" stroke-miterlimit="10" d="M861.221,322.205
			c0-5.252,4.264-9.515,9.517-9.515c5.255,0,9.513,4.263,9.513,9.515c0,5.257-4.258,9.515-9.513,9.515
			C865.484,331.72,861.221,327.462,861.221,322.205z"/>
		<g>
			<g>
				
					<linearGradient id="SVGID_31_" gradientUnits="userSpaceOnUse" x1="-862.083" y1="865.5557" x2="-850.8764" y2="876.7623" gradientTransform="matrix(0 -1 1 0 -0.043 -534.6553)">
					<stop  offset="0" style="stop-color:#66A8E0"/>
					<stop  offset="0.497" style="stop-color:#003D57"/>
					<stop  offset="1" style="stop-color:#002140"/>
				</linearGradient>
				<polygon fill="url(#SVGID_31_)" points="867.31,328.708 869.915,325.156 867.784,323.025 864.231,325.631 				"/>
				
					<linearGradient id="SVGID_32_" gradientUnits="userSpaceOnUse" x1="-862.0864" y1="865.5537" x2="-850.8773" y2="876.7628" gradientTransform="matrix(0 -1 1 0 -0.043 -534.6553)">
					<stop  offset="0" style="stop-color:#66A8E0"/>
					<stop  offset="0.497" style="stop-color:#003D57"/>
					<stop  offset="1" style="stop-color:#002140"/>
				</linearGradient>
				<polygon fill="url(#SVGID_32_)" points="873.687,321.385 877.24,318.78 874.16,315.702 871.556,319.255 				"/>
				
					<linearGradient id="SVGID_33_" gradientUnits="userSpaceOnUse" x1="-858.6563" y1="862.1328" x2="-847.4547" y2="873.3344" gradientTransform="matrix(0 -1 1 0 -0.043 -534.6553)">
					<stop  offset="0" style="stop-color:#66A8E0"/>
					<stop  offset="0.497" style="stop-color:#003D57"/>
					<stop  offset="1" style="stop-color:#002140"/>
				</linearGradient>
				<polygon fill="url(#SVGID_33_)" points="867.31,315.702 864.231,318.78 867.784,321.385 869.915,319.255 				"/>
				
					<linearGradient id="SVGID_34_" gradientUnits="userSpaceOnUse" x1="-865.5088" y1="868.9814" x2="-854.3022" y2="880.188" gradientTransform="matrix(0 -1 1 0 -0.043 -534.6553)">
					<stop  offset="0" style="stop-color:#66A8E0"/>
					<stop  offset="0.497" style="stop-color:#003D57"/>
					<stop  offset="1" style="stop-color:#002140"/>
				</linearGradient>
				<polygon fill="url(#SVGID_34_)" points="874.16,328.708 877.24,325.631 873.687,323.025 871.556,325.156 				"/>
			</g>
			<path fill="#FFFFFF" stroke="#808184" stroke-width="0.6" stroke-miterlimit="10" d="M867.776,322.205
				c0-1.632,1.327-2.957,2.959-2.957c1.63,0,2.959,1.325,2.959,2.957c0,1.636-1.329,2.958-2.959,2.958
				C869.104,325.163,867.776,323.841,867.776,322.205z"/>
		</g>
	</g>
</g>
<g>
	
		<linearGradient id="SVGID_35_" gradientUnits="userSpaceOnUse" x1="-172.2534" y1="925.96" x2="-163.2602" y2="942.4463" gradientTransform="matrix(1 0 0 1 1148.7881 -623.998)">
		<stop  offset="0" style="stop-color:#66A8E0"/>
		<stop  offset="0.497" style="stop-color:#003D57"/>
		<stop  offset="1" style="stop-color:#002140"/>
	</linearGradient>
	<polygon fill="url(#SVGID_35_)" points="975.666,301.545 975.666,304.103 976.866,304.103 976.866,323.884 986.923,323.884 
		986.923,304.103 987.935,304.103 987.935,301.545 	"/>
	<g>
		
			<linearGradient id="SVGID_36_" gradientUnits="userSpaceOnUse" x1="-869.4482" y1="979.5986" x2="-844.7648" y2="1002.4899" gradientTransform="matrix(0 -1 1 0 -0.043 -534.6553)">
			<stop  offset="0" style="stop-color:#66A8E0"/>
			<stop  offset="0.497" style="stop-color:#003D57"/>
			<stop  offset="1" style="stop-color:#002140"/>
		</linearGradient>
		<path fill="url(#SVGID_36_)" d="M976.477,322.205c0-8.148,6.602-14.754,14.753-14.754c8.147,0,14.752,6.605,14.752,14.754
			c0,8.15-6.604,14.754-14.752,14.754C983.078,336.959,976.477,330.355,976.477,322.205z"/>
		<path fill="#F1F1F2" stroke="#231F20" stroke-width="0.6" stroke-miterlimit="10" d="M981.713,322.205
			c0-5.252,4.264-9.515,9.517-9.515c5.255,0,9.513,4.263,9.513,9.515c0,5.257-4.258,9.515-9.513,9.515
			C985.977,331.72,981.713,327.462,981.713,322.205z"/>
		<g>
			<g>
				
					<linearGradient id="SVGID_37_" gradientUnits="userSpaceOnUse" x1="-862.0825" y1="986.0479" x2="-850.8759" y2="997.2545" gradientTransform="matrix(0 -1 1 0 -0.043 -534.6553)">
					<stop  offset="0" style="stop-color:#66A8E0"/>
					<stop  offset="0.497" style="stop-color:#003D57"/>
					<stop  offset="1" style="stop-color:#002140"/>
				</linearGradient>
				<polygon fill="url(#SVGID_37_)" points="987.802,328.708 990.407,325.156 988.276,323.025 984.724,325.631 				"/>
				
					<linearGradient id="SVGID_38_" gradientUnits="userSpaceOnUse" x1="-862.0864" y1="986.0459" x2="-850.8773" y2="997.255" gradientTransform="matrix(0 -1 1 0 -0.043 -534.6553)">
					<stop  offset="0" style="stop-color:#66A8E0"/>
					<stop  offset="0.497" style="stop-color:#003D57"/>
					<stop  offset="1" style="stop-color:#002140"/>
				</linearGradient>
				<polygon fill="url(#SVGID_38_)" points="994.179,321.385 997.732,318.78 994.652,315.702 992.048,319.255 				"/>
				
					<linearGradient id="SVGID_39_" gradientUnits="userSpaceOnUse" x1="-858.6577" y1="982.624" x2="-847.4536" y2="993.8281" gradientTransform="matrix(0 -1 1 0 -0.043 -534.6553)">
					<stop  offset="0" style="stop-color:#66A8E0"/>
					<stop  offset="0.497" style="stop-color:#003D57"/>
					<stop  offset="1" style="stop-color:#002140"/>
				</linearGradient>
				<polygon fill="url(#SVGID_39_)" points="987.802,315.702 984.724,318.78 988.276,321.385 990.407,319.255 				"/>
				
					<linearGradient id="SVGID_40_" gradientUnits="userSpaceOnUse" x1="-865.5078" y1="989.4746" x2="-854.3037" y2="1000.6787" gradientTransform="matrix(0 -1 1 0 -0.043 -534.6553)">
					<stop  offset="0" style="stop-color:#66A8E0"/>
					<stop  offset="0.497" style="stop-color:#003D57"/>
					<stop  offset="1" style="stop-color:#002140"/>
				</linearGradient>
				<polygon fill="url(#SVGID_40_)" points="994.652,328.708 997.732,325.631 994.179,323.025 992.048,325.156 				"/>
			</g>
			<path fill="#FFFFFF" stroke="#808184" stroke-width="0.6" stroke-miterlimit="10" d="M988.269,322.205
				c0-1.632,1.327-2.957,2.959-2.957c1.63,0,2.959,1.325,2.959,2.957c0,1.636-1.329,2.958-2.959,2.958
				C989.596,325.163,988.269,323.841,988.269,322.205z"/>
		</g>
	</g>
</g>
<g>
	<g>
		<line fill="none" stroke="#191919" stroke-width="0.6" stroke-miterlimit="10" x1="727.93" y1="75.278" x2="727.93" y2="90.04"/>
		<g>
			<polygon fill="#191919" points="724.955,89.164 727.946,94.345 730.938,89.164 			"/>
		</g>
	</g>
</g>
<g>
	<g>
		
			<line fill="none" stroke="#191919" stroke-width="0.6" stroke-miterlimit="10" x1="531.73" y1="302.523" x2="531.73" y2="287.762"/>
		<g>
			<polygon fill="#191919" points="534.705,288.637 531.714,283.456 528.723,288.637 			"/>
		</g>
	</g>
</g>
<g>
	<g>
		
			<line fill="none" stroke="#191919" stroke-width="0.6" stroke-miterlimit="10" x1="114.163" y1="453.504" x2="99.4" y2="453.504"/>
		<g>
			<polygon fill="#191919" points="100.276,450.529 95.095,453.521 100.276,456.512 			"/>
		</g>
	</g>
</g>
<g>
	<g>
		
			<line fill="none" stroke="#191919" stroke-width="0.6" stroke-miterlimit="10" x1="95.095" y1="395.768" x2="109.857" y2="395.768"/>
		<g>
			<polygon fill="#191919" points="108.982,398.742 114.163,395.751 108.982,392.76 			"/>
		</g>
	</g>
</g>
<g>
	<g>
		<path d="M43.639,397.085c0-0.344-0.121-0.608-0.363-0.795c-0.241-0.186-0.677-0.374-1.308-0.563s-1.131-0.401-1.504-0.634
			c-0.712-0.447-1.069-1.031-1.069-1.751c0-0.63,0.257-1.149,0.771-1.558c0.514-0.408,1.181-0.612,2-0.612
			c0.544,0,1.029,0.101,1.456,0.301s0.761,0.486,1.004,0.856c0.244,0.371,0.365,0.781,0.365,1.232h-1.354
			c0-0.408-0.128-0.728-0.384-0.958c-0.256-0.231-0.622-0.347-1.098-0.347c-0.444,0-0.789,0.095-1.034,0.285
			c-0.246,0.189-0.368,0.454-0.368,0.795c0,0.286,0.132,0.525,0.397,0.717s0.702,0.378,1.311,0.559s1.098,0.387,1.466,0.617
			c0.369,0.231,0.639,0.496,0.811,0.795s0.258,0.649,0.258,1.051c0,0.651-0.25,1.17-0.749,1.555c-0.5,0.385-1.177,0.577-2.033,0.577
			c-0.566,0-1.086-0.104-1.561-0.314c-0.474-0.209-0.843-0.498-1.106-0.867c-0.263-0.369-0.395-0.799-0.395-1.289h1.359
			c0,0.444,0.147,0.788,0.44,1.031s0.714,0.365,1.262,0.365c0.473,0,0.828-0.096,1.066-0.287
			C43.52,397.654,43.639,397.4,43.639,397.085z"/>
		<path d="M48.623,399.207c-0.827,0-1.498-0.261-2.011-0.781c-0.514-0.521-0.771-1.215-0.771-2.081v-0.162
			c0-0.58,0.112-1.098,0.335-1.555c0.224-0.456,0.538-0.812,0.943-1.066c0.405-0.254,0.856-0.381,1.354-0.381
			c0.792,0,1.403,0.252,1.834,0.758c0.431,0.504,0.647,1.219,0.647,2.143v0.526h-3.797c0.04,0.479,0.2,0.859,0.48,1.139
			c0.281,0.279,0.635,0.419,1.061,0.419c0.598,0,1.085-0.242,1.461-0.725l0.704,0.671c-0.233,0.348-0.543,0.617-0.932,0.809
			C49.542,399.111,49.106,399.207,48.623,399.207z M48.467,394.228c-0.358,0-0.647,0.126-0.867,0.377
			c-0.221,0.25-0.361,0.6-0.422,1.047h2.487v-0.097c-0.029-0.437-0.145-0.768-0.349-0.991S48.829,394.228,48.467,394.228z"/>
		<path d="M55.439,399.1c-0.057-0.111-0.107-0.292-0.15-0.542c-0.416,0.433-0.924,0.649-1.525,0.649
			c-0.583,0-1.06-0.167-1.429-0.499c-0.369-0.334-0.553-0.745-0.553-1.236c0-0.619,0.23-1.095,0.69-1.426
			c0.46-0.331,1.118-0.496,1.974-0.496h0.8v-0.382c0-0.301-0.084-0.542-0.252-0.723s-0.424-0.271-0.768-0.271
			c-0.297,0-0.541,0.074-0.73,0.223s-0.285,0.337-0.285,0.566h-1.305c0-0.318,0.105-0.617,0.317-0.895s0.499-0.495,0.862-0.652
			c0.364-0.157,0.769-0.236,1.217-0.236c0.68,0,1.223,0.171,1.627,0.513s0.612,0.823,0.623,1.442v2.621
			c0,0.522,0.073,0.939,0.22,1.252v0.091H55.439z M54.005,398.159c0.258,0,0.5-0.063,0.728-0.188
			c0.227-0.125,0.398-0.294,0.513-0.505v-1.096h-0.704c-0.483,0-0.847,0.084-1.09,0.253c-0.244,0.168-0.365,0.406-0.365,0.714
			c0,0.251,0.083,0.45,0.25,0.599C53.502,398.085,53.726,398.159,54.005,398.159z"/>
		<path d="M66.917,397.166l1.203-5.887h1.348l-1.805,7.82h-1.3l-1.488-5.71l-1.52,5.71h-1.305l-1.805-7.82h1.348l1.214,5.876
			l1.493-5.876h1.139L66.917,397.166z"/>
		<path d="M73.631,399.1c-0.057-0.111-0.107-0.292-0.15-0.542c-0.416,0.433-0.924,0.649-1.525,0.649
			c-0.583,0-1.06-0.167-1.429-0.499c-0.369-0.334-0.553-0.745-0.553-1.236c0-0.619,0.23-1.095,0.69-1.426
			c0.46-0.331,1.118-0.496,1.974-0.496h0.8v-0.382c0-0.301-0.084-0.542-0.252-0.723s-0.424-0.271-0.768-0.271
			c-0.297,0-0.541,0.074-0.73,0.223s-0.285,0.337-0.285,0.566h-1.305c0-0.318,0.105-0.617,0.317-0.895s0.499-0.495,0.862-0.652
			c0.363-0.157,0.769-0.236,1.216-0.236c0.68,0,1.223,0.171,1.627,0.513s0.612,0.823,0.623,1.442v2.621
			c0,0.522,0.073,0.939,0.22,1.252v0.091H73.631z M72.197,398.159c0.258,0,0.5-0.063,0.728-0.188
			c0.228-0.125,0.398-0.294,0.513-0.505v-1.096h-0.704c-0.483,0-0.847,0.084-1.09,0.253c-0.244,0.168-0.365,0.406-0.365,0.714
			c0,0.251,0.083,0.45,0.25,0.599C71.695,398.085,71.917,398.159,72.197,398.159z"/>
		<path d="M77.745,391.876v1.412h1.026v0.967h-1.026v3.244c0,0.222,0.044,0.382,0.131,0.48c0.088,0.099,0.245,0.148,0.47,0.148
			c0.15,0,0.303-0.019,0.457-0.055v1.01c-0.297,0.083-0.583,0.124-0.859,0.124c-1.002,0-1.504-0.554-1.504-1.659v-3.293h-0.956
			v-0.967h0.956v-1.412H77.745z"/>
		<path d="M82.327,399.207c-0.827,0-1.498-0.261-2.012-0.781c-0.514-0.521-0.771-1.215-0.771-2.081v-0.162
			c0-0.58,0.112-1.098,0.336-1.555c0.224-0.456,0.538-0.812,0.942-1.066c0.405-0.254,0.856-0.381,1.354-0.381
			c0.792,0,1.403,0.252,1.834,0.758c0.432,0.504,0.647,1.219,0.647,2.143v0.526H80.86c0.04,0.479,0.2,0.859,0.481,1.139
			c0.281,0.279,0.634,0.419,1.061,0.419c0.598,0,1.085-0.242,1.461-0.725l0.704,0.671c-0.233,0.348-0.543,0.617-0.932,0.809
			C83.246,399.111,82.81,399.207,82.327,399.207z M82.171,394.228c-0.358,0-0.647,0.126-0.868,0.377
			c-0.22,0.25-0.36,0.6-0.421,1.047h2.487v-0.097c-0.029-0.437-0.145-0.768-0.349-0.991S82.533,394.228,82.171,394.228z"/>
		<path d="M88.713,394.48c-0.172-0.028-0.349-0.043-0.532-0.043c-0.598,0-1.001,0.229-1.208,0.688v3.975h-1.305v-5.812h1.246
			l0.032,0.65c0.315-0.506,0.752-0.758,1.311-0.758c0.186,0,0.34,0.025,0.462,0.075L88.713,394.48z"/>
	</g>
</g>
<rect x="87.534" y="133.87" transform="matrix(0.7072 0.7071 -0.7071 0.7072 124.6033 -24.4772)" fill="none" stroke="#282828" stroke-width="3" stroke-miterlimit="10" width="8.635" height="8.637"/>
<rect x="713.13" y="28.67" transform="matrix(0.7072 0.7071 -0.7071 0.7072 233.4193 -497.6111)" fill="none" stroke="#282828" stroke-width="3" stroke-miterlimit="10" width="8.635" height="8.637"/>
<g>
	<linearGradient id="SVGID_41_" gradientUnits="userSpaceOnUse" x1="180.8501" y1="77.4922" x2="180.8501" y2="121.0131">
		<stop  offset="0" style="stop-color:#AFBDD6"/>
		<stop  offset="0.5" style="stop-color:#FFFFFF"/>
		<stop  offset="1" style="stop-color:#AFBDD6"/>
	</linearGradient>
	<path fill="url(#SVGID_41_)" d="M239.185,76.628C239.184,76.628,239.184,76.628,239.185,76.628h-0.002H122.518
		c-8.756,0.001-15.854,10.036-15.854,22.416s7.098,22.415,15.854,22.417h116.666c0,0,0.001,0,0.002,0
		c8.754,0,15.852-10.036,15.852-22.417S247.939,76.628,239.185,76.628z"/>
	<g opacity="0.6">
		<g>
			
				<line fill="none" stroke="#231F20" stroke-width="0.6" stroke-linecap="round" stroke-linejoin="round" stroke-miterlimit="10" x1="122.518" y1="121.045" x2="122.518" y2="76.967"/>
			
				<line fill="none" stroke="#231F20" stroke-width="0.6" stroke-linecap="round" stroke-linejoin="round" stroke-miterlimit="10" x1="239.183" y1="76.998" x2="239.183" y2="121.123"/>
		</g>
		<g>
			<path fill="#231F20" d="M239.185,77.229c8.41,0,15.251,9.787,15.251,21.816s-6.842,21.816-15.253,21.816H122.518
				c-8.411-0.002-15.253-9.789-15.253-21.816c0-12.029,6.843-21.816,15.253-21.816h116.666H239.185 M239.185,76.629L239.185,76.629
				h-0.002H122.518c-8.756,0-15.854,10.035-15.854,22.416c0,12.379,7.098,22.414,15.854,22.416h116.666h0.002
				c8.754,0,15.852-10.035,15.852-22.416S247.939,76.629,239.185,76.629L239.185,76.629z"/>
		</g>
	</g>
</g>
<g>
	<linearGradient id="SVGID_42_" gradientUnits="userSpaceOnUse" x1="152.6626" y1="480.6445" x2="152.6626" y2="520.2816">
		<stop  offset="0" style="stop-color:#AFBDD6"/>
		<stop  offset="0.5" style="stop-color:#FFFFFF"/>
		<stop  offset="1" style="stop-color:#AFBDD6"/>
	</linearGradient>
	<path fill="url(#SVGID_42_)" d="M225.792,479.857C225.792,479.857,225.792,479.857,225.792,479.857h-0.001H79.534
		c-7.975,0-14.439,9.141-14.439,20.416s6.464,20.414,14.439,20.416h146.257c0,0,0.001,0,0.001,0c7.973,0,14.438-9.141,14.438-20.416
		C240.23,488.996,233.766,479.857,225.792,479.857z"/>
	<g opacity="0.6">
		<g>
			
				<line fill="none" stroke="#231F20" stroke-width="0.6" stroke-linecap="round" stroke-linejoin="round" stroke-miterlimit="10" x1="79.534" y1="520.311" x2="79.534" y2="480.166"/>
			
				<line fill="none" stroke="#231F20" stroke-width="0.6" stroke-linecap="round" stroke-linejoin="round" stroke-miterlimit="10" x1="225.791" y1="480.193" x2="225.791" y2="520.383"/>
		</g>
		<g>
			<path fill="#231F20" d="M225.792,480.457c7.63,0,13.837,8.89,13.837,19.816s-6.208,19.816-13.839,19.816H79.534
				c-7.631-0.002-13.839-8.892-13.839-19.816c0-10.927,6.208-19.816,13.839-19.816h146.257H225.792 M225.792,479.857
				L225.792,479.857h-0.001H79.534c-7.975,0-14.439,9.141-14.439,20.416s6.464,20.414,14.439,20.416h146.257h0.001
				c7.973,0,14.438-9.139,14.438-20.416C240.23,488.998,233.766,479.857,225.792,479.857L225.792,479.857z"/>
		</g>
	</g>
</g>
<g>
	<g>
		<linearGradient id="SVGID_43_" gradientUnits="userSpaceOnUse" x1="182.9556" y1="45.9385" x2="182.9556" y2="65.592">
			<stop  offset="0" style="stop-color:#AFBDD6"/>
			<stop  offset="0.5" style="stop-color:#FFFFFF"/>
			<stop  offset="1" style="stop-color:#AFBDD6"/>
		</linearGradient>
		<path fill="url(#SVGID_43_)" d="M221.713,45.548C221.712,45.548,221.712,45.548,221.713,45.548L221.713,45.548h-77.514
			c-3.953,0-7.159,4.531-7.159,10.123c0,5.59,3.206,10.123,7.159,10.123h77.513l0,0c0,0,0,0,0.001,0
			c3.953,0,7.158-4.533,7.158-10.123C228.871,50.08,225.666,45.548,221.713,45.548z"/>
	</g>
	<g opacity="0.6">
		<g>
			<path fill="#231F20" d="M221.713,46.162c3.616,0,6.558,4.272,6.558,9.523s-2.942,9.523-6.559,9.523h-77.513
				c-3.617,0-6.559-4.272-6.559-9.523s2.942-9.523,6.559-9.523H221.713 M221.713,45.562
				C221.712,45.562,221.712,45.562,221.713,45.562h-77.514c-3.953,0-7.159,4.531-7.159,10.123c0,5.59,3.206,10.123,7.159,10.123
				h77.513c0,0,0,0,0.001,0c3.953,0,7.158-4.533,7.158-10.123C228.871,50.093,225.666,45.562,221.713,45.562L221.713,45.562z"/>
		</g>
		<g>
			
				<line fill="none" stroke="#231F20" stroke-width="0.6" stroke-linecap="round" stroke-linejoin="round" stroke-miterlimit="10" x1="221.712" y1="45.948" x2="221.712" y2="65.417"/>
			
				<line fill="none" stroke="#231F20" stroke-width="0.6" stroke-linecap="round" stroke-linejoin="round" stroke-miterlimit="10" x1="144.199" y1="65.396" x2="144.199" y2="45.535"/>
		</g>
	</g>
</g>
<g>
	<g>
		<path d="M157.509,96.247l0.004-7.82l2.31,0.001c0.691,0.001,1.304,0.155,1.839,0.463c0.535,0.309,0.949,0.746,1.243,1.312
			c0.293,0.565,0.439,1.214,0.439,1.944l0,0.393c0,0.74-0.148,1.393-0.444,1.955c-0.295,0.562-0.716,0.995-1.262,1.298
			c-0.547,0.305-1.172,0.457-1.878,0.456L157.509,96.247z M158.872,89.523l-0.003,5.64h0.886c0.712,0.001,1.26-0.222,1.641-0.668
			c0.382-0.445,0.576-1.086,0.584-1.92l0-0.436c0-0.848-0.184-1.496-0.552-1.943c-0.369-0.448-0.904-0.672-1.606-0.673H158.872z"/>
		<path d="M167.129,96.359c-0.827,0-1.498-0.262-2.011-0.782c-0.514-0.521-0.771-1.215-0.77-2.082v-0.16
			c0-0.58,0.113-1.099,0.336-1.556c0.224-0.456,0.539-0.812,0.943-1.065s0.856-0.381,1.354-0.381
			c0.792,0.001,1.402,0.254,1.834,0.758c0.431,0.506,0.646,1.22,0.646,2.144v0.526l-3.797-0.002c0.039,0.479,0.199,0.86,0.48,1.14
			s0.634,0.419,1.061,0.419c0.598,0.001,1.085-0.24,1.461-0.725l0.703,0.672c-0.233,0.348-0.543,0.617-0.932,0.809
			C168.048,96.265,167.612,96.359,167.129,96.359z M166.976,91.381c-0.358,0-0.647,0.125-0.867,0.375
			c-0.221,0.251-0.361,0.6-0.422,1.047l2.487,0.002v-0.097c-0.029-0.437-0.145-0.768-0.349-0.991
			C167.62,91.492,167.337,91.381,166.976,91.381z"/>
		<path d="M173.945,96.256c-0.057-0.111-0.107-0.292-0.15-0.543c-0.416,0.433-0.924,0.649-1.526,0.649
			c-0.583,0-1.06-0.167-1.428-0.501c-0.369-0.332-0.553-0.744-0.553-1.234c0-0.62,0.23-1.096,0.691-1.427s1.118-0.496,1.974-0.496
			l0.8,0.001v-0.381c0-0.301-0.083-0.542-0.252-0.723c-0.168-0.182-0.424-0.272-0.768-0.272c-0.297,0-0.541,0.075-0.73,0.224
			s-0.285,0.337-0.285,0.566l-1.305-0.001c0-0.318,0.105-0.617,0.317-0.895c0.211-0.277,0.499-0.495,0.862-0.651
			c0.364-0.157,0.77-0.236,1.217-0.236c0.68,0.001,1.222,0.172,1.627,0.514s0.612,0.823,0.622,1.442l-0.001,2.621
			c0,0.522,0.073,0.94,0.219,1.251v0.092H173.945z M172.511,95.315c0.258,0,0.5-0.063,0.729-0.188
			c0.227-0.125,0.398-0.293,0.513-0.504l0-1.096l-0.704-0.001c-0.483,0-0.847,0.084-1.09,0.252
			c-0.244,0.169-0.366,0.407-0.366,0.715c0,0.251,0.083,0.45,0.25,0.599C172.009,95.24,172.232,95.315,172.511,95.315z"/>
		<path d="M178.983,96.365c-0.827,0-1.498-0.261-2.011-0.782c-0.513-0.521-0.77-1.215-0.77-2.082v-0.16
			c0-0.58,0.113-1.099,0.337-1.556c0.224-0.456,0.538-0.812,0.943-1.064c0.405-0.255,0.856-0.382,1.354-0.382
			c0.792,0.001,1.402,0.254,1.833,0.758c0.431,0.506,0.646,1.221,0.646,2.145v0.526l-3.797-0.002
			c0.039,0.479,0.199,0.859,0.48,1.139c0.28,0.279,0.634,0.419,1.06,0.419c0.598,0.001,1.085-0.24,1.461-0.725l0.703,0.673
			c-0.233,0.347-0.543,0.616-0.932,0.808S179.466,96.366,178.983,96.365z M178.83,91.387c-0.358,0-0.647,0.125-0.868,0.375
			c-0.22,0.251-0.361,0.601-0.422,1.048l2.487,0.001v-0.097c-0.029-0.437-0.145-0.768-0.349-0.991S179.191,91.387,178.83,91.387z"/>
		<path d="M185.372,91.643c-0.172-0.028-0.349-0.043-0.532-0.044c-0.598,0-1.001,0.229-1.209,0.688l-0.002,3.975l-1.305-0.001
			l0.003-5.812l1.246,0.001l0.032,0.649c0.315-0.504,0.752-0.757,1.311-0.757c0.186,0.001,0.34,0.026,0.461,0.076L185.372,91.643z"
			/>
		<path d="M189.505,96.264c-0.057-0.111-0.107-0.292-0.15-0.543c-0.416,0.434-0.924,0.649-1.526,0.649
			c-0.583,0-1.06-0.167-1.428-0.501c-0.369-0.332-0.553-0.744-0.553-1.234c0-0.62,0.23-1.096,0.691-1.427
			c0.46-0.33,1.118-0.496,1.974-0.496l0.8,0.001v-0.381c0-0.301-0.083-0.542-0.252-0.723s-0.424-0.272-0.768-0.272
			c-0.297,0-0.541,0.075-0.73,0.224s-0.285,0.337-0.285,0.566l-1.305-0.001c0-0.318,0.105-0.617,0.317-0.895
			c0.211-0.277,0.499-0.495,0.862-0.651c0.363-0.157,0.769-0.236,1.217-0.236c0.68,0.001,1.222,0.172,1.627,0.514
			s0.612,0.823,0.622,1.442l-0.001,2.621c0,0.522,0.073,0.94,0.219,1.252v0.092L189.505,96.264z M188.071,95.323
			c0.258,0,0.5-0.063,0.728-0.188c0.228-0.125,0.398-0.294,0.513-0.505l0-1.096l-0.704-0.001c-0.483,0-0.847,0.084-1.09,0.252
			c-0.244,0.169-0.366,0.407-0.366,0.715c0,0.251,0.083,0.45,0.25,0.599C187.569,95.248,187.792,95.323,188.071,95.323z"/>
		<path d="M193.623,89.041l-0.001,1.413l1.026,0.001l0,0.967l-1.026-0.001l-0.001,3.244c0,0.222,0.044,0.382,0.131,0.48
			s0.244,0.147,0.47,0.147c0.15,0,0.303-0.018,0.457-0.052l0,1.01c-0.297,0.081-0.583,0.122-0.859,0.122
			c-1.002,0-1.503-0.554-1.503-1.661l0.001-3.292h-0.956l0-0.967h0.956l0.001-1.413L193.623,89.041z"/>
		<path d="M195.237,93.308c0-0.57,0.114-1.083,0.339-1.539c0.226-0.457,0.543-0.808,0.951-1.052
			c0.408-0.245,0.878-0.368,1.408-0.368c0.784,0.001,1.42,0.254,1.909,0.758c0.489,0.507,0.752,1.176,0.792,2.011l0.005,0.306
			c0,0.573-0.111,1.085-0.331,1.536c-0.221,0.45-0.536,0.8-0.946,1.046c-0.411,0.248-0.884,0.371-1.421,0.37
			c-0.82,0-1.476-0.273-1.968-0.82c-0.492-0.546-0.738-1.273-0.737-2.183V93.308z M196.542,93.421c0,0.598,0.123,1.066,0.37,1.404
			c0.247,0.339,0.59,0.508,1.031,0.508c0.44,0.001,0.783-0.171,1.029-0.515s0.369-0.847,0.369-1.509
			c0-0.588-0.125-1.053-0.378-1.396c-0.252-0.344-0.595-0.516-1.028-0.517c-0.426,0-0.765,0.169-1.015,0.507
			C196.669,92.242,196.543,92.748,196.542,93.421z"/>
		<path d="M204.788,91.652c-0.172-0.028-0.349-0.043-0.532-0.043c-0.598-0.001-1.001,0.229-1.209,0.687l-0.002,3.975l-1.305-0.001
			l0.003-5.812l1.246,0.001l0.032,0.649c0.315-0.504,0.752-0.757,1.311-0.756c0.186,0,0.34,0.025,0.461,0.075L204.788,91.652z"/>
		<path d="M153.607,106.231c0-0.344-0.12-0.609-0.362-0.795c-0.241-0.187-0.677-0.375-1.308-0.565
			c-0.63-0.189-1.131-0.401-1.503-0.635c-0.712-0.447-1.068-1.031-1.068-1.751c0-0.63,0.257-1.149,0.771-1.558
			c0.514-0.407,1.181-0.611,2.001-0.611c0.544,0.001,1.029,0.102,1.456,0.302s0.76,0.487,1.004,0.857
			c0.243,0.371,0.365,0.782,0.365,1.233l-1.354-0.001c0-0.408-0.128-0.729-0.384-0.959c-0.256-0.231-0.622-0.347-1.098-0.348
			c-0.444,0-0.789,0.095-1.034,0.284c-0.246,0.19-0.369,0.455-0.369,0.795c0,0.287,0.132,0.526,0.397,0.718s0.702,0.378,1.31,0.56
			c0.609,0.181,1.098,0.387,1.466,0.617c0.369,0.231,0.639,0.497,0.811,0.796s0.257,0.649,0.257,1.05c0,0.652-0.25,1.171-0.75,1.555
			c-0.5,0.385-1.177,0.577-2.033,0.576c-0.566,0-1.086-0.104-1.561-0.314c-0.474-0.21-0.842-0.499-1.106-0.868
			c-0.263-0.369-0.394-0.799-0.394-1.289h1.359c0,0.444,0.146,0.789,0.44,1.032s0.714,0.365,1.262,0.365
			c0.473,0.001,0.828-0.095,1.066-0.286C153.488,106.8,153.607,106.546,153.607,106.231z"/>
		<path d="M157.67,101.022l0,1.413l1.026,0.001l0,0.967l-1.026-0.001l-0.002,3.244c0,0.222,0.044,0.382,0.131,0.48
			c0.088,0.099,0.245,0.147,0.47,0.148c0.15,0,0.303-0.018,0.457-0.053l0,1.01c-0.297,0.082-0.583,0.122-0.859,0.122
			c-1.002,0-1.504-0.553-1.503-1.66l0.002-3.292l-0.956-0.001l0-0.967l0.956,0.001l0-1.413H157.67z"/>
		<path d="M159.285,105.289c0-0.57,0.113-1.083,0.339-1.539c0.226-0.457,0.542-0.807,0.951-1.052
			c0.408-0.245,0.877-0.368,1.407-0.367c0.784,0,1.421,0.253,1.909,0.757c0.489,0.507,0.752,1.176,0.792,2.011l0.005,0.306
			c0,0.573-0.111,1.085-0.331,1.536c-0.221,0.451-0.536,0.8-0.946,1.046c-0.41,0.248-0.884,0.371-1.421,0.371
			c-0.82-0.001-1.476-0.274-1.968-0.821c-0.492-0.546-0.738-1.273-0.737-2.183V105.289z M160.59,105.402
			c0,0.598,0.123,1.066,0.37,1.404c0.247,0.339,0.591,0.508,1.031,0.509c0.44,0,0.783-0.172,1.028-0.516
			c0.246-0.344,0.369-0.847,0.369-1.509c0-0.588-0.125-1.053-0.378-1.396c-0.251-0.344-0.595-0.516-1.028-0.516
			c-0.426-0.001-0.765,0.168-1.016,0.506C160.716,104.224,160.59,104.729,160.59,105.402z"/>
		<path d="M168.836,103.634c-0.172-0.028-0.349-0.043-0.532-0.043c-0.598-0.001-1.001,0.229-1.209,0.687l-0.002,3.975l-1.305-0.001
			l0.003-5.812l1.246,0.001l0.032,0.649c0.315-0.504,0.752-0.756,1.311-0.756c0.186,0,0.34,0.025,0.462,0.075L168.836,103.634z"/>
		<path d="M172.969,108.255c-0.057-0.111-0.107-0.292-0.15-0.543c-0.416,0.434-0.924,0.65-1.525,0.649
			c-0.583,0-1.06-0.166-1.429-0.5c-0.368-0.333-0.553-0.745-0.552-1.235c0-0.62,0.23-1.096,0.69-1.426
			c0.46-0.331,1.119-0.497,1.975-0.496h0.8v-0.381c0-0.301-0.084-0.542-0.252-0.723c-0.168-0.181-0.424-0.271-0.768-0.271
			c-0.297-0.001-0.541,0.074-0.73,0.223s-0.285,0.337-0.285,0.566l-1.305-0.001c0-0.318,0.106-0.617,0.317-0.894
			c0.211-0.277,0.499-0.495,0.862-0.652c0.364-0.157,0.769-0.236,1.217-0.235c0.68,0,1.223,0.171,1.627,0.513
			c0.405,0.343,0.612,0.824,0.623,1.443l-0.001,2.621c0,0.522,0.073,0.94,0.22,1.251v0.092L172.969,108.255z M171.536,107.314
			c0.258,0.001,0.5-0.063,0.728-0.188c0.227-0.125,0.398-0.294,0.513-0.505l0-1.096h-0.704c-0.483,0-0.847,0.083-1.091,0.251
			c-0.244,0.169-0.365,0.407-0.365,0.715c0,0.251,0.083,0.45,0.25,0.599C171.033,107.239,171.256,107.314,171.536,107.314z"/>
		<path d="M175.221,105.307c0-0.902,0.213-1.621,0.637-2.16c0.425-0.539,0.988-0.809,1.69-0.808c0.663,0,1.184,0.231,1.563,0.692
			l0.06-0.585l1.176,0.001l-0.003,5.634c0,0.764-0.238,1.365-0.712,1.805c-0.475,0.44-1.115,0.66-1.921,0.66
			c-0.426-0.001-0.842-0.09-1.248-0.267c-0.407-0.178-0.715-0.409-0.927-0.696l0.618-0.783c0.401,0.476,0.895,0.714,1.482,0.715
			c0.433,0,0.776-0.117,1.026-0.352s0.376-0.579,0.376-1.034v-0.393c-0.376,0.42-0.877,0.629-1.504,0.629
			c-0.68-0.001-1.236-0.271-1.667-0.812C175.436,107.013,175.221,106.264,175.221,105.307z M176.521,105.421
			c0,0.584,0.119,1.043,0.356,1.378c0.238,0.335,0.569,0.503,0.991,0.503c0.526,0,0.917-0.226,1.171-0.677l0.001-2.557
			c-0.247-0.44-0.633-0.66-1.16-0.66c-0.43,0-0.764,0.169-1.002,0.509C176.641,104.257,176.521,104.759,176.521,105.421z"/>
		<path d="M184.243,108.368c-0.827,0-1.498-0.262-2.011-0.782c-0.514-0.521-0.771-1.215-0.77-2.082v-0.16
			c0-0.58,0.112-1.099,0.336-1.556c0.225-0.456,0.539-0.812,0.944-1.065c0.405-0.254,0.856-0.381,1.354-0.381
			c0.792,0,1.403,0.254,1.834,0.758c0.431,0.506,0.646,1.22,0.646,2.144l0,0.526l-3.797-0.002c0.04,0.479,0.2,0.859,0.48,1.14
			c0.281,0.279,0.635,0.419,1.061,0.419c0.598,0,1.085-0.24,1.461-0.725l0.703,0.672c-0.233,0.348-0.544,0.617-0.932,0.809
			C185.163,108.273,184.727,108.368,184.243,108.368z M184.09,103.39c-0.358,0-0.647,0.125-0.868,0.375
			c-0.221,0.25-0.361,0.6-0.422,1.047l2.487,0.002l0-0.097c-0.029-0.437-0.145-0.768-0.349-0.992
			C184.734,103.501,184.452,103.39,184.09,103.39z"/>
		<path d="M195.784,101.542l-2.438-0.001l-0.003,6.725l-1.348-0.001l0.003-6.725l-2.417-0.001l0-1.096l6.204,0.003L195.784,101.542z
			"/>
		<path d="M199.25,108.269c-0.057-0.111-0.107-0.292-0.15-0.543c-0.416,0.434-0.924,0.649-1.525,0.649
			c-0.583,0-1.06-0.166-1.429-0.501c-0.368-0.332-0.553-0.744-0.552-1.234c0-0.62,0.23-1.096,0.691-1.427
			c0.46-0.33,1.118-0.496,1.974-0.496l0.8,0.001v-0.381c0-0.301-0.084-0.542-0.252-0.723c-0.168-0.181-0.424-0.271-0.768-0.272
			c-0.297,0-0.541,0.075-0.73,0.224s-0.285,0.337-0.285,0.566l-1.305-0.001c0-0.318,0.106-0.617,0.317-0.895
			s0.499-0.494,0.863-0.651c0.363-0.157,0.769-0.236,1.216-0.236c0.68,0.001,1.223,0.172,1.627,0.514
			c0.405,0.342,0.612,0.824,0.623,1.443l-0.001,2.621c0,0.522,0.073,0.94,0.22,1.251v0.092L199.25,108.269z M197.816,107.328
			c0.258,0,0.5-0.063,0.728-0.188c0.228-0.125,0.398-0.294,0.514-0.505l0-1.096l-0.704-0.001c-0.483,0-0.847,0.084-1.091,0.252
			c-0.244,0.169-0.365,0.407-0.365,0.715c0,0.251,0.083,0.45,0.249,0.599C197.314,107.253,197.537,107.328,197.816,107.328z"/>
		<path d="M202.943,102.459l0.037,0.671c0.43-0.519,0.994-0.778,1.692-0.777c1.21,0,1.826,0.693,1.847,2.08l-0.002,3.84
			l-1.305-0.001l0.002-3.766c0-0.368-0.08-0.642-0.238-0.818c-0.16-0.178-0.42-0.266-0.782-0.266
			c-0.526-0.001-0.918,0.236-1.177,0.713l-0.002,4.136l-1.305-0.001l0.003-5.812L202.943,102.459z"/>
		<path d="M209.735,105.781l-0.58,0.596l-0.001,1.896l-1.305-0.001l0.004-8.25l1.305,0.001l-0.002,4.759l0.409-0.511l1.607-1.809
			l1.568,0.001l-2.161,2.422l2.389,3.39l-1.509-0.001L209.735,105.781z"/>
	</g>
</g>
<g>
	<g>
		<path d="M159.635,58.875l0.004-7.82l2.31,0.001c0.691,0.001,1.304,0.155,1.839,0.463c0.535,0.309,0.949,0.746,1.243,1.312
			c0.293,0.565,0.439,1.214,0.439,1.944l0,0.393c0,0.74-0.148,1.393-0.444,1.955c-0.295,0.562-0.716,0.995-1.262,1.298
			c-0.547,0.305-1.172,0.457-1.878,0.456L159.635,58.875z M160.998,52.151l-0.003,5.64h0.886c0.712,0.001,1.26-0.222,1.641-0.668
			c0.382-0.445,0.576-1.086,0.584-1.92l0-0.436c0-0.848-0.184-1.496-0.552-1.943c-0.369-0.448-0.904-0.672-1.606-0.673H160.998z"/>
		<path d="M169.255,58.987c-0.827,0-1.498-0.262-2.011-0.782c-0.514-0.521-0.771-1.215-0.77-2.082v-0.16
			c0-0.58,0.113-1.099,0.336-1.556c0.224-0.456,0.539-0.812,0.943-1.065s0.856-0.381,1.354-0.381
			c0.792,0.001,1.402,0.254,1.834,0.758c0.431,0.506,0.646,1.22,0.646,2.144v0.526l-3.797-0.002c0.039,0.479,0.199,0.86,0.48,1.14
			s0.634,0.419,1.061,0.419c0.598,0.001,1.085-0.24,1.461-0.725l0.703,0.672c-0.233,0.348-0.543,0.617-0.932,0.809
			C170.174,58.892,169.738,58.987,169.255,58.987z M169.102,54.008c-0.358,0-0.647,0.125-0.867,0.375
			c-0.221,0.251-0.361,0.6-0.422,1.047l2.487,0.002v-0.097c-0.029-0.437-0.145-0.768-0.349-0.991
			C169.746,54.12,169.463,54.008,169.102,54.008z"/>
		<path d="M176.071,58.883c-0.057-0.111-0.107-0.292-0.15-0.543c-0.416,0.433-0.924,0.649-1.526,0.649
			c-0.583,0-1.06-0.167-1.428-0.501c-0.369-0.332-0.553-0.744-0.553-1.234c0-0.62,0.23-1.096,0.691-1.427s1.118-0.496,1.974-0.496
			l0.8,0.001v-0.381c0-0.301-0.083-0.542-0.252-0.723c-0.168-0.182-0.424-0.272-0.768-0.272c-0.297,0-0.541,0.075-0.73,0.224
			s-0.285,0.337-0.285,0.566l-1.305-0.001c0-0.318,0.105-0.617,0.317-0.895c0.211-0.277,0.499-0.495,0.862-0.651
			c0.364-0.157,0.77-0.236,1.217-0.236c0.68,0.001,1.222,0.172,1.627,0.514s0.612,0.823,0.622,1.442l-0.001,2.621
			c0,0.522,0.073,0.94,0.219,1.251v0.092H176.071z M174.637,57.943c0.258,0,0.5-0.063,0.729-0.188
			c0.227-0.125,0.398-0.293,0.513-0.504l0-1.096l-0.704-0.001c-0.483,0-0.847,0.084-1.09,0.252
			c-0.244,0.169-0.366,0.407-0.366,0.715c0,0.251,0.083,0.45,0.25,0.599C174.135,57.868,174.358,57.943,174.637,57.943z"/>
		<path d="M181.109,58.993c-0.827,0-1.498-0.261-2.011-0.782c-0.513-0.521-0.77-1.215-0.77-2.082v-0.16
			c0-0.58,0.113-1.099,0.337-1.556c0.224-0.456,0.538-0.812,0.943-1.064c0.405-0.255,0.856-0.382,1.354-0.382
			c0.792,0.001,1.402,0.254,1.833,0.758c0.431,0.506,0.646,1.221,0.646,2.145v0.526l-3.797-0.002
			c0.039,0.479,0.199,0.859,0.48,1.139c0.28,0.279,0.634,0.419,1.06,0.419c0.598,0.001,1.085-0.24,1.461-0.725l0.703,0.673
			c-0.233,0.347-0.543,0.616-0.932,0.808S181.592,58.994,181.109,58.993z M180.956,54.014c-0.358,0-0.647,0.125-0.868,0.375
			c-0.22,0.251-0.361,0.601-0.422,1.048l2.487,0.001v-0.097c-0.029-0.437-0.145-0.768-0.349-0.991S181.317,54.014,180.956,54.014z"
			/>
		<path d="M187.498,54.27c-0.172-0.028-0.349-0.043-0.532-0.044c-0.598,0-1.001,0.229-1.209,0.688l-0.002,3.975l-1.305-0.001
			l0.003-5.812l1.246,0.001l0.032,0.649c0.315-0.504,0.752-0.757,1.311-0.757c0.186,0.001,0.34,0.026,0.461,0.076L187.498,54.27z"/>
		<path d="M191.631,58.891c-0.057-0.111-0.107-0.292-0.15-0.543c-0.416,0.434-0.924,0.649-1.526,0.649
			c-0.583,0-1.06-0.167-1.428-0.501c-0.369-0.332-0.553-0.744-0.553-1.234c0-0.62,0.23-1.096,0.691-1.427
			c0.46-0.33,1.118-0.496,1.974-0.496l0.8,0.001v-0.381c0-0.301-0.083-0.542-0.252-0.723s-0.424-0.272-0.768-0.272
			c-0.297,0-0.541,0.075-0.73,0.224s-0.285,0.337-0.285,0.566l-1.305-0.001c0-0.318,0.105-0.617,0.317-0.895
			c0.211-0.277,0.499-0.495,0.862-0.651c0.363-0.157,0.769-0.236,1.217-0.236c0.68,0.001,1.222,0.172,1.627,0.514
			s0.612,0.823,0.622,1.442l-0.001,2.621c0,0.522,0.073,0.94,0.219,1.252v0.092L191.631,58.891z M190.197,57.951
			c0.258,0,0.5-0.063,0.728-0.188c0.228-0.125,0.398-0.294,0.513-0.505l0-1.096l-0.704-0.001c-0.483,0-0.847,0.084-1.09,0.252
			c-0.244,0.169-0.366,0.407-0.366,0.715c0,0.251,0.083,0.45,0.25,0.599C189.695,57.875,189.918,57.951,190.197,57.951z"/>
		<path d="M195.749,51.668l-0.001,1.413l1.026,0.001l0,0.967l-1.026-0.001l-0.001,3.244c0,0.222,0.044,0.382,0.131,0.48
			s0.244,0.147,0.47,0.147c0.15,0,0.303-0.018,0.457-0.052l0,1.01C196.506,58.959,196.22,59,195.944,59
			c-1.002,0-1.503-0.554-1.503-1.661l0.001-3.292h-0.956l0-0.967h0.956l0.001-1.413L195.749,51.668z"/>
		<path d="M197.363,55.935c0-0.57,0.114-1.083,0.339-1.539c0.226-0.457,0.543-0.808,0.951-1.052
			c0.408-0.245,0.878-0.368,1.408-0.368c0.784,0.001,1.42,0.254,1.909,0.758c0.489,0.507,0.752,1.176,0.792,2.011l0.005,0.306
			c0,0.573-0.111,1.085-0.331,1.536c-0.221,0.45-0.536,0.8-0.946,1.046c-0.411,0.248-0.884,0.371-1.421,0.37
			c-0.82,0-1.476-0.273-1.968-0.82c-0.492-0.546-0.738-1.273-0.737-2.183V55.935z M198.668,56.048c0,0.598,0.123,1.066,0.37,1.404
			c0.247,0.339,0.59,0.508,1.031,0.508c0.44,0.001,0.783-0.171,1.029-0.515s0.369-0.847,0.369-1.509
			c0-0.588-0.125-1.053-0.378-1.396c-0.252-0.344-0.595-0.516-1.028-0.517c-0.426,0-0.765,0.169-1.015,0.507
			C198.795,54.87,198.669,55.375,198.668,56.048z"/>
		<path d="M206.914,54.28c-0.172-0.028-0.349-0.043-0.532-0.043c-0.598-0.001-1.001,0.229-1.209,0.687l-0.002,3.975l-1.305-0.001
			l0.003-5.812l1.246,0.001l0.032,0.649c0.315-0.504,0.752-0.757,1.311-0.756c0.186,0,0.34,0.025,0.461,0.075L206.914,54.28z"/>
	</g>
</g>
<g>
	<g>
		<path d="M94.362,500.48h-1.515v3.008h-1.359v-7.82h2.75c0.902,0,1.599,0.202,2.089,0.607s0.736,0.991,0.736,1.758
			c0,0.523-0.126,0.961-0.379,1.314c-0.252,0.353-0.604,0.624-1.055,0.814l1.756,3.257v0.069h-1.456L94.362,500.48z M92.848,499.385
			h1.396c0.458,0,0.816-0.115,1.074-0.347c0.258-0.23,0.387-0.547,0.387-0.947c0-0.42-0.119-0.743-0.357-0.973
			c-0.238-0.229-0.594-0.348-1.066-0.354h-1.434V499.385z"/>
		<path d="M100.786,503.596c-0.827,0-1.498-0.261-2.011-0.781c-0.514-0.521-0.771-1.215-0.771-2.081v-0.162
			c0-0.58,0.112-1.098,0.335-1.555c0.224-0.456,0.538-0.812,0.943-1.066c0.405-0.254,0.856-0.381,1.354-0.381
			c0.792,0,1.403,0.252,1.834,0.758c0.431,0.504,0.647,1.219,0.647,2.143v0.526H99.32c0.04,0.479,0.2,0.859,0.48,1.139
			c0.281,0.279,0.635,0.419,1.061,0.419c0.598,0,1.085-0.242,1.461-0.725l0.704,0.671c-0.233,0.348-0.543,0.617-0.932,0.809
			C101.706,503.5,101.27,503.596,100.786,503.596z M100.63,498.616c-0.358,0-0.647,0.126-0.867,0.377
			c-0.221,0.25-0.361,0.6-0.422,1.047h2.487v-0.097c-0.029-0.437-0.145-0.768-0.349-0.991S100.992,498.616,100.63,498.616z"/>
		<path d="M107.387,501.909c0-0.232-0.096-0.41-0.287-0.531c-0.192-0.122-0.51-0.229-0.954-0.322
			c-0.444-0.094-0.814-0.212-1.112-0.355c-0.652-0.314-0.978-0.771-0.978-1.369c0-0.501,0.211-0.92,0.634-1.257
			s0.959-0.505,1.611-0.505c0.695,0,1.256,0.172,1.684,0.516c0.428,0.344,0.642,0.789,0.642,1.338h-1.305
			c0-0.251-0.093-0.46-0.279-0.626c-0.186-0.167-0.433-0.25-0.741-0.25c-0.287,0-0.52,0.066-0.701,0.198
			c-0.181,0.133-0.271,0.311-0.271,0.532c0,0.2,0.084,0.356,0.252,0.468c0.168,0.11,0.508,0.223,1.021,0.335
			c0.512,0.113,0.914,0.247,1.206,0.403c0.292,0.155,0.508,0.343,0.649,0.561c0.142,0.219,0.212,0.484,0.212,0.795
			c0,0.523-0.217,0.946-0.65,1.271s-1.001,0.486-1.703,0.486c-0.476,0-0.9-0.086-1.273-0.258s-0.663-0.408-0.87-0.709
			s-0.312-0.625-0.312-0.972h1.268c0.018,0.308,0.134,0.545,0.349,0.711c0.215,0.167,0.5,0.25,0.854,0.25
			c0.344,0,0.605-0.065,0.784-0.196S107.387,502.12,107.387,501.909z"/>
		<path d="M112.366,503.596c-0.827,0-1.498-0.261-2.011-0.781c-0.514-0.521-0.771-1.215-0.771-2.081v-0.162
			c0-0.58,0.112-1.098,0.335-1.555c0.224-0.456,0.538-0.812,0.943-1.066c0.405-0.254,0.856-0.381,1.354-0.381
			c0.792,0,1.403,0.252,1.834,0.758c0.431,0.504,0.647,1.219,0.647,2.143v0.526H110.9c0.04,0.479,0.2,0.859,0.48,1.139
			c0.281,0.279,0.635,0.419,1.061,0.419c0.598,0,1.085-0.242,1.461-0.725l0.704,0.671c-0.233,0.348-0.543,0.617-0.932,0.809
			C113.286,503.5,112.85,503.596,112.366,503.596z M112.21,498.616c-0.358,0-0.647,0.126-0.867,0.377
			c-0.221,0.25-0.361,0.6-0.422,1.047h2.487v-0.097c-0.029-0.437-0.145-0.768-0.349-0.991S112.572,498.616,112.21,498.616z"/>
		<path d="M118.752,498.869c-0.172-0.028-0.349-0.043-0.532-0.043c-0.598,0-1.001,0.229-1.208,0.688v3.975h-1.305v-5.812h1.246
			l0.032,0.65c0.315-0.506,0.752-0.758,1.311-0.758c0.186,0,0.34,0.025,0.462,0.075L118.752,498.869z"/>
		<path d="M121.723,501.834l1.23-4.157h1.348l-2.014,5.812h-1.133l-2.03-5.812h1.354L121.723,501.834z"/>
		<path d="M127.604,503.596c-0.827,0-1.498-0.261-2.012-0.781c-0.514-0.521-0.771-1.215-0.771-2.081v-0.162
			c0-0.58,0.112-1.098,0.336-1.555c0.224-0.456,0.538-0.812,0.942-1.066c0.405-0.254,0.856-0.381,1.354-0.381
			c0.792,0,1.403,0.252,1.834,0.758c0.432,0.504,0.647,1.219,0.647,2.143v0.526h-3.797c0.04,0.479,0.2,0.859,0.481,1.139
			c0.281,0.279,0.634,0.419,1.061,0.419c0.598,0,1.085-0.242,1.461-0.725l0.704,0.671c-0.233,0.348-0.543,0.617-0.932,0.809
			C128.523,503.5,128.087,503.596,127.604,503.596z M127.448,498.616c-0.358,0-0.647,0.126-0.868,0.377
			c-0.22,0.25-0.36,0.6-0.421,1.047h2.487v-0.097c-0.029-0.437-0.145-0.768-0.349-0.991S127.81,498.616,127.448,498.616z"/>
		<path d="M138.319,500.175h-3.147v3.313h-1.359v-7.82h4.968v1.096h-3.609v2.325h3.147V500.175z"/>
		<path d="M142.176,503.596c-0.827,0-1.498-0.261-2.011-0.781c-0.514-0.521-0.771-1.215-0.771-2.081v-0.162
			c0-0.58,0.112-1.098,0.335-1.555c0.224-0.456,0.538-0.812,0.943-1.066c0.405-0.254,0.856-0.381,1.354-0.381
			c0.792,0,1.403,0.252,1.834,0.758c0.431,0.504,0.647,1.219,0.647,2.143v0.526h-3.797c0.04,0.479,0.2,0.859,0.48,1.139
			c0.281,0.279,0.635,0.419,1.061,0.419c0.598,0,1.085-0.242,1.461-0.725l0.704,0.671c-0.233,0.348-0.543,0.617-0.932,0.809
			C143.095,503.5,142.659,503.596,142.176,503.596z M142.02,498.616c-0.358,0-0.647,0.126-0.867,0.377
			c-0.221,0.25-0.361,0.6-0.422,1.047h2.487v-0.097c-0.029-0.437-0.145-0.768-0.349-0.991S142.382,498.616,142.02,498.616z"/>
		<path d="M148.079,503.596c-0.827,0-1.498-0.261-2.012-0.781c-0.514-0.521-0.771-1.215-0.771-2.081v-0.162
			c0-0.58,0.112-1.098,0.336-1.555c0.224-0.456,0.538-0.812,0.942-1.066c0.405-0.254,0.856-0.381,1.354-0.381
			c0.792,0,1.403,0.252,1.834,0.758c0.432,0.504,0.647,1.219,0.647,2.143v0.526h-3.797c0.04,0.479,0.2,0.859,0.481,1.139
			c0.281,0.279,0.634,0.419,1.061,0.419c0.598,0,1.085-0.242,1.461-0.725l0.704,0.671c-0.233,0.348-0.543,0.617-0.932,0.809
			C148.998,503.5,148.562,503.596,148.079,503.596z M147.923,498.616c-0.358,0-0.647,0.126-0.868,0.377
			c-0.22,0.25-0.36,0.6-0.421,1.047h2.487v-0.097c-0.029-0.437-0.145-0.768-0.349-0.991S148.285,498.616,147.923,498.616z"/>
		<path d="M151.178,500.54c0-0.896,0.208-1.614,0.623-2.157c0.416-0.542,0.972-0.813,1.67-0.813c0.616,0,1.114,0.215,1.493,0.645
			v-2.976h1.305v8.25h-1.182l-0.064-0.602c-0.39,0.473-0.911,0.709-1.563,0.709c-0.68,0-1.231-0.274-1.651-0.821
			C151.388,502.226,151.178,501.481,151.178,500.54z M152.483,500.652c0,0.591,0.114,1.052,0.341,1.383
			c0.228,0.331,0.551,0.497,0.97,0.497c0.534,0,0.924-0.238,1.171-0.715v-2.48c-0.24-0.466-0.626-0.699-1.16-0.699
			c-0.422,0-0.749,0.168-0.978,0.503S152.483,499.979,152.483,500.652z"/>
		<path d="M166.63,501.555l1.203-5.887h1.348l-1.805,7.82h-1.3l-1.488-5.71l-1.52,5.71h-1.305l-1.805-7.82h1.348l1.214,5.876
			l1.493-5.876h1.139L166.63,501.555z"/>
		<path d="M173.344,503.488c-0.057-0.111-0.107-0.292-0.15-0.542c-0.416,0.433-0.924,0.649-1.525,0.649
			c-0.583,0-1.06-0.167-1.429-0.499c-0.369-0.334-0.553-0.745-0.553-1.236c0-0.619,0.23-1.095,0.69-1.426
			c0.46-0.331,1.118-0.496,1.974-0.496h0.8v-0.382c0-0.301-0.084-0.542-0.252-0.723s-0.424-0.271-0.768-0.271
			c-0.297,0-0.541,0.074-0.73,0.223s-0.285,0.337-0.285,0.566h-1.305c0-0.318,0.105-0.617,0.317-0.895s0.499-0.495,0.862-0.652
			c0.364-0.157,0.769-0.236,1.217-0.236c0.68,0,1.223,0.171,1.627,0.513s0.612,0.823,0.623,1.442v2.621
			c0,0.522,0.073,0.939,0.22,1.252v0.091H173.344z M171.91,502.548c0.258,0,0.5-0.063,0.728-0.188
			c0.227-0.125,0.398-0.294,0.513-0.505v-1.096h-0.704c-0.483,0-0.847,0.084-1.09,0.253c-0.244,0.168-0.365,0.406-0.365,0.714
			c0,0.251,0.083,0.45,0.25,0.599C171.408,502.474,171.631,502.548,171.91,502.548z"/>
		<path d="M177.458,496.265v1.412h1.026v0.967h-1.026v3.244c0,0.222,0.044,0.382,0.132,0.48c0.087,0.099,0.244,0.148,0.47,0.148
			c0.15,0,0.303-0.019,0.457-0.055v1.01c-0.297,0.083-0.583,0.124-0.859,0.124c-1.002,0-1.504-0.554-1.504-1.659v-3.293h-0.956
			v-0.967h0.956v-1.412H177.458z"/>
		<path d="M182.04,503.596c-0.827,0-1.498-0.261-2.011-0.781c-0.514-0.521-0.771-1.215-0.771-2.081v-0.162
			c0-0.58,0.112-1.098,0.335-1.555c0.224-0.456,0.538-0.812,0.943-1.066c0.405-0.254,0.856-0.381,1.354-0.381
			c0.792,0,1.403,0.252,1.834,0.758c0.431,0.504,0.647,1.219,0.647,2.143v0.526h-3.797c0.04,0.479,0.2,0.859,0.48,1.139
			c0.281,0.279,0.635,0.419,1.061,0.419c0.598,0,1.085-0.242,1.461-0.725l0.704,0.671c-0.233,0.348-0.543,0.617-0.932,0.809
			C182.959,503.5,182.523,503.596,182.04,503.596z M181.884,498.616c-0.358,0-0.647,0.126-0.867,0.377
			c-0.221,0.25-0.361,0.6-0.422,1.047h2.487v-0.097c-0.029-0.437-0.145-0.768-0.349-0.991S182.246,498.616,181.884,498.616z"/>
		<path d="M188.426,498.869c-0.172-0.028-0.349-0.043-0.532-0.043c-0.598,0-1.001,0.229-1.208,0.688v3.975h-1.305v-5.812h1.246
			l0.032,0.65c0.315-0.506,0.752-0.758,1.311-0.758c0.186,0,0.34,0.025,0.462,0.075L188.426,498.869z"/>
		<path d="M197.444,496.764h-2.438v6.725h-1.348v-6.725h-2.417v-1.096h6.204V496.764z"/>
		<path d="M200.914,503.488c-0.057-0.111-0.107-0.292-0.15-0.542c-0.416,0.433-0.924,0.649-1.525,0.649
			c-0.583,0-1.06-0.167-1.429-0.499c-0.369-0.334-0.553-0.745-0.553-1.236c0-0.619,0.23-1.095,0.69-1.426
			c0.46-0.331,1.118-0.496,1.974-0.496h0.8v-0.382c0-0.301-0.084-0.542-0.252-0.723s-0.424-0.271-0.768-0.271
			c-0.297,0-0.541,0.074-0.73,0.223s-0.285,0.337-0.285,0.566h-1.305c0-0.318,0.105-0.617,0.317-0.895s0.499-0.495,0.862-0.652
			c0.363-0.157,0.769-0.236,1.216-0.236c0.68,0,1.223,0.171,1.627,0.513s0.612,0.823,0.623,1.442v2.621
			c0,0.522,0.073,0.939,0.22,1.252v0.091H200.914z M199.48,502.548c0.258,0,0.5-0.063,0.728-0.188
			c0.228-0.125,0.398-0.294,0.513-0.505v-1.096h-0.704c-0.483,0-0.847,0.084-1.09,0.253c-0.244,0.168-0.365,0.406-0.365,0.714
			c0,0.251,0.083,0.45,0.25,0.599C198.978,502.474,199.201,502.548,199.48,502.548z"/>
		<path d="M204.604,497.677l0.038,0.672c0.43-0.52,0.994-0.779,1.692-0.779c1.21,0,1.826,0.693,1.848,2.078v3.841h-1.305v-3.765
			c0-0.369-0.08-0.643-0.239-0.819c-0.16-0.178-0.42-0.267-0.782-0.267c-0.526,0-0.918,0.238-1.176,0.715v4.136h-1.305v-5.812
			H204.604z"/>
		<path d="M211.398,500.996l-0.58,0.597v1.896h-1.305v-8.25h1.305v4.759l0.408-0.51l1.606-1.811h1.568l-2.159,2.422l2.39,3.39
			h-1.509L211.398,500.996z"/>
	</g>
</g>
</svg>
