<?xml version="1.0" encoding="utf-8"?>
<!-- Generator: Adobe Illustrator 15.0.0, SVG Export Plug-In . SVG Version: 6.00 Build 0)  -->
<!DOCTYPE svg PUBLIC "-//W3C//DTD SVG 1.1//EN" "http://www.w3.org/Graphics/SVG/1.1/DTD/svg11.dtd">
<svg version="1.1" id="Layer_1" xmlns="http://www.w3.org/2000/svg" xmlns:xlink="http://www.w3.org/1999/xlink" x="0px" y="0px"
	 width="1200px" height="600px" viewBox="-90 0 1200 600" enable-background="new -90 0 1200 600" xml:space="preserve">
<g>
	<g>
		<path fill="none" d="M726.607,311.805"/>
		<path fill="#D2D3D3" d="M726.607,311.805H476.362V152.348h-33.006v6h27.006v159.457h250.246v220.818H542.014v6h184.594V311.805z"
			/>
	</g>
	<g>
		<path fill="none" stroke="#7F7F7F" stroke-width="0.6" stroke-miterlimit="10" d="M726.607,311.805"/>
		<path fill="#7F7F7F" d="M475.762,152.948v158.856v0.6h0.6h249.646v231.619H542.613v-4.801h177.994h0.6v-0.6V317.805v-0.6h-0.6
			H470.962V158.348v-0.6h-0.6h-26.406v-4.8H475.762 M476.362,152.348h-33.006v6h27.006v159.457h250.246v220.818H542.014v6h184.594
			V311.805H476.362V152.348L476.362,152.348z"/>
	</g>
</g>
<g>
	<g>
		<polyline fill="none" points="868.464,430.734 868.464,159.713 600.438,159.713 600.438,311.863 		"/>
		<path fill="#D2D3D3" d="M874.464,436.672V153.651H594.438v158.15h6v-152.15h268.025v271.021H192.076V158.345h129.919v-6H192.076
			v-0.059h-6V544.62h333.063v-6H192.076V436.672H874.464z"/>
	</g>
	<path fill="#7F7F7F" d="M191.476,152.948v0.059h0.6h129.319v4.8H192.076h-0.6v0.6v272.327v0.6h0.6h676.388h0.6v-0.6V159.713v-0.6
		h-0.6H600.438h-0.6v0.6v152.15h0.6v-152.15h268.025v271.021H192.076V158.407h129.919v-6H192.076v-0.059l0,0h-6v392.334h333.063v-6
		H192.076V436.734h682.388V153.713H594.438v158.15h0.6v-157.55h278.826v281.821H192.076h-0.6v0.6v101.948v0.6h0.6h326.463v4.801
		H186.676V152.948H191.476"/>
</g>
<g>
	<g>
		<polygon fill="#DBC38F" points="172.464,83.222 311.892,83.222 450.097,83.222 492.778,83.222 492.778,120.151 450.097,120.151 
			450.097,166.311 311.892,166.311 311.892,120.151 172.464,120.151 		"/>
		<g opacity="0.7">
			<path fill="#231F20" d="M492.178,83.822v35.729h-42.081h-0.6v0.6v45.56H312.492v-45.56v-0.6h-0.6H173.064V83.822h138.827h138.205
				H492.178 M492.778,83.222h-42.681H311.892H172.464v36.929h139.427v46.16h138.205v-46.16h42.681V83.222L492.778,83.222z"/>
		</g>
		<g>
			
				<linearGradient id="SVGID_1_" gradientUnits="userSpaceOnUse" x1="147.9136" y1="-535.9844" x2="147.9136" y2="-523.7217" gradientTransform="matrix(-1 0 0 1 626.3809 630.1699)">
				<stop  offset="0" style="stop-color:#D9991E"/>
				<stop  offset="0.1697" style="stop-color:#F6C41E"/>
				<stop  offset="0.5" style="stop-color:#F6EDDB"/>
				<stop  offset="0.8545" style="stop-color:#F6C41E"/>
				<stop  offset="1" style="stop-color:#D9991E"/>
			</linearGradient>
			<rect x="465.571" y="94.269" fill="url(#SVGID_1_)" width="25.792" height="12.043"/>
			<g opacity="0.5">
				<path fill="#231F20" d="M490.764,94.869v11.226h-24.592V94.869H490.764 M491.364,94.269h-25.792v12.426h25.792V94.269
					L491.364,94.269z"/>
			</g>
		</g>
		<g opacity="0.8">
			<polygon fill="#EFDCB4" points="438.751,92.549 438.751,93.42 450.501,93.42 450.501,106.83 438.751,106.83 438.751,158.515 
				337.846,158.515 337.846,92.549 			"/>
		</g>
		<g opacity="0.5">
			<path fill="#231F20" d="M438.151,93.15v0.27v0.6h0.6h11.15v12.211h-11.15h-0.6v0.6v51.083h-99.705V93.15H438.151 M438.751,92.55
				H337.846v65.965h100.905v-51.684h11.75V93.42h-11.75V92.55L438.751,92.55z"/>
		</g>
		<g>
			<g>
				
					<linearGradient id="SVGID_2_" gradientUnits="userSpaceOnUse" x1="4.2407" y1="529.3203" x2="4.2407" y2="542.5614" gradientTransform="matrix(0 1 1 0 -121.2998 121.4541)">
					<stop  offset="0" style="stop-color:#D9991E"/>
					<stop  offset="0.1697" style="stop-color:#F6C41E"/>
					<stop  offset="0.5" style="stop-color:#F6EDDB"/>
					<stop  offset="0.8545" style="stop-color:#F6C41E"/>
					<stop  offset="1" style="stop-color:#D9991E"/>
				</linearGradient>
				<rect x="408.111" y="114.157" fill="url(#SVGID_2_)" width="13.004" height="23.077"/>
				<g opacity="0.5">
					<path fill="#231F20" d="M420.515,114.757v21.877h-11.804v-21.877H420.515 M421.115,114.157h-13.004v23.077h13.004V114.157
						L421.115,114.157z"/>
				</g>
			</g>
			<g>
				
					<linearGradient id="SVGID_3_" gradientUnits="userSpaceOnUse" x1="4.2407" y1="487.833" x2="4.2407" y2="528.7814" gradientTransform="matrix(0 1 1 0 -121.2998 121.4541)">
					<stop  offset="0" style="stop-color:#D9991E"/>
					<stop  offset="0.1697" style="stop-color:#F6C41E"/>
					<stop  offset="0.5" style="stop-color:#F6EDDB"/>
					<stop  offset="0.8545" style="stop-color:#F6C41E"/>
					<stop  offset="1" style="stop-color:#D9991E"/>
				</linearGradient>
				<rect x="366.812" y="114.157" fill="url(#SVGID_3_)" width="40.215" height="23.077"/>
				<g opacity="0.5">
					<path fill="#231F20" d="M406.426,114.757v21.877h-39.015v-21.877H406.426 M407.026,114.157h-40.215v23.077h40.215V114.157
						L407.026,114.157z"/>
				</g>
			</g>
		</g>
		<g>
			
				<linearGradient id="SVGID_4_" gradientUnits="userSpaceOnUse" x1="-9.7969" y1="487.7344" x2="-9.7969" y2="543.0982" gradientTransform="matrix(0 1 1 0 -121.2998 121.4541)">
				<stop  offset="0" style="stop-color:#D9991E"/>
				<stop  offset="0.1697" style="stop-color:#F6C41E"/>
				<stop  offset="0.5" style="stop-color:#F6EDDB"/>
				<stop  offset="0.8545" style="stop-color:#F6C41E"/>
				<stop  offset="1" style="stop-color:#D9991E"/>
			</linearGradient>
			<rect x="366.812" y="110" fill="url(#SVGID_4_)" width="54.372" height="3.314"/>
			<g opacity="0.5">
				<path fill="#231F20" d="M420.583,110.601v2.114h-53.172v-2.114H420.583 M421.184,110h-54.372v3.314h54.372V110L421.184,110z"/>
			</g>
		</g>
		<g>
			
				<linearGradient id="SVGID_5_" gradientUnits="userSpaceOnUse" x1="18.2783" y1="487.7344" x2="18.2783" y2="543.0982" gradientTransform="matrix(0 1 1 0 -121.2998 121.4541)">
				<stop  offset="0" style="stop-color:#D9991E"/>
				<stop  offset="0.1697" style="stop-color:#F6C41E"/>
				<stop  offset="0.5" style="stop-color:#F6EDDB"/>
				<stop  offset="0.8545" style="stop-color:#F6C41E"/>
				<stop  offset="1" style="stop-color:#D9991E"/>
			</linearGradient>
			<rect x="366.812" y="138.076" fill="url(#SVGID_5_)" width="54.372" height="3.314"/>
			<g opacity="0.5">
				<path fill="#231F20" d="M420.583,138.676v2.114h-53.172v-2.114H420.583 M421.184,138.076h-54.372v3.314h54.372V138.076
					L421.184,138.076z"/>
			</g>
		</g>
		<g>
			<g opacity="0.5">
				<path fill="#231F20" d="M422.266,108.807v33.897h-56.537v-33.897H422.266 M422.866,108.207h-57.737v35.098h57.737V108.207
					L422.866,108.207z"/>
			</g>
		</g>
		<g>
			<g>
				
					<linearGradient id="SVGID_6_" gradientUnits="userSpaceOnUse" x1="258.1279" y1="-506.9512" x2="258.1279" y2="-500.0244" gradientTransform="matrix(-1 0 0 1 626.3809 630.1699)">
					<stop  offset="0" style="stop-color:#D9991E"/>
					<stop  offset="0.1697" style="stop-color:#F6C41E"/>
					<stop  offset="0.5" style="stop-color:#F6EDDB"/>
					<stop  offset="0.8545" style="stop-color:#F6C41E"/>
					<stop  offset="1" style="stop-color:#D9991E"/>
				</linearGradient>
				<rect x="311.901" y="123.266" fill="url(#SVGID_6_)" width="112.704" height="6.803"/>
				<g opacity="0.5">
					<path fill="#231F20" d="M424.005,123.866v5.603H312.501v-5.603H424.005 M424.605,123.266H311.901v6.803h112.704V123.266
						L424.605,123.266z"/>
				</g>
			</g>
			<g>
				
					<linearGradient id="SVGID_7_" gradientUnits="userSpaceOnUse" x1="260.1611" y1="-508.7192" x2="260.1611" y2="-498.2405" gradientTransform="matrix(-1 0 0 1 626.3809 630.1699)">
					<stop  offset="0" style="stop-color:#D9991E"/>
					<stop  offset="0.1697" style="stop-color:#F6C41E"/>
					<stop  offset="0.5" style="stop-color:#F6EDDB"/>
					<stop  offset="0.8545" style="stop-color:#F6C41E"/>
					<stop  offset="1" style="stop-color:#D9991E"/>
				</linearGradient>
				<rect x="345.866" y="121.522" fill="url(#SVGID_7_)" width="40.707" height="10.291"/>
				<g opacity="0.5">
					<path fill="#231F20" d="M385.973,122.122v9.091h-39.507v-9.091H385.973 M386.573,121.522h-40.707v10.291h40.707V121.522
						L386.573,121.522z"/>
				</g>
			</g>
			<g>
				
					<linearGradient id="SVGID_8_" gradientUnits="userSpaceOnUse" x1="290.563" y1="-508.7192" x2="290.563" y2="-498.2405" gradientTransform="matrix(-1 0 0 1 626.3809 630.1699)">
					<stop  offset="0" style="stop-color:#D9991E"/>
					<stop  offset="0.1697" style="stop-color:#F6C41E"/>
					<stop  offset="0.5" style="stop-color:#F6EDDB"/>
					<stop  offset="0.8545" style="stop-color:#F6C41E"/>
					<stop  offset="1" style="stop-color:#D9991E"/>
				</linearGradient>
				<rect x="334.249" y="121.522" fill="url(#SVGID_8_)" width="3.139" height="10.291"/>
				<g opacity="0.5">
					<path fill="#231F20" d="M336.788,122.122v9.091h-1.939v-9.091H336.788 M337.388,121.522h-3.139v10.291h3.139V121.522
						L337.388,121.522z"/>
				</g>
			</g>
			<g>
				
					<linearGradient id="SVGID_9_" gradientUnits="userSpaceOnUse" x1="297.7715" y1="-508.7192" x2="297.7715" y2="-498.2405" gradientTransform="matrix(-1 0 0 1 626.3809 630.1699)">
					<stop  offset="0" style="stop-color:#D9991E"/>
					<stop  offset="0.1697" style="stop-color:#F6C41E"/>
					<stop  offset="0.5" style="stop-color:#F6EDDB"/>
					<stop  offset="0.8545" style="stop-color:#F6C41E"/>
					<stop  offset="1" style="stop-color:#D9991E"/>
				</linearGradient>
				<rect x="326.621" y="121.522" fill="url(#SVGID_9_)" width="3.977" height="10.291"/>
				<g opacity="0.5">
					<path fill="#231F20" d="M329.998,122.122v9.091h-2.776v-9.091H329.998 M330.598,121.522h-3.977v10.291h3.977V121.522
						L330.598,121.522z"/>
				</g>
			</g>
		</g>
		<g>
			
				<linearGradient id="SVGID_10_" gradientUnits="userSpaceOnUse" x1="166.1592" y1="-537.3867" x2="166.1592" y2="-522.3915" gradientTransform="matrix(-1 0 0 1 626.3809 630.1699)">
				<stop  offset="0" style="stop-color:#D9991E"/>
				<stop  offset="0.1697" style="stop-color:#F6C41E"/>
				<stop  offset="0.5" style="stop-color:#F6EDDB"/>
				<stop  offset="0.8545" style="stop-color:#F6C41E"/>
				<stop  offset="1" style="stop-color:#D9991E"/>
			</linearGradient>
			<rect x="448.794" y="92.885" fill="url(#SVGID_10_)" width="22.855" height="14.727"/>
			<g opacity="0.5">
				<path fill="#231F20" d="M471.049,93.485v13.994h-21.655V93.485H471.049 M471.649,92.885h-22.855v15.194h22.855V92.885
					L471.649,92.885z"/>
			</g>
		</g>
		<g>
			<rect x="306.651" y="93.942" fill="#FEC23F" width="31.81" height="16.006"/>
			<g opacity="0.5">
				<path fill="#231F20" d="M337.861,94.542v14.806h-30.609V94.542H337.861 M338.461,93.942h-31.81v16.006h31.81V93.942
					L338.461,93.942z"/>
			</g>
		</g>
		<g>
			
				<linearGradient id="SVGID_11_" gradientUnits="userSpaceOnUse" x1="304.4146" y1="-532.6528" x2="304.4146" y2="-523.7592" gradientTransform="matrix(-1 0 0 1 626.3809 630.1699)">
				<stop  offset="0" style="stop-color:#D9991E"/>
				<stop  offset="0.1697" style="stop-color:#F6C41E"/>
				<stop  offset="0.5" style="stop-color:#F6EDDB"/>
				<stop  offset="0.8545" style="stop-color:#F6C41E"/>
				<stop  offset="1" style="stop-color:#D9991E"/>
			</linearGradient>
			<rect x="305.472" y="97.578" fill="url(#SVGID_11_)" width="32.989" height="8.734"/>
			<g opacity="0.5">
				<path fill="#231F20" d="M337.861,98.178v7.534h-31.789v-7.534H337.861 M338.461,97.578h-32.989v8.734h32.989V97.578
					L338.461,97.578z"/>
			</g>
		</g>
		<g>
			
				<linearGradient id="SVGID_12_" gradientUnits="userSpaceOnUse" x1="1392.6396" y1="-506.4883" x2="1392.6396" y2="-196.9253" gradientTransform="matrix(0 -1 -1 0 62.7559 1469.7813)">
				<stop  offset="0" style="stop-color:#D9991E"/>
				<stop  offset="0.1697" style="stop-color:#F6C41E"/>
				<stop  offset="0.5" style="stop-color:#F6EDDB"/>
				<stop  offset="0.8545" style="stop-color:#F6C41E"/>
				<stop  offset="1" style="stop-color:#D9991E"/>
			</linearGradient>
			<path fill="url(#SVGID_12_)" d="M423.318,70.473c3.357,0.26,6.006,3.143,6.006,6.668c0,3.526-2.648,6.41-6.006,6.67v0.025h-31.49
				v-0.053c-3.223-0.395-5.724-3.215-5.724-6.643c0-3.426,2.501-6.247,5.724-6.643v-0.052h31.49V70.473z"/>
			<g opacity="0.7">
				<path fill="#231F20" d="M422.955,71.047l0.317,0.024c3.057,0.237,5.452,2.903,5.452,6.07c0,3.168-2.395,5.835-5.452,6.072
					l-0.191,0.023h-30.785l-0.395-0.048c-2.962-0.363-5.196-2.962-5.196-6.047c0-3.084,2.234-5.684,5.197-6.047l0.385-0.047H422.955
					 M423.318,70.447h-31.49v0.052c-3.223,0.396-5.724,3.217-5.724,6.643c0,3.428,2.501,6.248,5.724,6.643v0.053h31.49v-0.025
					c3.357-0.26,6.006-3.144,6.006-6.67c0-3.525-2.648-6.408-6.006-6.668V70.447L423.318,70.447z"/>
			</g>
			<g>
				<linearGradient id="SVGID_13_" gradientUnits="userSpaceOnUse" x1="403.0884" y1="77.0884" x2="438.929" y2="77.0884">
					<stop  offset="0" style="stop-color:#D9991E"/>
					<stop  offset="0.1697" style="stop-color:#F6C41E"/>
					<stop  offset="0.5" style="stop-color:#F6EDDB"/>
					<stop  offset="0.8545" style="stop-color:#F6C41E"/>
					<stop  offset="1" style="stop-color:#D9991E"/>
				</linearGradient>
				<circle fill="url(#SVGID_13_)" cx="421.79" cy="77.088" r="2.501"/>
				<path fill="#7F7F74" d="M421.79,74.888c1.214,0,2.202,0.987,2.202,2.201s-0.988,2.201-2.202,2.201s-2.202-0.987-2.202-2.201
					S420.576,74.888,421.79,74.888 M421.79,74.288c-1.547,0-2.802,1.254-2.802,2.801s1.255,2.801,2.802,2.801
					c1.548,0,2.802-1.254,2.802-2.801S423.338,74.288,421.79,74.288L421.79,74.288z"/>
			</g>
			<g>
				<linearGradient id="SVGID_14_" gradientUnits="userSpaceOnUse" x1="374.0093" y1="77.0884" x2="409.8499" y2="77.0884">
					<stop  offset="0" style="stop-color:#D9991E"/>
					<stop  offset="0.1697" style="stop-color:#F6C41E"/>
					<stop  offset="0.5" style="stop-color:#F6EDDB"/>
					<stop  offset="0.8545" style="stop-color:#F6C41E"/>
					<stop  offset="1" style="stop-color:#D9991E"/>
				</linearGradient>
				<circle fill="url(#SVGID_14_)" cx="392.711" cy="77.088" r="2.501"/>
				<path fill="#7F7F74" d="M392.711,74.888c1.214,0,2.202,0.987,2.202,2.201s-0.988,2.201-2.202,2.201s-2.202-0.987-2.202-2.201
					S391.497,74.888,392.711,74.888 M392.711,74.288c-1.548,0-2.802,1.254-2.802,2.801s1.254,2.801,2.802,2.801
					c1.547,0,2.802-1.254,2.802-2.801S394.258,74.288,392.711,74.288L392.711,74.288z"/>
			</g>
		</g>
		<g>
			
				<linearGradient id="SVGID_15_" gradientUnits="userSpaceOnUse" x1="1297.4287" y1="-506.4883" x2="1297.4287" y2="-196.9253" gradientTransform="matrix(0 -1 -1 0 62.7559 1469.7813)">
				<stop  offset="0" style="stop-color:#D9991E"/>
				<stop  offset="0.1697" style="stop-color:#F6C41E"/>
				<stop  offset="0.5" style="stop-color:#F6EDDB"/>
				<stop  offset="0.8545" style="stop-color:#F6C41E"/>
				<stop  offset="1" style="stop-color:#D9991E"/>
			</linearGradient>
			<path fill="url(#SVGID_15_)" d="M423.318,165.684c3.357,0.26,6.006,3.143,6.006,6.668c0,3.526-2.648,6.41-6.006,6.67v0.025
				h-31.49v-0.053c-3.223-0.395-5.724-3.215-5.724-6.643c0-3.426,2.501-6.247,5.724-6.643v-0.052h31.49V165.684z"/>
			<g opacity="0.7">
				<path fill="#231F20" d="M422.955,166.258l0.317,0.024c3.057,0.237,5.452,2.903,5.452,6.07c0,3.168-2.395,5.835-5.452,6.072
					l-0.191,0.023h-30.785l-0.395-0.048c-2.962-0.362-5.196-2.962-5.196-6.047c0-3.084,2.234-5.684,5.197-6.047l0.385-0.047H422.955
					 M423.318,165.658h-31.49v0.052c-3.223,0.396-5.724,3.217-5.724,6.643c0,3.428,2.501,6.248,5.724,6.643v0.053h31.49v-0.025
					c3.357-0.26,6.006-3.144,6.006-6.67c0-3.525-2.648-6.408-6.006-6.668V165.658L423.318,165.658z"/>
			</g>
			<g>
				<linearGradient id="SVGID_16_" gradientUnits="userSpaceOnUse" x1="403.0884" y1="172.2993" x2="438.929" y2="172.2993">
					<stop  offset="0" style="stop-color:#D9991E"/>
					<stop  offset="0.1697" style="stop-color:#F6C41E"/>
					<stop  offset="0.5" style="stop-color:#F6EDDB"/>
					<stop  offset="0.8545" style="stop-color:#F6C41E"/>
					<stop  offset="1" style="stop-color:#D9991E"/>
				</linearGradient>
				<circle fill="url(#SVGID_16_)" cx="421.79" cy="172.299" r="2.501"/>
				<path fill="#7F7F74" d="M421.79,170.099c1.214,0,2.202,0.987,2.202,2.201s-0.988,2.201-2.202,2.201s-2.202-0.987-2.202-2.201
					S420.576,170.099,421.79,170.099 M421.79,169.499c-1.547,0-2.802,1.254-2.802,2.801s1.255,2.801,2.802,2.801
					c1.548,0,2.802-1.254,2.802-2.801S423.338,169.499,421.79,169.499L421.79,169.499z"/>
			</g>
			<g>
				<linearGradient id="SVGID_17_" gradientUnits="userSpaceOnUse" x1="374.0093" y1="172.2993" x2="409.8499" y2="172.2993">
					<stop  offset="0" style="stop-color:#D9991E"/>
					<stop  offset="0.1697" style="stop-color:#F6C41E"/>
					<stop  offset="0.5" style="stop-color:#F6EDDB"/>
					<stop  offset="0.8545" style="stop-color:#F6C41E"/>
					<stop  offset="1" style="stop-color:#D9991E"/>
				</linearGradient>
				<circle fill="url(#SVGID_17_)" cx="392.711" cy="172.299" r="2.501"/>
				<path fill="#7F7F74" d="M392.711,170.099c1.214,0,2.202,0.987,2.202,2.201s-0.988,2.201-2.202,2.201s-2.202-0.987-2.202-2.201
					S391.497,170.099,392.711,170.099 M392.711,169.499c-1.548,0-2.802,1.254-2.802,2.801s1.254,2.801,2.802,2.801
					c1.547,0,2.802-1.254,2.802-2.801S394.258,169.499,392.711,169.499L392.711,169.499z"/>
			</g>
		</g>
		<g>
			
				<linearGradient id="SVGID_18_" gradientUnits="userSpaceOnUse" x1="237.2661" y1="-534.1504" x2="237.2661" y2="-521.2106" gradientTransform="matrix(-1 0 0 1 626.3809 630.1699)">
				<stop  offset="0" style="stop-color:#D9991E"/>
				<stop  offset="0.1697" style="stop-color:#F6C41E"/>
				<stop  offset="0.5" style="stop-color:#F6EDDB"/>
				<stop  offset="0.8545" style="stop-color:#F6C41E"/>
				<stop  offset="1" style="stop-color:#D9991E"/>
			</linearGradient>
			<rect x="340.965" y="96.107" fill="url(#SVGID_18_)" width="96.3" height="12.708"/>
			<g opacity="0.5">
				<path fill="#231F20" d="M436.665,96.708v11.508h-95.1V96.708H436.665 M437.265,96.107h-96.3v12.708h96.3V96.107L437.265,96.107z
					"/>
			</g>
		</g>
		<g>
			
				<linearGradient id="SVGID_19_" gradientUnits="userSpaceOnUse" x1="237.2661" y1="-487.5078" x2="237.2661" y2="-474.568" gradientTransform="matrix(-1 0 0 1 626.3809 630.1699)">
				<stop  offset="0" style="stop-color:#D9991E"/>
				<stop  offset="0.1697" style="stop-color:#F6C41E"/>
				<stop  offset="0.5" style="stop-color:#F6EDDB"/>
				<stop  offset="0.8545" style="stop-color:#F6C41E"/>
				<stop  offset="1" style="stop-color:#D9991E"/>
			</linearGradient>
			<rect x="340.965" y="142.75" fill="url(#SVGID_19_)" width="96.3" height="12.708"/>
			<g opacity="0.5">
				<path fill="#231F20" d="M436.665,143.35v11.508h-95.1V143.35H436.665 M437.265,142.75h-96.3v12.708h96.3V142.75L437.265,142.75z
					"/>
			</g>
		</g>
		<g>
			<linearGradient id="SVGID_20_" gradientUnits="userSpaceOnUse" x1="240.2471" y1="86.9702" x2="240.2471" y2="116.8272">
				<stop  offset="0" style="stop-color:#D9991E"/>
				<stop  offset="0.2" style="stop-color:#F6C41E"/>
				<stop  offset="0.5" style="stop-color:#FFFFFF"/>
				<stop  offset="0.8" style="stop-color:#F6C41E"/>
				<stop  offset="1" style="stop-color:#D9991E"/>
			</linearGradient>
			<polygon fill="url(#SVGID_20_)" points="297.618,89.97 287.865,89.97 281.452,86.97 172.464,86.97 172.464,116.919 
				281.452,116.919 287.865,113.919 297.618,113.919 308.03,109.919 308.03,93.97 			"/>
			<g opacity="0.5">
				<path fill="#231F20" d="M281.318,87.57l6.292,2.943l0.121,0.057h0.133h9.642l9.923,3.812v15.125l-9.923,3.812h-9.642h-0.133
					l-0.121,0.057l-6.292,2.943H173.064V87.57H281.318 M281.452,86.97H172.464v29.949h108.987l6.413-3h9.753l10.412-4V93.97
					l-10.412-4h-9.753L281.452,86.97L281.452,86.97z"/>
			</g>
			
				<line opacity="0.5" fill="none" stroke="#231F20" stroke-width="0.6" stroke-miterlimit="10" x1="281.051" y1="87.565" x2="281.051" y2="116.312"/>
			
				<line opacity="0.5" fill="none" stroke="#231F20" stroke-width="1.4" stroke-miterlimit="10" x1="189.11" y1="87.565" x2="189.11" y2="116.312"/>
			
				<line opacity="0.5" fill="none" stroke="#231F20" stroke-width="0.6" stroke-miterlimit="10" x1="207.271" y1="87.565" x2="207.271" y2="116.312"/>
			
				<line opacity="0.5" fill="none" stroke="#231F20" stroke-width="0.6" stroke-miterlimit="10" x1="287.994" y1="90.581" x2="287.994" y2="113.315"/>
			
				<line opacity="0.5" fill="none" stroke="#231F20" stroke-width="0.6" stroke-miterlimit="10" x1="297.245" y1="90.581" x2="297.245" y2="113.315"/>
		</g>
		<g>
			<g>
				<path fill="#E5BD4C" d="M147.645,108.734c0,5.596,4.397,10.133,9.824,10.133h17.507c5.427,0,9.824-4.537,9.824-10.133l0,0
					c0-5.595-4.397-10.131-9.824-10.131h-17.507C152.042,98.603,147.645,103.139,147.645,108.734L147.645,108.734z"/>
			</g>
			<g opacity="0.5">
				<path fill="#231F20" d="M174.976,99.203c5.086,0,9.224,4.275,9.224,9.531c0,5.256-4.138,9.533-9.224,9.533h-17.507
					c-5.086,0-9.224-4.276-9.224-9.533c0-5.255,4.138-9.531,9.224-9.531H174.976 M174.976,98.603h-17.507
					c-5.427,0-9.824,4.536-9.824,10.131c0,5.596,4.397,10.133,9.824,10.133h17.507c5.427,0,9.824-4.537,9.824-10.133
					C184.8,103.139,180.402,98.603,174.976,98.603L174.976,98.603z"/>
			</g>
			<g>
				<rect x="157.842" y="101.713" fill="#FEC23F" width="60.324" height="3.757"/>
				<g opacity="0.5">
					<path fill="#231F20" d="M217.566,102.313v2.557h-59.124v-2.557H217.566 M218.166,101.713h-60.324v3.757h60.324V101.713
						L218.166,101.713z"/>
				</g>
			</g>
			<g>
				
					<linearGradient id="SVGID_21_" gradientUnits="userSpaceOnUse" x1="322.4893" y1="578.2354" x2="322.4893" y2="594.0267" gradientTransform="matrix(0 1 1 0 -427.9961 -213.7734)">
					<stop  offset="0" style="stop-color:#D9991E"/>
					<stop  offset="0.1697" style="stop-color:#F6C41E"/>
					<stop  offset="0.5" style="stop-color:#F6EDDB"/>
					<stop  offset="0.8545" style="stop-color:#F6C41E"/>
					<stop  offset="1" style="stop-color:#D9991E"/>
				</linearGradient>
				<circle fill="url(#SVGID_21_)" cx="157.842" cy="108.716" r="7.365"/>
				<g opacity="0.5">
					<path fill="#231F20" d="M157.842,101.951c3.73,0,6.765,3.035,6.765,6.765s-3.035,6.765-6.765,6.765s-6.765-3.035-6.765-6.765
						S154.111,101.951,157.842,101.951 M157.842,101.351c-4.068,0-7.365,3.299-7.365,7.365c0,4.068,3.297,7.365,7.365,7.365
						c4.067,0,7.365-3.297,7.365-7.365C165.207,104.65,161.909,101.351,157.842,101.351L157.842,101.351z"/>
				</g>
			</g>
			<g>
				
					<linearGradient id="SVGID_22_" gradientUnits="userSpaceOnUse" x1="277.1143" y1="544.5732" x2="277.1143" y2="553.676" gradientTransform="matrix(0 1 1 0 -391.1133 -168.3984)">
					<stop  offset="0" style="stop-color:#D9991E"/>
					<stop  offset="0.1697" style="stop-color:#F6C41E"/>
					<stop  offset="0.5" style="stop-color:#F6EDDB"/>
					<stop  offset="0.8545" style="stop-color:#F6C41E"/>
					<stop  offset="1" style="stop-color:#D9991E"/>
				</linearGradient>
				<circle fill="url(#SVGID_22_)" cx="157.842" cy="108.716" r="4.246"/>
				<g opacity="0.5">
					<path fill="#231F20" d="M157.842,105.07c2.01,0,3.646,1.636,3.646,3.646s-1.636,3.646-3.646,3.646
						c-2.01,0-3.645-1.636-3.645-3.646S155.832,105.07,157.842,105.07 M157.842,104.47c-2.344,0-4.245,1.902-4.245,4.246
						s1.901,4.246,4.245,4.246c2.346,0,4.246-1.902,4.246-4.246S160.188,104.47,157.842,104.47L157.842,104.47z"/>
				</g>
			</g>
			<g>
				<g>
					
						<linearGradient id="SVGID_23_" gradientUnits="userSpaceOnUse" x1="397.4053" y1="-526.5103" x2="412.1514" y2="-526.5103" gradientTransform="matrix(-1 0 0 1 626.3809 630.1699)">
						<stop  offset="0" style="stop-color:#D9991E"/>
						<stop  offset="0.1697" style="stop-color:#F6C41E"/>
						<stop  offset="0.5" style="stop-color:#F6EDDB"/>
						<stop  offset="0.8545" style="stop-color:#F6C41E"/>
						<stop  offset="1" style="stop-color:#D9991E"/>
					</linearGradient>
					<path fill="url(#SVGID_23_)" d="M214.229,103.66c0,2.793,2.264,5.057,5.057,5.057h4.633c2.793,0,5.057-2.264,5.057-5.057l0,0
						c0-2.793-2.264-5.057-5.057-5.057h-4.633C216.493,98.603,214.229,100.867,214.229,103.66L214.229,103.66z"/>
				</g>
				<g opacity="0.5">
					<path fill="#231F20" d="M223.919,99.603c2.237,0,4.057,1.82,4.057,4.057s-1.82,4.057-4.057,4.057h-4.633
						c-2.237,0-4.057-1.82-4.057-4.057s1.82-4.057,4.057-4.057H223.919 M223.919,98.603h-4.633c-2.793,0-5.057,2.264-5.057,5.057
						s2.264,5.057,5.057,5.057h4.633c2.793,0,5.057-2.264,5.057-5.057S226.712,98.603,223.919,98.603L223.919,98.603z"/>
				</g>
			</g>
		</g>
	</g>
	<g>
		<polygon fill="#DBC38F" points="895.107,83.222 755.68,83.222 617.475,83.222 574.794,83.222 574.794,120.151 617.475,120.151 
			617.475,166.311 755.68,166.311 755.68,120.151 895.107,120.151 		"/>
		<g opacity="0.7">
			<path fill="#231F20" d="M894.508,83.822v35.729H755.68h-0.6v0.6v45.56H618.074v-45.56v-0.6h-0.6h-42.081V83.822h42.081H755.68
				H894.508 M895.107,83.222H755.68H617.475h-42.681v36.929h42.681v46.16H755.68v-46.16h139.428V83.222L895.107,83.222z"/>
		</g>
		<g>
			
				<linearGradient id="SVGID_24_" gradientUnits="userSpaceOnUse" x1="-279.5659" y1="-535.9839" x2="-279.5659" y2="-523.7213" gradientTransform="matrix(1 0 0 1 868.6699 630.1699)">
				<stop  offset="0" style="stop-color:#D9991E"/>
				<stop  offset="0.1697" style="stop-color:#F6C41E"/>
				<stop  offset="0.5" style="stop-color:#F6EDDB"/>
				<stop  offset="0.8545" style="stop-color:#F6C41E"/>
				<stop  offset="1" style="stop-color:#D9991E"/>
			</linearGradient>
			<rect x="576.208" y="94.269" fill="url(#SVGID_24_)" width="25.792" height="12.043"/>
			<g opacity="0.5">
				<path fill="#231F20" d="M601.4,94.869v11.226h-24.593V94.869H601.4 M602,94.269h-25.792v12.426H602V94.269L602,94.269z"/>
			</g>
		</g>
		<g opacity="0.8">
			<polygon fill="#EFDCB4" points="628.82,92.549 628.82,93.42 617.07,93.42 617.07,106.83 628.82,106.83 628.82,158.515 
				729.727,158.515 729.727,92.549 			"/>
		</g>
		<g opacity="0.5">
			<path fill="#231F20" d="M729.127,93.15v64.765H629.42v-51.083v-0.6h-0.6h-11.15V94.02h11.15h0.6v-0.6v-0.27H729.127
				 M729.727,92.55H628.82v0.87h-11.75v13.411h11.75v51.684h100.906V92.55L729.727,92.55z"/>
		</g>
		<g>
			<g>
				
					<linearGradient id="SVGID_25_" gradientUnits="userSpaceOnUse" x1="4.2407" y1="956.7988" x2="4.2407" y2="970.0399" gradientTransform="matrix(-4.489659e-011 1 -1 -4.489659e-011 1616.3496 121.4541)">
					<stop  offset="0" style="stop-color:#D9991E"/>
					<stop  offset="0.1697" style="stop-color:#F6C41E"/>
					<stop  offset="0.5" style="stop-color:#F6EDDB"/>
					<stop  offset="0.8545" style="stop-color:#F6C41E"/>
					<stop  offset="1" style="stop-color:#D9991E"/>
				</linearGradient>
				<rect x="646.457" y="114.157" fill="url(#SVGID_25_)" width="13.004" height="23.077"/>
				<g opacity="0.5">
					<path fill="#231F20" d="M658.861,114.757v21.877h-11.805v-21.877H658.861 M659.461,114.157h-13.004v23.077h13.004V114.157
						L659.461,114.157z"/>
				</g>
			</g>
			<g>
				
					<linearGradient id="SVGID_26_" gradientUnits="userSpaceOnUse" x1="4.2407" y1="915.3115" x2="4.2407" y2="956.2599" gradientTransform="matrix(-4.489659e-011 1 -1 -4.489659e-011 1616.3496 121.4541)">
					<stop  offset="0" style="stop-color:#D9991E"/>
					<stop  offset="0.1697" style="stop-color:#F6C41E"/>
					<stop  offset="0.5" style="stop-color:#F6EDDB"/>
					<stop  offset="0.8545" style="stop-color:#F6C41E"/>
					<stop  offset="1" style="stop-color:#D9991E"/>
				</linearGradient>
				<rect x="660.545" y="114.157" fill="url(#SVGID_26_)" width="40.215" height="23.077"/>
				<g opacity="0.5">
					<path fill="#231F20" d="M700.16,114.757v21.877h-39.016v-21.877H700.16 M700.76,114.157h-40.215v23.077h40.215V114.157
						L700.76,114.157z"/>
				</g>
			</g>
		</g>
		<g>
			
				<linearGradient id="SVGID_27_" gradientUnits="userSpaceOnUse" x1="-9.7969" y1="915.2129" x2="-9.7969" y2="970.5757" gradientTransform="matrix(-4.489659e-011 1 -1 -4.489659e-011 1616.3496 121.4541)">
				<stop  offset="0" style="stop-color:#D9991E"/>
				<stop  offset="0.1697" style="stop-color:#F6C41E"/>
				<stop  offset="0.5" style="stop-color:#F6EDDB"/>
				<stop  offset="0.8545" style="stop-color:#F6C41E"/>
				<stop  offset="1" style="stop-color:#D9991E"/>
			</linearGradient>
			<rect x="646.389" y="110" fill="url(#SVGID_27_)" width="54.371" height="3.314"/>
			<g opacity="0.5">
				<path fill="#231F20" d="M700.16,110.601v2.114h-53.172v-2.114H700.16 M700.76,110h-54.371v3.314h54.371V110L700.76,110z"/>
			</g>
		</g>
		<g>
			
				<linearGradient id="SVGID_28_" gradientUnits="userSpaceOnUse" x1="18.2783" y1="915.2129" x2="18.2783" y2="970.5757" gradientTransform="matrix(-4.489659e-011 1 -1 -4.489659e-011 1616.3496 121.4541)">
				<stop  offset="0" style="stop-color:#D9991E"/>
				<stop  offset="0.1697" style="stop-color:#F6C41E"/>
				<stop  offset="0.5" style="stop-color:#F6EDDB"/>
				<stop  offset="0.8545" style="stop-color:#F6C41E"/>
				<stop  offset="1" style="stop-color:#D9991E"/>
			</linearGradient>
			<rect x="646.389" y="138.076" fill="url(#SVGID_28_)" width="54.371" height="3.314"/>
			<g opacity="0.5">
				<path fill="#231F20" d="M700.16,138.676v2.114h-53.172v-2.114H700.16 M700.76,138.076h-54.371v3.314h54.371V138.076
					L700.76,138.076z"/>
			</g>
		</g>
		<g>
			<g opacity="0.5">
				<path fill="#231F20" d="M701.844,108.807v33.897h-56.539v-33.897H701.844 M702.443,108.207h-57.738v35.098h57.738V108.207
					L702.443,108.207z"/>
			</g>
		</g>
		<g>
			<g>
				
					<linearGradient id="SVGID_29_" gradientUnits="userSpaceOnUse" x1="-169.3511" y1="-506.9512" x2="-169.3511" y2="-500.0239" gradientTransform="matrix(1 0 0 1 868.6699 630.1699)">
					<stop  offset="0" style="stop-color:#D9991E"/>
					<stop  offset="0.1697" style="stop-color:#F6C41E"/>
					<stop  offset="0.5" style="stop-color:#F6EDDB"/>
					<stop  offset="0.8545" style="stop-color:#F6C41E"/>
					<stop  offset="1" style="stop-color:#D9991E"/>
				</linearGradient>
				<rect x="642.967" y="123.266" fill="url(#SVGID_29_)" width="112.704" height="6.803"/>
				<g opacity="0.5">
					<path fill="#231F20" d="M755.071,123.866v5.603H643.566v-5.603H755.071 M755.671,123.266H642.967v6.803h112.704V123.266
						L755.671,123.266z"/>
				</g>
			</g>
			<g>
				
					<linearGradient id="SVGID_30_" gradientUnits="userSpaceOnUse" x1="-167.3184" y1="-508.7192" x2="-167.3184" y2="-498.24" gradientTransform="matrix(1 0 0 1 868.6699 630.1699)">
					<stop  offset="0" style="stop-color:#D9991E"/>
					<stop  offset="0.1697" style="stop-color:#F6C41E"/>
					<stop  offset="0.5" style="stop-color:#F6EDDB"/>
					<stop  offset="0.8545" style="stop-color:#F6C41E"/>
					<stop  offset="1" style="stop-color:#D9991E"/>
				</linearGradient>
				<rect x="680.998" y="121.522" fill="url(#SVGID_30_)" width="40.707" height="10.291"/>
				<g opacity="0.5">
					<path fill="#231F20" d="M721.105,122.122v9.091h-39.508v-9.091H721.105 M721.705,121.522h-40.707v10.291h40.707V121.522
						L721.705,121.522z"/>
				</g>
			</g>
			<g>
				
					<linearGradient id="SVGID_31_" gradientUnits="userSpaceOnUse" x1="-136.9165" y1="-508.7192" x2="-136.9165" y2="-498.2405" gradientTransform="matrix(1 0 0 1 868.6699 630.1699)">
					<stop  offset="0" style="stop-color:#D9991E"/>
					<stop  offset="0.1697" style="stop-color:#F6C41E"/>
					<stop  offset="0.5" style="stop-color:#F6EDDB"/>
					<stop  offset="0.8545" style="stop-color:#F6C41E"/>
					<stop  offset="1" style="stop-color:#D9991E"/>
				</linearGradient>
				<rect x="730.184" y="121.522" fill="url(#SVGID_31_)" width="3.14" height="10.291"/>
				<g opacity="0.5">
					<path fill="#231F20" d="M732.724,122.122v9.091h-1.94v-9.091H732.724 M733.323,121.522h-3.14v10.291h3.14V121.522
						L733.323,121.522z"/>
				</g>
			</g>
			<g>
				
					<linearGradient id="SVGID_32_" gradientUnits="userSpaceOnUse" x1="-129.707" y1="-508.7192" x2="-129.707" y2="-498.2405" gradientTransform="matrix(1 0 0 1 868.6699 630.1699)">
					<stop  offset="0" style="stop-color:#D9991E"/>
					<stop  offset="0.1697" style="stop-color:#F6C41E"/>
					<stop  offset="0.5" style="stop-color:#F6EDDB"/>
					<stop  offset="0.8545" style="stop-color:#F6C41E"/>
					<stop  offset="1" style="stop-color:#D9991E"/>
				</linearGradient>
				<rect x="736.975" y="121.522" fill="url(#SVGID_32_)" width="3.977" height="10.291"/>
				<g opacity="0.5">
					<path fill="#231F20" d="M740.352,122.122v9.091h-2.777v-9.091H740.352 M740.951,121.522h-3.977v10.291h3.977V121.522
						L740.951,121.522z"/>
				</g>
			</g>
		</g>
		<g>
			
				<linearGradient id="SVGID_33_" gradientUnits="userSpaceOnUse" x1="-261.3203" y1="-537.3862" x2="-261.3203" y2="-522.3911" gradientTransform="matrix(1 0 0 1 868.6699 630.1699)">
				<stop  offset="0" style="stop-color:#D9991E"/>
				<stop  offset="0.1697" style="stop-color:#F6C41E"/>
				<stop  offset="0.5" style="stop-color:#F6EDDB"/>
				<stop  offset="0.8545" style="stop-color:#F6C41E"/>
				<stop  offset="1" style="stop-color:#D9991E"/>
			</linearGradient>
			<rect x="595.922" y="92.885" fill="url(#SVGID_33_)" width="22.855" height="14.727"/>
			<g opacity="0.5">
				<path fill="#231F20" d="M618.178,93.485v13.994h-21.656V93.485H618.178 M618.777,92.885h-22.855v15.194h22.855V92.885
					L618.777,92.885z"/>
			</g>
		</g>
		<g>
			<rect x="729.111" y="93.942" fill="#FEC23F" width="31.809" height="16.006"/>
			<g opacity="0.5">
				<path fill="#231F20" d="M760.32,94.542v14.806h-30.609V94.542H760.32 M760.92,93.942h-31.809v16.006h31.809V93.942
					L760.92,93.942z"/>
			</g>
		</g>
		<g>
			
				<linearGradient id="SVGID_34_" gradientUnits="userSpaceOnUse" x1="-123.0645" y1="-532.6528" x2="-123.0645" y2="-523.7592" gradientTransform="matrix(1 0 0 1 868.6699 630.1699)">
				<stop  offset="0" style="stop-color:#D9991E"/>
				<stop  offset="0.1697" style="stop-color:#F6C41E"/>
				<stop  offset="0.5" style="stop-color:#F6EDDB"/>
				<stop  offset="0.8545" style="stop-color:#F6C41E"/>
				<stop  offset="1" style="stop-color:#D9991E"/>
			</linearGradient>
			<rect x="729.111" y="97.578" fill="url(#SVGID_34_)" width="32.988" height="8.734"/>
			<g opacity="0.5">
				<path fill="#231F20" d="M761.5,98.178v7.534h-31.789v-7.534H761.5 M762.1,97.578h-32.988v8.734H762.1V97.578L762.1,97.578z"/>
			</g>
		</g>
		<g>
			
				<linearGradient id="SVGID_35_" gradientUnits="userSpaceOnUse" x1="1392.6396" y1="-933.9639" x2="1392.6396" y2="-624.4078" gradientTransform="matrix(4.489659e-011 -1 1 4.489659e-011 1432.2949 1469.7813)">
				<stop  offset="0" style="stop-color:#D9991E"/>
				<stop  offset="0.1697" style="stop-color:#F6C41E"/>
				<stop  offset="0.5" style="stop-color:#F6EDDB"/>
				<stop  offset="0.8545" style="stop-color:#F6C41E"/>
				<stop  offset="1" style="stop-color:#D9991E"/>
			</linearGradient>
			<path fill="url(#SVGID_35_)" d="M644.254,70.473c-3.357,0.26-6.006,3.143-6.006,6.668c0,3.526,2.648,6.41,6.006,6.67v0.025h31.49
				v-0.053c3.223-0.395,5.723-3.215,5.723-6.643c0-3.426-2.5-6.247-5.723-6.643v-0.052h-31.49V70.473z"/>
			<g opacity="0.7">
				<path fill="#231F20" d="M675.286,71.047l0.385,0.047c2.962,0.363,5.196,2.963,5.196,6.047c0,3.085-2.234,5.685-5.196,6.047
					l-0.395,0.048h-30.671l-0.306-0.023c-3.057-0.237-5.452-2.904-5.452-6.072c0-3.167,2.396-5.833,5.452-6.07l0.197-0.024H675.286
					 M675.744,70.447h-31.49v0.026c-3.357,0.26-6.006,3.143-6.006,6.668c0,3.526,2.648,6.41,6.006,6.67v0.025h31.49v-0.053
					c3.223-0.395,5.723-3.215,5.723-6.643c0-3.426-2.5-6.247-5.723-6.643V70.447L675.744,70.447z"/>
			</g>
			<g>
				<linearGradient id="SVGID_36_" gradientUnits="userSpaceOnUse" x1="627.0801" y1="77.0884" x2="662.9208" y2="77.0884">
					<stop  offset="0" style="stop-color:#D9991E"/>
					<stop  offset="0.1697" style="stop-color:#F6C41E"/>
					<stop  offset="0.5" style="stop-color:#F6EDDB"/>
					<stop  offset="0.8545" style="stop-color:#F6C41E"/>
					<stop  offset="1" style="stop-color:#D9991E"/>
				</linearGradient>
				<circle fill="url(#SVGID_36_)" cx="645.781" cy="77.088" r="2.501"/>
				<path fill="#7F7F74" d="M645.781,74.888c1.215,0,2.203,0.987,2.203,2.201s-0.988,2.201-2.203,2.201
					c-1.214,0-2.201-0.987-2.201-2.201S644.567,74.888,645.781,74.888 M645.781,74.288c-1.547,0-2.801,1.254-2.801,2.801
					s1.254,2.801,2.801,2.801s2.803-1.254,2.803-2.801S647.328,74.288,645.781,74.288L645.781,74.288z"/>
			</g>
			<g>
				<linearGradient id="SVGID_37_" gradientUnits="userSpaceOnUse" x1="656.1582" y1="77.0884" x2="691.9989" y2="77.0884">
					<stop  offset="0" style="stop-color:#D9991E"/>
					<stop  offset="0.1697" style="stop-color:#F6C41E"/>
					<stop  offset="0.5" style="stop-color:#F6EDDB"/>
					<stop  offset="0.8545" style="stop-color:#F6C41E"/>
					<stop  offset="1" style="stop-color:#D9991E"/>
				</linearGradient>
				<path fill="url(#SVGID_37_)" d="M674.861,79.589c-1.38,0-2.503-1.122-2.503-2.501s1.123-2.501,2.503-2.501
					c1.379,0,2.501,1.122,2.501,2.501S676.24,79.589,674.861,79.589z"/>
				<path fill="#7F7F74" d="M674.861,74.888c1.214,0,2.201,0.987,2.201,2.201s-0.987,2.201-2.201,2.201
					c-1.215,0-2.203-0.987-2.203-2.201S673.646,74.888,674.861,74.888 M674.861,74.288c-1.547,0-2.803,1.254-2.803,2.801
					s1.256,2.801,2.803,2.801s2.801-1.254,2.801-2.801S676.408,74.288,674.861,74.288L674.861,74.288z"/>
			</g>
		</g>
		<g>
			
				<linearGradient id="SVGID_38_" gradientUnits="userSpaceOnUse" x1="1297.4287" y1="-933.9639" x2="1297.4287" y2="-624.4078" gradientTransform="matrix(4.489659e-011 -1 1 4.489659e-011 1432.2949 1469.7813)">
				<stop  offset="0" style="stop-color:#D9991E"/>
				<stop  offset="0.1697" style="stop-color:#F6C41E"/>
				<stop  offset="0.5" style="stop-color:#F6EDDB"/>
				<stop  offset="0.8545" style="stop-color:#F6C41E"/>
				<stop  offset="1" style="stop-color:#D9991E"/>
			</linearGradient>
			<path fill="url(#SVGID_38_)" d="M644.254,165.684c-3.357,0.26-6.006,3.143-6.006,6.668c0,3.526,2.648,6.41,6.006,6.67v0.025
				h31.49v-0.053c3.223-0.395,5.723-3.215,5.723-6.643c0-3.426-2.5-6.247-5.723-6.643v-0.052h-31.49V165.684z"/>
			<g opacity="0.7">
				<path fill="#231F20" d="M675.286,166.258l0.385,0.047c2.962,0.363,5.196,2.963,5.196,6.047c0,3.085-2.234,5.685-5.196,6.047
					l-0.395,0.048h-30.671l-0.306-0.023c-3.057-0.237-5.452-2.904-5.452-6.072c0-3.167,2.396-5.833,5.452-6.07l0.197-0.024H675.286
					 M675.744,165.658h-31.49v0.026c-3.357,0.26-6.006,3.143-6.006,6.668c0,3.526,2.648,6.41,6.006,6.67v0.025h31.49v-0.053
					c3.223-0.395,5.723-3.215,5.723-6.643c0-3.426-2.5-6.247-5.723-6.643V165.658L675.744,165.658z"/>
			</g>
			<g>
				<linearGradient id="SVGID_39_" gradientUnits="userSpaceOnUse" x1="627.0801" y1="172.2993" x2="662.9208" y2="172.2993">
					<stop  offset="0" style="stop-color:#D9991E"/>
					<stop  offset="0.1697" style="stop-color:#F6C41E"/>
					<stop  offset="0.5" style="stop-color:#F6EDDB"/>
					<stop  offset="0.8545" style="stop-color:#F6C41E"/>
					<stop  offset="1" style="stop-color:#D9991E"/>
				</linearGradient>
				<circle fill="url(#SVGID_39_)" cx="645.781" cy="172.299" r="2.501"/>
				<path fill="#7F7F74" d="M645.781,170.099c1.215,0,2.203,0.987,2.203,2.201s-0.988,2.201-2.203,2.201
					c-1.214,0-2.201-0.987-2.201-2.201S644.567,170.099,645.781,170.099 M645.781,169.499c-1.547,0-2.801,1.254-2.801,2.801
					s1.254,2.801,2.801,2.801s2.803-1.254,2.803-2.801S647.328,169.499,645.781,169.499L645.781,169.499z"/>
			</g>
			<g>
				<linearGradient id="SVGID_40_" gradientUnits="userSpaceOnUse" x1="656.1582" y1="172.2993" x2="691.9989" y2="172.2993">
					<stop  offset="0" style="stop-color:#D9991E"/>
					<stop  offset="0.1697" style="stop-color:#F6C41E"/>
					<stop  offset="0.5" style="stop-color:#F6EDDB"/>
					<stop  offset="0.8545" style="stop-color:#F6C41E"/>
					<stop  offset="1" style="stop-color:#D9991E"/>
				</linearGradient>
				<path fill="url(#SVGID_40_)" d="M674.861,174.8c-1.38,0-2.503-1.122-2.503-2.501s1.123-2.501,2.503-2.501
					c1.379,0,2.501,1.122,2.501,2.501S676.24,174.8,674.861,174.8z"/>
				<path fill="#7F7F74" d="M674.861,170.099c1.214,0,2.201,0.987,2.201,2.201s-0.987,2.201-2.201,2.201
					c-1.215,0-2.203-0.987-2.203-2.201S673.646,170.099,674.861,170.099 M674.861,169.499c-1.547,0-2.803,1.254-2.803,2.801
					s1.256,2.801,2.803,2.801s2.801-1.254,2.801-2.801S676.408,169.499,674.861,169.499L674.861,169.499z"/>
			</g>
		</g>
		<g>
			
				<linearGradient id="SVGID_41_" gradientUnits="userSpaceOnUse" x1="-190.2129" y1="-534.1504" x2="-190.2129" y2="-521.2101" gradientTransform="matrix(1 0 0 1 868.6699 630.1699)">
				<stop  offset="0" style="stop-color:#D9991E"/>
				<stop  offset="0.1697" style="stop-color:#F6C41E"/>
				<stop  offset="0.5" style="stop-color:#F6EDDB"/>
				<stop  offset="0.8545" style="stop-color:#F6C41E"/>
				<stop  offset="1" style="stop-color:#D9991E"/>
			</linearGradient>
			<rect x="630.307" y="96.107" fill="url(#SVGID_41_)" width="96.301" height="12.708"/>
			<g opacity="0.5">
				<path fill="#231F20" d="M726.008,96.708v11.508h-95.102V96.708H726.008 M726.607,96.107h-96.301v12.708h96.301V96.107
					L726.607,96.107z"/>
			</g>
		</g>
		<g>
			
				<linearGradient id="SVGID_42_" gradientUnits="userSpaceOnUse" x1="-190.2129" y1="-487.5078" x2="-190.2129" y2="-474.5675" gradientTransform="matrix(1 0 0 1 868.6699 630.1699)">
				<stop  offset="0" style="stop-color:#D9991E"/>
				<stop  offset="0.1697" style="stop-color:#F6C41E"/>
				<stop  offset="0.5" style="stop-color:#F6EDDB"/>
				<stop  offset="0.8545" style="stop-color:#F6C41E"/>
				<stop  offset="1" style="stop-color:#D9991E"/>
			</linearGradient>
			<rect x="630.307" y="142.75" fill="url(#SVGID_42_)" width="96.301" height="12.708"/>
			<g opacity="0.5">
				<path fill="#231F20" d="M726.008,143.35v11.508h-95.102V143.35H726.008 M726.607,142.75h-96.301v12.708h96.301V142.75
					L726.607,142.75z"/>
			</g>
		</g>
		<g>
			
				<linearGradient id="SVGID_43_" gradientUnits="userSpaceOnUse" x1="667.7266" y1="86.9702" x2="667.7266" y2="116.8272" gradientTransform="matrix(-1 0 0 1 1495.0508 0)">
				<stop  offset="0" style="stop-color:#D9991E"/>
				<stop  offset="0.2" style="stop-color:#F6C41E"/>
				<stop  offset="0.5" style="stop-color:#FFFFFF"/>
				<stop  offset="0.8" style="stop-color:#F6C41E"/>
				<stop  offset="1" style="stop-color:#D9991E"/>
			</linearGradient>
			<polygon fill="url(#SVGID_43_)" points="769.954,89.97 779.707,89.97 786.12,86.97 895.107,86.97 895.107,116.919 
				786.12,116.919 779.707,113.919 769.954,113.919 759.542,109.919 759.542,93.97 			"/>
			<g opacity="0.5">
				<path fill="#231F20" d="M894.508,87.57v28.749H786.254l-6.293-2.943l-0.12-0.057h-0.134h-9.642l-9.924-3.812V94.382l9.924-3.812
					h9.642h0.134l0.12-0.057l6.293-2.943H894.508 M895.107,86.97H786.12l-6.413,3h-9.753l-10.412,4v15.949l10.412,4h9.753l6.413,3
					h108.987V86.97L895.107,86.97z"/>
			</g>
			
				<line opacity="0.5" fill="none" stroke="#231F20" stroke-width="0.6" stroke-miterlimit="10" x1="786.521" y1="87.565" x2="786.521" y2="116.312"/>
			
				<line opacity="0.5" fill="none" stroke="#231F20" stroke-width="1.4" stroke-miterlimit="10" x1="878.461" y1="87.565" x2="878.461" y2="116.312"/>
			
				<line opacity="0.5" fill="none" stroke="#231F20" stroke-width="0.6" stroke-miterlimit="10" x1="860.301" y1="87.565" x2="860.301" y2="116.312"/>
			
				<line opacity="0.5" fill="none" stroke="#231F20" stroke-width="0.6" stroke-miterlimit="10" x1="779.578" y1="90.581" x2="779.578" y2="113.315"/>
			
				<line opacity="0.5" fill="none" stroke="#231F20" stroke-width="0.6" stroke-miterlimit="10" x1="770.327" y1="90.581" x2="770.327" y2="113.315"/>
		</g>
		<g>
			<g>
				<path fill="#E5BD4C" d="M919.928,108.734c0,5.596-4.398,10.133-9.824,10.133h-17.508c-5.426,0-9.824-4.537-9.824-10.133l0,0
					c0-5.595,4.398-10.131,9.824-10.131h17.508C915.529,98.603,919.928,103.139,919.928,108.734L919.928,108.734z"/>
			</g>
			<g opacity="0.5">
				<path fill="#231F20" d="M910.104,99.203c5.086,0,9.225,4.275,9.225,9.531c0,5.256-4.139,9.533-9.225,9.533h-17.508
					c-5.086,0-9.225-4.276-9.225-9.533c0-5.255,4.139-9.531,9.225-9.531H910.104 M910.104,98.603h-17.508
					c-5.426,0-9.824,4.536-9.824,10.131c0,5.596,4.398,10.133,9.824,10.133h17.508c5.426,0,9.824-4.537,9.824-10.133
					C919.928,103.139,915.529,98.603,910.104,98.603L910.104,98.603z"/>
			</g>
			<g>
				<rect x="849.406" y="101.713" fill="#FEC23F" width="60.324" height="3.757"/>
				<g opacity="0.5">
					<path fill="#231F20" d="M909.131,102.313v2.557h-59.125v-2.557H909.131 M909.73,101.713h-60.324v3.757h60.324V101.713
						L909.73,101.713z"/>
				</g>
			</g>
			<g>
				
					<linearGradient id="SVGID_44_" gradientUnits="userSpaceOnUse" x1="322.4893" y1="1005.7139" x2="322.4893" y2="1021.5052" gradientTransform="matrix(-4.489659e-011 1 -1 -4.489659e-011 1923.0469 -213.7734)">
					<stop  offset="0" style="stop-color:#D9991E"/>
					<stop  offset="0.1697" style="stop-color:#F6C41E"/>
					<stop  offset="0.5" style="stop-color:#F6EDDB"/>
					<stop  offset="0.8545" style="stop-color:#F6C41E"/>
					<stop  offset="1" style="stop-color:#D9991E"/>
				</linearGradient>
				<circle fill="url(#SVGID_44_)" cx="909.73" cy="108.716" r="7.365"/>
				<g opacity="0.5">
					<path fill="#231F20" d="M909.73,101.951c3.73,0,6.766,3.035,6.766,6.765s-3.035,6.765-6.766,6.765s-6.766-3.035-6.766-6.765
						S906,101.951,909.73,101.951 M909.73,101.351c-4.068,0-7.365,3.299-7.365,7.365c0,4.068,3.297,7.365,7.365,7.365
						s7.365-3.297,7.365-7.365C917.096,104.65,913.799,101.351,909.73,101.351L909.73,101.351z"/>
				</g>
			</g>
			<g>
				
					<linearGradient id="SVGID_45_" gradientUnits="userSpaceOnUse" x1="277.1143" y1="972.0527" x2="277.1143" y2="981.1544" gradientTransform="matrix(-4.489659e-011 1 -1 -4.489659e-011 1886.1641 -168.3984)">
					<stop  offset="0" style="stop-color:#D9991E"/>
					<stop  offset="0.1697" style="stop-color:#F6C41E"/>
					<stop  offset="0.5" style="stop-color:#F6EDDB"/>
					<stop  offset="0.8545" style="stop-color:#F6C41E"/>
					<stop  offset="1" style="stop-color:#D9991E"/>
				</linearGradient>
				<circle fill="url(#SVGID_45_)" cx="909.73" cy="108.716" r="4.246"/>
				<g opacity="0.5">
					<path fill="#231F20" d="M909.73,105.07c2.01,0,3.645,1.636,3.645,3.646s-1.635,3.646-3.645,3.646
						c-2.011,0-3.646-1.636-3.646-3.646S907.72,105.07,909.73,105.07 M909.73,104.47c-2.346,0-4.246,1.902-4.246,4.246
						s1.9,4.246,4.246,4.246c2.344,0,4.244-1.902,4.244-4.246S912.074,104.47,909.73,104.47L909.73,104.47z"/>
				</g>
			</g>
			<g>
				<g>
					
						<linearGradient id="SVGID_46_" gradientUnits="userSpaceOnUse" x1="-30.0742" y1="-526.5103" x2="-15.3281" y2="-526.5103" gradientTransform="matrix(1 0 0 1 868.6699 630.1699)">
						<stop  offset="0" style="stop-color:#D9991E"/>
						<stop  offset="0.1697" style="stop-color:#F6C41E"/>
						<stop  offset="0.5" style="stop-color:#F6EDDB"/>
						<stop  offset="0.8545" style="stop-color:#F6C41E"/>
						<stop  offset="1" style="stop-color:#D9991E"/>
					</linearGradient>
					<path fill="url(#SVGID_46_)" d="M853.342,103.66c0,2.793-2.264,5.057-5.057,5.057h-4.633c-2.793,0-5.057-2.264-5.057-5.057l0,0
						c0-2.793,2.264-5.057,5.057-5.057h4.633C851.078,98.603,853.342,100.867,853.342,103.66L853.342,103.66z"/>
				</g>
				<g opacity="0.5">
					<path fill="#231F20" d="M848.285,99.603c2.237,0,4.057,1.82,4.057,4.057s-1.819,4.057-4.057,4.057h-4.633
						c-2.237,0-4.057-1.82-4.057-4.057s1.819-4.057,4.057-4.057H848.285 M848.285,98.603h-4.633c-2.793,0-5.057,2.264-5.057,5.057
						s2.264,5.057,5.057,5.057h4.633c2.793,0,5.057-2.264,5.057-5.057S851.078,98.603,848.285,98.603L848.285,98.603z"/>
				</g>
			</g>
		</g>
	</g>
</g>
<g>
	<g>
		
			<linearGradient id="SVGID_47_" gradientUnits="userSpaceOnUse" x1="1074.1064" y1="282.9771" x2="1074.1064" y2="368.3641" gradientTransform="matrix(1 0 0 1 -540.3203 -221.9199)">
			<stop  offset="0" style="stop-color:#FBC977"/>
			<stop  offset="0.5" style="stop-color:#FFFFFF"/>
			<stop  offset="1" style="stop-color:#FBC977"/>
		</linearGradient>
		<rect x="479.558" y="60.205" fill="url(#SVGID_47_)" width="108.457" height="83.013"/>
		<g opacity="0.6">
			<path fill="#231F20" d="M587.463,60.757v81.908H480.111V60.757H587.463 M588.015,60.205H479.558v83.013h108.457V60.205
				L588.015,60.205z"/>
		</g>
	</g>
	<g>
		<g>
			<rect x="507.735" y="30.117" fill="#919293" width="1.734" height="45.01"/>
			<rect x="507.338" y="48.763" fill="#FFFFFF" width="1.083" height="26.362"/>
			<rect x="506.183" y="48.763" fill="#BEBEBC" width="1.084" height="26.362"/>
			<rect x="510.445" y="48.763" fill="#050505" width="1.081" height="26.362"/>
			<rect x="509.361" y="30.117" fill="#656460" width="1.084" height="45.01"/>
		</g>
		<g>
			<rect x="515.876" y="30.117" fill="#919293" width="1.734" height="45.01"/>
			<rect x="515.479" y="48.763" fill="#FFFFFF" width="1.084" height="26.362"/>
			<rect x="514.323" y="48.763" fill="#BEBEBC" width="1.084" height="26.362"/>
			<rect x="518.586" y="48.763" fill="#050505" width="1.084" height="26.362"/>
			<rect x="517.502" y="30.117" fill="#656460" width="1.084" height="45.01"/>
		</g>
		<g>
			<rect x="524.019" y="30.117" fill="#919293" width="1.734" height="45.01"/>
			<rect x="523.62" y="48.763" fill="#FFFFFF" width="1.085" height="26.362"/>
			<rect x="522.465" y="48.763" fill="#BEBEBC" width="1.085" height="26.362"/>
			<rect x="526.729" y="48.763" fill="#050505" width="1.082" height="26.362"/>
			<rect x="525.646" y="30.117" fill="#656460" width="1.084" height="45.01"/>
		</g>
		<g>
			<rect x="532.162" y="30.117" fill="#919293" width="1.732" height="45.01"/>
			<rect x="531.763" y="48.763" fill="#FFFFFF" width="1.084" height="26.362"/>
			<rect x="530.607" y="48.763" fill="#BEBEBC" width="1.084" height="26.362"/>
			<rect x="534.87" y="48.763" fill="#050505" width="1.084" height="26.362"/>
			<rect x="533.786" y="30.117" fill="#656460" width="1.084" height="45.01"/>
		</g>
		<g>
			<rect x="540.303" y="30.117" fill="#919293" width="1.734" height="45.01"/>
			<rect x="539.906" y="48.763" fill="#FFFFFF" width="1.083" height="26.362"/>
			<rect x="538.75" y="48.763" fill="#BEBEBC" width="1.084" height="26.362"/>
			<rect x="543.013" y="48.763" fill="#050505" width="1.084" height="26.362"/>
			<rect x="541.93" y="30.117" fill="#656460" width="1.083" height="45.01"/>
		</g>
		<g>
			<rect x="548.446" y="30.117" fill="#919293" width="1.732" height="45.01"/>
			<rect x="548.047" y="48.763" fill="#FFFFFF" width="1.084" height="26.362"/>
			<rect x="546.892" y="48.763" fill="#BEBEBC" width="1.084" height="26.362"/>
			<rect x="551.154" y="48.763" fill="#050505" width="1.084" height="26.362"/>
			<rect x="550.07" y="30.117" fill="#656460" width="1.084" height="45.01"/>
		</g>
		<g>
			<rect x="556.587" y="30.117" fill="#919293" width="1.734" height="45.01"/>
			<rect x="556.189" y="48.763" fill="#FFFFFF" width="1.084" height="26.362"/>
			<rect x="555.034" y="48.763" fill="#BEBEBC" width="1.084" height="26.362"/>
			<rect x="559.297" y="48.763" fill="#050505" width="1.082" height="26.362"/>
			<rect x="558.214" y="30.117" fill="#656460" width="1.083" height="45.01"/>
		</g>
		<g>
			<path fill="#FFFFFF" stroke="#231F20" stroke-miterlimit="10" d="M503.704,64.406c0,1.063-0.863,1.928-1.929,1.928l0,0
				c-1.066,0-1.929-0.863-1.929-1.928v-8.4c0-1.065,0.863-1.929,1.929-1.929l0,0c1.065,0,1.929,0.863,1.929,1.929V64.406z"/>
			<path fill="#FFFFFF" stroke="#231F20" stroke-miterlimit="10" d="M567.726,64.406c0,1.063-0.862,1.928-1.928,1.928l0,0
				c-1.066,0-1.929-0.863-1.929-1.928v-8.4c0-1.065,0.862-1.929,1.929-1.929l0,0c1.065,0,1.928,0.863,1.928,1.929V64.406z"/>
		</g>
	</g>
	<g>
		<g>
			
				<linearGradient id="SVGID_48_" gradientUnits="userSpaceOnUse" x1="1050.7471" y1="344.7393" x2="1057.7793" y2="344.7393" gradientTransform="matrix(1 0 0 1 -540.3203 -221.9199)">
				<stop  offset="0" style="stop-color:#808080"/>
				<stop  offset="1" style="stop-color:#000000"/>
			</linearGradient>
			<circle fill="url(#SVGID_48_)" cx="513.942" cy="122.82" r="3.517"/>
			
				<circle fill="none" stroke="#444041" stroke-width="0.6" stroke-linecap="round" stroke-linejoin="round" stroke-miterlimit="10" cx="513.942" cy="122.82" r="3.517"/>
		</g>
		<g>
			
				<linearGradient id="SVGID_49_" gradientUnits="userSpaceOnUse" x1="1090.4326" y1="344.7393" x2="1097.4668" y2="344.7393" gradientTransform="matrix(1 0 0 1 -540.3203 -221.9199)">
				<stop  offset="0" style="stop-color:#808080"/>
				<stop  offset="1" style="stop-color:#000000"/>
			</linearGradient>
			<circle fill="url(#SVGID_49_)" cx="553.629" cy="122.82" r="3.517"/>
			
				<circle fill="none" stroke="#444041" stroke-width="0.6" stroke-linecap="round" stroke-linejoin="round" stroke-miterlimit="10" cx="553.629" cy="122.82" r="3.517"/>
		</g>
		<g>
			
				<linearGradient id="SVGID_50_" gradientUnits="userSpaceOnUse" x1="1070.5898" y1="344.7393" x2="1077.624" y2="344.7393" gradientTransform="matrix(1 0 0 1 -540.3203 -221.9199)">
				<stop  offset="0" style="stop-color:#808080"/>
				<stop  offset="1" style="stop-color:#000000"/>
			</linearGradient>
			<circle fill="url(#SVGID_50_)" cx="533.786" cy="122.82" r="3.517"/>
			
				<circle fill="none" stroke="#444041" stroke-width="0.6" stroke-linecap="round" stroke-linejoin="round" stroke-miterlimit="10" cx="533.786" cy="122.82" r="3.517"/>
		</g>
	</g>
</g>
<g>
	
		<linearGradient id="SVGID_51_" gradientUnits="userSpaceOnUse" x1="204.8638" y1="756.877" x2="215.0327" y2="775.5186" gradientTransform="matrix(0 1 1 0 -244.4053 331.3984)">
		<stop  offset="0" style="stop-color:#66A8E0"/>
		<stop  offset="0.497" style="stop-color:#003D57"/>
		<stop  offset="1" style="stop-color:#002140"/>
	</linearGradient>
	<polygon fill="url(#SVGID_51_)" points="512,535.279 514.893,535.279 514.893,536.637 537.26,536.637 537.26,548.008 
		514.893,548.008 514.893,549.152 512,549.152 	"/>
	<g>
		
			<linearGradient id="SVGID_52_" gradientUnits="userSpaceOnUse" x1="-704.6567" y1="1357.1084" x2="-676.7465" y2="1382.9922" gradientTransform="matrix(-1 0 0 1 -155.0615 -817.4316)">
			<stop  offset="0" style="stop-color:#66A8E0"/>
			<stop  offset="0.497" style="stop-color:#003D57"/>
			<stop  offset="1" style="stop-color:#002140"/>
		</linearGradient>
		<path fill="url(#SVGID_52_)" d="M535.363,536.195c-9.215,0-16.684,7.466-16.684,16.682c0,9.213,7.469,16.681,16.684,16.681
			s16.682-7.468,16.682-16.681C552.045,543.661,544.578,536.195,535.363,536.195z"/>
		<path fill="#F1F1F2" stroke="#231F20" stroke-width="0.6" stroke-miterlimit="10" d="M535.363,542.117
			c-5.939,0-10.76,4.82-10.76,10.761c0,5.943,4.82,10.758,10.76,10.758c5.942,0,10.759-4.814,10.759-10.758
			C546.122,546.938,541.306,542.117,535.363,542.117z"/>
		<g>
			<g>
				
					<linearGradient id="SVGID_53_" gradientUnits="userSpaceOnUse" x1="-696.3291" y1="1364.4014" x2="-683.6573" y2="1377.0732" gradientTransform="matrix(-1 0 0 1 -155.0615 -817.4316)">
					<stop  offset="0" style="stop-color:#66A8E0"/>
					<stop  offset="0.497" style="stop-color:#003D57"/>
					<stop  offset="1" style="stop-color:#002140"/>
				</linearGradient>
				<polygon fill="url(#SVGID_53_)" points="542.716,549.003 538.699,551.948 536.289,549.539 539.235,545.521 				"/>
				
					<linearGradient id="SVGID_54_" gradientUnits="userSpaceOnUse" x1="-696.3306" y1="1364.4004" x2="-683.6588" y2="1377.0723" gradientTransform="matrix(-1 0 0 1 -155.0615 -817.4316)">
					<stop  offset="0" style="stop-color:#66A8E0"/>
					<stop  offset="0.497" style="stop-color:#003D57"/>
					<stop  offset="1" style="stop-color:#002140"/>
				</linearGradient>
				<polygon fill="url(#SVGID_54_)" points="534.435,556.213 531.489,560.23 528.009,556.749 532.025,553.804 				"/>
				
					<linearGradient id="SVGID_55_" gradientUnits="userSpaceOnUse" x1="-692.4556" y1="1360.5293" x2="-679.7863" y2="1373.1986" gradientTransform="matrix(-1 0 0 1 -155.0615 -817.4316)">
					<stop  offset="0" style="stop-color:#66A8E0"/>
					<stop  offset="0.497" style="stop-color:#003D57"/>
					<stop  offset="1" style="stop-color:#002140"/>
				</linearGradient>
				<polygon fill="url(#SVGID_55_)" points="528.009,549.003 531.489,545.521 534.435,549.539 532.025,551.948 				"/>
				
					<linearGradient id="SVGID_56_" gradientUnits="userSpaceOnUse" x1="-700.2021" y1="1368.2744" x2="-687.5328" y2="1380.9437" gradientTransform="matrix(-1 0 0 1 -155.0615 -817.4316)">
					<stop  offset="0" style="stop-color:#66A8E0"/>
					<stop  offset="0.497" style="stop-color:#003D57"/>
					<stop  offset="1" style="stop-color:#002140"/>
				</linearGradient>
				<polygon fill="url(#SVGID_56_)" points="542.716,556.749 539.235,560.23 536.289,556.213 538.699,553.804 				"/>
			</g>
			<path fill="#FFFFFF" stroke="#808184" stroke-width="0.6" stroke-miterlimit="10" d="M535.363,549.53
				c-1.847,0-3.346,1.5-3.346,3.346c0,1.844,1.499,3.345,3.346,3.345c1.849,0,3.344-1.501,3.344-3.345
				C538.707,551.03,537.212,549.53,535.363,549.53z"/>
		</g>
	</g>
</g>
<g>
	<path d="M480.425,525.685v-8.531h2.52c0.754,0,1.423,0.168,2.007,0.504s1.036,0.813,1.356,1.43s0.48,1.324,0.48,2.121v0.428
		c0,0.809-0.161,1.52-0.483,2.133s-0.781,1.086-1.377,1.418s-1.278,0.498-2.048,0.498H480.425z M481.908,518.349v6.152h0.967
		c0.777,0,1.374-0.243,1.79-0.729s0.628-1.185,0.636-2.095v-0.475c0-0.926-0.201-1.633-0.604-2.121s-0.986-0.732-1.752-0.732
		H481.908z"/>
	<path d="M493.773,525.685h-5.737v-0.979l2.842-3.1c0.41-0.457,0.701-0.839,0.875-1.146s0.262-0.614,0.262-0.923
		c0-0.406-0.115-0.734-0.344-0.984s-0.535-0.375-0.922-0.375c-0.462,0-0.819,0.141-1.073,0.422s-0.381,0.666-0.381,1.154h-1.424
		c0-0.52,0.118-0.987,0.354-1.403s0.574-0.739,1.014-0.97s0.947-0.346,1.521-0.346c0.827,0,1.48,0.208,1.959,0.624
		s0.719,0.991,0.719,1.726c0,0.426-0.121,0.872-0.361,1.339s-0.634,0.997-1.18,1.591l-2.086,2.232h3.961V525.685z"/>
	<path d="M501.895,521.642c0,0.836-0.145,1.569-0.434,2.2s-0.702,1.115-1.239,1.453s-1.155,0.507-1.854,0.507
		c-0.691,0-1.308-0.169-1.849-0.507s-0.959-0.819-1.254-1.444s-0.444-1.346-0.448-2.162v-0.48c0-0.832,0.147-1.566,0.442-2.203
		s0.711-1.124,1.248-1.462s1.153-0.507,1.849-0.507s1.312,0.167,1.849,0.501s0.952,0.814,1.245,1.441s0.441,1.356,0.445,2.188
		V521.642z M500.412,521.196c0-0.945-0.179-1.67-0.536-2.174s-0.864-0.756-1.521-0.756c-0.641,0-1.142,0.251-1.503,0.753
		s-0.546,1.212-0.554,2.13v0.492c0,0.938,0.183,1.662,0.548,2.174s0.872,0.768,1.521,0.768c0.656,0,1.161-0.25,1.515-0.75
		s0.53-1.23,0.53-2.191V521.196z"/>
	<path d="M510.818,523.487c0-0.375-0.132-0.664-0.396-0.867s-0.739-0.408-1.427-0.615s-1.234-0.438-1.641-0.691
		c-0.777-0.488-1.166-1.125-1.166-1.91c0-0.688,0.28-1.254,0.841-1.699s1.288-0.668,2.183-0.668c0.594,0,1.123,0.109,1.588,0.328
		s0.83,0.53,1.096,0.935s0.398,0.853,0.398,1.345h-1.477c0-0.445-0.14-0.794-0.419-1.046s-0.679-0.378-1.198-0.378
		c-0.484,0-0.86,0.104-1.128,0.311s-0.401,0.496-0.401,0.867c0,0.313,0.145,0.573,0.434,0.782s0.766,0.412,1.43,0.609
		s1.197,0.422,1.6,0.674s0.697,0.541,0.885,0.867s0.281,0.708,0.281,1.146c0,0.711-0.272,1.276-0.817,1.696s-1.284,0.63-2.218,0.63
		c-0.617,0-1.185-0.114-1.702-0.343s-0.92-0.544-1.207-0.946s-0.431-0.871-0.431-1.406h1.482c0,0.484,0.16,0.859,0.48,1.125
		s0.779,0.398,1.377,0.398c0.516,0,0.903-0.104,1.163-0.313S510.818,523.831,510.818,523.487z"/>
	<path d="M517.305,525.063c-0.418,0.492-1.012,0.738-1.781,0.738c-0.688,0-1.208-0.201-1.562-0.604s-0.53-0.984-0.53-1.746v-4.107
		h1.424v4.09c0,0.805,0.334,1.207,1.002,1.207c0.691,0,1.158-0.248,1.4-0.744v-4.553h1.424v6.34h-1.342L517.305,525.063z"/>
	<path d="M525.684,522.579c0,0.98-0.223,1.763-0.668,2.347s-1.043,0.876-1.793,0.876c-0.695,0-1.252-0.229-1.67-0.686v3.006h-1.424
		v-8.777h1.313l0.059,0.645c0.418-0.508,0.986-0.762,1.705-0.762c0.773,0,1.38,0.288,1.819,0.864s0.659,1.376,0.659,2.399V522.579z
		 M524.266,522.456c0-0.633-0.126-1.135-0.378-1.506s-0.612-0.557-1.081-0.557c-0.582,0-1,0.24-1.254,0.721v2.813
		c0.258,0.492,0.68,0.738,1.266,0.738c0.453,0,0.808-0.183,1.063-0.548S524.266,523.198,524.266,522.456z"/>
	<path d="M532.439,522.579c0,0.98-0.223,1.763-0.668,2.347s-1.043,0.876-1.793,0.876c-0.695,0-1.252-0.229-1.67-0.686v3.006h-1.424
		v-8.777h1.313l0.059,0.645c0.418-0.508,0.986-0.762,1.705-0.762c0.773,0,1.38,0.288,1.819,0.864s0.659,1.376,0.659,2.399V522.579z
		 M531.021,522.456c0-0.633-0.126-1.135-0.378-1.506s-0.612-0.557-1.081-0.557c-0.582,0-1,0.24-1.254,0.721v2.813
		c0.258,0.492,0.68,0.738,1.266,0.738c0.453,0,0.808-0.183,1.063-0.548S531.021,523.198,531.021,522.456z"/>
	<path d="M535.158,525.685h-1.424v-9h1.424V525.685z"/>
	<path d="M538.926,523.646l1.289-4.301h1.518l-2.52,7.301c-0.387,1.066-1.043,1.6-1.969,1.6c-0.207,0-0.436-0.035-0.686-0.106
		v-1.106l0.27,0.018c0.359,0,0.63-0.065,0.812-0.196s0.325-0.351,0.431-0.658l0.205-0.545l-2.227-6.306h1.535L538.926,523.646z"/>
	<path d="M547.158,522.521v3.164h-1.482v-8.531h3.264c0.953,0,1.71,0.248,2.271,0.745c0.561,0.496,0.841,1.153,0.841,1.971
		c0,0.837-0.274,1.488-0.823,1.953c-0.549,0.466-1.317,0.698-2.306,0.698H547.158z M547.158,521.325h1.781
		c0.527,0,0.93-0.124,1.207-0.372s0.416-0.606,0.416-1.075c0-0.461-0.141-0.829-0.422-1.104s-0.668-0.417-1.16-0.425h-1.822V521.325
		z"/>
	<path d="M557.049,525.063c-0.418,0.492-1.012,0.738-1.781,0.738c-0.688,0-1.208-0.201-1.562-0.604s-0.53-0.984-0.53-1.746v-4.107
		h1.424v4.09c0,0.805,0.334,1.207,1.002,1.207c0.691,0,1.158-0.248,1.4-0.744v-4.553h1.424v6.34h-1.342L557.049,525.063z"/>
	<path d="M561.215,519.345l0.041,0.662c0.445-0.52,1.055-0.779,1.828-0.779c0.848,0,1.428,0.324,1.74,0.973
		c0.461-0.648,1.109-0.973,1.945-0.973c0.699,0,1.22,0.193,1.562,0.58s0.517,0.957,0.524,1.711v4.166h-1.424v-4.125
		c0-0.402-0.088-0.697-0.264-0.885s-0.467-0.281-0.873-0.281c-0.324,0-0.589,0.087-0.794,0.261s-0.349,0.401-0.431,0.683
		l0.006,4.348h-1.424v-4.172c-0.02-0.746-0.4-1.119-1.143-1.119c-0.57,0-0.975,0.232-1.213,0.697v4.594h-1.424v-6.34H561.215z"/>
	<path d="M575.869,522.579c0,0.98-0.223,1.763-0.668,2.347s-1.043,0.876-1.793,0.876c-0.695,0-1.252-0.229-1.67-0.686v3.006h-1.424
		v-8.777h1.313l0.059,0.645c0.418-0.508,0.986-0.762,1.705-0.762c0.773,0,1.38,0.288,1.819,0.864s0.659,1.376,0.659,2.399V522.579z
		 M574.451,522.456c0-0.633-0.126-1.135-0.378-1.506s-0.612-0.557-1.081-0.557c-0.582,0-1,0.24-1.254,0.721v2.813
		c0.258,0.492,0.68,0.738,1.266,0.738c0.453,0,0.808-0.183,1.063-0.548S574.451,523.198,574.451,522.456z"/>
</g>
<g>
	<path d="M530.73,100.378h-1.652v3.281h-1.482v-8.531h3c0.984,0,1.744,0.221,2.279,0.663c0.535,0.441,0.803,1.081,0.803,1.917
		c0,0.571-0.137,1.049-0.412,1.434c-0.275,0.386-0.66,0.682-1.152,0.889l1.916,3.553v0.076h-1.588L530.73,100.378z M529.078,99.183
		h1.523c0.5,0,0.891-0.126,1.172-0.378s0.422-0.597,0.422-1.034c0-0.457-0.129-0.811-0.389-1.061s-0.648-0.379-1.164-0.387h-1.564
		V99.183z"/>
	<path d="M537.224,99.406l1.207-2.086h1.582l-1.939,3.123l2.004,3.217h-1.57l-1.266-2.168l-1.261,2.168h-1.582l2.004-3.217
		l-1.934-3.123h1.57L537.224,99.406z"/>
</g>
</svg>
