<?xml version="1.0" encoding="utf-8"?>
<!-- Generator: Adobe Illustrator 15.0.0, SVG Export Plug-In . SVG Version: 6.00 Build 0)  -->
<!DOCTYPE svg PUBLIC "-//W3C//DTD SVG 1.1//EN" "http://www.w3.org/Graphics/SVG/1.1/DTD/svg11.dtd">
<svg version="1.1" id="Layer_1" xmlns="http://www.w3.org/2000/svg" xmlns:xlink="http://www.w3.org/1999/xlink" x="0px" y="0px"
	 width="74px" height="190px" viewBox="0 0 74 190" enable-background="new 0 0 74 190" xml:space="preserve">
<linearGradient id="SVGID_1_" gradientUnits="userSpaceOnUse" x1="0.8936" y1="94.8833" x2="73.0687" y2="94.8833">
	<stop  offset="0" style="stop-color:#FF5E00"/>
	<stop  offset="0.5" style="stop-color:#FFBF00"/>
	<stop  offset="1" style="stop-color:#FF5E00"/>
</linearGradient>
<path fill="url(#SVGID_1_)" d="M72.313,34.247C70.923,16.018,55.517,1.646,36.673,1.646c-18.848,0-34.252,14.372-35.643,32.601
	H0.894V157.06h0.279c2.109,17.49,17.186,31.061,35.5,31.061c18.311,0,33.387-13.57,35.498-31.061h0.277V34.247H72.313z"/>
<g>
	<path fill="#FFFFFF" d="M16.907,68.797v2.9h-1.358v-7.82h2.991c0.874,0,1.567,0.228,2.081,0.683s0.771,1.058,0.771,1.807
		c0,0.768-0.252,1.364-0.756,1.791c-0.502,0.427-1.207,0.64-2.113,0.64H16.907z M16.907,67.701h1.633
		c0.483,0,0.853-0.113,1.106-0.341s0.381-0.556,0.381-0.985c0-0.423-0.129-0.761-0.387-1.013c-0.258-0.253-0.611-0.383-1.063-0.39
		h-1.671V67.701z"/>
	<path fill="#FFFFFF" d="M25.496,67.078c-0.172-0.028-0.35-0.043-0.532-0.043c-0.599,0-1.001,0.229-1.208,0.688v3.975H22.45v-5.812
		h1.246l0.032,0.649c0.314-0.504,0.752-0.757,1.311-0.757c0.186,0,0.34,0.025,0.462,0.075L25.496,67.078z"/>
	<path fill="#FFFFFF" d="M28.777,71.805c-0.827,0-1.498-0.261-2.012-0.781c-0.514-0.521-0.771-1.215-0.771-2.082v-0.16
		c0-0.58,0.112-1.099,0.335-1.556c0.225-0.456,0.539-0.812,0.943-1.065c0.404-0.255,0.855-0.382,1.354-0.382
		c0.791,0,1.402,0.253,1.834,0.757c0.432,0.506,0.647,1.22,0.647,2.144v0.526h-3.798c0.04,0.479,0.2,0.859,0.48,1.139
		c0.281,0.279,0.635,0.419,1.062,0.419c0.599,0,1.085-0.241,1.461-0.726l0.704,0.672c-0.233,0.348-0.544,0.617-0.932,0.809
		C29.697,71.709,29.261,71.805,28.777,71.805z M28.621,66.826c-0.357,0-0.646,0.125-0.867,0.375
		c-0.221,0.251-0.36,0.601-0.422,1.048h2.487v-0.097c-0.028-0.437-0.146-0.768-0.349-0.991
		C29.266,66.938,28.983,66.826,28.621,66.826z"/>
	<path fill="#FFFFFF" d="M35.379,70.118c0-0.232-0.096-0.41-0.287-0.532c-0.192-0.121-0.51-0.229-0.954-0.322
		c-0.444-0.093-0.814-0.211-1.112-0.354c-0.651-0.315-0.977-0.772-0.977-1.37c0-0.501,0.211-0.92,0.633-1.257
		c0.423-0.337,0.96-0.505,1.611-0.505c0.695,0,1.256,0.172,1.684,0.516c0.429,0.344,0.643,0.79,0.643,1.337h-1.305
		c0-0.25-0.094-0.459-0.279-0.625c-0.187-0.167-0.434-0.25-0.742-0.25c-0.286,0-0.52,0.066-0.701,0.199
		c-0.18,0.132-0.271,0.31-0.271,0.531c0,0.2,0.084,0.356,0.253,0.467c0.168,0.111,0.508,0.224,1.02,0.336
		c0.513,0.113,0.914,0.247,1.207,0.403c0.291,0.155,0.508,0.343,0.648,0.562c0.143,0.218,0.213,0.482,0.213,0.795
		c0,0.522-0.217,0.945-0.65,1.27c-0.433,0.324-1,0.486-1.702,0.486c-0.476,0-0.9-0.086-1.272-0.258
		c-0.373-0.172-0.663-0.408-0.871-0.709c-0.207-0.301-0.311-0.625-0.311-0.973h1.268c0.018,0.309,0.134,0.546,0.349,0.712
		c0.215,0.167,0.499,0.25,0.854,0.25c0.344,0,0.604-0.065,0.783-0.196C35.289,70.5,35.379,70.329,35.379,70.118z"/>
	<path fill="#FFFFFF" d="M41.056,70.118c0-0.232-0.096-0.41-0.288-0.532c-0.191-0.121-0.509-0.229-0.953-0.322
		c-0.443-0.093-0.814-0.211-1.111-0.354c-0.652-0.315-0.978-0.772-0.978-1.37c0-0.501,0.212-0.92,0.634-1.257
		s0.959-0.505,1.611-0.505c0.695,0,1.256,0.172,1.684,0.516s0.643,0.79,0.643,1.337h-1.306c0-0.25-0.093-0.459-0.279-0.625
		c-0.187-0.167-0.433-0.25-0.741-0.25c-0.287,0-0.52,0.066-0.701,0.199c-0.181,0.132-0.271,0.31-0.271,0.531
		c0,0.2,0.084,0.356,0.253,0.467c0.169,0.111,0.509,0.224,1.021,0.336c0.512,0.113,0.914,0.247,1.205,0.403
		c0.293,0.155,0.51,0.343,0.65,0.562c0.142,0.218,0.213,0.482,0.213,0.795c0,0.522-0.217,0.945-0.65,1.27s-1.001,0.486-1.703,0.486
		c-0.476,0-0.9-0.086-1.272-0.258s-0.663-0.408-0.87-0.709s-0.312-0.625-0.312-0.973H38.8c0.019,0.309,0.134,0.546,0.349,0.712
		c0.215,0.167,0.5,0.25,0.854,0.25c0.344,0,0.604-0.065,0.784-0.196S41.056,70.329,41.056,70.118z"/>
	<path fill="#FFFFFF" d="M46.996,71.128c-0.383,0.451-0.928,0.677-1.633,0.677c-0.631,0-1.107-0.185-1.432-0.553
		c-0.324-0.369-0.486-0.902-0.486-1.602v-3.765h1.306v3.749c0,0.737,0.306,1.106,0.919,1.106c0.633,0,1.061-0.228,1.283-0.683
		v-4.173h1.305v5.812h-1.229L46.996,71.128z"/>
	<path fill="#FFFFFF" d="M52.631,67.078c-0.172-0.028-0.35-0.043-0.532-0.043c-0.599,0-1.001,0.229-1.208,0.688v3.975h-1.306v-5.812
		h1.246l0.032,0.649c0.314-0.504,0.752-0.757,1.311-0.757c0.186,0,0.34,0.025,0.462,0.075L52.631,67.078z"/>
	<path fill="#FFFFFF" d="M55.912,71.805c-0.827,0-1.498-0.261-2.012-0.781c-0.514-0.521-0.771-1.215-0.771-2.082v-0.16
		c0-0.58,0.112-1.099,0.335-1.556c0.225-0.456,0.539-0.812,0.943-1.065c0.404-0.255,0.855-0.382,1.354-0.382
		c0.791,0,1.402,0.253,1.834,0.757c0.432,0.506,0.647,1.22,0.647,2.144v0.526h-3.798c0.04,0.479,0.2,0.859,0.48,1.139
		c0.281,0.279,0.635,0.419,1.062,0.419c0.599,0,1.085-0.241,1.461-0.726l0.704,0.672c-0.233,0.348-0.544,0.617-0.932,0.809
		C56.832,71.709,56.396,71.805,55.912,71.805z M55.756,66.826c-0.357,0-0.646,0.125-0.867,0.375
		c-0.221,0.251-0.36,0.601-0.422,1.048h2.487v-0.097c-0.028-0.437-0.146-0.768-0.349-0.991C56.4,66.938,56.118,66.826,55.756,66.826
		z"/>
	<path fill="#FFFFFF" d="M33.617,82.787c0-0.362,0.098-0.694,0.295-0.997s0.586-0.661,1.166-1.077
		c-0.305-0.383-0.518-0.709-0.637-0.977c-0.12-0.27-0.18-0.528-0.18-0.779c0-0.612,0.186-1.097,0.559-1.453
		c0.372-0.356,0.873-0.534,1.504-0.534c0.568,0,1.035,0.167,1.398,0.502s0.545,0.749,0.545,1.243c0,0.326-0.082,0.626-0.246,0.9
		c-0.165,0.273-0.436,0.547-0.812,0.818l-0.532,0.387l1.51,1.783c0.219-0.43,0.328-0.907,0.328-1.434h1.133
		c0,0.963-0.226,1.753-0.677,2.369l1.149,1.358h-1.515l-0.44-0.521c-0.559,0.418-1.225,0.628-1.998,0.628s-1.393-0.205-1.855-0.615
		C33.849,83.979,33.617,83.445,33.617,82.787z M36.205,83.963c0.441,0,0.853-0.146,1.236-0.44l-1.709-2.015l-0.166,0.119
		c-0.43,0.325-0.645,0.697-0.645,1.117c0,0.361,0.116,0.654,0.35,0.881C35.504,83.85,35.815,83.963,36.205,83.963z M35.486,78.925
		c0,0.301,0.184,0.679,0.553,1.134l0.596-0.408l0.167-0.135c0.222-0.197,0.333-0.449,0.333-0.758c0-0.203-0.077-0.378-0.23-0.523
		c-0.154-0.145-0.35-0.217-0.586-0.217c-0.254,0-0.457,0.086-0.607,0.258S35.486,78.663,35.486,78.925z"/>
	<path fill="#FFFFFF" d="M16.054,98.098H14.7v-7.82h1.354V98.098z"/>
	<path fill="#FFFFFF" d="M18.809,92.286l0.038,0.671c0.43-0.519,0.993-0.778,1.692-0.778c1.21,0,1.826,0.692,1.848,2.079v3.84
		h-1.306v-3.766c0-0.368-0.079-0.642-0.239-0.818c-0.159-0.178-0.42-0.266-0.781-0.266c-0.526,0-0.918,0.237-1.176,0.714v4.136
		h-1.306v-5.812H18.809z"/>
	<path fill="#FFFFFF" d="M25.765,96.443l1.229-4.157h1.349l-2.015,5.812h-1.133l-2.03-5.812h1.354L25.765,96.443z"/>
	<path fill="#FFFFFF" d="M31.646,98.205c-0.828,0-1.498-0.261-2.012-0.781c-0.514-0.521-0.771-1.215-0.771-2.082v-0.16
		c0-0.58,0.112-1.099,0.336-1.556c0.225-0.456,0.538-0.812,0.943-1.065c0.404-0.255,0.855-0.382,1.354-0.382
		c0.791,0,1.402,0.253,1.834,0.757c0.432,0.506,0.646,1.22,0.646,2.144v0.526H30.18c0.039,0.479,0.199,0.859,0.48,1.139
		s0.635,0.419,1.061,0.419c0.599,0,1.086-0.241,1.461-0.726l0.704,0.672c-0.233,0.348-0.544,0.617-0.933,0.809
		C32.565,98.109,32.129,98.205,31.646,98.205z M31.49,93.227c-0.357,0-0.646,0.125-0.867,0.375
		c-0.221,0.251-0.361,0.601-0.422,1.048h2.486v-0.097c-0.028-0.437-0.145-0.768-0.349-0.991S31.852,93.227,31.49,93.227z"/>
	<path fill="#FFFFFF" d="M36.201,92.286l0.037,0.671c0.43-0.519,0.994-0.778,1.691-0.778c1.211,0,1.826,0.692,1.848,2.079v3.84
		h-1.305v-3.766c0-0.368-0.08-0.642-0.238-0.818c-0.16-0.178-0.42-0.266-0.782-0.266c-0.526,0-0.919,0.237-1.177,0.714v4.136h-1.305
		v-5.812H36.201z"/>
	<path fill="#FFFFFF" d="M42.742,90.873v1.413h1.026v0.967h-1.026v3.244c0,0.222,0.045,0.382,0.133,0.48
		c0.087,0.099,0.244,0.147,0.469,0.147c0.15,0,0.303-0.018,0.457-0.053v1.01c-0.297,0.082-0.584,0.123-0.859,0.123
		c-1.002,0-1.504-0.553-1.504-1.66v-3.292h-0.956v-0.967h0.956v-1.413H42.742z"/>
	<path fill="#FFFFFF" d="M44.359,95.139c0-0.57,0.113-1.083,0.338-1.539c0.227-0.457,0.543-0.808,0.951-1.053
		s0.877-0.368,1.407-0.368c0.784,0,1.421,0.253,1.909,0.757c0.488,0.506,0.753,1.175,0.793,2.01l0.005,0.306
		c0,0.573-0.11,1.085-0.331,1.536c-0.219,0.451-0.535,0.801-0.945,1.047c-0.409,0.248-0.883,0.371-1.42,0.371
		c-0.82,0-1.477-0.273-1.969-0.819s-0.738-1.273-0.738-2.183V95.139z M45.664,95.251c0,0.598,0.124,1.066,0.371,1.404
		c0.247,0.339,0.591,0.508,1.031,0.508s0.783-0.172,1.029-0.516c0.244-0.344,0.367-0.847,0.367-1.509
		c0-0.588-0.127-1.053-0.379-1.396s-0.596-0.516-1.028-0.516c-0.427,0-0.765,0.169-1.015,0.507
		C45.79,94.072,45.664,94.578,45.664,95.251z"/>
	<path fill="#FFFFFF" d="M53.909,93.479c-0.172-0.028-0.349-0.043-0.532-0.043c-0.598,0-1,0.229-1.208,0.688v3.975h-1.306v-5.812
		h1.246l0.033,0.649c0.314-0.504,0.752-0.757,1.311-0.757c0.186,0,0.34,0.025,0.461,0.075L53.909,93.479z"/>
	<path fill="#FFFFFF" d="M56.863,96.229l1.182-3.942h1.391l-2.309,6.692c-0.355,0.978-0.957,1.467-1.805,1.467
		c-0.19,0-0.4-0.033-0.629-0.098v-1.015l0.247,0.017c0.329,0,0.577-0.061,0.743-0.181c0.168-0.119,0.299-0.32,0.396-0.604
		l0.188-0.499l-2.041-5.78h1.406L56.863,96.229z"/>
	<path fill="#FFFFFF" d="M22.456,110.362c0.325,0,0.597-0.095,0.812-0.284c0.215-0.19,0.329-0.425,0.344-0.704h1.229
		c-0.015,0.361-0.127,0.699-0.339,1.013c-0.211,0.313-0.497,0.561-0.859,0.744c-0.361,0.182-0.752,0.273-1.17,0.273
		c-0.813,0-1.458-0.264-1.934-0.789c-0.477-0.527-0.715-1.254-0.715-2.182V108.3c0-0.885,0.236-1.593,0.709-2.124
		c0.473-0.532,1.117-0.798,1.934-0.798c0.691,0,1.254,0.201,1.689,0.604c0.436,0.402,0.663,0.932,0.685,1.587h-1.229
		c-0.015-0.333-0.129-0.606-0.342-0.821s-0.484-0.322-0.813-0.322c-0.423,0-0.749,0.152-0.978,0.459
		c-0.229,0.306-0.346,0.771-0.35,1.394v0.21c0,0.63,0.114,1.1,0.342,1.409C21.697,110.207,22.026,110.362,22.456,110.362z"/>
	<path fill="#FFFFFF" d="M25.582,108.338c0-0.57,0.113-1.083,0.338-1.539c0.227-0.457,0.543-0.808,0.951-1.053
		s0.877-0.368,1.407-0.368c0.784,0,1.421,0.253,1.909,0.757c0.488,0.506,0.753,1.175,0.793,2.01l0.005,0.306
		c0,0.573-0.11,1.085-0.331,1.536c-0.219,0.451-0.535,0.801-0.945,1.047c-0.409,0.248-0.883,0.371-1.42,0.371
		c-0.82,0-1.477-0.273-1.969-0.819s-0.738-1.273-0.738-2.183V108.338z M26.887,108.45c0,0.598,0.124,1.066,0.371,1.404
		c0.247,0.339,0.591,0.508,1.031,0.508s0.783-0.172,1.029-0.516c0.244-0.344,0.367-0.847,0.367-1.509
		c0-0.588-0.127-1.053-0.379-1.396s-0.596-0.516-1.028-0.516c-0.427,0-0.765,0.169-1.015,0.507
		C27.013,107.271,26.887,107.777,26.887,108.45z"/>
	<path fill="#FFFFFF" d="M33.301,105.485l0.037,0.671c0.43-0.519,0.994-0.778,1.691-0.778c1.211,0,1.826,0.692,1.848,2.079v3.84
		h-1.305v-3.766c0-0.368-0.08-0.642-0.238-0.818c-0.16-0.178-0.42-0.266-0.782-0.266c-0.526,0-0.919,0.237-1.177,0.714v4.136H32.07
		v-5.812H33.301z"/>
	<path fill="#FFFFFF" d="M39.842,104.072v1.413h1.026v0.967h-1.026v3.244c0,0.222,0.045,0.382,0.133,0.48
		c0.087,0.099,0.244,0.147,0.469,0.147c0.15,0,0.303-0.018,0.457-0.053v1.01c-0.297,0.082-0.584,0.123-0.859,0.123
		c-1.002,0-1.504-0.553-1.504-1.66v-3.292h-0.956v-0.967h0.956v-1.413H39.842z"/>
	<path fill="#FFFFFF" d="M44.907,106.678c-0.172-0.028-0.349-0.043-0.532-0.043c-0.598,0-1,0.229-1.208,0.688v3.975h-1.306v-5.812
		h1.246l0.033,0.649c0.314-0.504,0.752-0.757,1.311-0.757c0.186,0,0.34,0.025,0.461,0.075L44.907,106.678z"/>
	<path fill="#FFFFFF" d="M45.294,108.338c0-0.57,0.112-1.083,0.339-1.539c0.225-0.457,0.542-0.808,0.95-1.053
		s0.878-0.368,1.407-0.368c0.784,0,1.42,0.253,1.91,0.757c0.488,0.506,0.752,1.175,0.791,2.01l0.006,0.306
		c0,0.573-0.109,1.085-0.33,1.536s-0.535,0.801-0.945,1.047c-0.41,0.248-0.884,0.371-1.421,0.371c-0.819,0-1.476-0.273-1.968-0.819
		c-0.493-0.546-0.739-1.273-0.739-2.183V108.338z M46.6,108.45c0,0.598,0.123,1.066,0.37,1.404c0.247,0.339,0.591,0.508,1.031,0.508
		s0.783-0.172,1.028-0.516c0.246-0.344,0.368-0.847,0.368-1.509c0-0.588-0.126-1.053-0.378-1.396
		c-0.254-0.344-0.596-0.516-1.029-0.516c-0.426,0-0.765,0.169-1.016,0.507C46.725,107.271,46.6,107.777,46.6,108.45z"/>
	<path fill="#FFFFFF" d="M53.189,111.297h-1.305v-8.25h1.305V111.297z"/>
	<path fill="#FFFFFF" d="M22.676,122.918c0-0.232-0.096-0.41-0.287-0.531c-0.191-0.122-0.51-0.229-0.953-0.322
		c-0.444-0.094-0.814-0.212-1.112-0.355c-0.651-0.314-0.978-0.771-0.978-1.369c0-0.501,0.211-0.92,0.634-1.257
		s0.96-0.505,1.611-0.505c0.694,0,1.256,0.172,1.685,0.516c0.428,0.344,0.641,0.789,0.641,1.338h-1.305
		c0-0.251-0.094-0.46-0.279-0.626c-0.186-0.167-0.434-0.25-0.741-0.25c-0.286,0-0.521,0.066-0.7,0.198
		c-0.182,0.133-0.271,0.311-0.271,0.532c0,0.2,0.084,0.356,0.252,0.468c0.168,0.11,0.508,0.223,1.021,0.335
		c0.513,0.113,0.914,0.247,1.206,0.403c0.291,0.155,0.508,0.343,0.65,0.561c0.141,0.219,0.211,0.484,0.211,0.795
		c0,0.523-0.217,0.946-0.649,1.271s-1.001,0.486-1.702,0.486c-0.477,0-0.9-0.086-1.273-0.258s-0.662-0.408-0.87-0.709
		s-0.312-0.625-0.312-0.972h1.268c0.018,0.308,0.135,0.545,0.35,0.711c0.215,0.167,0.499,0.25,0.854,0.25
		c0.344,0,0.605-0.065,0.784-0.196S22.676,123.129,22.676,122.918z"/>
	<path fill="#FFFFFF" d="M27.129,122.628l1.182-3.942h1.391l-2.31,6.692c-0.354,0.978-0.956,1.466-1.805,1.466
		c-0.19,0-0.399-0.032-0.628-0.097v-1.015l0.246,0.016c0.33,0,0.578-0.06,0.744-0.18c0.166-0.119,0.299-0.32,0.395-0.604
		l0.188-0.499l-2.041-5.78h1.407L27.129,122.628z"/>
	<path fill="#FFFFFF" d="M33.708,122.918c0-0.232-0.096-0.41-0.288-0.531c-0.191-0.122-0.509-0.229-0.953-0.322
		c-0.443-0.094-0.814-0.212-1.111-0.355c-0.652-0.314-0.978-0.771-0.978-1.369c0-0.501,0.212-0.92,0.634-1.257
		s0.959-0.505,1.611-0.505c0.695,0,1.256,0.172,1.684,0.516s0.643,0.789,0.643,1.338h-1.306c0-0.251-0.093-0.46-0.279-0.626
		c-0.187-0.167-0.433-0.25-0.741-0.25c-0.287,0-0.52,0.066-0.701,0.198c-0.181,0.133-0.271,0.311-0.271,0.532
		c0,0.2,0.084,0.356,0.253,0.468c0.169,0.11,0.509,0.223,1.021,0.335c0.512,0.113,0.914,0.247,1.205,0.403
		c0.293,0.155,0.51,0.343,0.65,0.561c0.142,0.219,0.213,0.484,0.213,0.795c0,0.523-0.217,0.946-0.65,1.271s-1.001,0.486-1.703,0.486
		c-0.476,0-0.9-0.086-1.272-0.258s-0.663-0.408-0.87-0.709s-0.312-0.625-0.312-0.972h1.268c0.019,0.308,0.134,0.545,0.349,0.711
		c0.215,0.167,0.5,0.25,0.854,0.25c0.344,0,0.604-0.065,0.784-0.196S33.708,123.129,33.708,122.918z"/>
	<path fill="#FFFFFF" d="M37.764,117.273v1.412h1.025v0.967h-1.025v3.244c0,0.222,0.043,0.382,0.131,0.48s0.244,0.148,0.471,0.148
		c0.15,0,0.303-0.019,0.456-0.055v1.01c-0.298,0.083-0.583,0.124-0.859,0.124c-1.003,0-1.504-0.554-1.504-1.659v-3.293h-0.956
		v-0.967h0.956v-1.412H37.764z"/>
	<path fill="#FFFFFF" d="M42.345,124.604c-0.827,0-1.497-0.261-2.011-0.781c-0.515-0.521-0.771-1.215-0.771-2.081v-0.162
		c0-0.58,0.111-1.098,0.336-1.555c0.224-0.456,0.537-0.812,0.942-1.066c0.405-0.254,0.856-0.381,1.354-0.381
		c0.792,0,1.403,0.252,1.835,0.758c0.431,0.504,0.646,1.219,0.646,2.143v0.526h-3.797c0.039,0.479,0.199,0.859,0.48,1.139
		s0.635,0.419,1.061,0.419c0.598,0,1.085-0.242,1.461-0.725l0.703,0.671c-0.232,0.348-0.543,0.617-0.932,0.809
		S42.828,124.604,42.345,124.604z M42.189,119.625c-0.358,0-0.648,0.126-0.867,0.377c-0.221,0.25-0.361,0.6-0.422,1.047h2.486
		v-0.097c-0.029-0.437-0.145-0.768-0.35-0.991C42.834,119.737,42.551,119.625,42.189,119.625z"/>
	<path fill="#FFFFFF" d="M46.916,118.686l0.037,0.607c0.408-0.477,0.967-0.715,1.676-0.715c0.777,0,1.309,0.297,1.596,0.892
		c0.422-0.595,1.017-0.892,1.783-0.892c0.641,0,1.117,0.178,1.432,0.531c0.313,0.355,0.473,0.878,0.48,1.568v3.819h-1.306v-3.781
		c0-0.369-0.081-0.64-0.241-0.812c-0.162-0.172-0.428-0.258-0.801-0.258c-0.297,0-0.539,0.08-0.729,0.239
		c-0.188,0.159-0.318,0.368-0.395,0.626l0.006,3.985H49.15v-3.824c-0.019-0.684-0.367-1.026-1.048-1.026
		c-0.522,0-0.894,0.214-1.112,0.64v4.211h-1.305v-5.812H46.916z"/>
</g>
<g opacity="0.5">
	<path fill="#231F20" d="M36.674,2.646c18.07,0,33.287,13.914,34.643,31.677l0.07,0.924h0.063V156.06h-0.164l-0.106,0.88
		c-2.077,17.206-16.911,30.182-34.505,30.182c-17.598,0-32.433-12.976-34.508-30.182l-0.106-0.88H1.894V35.247h0.063l0.07-0.924
		C3.382,16.56,18.601,2.646,36.674,2.646 M36.674,1.646c-18.849,0-34.253,14.372-35.644,32.601H0.894V157.06h0.279
		c2.109,17.491,17.187,31.062,35.501,31.062c18.311,0,33.386-13.57,35.498-31.062h0.277V34.247h-0.136
		C70.923,16.018,55.517,1.646,36.674,1.646L36.674,1.646z"/>
</g>
</svg>
