<?xml version="1.0" encoding="utf-8"?>
<!-- Generator: Adobe Illustrator 15.0.0, SVG Export Plug-In . SVG Version: 6.00 Build 0)  -->
<!DOCTYPE svg PUBLIC "-//W3C//DTD SVG 1.1//EN" "http://www.w3.org/Graphics/SVG/1.1/DTD/svg11.dtd">
<svg version="1.1" id="Layer_1" xmlns="http://www.w3.org/2000/svg" xmlns:xlink="http://www.w3.org/1999/xlink" x="0px" y="0px"
	 width="1200px" height="600px" viewBox="-90 0 1200 600" enable-background="new -90 0 1200 600" xml:space="preserve">
<g>
	<polygon fill="#D2D3D3" points="321.205,189.711 316.205,189.711 316.205,151.592 440.873,151.592 440.873,156.592 
		321.205,156.592 	"/>
	<path fill="#999999" d="M321.705,190.211h-6v-39.12h125.667v6H321.705V190.211z M316.705,189.211h4v-33.12h119.667v-4H316.705
		V189.211z"/>
</g>
<g>
	<polygon fill="#D2D3D3" points="465.298,415.272 201.606,415.272 201.606,382.483 206.606,382.483 206.606,410.272 
		465.298,410.272 	"/>
	<path fill="#999999" d="M465.798,415.772H201.106v-33.789h6v27.789h258.692V415.772z M202.106,414.772h262.692v-4H206.106v-27.789
		h-4V414.772z"/>
</g>
<g>
	<rect x="131.367" y="382.483" fill="#D2D3D3" width="5" height="53.308"/>
	<path fill="#999999" d="M136.867,436.291h-6v-54.308h6V436.291z M131.867,435.291h4v-52.308h-4V435.291z"/>
</g>
<g>
	<polyline fill="#D2D3D3" points="-4.95,59.796 251.613,59.796 251.613,187.211 438.699,187.211 438.699,192.211 246.613,192.211 
		246.613,64.796 -4.95,64.796 	"/>
	<polygon fill="#999999" points="439.199,192.711 246.113,192.711 246.113,65.296 -4.95,65.296 -4.95,64.296 247.113,64.296 
		247.113,191.711 438.199,191.711 438.199,187.711 251.113,187.711 251.113,60.296 -4.95,60.296 -4.95,59.296 252.113,59.296 
		252.113,186.711 439.199,186.711 	"/>
</g>
<g>
	<polygon fill="#D2D3D3" points="513.134,188.598 508.134,188.598 508.134,156.592 462.353,156.592 462.353,151.592 
		513.134,151.592 	"/>
	<path fill="#999999" d="M513.634,189.098h-6v-32.006h-45.781v-6h51.781V189.098z M508.634,188.098h4v-36.006h-49.781v4h45.781
		V188.098z"/>
</g>
<g>
	<polygon fill="#D2D3D3" points="624.032,208.241 115.419,208.241 115.419,203.241 619.032,203.241 619.032,189.733 
		624.032,189.733 	"/>
	<path fill="#999999" d="M624.532,208.741H114.919v-6h503.613v-13.508h6V208.741z M115.919,207.741h507.613v-17.508h-4v13.508
		H115.919V207.741z"/>
</g>
<g>
	<polygon fill="#D2D3D3" points="231.76,311.066 226.76,311.066 226.76,229.246 786.735,229.246 786.735,261.754 781.735,261.754 
		781.735,234.246 231.76,234.246 	"/>
	<path fill="#999999" d="M232.26,311.566h-6v-82.821h560.976v33.508h-6v-27.508H232.26V311.566z M227.26,310.566h4v-76.821h550.976
		v27.508h4v-31.508H227.26V310.566z"/>
</g>
<g>
	<polygon fill="#D2D3D3" points="285.674,311.066 280.674,311.066 280.674,243.25 452.915,243.25 452.915,259.752 447.915,259.752 
		447.915,248.25 285.674,248.25 	"/>
	<path fill="#999999" d="M286.174,311.566h-6V242.75h173.241v17.503h-6V248.75H286.174V311.566z M281.174,310.566h4V247.75h163.241
		v11.503h4V243.75H281.174V310.566z"/>
</g>
<g>
	<polygon fill="#D2D3D3" points="873.232,311.067 868.232,311.067 868.232,219.576 472.294,219.576 472.294,259.086 
		467.294,259.086 467.294,214.576 873.232,214.576 	"/>
	<path fill="#999999" d="M873.732,311.567h-6v-91.492H472.794v39.511h-6v-45.511h406.938V311.567z M868.732,310.567h4v-95.492
		H467.794v43.511h4v-39.511h396.938V310.567z"/>
</g>
<g>
	<polygon fill="#D2D3D3" points="908.323,313.098 903.323,313.098 903.323,234.246 802.505,234.246 802.505,257.084 
		797.505,257.084 797.505,229.246 908.323,229.246 	"/>
	<path fill="#999999" d="M908.823,313.598h-6v-78.852h-99.818v22.839h-6v-28.839h111.818V313.598z M903.823,312.598h4v-82.852
		H798.005v26.839h4v-22.839h101.818V312.598z"/>
</g>
<g>
	<rect x="868.232" y="336.578" fill="#D2D3D3" width="5" height="45.887"/>
	<path fill="#999999" d="M873.732,382.965h-6v-46.887h6V382.965z M868.732,381.965h4v-44.887h-4V381.965z"/>
</g>
<g>
	<rect x="903.303" y="336.035" fill="#D2D3D3" width="5" height="46.43"/>
	<path fill="#999999" d="M908.803,382.965h-6v-47.43h6V382.965z M903.803,381.965h4v-45.43h-4V381.965z"/>
</g>
<g>
	<polygon fill="#D2D3D3" points="283.154,367.607 226.76,367.607 226.76,336.705 231.76,336.705 231.76,362.607 283.154,362.607 	
		"/>
	<path fill="#999999" d="M283.654,368.107H226.26v-31.902h6v25.902h51.395V368.107z M227.26,367.107h55.395v-4H231.26v-25.902h-4
		V367.107z"/>
</g>
<g>
	<rect x="280.674" y="337.102" fill="#D2D3D3" width="5" height="45.363"/>
	<path fill="#999999" d="M286.174,382.965h-6v-46.363h6V382.965z M281.174,381.965h4v-44.363h-4V381.965z"/>
</g>
<g>
	<polygon fill="#D2D3D3" points="992.113,384.965 578.188,384.965 578.188,379.965 987.113,379.965 987.113,192.233 
		465.298,192.233 465.298,187.233 992.113,187.233 	"/>
	<path fill="#999999" d="M992.613,385.465H577.688v-6h408.925V192.733H464.798v-6h527.815V385.465z M578.688,384.465h412.925
		V187.733H465.798v4h521.815v188.732H578.688V384.465z"/>
</g>
<g>
	<polygon fill="#D2D3D3" points="98.593,435.791 93.593,435.791 93.593,379.965 556.851,379.965 556.851,384.965 98.593,384.965 	
		"/>
	<path fill="#999999" d="M99.093,436.291h-6v-56.826h464.257v6H99.093V436.291z M94.093,435.291h4v-50.826h458.257v-4H94.093
		V435.291z"/>
</g>
<g>
	<polygon fill="#D2D3D3" points="780.958,584.992 131.367,584.992 131.367,459.797 136.367,459.797 136.367,579.992 
		775.958,579.992 775.958,541.149 780.958,541.149 	"/>
	<path fill="#999999" d="M781.458,585.492H130.867V459.297h6v120.195h638.591v-38.843h6V585.492z M131.867,584.492h648.591v-42.843
		h-4v38.843H135.867V460.297h-4V584.492z"/>
</g>
<g>
	<polygon fill="#D2D3D3" points="481.368,568.989 93.593,568.989 93.593,459.797 98.593,459.797 98.593,563.989 476.368,563.989 
		476.368,539.148 481.368,539.148 	"/>
	<path fill="#999999" d="M481.868,569.489H93.093V459.297h6v104.192h376.775v-24.841h6V569.489z M94.093,568.489h386.775v-28.841h-4
		v24.841H98.093V460.297h-4V568.489z"/>
</g>
<g>
	<polygon fill="#D2D3D3" points="926.101,506.308 800.005,506.308 800.005,501.308 921.101,501.308 921.101,443.793 
		926.101,443.793 	"/>
	<path fill="#999999" d="M926.601,506.808H799.505v-6h121.096v-57.515h6V506.808z M800.505,505.808h125.096v-61.515h-4v57.515
		H800.505V505.808z"/>
</g>
<g>
	<rect x="486.494" y="410.254" fill="#D2D3D3" width="567.136" height="5"/>
	<path fill="#999999" d="M1054.13,415.754H485.994v-6h568.136V415.754z M486.994,414.754h566.136v-4H486.994V414.754z"/>
</g>
<g>
	<polyline fill="#D2D3D3" points="-4.95,91.085 1059.464,91.085 1059.464,446.293 570.099,446.293 570.099,510.309 496.839,510.309 
		496.839,505.309 565.099,505.309 565.099,441.293 1054.464,441.293 1054.464,96.085 -4.95,96.085 	"/>
	<polygon fill="#999999" points="570.599,510.809 496.339,510.809 496.339,504.809 564.599,504.809 564.599,440.793 
		1053.964,440.793 1053.964,96.585 -4.95,96.585 -4.95,95.585 1054.964,95.585 1054.964,441.793 565.599,441.793 565.599,505.809 
		497.339,505.809 497.339,509.809 569.599,509.809 569.599,445.793 1058.964,445.793 1058.964,91.585 -4.95,91.585 -4.95,90.585 
		1059.964,90.585 1059.964,446.793 570.599,446.793 	"/>
</g>
<g>
	<linearGradient id="SVGID_1_" gradientUnits="userSpaceOnUse" x1="752.833" y1="515.0977" x2="805.209" y2="515.0977">
		<stop  offset="0" style="stop-color:#917887"/>
		<stop  offset="0.1455" style="stop-color:#C4B3BD"/>
		<stop  offset="0.5" style="stop-color:#FFFFFF"/>
		<stop  offset="0.8485" style="stop-color:#C4B3BD"/>
		<stop  offset="1" style="stop-color:#917887"/>
	</linearGradient>
	<path fill="url(#SVGID_1_)" d="M752.833,482.084v44.201v7.467v0.073h0.027c2.588,8.163,13.311,14.287,26.152,14.287
		c12.846,0,23.567-6.124,26.154-14.287h0.042v-0.11v-7.394v-44.237H752.833z"/>
	<path opacity="0.5" fill="#231F20" d="M804.209,483.084v43.237v7.217c-2.504,7.866-13.097,13.574-25.196,13.574
		c-12.074,0-22.648-5.686-25.18-13.528v-7.299v-43.201H804.209 M805.209,482.084h-52.376v44.201v7.467v0.073h0.027
		c2.588,8.163,13.311,14.287,26.152,14.287c12.846,0,23.567-6.124,26.154-14.287h0.042v-0.11v-7.394V482.084L805.209,482.084z"/>
	<linearGradient id="SVGID_2_" gradientUnits="userSpaceOnUse" x1="739.1904" y1="480.8359" x2="818.8516" y2="480.8359">
		<stop  offset="0" style="stop-color:#917887"/>
		<stop  offset="0.1455" style="stop-color:#C4B3BD"/>
		<stop  offset="0.5" style="stop-color:#FFFFFF"/>
		<stop  offset="0.8485" style="stop-color:#C4B3BD"/>
		<stop  offset="1" style="stop-color:#917887"/>
	</linearGradient>
	<rect x="739.19" y="478.432" fill="url(#SVGID_2_)" width="79.661" height="4.809"/>
	<path opacity="0.5" fill="#231F20" d="M817.852,479.432v2.809H740.19v-2.809H817.852 M818.852,478.432H739.19v4.809h79.661V478.432
		L818.852,478.432z"/>
</g>
<g>
	<linearGradient id="SVGID_3_" gradientUnits="userSpaceOnUse" x1="452.6157" y1="515.0977" x2="504.9917" y2="515.0977">
		<stop  offset="0" style="stop-color:#917887"/>
		<stop  offset="0.1455" style="stop-color:#C4B3BD"/>
		<stop  offset="0.5" style="stop-color:#FFFFFF"/>
		<stop  offset="0.8485" style="stop-color:#C4B3BD"/>
		<stop  offset="1" style="stop-color:#917887"/>
	</linearGradient>
	<path fill="url(#SVGID_3_)" d="M452.616,482.084v44.201v7.467v0.073h0.027c2.588,8.163,13.311,14.287,26.152,14.287
		c12.846,0,23.567-6.124,26.154-14.287h0.042v-0.11v-7.394v-44.237H452.616z"/>
	<path opacity="0.5" fill="#231F20" d="M503.992,483.084v43.237v7.217c-2.504,7.866-13.097,13.574-25.196,13.574
		c-12.074,0-22.648-5.686-25.18-13.528v-7.299v-43.201H503.992 M504.992,482.084h-52.376v44.201v7.467v0.073h0.027
		c2.588,8.163,13.311,14.287,26.152,14.287c12.846,0,23.567-6.124,26.154-14.287h0.042v-0.11v-7.394V482.084L504.992,482.084z"/>
	<linearGradient id="SVGID_4_" gradientUnits="userSpaceOnUse" x1="438.9731" y1="480.8359" x2="518.6348" y2="480.8359">
		<stop  offset="0" style="stop-color:#917887"/>
		<stop  offset="0.1455" style="stop-color:#C4B3BD"/>
		<stop  offset="0.5" style="stop-color:#FFFFFF"/>
		<stop  offset="0.8485" style="stop-color:#C4B3BD"/>
		<stop  offset="1" style="stop-color:#917887"/>
	</linearGradient>
	<rect x="438.973" y="478.432" fill="url(#SVGID_4_)" width="79.662" height="4.809"/>
	<path opacity="0.5" fill="#231F20" d="M517.635,479.432v2.809h-77.662v-2.809H517.635 M518.635,478.432h-79.662v4.809h79.662
		V478.432L518.635,478.432z"/>
</g>
<polygon fill="#050505" points="567.707,121.305 510.634,121.305 510.634,120.805 567.49,120.805 626.092,57.934 877.253,57.934 
	877.253,58.434 626.309,58.434 "/>
<g>
	<rect x="775.6" y="237.459" width="0.6" height="12.998"/>
	<g>
		<polygon points="772.925,249.582 775.916,254.763 778.907,249.582 		"/>
	</g>
</g>
<g>
	<rect x="860.16" y="358.73" width="0.6" height="11.94"/>
	<g>
		<polygon points="857.485,369.795 860.477,374.977 863.468,369.795 		"/>
	</g>
</g>
<g>
	<rect x="896.36" y="358.732" width="0.6" height="11.938"/>
	<g>
		<polygon points="893.686,369.795 896.677,374.977 899.668,369.795 		"/>
	</g>
</g>
<g>
	<rect x="208.779" y="83.646" width="13.671" height="0.6"/>
	<g>
		<polygon points="221.574,86.92 226.755,83.929 221.574,80.938 		"/>
	</g>
</g>
<g>
	<rect x="-23.567" y="61.997" width="13.671" height="0.6"/>
	<g>
		<polygon points="-22.691,59.322 -27.873,62.313 -22.691,65.305 		"/>
	</g>
</g>
<g>
	<path fill="#212121" d="M30.722,202.494h-2.438v6.725h-1.348v-6.725h-2.417v-1.096h6.204V202.494z"/>
	<path fill="#212121" d="M37.838,205.512c0,0.766-0.132,1.438-0.397,2.017c-0.265,0.578-0.644,1.022-1.136,1.332
		c-0.492,0.31-1.059,0.464-1.7,0.464c-0.634,0-1.199-0.155-1.695-0.464c-0.496-0.31-0.879-0.751-1.149-1.324
		c-0.27-0.573-0.407-1.233-0.411-1.982v-0.44c0-0.763,0.135-1.436,0.406-2.02c0.27-0.583,0.651-1.03,1.144-1.34
		c0.493-0.31,1.058-0.464,1.695-0.464s1.202,0.153,1.695,0.459c0.492,0.306,0.873,0.746,1.141,1.321
		c0.269,0.574,0.405,1.243,0.408,2.006V205.512z M36.479,205.104c0-0.867-0.164-1.531-0.491-1.993
		c-0.328-0.462-0.792-0.693-1.394-0.693c-0.587,0-1.046,0.23-1.377,0.69c-0.332,0.46-0.5,1.111-0.508,1.953v0.451
		c0,0.859,0.167,1.523,0.502,1.993c0.335,0.469,0.8,0.704,1.394,0.704c0.602,0,1.064-0.229,1.388-0.688
		c0.324-0.458,0.486-1.128,0.486-2.009V205.104z"/>
	<path fill="#212121" d="M41.931,209.218v-7.82h2.68c0.884,0,1.558,0.177,2.02,0.532s0.693,0.883,0.693,1.584
		c0,0.358-0.097,0.68-0.29,0.967s-0.476,0.508-0.849,0.666c0.422,0.115,0.75,0.331,0.98,0.647c0.231,0.317,0.347,0.698,0.347,1.142
		c0,0.734-0.235,1.298-0.706,1.692c-0.471,0.394-1.145,0.591-2.022,0.591H41.931z M43.29,204.69h1.332
		c0.422,0,0.753-0.096,0.991-0.287c0.238-0.192,0.357-0.463,0.357-0.814c0-0.387-0.11-0.666-0.331-0.838
		c-0.22-0.172-0.563-0.258-1.028-0.258H43.29V204.69z M43.29,205.689v2.444h1.509c0.426,0,0.759-0.105,0.999-0.317
		s0.36-0.505,0.36-0.881c0-0.813-0.416-1.228-1.246-1.246H43.29z"/>
	<path fill="#212121" d="M50.229,208.133h3.55v1.085h-4.909v-7.82h1.359V208.133z"/>
	<path fill="#212121" d="M59.393,205.727h-3.212v2.406h3.754v1.085h-5.113v-7.82h5.076v1.096h-3.717v2.159h3.212V205.727z"/>
	<path fill="#212121" d="M65.612,205.727H62.4v2.406h3.754v1.085h-5.113v-7.82h5.076v1.096H62.4v2.159h3.212V205.727z"/>
	<path fill="#212121" d="M67.261,209.218v-7.82h2.31c0.691,0,1.304,0.154,1.839,0.462c0.536,0.308,0.95,0.745,1.244,1.311
		s0.44,1.214,0.44,1.944v0.392c0,0.741-0.148,1.393-0.443,1.955c-0.296,0.562-0.716,0.996-1.263,1.3
		c-0.546,0.304-1.171,0.457-1.877,0.457H67.261z M68.62,202.494v5.64h0.886c0.712,0,1.259-0.223,1.641-0.668
		c0.381-0.446,0.575-1.086,0.583-1.92v-0.435c0-0.849-0.185-1.497-0.553-1.944s-0.904-0.671-1.606-0.671H68.62z"/>
	<path fill="#212121" d="M79.942,207.516l1.987-6.118h1.493l-2.814,7.82h-1.316l-2.804-7.82h1.488L79.942,207.516z"/>
	<path fill="#212121" d="M88.278,207.397h-3.029l-0.634,1.821h-1.413l2.954-7.82h1.219l2.959,7.82h-1.418L88.278,207.397z
		 M85.63,206.302h2.267l-1.133-3.244L85.63,206.302z"/>
	<path fill="#212121" d="M92.581,208.133h3.55v1.085h-4.909v-7.82h1.359V208.133z"/>
	<path fill="#212121" d="M98.822,207.516l1.987-6.118h1.493l-2.814,7.82h-1.316l-2.804-7.82h1.488L98.822,207.516z"/>
	<path fill="#212121" d="M107.754,205.727h-3.212v2.406h3.754v1.085h-5.113v-7.82h5.076v1.096h-3.717v2.159h3.212V205.727z"/>
</g>
<g>
	<path fill="#212121" d="M473.281,513.604h-3.434v3.615h-1.482v-8.531h5.42v1.195h-3.938v2.537h3.434V513.604z"/>
	<path fill="#212121" d="M478.091,513.938h-1.652v3.281h-1.482v-8.531h3c0.984,0,1.744,0.221,2.279,0.662s0.803,1.081,0.803,1.918
		c0,0.57-0.138,1.049-0.413,1.434s-0.659,0.682-1.151,0.889l1.916,3.553v0.076h-1.588L478.091,513.938z M476.439,512.742h1.523
		c0.5,0,0.891-0.127,1.172-0.379s0.422-0.596,0.422-1.033c0-0.457-0.13-0.811-0.39-1.061s-0.647-0.379-1.163-0.387h-1.564V512.742z"
		/>
	<path fill="#212121" d="M489.06,517.219h-1.418v-6.854l-2.092,0.713v-1.195l3.328-1.225h0.182V517.219z"/>
</g>
<g>
	<path fill="#212121" d="M774.28,513.604h-3.434v3.615h-1.482v-8.531h5.42v1.195h-3.938v2.537h3.434V513.604z"/>
	<path fill="#212121" d="M779.091,513.938h-1.652v3.281h-1.482v-8.531h3c0.984,0,1.744,0.221,2.279,0.662s0.803,1.081,0.803,1.918
		c0,0.57-0.138,1.049-0.413,1.434s-0.659,0.682-1.151,0.889l1.916,3.553v0.076h-1.588L779.091,513.938z M777.438,512.742h1.523
		c0.5,0,0.891-0.127,1.172-0.379s0.422-0.596,0.422-1.033c0-0.457-0.13-0.811-0.39-1.061s-0.647-0.379-1.163-0.387h-1.564V512.742z"
		/>
	<path fill="#212121" d="M791.94,517.219h-5.736v-0.979l2.842-3.1c0.41-0.457,0.702-0.84,0.876-1.146s0.261-0.613,0.261-0.922
		c0-0.406-0.114-0.734-0.343-0.984s-0.536-0.375-0.923-0.375c-0.461,0-0.818,0.141-1.072,0.422s-0.381,0.666-0.381,1.154h-1.424
		c0-0.52,0.118-0.988,0.354-1.404s0.574-0.738,1.014-0.969s0.946-0.346,1.521-0.346c0.828,0,1.481,0.207,1.96,0.623
		s0.718,0.992,0.718,1.727c0,0.426-0.12,0.871-0.36,1.338s-0.634,0.998-1.181,1.592l-2.086,2.232h3.961V517.219z"/>
</g>
<g>
	<path fill="#212121" d="M486.556,121.026h-1.515v3.008h-1.359v-7.82h2.75c0.902,0,1.599,0.203,2.089,0.607
		c0.491,0.405,0.736,0.991,0.736,1.758c0,0.523-0.126,0.961-0.379,1.314c-0.252,0.353-0.604,0.625-1.055,0.814l1.756,3.256v0.07
		h-1.456L486.556,121.026z M485.042,119.931h1.396c0.458,0,0.816-0.115,1.074-0.347c0.258-0.23,0.387-0.547,0.387-0.948
		c0-0.419-0.119-0.743-0.357-0.972c-0.238-0.229-0.594-0.347-1.066-0.354h-1.434V119.931z"/>
	<path fill="#212121" d="M496.514,121.488c-0.079,0.834-0.387,1.485-0.924,1.952c-0.537,0.468-1.251,0.701-2.143,0.701
		c-0.623,0-1.172-0.147-1.646-0.443c-0.474-0.295-0.84-0.715-1.098-1.259s-0.392-1.176-0.403-1.896v-0.73
		c0-0.738,0.131-1.388,0.392-1.95s0.636-0.996,1.125-1.3c0.488-0.304,1.053-0.457,1.694-0.457c0.863,0,1.558,0.233,2.084,0.701
		c0.526,0.467,0.833,1.128,0.918,1.984h-1.354c-0.064-0.562-0.228-0.968-0.492-1.217c-0.263-0.249-0.649-0.373-1.157-0.373
		c-0.591,0-1.045,0.216-1.361,0.648c-0.317,0.432-0.479,1.065-0.486,1.9v0.693c0,0.846,0.151,1.491,0.454,1.936
		c0.302,0.444,0.746,0.667,1.329,0.667c0.534,0,0.935-0.12,1.203-0.36s0.438-0.639,0.51-1.198H496.514z"/>
	<path fill="#212121" d="M503.862,122.101l1.203-5.887h1.348l-1.805,7.82h-1.3l-1.488-5.709l-1.52,5.709h-1.305l-1.805-7.82h1.348
		l1.214,5.876l1.493-5.876h1.139L503.862,122.101z"/>
</g>
<g>
	<path fill="#212121" d="M621.561,112.014h-1.354v-3.47h-3.497v3.47h-1.358v-7.82h1.358v3.255h3.497v-3.255h1.354V112.014z"/>
	<path fill="#212121" d="M625.948,107.019l1.645-2.825h1.568l-2.363,3.878l2.416,3.942h-1.584l-1.682-2.868l-1.686,2.868h-1.58
		l2.423-3.942l-2.368-3.878h1.568L625.948,107.019z"/>
	<path fill="#212121" d="M635.268,112.014h-5.259v-0.897l2.605-2.841c0.376-0.419,0.644-0.769,0.803-1.05
		c0.159-0.281,0.239-0.563,0.239-0.846c0-0.373-0.104-0.673-0.314-0.902c-0.209-0.229-0.491-0.344-0.846-0.344
		c-0.423,0-0.75,0.129-0.983,0.387c-0.232,0.258-0.349,0.61-0.349,1.058h-1.306c0-0.476,0.108-0.905,0.325-1.286
		c0.217-0.382,0.526-0.678,0.93-0.889c0.402-0.211,0.867-0.317,1.394-0.317c0.759,0,1.358,0.19,1.797,0.572
		c0.438,0.381,0.658,0.908,0.658,1.582c0,0.39-0.11,0.799-0.331,1.227c-0.22,0.428-0.581,0.914-1.082,1.458l-1.912,2.046h3.631
		V112.014z"/>
</g>
<g>
	<path fill="#212121" d="M790.045,36.645h-2.438v6.725h-1.349v-6.725h-2.416v-1.096h6.203V36.645z"/>
	<path fill="#212121" d="M796.887,40.823c-0.078,0.834-0.387,1.485-0.924,1.952c-0.537,0.468-1.251,0.701-2.143,0.701
		c-0.623,0-1.172-0.147-1.646-0.443c-0.475-0.295-0.84-0.715-1.098-1.259s-0.393-1.176-0.403-1.896v-0.73
		c0-0.738,0.131-1.388,0.392-1.95c0.262-0.562,0.637-0.996,1.126-1.3c0.488-0.304,1.054-0.457,1.694-0.457
		c0.863,0,1.558,0.233,2.084,0.701c0.526,0.467,0.832,1.128,0.918,1.984h-1.354c-0.064-0.562-0.228-0.968-0.491-1.217
		c-0.263-0.249-0.648-0.373-1.157-0.373c-0.591,0-1.045,0.216-1.361,0.648c-0.317,0.432-0.479,1.065-0.486,1.9v0.693
		c0,0.846,0.151,1.491,0.454,1.936s0.745,0.667,1.329,0.667c0.533,0,0.935-0.12,1.203-0.36s0.438-0.639,0.51-1.198H796.887z"/>
	<path fill="#212121" d="M800.857,41.667l1.986-6.118h1.494l-2.814,7.82h-1.316l-2.804-7.82h1.487L800.857,41.667z"/>
	<path fill="#212121" d="M812.162,40.582h0.973v1.047h-0.973v1.74h-1.305v-1.74h-3.379l-0.037-0.795l3.373-5.285h1.348V40.582z
		 M808.811,40.582h2.047v-3.266l-0.097,0.172L808.811,40.582z"/>
	<path fill="#212121" d="M818.414,40.582h0.973v1.047h-0.973v1.74h-1.305v-1.74h-3.379l-0.037-0.795l3.373-5.285h1.348V40.582z
		 M815.063,40.582h2.047v-3.266l-0.097,0.172L815.063,40.582z"/>
</g>
<g>
	<path fill="#212121" d="M439.777,140.927v2.9h-1.359v-7.82h2.992c0.874,0,1.567,0.228,2.081,0.683
		c0.514,0.455,0.771,1.057,0.771,1.807c0,0.767-0.251,1.364-0.754,1.791c-0.503,0.426-1.208,0.64-2.114,0.64H439.777z
		 M439.777,139.831h1.633c0.483,0,0.852-0.114,1.106-0.341c0.254-0.227,0.381-0.556,0.381-0.985c0-0.422-0.129-0.76-0.387-1.013
		c-0.258-0.252-0.612-0.382-1.063-0.389h-1.67V139.831z"/>
	<path fill="#212121" d="M448.205,142.125l1.987-6.118h1.493l-2.814,7.82h-1.316l-2.804-7.82h1.488L448.205,142.125z"/>
	<path fill="#212121" d="M460.354,143.827h-5.258v-0.897l2.605-2.841c0.376-0.419,0.644-0.769,0.803-1.05
		c0.159-0.281,0.239-0.563,0.239-0.846c0-0.373-0.105-0.673-0.314-0.902c-0.21-0.229-0.492-0.344-0.846-0.344
		c-0.422,0-0.75,0.129-0.983,0.387s-0.349,0.61-0.349,1.058h-1.305c0-0.476,0.108-0.905,0.325-1.287
		c0.216-0.381,0.526-0.677,0.929-0.889c0.403-0.211,0.868-0.317,1.394-0.317c0.759,0,1.358,0.191,1.796,0.572
		c0.439,0.382,0.658,0.909,0.658,1.582c0,0.39-0.11,0.799-0.33,1.228c-0.221,0.428-0.581,0.914-1.083,1.458l-1.912,2.046h3.631
		V143.827z"/>
	<path fill="#212121" d="M461.697,139.949l0.424-3.942h4.2v1.128h-3.115l-0.215,1.869c0.362-0.208,0.77-0.312,1.225-0.312
		c0.745,0,1.324,0.238,1.737,0.714c0.414,0.476,0.621,1.117,0.621,1.923c0,0.795-0.229,1.428-0.688,1.898
		c-0.458,0.471-1.087,0.707-1.885,0.707c-0.716,0-1.31-0.203-1.78-0.61c-0.471-0.406-0.726-0.942-0.766-1.608h1.262
		c0.05,0.379,0.186,0.67,0.408,0.873c0.222,0.202,0.512,0.303,0.87,0.303c0.401,0,0.713-0.143,0.937-0.43
		c0.224-0.287,0.336-0.677,0.336-1.171c0-0.476-0.124-0.853-0.371-1.13c-0.247-0.278-0.587-0.417-1.021-0.417
		c-0.236,0-0.437,0.031-0.602,0.094c-0.165,0.063-0.344,0.185-0.537,0.368L461.697,139.949z"/>
</g>
<g>
	<path fill="#212121" d="M443.771,174.607h-1.354v-3.47h-3.497v3.47h-1.359v-7.82h1.359v3.255h3.497v-3.255h1.354V174.607z"/>
	<path fill="#212121" d="M451.344,172.061c-0.079,0.834-0.387,1.485-0.924,1.953c-0.537,0.467-1.251,0.701-2.143,0.701
		c-0.623,0-1.172-0.148-1.646-0.443c-0.475-0.296-0.841-0.715-1.099-1.26s-0.392-1.176-0.403-1.896v-0.73
		c0-0.738,0.131-1.388,0.392-1.95s0.637-0.996,1.125-1.3c0.489-0.304,1.054-0.457,1.695-0.457c0.863,0,1.558,0.234,2.084,0.701
		c0.526,0.468,0.833,1.129,0.918,1.985h-1.354c-0.064-0.562-0.229-0.968-0.491-1.216c-0.264-0.249-0.649-0.374-1.158-0.374
		c-0.591,0-1.044,0.216-1.362,0.648c-0.316,0.432-0.479,1.065-0.486,1.9v0.693c0,0.846,0.151,1.491,0.454,1.936
		c0.303,0.444,0.746,0.667,1.33,0.667c0.534,0,0.935-0.12,1.203-0.36s0.438-0.639,0.51-1.198H451.344z"/>
	<path fill="#212121" d="M455.313,172.904l1.987-6.118h1.493l-2.814,7.82h-1.316l-2.804-7.82h1.488L455.313,172.904z"/>
	<path fill="#212121" d="M462.554,170.729l0.424-3.942h4.2v1.128h-3.115l-0.215,1.869c0.362-0.208,0.77-0.312,1.225-0.312
		c0.745,0,1.324,0.238,1.737,0.714c0.414,0.476,0.621,1.117,0.621,1.923c0,0.795-0.229,1.428-0.688,1.898
		c-0.458,0.471-1.087,0.707-1.885,0.707c-0.716,0-1.31-0.203-1.78-0.61c-0.471-0.406-0.726-0.942-0.766-1.608h1.262
		c0.05,0.379,0.186,0.67,0.408,0.873c0.222,0.202,0.512,0.303,0.87,0.303c0.401,0,0.713-0.143,0.937-0.43
		c0.224-0.287,0.336-0.677,0.336-1.171c0-0.476-0.124-0.853-0.371-1.13c-0.247-0.278-0.587-0.417-1.021-0.417
		c-0.236,0-0.437,0.031-0.602,0.094c-0.165,0.063-0.344,0.185-0.537,0.368L462.554,170.729z"/>
</g>
<g>
	<path fill="#212121" d="M239.674,325.983l1.987-6.118h1.493l-2.814,7.82h-1.316l-2.804-7.82h1.488L239.674,325.983z"/>
	<path fill="#212121" d="M251.823,327.686h-5.258v-0.897l2.605-2.841c0.376-0.419,0.644-0.769,0.803-1.05
		c0.159-0.281,0.239-0.563,0.239-0.846c0-0.373-0.105-0.674-0.314-0.902c-0.21-0.229-0.492-0.344-0.846-0.344
		c-0.422,0-0.75,0.129-0.983,0.387s-0.349,0.61-0.349,1.058h-1.305c0-0.477,0.108-0.905,0.325-1.286
		c0.216-0.382,0.526-0.678,0.929-0.889c0.403-0.212,0.868-0.317,1.394-0.317c0.759,0,1.358,0.19,1.796,0.572
		c0.439,0.381,0.658,0.908,0.658,1.581c0,0.391-0.11,0.8-0.33,1.228c-0.221,0.428-0.581,0.914-1.083,1.458l-1.912,2.047h3.631
		V327.686z"/>
	<path fill="#212121" d="M258.075,327.686h-5.258v-0.897l2.605-2.841c0.376-0.419,0.644-0.769,0.803-1.05
		c0.159-0.281,0.239-0.563,0.239-0.846c0-0.373-0.105-0.674-0.314-0.902c-0.21-0.229-0.492-0.344-0.846-0.344
		c-0.422,0-0.75,0.129-0.983,0.387s-0.349,0.61-0.349,1.058h-1.305c0-0.477,0.108-0.905,0.325-1.286
		c0.216-0.382,0.526-0.678,0.929-0.889c0.403-0.212,0.868-0.317,1.394-0.317c0.759,0,1.358,0.19,1.796,0.572
		c0.439,0.381,0.658,0.908,0.658,1.581c0,0.391-0.11,0.8-0.33,1.228c-0.221,0.428-0.581,0.914-1.083,1.458l-1.912,2.047h3.631
		V327.686z"/>
</g>
<g>
	<path fill="#212121" d="M294.487,325.983l1.987-6.118h1.493l-2.814,7.82h-1.316l-2.804-7.82h1.488L294.487,325.983z"/>
	<path fill="#212121" d="M304.912,327.686h-1.3v-6.282l-1.917,0.653v-1.096l3.051-1.122h0.167V327.686z"/>
	<path fill="#212121" d="M311.331,324.415c-0.437,0.461-0.947,0.692-1.531,0.692c-0.688,0-1.235-0.241-1.644-0.723
		s-0.612-1.114-0.612-1.898c0-0.516,0.104-0.983,0.312-1.401c0.208-0.42,0.503-0.745,0.886-0.979
		c0.383-0.232,0.827-0.349,1.332-0.349c0.788,0,1.413,0.294,1.875,0.881s0.693,1.373,0.693,2.358v0.365
		c0,1.41-0.319,2.486-0.956,3.228s-1.588,1.117-2.852,1.128h-0.156v-1.08h0.188c0.77-0.01,1.361-0.195,1.772-0.556
		C311.049,325.723,311.28,325.167,311.331,324.415z M310.074,324.087c0.261,0,0.507-0.075,0.736-0.226s0.406-0.358,0.532-0.623
		v-0.511c0-0.576-0.118-1.04-0.354-1.391s-0.542-0.526-0.918-0.526s-0.676,0.155-0.899,0.465c-0.224,0.31-0.336,0.7-0.336,1.173
		c0,0.491,0.113,0.887,0.338,1.188S309.698,324.087,310.074,324.087z"/>
</g>
<g>
	<path fill="#212121" d="M560.316,371.581l1.986-6.117h1.494l-2.814,7.82h-1.316l-2.804-7.82h1.487L560.316,371.581z"/>
	<path fill="#212121" d="M570.74,373.284h-1.299v-6.282l-1.918,0.653v-1.096l3.051-1.123h0.166V373.284z"/>
	<path fill="#212121" d="M578.663,366.188l-3.126,7.096h-1.369l3.12-6.773h-4.044v-1.047h5.419V366.188z"/>
</g>
<g>
	<path fill="#212121" d="M469.355,401.262l1.986-6.117h1.494l-2.814,7.82h-1.316l-2.804-7.82h1.487L469.355,401.262z"/>
	<path fill="#212121" d="M481.504,402.965h-5.258v-0.896l2.604-2.842c0.376-0.419,0.644-0.769,0.803-1.05s0.239-0.563,0.239-0.847
		c0-0.372-0.104-0.673-0.314-0.902c-0.209-0.229-0.491-0.344-0.846-0.344c-0.423,0-0.75,0.129-0.982,0.387
		c-0.233,0.258-0.35,0.611-0.35,1.059h-1.305c0-0.477,0.107-0.905,0.324-1.286c0.217-0.382,0.526-0.678,0.93-0.89
		c0.402-0.211,0.867-0.316,1.394-0.316c0.759,0,1.358,0.19,1.797,0.572c0.438,0.381,0.657,0.908,0.657,1.582
		c0,0.39-0.109,0.799-0.33,1.227c-0.22,0.428-0.581,0.914-1.082,1.459l-1.912,2.046h3.631V402.965z"/>
	<path fill="#212121" d="M486.198,399.693c-0.437,0.463-0.947,0.693-1.53,0.693c-0.688,0-1.236-0.241-1.645-0.723
		s-0.611-1.114-0.611-1.898c0-0.516,0.104-0.982,0.311-1.402c0.208-0.418,0.504-0.744,0.887-0.977
		c0.383-0.233,0.827-0.35,1.332-0.35c0.788,0,1.412,0.294,1.875,0.881c0.461,0.587,0.692,1.373,0.692,2.357v0.365
		c0,1.411-0.318,2.487-0.956,3.229s-1.588,1.117-2.852,1.128h-0.156v-1.079h0.188c0.771-0.012,1.361-0.196,1.773-0.557
		C485.917,401.002,486.148,400.445,486.198,399.693z M484.941,399.366c0.262,0,0.507-0.075,0.736-0.226
		c0.229-0.15,0.406-0.358,0.531-0.623v-0.51c0-0.577-0.118-1.041-0.354-1.392s-0.542-0.526-0.919-0.526
		c-0.375,0-0.676,0.155-0.899,0.465s-0.335,0.701-0.335,1.174c0,0.49,0.112,0.886,0.338,1.187S484.565,399.366,484.941,399.366z"/>
</g>
<g>
	<path fill="#212121" d="M565.912,398.779h-1.358l-3.485-5.549v5.549h-1.359v-7.82h1.359l3.496,5.57v-5.57h1.348V398.779z"/>
	<path fill="#212121" d="M568.206,397.404c0.243,0,0.432,0.069,0.563,0.207c0.133,0.138,0.199,0.311,0.199,0.518
		c0,0.205-0.066,0.374-0.199,0.508c-0.132,0.135-0.32,0.201-0.563,0.201c-0.232,0-0.417-0.065-0.554-0.198
		c-0.136-0.133-0.203-0.303-0.203-0.511c0-0.207,0.065-0.38,0.198-0.518S567.966,397.404,568.206,397.404z"/>
	<path fill="#212121" d="M576.559,396.233c-0.079,0.834-0.387,1.485-0.924,1.952c-0.537,0.468-1.252,0.701-2.144,0.701
		c-0.623,0-1.172-0.147-1.646-0.443c-0.475-0.295-0.841-0.715-1.099-1.26c-0.258-0.544-0.392-1.176-0.402-1.896v-0.73
		c0-0.737,0.131-1.388,0.393-1.95c0.261-0.562,0.636-0.995,1.125-1.299c0.488-0.305,1.054-0.457,1.694-0.457
		c0.863,0,1.558,0.233,2.084,0.701c0.526,0.467,0.833,1.129,0.919,1.984h-1.354c-0.064-0.563-0.229-0.968-0.492-1.217
		c-0.263-0.249-0.648-0.373-1.157-0.373c-0.591,0-1.045,0.216-1.361,0.647c-0.317,0.433-0.479,1.065-0.486,1.9v0.694
		c0,0.846,0.151,1.49,0.454,1.935c0.303,0.445,0.745,0.667,1.329,0.667c0.533,0,0.935-0.12,1.203-0.359
		c0.269-0.24,0.438-0.64,0.511-1.198H576.559z"/>
</g>
<g>
	<path fill="#212121" d="M473.963,431.562h-1.359l-3.486-5.548v5.548h-1.359v-7.82h1.359l3.497,5.569v-5.569h1.348V431.562z"/>
	<path fill="#212121" d="M476.256,430.187c0.244,0,0.432,0.069,0.564,0.207s0.199,0.311,0.199,0.519
		c0,0.203-0.066,0.373-0.199,0.507c-0.132,0.135-0.32,0.202-0.564,0.202c-0.233,0-0.417-0.066-0.553-0.199s-0.204-0.303-0.204-0.51
		c0-0.208,0.066-0.381,0.199-0.519S476.017,430.187,476.256,430.187z"/>
	<path fill="#212121" d="M484.608,429.016c-0.079,0.834-0.387,1.485-0.924,1.952c-0.537,0.468-1.251,0.701-2.143,0.701
		c-0.623,0-1.172-0.147-1.646-0.443c-0.474-0.295-0.84-0.715-1.098-1.259c-0.258-0.545-0.392-1.177-0.403-1.896v-0.73
		c0-0.737,0.131-1.388,0.392-1.949c0.261-0.563,0.636-0.996,1.125-1.301c0.488-0.304,1.053-0.456,1.694-0.456
		c0.863,0,1.558,0.233,2.084,0.701c0.526,0.467,0.833,1.129,0.918,1.984h-1.354c-0.064-0.563-0.228-0.968-0.492-1.217
		c-0.263-0.249-0.649-0.373-1.157-0.373c-0.591,0-1.045,0.216-1.361,0.647c-0.317,0.433-0.479,1.065-0.486,1.9v0.694
		c0,0.846,0.151,1.49,0.454,1.935c0.302,0.445,0.746,0.667,1.329,0.667c0.534,0,0.935-0.12,1.203-0.36
		c0.269-0.239,0.438-0.639,0.51-1.197H484.608z"/>
</g>
<g>
	<path fill="#212121" d="M218.228,118.055h-1.354v-3.47h-3.497v3.47h-1.359v-7.82h1.359v3.255h3.497v-3.255h1.354V118.055z"/>
	<path fill="#212121" d="M222.616,113.06l1.644-2.825h1.568l-2.363,3.878l2.417,3.942h-1.584l-1.681-2.868l-1.687,2.868h-1.579
		l2.422-3.942l-2.369-3.878h1.568L222.616,113.06z"/>
	<path fill="#212121" d="M230.211,118.055h-1.3v-6.283l-1.917,0.654v-1.096l3.051-1.123h0.167V118.055z"/>
</g>
<g>
	<path fill="#212121" d="M106.678,449.96l1.987-6.118h1.493l-2.814,7.82h-1.316l-2.804-7.82h1.488L106.678,449.96z"/>
	<path fill="#212121" d="M117.104,451.662h-1.3v-6.282l-1.917,0.653v-1.096l3.051-1.122h0.167V451.662z"/>
	<path fill="#212121" d="M120.17,447.784l0.424-3.942h4.2v1.128h-3.115l-0.215,1.869c0.362-0.208,0.77-0.312,1.225-0.312
		c0.745,0,1.324,0.238,1.737,0.714c0.414,0.477,0.621,1.117,0.621,1.924c0,0.795-0.229,1.428-0.688,1.898s-1.087,0.706-1.885,0.706
		c-0.716,0-1.31-0.203-1.78-0.609c-0.471-0.406-0.726-0.942-0.766-1.608h1.262c0.05,0.379,0.186,0.67,0.408,0.872
		s0.512,0.304,0.87,0.304c0.401,0,0.713-0.144,0.937-0.43c0.224-0.286,0.336-0.677,0.336-1.171c0-0.477-0.124-0.854-0.371-1.131
		s-0.587-0.416-1.021-0.416c-0.236,0-0.437,0.031-0.602,0.094s-0.344,0.186-0.537,0.368L120.17,447.784z"/>
</g>
<g>
	<path fill="#212121" d="M144.26,449.959l1.987-6.117h1.493l-2.814,7.82h-1.316l-2.804-7.82h1.488L144.26,449.959z"/>
	<path fill="#212121" d="M154.685,451.662h-1.3v-6.282l-1.917,0.653v-1.096l3.051-1.123h0.167V451.662z"/>
	<path fill="#212121" d="M161.463,443.805v1.079h-0.161c-0.73,0.011-1.314,0.211-1.751,0.602s-0.696,0.943-0.779,1.659
		c0.419-0.439,0.954-0.66,1.606-0.66c0.691,0,1.236,0.243,1.636,0.73c0.399,0.487,0.599,1.115,0.599,1.885
		c0,0.795-0.233,1.439-0.701,1.932c-0.467,0.492-1.08,0.738-1.839,0.738c-0.781,0-1.414-0.288-1.899-0.865
		c-0.485-0.576-0.728-1.332-0.728-2.266v-0.446c0-1.371,0.334-2.445,1.002-3.223c0.667-0.777,1.628-1.165,2.881-1.165H161.463z
		 M160.062,447.537c-0.287,0-0.549,0.08-0.787,0.242c-0.238,0.16-0.413,0.375-0.524,0.645v0.396c0,0.58,0.122,1.042,0.365,1.384
		s0.559,0.513,0.945,0.513s0.693-0.145,0.918-0.436c0.226-0.289,0.338-0.671,0.338-1.144s-0.115-0.857-0.344-1.155
		C160.746,447.686,160.441,447.537,160.062,447.537z"/>
</g>
<g>
	<path fill="#212121" d="M880.699,325.579l1.986-6.118h1.494l-2.814,7.82h-1.316l-2.804-7.82h1.487L880.699,325.579z"/>
	<path fill="#212121" d="M891.123,327.281h-1.299v-6.282l-1.918,0.653v-1.096l3.051-1.122h0.166V327.281z"/>
	<path fill="#212121" d="M898.767,321.523c0,0.383-0.099,0.725-0.296,1.023c-0.196,0.299-0.465,0.534-0.805,0.706
		c0.408,0.189,0.722,0.449,0.942,0.779c0.22,0.329,0.33,0.701,0.33,1.117c0,0.688-0.232,1.232-0.698,1.635
		c-0.466,0.403-1.085,0.604-1.858,0.604c-0.777,0-1.399-0.202-1.866-0.606c-0.468-0.405-0.701-0.949-0.701-1.633
		c0-0.42,0.111-0.795,0.333-1.129c0.222-0.332,0.533-0.589,0.935-0.768c-0.337-0.172-0.603-0.407-0.798-0.706
		s-0.292-0.641-0.292-1.023c0-0.666,0.215-1.194,0.645-1.585c0.43-0.39,1.01-0.585,1.74-0.585c0.733,0,1.315,0.195,1.745,0.585
		C898.552,320.329,898.767,320.857,898.767,321.523z M897.633,325.085c0-0.387-0.115-0.699-0.346-0.938
		c-0.231-0.238-0.536-0.357-0.916-0.357s-0.683,0.118-0.91,0.354s-0.342,0.55-0.342,0.94c0,0.383,0.112,0.688,0.336,0.918
		s0.533,0.344,0.927,0.344s0.701-0.111,0.921-0.333C897.523,325.792,897.633,325.481,897.633,325.085z M897.467,321.571
		c0-0.34-0.099-0.62-0.295-0.84c-0.197-0.221-0.463-0.33-0.795-0.33c-0.334,0-0.597,0.104-0.79,0.313
		c-0.193,0.21-0.29,0.495-0.29,0.856c0,0.358,0.098,0.644,0.293,0.854s0.459,0.317,0.792,0.317s0.597-0.106,0.792-0.317
		S897.467,321.93,897.467,321.571z"/>
</g>
<g>
	<path fill="#212121" d="M917.229,325.579l1.988-6.118h1.492l-2.814,7.82h-1.315l-2.804-7.82h1.488L917.229,325.579z"/>
	<path fill="#212121" d="M929.379,327.281h-5.258v-0.897l2.604-2.841c0.376-0.419,0.644-0.769,0.803-1.05s0.239-0.563,0.239-0.846
		c0-0.373-0.104-0.674-0.314-0.902c-0.209-0.229-0.491-0.344-0.846-0.344c-0.423,0-0.75,0.129-0.982,0.387
		c-0.233,0.258-0.35,0.61-0.35,1.058h-1.305c0-0.477,0.107-0.905,0.324-1.286c0.217-0.382,0.526-0.678,0.93-0.889
		c0.402-0.212,0.867-0.317,1.394-0.317c0.759,0,1.358,0.19,1.797,0.572c0.438,0.381,0.657,0.908,0.657,1.581
		c0,0.391-0.109,0.8-0.33,1.228c-0.22,0.428-0.581,0.914-1.082,1.458l-1.912,2.047h3.631V327.281z"/>
	<path fill="#212121" d="M933.906,327.281h-1.299v-6.282l-1.918,0.653v-1.096l3.051-1.122h0.166V327.281z"/>
</g>
<path fill="#5439AA" d="M453.988,189.814l14.757,5.791v-11.98l-14.757,5.791h-1.4v-5.439h5.547c0-2.908-2.621-5.27-5.849-5.27
	c-3.229,0-5.846,2.361-5.846,5.27h5.548v5.439h-1.402l-14.757-5.791v11.98l14.757-5.791H453.988z"/>
<path fill="#5439AA" d="M806.19,58.311l14.757,5.791v-11.98l-14.757,5.791h-1.4v-5.439h5.547c0-2.908-2.621-5.27-5.849-5.27
	c-3.229,0-5.846,2.361-5.846,5.27h5.548v5.439h-1.402l-14.757-5.791v11.98l14.757-5.791H806.19z"/>
<g>
	<linearGradient id="SVGID_5_" gradientUnits="userSpaceOnUse" x1="197.4189" y1="299.4458" x2="718.4528" y2="299.4458">
		<stop  offset="0" style="stop-color:#D9991E"/>
		<stop  offset="0.1697" style="stop-color:#F6C41E"/>
		<stop  offset="0.5" style="stop-color:#F6EDDB"/>
		<stop  offset="0.8545" style="stop-color:#F6C41E"/>
		<stop  offset="1" style="stop-color:#D9991E"/>
	</linearGradient>
	<path fill="url(#SVGID_5_)" d="M492.3,269.404c-1.415-8.115-14.926-14.48-31.408-14.48c-16.483,0-29.996,6.366-31.41,14.48h-0.142
		v53.838v1.177l31.856,19.549l31.233-19.549h0.011v-0.006v-1.194v-53.814H492.3z"/>
	<path opacity="0.5" fill="#231F20" d="M460.892,255.924c15.725,0,29.088,5.997,30.423,13.652l0.126,0.721v52.921v0.64
		l-30.249,18.933l-30.851-18.932v-0.617v-52.939l0.127-0.727C431.802,261.92,445.166,255.924,460.892,255.924 M460.892,254.924
		c-16.483,0-29.996,6.366-31.41,14.48h-0.142v53.838v1.177l31.856,19.549l31.233-19.549h0.011v-0.006v-1.194v-53.814H492.3
		C490.885,261.29,477.375,254.924,460.892,254.924L460.892,254.924z"/>
</g>
<g>
	<linearGradient id="SVGID_6_" gradientUnits="userSpaceOnUse" x1="528.6875" y1="299.4458" x2="1049.7253" y2="299.4458">
		<stop  offset="0" style="stop-color:#D9991E"/>
		<stop  offset="0.1697" style="stop-color:#F6C41E"/>
		<stop  offset="0.5" style="stop-color:#F6EDDB"/>
		<stop  offset="0.8545" style="stop-color:#F6C41E"/>
		<stop  offset="1" style="stop-color:#D9991E"/>
	</linearGradient>
	<path fill="url(#SVGID_6_)" d="M823.571,269.404c-1.416-8.115-14.926-14.48-31.408-14.48c-16.483,0-29.996,6.366-31.41,14.48
		h-0.142v53.838v1.177l31.856,19.549l31.232-19.549h0.012v-0.006v-1.194v-53.814H823.571z"/>
	<path opacity="0.5" fill="#231F20" d="M792.163,255.924c15.724,0,29.087,5.997,30.423,13.652l0.126,0.721v52.922v0.639
		l-30.249,18.934l-30.852-18.932v-0.617v-52.939l0.127-0.727C763.072,261.92,776.437,255.924,792.163,255.924 M792.163,254.924
		c-16.483,0-29.996,6.366-31.41,14.48h-0.142v53.838v1.177l31.856,19.549l31.232-19.549h0.012v-0.006v-1.194v-53.814h-0.141
		C822.155,261.29,808.646,254.924,792.163,254.924L792.163,254.924z"/>
</g>
<g>
	<g>
		<path fill="#F9EC31" d="M611.257,93.743c0,10.005-8.105,18.11-18.109,18.11s-18.114-8.105-18.114-18.11
			c0-10.003,8.11-18.114,18.114-18.114S611.257,83.74,611.257,93.743z"/>
		<path fill="#353535" d="M593.147,112.104c-10.126,0-18.364-8.236-18.364-18.36c0-10.126,8.238-18.364,18.364-18.364
			c10.123,0,18.359,8.238,18.359,18.364C611.507,103.867,603.271,112.104,593.147,112.104z M593.147,75.879
			c-9.851,0-17.864,8.014-17.864,17.864c0,9.848,8.014,17.86,17.864,17.86c9.848,0,17.859-8.012,17.859-17.86
			C611.007,83.893,602.995,75.879,593.147,75.879z"/>
	</g>
	<path fill="#353535" d="M597.148,99.679c-0.065,0-0.128-0.025-0.175-0.072l-11.364-11.155l-3.412,5.425
		c-0.046,0.073-0.126,0.117-0.212,0.117h-6.952c-0.138,0-0.25-0.112-0.25-0.25s0.112-0.25,0.25-0.25h6.814l3.504-5.571
		c0.041-0.064,0.107-0.106,0.183-0.115c0.073-0.009,0.15,0.017,0.204,0.07l11.354,11.146l4.685-8.229
		c0.039-0.069,0.108-0.116,0.188-0.125c0.079-0.007,0.158,0.021,0.212,0.078l3.922,4.215l5.149-0.208
		c0.134,0.011,0.254,0.103,0.26,0.24c0.005,0.138-0.102,0.254-0.24,0.26l-5.264,0.212c-0.081-0.001-0.144-0.026-0.192-0.08
		l-3.769-4.05l-4.677,8.215c-0.038,0.067-0.105,0.113-0.183,0.124C597.172,99.678,597.16,99.679,597.148,99.679z"/>
</g>
<g>
	<g>
		<path fill="#F9EC31" d="M267.257,93.743c0,10.005-8.105,18.11-18.109,18.11s-18.114-8.105-18.114-18.11
			c0-10.003,8.11-18.114,18.114-18.114S267.257,83.74,267.257,93.743z"/>
		<path fill="#353535" d="M249.147,112.104c-10.126,0-18.364-8.236-18.364-18.36c0-10.126,8.238-18.364,18.364-18.364
			c10.124,0,18.359,8.238,18.359,18.364C267.507,103.867,259.271,112.104,249.147,112.104z M249.147,75.879
			c-9.851,0-17.864,8.014-17.864,17.864c0,9.848,8.014,17.86,17.864,17.86c9.848,0,17.859-8.012,17.859-17.86
			C267.007,83.893,258.995,75.879,249.147,75.879z"/>
	</g>
	<path fill="#353535" d="M253.148,99.679c-0.065,0-0.128-0.025-0.175-0.072L241.61,88.452l-3.413,5.425
		c-0.045,0.073-0.125,0.117-0.211,0.117h-6.952c-0.138,0-0.25-0.112-0.25-0.25s0.112-0.25,0.25-0.25h6.814l3.505-5.571
		c0.04-0.064,0.107-0.106,0.182-0.115c0.076-0.01,0.15,0.017,0.205,0.07l11.353,11.146l4.684-8.229
		c0.04-0.069,0.109-0.116,0.188-0.125c0.076-0.009,0.157,0.02,0.212,0.078l3.922,4.215l5.148-0.208
		c0.147-0.002,0.254,0.103,0.26,0.24c0.005,0.138-0.102,0.254-0.24,0.26l-5.264,0.212c-0.076-0.001-0.144-0.027-0.193-0.08
		l-3.768-4.05l-4.676,8.215c-0.039,0.067-0.106,0.113-0.183,0.124C253.171,99.678,253.16,99.679,253.148,99.679z"/>
</g>
<g>
	<path fill="#5439AA" d="M96.561,447.451"/>
	<path fill="#5439AA" d="M90.065,447.451"/>
	<polygon fill="#5439AA" points="90.086,462.233 102.996,462.233 96.542,447.451 	"/>
	<polygon fill="#5439AA" points="102.996,432.67 90.086,432.67 96.542,447.451 	"/>
</g>
<g>
	<path fill="#5439AA" d="M133.714,447.451"/>
	<path fill="#5439AA" d="M127.218,447.451"/>
	<polygon fill="#5439AA" points="127.239,462.233 140.149,462.233 133.696,447.451 	"/>
	<polygon fill="#5439AA" points="140.149,432.67 127.239,432.67 133.696,447.451 	"/>
</g>
<g>
	<path fill="#5439AA" d="M229.33,324.298"/>
	<path fill="#5439AA" d="M222.834,324.298"/>
	<polygon fill="#5439AA" points="222.855,339.08 235.766,339.08 229.312,324.298 	"/>
	<polygon fill="#5439AA" points="235.766,309.517 222.855,309.517 229.312,324.298 	"/>
</g>
<g>
	<path fill="#5439AA" d="M283.18,324.298"/>
	<path fill="#5439AA" d="M276.685,324.298"/>
	<polygon fill="#5439AA" points="276.706,339.08 289.616,339.08 283.162,324.298 	"/>
	<polygon fill="#5439AA" points="289.616,309.517 276.706,309.517 283.162,324.298 	"/>
</g>
<g>
	<path fill="#5439AA" d="M568.171,382.286"/>
	<path fill="#5439AA" d="M568.171,388.781"/>
	<polygon fill="#5439AA" points="582.953,388.761 582.953,375.851 568.171,382.304 	"/>
	<polygon fill="#5439AA" points="553.39,375.851 553.39,388.761 568.171,382.304 	"/>
</g>
<g>
	<path fill="#5439AA" d="M475.684,413.013"/>
	<path fill="#5439AA" d="M475.684,419.508"/>
	<polygon fill="#5439AA" points="490.466,419.487 490.466,406.577 475.684,413.03 	"/>
	<polygon fill="#5439AA" points="460.903,406.577 460.903,419.487 475.684,413.03 	"/>
</g>
<g>
	<path fill="#5439AA" d="M452.287,154.114"/>
	<path fill="#5439AA" d="M452.287,160.609"/>
	<polygon fill="#5439AA" points="467.069,160.589 467.069,147.679 452.287,154.132 	"/>
	<polygon fill="#5439AA" points="437.506,147.679 437.506,160.589 452.287,154.132 	"/>
</g>
<g>
	<path fill="#5439AA" d="M870.968,324.298"/>
	<path fill="#5439AA" d="M864.472,324.298"/>
	<polygon fill="#5439AA" points="864.493,339.08 877.403,339.08 870.95,324.298 	"/>
	<polygon fill="#5439AA" points="877.403,309.517 864.493,309.517 870.95,324.298 	"/>
</g>
<g>
	<path fill="#5439AA" d="M905.964,324.298"/>
	<path fill="#5439AA" d="M899.469,324.298"/>
	<polygon fill="#5439AA" points="899.489,339.08 912.399,339.08 905.946,324.298 	"/>
	<polygon fill="#5439AA" points="912.399,309.517 899.489,309.517 905.946,324.298 	"/>
</g>
<g>
	<path fill="#212121" d="M454.429,300.218h-1.477v-8.531h1.477V300.218z"/>
	<path fill="#212121" d="M459.287,294.769l1.793-3.082h1.711l-2.578,4.23l2.637,4.301h-1.729l-1.834-3.129l-1.84,3.129h-1.723
		l2.643-4.301l-2.584-4.23h1.711L459.287,294.769z"/>
	<path fill="#212121" d="M470.56,300.218h-1.418v-6.854l-2.092,0.713v-1.195l3.328-1.225h0.182V300.218z"/>
</g>
<g>
	<path fill="#212121" d="M785.429,300.218h-1.477v-8.531h1.477V300.218z"/>
	<path fill="#212121" d="M790.286,294.769l1.793-3.082h1.711l-2.578,4.23l2.637,4.301h-1.729l-1.834-3.129l-1.84,3.129h-1.723
		l2.643-4.301l-2.584-4.23h1.711L790.286,294.769z"/>
	<path fill="#212121" d="M803.44,300.218h-5.736v-0.979l2.842-3.1c0.41-0.457,0.702-0.839,0.876-1.146s0.261-0.614,0.261-0.923
		c0-0.406-0.114-0.734-0.343-0.984s-0.536-0.375-0.923-0.375c-0.461,0-0.818,0.141-1.072,0.422s-0.381,0.666-0.381,1.154h-1.424
		c0-0.52,0.118-0.987,0.354-1.403s0.574-0.739,1.014-0.97s0.946-0.346,1.521-0.346c0.828,0,1.481,0.208,1.96,0.624
		s0.718,0.991,0.718,1.726c0,0.426-0.12,0.872-0.36,1.339s-0.634,0.997-1.181,1.591l-2.086,2.232h3.961V300.218z"/>
</g>
</svg>
