<?xml version="1.0" encoding="utf-8"?>
<!-- Generator: Adobe Illustrator 15.0.0, SVG Export Plug-In . SVG Version: 6.00 Build 0)  -->
<!DOCTYPE svg PUBLIC "-//W3C//DTD SVG 1.1//EN" "http://www.w3.org/Graphics/SVG/1.1/DTD/svg11.dtd">
<svg version="1.1" id="Layer_1" xmlns="http://www.w3.org/2000/svg" xmlns:xlink="http://www.w3.org/1999/xlink" x="0px" y="0px"
	 width="1200px" height="600px" viewBox="-90 0 1200 600" enable-background="new -90 0 1200 600" xml:space="preserve">
<g>
	<rect x="45.736" y="155.5" fill="#F7FCFF" width="306.142" height="277"/>
	<path fill="#18607C" d="M350.91,156.8v274.399H46.705V156.8H350.91 M351.878,155.5H45.736v277h306.142V155.5L351.878,155.5z"/>
</g>
<polygon fill="#FF2400" points="595.066,448.975 594.066,448.975 594.066,422.172 451.347,422.172 451.347,58.383 104.55,58.383 
	104.55,82.878 103.55,82.878 103.55,57.383 452.347,57.383 452.347,421.172 595.066,421.172 "/>
<path fill="#FF2400" d="M451.406,203.899"/>
<path fill="#FF2400" d="M455.945,203.899"/>
<polygon fill="#FF2400" points="456.394,197.763 447.373,197.763 451.883,203.933 "/>
<polygon fill="#FF2400" points="456.394,100.424 447.373,100.424 451.883,106.594 "/>
<polygon fill="#FF2400" points="456.403,335.741 447.382,335.741 451.892,341.91 "/>
<g>
	<path fill="#FF2400" d="M493.067,421.607"/>
	<path fill="#FF2400" d="M493.067,426.571"/>
	<polygon fill="#FF2400" points="502.895,426.556 502.895,416.688 493.067,421.621 	"/>
	<polygon fill="#FF2400" points="483.24,416.688 483.24,426.556 493.067,421.621 	"/>
</g>
<g>
	<path fill="#FF2400" d="M493.066,257.348"/>
	<path fill="#FF2400" d="M493.066,262.312"/>
	<polygon fill="#FF2400" points="502.894,262.296 502.894,252.429 493.066,257.361 	"/>
	<polygon fill="#FF2400" points="483.24,252.429 483.24,262.296 493.066,257.361 	"/>
</g>
<g>
	<path fill="#FF2400" d="M493.065,128.85"/>
	<path fill="#FF2400" d="M493.065,133.814"/>
	<polygon fill="#FF2400" points="502.894,133.798 502.894,123.931 493.065,128.864 	"/>
	<polygon fill="#FF2400" points="483.239,123.931 483.239,133.798 493.065,128.864 	"/>
</g>
<g>
	<path fill="#FF2400" d="M628.461,128.842"/>
	<path fill="#FF2400" d="M628.461,133.806"/>
	<polygon fill="#FF2400" points="638.289,133.791 638.289,123.923 628.461,128.856 	"/>
	<polygon fill="#FF2400" points="618.635,123.923 618.635,133.791 628.461,128.856 	"/>
</g>
<polygon fill="#FF2400" points="538.981,124.354 538.981,133.375 545.151,128.866 "/>
<polygon fill="#FF2400" points="802.324,204.933 793.303,204.933 797.813,211.102 "/>
<polygon fill="#FF2400" points="699.481,252.837 699.481,261.858 705.651,257.349 "/>
<polygon points="970.607,468.6 636.407,468.6 636.407,467.6 969.607,467.6 969.607,390.582 970.607,390.582 "/>
<rect x="636.407" y="346.729" width="135.164" height="1"/>
<polygon points="400.5,541.088 -13,541.088 -13,143 34.5,143 34.5,144 -12,144 -12,540.088 400.5,540.088 "/>
<g>
	<g>
		<rect x="99.758" y="529.825" fill="#FFFFFF" width="31.867" height="21.525"/>
		<path d="M132.125,551.851H99.258v-22.525h32.867V551.851z M100.258,550.851h30.867v-20.525h-30.867V550.851z"/>
	</g>
	<g>
		<rect x="106.951" y="540.981" fill="#FFFFFF" width="9.39" height="6.245"/>
		<path d="M116.841,547.727h-10.39v-7.245h10.39V547.727z M107.451,546.727h8.39v-5.245h-8.39V546.727z"/>
	</g>
	<g>
		<rect x="115.221" y="534.994" fill="#FFFFFF" width="9.304" height="5.987"/>
		<path d="M125.025,541.481h-10.304v-6.987h10.304V541.481z M115.721,540.481h8.304v-4.987h-8.304V540.481z"/>
	</g>
</g>
<g>
	<g>
		<rect x="222.342" y="529.911" fill="#FFFFFF" width="31.917" height="21.45"/>
		<path d="M254.759,551.861h-32.917v-22.45h32.917V551.861z M222.842,550.861h30.917v-20.45h-30.917V550.861z"/>
	</g>
	<g>
		<rect x="241.854" y="532.97" fill="#FFFFFF" width="8.313" height="14.3"/>
		<path d="M250.667,547.77h-9.313v-15.3h9.313V547.77z M242.354,546.77h7.313v-13.3h-7.313V546.77z"/>
	</g>
</g>
<polygon fill="#FF2400" points="697.981,129.342 451.847,129.342 451.847,128.342 696.981,128.342 696.981,31 798.225,31 
	798.225,110.326 797.225,110.326 797.225,32 697.981,32 "/>
<polygon fill="#FF2400" points="798.55,257.848 451.406,257.848 451.406,256.848 797.55,256.848 797.55,179.5 798.55,179.5 "/>
<g>
	<rect x="730.557" y="20.265" fill="#FFFFFF" width="32.361" height="21.685"/>
	<path fill="#FF2400" d="M763.418,42.449h-33.361V19.765h33.361V42.449z M731.057,41.449h31.361V20.765h-31.361V41.449z"/>
</g>
<g>
	<rect x="737.491" y="31.5" fill="#FFFFFF" width="9.797" height="6.267"/>
	<path fill="#FF2400" d="M747.788,38.267h-10.797V31h10.797V38.267z M737.991,37.267h8.797V32h-8.797V37.267z"/>
</g>
<g>
	<rect x="746.077" y="25.328" fill="#FFFFFF" width="9.576" height="6.172"/>
	<path fill="#FF2400" d="M756.153,32h-10.576v-7.172h10.576V32z M746.577,31h8.576v-5.172h-8.576V31z"/>
</g>
<polygon fill="#FF2400" points="802.324,60.815 793.303,60.815 797.813,66.985 "/>
<g>
	<path fill="#020202" d="M148.764,524.217h-1.131v-3.943h-4.301v3.943h-1.125v-8.531h1.125v3.668h4.301v-3.668h1.131V524.217z"/>
	<path fill="#020202" d="M151.887,520.877v3.34h-1.125v-8.531h3.146c0.934,0,1.665,0.238,2.194,0.715s0.794,1.107,0.794,1.893
		c0,0.828-0.259,1.466-0.776,1.913s-1.259,0.671-2.224,0.671H151.887z M151.887,519.957h2.021c0.602,0,1.063-0.142,1.383-0.426
		c0.32-0.283,0.48-0.693,0.48-1.229c0-0.509-0.16-0.916-0.48-1.221c-0.32-0.306-0.76-0.464-1.318-0.476h-2.086V519.957z"/>
	<path fill="#020202" d="M164.889,524.217h-1.131v-3.943h-4.301v3.943h-1.125v-8.531h1.125v3.668h4.301v-3.668h1.131V524.217z"/>
</g>
<g>
	<path fill="#020202" d="M269.935,520.414c-0.965-0.277-1.667-0.618-2.106-1.022s-0.659-0.903-0.659-1.497
		c0-0.672,0.269-1.228,0.806-1.667s1.235-0.659,2.095-0.659c0.586,0,1.108,0.113,1.567,0.34s0.814,0.539,1.066,0.938
		s0.378,0.834,0.378,1.307h-1.131c0-0.518-0.164-0.924-0.492-1.22s-0.791-0.444-1.389-0.444c-0.555,0-0.987,0.122-1.298,0.367
		c-0.311,0.244-0.466,0.584-0.466,1.019c0,0.348,0.147,0.643,0.442,0.883c0.295,0.241,0.797,0.461,1.506,0.66
		c0.709,0.2,1.264,0.42,1.664,0.66s0.697,0.521,0.891,0.841s0.29,0.697,0.29,1.131c0,0.691-0.27,1.245-0.809,1.661
		s-1.26,0.624-2.162,0.624c-0.586,0-1.133-0.112-1.641-0.337s-0.899-0.532-1.175-0.923s-0.413-0.834-0.413-1.33h1.131
		c0,0.516,0.19,0.923,0.571,1.222s0.89,0.448,1.526,0.448c0.594,0,1.049-0.121,1.365-0.363s0.475-0.572,0.475-0.99
		s-0.146-0.741-0.439-0.97S270.704,520.637,269.935,520.414z"/>
	<path fill="#020202" d="M280.839,523.098c-0.289,0.414-0.692,0.724-1.21,0.929s-1.12,0.308-1.808,0.308
		c-0.695,0-1.313-0.163-1.852-0.489s-0.956-0.79-1.251-1.392s-0.446-1.299-0.454-2.092v-0.744c0-1.285,0.3-2.281,0.899-2.988
		s1.442-1.061,2.528-1.061c0.891,0,1.607,0.228,2.15,0.683s0.875,1.101,0.996,1.937h-1.125c-0.211-1.133-0.883-1.699-2.016-1.699
		c-0.754,0-1.325,0.265-1.714,0.795c-0.389,0.529-0.585,1.297-0.589,2.302v0.697c0,0.958,0.219,1.72,0.656,2.284
		c0.438,0.565,1.029,0.848,1.775,0.848c0.422,0,0.791-0.047,1.107-0.141c0.316-0.093,0.578-0.251,0.785-0.473v-1.912h-1.975v-0.92
		h3.094V523.098z"/>
	<path fill="#020202" d="M287.419,520.449h-3.58v3.768h-1.125v-8.531h5.285v0.92h-4.16v2.924h3.58V520.449z"/>
	<path fill="#020202" d="M290.472,520.877v3.34h-1.125v-8.531h3.146c0.934,0,1.665,0.238,2.194,0.715s0.794,1.107,0.794,1.893
		c0,0.828-0.259,1.466-0.776,1.913s-1.259,0.671-2.224,0.671H290.472z M290.472,519.957h2.021c0.602,0,1.063-0.142,1.383-0.426
		c0.32-0.283,0.48-0.693,0.48-1.229c0-0.509-0.16-0.916-0.48-1.221c-0.32-0.306-0.76-0.464-1.318-0.476h-2.086V519.957z"/>
</g>
<g>
	<path fill="#020202" d="M655.832,331.59l2.789,6.961l2.789-6.961h1.459v8.531h-1.125v-3.322l0.105-3.586l-2.801,6.908h-0.861
		l-2.795-6.891l0.111,3.568v3.322h-1.125v-8.531H655.832z"/>
	<path fill="#020202" d="M669.672,337.889h-3.574l-0.803,2.232h-1.16l3.258-8.531h0.984l3.264,8.531h-1.154L669.672,337.889z
		 M666.438,336.969h2.9l-1.453-3.99L666.438,336.969z"/>
	<path fill="#020202" d="M674.957,336.154l-1.043,1.084v2.883h-1.125v-8.531h1.125v4.219l3.791-4.219h1.359l-3.357,3.768
		l3.621,4.764h-1.348L674.957,336.154z"/>
	<path fill="#020202" d="M685.135,336.178h-3.697v3.023h4.295v0.92h-5.42v-8.531h5.361v0.92h-4.236v2.748h3.697V336.178z"/>
	<path fill="#020202" d="M689.219,336.939h-2.859v-0.885h2.859V336.939z"/>
	<path fill="#020202" d="M696.449,331.59v5.801c-0.004,0.805-0.257,1.463-0.759,1.975s-1.183,0.799-2.042,0.861l-0.299,0.012
		c-0.934,0-1.678-0.252-2.232-0.756s-0.836-1.197-0.844-2.08v-5.813h1.113v5.777c0,0.617,0.17,1.097,0.51,1.438
		s0.824,0.513,1.453,0.513c0.637,0,1.124-0.17,1.462-0.51s0.507-0.818,0.507-1.436v-5.783H696.449z"/>
	<path fill="#020202" d="M699.35,336.781v3.34h-1.125v-8.531h3.146c0.934,0,1.665,0.238,2.194,0.715s0.794,1.107,0.794,1.893
		c0,0.828-0.259,1.466-0.776,1.913s-1.259,0.671-2.224,0.671H699.35z M699.35,335.861h2.021c0.602,0,1.063-0.142,1.383-0.426
		c0.32-0.283,0.48-0.693,0.48-1.229c0-0.509-0.16-0.916-0.48-1.221c-0.32-0.306-0.76-0.464-1.318-0.476h-2.086V335.861z"/>
	<path fill="#020202" d="M709.896,339.201h4.043v0.92h-5.174v-8.531h1.131V339.201z"/>
	<path fill="#020202" d="M717.021,338.627l2.438-7.037h1.23l-3.164,8.531h-0.996l-3.158-8.531h1.225L717.021,338.627z"/>
</g>
<g>
	<path fill="#020202" d="M782.311,490.475h4.043v0.92h-5.174v-8.531h1.131V490.475z"/>
	<path fill="#020202" d="M788.762,488.055v3.34h-1.125v-8.531h3.146c0.934,0,1.665,0.238,2.194,0.715s0.794,1.107,0.794,1.893
		c0,0.828-0.259,1.466-0.776,1.913s-1.259,0.671-2.224,0.671H788.762z M788.762,487.135h2.021c0.602,0,1.063-0.142,1.383-0.426
		c0.32-0.283,0.48-0.693,0.48-1.229c0-0.509-0.16-0.916-0.48-1.221c-0.32-0.306-0.76-0.464-1.318-0.476h-2.086V487.135z"/>
	<path fill="#020202" d="M801.764,491.395h-1.131v-3.943h-4.301v3.943h-1.125v-8.531h1.125v3.668h4.301v-3.668h1.131V491.395z"/>
</g>
<g>
	<path fill="#020202" d="M919.461,488.688c-0.105,0.902-0.438,1.599-0.999,2.089s-1.306,0.735-2.235,0.735
		c-1.008,0-1.815-0.361-2.423-1.084s-0.911-1.689-0.911-2.9v-0.82c0-0.793,0.142-1.49,0.425-2.092s0.685-1.063,1.204-1.386
		s1.121-0.483,1.805-0.483c0.906,0,1.633,0.253,2.18,0.759s0.865,1.206,0.955,2.101h-1.131c-0.098-0.682-0.31-1.176-0.636-1.481
		s-0.782-0.458-1.368-0.458c-0.719,0-1.282,0.266-1.69,0.798c-0.408,0.531-0.612,1.288-0.612,2.27v0.826
		c0,0.927,0.193,1.664,0.58,2.211c0.387,0.548,0.928,0.821,1.623,0.821c0.625,0,1.104-0.142,1.438-0.425s0.556-0.776,0.665-1.479
		H919.461z"/>
	<path fill="#020202" d="M925.818,487.451h-3.697v3.023h4.295v0.92h-5.42v-8.531h5.361v0.92h-4.236v2.748h3.697V487.451z"/>
	<path fill="#020202" d="M928.941,488.055v3.34h-1.125v-8.531h3.146c0.934,0,1.665,0.238,2.194,0.715s0.794,1.107,0.794,1.893
		c0,0.828-0.259,1.466-0.776,1.913s-1.259,0.671-2.224,0.671H928.941z M928.941,487.135h2.021c0.602,0,1.063-0.142,1.383-0.426
		c0.32-0.283,0.48-0.693,0.48-1.229c0-0.509-0.16-0.916-0.48-1.221c-0.32-0.306-0.76-0.464-1.318-0.476h-2.086V487.135z"/>
</g>
<g>
	<path fill="#020202" d="M483.057,143.427l2.789,6.961l2.789-6.961h1.459v8.531h-1.125v-3.322l0.105-3.586l-2.801,6.908h-0.861
		l-2.795-6.891l0.111,3.568v3.322h-1.125v-8.531H483.057z"/>
	<path fill="#020202" d="M494.594,148.155c-0.965-0.277-1.667-0.618-2.106-1.022s-0.659-0.903-0.659-1.497
		c0-0.672,0.269-1.228,0.806-1.667s1.235-0.659,2.095-0.659c0.586,0,1.108,0.113,1.567,0.34s0.814,0.539,1.066,0.938
		s0.378,0.834,0.378,1.307h-1.131c0-0.518-0.164-0.924-0.492-1.22s-0.791-0.444-1.389-0.444c-0.555,0-0.987,0.122-1.298,0.367
		c-0.311,0.244-0.466,0.584-0.466,1.019c0,0.348,0.147,0.643,0.442,0.883c0.295,0.241,0.797,0.461,1.506,0.66
		c0.709,0.2,1.264,0.42,1.664,0.66s0.697,0.521,0.891,0.841s0.29,0.697,0.29,1.131c0,0.691-0.27,1.245-0.809,1.661
		s-1.26,0.624-2.162,0.624c-0.586,0-1.133-0.112-1.641-0.337s-0.899-0.532-1.175-0.923s-0.413-0.834-0.413-1.33h1.131
		c0,0.516,0.19,0.923,0.571,1.222s0.89,0.448,1.526,0.448c0.594,0,1.049-0.121,1.365-0.363s0.475-0.572,0.475-0.99
		s-0.146-0.741-0.439-0.97S495.364,148.378,494.594,148.155z"/>
	<path fill="#020202" d="M502.024,150.464l2.438-7.037h1.23l-3.164,8.531h-0.996l-3.158-8.531h1.225L502.024,150.464z"/>
	<path fill="#020202" d="M509.348,148.155c-0.965-0.277-1.667-0.618-2.106-1.022s-0.659-0.903-0.659-1.497
		c0-0.672,0.269-1.228,0.806-1.667s1.235-0.659,2.095-0.659c0.586,0,1.109,0.113,1.568,0.34s0.814,0.539,1.066,0.938
		s0.377,0.834,0.377,1.307h-1.131c0-0.518-0.164-0.924-0.492-1.22s-0.791-0.444-1.388-0.444c-0.555,0-0.987,0.122-1.298,0.367
		c-0.311,0.244-0.466,0.584-0.466,1.019c0,0.348,0.147,0.643,0.442,0.883c0.295,0.241,0.797,0.461,1.506,0.66
		c0.709,0.2,1.264,0.42,1.665,0.66s0.697,0.521,0.891,0.841s0.289,0.697,0.289,1.131c0,0.691-0.27,1.245-0.809,1.661
		s-1.259,0.624-2.162,0.624c-0.586,0-1.133-0.112-1.641-0.337s-0.899-0.532-1.175-0.923s-0.413-0.834-0.413-1.33h1.131
		c0,0.516,0.19,0.923,0.571,1.222s0.89,0.448,1.526,0.448c0.594,0,1.048-0.121,1.365-0.363s0.475-0.572,0.475-0.99
		s-0.146-0.741-0.439-0.97S510.118,148.378,509.348,148.155z"/>
</g>
<g>
	<path fill="#020202" d="M625.9,148.051c-0.105,0.902-0.438,1.599-0.999,2.089s-1.306,0.735-2.235,0.735
		c-1.008,0-1.815-0.361-2.423-1.084s-0.911-1.689-0.911-2.9v-0.82c0-0.793,0.142-1.49,0.425-2.092s0.685-1.063,1.204-1.386
		s1.121-0.483,1.805-0.483c0.906,0,1.633,0.253,2.18,0.759s0.865,1.206,0.955,2.101h-1.131c-0.098-0.682-0.31-1.176-0.636-1.481
		s-0.782-0.458-1.368-0.458c-0.719,0-1.282,0.266-1.69,0.798c-0.408,0.531-0.612,1.288-0.612,2.27v0.826
		c0,0.927,0.193,1.664,0.58,2.211c0.387,0.548,0.928,0.821,1.623,0.821c0.625,0,1.104-0.142,1.438-0.425s0.556-0.776,0.665-1.479
		H625.9z"/>
	<path fill="#020202" d="M630.26,149.264l2.438-7.037h1.23l-3.164,8.531h-0.996l-3.158-8.531h1.225L630.26,149.264z"/>
	<path fill="#020202" d="M637.584,146.955c-0.965-0.277-1.667-0.618-2.106-1.022s-0.659-0.903-0.659-1.497
		c0-0.672,0.269-1.228,0.806-1.667s1.235-0.659,2.095-0.659c0.586,0,1.108,0.113,1.567,0.34s0.814,0.539,1.066,0.938
		s0.378,0.834,0.378,1.307H639.6c0-0.518-0.164-0.924-0.492-1.22s-0.791-0.444-1.389-0.444c-0.555,0-0.987,0.122-1.298,0.367
		c-0.311,0.244-0.466,0.584-0.466,1.019c0,0.348,0.147,0.643,0.442,0.883c0.295,0.241,0.797,0.461,1.506,0.66
		c0.709,0.2,1.264,0.42,1.664,0.66s0.697,0.521,0.891,0.841s0.29,0.697,0.29,1.131c0,0.691-0.27,1.245-0.809,1.661
		s-1.26,0.624-2.162,0.624c-0.586,0-1.133-0.112-1.641-0.337s-0.899-0.532-1.175-0.923s-0.413-0.834-0.413-1.33h1.131
		c0,0.516,0.19,0.923,0.571,1.222s0.89,0.448,1.526,0.448c0.594,0,1.049-0.121,1.365-0.363s0.475-0.572,0.475-0.99
		s-0.146-0.741-0.439-0.97S638.354,147.178,637.584,146.955z"/>
</g>
<g>
	<path fill="#020202" d="M483.006,274.933c-0.105,0.902-0.438,1.599-0.999,2.089s-1.306,0.735-2.235,0.735
		c-1.008,0-1.815-0.361-2.423-1.084s-0.911-1.689-0.911-2.9v-0.82c0-0.793,0.142-1.49,0.425-2.092s0.685-1.063,1.204-1.386
		s1.121-0.483,1.805-0.483c0.906,0,1.633,0.253,2.18,0.759s0.865,1.206,0.955,2.101h-1.131c-0.098-0.682-0.31-1.176-0.636-1.481
		s-0.782-0.458-1.368-0.458c-0.719,0-1.282,0.266-1.69,0.798c-0.408,0.531-0.612,1.288-0.612,2.27v0.826
		c0,0.927,0.193,1.664,0.58,2.211c0.387,0.548,0.928,0.821,1.623,0.821c0.625,0,1.104-0.142,1.438-0.425s0.556-0.776,0.665-1.479
		H483.006z"/>
	<path fill="#020202" d="M487.055,273.837c-0.965-0.277-1.667-0.618-2.106-1.022s-0.659-0.903-0.659-1.497
		c0-0.672,0.269-1.228,0.806-1.667s1.235-0.659,2.095-0.659c0.586,0,1.108,0.113,1.567,0.34s0.814,0.539,1.066,0.938
		s0.378,0.834,0.378,1.307h-1.131c0-0.518-0.164-0.924-0.492-1.22s-0.791-0.444-1.389-0.444c-0.555,0-0.987,0.122-1.298,0.367
		c-0.311,0.244-0.466,0.584-0.466,1.019c0,0.348,0.147,0.643,0.442,0.883c0.295,0.241,0.797,0.461,1.506,0.66
		c0.709,0.2,1.264,0.42,1.664,0.66s0.697,0.521,0.891,0.841s0.29,0.697,0.29,1.131c0,0.691-0.27,1.245-0.809,1.661
		s-1.26,0.624-2.162,0.624c-0.586,0-1.133-0.112-1.641-0.337s-0.899-0.532-1.175-0.923s-0.413-0.834-0.413-1.33h1.131
		c0,0.516,0.19,0.923,0.571,1.222s0.89,0.448,1.526,0.448c0.594,0,1.049-0.121,1.365-0.363s0.475-0.572,0.475-0.99
		s-0.146-0.741-0.439-0.97S487.825,274.06,487.055,273.837z"/>
	<path fill="#020202" d="M491.661,277.64v-8.531h2.408c0.742,0,1.398,0.164,1.969,0.492s1.011,0.795,1.321,1.4
		s0.468,1.301,0.472,2.086v0.545c0,0.805-0.155,1.51-0.466,2.115s-0.754,1.07-1.33,1.395s-1.247,0.49-2.013,0.498H491.661z
		 M492.786,270.028v6.691h1.184c0.867,0,1.542-0.27,2.024-0.81c0.482-0.539,0.724-1.308,0.724-2.305v-0.498
		c0-0.97-0.228-1.724-0.683-2.261c-0.455-0.538-1.101-0.811-1.937-0.818H492.786z"/>
	<path fill="#020202" d="M502.225,276.146l2.438-7.037h1.23l-3.164,8.531h-0.996l-3.158-8.531h1.225L502.225,276.146z"/>
	<path fill="#020202" d="M509.549,273.837c-0.965-0.277-1.667-0.618-2.106-1.022s-0.659-0.903-0.659-1.497
		c0-0.672,0.269-1.228,0.806-1.667s1.235-0.659,2.095-0.659c0.586,0,1.109,0.113,1.568,0.34s0.814,0.539,1.066,0.938
		s0.377,0.834,0.377,1.307h-1.131c0-0.518-0.164-0.924-0.492-1.22s-0.791-0.444-1.388-0.444c-0.555,0-0.987,0.122-1.298,0.367
		c-0.311,0.244-0.466,0.584-0.466,1.019c0,0.348,0.147,0.643,0.442,0.883c0.295,0.241,0.797,0.461,1.506,0.66
		c0.709,0.2,1.264,0.42,1.665,0.66s0.697,0.521,0.891,0.841s0.289,0.697,0.289,1.131c0,0.691-0.27,1.245-0.809,1.661
		s-1.26,0.624-2.162,0.624c-0.586,0-1.133-0.112-1.641-0.337s-0.899-0.532-1.175-0.923s-0.413-0.834-0.413-1.33h1.131
		c0,0.516,0.19,0.923,0.571,1.222s0.89,0.448,1.526,0.448c0.594,0,1.048-0.121,1.365-0.363s0.475-0.572,0.475-0.99
		s-0.146-0.741-0.439-0.97S510.319,274.06,509.549,273.837z"/>
</g>
<g>
	<g>
		<rect x="743.025" y="457.633" fill="#FFFFFF" width="31.915" height="21.821"/>
		<path d="M775.44,479.954h-32.915v-22.821h32.915V479.954z M743.525,478.954h30.915v-20.821h-30.915V478.954z"/>
	</g>
	<g>
		<rect x="749.206" y="469.087" fill="#FFFFFF" width="12.414" height="7.086"/>
		<path d="M762.12,476.673h-13.414v-8.086h13.414V476.673z M749.706,475.673h11.414v-6.086h-11.414V475.673z"/>
	</g>
</g>
<g>
	<g>
		<rect x="873.874" y="457.669" fill="#FFFFFF" width="31.979" height="21.778"/>
		<path d="M906.353,479.947h-32.979v-22.778h32.979V479.947z M874.374,478.947h30.979v-20.778h-30.979V478.947z"/>
	</g>
	<g>
		<rect x="893.447" y="460.886" fill="#FFFFFF" width="8.178" height="14.427"/>
		<path d="M902.125,475.813h-9.178v-15.427h9.178V475.813z M893.947,474.813h7.178v-13.427h-7.178V474.813z"/>
	</g>
</g>
<polygon points="171.105,544.542 171.105,535.521 164.935,540.03 "/>
<polygon points="15.782,544.542 15.782,535.521 9.612,540.03 "/>
<polygon points="735.74,342.719 735.74,351.74 741.91,347.23 "/>
<polygon points="974.618,436.353 965.597,436.353 970.106,442.521 "/>
<g>
	<rect x="18.307" y="83.5" fill="#E4F3F7" width="361" height="88"/>
	<path fill="#18607C" d="M378.307,84.398v86.204h-359V84.398H378.307 M379.307,83.5h-361v88h361V83.5L379.307,83.5z"/>
</g>
<g>
	<rect x="382.705" y="443.5" fill="#C5E3EF" width="266" height="74"/>
	<path fill="#18607C" d="M647.704,444.5v72h-264v-72H647.704 M648.704,443.5h-266v74h266V443.5L648.704,443.5z"/>
</g>
<g>
	<rect x="370.205" y="475.5" fill="#C5E3EF" width="291" height="89"/>
	<path fill="#18607C" d="M660.204,476.5v87h-289v-87H660.204 M661.204,475.5h-291v89h291V475.5L661.204,475.5z"/>
</g>
<g>
	<rect x="768.414" y="224.5" fill="#EEFAF6" width="240.25" height="176"/>
	<path fill="#18607C" d="M1007.664,225.5v174h-238.25v-174H1007.664 M1008.664,224.5h-240.25v176h240.25V224.5L1008.664,224.5z"/>
</g>
<polygon points="1047.366,390.702 776.18,390.702 776.18,334.308 1047.366,334.308 1047.366,335.308 777.18,335.308 777.18,389.702 
	1047.366,389.702 "/>
<g>
	<path fill="#020202" d="M1027.317,362.991c-0.105,0.902-0.438,1.599-0.999,2.089s-1.306,0.735-2.235,0.735
		c-1.008,0-1.815-0.361-2.423-1.084s-0.911-1.689-0.911-2.9v-0.82c0-0.793,0.142-1.49,0.425-2.092s0.685-1.063,1.204-1.386
		s1.121-0.483,1.805-0.483c0.906,0,1.633,0.253,2.18,0.759s0.865,1.206,0.955,2.101h-1.131c-0.098-0.682-0.31-1.176-0.636-1.481
		s-0.782-0.458-1.368-0.458c-0.719,0-1.282,0.266-1.69,0.798c-0.408,0.531-0.612,1.288-0.612,2.27v0.826
		c0,0.927,0.193,1.664,0.58,2.211c0.387,0.548,0.928,0.821,1.623,0.821c0.625,0,1.104-0.142,1.438-0.425s0.556-0.776,0.665-1.479
		H1027.317z"/>
	<path fill="#020202" d="M1035.128,362.991c-0.105,0.902-0.438,1.599-0.999,2.089s-1.306,0.735-2.235,0.735
		c-1.008,0-1.815-0.361-2.423-1.084s-0.911-1.689-0.911-2.9v-0.82c0-0.793,0.142-1.49,0.425-2.092s0.685-1.063,1.204-1.386
		s1.121-0.483,1.805-0.483c0.906,0,1.633,0.253,2.18,0.759s0.865,1.206,0.955,2.101h-1.131c-0.098-0.682-0.31-1.176-0.636-1.481
		s-0.782-0.458-1.368-0.458c-0.719,0-1.282,0.266-1.69,0.798c-0.408,0.531-0.612,1.288-0.612,2.27v0.826
		c0,0.927,0.193,1.664,0.58,2.211c0.387,0.548,0.928,0.821,1.623,0.821c0.625,0,1.104-0.142,1.438-0.425s0.556-0.776,0.665-1.479
		H1035.128z"/>
	<path fill="#020202" d="M1038.503,363.009l0.164,1.125l0.24-1.014l1.688-5.953h0.949l1.646,5.953l0.234,1.031l0.182-1.148
		l1.324-5.836h1.131l-2.068,8.531h-1.025l-1.758-6.217l-0.135-0.65l-0.135,0.65l-1.822,6.217h-1.025l-2.063-8.531h1.125
		L1038.503,363.009z"/>
</g>
<polygon points="1026.458,385.597 1026.458,394.618 1032.628,390.108 "/>
<polygon points="1029.543,339.318 1029.543,330.297 1023.373,334.807 "/>
<g>
	<g>
		<rect x="666.27" y="94.476" fill="#FAFBE9" width="71" height="83"/>
		<path fill="#18607C" d="M736.27,95.476v81h-69v-81H736.27 M737.27,94.476h-71v83h71V94.476L737.27,94.476z"/>
	</g>
	<g>
		<path fill="#020202" d="M701.254,132.283h-1.131v-3.943h-4.301v3.943h-1.125v-8.531h1.125v3.668h4.301v-3.668h1.131V132.283z"/>
		<path fill="#020202" d="M704.377,128.943v3.34h-1.125v-8.531h3.146c0.934,0,1.666,0.238,2.195,0.715s0.793,1.107,0.793,1.893
			c0,0.828-0.258,1.466-0.775,1.913s-1.26,0.671-2.225,0.671H704.377z M704.377,128.023h2.021c0.602,0,1.063-0.142,1.383-0.426
			c0.32-0.283,0.48-0.693,0.48-1.229c0-0.509-0.16-0.916-0.48-1.221c-0.32-0.306-0.76-0.464-1.318-0.476h-2.086V128.023z"/>
		<path fill="#020202" d="M697.063,139.072h-2.742v7.611h-1.119v-7.611h-2.736v-0.92h6.598V139.072z"/>
		<path fill="#020202" d="M698.328,146.684v-8.531h2.789c0.926,0,1.621,0.191,2.088,0.574s0.701,0.949,0.701,1.699
			c0,0.398-0.113,0.751-0.34,1.058s-0.535,0.544-0.926,0.712c0.461,0.129,0.824,0.374,1.092,0.735s0.402,0.792,0.402,1.292
			c0,0.766-0.248,1.367-0.744,1.805s-1.197,0.656-2.104,0.656H698.328z M699.453,141.791h1.699c0.492,0,0.885-0.123,1.18-0.37
			c0.295-0.246,0.443-0.581,0.443-1.004c0-0.47-0.137-0.812-0.41-1.024c-0.273-0.214-0.689-0.32-1.248-0.32h-1.664V141.791z
			 M699.453,142.693v3.07h1.857c0.523,0,0.936-0.136,1.238-0.407s0.455-0.646,0.455-1.122c0-1.027-0.559-1.541-1.676-1.541H699.453z
			"/>
		<path fill="#020202" d="M712.355,146.684h-1.131l-4.295-6.574v6.574h-1.131v-8.531h1.131l4.307,6.604v-6.604h1.119V146.684z"/>
	</g>
</g>
<g>
	<g>
		<rect x="758.27" y="84.976" fill="#F0F3D4" width="77" height="102"/>
		<path fill="#18607C" d="M834.27,85.976v100h-75v-100H834.27 M835.27,84.976h-77v102h77V84.976L835.27,84.976z"/>
	</g>
	<g>
		<path fill="#020202" d="M791.877,131.363h4.043v0.92h-5.174v-8.531h1.131V131.363z"/>
		<path fill="#020202" d="M798.328,128.943v3.34h-1.125v-8.531h3.146c0.934,0,1.666,0.238,2.195,0.715s0.793,1.107,0.793,1.893
			c0,0.828-0.258,1.466-0.775,1.913s-1.26,0.671-2.225,0.671H798.328z M798.328,128.023h2.021c0.602,0,1.063-0.142,1.383-0.426
			c0.32-0.283,0.48-0.693,0.48-1.229c0-0.509-0.16-0.916-0.48-1.221c-0.32-0.306-0.76-0.464-1.318-0.476h-2.086V128.023z"/>
		<path fill="#020202" d="M792.063,139.072h-2.742v7.611h-1.119v-7.611h-2.736v-0.92h6.598V139.072z"/>
		<path fill="#020202" d="M793.328,146.684v-8.531h2.789c0.926,0,1.621,0.191,2.088,0.574s0.701,0.949,0.701,1.699
			c0,0.398-0.113,0.751-0.34,1.058s-0.535,0.544-0.926,0.712c0.461,0.129,0.824,0.374,1.092,0.735s0.402,0.792,0.402,1.292
			c0,0.766-0.248,1.367-0.744,1.805s-1.197,0.656-2.104,0.656H793.328z M794.453,141.791h1.699c0.492,0,0.885-0.123,1.18-0.37
			c0.295-0.246,0.443-0.581,0.443-1.004c0-0.47-0.137-0.812-0.41-1.024c-0.273-0.214-0.689-0.32-1.248-0.32h-1.664V141.791z
			 M794.453,142.693v3.07h1.857c0.523,0,0.936-0.136,1.238-0.407s0.455-0.646,0.455-1.122c0-1.027-0.559-1.541-1.676-1.541H794.453z
			"/>
		<path fill="#020202" d="M807.355,146.684h-1.131l-4.295-6.574v6.574h-1.131v-8.531h1.131l4.307,6.604v-6.604h1.119V146.684z"/>
	</g>
</g>
<g>
	<rect x="841.063" y="91.31" fill="#DAD5BF" width="198.611" height="89.332"/>
	<path fill="#18607C" d="M1038.674,92.31v87.332H842.063V92.31H1038.674 M1039.674,91.31H841.063v89.332h198.611V91.31
		L1039.674,91.31z"/>
</g>
<g>
	<path fill="#020202" d="M176.058,103.72c0-0.332-0.117-0.587-0.352-0.765s-0.656-0.365-1.266-0.563s-1.092-0.392-1.447-0.583
		c-0.969-0.523-1.453-1.229-1.453-2.115c0-0.461,0.13-0.872,0.39-1.233s0.633-0.644,1.119-0.847s1.032-0.305,1.638-0.305
		c0.609,0,1.152,0.11,1.629,0.331s0.847,0.532,1.11,0.935s0.396,0.859,0.396,1.371h-1.758c0-0.391-0.123-0.694-0.369-0.911
		s-0.592-0.325-1.037-0.325c-0.43,0-0.764,0.091-1.002,0.272s-0.357,0.421-0.357,0.718c0,0.277,0.14,0.51,0.419,0.697
		s0.69,0.363,1.233,0.527c1,0.301,1.729,0.674,2.186,1.119s0.686,1,0.686,1.664c0,0.738-0.279,1.317-0.838,1.737
		s-1.311,0.63-2.256,0.63c-0.656,0-1.254-0.12-1.793-0.36s-0.95-0.569-1.233-0.987s-0.425-0.902-0.425-1.453h1.764
		c0,0.941,0.563,1.412,1.688,1.412c0.418,0,0.744-0.085,0.979-0.255S176.058,104.024,176.058,103.72z"/>
	<path fill="#020202" d="M188.75,104.88c-0.316,0.379-0.764,0.673-1.342,0.882s-1.219,0.313-1.922,0.313
		c-0.738,0-1.386-0.161-1.942-0.483s-0.986-0.79-1.289-1.403s-0.458-1.334-0.466-2.162v-0.58c0-0.852,0.144-1.589,0.431-2.212
		s0.701-1.1,1.242-1.43s1.175-0.495,1.901-0.495c1.012,0,1.803,0.241,2.373,0.724s0.908,1.185,1.014,2.106h-1.711
		c-0.078-0.488-0.251-0.846-0.519-1.072s-0.636-0.34-1.104-0.34c-0.598,0-1.053,0.225-1.365,0.674s-0.471,1.117-0.475,2.004v0.545
		c0,0.895,0.17,1.57,0.51,2.027s0.838,0.686,1.494,0.686c0.66,0,1.131-0.141,1.412-0.422v-1.471h-1.6v-1.295h3.357V104.88z"/>
	<path fill="#020202" d="M194.919,104.546h3.732v1.412h-5.49v-8.531h1.758V104.546z"/>
	<path fill="#020202" d="M204.792,102.261h-3.375v2.285h3.961v1.412h-5.719v-8.531h5.707v1.424h-3.949v2.033h3.375V102.261z"/>
	<path fill="#020202" d="M209.562,103.843l1.934-6.416h1.957l-2.971,8.531h-1.834l-2.959-8.531h1.951L209.562,103.843z"/>
	<path fill="#020202" d="M219.388,102.261h-3.375v2.285h3.961v1.412h-5.719v-8.531h5.707v1.424h-3.949v2.033h3.375V102.261z"/>
	<path fill="#020202" d="M222.763,104.546h3.732v1.412h-5.49v-8.531h1.758V104.546z"/>
</g>
<g>
	<path fill="#020202" d="M482.664,463.958v-8.531h2.625c0.75,0,1.421,0.169,2.013,0.507s1.054,0.818,1.386,1.441
		s0.498,1.331,0.498,2.124v0.393c0,0.793-0.163,1.498-0.489,2.115s-0.786,1.096-1.38,1.436s-1.264,0.512-2.01,0.516H482.664z
		 M484.421,456.851v5.695h0.85c0.688,0,1.213-0.225,1.576-0.674s0.549-1.092,0.557-1.928v-0.451c0-0.867-0.18-1.524-0.539-1.972
		s-0.885-0.671-1.576-0.671H484.421z"/>
	<path fill="#020202" d="M495.595,460.261h-3.375v2.285h3.961v1.412h-5.719v-8.531h5.707v1.424h-3.949v2.033h3.375V460.261z"/>
	<path fill="#020202" d="M502.029,462.2h-3.082l-0.586,1.758h-1.869l3.176-8.531h1.629l3.193,8.531h-1.869L502.029,462.2z
		 M499.421,460.776h2.133l-1.072-3.193L499.421,460.776z"/>
	<path fill="#020202" d="M510.419,460.261h-3.375v2.285h3.961v1.412h-5.719v-8.531h5.708v1.424h-3.95v2.033h3.375V460.261z"/>
	<path fill="#020202" d="M515.195,460.835h-1.4v3.123h-1.758v-8.531h3.17c1.008,0,1.785,0.225,2.332,0.674s0.82,1.084,0.82,1.904
		c0,0.582-0.127,1.067-0.379,1.456s-0.633,0.698-1.145,0.929l1.846,3.486v0.082h-1.887L515.195,460.835z M513.795,459.411h1.418
		c0.441,0,0.783-0.112,1.025-0.337s0.363-0.534,0.363-0.929c0-0.402-0.115-0.719-0.344-0.949s-0.578-0.346-1.051-0.346h-1.412
		V459.411z"/>
	<path fill="#020202" d="M524.512,462.2h-3.082l-0.586,1.758h-1.869l3.176-8.531h1.629l3.193,8.531h-1.869L524.512,462.2z
		 M521.904,460.776h2.133l-1.072-3.193L521.904,460.776z"/>
	<path fill="#020202" d="M533.488,456.851h-2.613v7.107h-1.758v-7.107h-2.578v-1.424h6.949V456.851z"/>
	<path fill="#020202" d="M541.334,459.886c0,0.84-0.148,1.576-0.445,2.209s-0.723,1.121-1.275,1.465s-1.186,0.516-1.9,0.516
		c-0.707,0-1.338-0.17-1.893-0.51s-0.984-0.825-1.289-1.456s-0.459-1.356-0.463-2.177v-0.422c0-0.84,0.15-1.579,0.453-2.218
		s0.73-1.129,1.283-1.471s1.186-0.513,1.896-0.513s1.342,0.171,1.895,0.513s0.98,0.832,1.283,1.471s0.455,1.376,0.455,2.212V459.886
		z M539.553,459.499c0-0.895-0.16-1.574-0.48-2.039s-0.777-0.697-1.371-0.697c-0.59,0-1.045,0.229-1.365,0.688
		s-0.482,1.132-0.486,2.019v0.416c0,0.871,0.16,1.547,0.48,2.027s0.781,0.721,1.383,0.721c0.59,0,1.043-0.231,1.359-0.694
		s0.477-1.138,0.48-2.024V459.499z"/>
	<path fill="#020202" d="M545.77,460.835h-1.4v3.123h-1.758v-8.531h3.17c1.008,0,1.785,0.225,2.332,0.674s0.82,1.084,0.82,1.904
		c0,0.582-0.127,1.067-0.379,1.456s-0.633,0.698-1.145,0.929l1.846,3.486v0.082h-1.887L545.77,460.835z M544.369,459.411h1.418
		c0.441,0,0.783-0.112,1.025-0.337s0.363-0.534,0.363-0.929c0-0.402-0.115-0.719-0.344-0.949s-0.578-0.346-1.051-0.346h-1.412
		V459.411z"/>
</g>
<g>
	<path fill="#020202" d="M861.291,245.116c-0.066,0.918-0.405,1.641-1.017,2.168s-1.417,0.791-2.417,0.791
		c-1.094,0-1.954-0.368-2.581-1.104s-0.94-1.747-0.94-3.032v-0.521c0-0.82,0.145-1.543,0.434-2.168s0.702-1.104,1.239-1.438
		s1.161-0.501,1.872-0.501c0.984,0,1.777,0.264,2.379,0.791s0.949,1.268,1.043,2.221h-1.758c-0.043-0.551-0.196-0.95-0.46-1.198
		s-0.665-0.372-1.204-0.372c-0.586,0-1.024,0.21-1.315,0.63s-0.44,1.071-0.448,1.954v0.645c0,0.922,0.14,1.596,0.419,2.021
		s0.72,0.639,1.321,0.639c0.543,0,0.948-0.124,1.216-0.372s0.421-0.632,0.46-1.151H861.291z"/>
	<path fill="#020202" d="M869.453,243.886c0,0.84-0.148,1.576-0.445,2.209s-0.722,1.121-1.274,1.465s-1.187,0.516-1.901,0.516
		c-0.707,0-1.338-0.17-1.893-0.51s-0.984-0.825-1.289-1.456s-0.459-1.356-0.463-2.177v-0.422c0-0.84,0.151-1.579,0.454-2.218
		s0.73-1.129,1.283-1.471s1.185-0.513,1.896-0.513s1.343,0.171,1.896,0.513s0.98,0.832,1.283,1.471s0.454,1.376,0.454,2.212V243.886
		z M867.672,243.499c0-0.895-0.16-1.574-0.48-2.039s-0.777-0.697-1.371-0.697c-0.59,0-1.045,0.229-1.365,0.688
		s-0.482,1.132-0.486,2.019v0.416c0,0.871,0.16,1.547,0.48,2.027s0.781,0.721,1.383,0.721c0.59,0,1.043-0.231,1.359-0.694
		s0.477-1.138,0.48-2.024V243.499z"/>
	<path fill="#020202" d="M877.668,247.958h-1.758l-3.422-5.613v5.613h-1.758v-8.531h1.758l3.428,5.625v-5.625h1.752V247.958z"/>
	<path fill="#020202" d="M879.203,247.958v-8.531h2.625c0.75,0,1.421,0.169,2.013,0.507s1.054,0.818,1.386,1.441
		s0.498,1.331,0.498,2.124v0.393c0,0.793-0.163,1.498-0.489,2.115s-0.786,1.096-1.38,1.436s-1.264,0.512-2.01,0.516H879.203z
		 M880.961,240.851v5.695h0.85c0.688,0,1.213-0.225,1.576-0.674s0.549-1.092,0.557-1.928v-0.451c0-0.867-0.18-1.524-0.539-1.972
		s-0.885-0.671-1.576-0.671H880.961z"/>
	<path fill="#020202" d="M892.135,244.261h-3.375v2.285h3.961v1.412h-5.719v-8.531h5.707v1.424h-3.949v2.033h3.375V244.261z"/>
	<path fill="#020202" d="M900.689,247.958h-1.758l-3.422-5.613v5.613h-1.758v-8.531h1.758l3.428,5.625v-5.625h1.752V247.958z"/>
	<path fill="#020202" d="M906.648,245.72c0-0.332-0.117-0.587-0.352-0.765s-0.656-0.365-1.266-0.563s-1.092-0.392-1.447-0.583
		c-0.969-0.523-1.453-1.229-1.453-2.115c0-0.461,0.13-0.872,0.39-1.233s0.633-0.644,1.119-0.847s1.032-0.305,1.638-0.305
		c0.609,0,1.152,0.11,1.629,0.331s0.847,0.532,1.11,0.935s0.396,0.859,0.396,1.371h-1.758c0-0.391-0.123-0.694-0.369-0.911
		s-0.592-0.325-1.037-0.325c-0.43,0-0.764,0.091-1.002,0.272s-0.357,0.421-0.357,0.718c0,0.277,0.14,0.51,0.419,0.697
		s0.69,0.363,1.233,0.527c1,0.301,1.729,0.674,2.186,1.119s0.686,1,0.686,1.664c0,0.738-0.279,1.317-0.838,1.737
		s-1.311,0.63-2.256,0.63c-0.656,0-1.254-0.12-1.793-0.36s-0.95-0.569-1.233-0.987s-0.425-0.902-0.425-1.453h1.764
		c0,0.941,0.563,1.412,1.688,1.412c0.418,0,0.744-0.085,0.979-0.255S906.648,246.024,906.648,245.72z"/>
	<path fill="#020202" d="M914.734,244.261h-3.375v2.285h3.961v1.412h-5.719v-8.531h5.707v1.424h-3.949v2.033h3.375V244.261z"/>
	<path fill="#020202" d="M919.51,244.835h-1.4v3.123h-1.758v-8.531h3.17c1.008,0,1.785,0.225,2.332,0.674s0.82,1.084,0.82,1.904
		c0,0.582-0.126,1.067-0.378,1.456s-0.634,0.698-1.146,0.929l1.846,3.486v0.082h-1.887L919.51,244.835z M918.109,243.411h1.418
		c0.441,0,0.783-0.112,1.025-0.337s0.363-0.534,0.363-0.929c0-0.402-0.114-0.719-0.343-0.949s-0.579-0.346-1.052-0.346h-1.412
		V243.411z"/>
</g>
<g>
	<path fill="#020202" d="M913.69,114.148c-0.316,0.379-0.764,0.673-1.342,0.882s-1.219,0.313-1.922,0.313
		c-0.738,0-1.386-0.161-1.942-0.483s-0.986-0.79-1.289-1.403s-0.458-1.334-0.466-2.162v-0.58c0-0.852,0.144-1.589,0.431-2.212
		s0.701-1.1,1.242-1.43s1.175-0.495,1.901-0.495c1.012,0,1.803,0.241,2.373,0.724s0.908,1.185,1.014,2.106h-1.711
		c-0.078-0.488-0.251-0.846-0.519-1.072s-0.636-0.34-1.104-0.34c-0.598,0-1.053,0.225-1.365,0.674s-0.471,1.117-0.475,2.004v0.545
		c0,0.895,0.17,1.57,0.51,2.027s0.838,0.686,1.494,0.686c0.66,0,1.131-0.141,1.412-0.422v-1.471h-1.6v-1.295h3.357V114.148z"/>
	<path fill="#020202" d="M920.247,111.529h-3.375v2.285h3.961v1.412h-5.719v-8.531h5.707v1.424h-3.949v2.033h3.375V111.529z"/>
	<path fill="#020202" d="M928.802,115.227h-1.758l-3.422-5.613v5.613h-1.758v-8.531h1.758l3.428,5.625v-5.625h1.752V115.227z"/>
	<path fill="#020202" d="M935.47,111.529h-3.375v2.285h3.961v1.412h-5.719v-8.531h5.707v1.424h-3.949v2.033h3.375V111.529z"/>
	<path fill="#020202" d="M940.245,112.104h-1.4v3.123h-1.758v-8.531h3.17c1.008,0,1.785,0.225,2.332,0.674s0.82,1.084,0.82,1.904
		c0,0.582-0.126,1.067-0.378,1.456s-0.634,0.698-1.146,0.929l1.846,3.486v0.082h-1.887L940.245,112.104z M938.845,110.68h1.418
		c0.441,0,0.783-0.112,1.025-0.337s0.363-0.534,0.363-0.929c0-0.402-0.114-0.719-0.343-0.949s-0.579-0.346-1.052-0.346h-1.412
		V110.68z"/>
	<path fill="#020202" d="M949.562,113.469h-3.082l-0.586,1.758h-1.869l3.176-8.531h1.629l3.193,8.531h-1.869L949.562,113.469z
		 M946.954,112.045h2.133l-1.072-3.193L946.954,112.045z"/>
	<path fill="#020202" d="M958.538,108.119h-2.613v7.107h-1.758v-7.107h-2.578v-1.424h6.949V108.119z"/>
	<path fill="#020202" d="M966.384,111.154c0,0.84-0.148,1.576-0.445,2.209s-0.722,1.121-1.274,1.465s-1.187,0.516-1.901,0.516
		c-0.707,0-1.338-0.17-1.893-0.51s-0.984-0.825-1.289-1.456s-0.459-1.356-0.463-2.177v-0.422c0-0.84,0.151-1.579,0.454-2.218
		s0.73-1.129,1.283-1.471s1.185-0.513,1.896-0.513s1.343,0.171,1.896,0.513s0.98,0.832,1.283,1.471s0.454,1.376,0.454,2.212V111.154
		z M964.603,110.768c0-0.895-0.16-1.574-0.48-2.039s-0.777-0.697-1.371-0.697c-0.59,0-1.045,0.229-1.365,0.688
		s-0.482,1.132-0.486,2.019v0.416c0,0.871,0.16,1.547,0.48,2.027s0.781,0.721,1.383,0.721c0.59,0,1.043-0.231,1.359-0.694
		s0.477-1.138,0.48-2.024V110.768z"/>
	<path fill="#020202" d="M970.819,112.104h-1.4v3.123h-1.758v-8.531h3.17c1.008,0,1.785,0.225,2.332,0.674s0.82,1.084,0.82,1.904
		c0,0.582-0.126,1.067-0.378,1.456s-0.634,0.698-1.146,0.929l1.846,3.486v0.082h-1.887L970.819,112.104z M969.419,110.68h1.418
		c0.441,0,0.783-0.112,1.025-0.337s0.363-0.534,0.363-0.929c0-0.402-0.114-0.719-0.343-0.949s-0.579-0.346-1.052-0.346h-1.412
		V110.68z"/>
</g>
<g>
	<path fill="#020202" d="M176.105,188.835h-1.4v3.123h-1.758v-8.531h3.17c1.008,0,1.785,0.225,2.332,0.674s0.82,1.084,0.82,1.904
		c0,0.582-0.126,1.067-0.378,1.456s-0.634,0.698-1.146,0.929l1.846,3.486v0.082h-1.887L176.105,188.835z M174.705,187.411h1.418
		c0.441,0,0.783-0.112,1.025-0.337s0.363-0.534,0.363-0.929c0-0.402-0.114-0.719-0.343-0.949s-0.579-0.346-1.052-0.346h-1.412
		V187.411z"/>
	<path fill="#020202" d="M185.738,188.261h-3.375v2.285h3.961v1.412h-5.719v-8.531h5.707v1.424h-3.949v2.033h3.375V188.261z"/>
	<path fill="#020202" d="M192.171,190.2h-3.082l-0.586,1.758h-1.869l3.176-8.531h1.629l3.193,8.531h-1.869L192.171,190.2z
		 M189.564,188.776h2.133l-1.072-3.193L189.564,188.776z"/>
	<path fill="#020202" d="M202.003,189.116c-0.066,0.918-0.405,1.641-1.017,2.168s-1.417,0.791-2.417,0.791
		c-1.094,0-1.954-0.368-2.581-1.104s-0.94-1.747-0.94-3.032v-0.521c0-0.82,0.145-1.543,0.434-2.168s0.702-1.104,1.239-1.438
		s1.161-0.501,1.872-0.501c0.984,0,1.777,0.264,2.379,0.791s0.949,1.268,1.043,2.221h-1.758c-0.043-0.551-0.196-0.95-0.46-1.198
		s-0.665-0.372-1.204-0.372c-0.586,0-1.024,0.21-1.315,0.63s-0.44,1.071-0.448,1.954v0.645c0,0.922,0.14,1.596,0.419,2.021
		s0.72,0.639,1.321,0.639c0.543,0,0.948-0.124,1.216-0.372s0.421-0.632,0.46-1.151H202.003z"/>
	<path fill="#020202" d="M209.41,184.851h-2.613v7.107h-1.758v-7.107h-2.578v-1.424h6.949V184.851z"/>
	<path fill="#020202" d="M217.255,187.886c0,0.84-0.148,1.576-0.445,2.209s-0.722,1.121-1.274,1.465s-1.187,0.516-1.901,0.516
		c-0.707,0-1.338-0.17-1.893-0.51s-0.984-0.825-1.289-1.456s-0.459-1.356-0.463-2.177v-0.422c0-0.84,0.151-1.579,0.454-2.218
		s0.73-1.129,1.283-1.471s1.185-0.513,1.896-0.513s1.343,0.171,1.896,0.513s0.98,0.832,1.283,1.471s0.454,1.376,0.454,2.212V187.886
		z M215.474,187.499c0-0.895-0.16-1.574-0.48-2.039s-0.777-0.697-1.371-0.697c-0.59,0-1.045,0.229-1.365,0.688
		s-0.482,1.132-0.486,2.019v0.416c0,0.871,0.16,1.547,0.48,2.027s0.781,0.721,1.383,0.721c0.59,0,1.043-0.231,1.359-0.694
		s0.477-1.138,0.48-2.024V187.499z"/>
	<path fill="#020202" d="M221.691,188.835h-1.4v3.123h-1.758v-8.531h3.17c1.008,0,1.785,0.225,2.332,0.674s0.82,1.084,0.82,1.904
		c0,0.582-0.126,1.067-0.378,1.456s-0.634,0.698-1.146,0.929l1.846,3.486v0.082h-1.887L221.691,188.835z M220.291,187.411h1.418
		c0.441,0,0.783-0.112,1.025-0.337s0.363-0.534,0.363-0.929c0-0.402-0.114-0.719-0.343-0.949s-0.579-0.346-1.052-0.346h-1.412
		V187.411z"/>
</g>
</svg>
