<?xml version="1.0" encoding="utf-8"?>
<!-- Generator: Adobe Illustrator 15.0.0, SVG Export Plug-In . SVG Version: 6.00 Build 0)  -->
<!DOCTYPE svg PUBLIC "-//W3C//DTD SVG 1.1//EN" "http://www.w3.org/Graphics/SVG/1.1/DTD/svg11.dtd">
<svg version="1.1" id="Layer_1" xmlns="http://www.w3.org/2000/svg" xmlns:xlink="http://www.w3.org/1999/xlink" x="0px" y="0px"
	 width="30px" height="30px" viewBox="0 0 30 30" enable-background="new 0 0 30 30" xml:space="preserve">
<g>
	<path fill="none" stroke="#FFFFFF" stroke-miterlimit="10" d="M12.141,21.05c0,0.769-0.621,1.391-1.391,1.391l0,0
		c-0.768,0-1.39-0.622-1.39-1.391V7.924c0-0.769,0.622-1.391,1.39-1.391l0,0c0.77,0,1.391,0.622,1.391,1.391V21.05z"/>
	<path fill="none" stroke="#FFFFFF" stroke-miterlimit="10" d="M12.141,7.924c0,0,0.509,2.54,6.279,2.54h3.344
		c1.107,0,2.006,0.898,2.006,2.006v4.033"/>
	<path fill="none" stroke="#FFFFFF" stroke-miterlimit="10" d="M12.141,21.05c0,0,0.509-2.54,6.279-2.541h3.344
		c1.107,0,2.006-0.898,2.006-2.006"/>
	<line fill="none" stroke="#FFFFFF" stroke-miterlimit="10" x1="18.599" y1="10.464" x2="18.599" y2="18.51"/>
	<line fill="none" stroke="#FFFFFF" stroke-miterlimit="10" x1="20.358" y1="10.464" x2="20.358" y2="18.51"/>
	<polyline fill="none" stroke="#FFFFFF" stroke-linecap="round" stroke-linejoin="round" stroke-miterlimit="10" points="
		17.381,18.538 18.599,22.919 20.358,22.919 20.358,18.51 	"/>
	<g>
		
			<line fill="none" stroke="#FFFFFF" stroke-linecap="round" stroke-linejoin="round" stroke-miterlimit="10" x1="5.35" y1="14.487" x2="7.116" y2="14.487"/>
		<g>
			
				<line fill="none" stroke="#FFFFFF" stroke-linecap="round" stroke-linejoin="round" stroke-miterlimit="10" x1="5.35" y1="9.874" x2="7.116" y2="10.909"/>
			
				<line fill="none" stroke="#FFFFFF" stroke-linecap="round" stroke-linejoin="round" stroke-miterlimit="10" x1="5.35" y1="19.1" x2="7.116" y2="18.065"/>
		</g>
	</g>
</g>
</svg>
