<?xml version="1.0" encoding="utf-8"?>
<!-- Generator: Adobe Illustrator 15.0.0, SVG Export Plug-In . SVG Version: 6.00 Build 0)  -->
<!DOCTYPE svg PUBLIC "-//W3C//DTD SVG 1.1//EN" "http://www.w3.org/Graphics/SVG/1.1/DTD/svg11.dtd">
<svg version="1.1" xmlns="http://www.w3.org/2000/svg" xmlns:xlink="http://www.w3.org/1999/xlink" x="0px" y="0px" width="20px"
	 height="20px" viewBox="0 0 20 20" enable-background="new 0 0 20 20" xml:space="preserve">
<g id="Layer_1">
	<path fill="#FFFFFF" stroke="#000000" stroke-miterlimit="10" d="M15.852,1.293c-0.427-0.241-0.933-0.232-1.353,0.021
		c-0.021,0.012-0.04,0.025-0.058,0.041L8.516,5.788L3.86,5.794c-0.242,0-0.437,0.197-0.437,0.438l0.013,7.131
		c-0.001,0.117,0.046,0.227,0.127,0.309c0.083,0.082,0.194,0.129,0.311,0.129l4.646-0.01l5.938,4.846
		c0.021,0.02,0.046,0.037,0.07,0.051c0.216,0.131,0.454,0.193,0.694,0.195c0.225-0.002,0.451-0.061,0.659-0.18
		c0.436-0.248,0.697-0.697,0.696-1.207L16.553,2.499C16.552,1.99,16.29,1.539,15.852,1.293z"/>
	<line fill="none" stroke="#000000" stroke-miterlimit="10" x1="8.516" y1="5.788" x2="8.516" y2="13.822"/>
</g>
<g id="Layer_2">
</g>
</svg>
