<?xml version="1.0" encoding="utf-8"?>
<!-- Generator: Adobe Illustrator 15.0.0, SVG Export Plug-In . SVG Version: 6.00 Build 0)  -->
<!DOCTYPE svg PUBLIC "-//W3C//DTD SVG 1.1//EN" "http://www.w3.org/Graphics/SVG/1.1/DTD/svg11.dtd">
<svg version="1.1" id="Layer_1" xmlns="http://www.w3.org/2000/svg" xmlns:xlink="http://www.w3.org/1999/xlink" x="0px" y="0px"
	 width="30px" height="30px" viewBox="0 0 30 30" enable-background="new 0 0 30 30" xml:space="preserve">
<g>
	<path fill="none" stroke="#313131" stroke-linecap="round" stroke-linejoin="round" stroke-miterlimit="10" d="M22.078,23.429
		c-0.023-0.011-0.049-0.024-0.074-0.036l-4.007-1.891c-0.682-0.321-1.106-0.97-1.106-1.689V18.16l0.117-0.127
		c0.104-0.11,0.225-0.257,0.349-0.423c0.505-0.673,0.901-1.431,1.182-2.249l0.075-0.22l0.236-0.068
		c0.328-0.097,0.559-0.386,0.559-0.704v-1.583c0-0.208-0.096-0.402-0.264-0.547l-0.157-0.133l0.004-2.547
		c0.001-0.009,0.132-1.104-0.669-1.956c-0.686-0.731-1.854-1.103-3.475-1.103c-0.003,0-0.006,0-0.008,0.001
		c-0.004-0.001-0.006-0.001-0.008-0.001c-1.622,0-2.791,0.372-3.479,1.103c-0.8,0.852-0.668,1.947-0.668,1.956l0.006,2.547
		l-0.157,0.133c-0.17,0.145-0.264,0.339-0.264,0.547v1.583c0,0.317,0.23,0.607,0.559,0.704l0.236,0.068l0.075,0.22
		c0.279,0.818,0.676,1.575,1.181,2.249c0.124,0.166,0.245,0.313,0.349,0.423l0.117,0.127v1.652c0,0.721-0.424,1.368-1.106,1.689
		l-4.005,1.891c-0.027,0.012-0.053,0.025-0.076,0.036"/>
</g>
</svg>
