<?xml version="1.0" encoding="utf-8"?>
<!-- Generator: Adobe Illustrator 15.0.0, SVG Export Plug-In . SVG Version: 6.00 Build 0)  -->
<!DOCTYPE svg PUBLIC "-//W3C//DTD SVG 1.1//EN" "http://www.w3.org/Graphics/SVG/1.1/DTD/svg11.dtd">
<svg version="1.1" id="Layer_1" xmlns="http://www.w3.org/2000/svg" xmlns:xlink="http://www.w3.org/1999/xlink" x="0px" y="0px"
	 width="400px" height="30px" viewBox="0 0 400 30" enable-background="new 0 0 400 30" xml:space="preserve">
<g>
	<g>
		<rect x="192.947" y="8.459" fill="#FFFFFF" width="0.869" height="13.965"/>
		<rect x="172.274" y="8.459" fill="#FFFFFF" width="0.868" height="13.965"/>
		<path fill="#FFFFFF" d="M55.309,11.406c-0.463,0-0.87,0.22-1.135,0.558V8.687h-2.538V19.96l-9.516,0.001
			c-0.161,0-0.29-0.129-0.29-0.287v-1.79h-2.541l-0.002,2.051c0,1.172,1.011,2.119,2.259,2.119l12.626-0.009v-8.305
			c0.265,0.338,0.672,0.559,1.135,0.559c0.798,0,1.446-0.648,1.446-1.447C56.755,12.052,56.107,11.406,55.309,11.406z"/>
		<path fill="#FFFFFF" d="M39.844,14.065c0,2.025,1.826,3.667,4.078,3.667c2.254,0,4.077-1.642,4.077-3.667
			c0-0.662-0.21-1.275-0.552-1.812h2.046v-2.092h-4.829C45.048,9.916,45.304,9.489,45.304,9c0-0.762-0.62-1.378-1.38-1.378
			c-0.764,0-1.379,0.616-1.379,1.378c0,0.489,0.254,0.916,0.637,1.161h-4.83v2.092h2.045C40.055,12.79,39.844,13.403,39.844,14.065z
			 M43.922,15.623c-0.86,0-1.557-0.696-1.557-1.558c0-0.861,0.696-1.559,1.557-1.559c0.861,0,1.559,0.697,1.559,1.559
			C45.481,14.927,44.783,15.623,43.922,15.623z"/>
		<path fill="#FFFFFF" d="M150.017,11.189c-0.467,0-0.879,0.226-1.144,0.57V8.688h-2.539v13.614h2.539v-8.789
			c0.265,0.344,0.676,0.57,1.144,0.57c0.8,0,1.447-0.649,1.447-1.446C151.463,11.836,150.817,11.189,150.017,11.189z"/>
		<path fill="#FFFFFF" d="M109.089,10.306c-0.253-0.308-0.633-0.508-1.063-0.508c-0.76,0-1.379,0.616-1.379,1.379
			s0.619,1.381,1.379,1.381c0.431,0,0.81-0.201,1.063-0.509v1.614c-0.253-0.308-0.633-0.508-1.063-0.508
			c-0.76,0-1.379,0.617-1.379,1.38c0,0.762,0.619,1.38,1.379,1.38c0.431,0,0.81-0.201,1.063-0.509V17.2H96.293v2.094h12.796v3.008
			h2.539V8.688h-2.539V10.306z"/>
		<path fill="#FFFFFF" d="M105.659,16.451v-1.975h-7.553v-0.69h7.553V11.12c0-1.084-0.937-1.964-2.096-1.964h-7.998v1.975h7.557
			v0.691h-7.555v2.664c0.001,1.085,0.941,1.966,2.097,1.966H105.659z"/>
		<path fill="#FFFFFF" d="M166.944,10.302c-0.253-0.305-0.631-0.503-1.058-0.503c-0.764,0-1.382,0.616-1.382,1.379
			s0.618,1.381,1.382,1.381c0.427,0,0.805-0.199,1.058-0.505v1.606c-0.253-0.306-0.631-0.504-1.058-0.504
			c-0.764,0-1.382,0.617-1.382,1.38c0,0.762,0.618,1.38,1.382,1.38c0.427,0,0.805-0.199,1.058-0.504V17.2h-12.792v2.094h12.792
			v3.008h2.538V8.688h-2.538V10.302z"/>
		<path fill="#FFFFFF" d="M163.518,16.451v-1.975h-7.555v-0.69h7.554l-0.002-2.666c0-1.084-0.937-1.964-2.093-1.964h-7.998v1.975
			h7.557v0.691h-7.555v2.664c0,1.085,0.939,1.966,2.098,1.966H163.518z"/>
		<polygon fill="#FFFFFF" points="174.681,18.95 181.777,18.95 181.777,22.286 184.313,22.286 184.313,18.95 191.407,18.95 
			191.407,16.856 174.681,16.856 		"/>
		<path fill="#FFFFFF" d="M119.461,18.064c0,0.762,0.617,1.381,1.38,1.381c0.764,0,1.381-0.619,1.381-1.381
			c0-0.345-0.131-0.657-0.34-0.899h3.705v-2.093h-4.21c1.389-0.61,2.354-1.876,2.354-3.353c0-2.068-1.874-3.745-4.186-3.745
			s-4.183,1.677-4.183,3.745c0,1.477,0.963,2.743,2.352,3.353h-3.27v2.093h5.357C119.592,17.407,119.461,17.719,119.461,18.064z
			 M119.545,10.087c0.91,0,1.646,0.729,1.646,1.631c0,0.903-0.737,1.631-1.646,1.631c-0.909,0-1.645-0.729-1.645-1.631
			C117.9,10.817,118.637,10.087,119.545,10.087z"/>
		<path fill="#FFFFFF" d="M82.232,11.862c0.261-0.429,0.551-0.634,1.06-0.634h3.382c0.511,0,0.8,0.205,1.063,0.634l2.736,4.017
			h2.784l-3.643-5.354c-0.857-1.295-2.042-1.393-3.132-1.393h-2.995c-1.088,0-2.274,0.097-3.128,1.393l-3.645,5.354h2.783
			L82.232,11.862z"/>
		<polygon fill="#FFFFFF" points="76.457,18.949 83.716,18.949 83.716,22.281 86.255,22.281 86.255,18.949 93.514,18.949 
			93.514,16.854 76.457,16.854 		"/>
		<path fill="#FFFFFF" d="M73.775,11.273c0-1.17-1.012-2.118-2.259-2.118L58.893,9.155v2.096l12.052-0.002
			c0.159,0,0.289,0.129,0.289,0.289v1.442H57.998v2.092h7.326c-0.209,0.242-0.34,0.555-0.34,0.9c0,0.337,0.126,0.642,0.328,0.882
			h-6.419v2.097l12.052-0.002c0.159,0,0.289,0.126,0.289,0.288v3.049h2.54l0.002-3.313c0-1.168-1.012-2.118-2.259-2.118h-4.101
			c0.202-0.24,0.328-0.545,0.328-0.882c0-0.345-0.131-0.658-0.34-0.9h7.32v-2.092h-0.95L73.775,11.273z"/>
		<path fill="#FFFFFF" d="M127.731,11.961c-0.266-0.335-0.671-0.555-1.132-0.555c-0.799,0-1.446,0.648-1.446,1.446
			c0,0.799,0.647,1.447,1.446,1.447c0.461,0,0.867-0.22,1.132-0.555v6.216l-9.524,0.001c-0.159,0-0.29-0.129-0.29-0.287v-1.79
			h-2.538l-0.001,2.051c0,1.172,1.01,2.119,2.256,2.119l12.634-0.006V8.687h-2.537V11.961z"/>
		<path fill="#FFFFFF" d="M142.235,11.25h2.27V9.156H133.03v2.094h2.251c-0.237,0.336-0.315,0.618-0.315,0.618l-2.246,6.028h2.787
			l2.262-6.061c0.125-0.345,0.458-0.593,0.846-0.593h0.285c0.39,0,0.721,0.248,0.848,0.593l2.26,6.061h2.787l-2.246-6.028
			C142.55,11.868,142.472,11.585,142.235,11.25z"/>
		<path fill="#FFFFFF" d="M178.253,11.868l-3.224,4.025h3.324l3.254-4.057c0.272-0.345,0.711-0.587,1.102-0.587h0.283h0.118h0.283
			c0.392,0,0.828,0.242,1.103,0.587l3.252,4.057h3.324l-3.223-4.025c0,0-0.199-0.282-0.58-0.618h3.215V9.156h-14.881v2.094h3.229
			C178.452,11.585,178.253,11.868,178.253,11.868z"/>
	</g>
	<g>
		<path fill="#FFFFFF" d="M33.082,11.579L18.008,23.228c1.605,1.092,3.542,1.73,5.629,1.73c5.534,0,10.021-4.486,10.021-10.025
			C33.658,13.76,33.455,12.628,33.082,11.579z"/>
		<path fill="#FFFFFF" d="M12.183,4.914C6.647,4.914,2.16,9.4,2.16,14.934c0,1.179,0.203,2.31,0.578,3.359L17.81,6.641
			C16.204,5.55,14.268,4.914,12.183,4.914z"/>
		<path fill="#FFFFFF" d="M28.392,6.111c-0.417-0.226-0.85-0.422-1.298-0.586l-9.185,7.211L4.691,21.593
			c0.283,0.316,0.588,0.618,0.907,0.897l12.311-9.472L28.392,6.111z"/>
		<path fill="#FFFFFF" d="M29.891,7.103c-0.346-0.273-0.708-0.528-1.087-0.755l-10.895,8.442l-11.98,7.978
			c0.345,0.275,0.708,0.526,1.089,0.757l10.892-8.447L29.891,7.103z"/>
		<path fill="#FFFFFF" d="M31.128,8.278c-0.284-0.319-0.587-0.619-0.908-0.898l-12.312,9.464L7.426,23.758
			c0.417,0.227,0.852,0.423,1.301,0.588l9.183-7.213L31.128,8.278z"/>
		<path fill="#FFFFFF" d="M26.557,5.347c-0.512-0.156-1.041-0.273-1.585-0.344l-7.063,5.673L3.687,20.255
			c0.223,0.357,0.471,0.7,0.738,1.024l13.484-10.315L26.557,5.347z"/>
		<path fill="#FFFFFF" d="M24.213,4.93c-0.19-0.011-0.383-0.016-0.576-0.016c-0.616,0-1.219,0.054-1.804,0.161l-3.924,3.547
			L2.914,18.754c0.164,0.396,0.351,0.781,0.562,1.15l14.433-11L24.213,4.93z"/>
		<path fill="#FFFFFF" d="M32.132,9.617c-0.227-0.358-0.471-0.699-0.737-1.026L17.909,18.904L9.26,24.523
			c0.511,0.157,1.04,0.273,1.585,0.346l7.063-5.678L32.132,9.617z"/>
		<path fill="#FFFFFF" d="M32.342,9.967L17.909,20.958L11.6,24.94c0.193,0.011,0.388,0.019,0.583,0.019
			c0.618,0,1.223-0.057,1.813-0.166l3.914-3.547l14.997-10.129C32.74,10.721,32.554,10.336,32.342,9.967z"/>
	</g>
</g>
<g>
	<path fill="#FFFFFF" d="M204.696,16.505h1.665v-2.129c1.345-0.064,2.721-0.176,4.05-0.368l-0.112-1.041
		c-3.058,0.32-6.547,0.336-9.332,0.336l0.192,1.185c1.088,0,2.289,0,3.537-0.048V16.505z"/>
	<polygon fill="#FFFFFF" points="208.602,15.833 211.323,15.833 211.323,16.458 212.971,16.458 212.971,8.022 211.323,8.022 
		211.323,14.809 208.602,14.809 	"/>
	<polygon fill="#FFFFFF" points="204.76,20.123 212.971,20.123 212.971,16.969 203.095,16.969 203.095,18.106 211.338,18.106 
		211.338,19.067 203.127,19.067 203.127,22.348 213.387,22.348 213.387,21.178 204.76,21.178 	"/>
	<path fill="#FFFFFF" d="M205.608,12.6c2.146,0,3.586-0.832,3.586-2.161s-1.44-2.161-3.586-2.161c-2.16,0-3.602,0.833-3.602,2.161
		S203.448,12.6,205.608,12.6z M205.608,9.382c1.232,0,2.033,0.384,2.033,1.057c0,0.672-0.801,1.056-2.033,1.056
		c-1.248,0-2.049-0.384-2.049-1.056C203.559,9.767,204.36,9.382,205.608,9.382z"/>
	<path fill="#FFFFFF" d="M220.121,12.904c0.624,1.409,1.745,2.497,3.298,3.057l0.88-1.296c-2.192-0.72-3.394-2.529-3.394-4.53V8.79
		h-1.664v1.425c0,2.113-1.266,4.065-3.586,4.85l0.864,1.329C218.264,15.769,219.48,14.504,220.121,12.904z"/>
	<path fill="#FFFFFF" d="M222.874,16.938c-3.01,0-4.865,1.023-4.865,2.769s1.855,2.769,4.865,2.769c3.025,0,4.882-1.023,4.882-2.769
		S225.899,16.938,222.874,16.938z M222.874,21.178c-2.049,0-3.217-0.527-3.217-1.472s1.168-1.473,3.217-1.473
		s3.233,0.528,3.233,1.473S224.922,21.178,222.874,21.178z"/>
	<polygon fill="#FFFFFF" points="226.043,16.538 227.692,16.538 227.692,8.006 226.043,8.006 226.043,10.903 223.114,10.903 
		223.114,12.248 226.043,12.248 	"/>
	<path fill="#FFFFFF" d="M239.016,15.289v-0.08c1.248-0.464,2.033-1.344,2.033-2.673c0-1.889-1.489-2.977-3.602-2.977
		c-1.361,0-2.449,0.592-3.378,1.44l0.96,1.152c0.673-0.672,1.441-1.12,2.354-1.12c1.121,0,1.809,0.624,1.809,1.648
		c0,1.104-0.768,1.953-3.089,1.953v1.361c2.657,0,3.489,0.816,3.489,2.081c0,1.153-0.912,1.873-2.24,1.873
		c-1.217,0-2.098-0.593-2.785-1.297l-0.896,1.185c0.783,0.881,1.984,1.617,3.841,1.617c2.161,0,3.938-1.217,3.938-3.281
		C241.45,16.618,240.376,15.625,239.016,15.289z"/>
	<path fill="#FFFFFF" d="M244.807,18.858c-0.705,0-1.281,0.465-1.281,1.185c0,0.769,0.576,1.185,1.232,1.185
		c0.064,0,0.112,0,0.177-0.016c0,0.928-0.641,1.744-1.745,2.193l0.416,1.039c1.648-0.623,2.625-1.92,2.625-3.602
		C246.231,19.61,245.704,18.858,244.807,18.858z"/>
	<path fill="#FFFFFF" d="M254.264,9.783h-2.145l-4.689,7.187v1.232h5.105v3.041h1.729v-3.041h1.488v-1.424h-1.488V9.783z
		 M252.536,13.88v2.897h-3.25l2.322-3.49c0.336-0.592,0.656-1.137,0.943-1.713h0.064C252.583,12.215,252.536,13.24,252.536,13.88z"
		/>
	<path fill="#FFFFFF" d="M267.993,17.69c2.48-0.192,3.969-1.168,3.969-2.77c0-1.745-1.855-2.769-4.817-2.769
		c-2.945,0-4.802,1.024-4.802,2.769c0,1.602,1.521,2.594,4.002,2.77v1.856h-5.715v1.36h13.109v-1.36h-5.746V17.69z M264.023,14.92
		c0-0.944,1.152-1.488,3.121-1.488c1.985,0,3.138,0.544,3.138,1.488c0,0.96-1.152,1.505-3.138,1.505
		C265.175,16.425,264.023,15.881,264.023,14.92z"/>
	<polygon fill="#FFFFFF" points="273.067,9.991 267.993,9.991 267.993,8.214 266.344,8.214 266.344,9.991 261.238,9.991 
		261.238,11.319 273.067,11.319 	"/>
	<path fill="#FFFFFF" d="M276.182,10.887h5.154c-0.289,3.329-2.081,5.874-5.875,7.699l0.881,1.313
		c4.962-2.401,6.69-6.051,6.69-10.356h-6.851V10.887z"/>
	<rect x="285.641" y="8.022" fill="#FFFFFF" width="1.649" height="14.453"/>
	<path fill="#FFFFFF" d="M298.519,18.538h1.648v-2.785c1.232-0.08,2.497-0.208,3.714-0.416l-0.129-1.185
		c-3.057,0.384-6.609,0.416-9.268,0.432l0.209,1.345c1.152,0,2.449-0.016,3.825-0.08V18.538z"/>
	<polygon fill="#FFFFFF" points="302.056,17.658 304.889,17.658 304.889,19.002 306.538,19.002 306.538,8.006 304.889,8.006 
		304.889,16.505 302.056,16.505 	"/>
	<path fill="#FFFFFF" d="M299.175,13.656c2.112,0,3.569-1.009,3.569-2.545s-1.457-2.545-3.569-2.545
		c-2.129,0-3.585,1.008-3.585,2.545S297.046,13.656,299.175,13.656z M299.175,9.783c1.185,0,2.001,0.512,2.001,1.328
		c0,0.816-0.816,1.329-2.001,1.329c-1.2,0-2.017-0.512-2.017-1.329C297.159,10.295,297.975,9.783,299.175,9.783z"/>
	<polygon fill="#FFFFFF" points="298.086,17.93 296.438,17.93 296.438,22.204 306.875,22.204 306.875,20.859 298.086,20.859 	"/>
	<path fill="#FFFFFF" d="M319.61,10.487h-2.881c0.111-0.464,0.16-0.992,0.16-1.521h-6.659v1.329h4.897
		c-0.304,2.225-2.305,4.018-5.666,4.914l0.641,1.313c3.089-0.833,5.266-2.45,6.227-4.707h3.281v1.729h-3.506v1.345h3.506v1.745
		h1.648V8.006h-1.648V10.487z"/>
	<polygon fill="#FFFFFF" points="311.51,18.571 319.61,18.571 319.61,22.444 321.258,22.444 321.258,17.257 311.51,17.257 	"/>
	<polygon fill="#FFFFFF" points="335.291,8.006 333.641,8.006 333.641,16.169 335.291,16.169 335.291,12.728 337.339,12.728 
		337.339,11.367 335.291,11.367 	"/>
	<path fill="#FFFFFF" d="M331.321,8.886h-6.738v1.344h4.961c-0.271,2.193-2.24,3.954-5.617,4.85l0.64,1.313
		C328.84,15.257,331.321,12.632,331.321,8.886z"/>
	<path fill="#FFFFFF" d="M326.055,22.299h9.235v-5.506h-9.235V22.299z M327.688,18.106h5.97v2.865h-5.97V18.106z"/>
	<rect x="348.954" y="8.006" fill="#FFFFFF" width="1.664" height="14.502"/>
	<path fill="#FFFFFF" d="M344.055,11.591V9.222h-1.648v2.369c0,2.785-1.504,5.554-3.809,6.595l0.976,1.377
		c1.745-0.849,3.025-2.562,3.682-4.658c0.656,1.953,1.921,3.553,3.585,4.338l0.961-1.313
		C345.528,16.905,344.055,14.249,344.055,11.591z"/>
	<rect x="363.673" y="8.006" fill="#FFFFFF" width="1.665" height="14.502"/>
	<path fill="#FFFFFF" d="M358.776,11.591V9.222h-1.648v2.369c0,2.785-1.506,5.554-3.811,6.595l0.977,1.377
		c1.744-0.849,3.025-2.562,3.682-4.658c0.656,1.953,1.921,3.553,3.586,4.338l0.96-1.313
		C360.249,16.905,358.776,14.249,358.776,11.591z"/>
	<path fill="#FFFFFF" d="M374.648,12.472c0.944,1.985,2.978,3.489,5.33,3.97l0.721-1.361c-2.849-0.512-5.171-2.737-5.171-5.042V8.95
		h-1.744v1.088c0,2.289-2.32,4.514-5.17,5.042l0.704,1.361C371.67,15.961,373.704,14.457,374.648,12.472z"/>
	<rect x="368.166" y="19.258" fill="#FFFFFF" width="13.093" height="1.361"/>
	<path fill="#FFFFFF" d="M385.495,22.299h9.62v-4.978h-9.62V22.299z M387.127,18.634h6.387v2.353h-6.387V18.634z"/>
	<polygon fill="#FFFFFF" points="390.76,16.569 392.297,16.569 392.297,8.246 390.76,8.246 390.76,11.575 389.048,11.575 
		389.048,12.904 390.76,12.904 	"/>
	<rect x="393.545" y="8.006" fill="#FFFFFF" width="1.569" height="8.692"/>
	<path fill="#FFFFFF" d="M389.544,14.296c-1.425,0.256-2.642,0.336-4.466,0.352v-1.633h3.329v-1.264h-3.329v-1.505h3.857V8.918
		h-5.441v7.043h0.943c2.241,0,3.617-0.048,5.267-0.352L389.544,14.296z"/>
</g>
</svg>
